<svg width="37" height="52" viewBox="0 0 37 52" fill="none" xmlns="http://www.w3.org/2000/svg">
<path d="M3.39258 28.6002V26.0002H0.373744V28.6002H3.39258Z" fill="#9AE9FF"/>
<path d="M3.39258 26.0001V23.4001H0.373744V26.0001H3.39258Z" fill="#9AE9FF"/>
<path d="M6.41406 31.2006V28.6006H3.39523V31.2006H6.41406Z" fill="#9AE9FF"/>
<path d="M6.41406 28.6002V26.0002H3.39523V28.6002H6.41406Z" fill="#9AE9FF"/>
<path d="M6.41406 26.0001V23.4001H3.39523V26.0001H6.41406Z" fill="#9AE9FF"/>
<path d="M6.41406 23.4003V20.8003H3.39523V23.4003H6.41406Z" fill="#9AE9FF"/>
<path d="M9.43164 52.0001V49.4001H6.41281V52.0001H9.43164Z" fill="#9AE9FF"/>
<path d="M9.43164 49.4V46.8H6.41281V49.4H9.43164Z" fill="#9AE9FF"/>
<path d="M9.43164 46.8002V44.2002H6.41281V46.8002H9.43164Z" fill="#9AE9FF"/>
<path d="M9.43164 44.2003V41.6003H6.41281V44.2003H9.43164Z" fill="#9AE9FF"/>
<path d="M9.43164 33.8V31.2H6.41281V33.8H9.43164Z" fill="#9AE9FF"/>
<path d="M9.43164 31.2006V28.6006H6.41281V31.2006H9.43164Z" fill="#9AE9FF"/>
<path d="M9.43164 23.4003V20.8003H6.41281V23.4003H9.43164Z" fill="#9AE9FF"/>
<path d="M9.43164 20.8004V18.2004H6.41281V20.8004H9.43164Z" fill="#9AE9FF"/>
<path d="M9.43164 10.4V7.80005H6.41281V10.4H9.43164Z" fill="#9AE9FF"/>
<path d="M9.43164 7.80019V5.2002H6.41281V7.80019H9.43164Z" fill="#9AE9FF"/>
<path d="M9.43164 5.2001V2.6001H6.41281V5.2001H9.43164Z" fill="#9AE9FF"/>
<path d="M9.43164 2.60024V0.000244141L6.41281 0.000244141V2.60024H9.43164Z" fill="#9AE9FF"/>
<path d="M12.4512 49.4V46.8H9.43234V49.4H12.4512Z" fill="#9AE9FF"/>
<path d="M12.4512 46.8002V44.2002H9.43234V46.8002H12.4512Z" fill="#9AE9FF"/>
<path d="M12.4512 36.4005V33.8005H9.43234V36.4005H12.4512Z" fill="#9AE9FF"/>
<path d="M12.4512 33.8V31.2H9.43234V33.8H12.4512Z" fill="#9AE9FF"/>
<path d="M12.4512 31.2006V28.6006H9.43234V31.2006H12.4512Z" fill="#9AE9FF"/>
<path d="M12.4512 23.4003V20.8003H9.43234V23.4003H12.4512Z" fill="#9AE9FF"/>
<path d="M12.4512 20.8004V18.2004H9.43234V20.8004H12.4512Z" fill="#9AE9FF"/>
<path d="M12.4512 18.2003V15.6003H9.43234V18.2003H12.4512Z" fill="#9AE9FF"/>
<path d="M12.4512 7.80019V5.2002H9.43234V7.80019H12.4512Z" fill="#9AE9FF"/>
<path d="M12.4512 5.2001V2.6001H9.43234V5.2001H12.4512Z" fill="#9AE9FF"/>
<path d="M15.4707 46.8002V44.2002H12.4519V46.8002H15.4707Z" fill="#9AE9FF"/>
<path d="M15.4707 44.2003V41.6003H12.4519V44.2003H15.4707Z" fill="#9AE9FF"/>
<path d="M15.4707 33.8V31.2H12.4519V33.8H15.4707Z" fill="#9AE9FF"/>
<path d="M15.4707 31.2006V28.6006H12.4519V31.2006H15.4707Z" fill="#9AE9FF"/>
<path d="M15.4707 28.6002V26.0002H12.4519V28.6002H15.4707Z" fill="#9AE9FF"/>
<path d="M15.4707 26.0001V23.4001H12.4519V26.0001H15.4707Z" fill="#9AE9FF"/>
<path d="M15.4707 23.4003V20.8003H12.4519V23.4003H15.4707Z" fill="#9AE9FF"/>
<path d="M15.4707 20.8004V18.2004H12.4519V20.8004H15.4707Z" fill="#9AE9FF"/>
<path d="M15.4707 10.4V7.80005H12.4519V10.4H15.4707Z" fill="#9AE9FF"/>
<path d="M15.4707 7.80019V5.2002H12.4519V7.80019H15.4707Z" fill="#9AE9FF"/>
<path d="M18.4902 44.2003V41.6003H15.4714V44.2003H18.4902Z" fill="#9AE9FF"/>
<path d="M18.4902 41.6005V39.0005H15.4714V41.6005H18.4902Z" fill="#9AE9FF"/>
<path d="M18.4902 31.2006V28.6006H15.4714V31.2006H18.4902Z" fill="#9AE9FF"/>
<path d="M18.4902 28.6002V26.0002H15.4714V28.6002H18.4902Z" fill="#9AE9FF"/>
<path d="M18.4902 26.0001V23.4001H15.4714V26.0001H18.4902Z" fill="#9AE9FF"/>
<path d="M18.4902 23.4003V20.8003H15.4714V23.4003H18.4902Z" fill="#9AE9FF"/>
<path d="M18.4902 12.9999V10.3999H15.4714V12.9999H18.4902Z" fill="#9AE9FF"/>
<path d="M18.4902 10.4V7.80005H15.4714V10.4H18.4902Z" fill="#9AE9FF"/>
<path d="M21.5098 41.6005V39.0005H18.4909V41.6005H21.5098Z" fill="#9AE9FF"/>
<path d="M21.5098 38.9999V36.3999H18.4909V38.9999H21.5098Z" fill="#9AE9FF"/>
<path d="M21.5098 28.6002V26.0002H18.4909V28.6002H21.5098Z" fill="#9AE9FF"/>
<path d="M21.5098 26.0001V23.4001H18.4909V26.0001H21.5098Z" fill="#9AE9FF"/>
<path d="M21.5098 15.6005V13.0005H18.4909V15.6005H21.5098Z" fill="#9AE9FF"/>
<path d="M21.5098 12.9999V10.3999H18.4909V12.9999H21.5098Z" fill="#9AE9FF"/>
<path d="M24.5293 38.9999V36.3999H21.5105V38.9999H24.5293Z" fill="#9AE9FF"/>
<path d="M24.5293 36.4005V33.8005H21.5105V36.4005H24.5293Z" fill="#9AE9FF"/>
<path d="M24.5293 18.2003V15.6003H21.5105V18.2003H24.5293Z" fill="#9AE9FF"/>
<path d="M24.5293 15.6005V13.0005H21.5105V15.6005H24.5293Z" fill="#9AE9FF"/>
<path d="M27.5469 36.4005V33.8005H24.528V36.4005H27.5469Z" fill="#9AE9FF"/>
<path d="M27.5469 33.8V31.2H24.528V33.8H27.5469Z" fill="#9AE9FF"/>
<path d="M27.5469 20.8004V18.2004H24.528V20.8004H27.5469Z" fill="#9AE9FF"/>
<path d="M27.5469 18.2003V15.6003H24.528V18.2003H27.5469Z" fill="#9AE9FF"/>
<path d="M30.5664 33.8V31.2H27.5476V33.8H30.5664Z" fill="#9AE9FF"/>
<path d="M30.5664 31.2006V28.6006H27.5476V31.2006H30.5664Z" fill="#9AE9FF"/>
<path d="M30.5664 23.4003V20.8003H27.5476V23.4003H30.5664Z" fill="#9AE9FF"/>
<path d="M30.5664 20.8004V18.2004H27.5476V20.8004H30.5664Z" fill="#9AE9FF"/>
<path d="M33.5859 31.2006V28.6006H30.5671V31.2006H33.5859Z" fill="#9AE9FF"/>
<path d="M33.5859 28.6002V26.0002H30.5671V28.6002H33.5859Z" fill="#9AE9FF"/>
<path d="M33.5859 26.0001V23.4001H30.5671V26.0001H33.5859Z" fill="#9AE9FF"/>
<path d="M33.5859 23.4003V20.8003H30.5671V23.4003H33.5859Z" fill="#9AE9FF"/>
<path d="M36.6055 28.6002V26.0002H33.5866V28.6002H36.6055Z" fill="#9AE9FF"/>
<path d="M36.6055 26.0001V23.4001H33.5866V26.0001H36.6055Z" fill="#9AE9FF"/>
</svg>
