<svg width="37" height="52" viewBox="0 0 37 52" fill="none" xmlns="http://www.w3.org/2000/svg">
<path d="M33.2129 23.4V26H36.2317V23.4H33.2129Z" fill="#9AE9FF"/>
<path d="M33.2129 26.0003V28.6003H36.2317V26.0003H33.2129Z" fill="#9AE9FF"/>
<path d="M30.1914 20.7999V23.3999H33.2102V20.7999H30.1914Z" fill="#9AE9FF"/>
<path d="M30.1914 23.4V26H33.2102V23.4H30.1914Z" fill="#9AE9FF"/>
<path d="M30.1914 26.0003V28.6003H33.2102V26.0003H30.1914Z" fill="#9AE9FF"/>
<path d="M30.1914 28.5997V31.1997H33.2102V28.5997H30.1914Z" fill="#9AE9FF"/>
<path d="M27.1738 -0.000146866V2.59985H30.1927V-0.000146866H27.1738Z" fill="#9AE9FF"/>
<path d="M27.1738 2.59996V5.19995H30.1927V2.59996H27.1738Z" fill="#9AE9FF"/>
<path d="M27.1738 5.1998V7.7998H30.1927V5.1998H27.1738Z" fill="#9AE9FF"/>
<path d="M27.1738 7.79966V10.3997H30.1927V7.79966H27.1738Z" fill="#9AE9FF"/>
<path d="M27.1738 18.2V20.8H30.1927V18.2H27.1738Z" fill="#9AE9FF"/>
<path d="M27.1738 20.7999V23.3999H30.1927V20.7999H27.1738Z" fill="#9AE9FF"/>
<path d="M27.1738 28.5997V31.1997H30.1927V28.5997H27.1738Z" fill="#9AE9FF"/>
<path d="M27.1738 31.2003V33.8003H30.1927V31.2003H27.1738Z" fill="#9AE9FF"/>
<path d="M27.1738 41.6V44.2H30.1927V41.6H27.1738Z" fill="#9AE9FF"/>
<path d="M27.1738 44.1998V46.7998H30.1927V44.1998H27.1738Z" fill="#9AE9FF"/>
<path d="M27.1738 46.7999V49.3999H30.1927V46.7999H27.1738Z" fill="#9AE9FF"/>
<path d="M27.1738 49.3998V51.9998H30.1927V49.3998H27.1738Z" fill="#9AE9FF"/>
<path d="M24.1543 2.59996V5.19995H27.1731V2.59996H24.1543Z" fill="#9AE9FF"/>
<path d="M24.1543 5.1998V7.7998H27.1731V5.1998H24.1543Z" fill="#9AE9FF"/>
<path d="M24.1543 15.6002V18.2002H27.1731V15.6002H24.1543Z" fill="#9AE9FF"/>
<path d="M24.1543 18.2V20.8H27.1731V18.2H24.1543Z" fill="#9AE9FF"/>
<path d="M24.1543 20.7999V23.3999H27.1731V20.7999H24.1543Z" fill="#9AE9FF"/>
<path d="M24.1543 28.5997V31.1997H27.1731V28.5997H24.1543Z" fill="#9AE9FF"/>
<path d="M24.1543 31.2003V33.8003H27.1731V31.2003H24.1543Z" fill="#9AE9FF"/>
<path d="M24.1543 33.7997V36.3997H27.1731V33.7997H24.1543Z" fill="#9AE9FF"/>
<path d="M24.1543 44.1998V46.7998H27.1731V44.1998H24.1543Z" fill="#9AE9FF"/>
<path d="M24.1543 46.7999V49.3999H27.1731V46.7999H24.1543Z" fill="#9AE9FF"/>
<path d="M21.1348 5.1998V7.7998H24.1536V5.1998H21.1348Z" fill="#9AE9FF"/>
<path d="M21.1348 7.79966V10.3997H24.1536V7.79966H21.1348Z" fill="#9AE9FF"/>
<path d="M21.1348 18.2V20.8H24.1536V18.2H21.1348Z" fill="#9AE9FF"/>
<path d="M21.1348 20.7999V23.3999H24.1536V20.7999H21.1348Z" fill="#9AE9FF"/>
<path d="M21.1348 23.4V26H24.1536V23.4H21.1348Z" fill="#9AE9FF"/>
<path d="M21.1348 26.0003V28.6003H24.1536V26.0003H21.1348Z" fill="#9AE9FF"/>
<path d="M21.1348 28.5997V31.1997H24.1536V28.5997H21.1348Z" fill="#9AE9FF"/>
<path d="M21.1348 31.2003V33.8003H24.1536V31.2003H21.1348Z" fill="#9AE9FF"/>
<path d="M21.1348 41.6V44.2H24.1536V41.6H21.1348Z" fill="#9AE9FF"/>
<path d="M21.1348 44.1998V46.7998H24.1536V44.1998H21.1348Z" fill="#9AE9FF"/>
<path d="M18.1152 7.79966V10.3997H21.1341V7.79966H18.1152Z" fill="#9AE9FF"/>
<path d="M18.1152 10.4002V13.0002H21.1341V10.4002H18.1152Z" fill="#9AE9FF"/>
<path d="M18.1152 20.7999V23.3999H21.1341V20.7999H18.1152Z" fill="#9AE9FF"/>
<path d="M18.1152 23.4V26H21.1341V23.4H18.1152Z" fill="#9AE9FF"/>
<path d="M18.1152 26.0003V28.6003H21.1341V26.0003H18.1152Z" fill="#9AE9FF"/>
<path d="M18.1152 28.5997V31.1997H21.1341V28.5997H18.1152Z" fill="#9AE9FF"/>
<path d="M18.1152 39.0001V41.6001H21.1341V39.0001H18.1152Z" fill="#9AE9FF"/>
<path d="M18.1152 41.6V44.2H21.1341V41.6H18.1152Z" fill="#9AE9FF"/>
<path d="M15.0957 10.4002V13.0002H18.1145V10.4002H15.0957Z" fill="#9AE9FF"/>
<path d="M15.0957 13.0001V15.6001H18.1145V13.0001H15.0957Z" fill="#9AE9FF"/>
<path d="M15.0957 23.4V26H18.1145V23.4H15.0957Z" fill="#9AE9FF"/>
<path d="M15.0957 26.0003V28.6003H18.1145V26.0003H15.0957Z" fill="#9AE9FF"/>
<path d="M15.0957 36.4002V39.0002H18.1145V36.4002H15.0957Z" fill="#9AE9FF"/>
<path d="M15.0957 39.0001V41.6001H18.1145V39.0001H15.0957Z" fill="#9AE9FF"/>
<path d="M12.0762 13.0001V15.6001H15.095V13.0001H12.0762Z" fill="#9AE9FF"/>
<path d="M12.0762 15.6002V18.2002H15.095V15.6002H12.0762Z" fill="#9AE9FF"/>
<path d="M12.0762 33.7997V36.3997H15.095V33.7997H12.0762Z" fill="#9AE9FF"/>
<path d="M12.0762 36.4002V39.0002H15.095V36.4002H12.0762Z" fill="#9AE9FF"/>
<path d="M9.05859 15.6002V18.2002H12.0774V15.6002H9.05859Z" fill="#9AE9FF"/>
<path d="M9.05859 18.2V20.8H12.0774V18.2H9.05859Z" fill="#9AE9FF"/>
<path d="M9.05859 31.2003V33.8003H12.0774V31.2003H9.05859Z" fill="#9AE9FF"/>
<path d="M9.05859 33.7997V36.3997H12.0774V33.7997H9.05859Z" fill="#9AE9FF"/>
<path d="M6.03906 18.2V20.8H9.0579V18.2H6.03906Z" fill="#9AE9FF"/>
<path d="M6.03906 20.7999V23.3999H9.0579V20.7999H6.03906Z" fill="#9AE9FF"/>
<path d="M6.03906 28.5997V31.1997H9.0579V28.5997H6.03906Z" fill="#9AE9FF"/>
<path d="M6.03906 31.2003V33.8003H9.0579V31.2003H6.03906Z" fill="#9AE9FF"/>
<path d="M3.01953 20.7999V23.3999H6.03836V20.7999H3.01953Z" fill="#9AE9FF"/>
<path d="M3.01953 23.4V26H6.03836V23.4H3.01953Z" fill="#9AE9FF"/>
<path d="M3.01953 26.0003V28.6003H6.03836V26.0003H3.01953Z" fill="#9AE9FF"/>
<path d="M3.01953 28.5997V31.1997H6.03836V28.5997H3.01953Z" fill="#9AE9FF"/>
<path d="M0 23.4L0 26H3.01884V23.4H0Z" fill="#9AE9FF"/>
<path d="M0 26.0003L0 28.6003H3.01884V26.0003H0Z" fill="#9AE9FF"/>
</svg>
