<svg width="116" height="59" viewBox="0 0 116 59" fill="none" xmlns="http://www.w3.org/2000/svg">
<g filter="url(#filter0_f_448_107033)">
<path d="M110.232 41.3053L110.46 40.1909L109.344 39.9632L108.228 39.7354L108.456 38.6215L107.34 38.3939L107.568 37.2795L106.452 37.0516L106.68 35.9378L105.564 35.7101L105.792 34.5957L106.908 34.8234L107.136 33.7096L107.364 32.5952L106.248 32.3675L105.132 32.1397L104.016 31.912L102.9 31.6842L103.128 30.5704L102.011 30.3426L102.239 29.2281L101.123 29.0004L101.352 27.8866L100.235 27.6588L100.463 26.5444L99.3473 26.3167L98.2308 26.0889L97.1149 25.8612L95.9984 25.6334L95.7702 26.7478L95.5421 27.8616L96.6586 28.0895L97.7745 28.3171L98.891 28.545L98.6627 29.6594L98.4346 30.7732L98.2064 31.8876L97.9783 33.0014L97.75 34.1158L96.6335 33.888L96.4054 35.0018L95.2895 34.7742L95.0613 35.8886L93.9447 35.6608L92.8288 35.4331L92.6007 36.5469L91.4842 36.3191L90.3683 36.0914L90.5964 34.9776L90.8246 33.8632L91.9405 34.0909L93.057 34.3187L93.2852 33.2048L93.5134 32.0904L92.3969 31.8626L91.281 31.6349L91.0527 32.7493L89.9362 32.5215L88.8203 32.2938L89.0485 31.1794L89.2767 30.0656L88.1601 29.8378L87.932 30.9516L86.8155 30.7238L85.6996 30.4961L84.5831 30.2683L83.4672 30.0406L82.3507 29.8128L82.1224 30.9272L81.8943 32.0411L81.6661 33.1555L80.5501 32.9278L80.322 34.0416L79.2055 33.8138L78.9773 34.9282L77.8613 34.7005L76.7448 34.4727L76.5166 35.5871L75.4001 35.3593L74.2841 35.1316L74.5124 34.0172L73.3959 33.7894L73.6241 32.675L74.7406 32.9028L74.9687 31.789L76.0847 32.0167L76.3129 30.9022L76.541 29.7884L75.4251 29.5607L74.3086 29.3329L73.1927 29.1052L72.0761 28.8774L72.3044 27.763L71.1885 27.5353L71.4166 26.4215L70.3001 26.1937L70.5283 25.0793L69.4124 24.8516L68.2959 24.6238L68.524 23.51L67.4081 23.2823L66.2916 23.0545L65.1756 22.8268L64.9475 23.9406L64.7193 25.055L65.8352 25.2827L65.6071 26.3965L66.7236 26.6243L67.8395 26.852L67.6113 27.9664L68.7278 28.1942L68.4997 29.3081L69.6156 29.5358L69.3874 30.6502L69.1592 31.764L68.931 32.8784L68.7028 33.9928L68.4746 35.1066L67.3587 34.8789L66.2422 34.6511L66.014 35.7655L64.898 35.5378L64.6699 36.6517L63.5534 36.4238L63.3252 37.5382L62.2092 37.3106L61.9811 38.4244L60.8646 38.1966L60.6364 39.311L59.5199 39.0832L59.2917 40.197L58.1758 39.9693L57.0593 39.7415L56.8311 40.8559L55.7152 40.6282L54.5986 40.4004L54.8269 39.286L55.055 38.1722L56.1715 38.4L56.3998 37.2856L57.5157 37.5133L58.6322 37.7411L58.8603 36.6273L59.0885 35.5129L59.3167 34.399L58.2002 34.1712L57.0842 33.9435L55.9677 33.7157L55.7396 34.8295L54.6237 34.6019L54.8518 33.488L55.08 32.3736L55.3081 31.2598L54.1916 31.032L54.4199 29.9176L54.6481 28.8032L54.8762 27.6894L55.1045 26.575L56.221 26.8028L56.4491 25.6889L57.565 25.9166L57.7933 24.8022L58.9098 25.03L60.0257 25.2577L61.1422 25.4855L62.2581 25.7132L63.3746 25.941L63.6028 24.8272L62.4862 24.5994L61.3703 24.3717L61.5986 23.2573L60.4821 23.0295L59.3661 22.8018L58.2496 22.574L57.1337 22.3463L56.0172 22.1185L55.7889 23.2329L54.673 23.0052L54.4449 24.119L53.3284 23.8912L53.1002 25.0056L51.9842 24.7779L51.7561 25.8918L50.6396 25.664L49.5237 25.4363L49.2954 26.5507L50.4113 26.7784L50.1832 27.8922L51.2997 28.12L51.0715 29.2344L52.1874 29.4621L51.9592 30.5765L51.7311 31.6903L52.8476 31.9181L52.6193 33.0325L52.3912 34.1464L52.163 35.2608L51.0465 35.033L49.9305 34.8053L49.7024 35.9191L48.5859 35.6913L47.47 35.4636L47.2418 36.578L46.1253 36.3502L45.8971 37.464L44.7806 37.2362L43.6647 37.0085L43.4365 38.1229L42.3199 37.8951L42.0918 39.0089L40.9759 38.7812L39.8594 38.5534L40.0875 37.4396L38.9716 37.2119L39.1998 36.0975L39.4279 34.9837L40.5439 35.2114L41.6604 35.4392L41.8886 34.3248L43.0045 34.5525L43.2327 33.4386L43.4609 32.3242L42.345 32.0966L41.2285 31.8687L40.1125 31.6411L40.3407 30.5272L40.5689 29.4128L39.4524 29.185L39.6805 28.0712L39.9088 26.9568L40.137 25.8424L40.3651 24.7286L40.5933 23.6142L41.7098 23.842L41.938 22.7281L43.0539 22.9558L43.2821 21.8414L44.3986 22.0692L45.5146 22.2969L46.6311 22.5247L47.747 22.7524L47.9751 21.6386L46.8592 21.4109L45.7427 21.1831L44.6268 20.9554L44.855 19.841L43.7385 19.6132L42.6226 19.3855L41.5061 19.1577L41.2778 20.2721L40.1619 20.0444L39.0454 19.8166L38.8173 20.9304L37.7008 20.7026L37.4725 21.817L37.2444 22.9309L36.1285 22.7032L35.9002 23.8176L34.7837 23.5898L33.6678 23.3621L32.5513 23.1343L31.4354 22.9066L31.2072 24.0204L30.979 25.1348L32.0949 25.3625L31.8667 26.4769L32.9832 26.7047L32.7551 27.8185L33.871 28.0462L33.6428 29.1606L34.7593 29.3884L34.5312 30.5023L34.3029 31.6167L34.0748 32.7305L32.9583 32.5027L32.7301 33.6171L31.6141 33.3894L31.8424 32.275L30.7258 32.0472L29.6099 31.8195L29.838 30.7057L30.0663 29.5913L30.2944 28.4774L30.5226 27.363L29.4061 27.1352L28.2902 26.9075L28.062 28.0219L26.9455 27.7941L26.7173 28.908L25.6014 28.6803L24.4849 28.4525L23.369 28.2248L22.2525 27.997L21.136 27.7692L20.9077 28.8836L19.7918 28.6559L19.5637 29.7697L20.6796 29.9974L20.4514 31.1118L19.3354 30.8841L18.2189 30.6563L17.9908 31.7701L16.8749 31.5424L15.7584 31.3146L15.9865 30.2008L14.8706 29.9731L13.7541 29.7453L12.6381 29.5176L11.5216 29.2898L10.4051 29.062L10.6333 27.9476L9.51742 27.7199L9.74554 26.6061L8.62903 26.3783L7.51309 26.1506L6.39659 25.9228L5.28066 25.6951L5.05254 26.8089L4.8243 27.9233L5.94023 28.151L7.05673 28.3788L8.17268 28.6065L9.28918 28.8343L9.06106 29.9481L10.177 30.1758L9.94875 31.2902L11.0653 31.518L10.8371 32.6318L11.9536 32.8597L13.0696 33.0873L14.1861 33.3152L15.302 33.5428L16.4185 33.7706L17.5344 33.9983L18.6509 34.2261L19.7669 34.4538L19.995 33.34L21.1115 33.5678L22.228 33.7956L23.3439 34.0233L23.5722 32.9089L24.6887 33.1367L24.4604 34.2511L25.5764 34.4788L26.6929 34.7066L26.4648 35.8204L27.5807 36.0481L28.6972 36.2759L28.469 37.3903L29.5849 37.618L30.7014 37.8458L30.4732 38.9602L31.5891 39.1879L31.361 40.3018L31.1327 41.4162L32.2492 41.644L33.3652 41.8717L33.1371 42.9855L34.2536 43.2133L35.3701 43.4411L36.486 43.6688L37.6025 43.8966L38.7184 44.1243L39.8349 44.3521L40.0631 43.2383L41.179 43.466L42.2955 43.6938L43.4114 43.9215L43.6397 42.8071L44.7562 43.0349L44.9843 41.921L46.1008 42.1488L47.2167 42.3765L47.445 41.2621L48.5615 41.4899L49.6774 41.7176L49.4492 42.832L50.5657 43.0598L51.6816 43.2875L52.7981 43.5153L53.9141 43.743L53.6859 44.8569L54.8024 45.0847L55.9184 45.3124L56.1465 44.1985L57.263 44.4263L58.3789 44.654L59.4954 44.8818L59.7237 43.7674L60.8402 43.9952L61.9561 44.2229L62.1843 43.1085L63.3008 43.3363L63.529 42.2225L64.6449 42.4502L64.8731 41.3358L65.9896 41.5636L66.2178 40.4498L67.3337 40.6775L67.5619 39.5631L67.7901 38.4492L68.9066 38.6771L70.0225 38.9047L71.139 39.1325L72.2549 39.3602L73.3714 39.588L74.4874 39.8157L74.7156 38.7013L75.8321 38.9291L76.0602 37.8153L77.1767 38.0431L78.2927 38.2708L79.4092 38.4986L79.6374 37.3842L80.7533 37.6119L81.8698 37.8397L81.6416 38.9541L82.7575 39.1818L83.874 39.4096L84.99 39.6373L84.7618 40.7511L85.8783 40.9789L86.9949 41.2068L86.7666 42.3212L87.8826 42.5488L88.9991 42.7767L89.2273 41.6623L90.3432 41.8899L91.4597 42.1177L92.5757 42.3454L92.8038 41.2316L93.9203 41.4594L94.1485 40.345L95.2645 40.5727L95.4926 39.4589L96.6091 39.6867L96.8373 38.5723L97.9532 38.8L99.0698 39.0278L99.298 37.9134L100.414 38.1411L101.53 38.3689L102.647 38.5967L103.763 38.8244L104.879 39.0522L104.651 40.1666L105.767 40.3943L106.884 40.6221L106.655 41.7365L107.771 41.9642L108.888 42.192L110.004 42.4197L111.12 42.6475L111.348 41.5331L110.232 41.3053Z" fill="#121A54"/>
<path d="M96.6602 28.0865L95.544 27.8591L94.4284 27.6319L93.3122 27.4045L92.1966 27.1773L91.9679 28.2924L90.8517 28.065L90.623 29.1796L89.5074 28.9523L89.2787 30.0674L89.05 31.1819L88.8213 32.2971L89.9369 32.5243L91.0531 32.7517L91.2818 31.6366L92.3974 31.8638L92.6261 30.7493L93.7422 30.9766L93.971 29.8615L95.0866 30.0888L96.2028 30.3162L97.3184 30.5434L98.4346 30.7708L98.6632 29.6562L98.892 28.5411L97.7758 28.3137L96.6602 28.0865Z" fill="#92B5F5"/>
<path d="M68.7294 28.1894L67.6132 27.962L67.842 26.8468L66.7263 26.6196L65.6101 26.3922L64.4944 26.1649L63.3782 25.9375L62.262 25.7101L61.1464 25.4829L60.0301 25.2555L58.9145 25.0282L57.7983 24.8008L57.5695 25.916L56.4539 25.6888L56.2252 26.8034L55.109 26.576L54.8802 27.6912L54.6516 28.8058L54.4228 29.921L55.539 30.1484L56.6547 30.3757L56.8834 29.2605L57.9997 29.4878L58.2283 28.3732L59.344 28.6005L60.4602 28.8279L60.6889 27.7127L61.8046 27.94L62.9208 28.1673L62.692 29.2825L63.8083 29.5099L64.9239 29.7372L64.6953 30.8518L65.8115 31.0792L65.5827 32.1944L66.6984 32.4216L66.4696 33.5368L66.2409 34.6514L67.3572 34.8788L68.4728 35.1061L68.7015 33.9915L68.9302 32.8763L69.159 31.7611L69.3876 30.6465L69.6164 29.5313L68.5008 29.304L68.7294 28.1894Z" fill="#92B5F5"/>
<path d="M51.9566 30.5745L52.1853 29.4596L51.0698 29.2323L51.2985 28.1174L50.1824 27.89L50.4111 26.7756L49.2956 26.5484L49.5243 25.4335L49.7529 24.3191L48.6368 24.0917L48.8656 22.9767L47.7495 22.7494L46.634 22.5222L45.5179 22.2949L44.4024 22.0676L43.2863 21.8403L43.0575 22.9553L41.942 22.728L41.7134 23.8424L40.5973 23.6151L40.3686 24.7301L40.14 25.8445L41.256 26.0718L42.3716 26.299L42.6002 25.1846L43.7163 25.412L44.8318 25.6392L45.9479 25.8665L47.0634 26.0937L46.8348 27.2081L46.606 28.3231L47.7221 28.5504L47.4934 29.6654L48.6095 29.8927L48.3808 31.0071L48.1521 32.1221L49.2676 32.3493L49.039 33.4637L48.8102 34.5787L49.9263 34.806L51.0418 35.0332L52.1579 35.2606L52.3867 34.1456L52.6153 33.0312L52.844 31.9162L51.7279 31.6889L51.9566 30.5745Z" fill="#92B5F5"/>
<path d="M111.805 39.3039L110.689 39.0767L110.461 40.191L111.576 40.4182L111.805 39.3039Z" fill="#92B5F5"/>
<path d="M108.274 28.1184L108.503 27.0028L107.387 26.7755L107.616 25.6605L107.844 24.5449L106.728 24.3174L106.957 23.2024L105.841 22.9751L106.07 21.8595L104.953 21.632L105.182 20.5171L104.066 20.2896L102.95 20.0622L101.834 19.8348L102.062 18.7192L100.947 18.4919L99.8303 18.2644L98.7145 18.0371L97.5982 17.8096L96.4824 17.5823L95.3661 17.3548L94.2503 17.1275L94.0215 18.243L92.9052 18.0156L91.7894 17.7882L90.673 17.5608L90.4444 18.6758L89.328 18.4483L89.0992 19.5639L87.9835 19.3365L86.8671 19.1091L86.6385 20.2241L85.5227 19.9967L85.2939 21.1123L84.1776 20.8848L83.9489 21.9998L82.8331 21.7725L82.6043 22.8881L81.488 22.6606L81.2592 23.7762L80.1434 23.5488L79.9148 24.6638L79.686 25.7794L78.5696 25.552L78.3409 26.6669L78.1122 27.7825L76.9958 27.5551L77.2246 26.4395L77.4533 25.3245L76.3375 25.0972L76.5663 23.9816L76.795 22.8666L77.0238 21.751L75.9074 21.5235L76.1362 20.408L76.3649 19.293L75.2491 19.0656L75.4779 17.9501L74.3616 17.7226L74.5903 16.6076L73.4745 16.3802L72.3582 16.1528L72.5869 15.0372L71.4712 14.8099L70.3548 14.5824L69.2391 14.3551L68.1227 14.1276L67.0069 13.9003L65.8906 13.6728L64.7743 13.4453L63.6585 13.218L63.4297 14.3336L62.3134 14.1061L61.1976 13.8788L60.9689 14.9938L59.8526 14.7663L59.6238 15.8819L58.508 15.6545L58.2793 16.7695L57.163 16.5421L56.9342 17.6576L55.8185 17.4303L55.5897 18.5459L55.361 19.6609L54.2446 19.4334L54.0159 20.549L52.9001 20.3217L53.1289 19.2061L53.3575 18.0911L52.2412 17.8636L52.47 16.748L51.3542 16.5207L50.2379 16.2932L50.4667 15.1777L49.3503 14.9502L48.2346 14.7229L47.1182 14.4954L46.0025 14.2681L44.8861 14.0406L44.6573 15.1562L43.5416 14.9288L42.4252 14.7014L41.3095 14.474L41.0807 15.5896L39.9643 15.3621L39.7356 16.4771L38.6193 16.2497L38.3905 17.3652L37.2747 17.1379L37.0461 18.2529L35.9297 18.0254L34.814 17.7981L33.6976 17.5706L32.5819 17.3433L31.4655 17.1158L30.3498 16.8885L29.2334 16.661L28.1176 16.4337L27.8888 17.5493L26.7725 17.3218L25.6567 17.0945L25.4281 18.2094L24.3117 17.982L24.0829 19.0976L22.9666 18.8701L22.7379 19.9851L22.5091 21.1007L21.3933 20.8733L21.1647 21.9883L20.9359 23.1039L19.8195 22.8764L19.5907 23.992L19.3621 25.107L19.1333 26.2226L18.0175 25.9952L16.9012 25.7678L16.6725 26.8828L15.5567 26.6554L14.4404 26.428L14.2116 27.5436L13.9829 28.6585L15.0993 28.886L16.215 29.1133L17.3314 29.3408L18.4471 29.5681L19.5635 29.7956L19.7922 28.6806L20.9079 28.908L21.1367 27.7924L21.3654 26.6774L20.2496 26.4501L20.4784 25.3345L21.5942 25.5618L21.8229 24.4468L22.0517 23.3312L23.168 23.5587L23.3968 22.4431L24.5131 22.6706L24.7418 21.5556L25.8576 21.7829L26.0864 20.6674L27.2027 20.8948L27.4314 19.7798L28.5472 20.0072L29.6635 20.2346L29.8923 19.1191L31.008 19.3464L32.1244 19.5739L33.2401 19.8012L34.3565 20.0287L35.4723 20.256L36.5886 20.4835L37.7044 20.7108L37.933 19.5958L38.1618 18.4802L39.2782 18.7077L39.5068 17.5927L40.6232 17.8202L41.739 18.0475L41.9678 16.9319L43.0841 17.1594L44.1999 17.3867L44.4285 16.2717L45.5449 16.4992L46.6606 16.7265L47.777 16.954L47.5483 18.069L48.6641 18.2963L49.7804 18.5238L50.8968 18.7513L50.668 19.8668L51.7837 20.0942L51.5551 21.2092L52.6714 21.4366L52.4426 22.5522L53.5584 22.7796L54.6747 23.007L54.9035 21.8914L56.0193 22.1188L56.248 21.0038L56.4768 19.8882L57.5931 20.1157L57.8218 19.0007L58.9375 19.228L59.1663 18.1124L60.2827 18.3399L60.5115 17.2243L61.6272 17.4517L62.7436 17.6791L62.9722 16.5641L64.088 16.7915L65.2043 17.019L65.4331 15.9034L66.5495 16.1308L67.6653 16.3582L68.7816 16.5856L69.8974 16.813L69.6686 17.9286L70.7849 18.156L71.9007 18.3834L71.672 19.4984L72.7884 19.7258L72.5596 20.8414L73.6753 21.0687L73.4465 22.1843L74.5629 22.4118L74.3342 23.5268L74.1054 24.6423L75.2212 24.8697L74.9925 25.9847L74.7637 27.1003L74.535 28.2152L74.3062 29.3308L75.4226 29.5583L76.5383 29.7856L77.6547 30.0131L78.771 30.2405L78.9998 29.125L80.1156 29.3523L81.2319 29.5798L82.3477 29.8071L83.464 30.0346L84.5798 30.2619L85.6961 30.4894L85.9248 29.3744L86.1536 28.2588L85.0373 28.0314L85.2659 26.9164L84.1502 26.689L83.0338 26.4616L83.2626 25.346L84.379 25.5734L84.6077 24.4584L85.7234 24.6858L85.9522 23.5702L87.0685 23.7977L87.2973 22.6821L88.4131 22.9094L88.6418 21.7945L89.7581 22.0219L89.9869 20.9063L91.1033 21.1338L92.219 21.3611L92.4477 20.2461L93.564 20.4736L94.6798 20.7009L95.7961 20.9284L96.9119 21.1557L97.1407 20.0402L98.2571 20.2676L99.3728 20.495L100.489 20.7224L101.605 20.9498L101.376 22.0653L102.492 22.2928L103.608 22.5202L103.38 23.6352L104.496 23.8626L104.267 24.9782L105.383 25.2057L105.155 26.3207L106.271 26.548L106.042 27.6636L107.158 27.891L106.929 29.0066L106.701 30.1216L107.816 30.3489L108.045 29.2339L108.274 28.1184Z" fill="#92B5F5"/>
<path d="M11.752 28.1748L11.5232 29.29L12.6394 29.5174L13.7551 29.7447L13.9839 28.6295L12.8682 28.4022L11.752 28.1748Z" fill="#92B5F5"/>
<path d="M110.03 36.6204L108.914 36.3931L108.685 37.508L109.801 37.7353L110.03 36.6204Z" fill="#92B5F5"/>
<path d="M108.938 30.5939L107.822 30.3667L107.594 31.481L108.709 31.7082L108.938 30.5939Z" fill="#92B5F5"/>
<path d="M109.369 34.1642L108.254 33.937L108.025 35.0513L109.141 35.2785L109.369 34.1642Z" fill="#92B5F5"/>
<path d="M96.2032 30.3153L95.0871 30.088L93.9717 29.8608L93.743 30.9757L92.6269 30.7483L92.3983 31.8626L93.5144 32.09L93.2856 33.2049L93.057 34.3192L91.941 34.0919L90.8256 33.8647L90.5968 34.9796L90.3682 36.0939L91.4837 36.3211L92.5997 36.5484L92.8283 35.4341L93.9437 35.6613L95.0598 35.8886L95.2885 34.7737L96.4039 35.0009L96.6325 33.8866L97.7485 34.1139L97.9773 32.999L98.2059 31.8847L98.4346 30.7698L97.3186 30.5425L96.2032 30.3153Z" fill="#5B63B3"/>
<path d="M52.4393 22.5474L52.668 21.4321L51.5518 21.2047L51.7805 20.09L50.6648 19.8627L50.8936 18.7475L49.7773 18.5201L48.661 18.2927L47.5454 18.0654L47.774 16.9507L46.6578 16.7233L45.5421 16.496L44.4258 16.2686L44.1972 17.3833L43.0815 17.156L41.9652 16.9286L41.7365 18.0439L40.6208 17.8166L39.5045 17.5892L39.2759 18.7039L38.1596 18.4765L37.9308 19.5918L37.7022 20.7065L38.8184 20.9339L39.0471 19.8192L40.1633 20.0466L41.279 20.2739L41.5078 19.1586L42.6241 19.386L43.7397 19.6133L44.856 19.8407L44.6272 20.956L45.7429 21.1832L46.8592 21.4106L47.9748 21.6379L47.7462 22.7526L48.8624 22.98L48.6337 24.0953L49.7499 24.3227L49.5213 25.4374L50.6369 25.6647L51.7532 25.8921L51.9818 24.7774L53.0975 25.0047L53.3263 23.8894L54.4426 24.1168L54.6712 23.0021L53.555 22.7747L52.4393 22.5474Z" fill="#5B63B3"/>
<path d="M74.5334 28.2172L74.7621 27.1026L74.9908 25.9875L75.2195 24.8729L74.1039 24.6457L74.3326 23.5305L74.5613 22.416L73.4451 22.1886L73.6738 21.0735L72.5582 20.8462L72.787 19.7311L71.6708 19.5037L71.8994 18.3891L70.7838 18.1619L69.6676 17.9345L69.8964 16.8194L68.7808 16.5921L67.6646 16.3647L66.5489 16.1375L65.4327 15.9101L65.204 17.0252L64.0878 16.7979L62.9722 16.5706L62.7435 17.6852L61.6273 17.4578L60.5117 17.2306L60.2829 18.3457L59.1668 18.1183L58.938 19.2335L57.8224 19.0062L57.5937 20.1208L56.4775 19.8934L56.2487 21.0086L56.0201 22.1231L57.1363 22.3505L58.2519 22.5778L59.3681 22.8051L60.4837 23.0324L61.5999 23.2597L61.3712 24.3749L62.4868 24.6021L63.603 24.8295L63.3743 25.9441L64.4905 26.1714L65.6062 26.3987L65.8348 25.2841L64.7192 25.0569L64.9479 23.9417L65.1766 22.8272L66.2922 23.0544L67.4084 23.2818L68.524 23.5091L68.2954 24.6236L69.4116 24.851L70.5272 25.0783L70.2985 26.1934L71.4146 26.4208L71.186 27.5353L72.3016 27.7626L72.0729 28.8777L73.1891 29.1051L74.3047 29.3324L74.5334 28.2172Z" fill="#5B63B3"/>
<path d="M80.1203 29.3547L79.0048 29.1275L78.776 30.2424L77.6599 30.0151L76.5439 29.7878L76.3152 30.9022L76.0865 32.0171L74.971 31.7899L74.7424 32.9043L73.6263 32.6769L73.3976 33.7919L74.5136 34.0192L74.2849 35.1342L75.4004 35.3614L76.5165 35.5887L76.7452 34.4738L77.8613 34.7011L78.9768 34.9283L79.2055 33.8134L80.3216 34.0407L80.5502 32.9263L81.6657 33.1535L81.8945 32.0386L82.1231 30.9242L82.3518 29.8092L81.2363 29.582L80.1203 29.3547Z" fill="#5B63B3"/>
<path d="M56.0178 22.1173L54.9023 21.8901L54.6736 23.005L55.7891 23.2322L56.0178 22.1173Z" fill="#5B63B3"/>
<path d="M49.0403 33.4605L49.2689 32.3463L48.1536 32.1191L48.3823 31.0042L48.6109 29.89L47.4949 29.6627L47.7236 28.5479L46.6077 28.3206L46.8364 27.2057L47.065 26.0915L45.9496 25.8643L44.8337 25.637L43.7183 25.4098L42.6024 25.1825L42.3738 26.2968L41.2584 26.0696L40.1425 25.8423L39.9138 26.9571L39.6851 28.0719L39.4565 29.1861L40.5724 29.4135L40.3437 30.5283L40.1151 31.6425L41.2305 31.8697L42.3464 32.097L43.4618 32.3242L43.2331 33.439L43.0045 34.5533L41.8891 34.3261L41.6604 35.4409L40.5445 35.2136L39.4291 34.9864L39.2005 36.1007L38.9718 37.2155L40.0872 37.4427L39.8586 38.5569L40.9745 38.7842L42.0899 39.0114L42.3185 37.8972L43.4344 38.1245L43.6631 37.0097L44.7785 37.2368L45.8944 37.4641L46.123 36.3499L47.2389 36.5772L47.4677 35.4624L48.583 35.6896L49.699 35.9169L49.9275 34.8026L48.8116 34.5753L49.0403 33.4605Z" fill="#5B63B3"/>
<path d="M35.4696 20.241L34.3541 20.0138L33.238 19.7864L32.1225 19.5592L31.0064 19.3319L29.8909 19.1047L29.6622 20.2196L28.5461 19.9923L27.4306 19.7651L27.2019 20.8795L26.0859 20.6521L25.8571 21.7671L24.7416 21.5399L24.513 22.6542L23.3969 22.4269L23.1682 23.5419L22.0521 23.3145L21.8234 24.4295L21.5948 25.5439L20.4793 25.3166L20.2505 26.4316L21.366 26.6588L21.1374 27.7732L22.2535 28.0005L23.3696 28.2279L24.4851 28.4551L25.6011 28.6824L26.7166 28.9096L26.9453 27.7953L28.0613 28.0226L28.2901 26.9076L29.4056 27.1348L30.5217 27.3622L30.2929 28.4771L30.0643 29.5915L29.8355 30.7065L29.6069 31.8208L30.7224 32.0481L31.8385 32.2754L31.6098 33.3903L32.7253 33.6176L32.954 32.5026L34.0701 32.7299L34.2987 31.6156L34.5274 30.5006L34.7561 29.3862L33.64 29.1589L33.8687 28.0439L32.7532 27.8167L32.9819 26.7023L31.8658 26.475L32.0945 25.3601L30.979 25.1328L31.2077 24.0179L31.4364 22.9035L32.5519 23.1307L33.668 23.3581L34.7835 23.5853L35.8995 23.8126L36.1283 22.6977L37.2438 22.9249L37.4724 21.8105L37.7011 20.6955L36.5856 20.4683L35.4696 20.241Z" fill="#5B63B3"/>
<path d="M65.8115 31.0765L64.6955 30.8492L64.9241 29.7349L63.8087 29.5077L62.6927 29.2804L62.9215 28.1655L61.8055 27.9382L60.6901 27.711L60.4614 28.8259L59.3454 28.5986L58.23 28.3714L58.0014 29.4857L56.8854 29.2583L56.6567 30.3732L55.5413 30.146L54.4253 29.9187L54.1966 31.0335L55.3125 31.2609L55.0839 32.3751L54.8552 33.49L54.6266 34.6043L55.742 34.8315L55.9706 33.7172L57.0866 33.9445L58.202 34.1717L59.318 34.399L59.0894 35.5133L58.8607 36.6282L58.6321 37.7424L57.5161 37.5151L56.4007 37.2879L56.172 38.4028L55.056 38.1755L54.8274 39.2898L54.5987 40.4046L55.7147 40.6319L56.8301 40.8591L57.0588 39.7443L58.1748 39.9716L59.2902 40.1988L59.5188 39.0845L60.6347 39.3118L60.8635 38.1969L61.9794 38.4242L62.208 37.31L63.3235 37.5372L63.5522 36.4223L64.6682 36.6496L64.8968 35.5354L66.0122 35.7626L66.2409 34.6477L66.4695 33.5334L66.6982 32.4185L65.5828 32.1914L65.8115 31.0765Z" fill="#5B63B3"/>
<path d="M111.576 40.4176L110.461 40.1904L110.232 41.3053L111.348 41.5325L111.576 40.4176Z" fill="#5B63B3"/>
<path d="M10.8615 26.8327L9.74609 26.6055L9.51737 27.7204L10.6328 27.9476L10.8615 26.8327Z" fill="#5B63B3"/>
<path d="M18.4485 29.5399L17.3328 29.3126L16.2164 29.0851L15.1007 28.8578L13.9844 28.6304L13.7556 29.7459L14.8719 29.9733L15.9876 30.2006L15.759 31.3156L16.8753 31.543L17.991 31.7703L18.2197 30.6554L19.336 30.8828L20.4518 31.1102L20.6806 29.9947L19.5648 29.7674L18.4485 29.5399Z" fill="#5B63B3"/>
<path d="M11.7508 28.1746L10.6348 27.9473L10.4062 29.0616L11.5222 29.2889L11.7508 28.1746Z" fill="#5B63B3"/>
<path d="M109.566 38.8484L109.795 37.7333L108.678 37.5059L108.907 36.3913L109.136 35.2761L108.02 35.0489L108.249 33.9343L108.478 32.8192L108.706 31.7046L107.59 31.4772L107.819 30.362L106.703 30.1348L106.932 29.0202L107.161 27.9051L106.044 27.6777L106.273 26.5625L105.158 26.3353L105.386 25.2207L104.27 24.9933L104.499 23.8782L103.383 23.6508L103.611 22.5362L102.496 22.309L101.379 22.0816L101.608 20.9664L100.493 20.7392L99.3763 20.5118L98.2607 20.2845L97.1445 20.0572L96.9157 21.1723L95.8001 20.9451L94.6839 20.7177L93.5683 20.4904L92.4521 20.2631L92.2234 21.3776L91.1078 21.1504L89.9916 20.923L89.7628 22.0382L88.6466 21.8108L88.418 22.9254L87.3023 22.6981L87.0736 23.8133L85.9574 23.5859L85.7286 24.701L84.613 24.4738L84.3843 25.5884L83.2681 25.361L83.0394 26.4762L84.1556 26.7035L85.2712 26.9308L85.0425 28.0454L86.1587 28.2727L85.93 29.3879L85.7013 30.5025L86.817 30.7297L87.9332 30.9571L88.1618 29.8425L89.278 30.0699L89.5068 28.9547L90.6224 29.182L90.8511 28.0674L91.9673 28.2948L92.196 27.1796L93.3116 27.4069L94.4278 27.6343L95.5435 27.8615L95.7721 26.7469L96.0009 25.6318L97.1171 25.8592L98.2327 26.0864L99.3489 26.3138L100.465 26.541L100.236 27.6562L101.352 27.8836L101.123 28.9981L102.239 29.2254L102.01 30.3406L103.126 30.568L102.898 31.6825L104.014 31.9099L105.13 32.1372L106.246 32.3645L107.361 32.5918L107.133 33.7069L106.904 34.8215L105.788 34.5943L105.56 35.7094L106.675 35.9367L106.447 37.0513L107.563 37.2786L107.334 38.3938L108.45 38.621L108.221 39.7356L109.337 39.963L110.453 40.1902L110.681 39.0757L109.566 38.8484Z" fill="#5B63B3"/>
</g>
<defs>
<filter id="filter0_f_448_107033" x="0.824219" y="9.21777" width="114.98" height="40.0947" filterUnits="userSpaceOnUse" color-interpolation-filters="sRGB">
<feFlood flood-opacity="0" result="BackgroundImageFix"/>
<feBlend mode="normal" in="SourceGraphic" in2="BackgroundImageFix" result="shape"/>
<feGaussianBlur stdDeviation="2" result="effect1_foregroundBlur_448_107033"/>
</filter>
</defs>
</svg>
