<svg width="290" height="207" viewBox="0 0 290 207" fill="none" xmlns="http://www.w3.org/2000/svg">
<g filter="url(#filter0_df_448_107061)">
<path d="M138.907 104.816L138.673 102.017L138.439 99.2172L135.637 99.4491L132.834 99.6812L133.068 102.481L133.302 105.28L136.105 105.048L138.907 104.816Z" fill="#121A54"/>
<path d="M321.824 131.945L321.59 129.144L318.787 129.376L315.983 129.608L313.179 129.841L310.375 130.073L307.572 130.305L304.768 130.537L301.964 130.769L301.73 127.968L298.927 128.201L296.124 128.433L295.89 125.632L293.087 125.864L292.853 123.063L292.619 120.263L289.815 120.495L289.581 117.694L289.347 114.895L289.113 112.094L288.879 109.294L286.076 109.526L285.842 106.725L285.608 103.925L282.804 104.157L282.57 101.356L279.767 101.588L279.533 98.7891L276.729 99.0212L276.495 96.2244L273.692 96.4565L273.926 99.2571L274.159 102.056L276.963 101.824L277.197 104.625L280.001 104.393L280.235 107.193L280.469 109.994L283.272 109.762L283.506 112.563L283.74 115.363L283.974 118.162L281.17 118.395L281.404 121.195L278.6 121.427L275.797 121.659L272.993 121.892L270.189 122.124L270.423 124.924L267.619 125.156L264.816 125.389L262.012 125.621L261.778 122.82L258.974 123.052L256.172 123.284L253.368 123.516L253.602 126.317L250.798 126.549L251.032 129.35L248.229 129.582L245.425 129.814L245.191 127.013L242.387 127.245L242.153 124.445L241.919 121.644L241.686 118.845L241.452 116.044L244.255 115.812L244.022 113.012L246.825 112.779L249.629 112.547L249.863 115.348L252.667 115.116L255.47 114.884L255.236 112.083L255.003 109.282L254.769 106.482L251.965 106.714L251.731 103.913L248.927 104.145L246.124 104.378L243.32 104.61L240.516 104.842L237.714 105.074L234.91 105.306L234.676 102.507L234.442 99.706L234.208 96.9067L233.974 94.1061L236.778 93.874L236.544 91.0733L239.347 90.8413L239.113 88.0407L241.917 87.8086L244.72 87.5765L247.524 87.3444L250.328 87.1122L253.131 86.8801L255.934 86.6481L258.738 86.416L261.541 86.1838L264.345 85.9517L264.111 83.1511L261.307 83.3832L258.504 83.6154L255.7 83.8475L255.466 81.0469L252.664 81.2789L252.897 84.0795L250.094 84.3116L247.29 84.5437L244.486 84.7759L244.252 81.9753L241.449 82.2074L238.645 82.4395L238.879 85.2401L236.076 85.4721L233.273 85.7042L233.507 88.5049L230.703 88.737L230.937 91.5376L228.133 91.7697L225.329 92.0018L225.095 89.2012L222.292 89.4333L219.489 89.6654L216.686 89.8975L213.882 90.1296L211.078 90.3617L211.312 93.1623L211.546 95.963L214.35 95.7308L217.153 95.4987L219.957 95.2666L220.191 98.0672L222.994 97.8352L223.227 100.636L226.031 100.404L226.265 103.204L229.069 102.972L229.303 105.771L226.499 106.004L223.695 106.236L220.893 106.468L221.127 109.268L221.361 112.069L224.163 111.837L224.397 114.638L227.201 114.405L227.434 117.206L227.668 120.007L224.865 120.239L222.062 120.471L222.296 123.27L219.492 123.502L216.689 123.734L216.455 120.935L213.651 121.167L210.847 121.399L211.081 124.199L208.277 124.431L205.474 124.663L202.67 124.895L199.866 125.127L199.633 122.328L196.829 122.56L196.595 119.759L193.791 119.991L193.557 117.191L196.361 116.959L196.127 114.158L198.931 113.926L201.734 113.694L204.538 113.462L204.304 110.661L204.07 107.86L201.267 108.093L201.033 105.293L198.229 105.525L195.425 105.758L195.191 102.956L192.388 103.188L192.154 100.388L191.92 97.5878L191.686 94.7872L194.49 94.5551L194.256 91.7545L194.022 88.9538L193.788 86.1532L196.592 85.9211L196.358 83.1205L199.162 82.8884L198.928 80.0878L201.731 79.8557L201.497 77.055L204.301 76.8229L207.105 76.5908L209.909 76.3587L212.712 76.1266L212.478 73.326L215.282 73.0938L218.086 72.8617L220.888 72.6297L223.692 72.3976L223.458 69.597L220.654 69.8291L217.852 70.0611L215.048 70.2932L212.244 70.5253L209.441 70.7575L206.637 70.9896L203.833 71.2217L201.03 71.4538L201.264 74.2544L198.46 74.4866L195.656 74.7187L192.852 74.9508L193.086 77.7514L193.32 80.552L193.554 83.3526L190.75 83.5848L187.947 83.8169L188.181 86.6175L185.377 86.8496L185.611 89.6502L182.807 89.8823L183.041 92.6829L183.275 95.4836L183.509 98.2842L180.706 98.5162L180.94 101.317L181.174 104.117L181.408 106.918L181.642 109.717L181.876 112.518L182.11 115.319L179.306 115.551L176.502 115.783L173.699 116.015L170.895 116.247L168.091 116.479L167.857 113.679L165.054 113.911L164.82 111.11L164.586 108.311L164.352 105.509L167.155 105.277L169.959 105.045L172.763 104.812L175.567 104.58L175.333 101.781L175.099 98.9804L172.295 99.2126L172.061 96.4119L169.258 96.6441L169.024 93.8435L168.79 91.0428L168.556 88.2422L171.36 88.0101L171.126 85.2095L170.892 82.4089L173.695 82.1768L176.499 81.9446L176.265 79.144L179.069 78.9119L181.871 78.6799L181.637 75.8793L184.441 75.6472L187.245 75.4151L190.049 75.1829L192.852 74.9508L192.618 72.1502L189.815 72.3823L187.011 72.6144L186.777 69.8151L183.973 70.0472L181.17 70.2794L178.367 70.5114L178.601 73.3107L175.797 73.5428L172.994 73.7749L173.228 76.5756L170.424 76.8077L167.62 77.0398L167.854 79.8404L165.05 80.0725L165.284 82.8731L162.481 83.1053L162.714 85.9059L162.948 88.7065L160.145 88.9386L157.341 89.1707L157.107 86.3701L154.303 86.6022L151.5 86.8344L148.696 87.0665L145.892 87.2986L143.09 87.5306L143.324 90.3312L140.52 90.5634L137.716 90.7955L134.912 91.0276L135.146 93.8282L135.38 96.6288L138.184 96.3967L140.988 96.1646L140.754 93.364L143.558 93.1318L143.791 95.9324L146.594 95.7004L146.828 98.501L149.632 98.2689L149.865 101.07L152.669 100.837L152.903 103.638L155.707 103.406L155.941 106.207L156.175 109.007L153.371 109.239L150.567 109.471L150.801 112.271L151.035 115.071L151.269 117.872L154.073 117.64L154.306 120.44L157.11 120.208L157.344 123.009L160.148 122.777L160.382 125.577L163.185 125.345L163.419 128.145L160.616 128.377L157.812 128.609L155.008 128.841L152.204 129.073L149.401 129.305L146.598 129.537L143.794 129.769L143.561 126.97L140.757 127.202L140.523 124.402L140.289 121.601L140.055 118.8L139.821 116L137.018 116.232L134.214 116.464L131.41 116.696L128.606 116.928L128.84 119.729L126.038 119.961L126.272 122.761L123.468 122.994L123.702 125.794L120.898 126.026L118.095 126.258L118.329 129.059L115.525 129.291L115.291 126.491L112.487 126.723L109.683 126.955L109.45 124.154L109.216 121.354L108.982 118.553L111.785 118.321L111.551 115.52L111.318 112.721L114.121 112.489L113.887 109.687L116.691 109.455L116.457 106.655L119.261 106.423L122.065 106.191L124.868 105.959L127.671 105.727L127.437 102.926L130.241 102.694L130.007 99.8937L129.773 97.0931L126.969 97.3252L124.167 97.5572L121.363 97.7893L118.559 98.0214L118.793 100.822L115.989 101.054L113.186 101.286L113.42 104.087L110.616 104.319L110.85 107.12L108.046 107.352L107.812 104.551L105.01 104.783L102.206 105.015L99.4023 105.247L96.5986 105.48L93.7949 105.712L94.0288 108.512L91.2251 108.744L88.4226 108.976L85.6189 109.209L82.8152 109.441L82.5813 106.64L79.7776 106.872L80.0115 109.673L77.2078 109.905L74.404 110.137L71.6003 110.369L71.8342 113.17L72.0681 115.97L74.8719 115.738L77.6756 115.506L80.4793 115.274L80.7131 118.073L83.5168 117.841L83.7508 120.642L80.947 120.874L78.1433 121.106L75.3396 121.338L75.5735 124.139L72.7698 124.371L69.9661 124.603L70.2 127.404L67.3963 127.636L67.6302 130.436L64.8265 130.668L62.0228 130.901L62.2567 133.701L62.4905 136.501L65.2942 136.268L68.0979 136.036L67.8641 133.237L70.6678 133.005L73.4715 132.773L76.2753 132.541L79.079 132.308L78.8451 129.508L81.6488 129.276L84.4525 129.044L87.2562 128.812L90.0599 128.579L92.8624 128.347L95.6661 128.115L95.9 130.916L98.7038 130.684L98.9376 133.483L101.741 133.251L101.975 136.052L104.779 135.819L107.583 135.587L107.817 138.388L110.619 138.156L113.423 137.924L113.657 140.724L116.46 140.492L119.264 140.26L122.068 140.028L124.871 139.796L127.675 139.564L130.478 139.332L133.281 139.1L136.085 138.868L138.889 138.635L141.693 138.403L144.496 138.171L147.3 137.939L150.102 137.707L152.906 137.475L155.71 137.243L155.944 140.043L158.747 139.811L161.551 139.579L161.785 142.38L164.589 142.148L164.823 144.948L165.057 147.749L167.86 147.517L168.094 150.317L170.898 150.085L173.702 149.853L173.936 152.654L176.739 152.422L179.543 152.189L182.347 151.957L185.151 151.725L187.953 151.493L190.757 151.261L193.56 151.029L196.364 150.797L199.168 150.565L201.972 150.333L201.738 147.532L204.541 147.3L207.345 147.068L207.111 144.267L206.877 141.467L204.074 141.699L201.27 141.931L198.466 142.163L195.662 142.395L192.859 142.627L190.055 142.859L189.821 140.059L187.017 140.291L186.783 137.49L183.981 137.722L183.747 134.922L183.513 132.121L180.709 132.353L180.475 129.552L177.672 129.785L174.868 130.017L174.634 127.216L171.83 127.448L171.597 124.649L174.4 124.417L177.204 124.185L180.008 123.953L180.242 126.752L183.045 126.52L185.848 126.288L188.651 126.056L188.885 128.856L191.689 128.624L191.923 131.425L194.727 131.193L197.53 130.96L197.764 133.761L200.568 133.529L200.802 136.33L203.606 136.097L206.409 135.865L209.213 135.633L212.017 135.401L214.821 135.169L217.624 134.937L220.428 134.705L223.232 134.473L226.034 134.241L228.838 134.008L228.604 131.208L231.408 130.976L234.211 130.744L237.015 130.511L237.249 133.312L240.053 133.08L242.855 132.848L243.089 135.649L243.323 138.449L246.127 138.217L248.931 137.985L249.164 140.785L251.968 140.553L254.772 140.321L255.006 143.122L257.809 142.89L260.612 142.658L263.416 142.426L266.219 142.193L269.023 141.961L271.827 141.729L274.631 141.497L277.434 141.265L280.238 141.033L280.004 138.232L279.77 135.432L276.966 135.664L274.163 135.896L271.359 136.128L271.125 133.327L268.321 133.56L268.087 130.759L270.891 130.527L273.695 130.295L276.499 130.063L279.302 129.83L282.106 129.598L284.91 129.366L285.144 132.167L287.947 131.935L288.181 134.735L290.985 134.503L291.219 137.304L294.023 137.072L296.826 136.84L297.06 139.64L299.863 139.408L302.666 139.176L305.47 138.944L308.274 138.712L311.078 138.48L313.881 138.248L313.647 135.447L316.451 135.215L319.255 134.983L322.059 134.751L322.292 137.551L325.096 137.319L324.862 134.518L324.628 131.718L321.825 131.95L321.824 131.945ZM106.44 121.582L103.636 121.814L100.832 122.046L98.0288 122.278L97.7948 119.478L97.5609 116.677L97.3271 113.878L100.131 113.646L102.935 113.414L105.738 113.181L105.972 115.981L106.206 118.781L106.44 121.582Z" fill="#121A54"/>
<path d="M225.822 63.7858L228.625 63.5537L228.859 66.3532L231.662 66.1211L231.896 68.9193L229.093 69.1513L229.327 71.9508L226.523 72.1828L226.757 74.9823L229.561 74.7503L232.364 74.5182L235.166 74.2863L237.969 74.0543L240.771 73.8224L241.005 76.6205L243.808 76.3885L246.612 76.1565L246.846 78.9559L249.648 78.724L252.451 78.492L252.217 75.6925L249.414 75.9246L249.18 73.1264L248.946 70.3269L246.144 70.5589L245.91 67.7594L243.107 67.9914L242.873 65.1933L240.07 65.4253L239.836 62.6258L239.602 59.8277L236.8 60.0596L236.566 57.2601L233.763 57.4922L230.961 57.7241L230.727 54.9246L227.924 55.1567L225.12 55.3887L222.318 55.6206L222.552 58.4201L222.786 61.2195L225.588 60.9876L225.822 63.7858Z" fill="#121A54"/>
<path d="M187.268 75.4409L184.464 75.6729L181.661 75.905L181.895 78.7045L179.093 78.9365L176.289 79.1685L176.523 81.9668L173.721 82.1987L170.918 82.4307L171.151 85.2303L171.385 88.0286L168.582 88.2606L168.816 91.0602L169.05 93.8597L169.283 96.658L172.087 96.426L174.89 96.194L174.656 93.3957L174.422 90.5961L177.225 90.3642L176.991 87.5646L179.794 87.3326L182.596 87.1007L182.362 84.3024L185.166 84.0704L187.969 83.8383L190.771 83.6064L193.575 83.3744L193.341 80.5748L193.107 77.7765L192.873 74.9769L190.07 75.209L187.268 75.4409Z" fill="#92B5F5"/>
<path d="M255.009 75.4738L254.776 72.6746L254.542 69.8741L254.308 67.0736L251.505 67.3056L251.271 64.5064L251.038 61.7059L250.804 58.9067L248 59.1388L247.766 56.3383L244.964 56.5703L244.73 53.7698L241.926 54.0019L241.692 51.2027L238.889 51.4348L238.655 48.6343L235.852 48.8663L233.049 49.0984L232.815 46.2979L230.012 46.53L227.209 46.7621L224.405 46.9942L221.602 47.2262L218.799 47.4583L215.996 47.6903L213.193 47.9224L210.389 48.1545L207.586 48.3865L207.82 51.187L205.017 51.4191L205.251 54.2196L202.447 54.4517L199.644 54.6837L199.878 57.4829L197.075 57.7151L197.308 60.5156L197.542 63.316L194.74 63.548L194.974 66.3473L195.208 69.1477L192.404 69.3799L189.6 69.612L189.366 66.8115L189.133 64.0123L186.33 64.2443L186.096 61.4438L183.293 61.6759L180.489 61.908L177.686 62.14L177.453 59.3395L174.649 59.5716L171.846 59.8036L169.043 60.0358L166.239 60.2679L163.437 60.4999L160.633 60.732L157.83 60.964L158.064 63.7645L155.261 63.9966L152.457 64.2287L152.691 67.0292L149.888 67.2612L147.085 67.4933L147.319 70.2925L144.515 70.5246L144.749 73.3251L144.983 76.1243L142.18 76.3563L142.414 79.1568L142.648 81.9573L139.844 82.1894L140.078 84.9886L140.312 87.7891L137.508 88.0213L137.274 85.2208L137.041 82.4216L134.238 82.6536L134.004 79.8531L131.201 80.0852L130.967 77.2847L128.164 77.5167L125.361 77.7488L122.558 77.9808L119.754 78.2129L116.951 78.445L114.148 78.677L111.345 78.9091L108.541 79.1413L108.775 81.9418L105.972 82.1738L103.169 82.4059L103.403 85.2064L100.599 85.4385L100.833 88.2377L98.0303 88.4697L98.2642 91.2702L98.498 94.0694L95.6943 94.3015L95.9282 97.102L96.1622 99.9025L93.3597 100.134L93.1258 97.334L90.3221 97.5661L87.5184 97.7982L84.716 98.0302L81.9123 98.2623L79.1086 98.4945L76.3062 98.7265L76.5401 101.527L73.7364 101.759L70.9339 101.991L71.1677 104.79L68.3641 105.022L68.598 107.823L65.7943 108.055L66.0282 110.855L66.262 113.655L63.4596 113.887L63.6935 116.687L63.9273 119.486L64.1612 122.287L61.3575 122.519L61.5914 125.319L58.7877 125.552L55.9853 125.784L53.1816 126.016L50.3792 126.248L50.613 129.047L50.8469 131.847L53.6493 131.615L56.453 131.383L59.2555 131.151L62.0591 130.919L61.8252 128.119L64.6289 127.887L64.3951 125.087L67.1975 124.855L66.9636 122.055L69.7673 121.823L69.5334 119.022L69.2996 116.223L69.0657 113.423L71.8694 113.19L71.6356 110.391L74.438 110.159L77.2417 109.927L80.0441 109.695L79.8102 106.895L82.6139 106.663L82.8478 109.463L85.6515 109.231L88.4539 108.999L91.2577 108.767L94.0614 108.535L93.8275 105.734L96.6299 105.502L99.4335 105.27L102.236 105.038L105.04 104.806L104.806 102.005L104.572 99.2063L101.768 99.4384L101.534 96.6379L101.3 93.8374L104.104 93.6053L103.87 90.8061L106.674 90.5739L106.44 87.7735L109.243 87.5415L112.046 87.3093L111.812 84.5101L114.616 84.278L117.419 84.046L120.222 83.8139L123.026 83.5818L125.828 83.3498L128.632 83.1177L128.866 85.9169L131.668 85.6849L131.902 88.4854L132.136 91.2846L134.94 91.0525L137.742 90.8205L140.546 90.5884L143.35 90.3562L143.116 87.557L145.918 87.325L145.684 84.5245L148.488 84.2924L148.254 81.4932L151.058 81.2611L150.824 78.4606L150.59 75.6601L153.392 75.4281L153.159 72.6289L155.962 72.3968L158.766 72.1647L158.532 69.3642L161.334 69.1322L164.138 68.9001L163.904 66.1009L166.707 65.8688L169.511 65.6367L172.314 65.4046L172.548 68.2038L175.35 67.9718L178.154 67.7397L180.957 67.5077L181.19 70.3082L183.994 70.0761L186.798 69.844L187.032 72.6432L189.834 72.4112L192.638 72.1791L192.872 74.9796L195.675 74.7475L198.478 74.5155L198.244 71.715L201.048 71.4828L203.85 71.2508L206.654 71.0187L206.42 68.2195L206.186 65.419L203.382 65.6511L203.149 62.8519L202.915 60.0514L205.718 59.8193L205.484 57.0188L208.288 56.7867L211.091 56.5547L210.857 53.7555L213.66 53.5234L216.464 53.2913L219.267 53.0593L219.033 50.2588L221.836 50.0267L224.639 49.7947L224.873 52.5952L227.676 52.363L230.48 52.1309L233.282 51.8989L233.516 54.6981L236.32 54.466L239.122 54.234L239.356 57.0345L242.16 56.8024L242.394 59.6029L242.628 62.4021L245.431 62.17L245.665 64.9705L248.468 64.7385L248.702 67.5377L248.935 70.3382L249.169 73.1387L249.403 75.9379L252.207 75.7058L252.441 78.5063L249.637 78.7384L246.835 78.9704L246.601 76.1699L243.797 76.402L240.993 76.6341L240.76 73.8349L237.957 74.0669L235.153 74.299L232.351 74.531L229.547 74.7631L226.744 74.9952L226.51 72.1948L223.707 72.4268L220.904 72.6589L218.101 72.8909L215.297 73.123L212.494 73.3551L212.728 76.1556L209.925 76.3876L207.122 76.6197L204.318 76.8518L201.515 77.0838L201.749 79.883L198.946 80.1151L199.179 82.9156L196.377 83.1476L196.611 85.9469L193.807 86.179L194.041 88.9795L194.275 91.7799L194.509 94.5792L191.705 94.8113L191.939 97.6118L192.173 100.412L192.407 103.211L195.21 102.979L198.014 102.747L197.78 99.948L197.546 97.1475L200.349 96.9155L200.115 94.1151L202.919 93.8829L202.685 91.0837L205.487 90.8517L205.253 88.0512L208.057 87.8191L207.823 85.0186L210.627 84.7865L213.429 84.5545L216.233 84.3224L215.999 81.5232L218.803 81.2911L221.605 81.0591L224.409 80.827L227.211 80.5949L230.015 80.3628L232.819 80.1307L235.621 79.8987L238.425 79.6666L238.659 82.4658L241.461 82.2338L244.265 82.0017L244.499 84.8022L247.302 84.5701L250.105 84.3381L252.909 84.106L252.675 81.3055L255.477 81.0735L255.243 78.2743L255.009 75.4738Z" fill="#92B5F5"/>
<path d="M280.242 107.178L280.008 104.378L277.206 104.61L276.972 101.811L274.168 102.043L273.935 99.2445L273.701 96.4449L273.467 93.6466L270.665 93.8786L270.431 91.079L267.627 91.311L267.394 88.5115L264.59 88.7435L264.356 85.9452L261.554 86.1771L258.751 86.4092L255.947 86.6412L253.145 86.8731L250.342 87.1052L247.54 87.3371L244.736 87.5691L241.933 87.8012L239.131 88.0331L239.365 90.8314L236.561 91.0634L236.795 93.863L233.993 94.0949L234.227 96.8945L234.461 99.6928L234.695 102.492L234.928 105.291L237.731 105.059L240.534 104.827L240.3 102.028L240.066 99.2288L242.868 98.9969L242.635 96.1986L245.438 95.9666L245.204 93.167L248.008 92.935L250.81 92.703L253.613 92.471L256.415 92.2391L259.219 92.007L259.452 94.8066L256.649 95.0386L256.883 97.8369L257.117 100.637L259.92 100.404L260.154 103.203L262.957 102.971L263.191 105.77L265.993 105.538L266.227 108.338L266.461 111.136L266.695 113.936L269.498 113.704L272.302 113.472L272.536 116.271L275.338 116.039L275.571 118.838L275.805 121.637L278.609 121.405L281.411 121.173L281.177 118.374L283.98 118.142L283.747 115.343L283.513 112.544L283.279 109.744L280.475 109.976L280.242 107.178Z" fill="#92B5F5"/>
<path d="M150.115 103.883L147.312 104.115L144.509 104.347L141.706 104.579L138.902 104.811L136.1 105.043L133.296 105.275L130.494 105.507L127.69 105.739L124.888 105.971L122.084 106.203L119.28 106.435L116.478 106.667L116.712 109.466L113.908 109.698L114.142 112.498L111.338 112.73L111.572 115.529L111.806 118.33L109.004 118.562L109.238 121.362L109.472 124.161L109.705 126.961L112.508 126.729L115.311 126.497L115.077 123.697L114.844 120.898L117.647 120.666L117.413 117.865L120.216 117.633L119.982 114.833L122.786 114.601L125.589 114.369L128.392 114.137L131.195 113.905L130.961 111.106L133.764 110.874L136.567 110.642L139.37 110.41L142.173 110.178L144.977 109.946L147.779 109.714L150.583 109.482L153.387 109.25L156.189 109.018L155.955 106.217L155.721 103.419L152.919 103.65L150.115 103.883Z" fill="#92B5F5"/>
<path d="M291.459 106.248L291.225 103.449L290.991 100.649L290.758 97.8512L290.524 95.0518L290.29 92.2538L287.487 92.4858L287.253 89.6865L287.019 86.8872L284.217 87.1191L283.983 84.321L281.18 84.553L280.946 81.7537L278.143 81.9857L277.909 79.1864L275.107 79.4183L274.874 76.6202L272.07 76.8523L269.269 77.0842L266.465 77.3162L263.662 77.5482L260.86 77.7801L261.094 80.5782L258.291 80.8102L255.488 81.0422L255.722 83.8415L258.525 83.6095L261.328 83.3775L264.13 83.1456L266.933 82.9136L269.736 82.6816L272.538 82.4496L272.772 85.249L275.575 85.0169L278.377 84.785L278.611 87.5831L278.845 90.3824L281.648 90.1504L281.882 92.9497L284.685 92.7177L284.919 95.5158L285.153 98.3151L285.386 101.113L285.62 103.912L288.422 103.681L288.656 106.48L288.89 109.278L289.124 112.077L291.927 111.845L291.693 109.046L291.459 106.248Z" fill="#92B5F5"/>
<path d="M162.742 85.9333L162.509 83.1336L165.312 82.9015L165.078 80.103L167.881 79.8711L167.647 77.0713L170.45 76.8393L173.254 76.6072L173.02 73.8075L175.822 73.5755L178.626 73.3434L178.392 70.545L181.194 70.313L180.96 67.5133L178.158 67.7452L175.354 67.9773L172.552 68.2092L172.318 65.4107L169.515 65.6428L166.711 65.8748L163.909 66.1068L164.143 68.9053L161.339 69.1373L158.537 69.3693L158.771 72.169L155.968 72.4011L153.164 72.6331L153.398 75.4316L150.596 75.6636L150.829 78.4633L151.063 81.2631L148.26 81.4952L148.494 84.2936L145.69 84.5257L145.924 87.3255L148.728 87.0934L151.531 86.8613L154.333 86.6294L157.137 86.3973L157.371 89.1958L160.174 88.9638L162.976 88.7318L162.742 85.9333Z" fill="#5B63B3"/>
<path d="M182.358 84.3005L182.592 87.0985L179.79 87.3304L176.987 87.5624L177.221 90.3617L174.419 90.5936L174.653 93.3929L174.887 96.1908L172.083 96.4228L172.317 99.2221L175.12 98.9901L175.354 101.789L175.588 104.587L172.785 104.819L169.982 105.051L167.18 105.283L164.377 105.515L164.611 108.315L164.845 111.113L165.078 113.912L167.882 113.68L168.115 116.479L170.917 116.247L173.72 116.015L176.523 115.783L179.325 115.551L182.128 115.319L181.894 112.52L181.661 109.721L181.427 106.923L181.193 104.123L180.959 101.325L180.725 98.5262L183.527 98.2943L183.293 95.495L183.06 92.697L182.826 89.8978L185.629 89.6658L185.395 86.8665L188.198 86.6345L187.964 83.8365L185.161 84.0685L182.358 84.3005Z" fill="#5B63B3"/>
<path d="M238.656 82.4466L238.422 79.6484L235.619 79.8804L232.817 80.1124L230.014 80.3444L227.21 80.5764L224.408 80.8083L221.605 81.0404L218.803 81.2723L216 81.5043L216.233 84.3025L213.43 84.5345L210.628 84.7665L207.825 84.9985L208.058 87.798L205.255 88.03L205.489 90.8294L202.687 91.0614L202.921 93.8596L200.117 94.0916L200.351 96.8911L197.549 97.123L197.783 99.9224L198.017 102.721L195.214 102.953L195.447 105.752L198.251 105.52L201.053 105.288L201.287 108.086L204.09 107.854L204.324 110.654L204.558 113.453L201.754 113.685L198.952 113.917L196.149 114.149L196.383 116.947L193.579 117.179L193.813 119.979L196.617 119.747L196.851 122.546L199.654 122.314L199.888 125.112L202.69 124.881L205.493 124.649L208.295 124.417L211.098 124.185L210.865 121.386L213.668 121.154L216.47 120.922L216.704 123.721L219.507 123.489L222.31 123.257L222.077 120.458L224.879 120.226L227.682 119.994L227.448 117.195L227.214 114.395L224.411 114.628L224.177 111.829L221.375 112.061L221.141 109.262L220.907 106.462L223.709 106.23L226.513 105.998L229.315 105.766L229.081 102.968L226.279 103.2L226.045 100.401L223.242 100.633L223.008 97.8346L220.206 98.0665L219.972 95.2671L217.169 95.4991L214.365 95.7311L211.563 95.963L211.329 93.1636L211.096 90.3654L213.898 90.1335L216.701 89.9014L219.504 89.6694L222.306 89.4375L225.11 89.2054L225.343 92.0036L228.146 91.7717L230.949 91.5397L230.715 88.7415L233.518 88.5095L233.285 85.71L236.087 85.4781L238.89 85.2461L238.656 82.4466Z" fill="#5B63B3"/>
<path d="M272.3 113.469L269.497 113.701L266.694 113.933L266.46 111.134L266.226 108.336L265.992 105.537L263.19 105.769L262.957 102.969L260.153 103.201L259.92 100.403L257.116 100.635L256.883 97.8359L256.649 95.0379L259.452 94.8059L259.218 92.0066L256.415 92.2386L253.613 92.4705L250.81 92.7025L248.008 92.9344L245.205 93.1664L245.439 95.9658L242.635 96.1978L242.869 98.9958L240.067 99.2277L240.301 102.027L240.535 104.825L243.337 104.593L246.14 104.361L248.943 104.129L251.745 103.897L251.979 106.697L254.782 106.465L255.016 109.264L255.25 112.062L255.484 114.861L252.68 115.093L249.879 115.325L249.645 112.526L246.841 112.758L244.038 112.99L244.272 115.789L241.47 116.021L241.704 118.82L241.938 121.618L242.172 124.418L242.405 127.216L245.207 126.984L245.441 129.783L248.244 129.551L251.048 129.319L250.814 126.52L253.616 126.288L253.382 123.49L256.185 123.258L258.987 123.026L261.79 122.794L262.024 125.592L264.827 125.36L267.629 125.128L270.432 124.896L270.199 122.098L273.002 121.866L275.804 121.634L275.57 118.835L275.336 116.037L272.534 116.269L272.3 113.469Z" fill="#5B63B3"/>
<path d="M100.125 113.667L97.3223 113.899L97.556 116.697L97.7899 119.496L98.0238 122.296L100.827 122.064L103.629 121.832L106.432 121.6L106.198 118.8L105.964 116.001L105.731 113.203L102.927 113.435L100.125 113.667Z" fill="#5B63B3"/>
<path d="M113.214 101.311L116.018 101.079L118.82 100.847L118.586 98.0481L121.39 97.816L124.193 97.5839L126.996 97.352L129.799 97.1199L130.033 99.9187L130.267 102.719L127.463 102.951L127.697 105.751L130.501 105.519L133.303 105.287L133.069 102.487L132.836 99.6867L135.639 99.4546L138.441 99.2227L138.675 102.023L138.909 104.823L141.713 104.591L144.517 104.359L147.319 104.127L150.123 103.895L152.926 103.663L152.692 100.862L149.889 101.095L149.655 98.2944L146.851 98.5265L146.617 95.7277L143.815 95.9597L143.581 93.1596L140.777 93.3916L141.011 96.1917L138.208 96.4238L135.405 96.6558L135.171 93.8557L134.938 91.0556L132.134 91.2877L131.9 88.4888L131.666 85.6887L128.864 85.9207L128.63 83.1219L125.826 83.3539L123.024 83.5859L120.22 83.818L117.417 84.0501L114.615 84.2821L111.811 84.5142L112.045 87.313L109.241 87.5451L106.439 87.777L106.673 90.5772L103.869 90.8092L104.103 93.6081L101.299 93.8402L101.533 96.6403L101.767 99.4404L104.571 99.2083L104.804 102.007L105.038 104.807L107.842 104.575L108.076 107.375L110.878 107.143L110.644 104.343L113.448 104.111L113.214 101.311Z" fill="#5B63B3"/>
<path d="M286.089 109.503L288.89 109.271L288.656 106.473L288.422 103.674L285.621 103.906L285.855 106.705L286.089 109.503Z" fill="#5B63B3"/>
<path d="M201.055 71.4794L198.252 71.7114L198.486 74.5108L201.289 74.2788L201.055 71.4794Z" fill="#5B63B3"/>
<path d="M285.153 98.3143L284.919 95.515L284.686 92.717L281.883 92.949L281.649 90.1497L278.846 90.3817L278.612 87.5825L278.378 84.7844L275.576 85.0163L272.773 85.2484L272.539 82.4491L269.737 82.681L266.934 82.913L264.131 83.145L264.365 85.9443L264.598 88.7423L267.402 88.5103L267.636 91.3096L270.439 91.0776L270.673 93.8769L273.474 93.645L273.708 96.443L276.511 96.211L276.745 99.0103L279.547 98.7783L279.781 101.576L282.584 101.344L282.818 104.144L285.621 103.912L285.387 101.112L285.153 98.3143Z" fill="#5B63B3"/>
<path d="M160.163 122.78L157.359 123.012L157.125 120.212L154.323 120.444L154.089 117.645L151.285 117.877L151.051 115.077L150.817 112.276L150.584 109.477L147.78 109.71L144.978 109.942L142.174 110.174L139.37 110.406L136.568 110.638L133.764 110.87L130.962 111.102L131.196 113.901L128.392 114.133L125.59 114.365L122.786 114.597L119.982 114.829L120.216 117.629L117.414 117.861L117.648 120.661L114.844 120.893L115.078 123.692L115.312 126.493L115.546 129.293L118.349 129.061L118.116 126.261L120.918 126.029L123.722 125.796L123.488 122.996L126.291 122.764L126.058 119.965L128.86 119.733L128.626 116.933L131.43 116.701L134.232 116.469L137.036 116.237L139.838 116.005L140.072 118.805L140.306 121.604L140.54 124.404L140.774 127.204L143.577 126.972L143.811 129.771L146.615 129.539L149.417 129.307L152.221 129.075L155.024 128.843L157.827 128.611L160.63 128.379L163.434 128.147L163.2 125.348L160.397 125.58L160.163 122.78Z" fill="#5B63B3"/>
<path d="M56.4355 131.38L56.6694 134.18L59.4718 133.948L62.2753 133.716L62.0414 130.916L59.2379 131.148L56.4355 131.38Z" fill="#5B63B3"/>
<path d="M315.753 126.769L312.95 127.001L312.716 124.202L309.914 124.434L307.11 124.666L304.307 124.898L301.505 125.13L301.271 122.33L298.467 122.562L298.234 119.764L295.432 119.996L295.198 117.196L294.964 114.398L292.16 114.63L291.927 111.83L289.123 112.062L289.357 114.862L289.591 117.66L289.825 120.46L292.628 120.228L292.862 123.026L293.096 125.826L295.899 125.594L296.133 128.393L298.935 128.161L301.739 127.929L301.972 130.728L304.775 130.496L307.578 130.264L310.382 130.032L313.184 129.8L315.987 129.568L318.791 129.336L318.557 126.537L315.753 126.769Z" fill="#5B63B3"/>
<path d="M80.4965 115.297L77.6944 115.529L74.891 115.761L72.0888 115.993L71.855 113.194L69.0516 113.426L69.2855 116.225L69.5192 119.023L69.7531 121.823L66.9497 122.055L67.1836 124.855L64.3814 125.087L64.6152 127.885L61.8118 128.117L62.0457 130.917L64.8491 130.684L67.6512 130.453L67.4174 127.653L70.2208 127.421L69.987 124.623L72.7904 124.391L75.5925 124.159L75.3586 121.359L78.1621 121.127L80.9642 120.895L83.7676 120.663L83.5337 117.863L80.7303 118.096L80.4965 115.297Z" fill="#5B63B3"/>
<path d="M206.433 68.2151L206.667 71.0138L209.471 70.7818L212.273 70.5498L215.077 70.3177L217.88 70.0857L220.682 69.8537L223.486 69.6216L223.72 72.4216L226.522 72.1896L229.326 71.9576L229.092 69.1576L231.896 68.9255L231.662 66.1268L228.858 66.3589L228.624 63.5589L225.821 63.791L225.587 60.9923L222.785 61.2242L222.551 58.4243L222.317 55.6243L225.119 55.3923L227.923 55.1602L230.726 54.9282L230.96 57.7281L233.762 57.4962L236.566 57.2641L236.8 60.0641L239.602 59.8321L239.836 62.6308L240.07 65.4308L242.874 65.1987L243.107 67.9974L245.911 67.7653L246.145 70.5653L248.947 70.3334L248.713 67.5334L248.479 64.7347L245.677 64.9666L245.443 62.1667L242.64 62.3987L242.406 59.6L242.172 56.8001L239.368 57.0321L239.134 54.2322L236.332 54.4641L233.529 54.6962L233.295 51.8975L230.492 52.1295L227.689 52.3615L224.885 52.5936L224.651 49.7936L221.849 50.0256L219.045 50.2577L219.279 53.0577L216.477 53.2896L213.674 53.5217L210.87 53.7538L211.104 56.5525L208.301 56.7844L205.498 57.0165L205.732 59.8165L202.928 60.0486L203.162 62.8485L203.396 65.6472L206.199 65.4152L206.433 68.2151Z" fill="#5B63B3"/>
</g>
<defs>
<filter id="filter0_df_448_107061" x="0.378906" y="0.297852" width="377.52" height="206.356" filterUnits="userSpaceOnUse" color-interpolation-filters="sRGB">
<feFlood flood-opacity="0" result="BackgroundImageFix"/>
<feColorMatrix in="SourceAlpha" type="matrix" values="0 0 0 0 0 0 0 0 0 0 0 0 0 0 0 0 0 0 127 0" result="hardAlpha"/>
<feOffset dy="4"/>
<feGaussianBlur stdDeviation="25"/>
<feComposite in2="hardAlpha" operator="out"/>
<feColorMatrix type="matrix" values="0 0 0 0 0.298039 0 0 0 0 0.0705882 0 0 0 0 0.329412 0 0 0 1 0"/>
<feBlend mode="normal" in2="BackgroundImageFix" result="effect1_dropShadow_448_107061"/>
<feBlend mode="normal" in="SourceGraphic" in2="effect1_dropShadow_448_107061" result="shape"/>
<feGaussianBlur stdDeviation="0.5" result="effect2_foregroundBlur_448_107061"/>
</filter>
</defs>
</svg>
