<svg width="267" height="279" viewBox="0 0 267 279" fill="none" xmlns="http://www.w3.org/2000/svg">
<g filter="url(#filter0_d_448_107095)">
<path d="M24.1327 142.191L23.8958 140.103L23.6589 138.015L21.5701 138.249L19.4805 138.483L19.7174 140.571L19.9543 142.659L22.0439 142.425L24.1327 142.191Z" fill="#121A54"/>
<path d="M161.446 158.505L161.209 156.416L159.119 156.65L157.029 156.884L154.938 157.119L152.848 157.353L150.758 157.587L148.668 157.822L146.577 158.056L146.34 155.967L144.25 156.201L142.161 156.436L141.924 154.347L139.834 154.581L139.597 152.492L139.36 150.403L137.269 150.637L137.032 148.548L136.796 146.46L136.559 144.371L136.322 142.282L134.232 142.516L133.995 140.427L133.758 138.338L131.667 138.572L131.43 136.483L129.34 136.718L129.103 134.629L127.013 134.864L126.776 132.778L124.686 133.012L124.923 135.101L125.16 137.189L127.25 136.955L127.487 139.044L129.577 138.809L129.814 140.899L130.051 142.988L132.142 142.753L132.378 144.842L132.615 146.931L132.852 149.02L130.762 149.254L130.999 151.343L128.908 151.577L126.818 151.812L124.728 152.046L122.638 152.28L122.875 154.369L120.784 154.604L118.694 154.838L116.604 155.072L116.367 152.983L114.276 153.218L112.187 153.452L110.097 153.686L110.334 155.775L108.243 156.01L108.48 158.099L106.39 158.333L104.3 158.568L104.063 156.478L101.972 156.713L101.736 154.624L101.499 152.535L101.262 150.447L101.025 148.357L103.115 148.123L102.878 146.034L104.969 145.8L107.059 145.565L107.296 147.654L109.386 147.42L111.476 147.186L111.24 145.097L111.003 143.008L110.766 140.918L108.675 141.153L108.438 139.064L106.348 139.298L104.258 139.532L102.168 139.767L100.077 140.001L97.9879 140.235L95.8976 140.47L95.6608 138.382L95.4239 136.293L95.1871 134.204L94.9502 132.115L97.0405 131.881L96.8035 129.792L98.8929 129.558L98.656 127.469L100.746 127.234L102.837 127L104.927 126.766L107.017 126.531L109.107 126.297L111.197 126.063L113.287 125.828L115.377 125.594L117.468 125.36L117.231 123.271L115.141 123.505L113.05 123.739L110.96 123.974L110.723 121.885L108.634 122.119L108.871 124.208L106.78 124.442L104.69 124.677L102.6 124.911L102.363 122.822L100.272 123.056L98.1822 123.29L98.4191 125.38L96.3297 125.614L94.2394 125.848L94.4764 127.937L92.386 128.172L92.623 130.261L90.5326 130.495L88.4423 130.729L88.2054 128.64L86.1151 128.875L84.0258 129.109L81.9355 129.343L79.8452 129.578L77.7549 129.812L77.9918 131.901L78.2287 133.99L80.319 133.756L82.4093 133.521L84.4996 133.287L84.7365 135.376L86.8259 135.142L87.0628 137.231L89.1531 136.997L89.39 139.086L91.4803 138.851L91.7171 140.939L89.6268 141.174L87.5365 141.408L85.4472 141.642L85.6841 143.731L85.921 145.82L88.0104 145.586L88.2473 147.675L90.3376 147.441L90.5745 149.53L90.8114 151.619L88.7211 151.853L86.6318 152.088L86.8686 154.176L84.7783 154.41L82.688 154.645L82.4512 152.556L80.3609 152.791L78.2705 153.025L78.5074 155.113L76.417 155.348L74.3268 155.582L72.2365 155.816L70.1462 156.051L69.9093 153.962L67.8191 154.197L67.5821 152.108L65.4918 152.342L65.2549 150.253L67.3452 150.019L67.1083 147.93L69.1986 147.695L71.2889 147.461L73.3792 147.227L73.1423 145.137L72.9054 143.048L70.8151 143.283L70.5783 141.195L68.488 141.429L66.3977 141.663L66.1607 139.573L64.0703 139.808L63.8335 137.72L63.5966 135.63L63.3597 133.541L65.45 133.307L65.2131 131.218L64.9762 129.129L64.7393 127.04L66.8296 126.805L66.5926 124.716L68.6829 124.482L68.446 122.393L70.5363 122.159L70.2994 120.07L72.3897 119.835L74.48 119.601L76.5703 119.366L78.6606 119.132L78.4237 117.043L80.514 116.809L82.6043 116.574L84.6937 116.34L86.7839 116.106L86.547 114.017L84.4567 114.251L82.3674 114.485L80.2771 114.72L78.1868 114.954L76.0965 115.188L74.0062 115.423L71.9159 115.657L69.8256 115.891L70.0625 117.98L67.9722 118.215L65.8819 118.449L63.7916 118.684L64.0285 120.773L64.2654 122.862L64.5024 124.951L62.412 125.185L60.3217 125.419L60.5587 127.508L58.4684 127.743L58.7053 129.832L56.615 130.066L56.8519 132.155L57.0888 134.244L57.3257 136.333L55.2364 136.568L55.4733 138.657L55.7102 140.746L55.9471 142.835L56.1839 144.923L56.4208 147.012L56.6578 149.101L54.5675 149.336L52.4772 149.57L50.3869 149.804L48.2966 150.039L46.2063 150.273L45.9694 148.184L43.8791 148.418L43.6421 146.329L43.4053 144.241L43.1683 142.151L45.2586 141.917L47.3489 141.682L49.4392 141.448L51.5295 141.214L51.2927 139.125L51.0558 137.036L48.9655 137.271L48.7286 135.182L46.6383 135.416L46.4013 133.327L46.1644 131.238L45.9275 129.149L48.0178 128.914L47.7809 126.825L47.544 124.736L49.6343 124.502L51.7246 124.268L51.4877 122.179L53.578 121.944L55.6673 121.71L55.4304 119.621L57.5207 119.387L59.611 119.152L61.7013 118.918L63.7916 118.684L63.5547 116.594L61.4644 116.829L59.3741 117.063L59.1373 114.975L57.047 115.209L54.9567 115.444L52.8673 115.678L53.1041 117.766L51.0138 118L48.9236 118.235L49.1605 120.324L47.0702 120.558L44.9799 120.793L45.2168 122.882L43.1265 123.116L43.3634 125.205L41.2731 125.439L41.51 127.528L41.7469 129.618L39.6566 129.852L37.5663 130.086L37.3294 127.997L35.2391 128.231L33.1488 128.466L31.0585 128.7L28.9682 128.935L26.8789 129.169L27.1158 131.258L25.0255 131.492L22.9352 131.727L20.8449 131.961L21.0818 134.05L21.3187 136.139L23.409 135.905L25.4993 135.67L25.2624 133.581L27.3527 133.347L27.5896 135.436L29.679 135.202L29.9159 137.291L32.0062 137.056L32.2431 139.146L34.3334 138.911L34.5703 141L36.6606 140.766L36.8975 142.855L37.1344 144.944L35.0441 145.178L32.9538 145.413L33.1906 147.501L33.4275 149.59L33.6645 151.679L35.7548 151.445L35.9917 153.534L38.082 153.299L38.3189 155.388L40.4092 155.154L40.6461 157.243L42.7364 157.009L42.9732 159.097L40.8829 159.331L38.7926 159.566L36.7023 159.8L34.612 160.034L32.5217 160.269L30.4324 160.503L28.3421 160.737L28.1053 158.649L26.015 158.884L25.778 156.794L25.5411 154.705L25.3042 152.616L25.0673 150.527L22.977 150.762L20.8867 150.996L18.7964 151.23L16.7061 151.465L16.943 153.554L14.8537 153.788L15.0906 155.877L13.0003 156.111L13.2372 158.2L11.1469 158.435L9.05662 158.669L9.29353 160.758L7.20323 160.993L6.96631 158.903L4.876 159.138L2.78572 159.372L2.54881 157.283L2.31189 155.194L2.07498 153.105L4.16526 152.871L3.92834 150.782L3.69153 148.693L5.78184 148.459L5.54482 146.369L7.63513 146.135L7.39832 144.047L9.4886 143.812L11.5789 143.578L13.6692 143.344L15.7586 143.109L15.5217 141.02L17.6119 140.786L17.375 138.697L17.1381 136.608L15.0478 136.842L12.9585 137.076L10.8682 137.311L8.77785 137.545L9.01477 139.634L6.92449 139.868L4.83418 140.103L5.0711 142.192L2.98079 142.426L3.2177 144.515L1.12742 144.75L0.890508 142.661L-1.19884 142.895L-3.28915 143.129L-5.37946 143.363L-7.46974 143.598L-9.56005 143.832L-9.32313 145.921L-11.4134 146.156L-13.5028 146.39L-15.5931 146.624L-17.6834 146.858L-17.9203 144.769L-20.0106 145.004L-19.7737 147.093L-21.864 147.327L-23.9543 147.562L-26.0446 147.796L-25.8077 149.885L-25.5708 151.974L-23.4804 151.74L-21.3901 151.505L-19.2999 151.271L-19.063 153.359L-16.9727 153.125L-16.7358 155.214L-18.8261 155.448L-20.9164 155.683L-23.0067 155.917L-22.7698 158.006L-24.8601 158.24L-26.9504 158.475L-26.7135 160.564L-28.8038 160.798L-28.5669 162.887L-30.6572 163.121L-32.7475 163.356L-32.5105 165.445L-32.2737 167.533L-30.1835 167.299L-28.0932 167.064L-28.33 164.976L-26.2396 164.742L-24.1494 164.508L-22.0591 164.273L-19.9688 164.039L-20.2057 161.95L-18.1154 161.715L-16.0251 161.481L-13.9348 161.247L-11.8445 161.012L-9.75514 160.778L-7.66483 160.544L-7.42792 162.633L-5.33761 162.398L-5.1008 164.487L-3.01052 164.252L-2.77361 166.341L-0.683298 166.107L1.40701 165.873L1.64393 167.962L3.73327 167.727L5.82355 167.493L6.06047 169.582L8.15078 169.348L10.2411 169.114L12.3314 168.879L14.4217 168.645L16.512 168.41L18.6013 168.176L20.6916 167.942L22.7819 167.708L24.8722 167.473L26.9625 167.239L29.0528 167.005L31.1431 166.77L33.2325 166.536L35.3228 166.302L37.4131 166.067L37.65 168.156L39.7403 167.922L41.8306 167.688L42.0675 169.777L44.1578 169.542L44.3947 171.631L44.6316 173.72L46.7219 173.486L46.9588 175.575L49.0492 175.341L51.1394 175.107L51.3763 177.196L53.4667 176.961L55.557 176.727L57.6472 176.493L59.7376 176.258L61.8269 176.024L63.9172 175.79L66.0075 175.555L68.0978 175.321L70.1881 175.087L72.2784 174.852L72.0415 172.763L74.1318 172.529L76.2221 172.294L75.9852 170.205L75.7483 168.116L73.6579 168.351L71.5676 168.585L69.4774 168.819L67.3871 169.054L65.2967 169.288L63.2065 169.522L62.9695 167.433L60.8792 167.668L60.6423 165.579L58.553 165.813L58.3161 163.724L58.0791 161.635L55.9888 161.869L55.7519 159.78L53.6616 160.014L51.5713 160.249L51.3344 158.16L49.2441 158.394L49.0073 156.306L51.0976 156.071L53.1879 155.837L55.2782 155.603L55.515 157.691L57.6053 157.457L59.6947 157.222L61.785 156.988L62.0219 159.077L64.1122 158.843L64.3491 160.932L66.4394 160.697L68.5297 160.463L68.7666 162.552L70.8569 162.318L71.0938 164.407L73.1841 164.173L75.2744 163.938L77.3647 163.704L79.455 163.469L81.5453 163.235L83.6356 163.001L85.7259 162.766L87.8162 162.532L89.9056 162.298L91.9959 162.064L91.7589 159.974L93.8492 159.74L95.9396 159.506L98.0299 159.271L98.2668 161.36L100.357 161.126L102.446 160.892L102.683 162.981L102.92 165.07L105.011 164.836L107.101 164.601L107.338 166.69L109.428 166.456L111.518 166.222L111.755 168.311L113.846 168.076L115.935 167.842L118.025 167.608L120.116 167.374L122.206 167.139L124.296 166.905L126.386 166.67L128.477 166.436L130.567 166.202L130.33 164.113L130.093 162.024L128.003 162.258L125.913 162.492L123.822 162.727L123.585 160.638L121.495 160.872L121.258 158.783L123.348 158.549L125.439 158.314L127.529 158.08L129.619 157.846L131.71 157.611L133.8 157.377L134.037 159.466L136.127 159.232L136.364 161.321L138.454 161.086L138.691 163.175L140.782 162.941L142.872 162.707L143.109 164.796L145.198 164.561L147.288 164.327L149.379 164.093L151.469 163.858L153.559 163.624L155.65 163.39L155.413 161.301L157.503 161.066L159.593 160.832L161.684 160.598L161.921 162.687L164.011 162.452L163.774 160.363L163.537 158.274L161.447 158.509L161.446 158.505ZM0.242467 155.425L-1.84784 155.659L-3.93815 155.894L-6.02843 156.128L-6.26535 154.039L-6.50226 151.95L-6.73907 149.862L-4.64879 149.627L-2.55848 149.393L-0.46817 149.159L-0.231363 151.247L0.00555165 153.336L0.242467 155.425Z" fill="#121A54"/>
<path d="M88.194 109.628L90.2837 109.394L90.5207 111.482L92.6104 111.247L92.8472 113.334L90.7575 113.569L90.9944 115.657L88.9046 115.891L89.1415 117.979L91.2313 117.744L93.321 117.51L95.4098 117.276L97.4996 117.042L99.5884 116.808L99.8252 118.895L101.915 118.661L104.005 118.427L104.242 120.515L106.33 120.281L108.42 120.046L108.183 117.958L106.094 118.193L105.857 116.106L105.62 114.018L103.531 114.252L103.294 112.164L101.204 112.398L100.968 110.311L98.8778 110.545L98.6409 108.457L98.4041 106.37L96.3153 106.604L96.0784 104.516L93.9886 104.751L91.8998 104.985L91.6629 102.897L89.5731 103.131L87.4833 103.365L85.3945 103.599L85.6314 105.687L85.8683 107.775L87.9572 107.541L88.194 109.628Z" fill="#121A54"/>
<path d="M59.6311 119.179L57.5412 119.413L55.4513 119.648L55.6883 121.736L53.5993 121.97L51.5095 122.204L51.7463 124.291L49.6574 124.525L47.5675 124.759L47.8044 126.847L48.0412 128.934L45.9514 129.169L46.1883 131.257L46.4252 133.345L46.662 135.432L48.7519 135.198L50.8417 134.963L50.6049 132.876L50.368 130.788L52.4569 130.554L52.22 128.466L54.3099 128.232L56.3988 127.998L56.162 125.911L58.2518 125.677L60.3417 125.443L62.4306 125.208L64.5205 124.974L64.2836 122.886L64.0468 120.799L63.8099 118.711L61.72 118.945L59.6311 119.179Z" fill="#92B5F5"/>
<path d="M110.258 117.737L110.021 115.649L109.784 113.56L109.548 111.471L107.458 111.705L107.221 109.617L106.985 107.528L106.748 105.44L104.657 105.674L104.421 103.585L102.331 103.82L102.094 101.731L100.004 101.965L99.7672 99.877L97.6769 100.111L97.44 98.0224L95.3507 98.2566L93.2604 98.4909L93.0235 96.402L90.9341 96.6362L88.8439 96.8705L86.7536 97.1048L84.6643 97.3391L82.574 97.5734L80.4847 97.8076L78.3944 98.0419L76.3042 98.2763L74.2148 98.5105L74.4518 100.599L72.3615 100.834L72.5984 102.923L70.5081 103.157L68.4188 103.391L68.6556 105.479L66.5653 105.714L66.8023 107.803L67.0392 109.892L64.9499 110.126L65.1867 112.214L65.4236 114.303L63.3333 114.537L61.2431 114.771L61.0061 112.682L60.7693 110.594L58.68 110.829L58.4431 108.74L56.3528 108.974L54.2626 109.208L52.1732 109.443L51.9363 107.354L49.846 107.588L47.7567 107.822L45.6664 108.056L43.5762 108.291L41.4869 108.525L39.3966 108.759L37.3072 108.994L37.5442 111.083L35.4539 111.317L33.3636 111.551L33.6006 113.64L31.5112 113.874L29.421 114.109L29.6578 116.197L27.5675 116.431L27.8044 118.52L28.0412 120.608L25.9519 120.842L26.1888 122.931L26.4258 125.02L24.3355 125.255L24.5723 127.343L24.8092 129.432L22.7189 129.666L22.482 127.577L22.2452 125.489L20.1559 125.723L19.919 123.634L17.8287 123.868L17.5918 121.779L15.5025 122.014L13.4122 122.248L11.3229 122.482L9.23258 122.717L7.14232 122.951L5.053 123.185L2.96272 123.419L0.872437 123.654L1.10936 125.743L-0.979935 125.977L-3.07022 126.211L-2.8333 128.3L-4.92358 128.535L-4.68677 130.623L-6.77609 130.857L-6.53917 132.946L-6.30236 135.034L-8.39261 135.268L-8.15569 137.357L-7.91877 139.446L-10.0081 139.68L-10.245 137.591L-12.3353 137.826L-14.4256 138.06L-16.5149 138.294L-18.6051 138.529L-20.6954 138.763L-22.7848 138.997L-22.5478 141.086L-24.6381 141.32L-26.7274 141.555L-26.4906 143.643L-28.5809 143.877L-28.344 145.966L-30.4342 146.2L-30.1973 148.289L-29.9605 150.377L-32.0498 150.611L-31.8129 152.7L-31.5761 154.788L-31.3392 156.877L-33.4295 157.112L-33.1925 159.201L-35.2828 159.435L-37.3721 159.669L-39.4624 159.904L-41.5517 160.138L-41.3149 162.226L-41.078 164.315L-38.9887 164.081L-36.8984 163.846L-34.8091 163.612L-32.7188 163.378L-32.9557 161.289L-30.8654 161.054L-31.1023 158.966L-29.0129 158.732L-29.2499 156.643L-27.1596 156.409L-27.3965 154.32L-27.6333 152.232L-27.8702 150.143L-25.78 149.909L-26.0168 147.821L-23.9275 147.586L-21.8372 147.352L-19.7479 147.118L-19.9848 145.029L-17.8945 144.795L-17.6576 146.883L-15.5673 146.649L-13.478 146.415L-11.3877 146.181L-9.29744 145.946L-9.53436 143.857L-7.44504 143.623L-5.35479 143.389L-3.26547 143.155L-1.17519 142.92L-1.41211 140.831L-1.64892 138.743L-3.7392 138.978L-3.97612 136.889L-4.21304 134.8L-2.12276 134.565L-2.35957 132.477L-0.269286 132.243L-0.506205 130.154L1.58309 129.92L3.67337 129.685L3.43656 127.597L5.52684 127.363L7.61616 127.129L9.70642 126.895L11.7967 126.66L13.886 126.426L15.9763 126.192L16.2131 128.28L18.3024 128.045L18.5393 130.134L18.7762 132.222L20.8664 131.988L22.9557 131.754L25.046 131.52L27.1363 131.285L26.8995 129.197L28.9888 128.963L28.7519 126.874L30.8421 126.64L30.6053 124.552L32.6956 124.317L32.4587 122.228L32.2218 120.139L34.3111 119.905L34.0743 117.817L36.1646 117.583L38.2548 117.349L38.0179 115.26L40.1072 115.025L42.1975 114.791L41.9607 112.703L44.05 112.469L46.1403 112.234L48.2305 112L48.4674 114.088L50.5567 113.854L52.647 113.62L54.7363 113.385L54.9732 115.474L57.0635 115.24L59.1537 115.006L59.3905 117.094L61.4799 116.859L63.5702 116.625L63.8071 118.714L65.8973 118.48L67.9866 118.246L67.7497 116.157L69.84 115.922L71.9293 115.688L74.0196 115.454L73.7828 113.366L73.5459 111.277L71.4556 111.511L71.2188 109.423L70.9819 107.334L73.0721 107.1L72.8352 105.011L74.9255 104.776L77.0148 104.542L76.778 102.454L78.8683 102.22L80.9585 101.986L83.0478 101.751L82.8109 99.6624L84.9012 99.428L86.9905 99.1938L87.2274 101.283L89.3177 101.048L91.408 100.814L93.4973 100.58L93.7341 102.668L95.8244 102.434L97.9137 102.199L98.1506 104.288L100.241 104.054L100.478 106.143L100.715 108.231L102.805 107.997L103.042 110.086L105.131 109.851L105.368 111.939L105.605 114.028L105.842 116.117L106.079 118.205L108.169 117.971L108.406 120.06L106.316 120.294L104.226 120.529L103.989 118.44L101.899 118.674L99.8087 118.908L99.5719 116.82L97.4826 117.054L95.3923 117.289L93.303 117.523L91.2128 117.757L89.1225 117.992L88.8856 115.903L86.7962 116.137L84.706 116.371L82.6167 116.605L80.5264 116.84L78.4361 117.074L78.673 119.163L76.5837 119.397L74.4934 119.632L72.4032 119.866L70.3138 120.1L70.5507 122.188L68.4604 122.423L68.6973 124.512L66.608 124.746L66.8448 126.834L64.7545 127.068L64.9915 129.157L65.2284 131.246L65.4652 133.334L63.3749 133.568L63.6118 135.657L63.8487 137.746L64.0855 139.834L66.1758 139.6L68.2661 139.366L68.0293 137.278L67.7924 135.189L69.8817 134.954L69.6448 132.865L71.735 132.631L71.4982 130.543L73.5875 130.309L73.3506 128.22L75.4409 127.986L75.204 125.897L77.2942 125.662L79.3836 125.428L81.4738 125.194L81.237 123.106L83.3273 122.871L85.4166 122.637L87.5069 122.403L89.5962 122.169L91.6865 121.934L93.7767 121.7L95.8661 121.466L97.9563 121.231L98.1932 123.319L100.282 123.085L102.373 122.851L102.61 124.94L104.7 124.706L106.789 124.471L108.88 124.237L108.643 122.148L110.732 121.914L110.495 119.826L110.258 117.737Z" fill="#92B5F5"/>
<path d="M129.824 140.883L129.588 138.795L127.499 139.029L127.262 136.941L125.172 137.175L124.935 135.088L124.698 133L124.461 130.913L122.372 131.147L122.135 129.059L120.046 129.293L119.809 127.205L117.719 127.439L117.482 125.352L115.393 125.586L113.303 125.82L111.213 126.054L109.124 126.288L107.034 126.522L104.946 126.757L102.856 126.991L100.766 127.225L98.6769 127.459L98.9137 129.546L96.8238 129.78L97.0607 131.868L94.9718 132.102L95.2087 134.19L95.4455 136.278L95.6824 138.366L95.9192 140.453L98.0082 140.219L100.098 139.985L99.8612 137.897L99.6243 135.809L101.713 135.575L101.476 133.488L103.566 133.254L103.329 131.166L105.419 130.932L107.508 130.698L109.598 130.463L111.687 130.229L113.777 129.995L114.014 132.083L111.924 132.317L112.161 134.405L112.398 136.493L114.488 136.258L114.724 138.346L116.814 138.111L117.051 140.199L119.14 139.965L119.377 142.053L119.614 144.141L119.851 146.229L121.941 145.994L124.031 145.76L124.267 147.848L126.356 147.614L126.593 149.701L126.83 151.789L128.92 151.555L131.009 151.321L130.772 149.233L132.862 148.999L132.625 146.912L132.388 144.824L132.151 142.736L130.061 142.97L129.824 140.883Z" fill="#92B5F5"/>
<path d="M32.4898 141.248L30.3996 141.482L28.3104 141.716L26.2202 141.95L24.13 142.185L22.0407 142.419L19.9506 142.653L17.8613 142.887L15.7711 143.122L13.6818 143.356L11.5916 143.59L9.50146 143.824L7.41221 144.058L7.64903 146.146L5.55882 146.381L5.79575 148.469L3.70554 148.704L3.94236 150.791L4.17928 152.88L2.09007 153.114L2.32699 155.203L2.56381 157.291L2.80074 159.379L4.88995 159.145L6.98016 158.911L6.74324 156.822L6.50642 154.734L8.59663 154.5L8.3597 152.411L10.4489 152.177L10.212 150.089L12.3022 149.854L14.3924 149.62L16.4817 149.386L18.5719 149.152L18.3351 147.064L20.4243 146.83L22.5145 146.595L24.6037 146.361L26.6939 146.127L28.7841 145.893L30.8734 145.658L32.9636 145.424L35.0538 145.19L37.143 144.956L36.9061 142.867L36.6693 140.779L34.58 141.013L32.4898 141.248Z" fill="#92B5F5"/>
<path d="M156.565 152.66L154.475 152.894L154.712 154.983L156.802 154.748L158.892 154.514L158.655 152.426L156.565 152.66Z" fill="#92B5F5"/>
<path d="M160.982 154.278L158.893 154.512L159.129 156.6L161.219 156.365L160.982 154.278Z" fill="#92B5F5"/>
<path d="M163.308 156.129L161.219 156.363L161.456 158.451L163.545 158.216L163.308 156.129Z" fill="#92B5F5"/>
<path d="M163.545 158.214L163.782 160.302L164.018 162.388L166.106 162.154L165.87 160.068L165.633 157.98L163.545 158.214Z" fill="#92B5F5"/>
<path d="M138.189 139.944L137.952 137.857L137.715 135.769L137.478 133.682L137.241 131.594L137.005 129.507L134.915 129.742L134.678 127.654L134.441 125.566L132.352 125.8L132.116 123.713L130.026 123.947L129.789 121.86L127.7 122.094L127.463 120.006L125.374 120.24L125.137 118.153L123.048 118.387L120.959 118.621L118.869 118.856L116.78 119.09L114.691 119.324L114.928 121.411L112.838 121.645L110.749 121.879L110.985 123.967L113.075 123.732L115.165 123.498L117.253 123.264L119.343 123.03L121.433 122.796L123.521 122.562L123.758 124.65L125.848 124.416L127.936 124.182L128.173 126.268L128.41 128.356L130.5 128.122L130.737 130.21L132.826 129.976L133.063 132.062L133.3 134.15L133.537 136.237L133.774 138.325L135.862 138.091L136.099 140.179L136.336 142.265L136.573 144.353L138.663 144.119L138.426 142.031L138.189 139.944Z" fill="#92B5F5"/>
<path d="M147.258 145.254L147.021 143.167L144.932 143.401L142.843 143.635L140.754 143.869L138.664 144.103L138.901 146.191L140.991 145.957L141.227 148.044L141.464 150.131L143.553 149.897L143.79 151.984L145.88 151.75L146.116 153.838L148.205 153.604L150.295 153.37L150.058 151.282L149.821 149.195L149.584 147.107L147.495 147.341L147.258 145.254Z" fill="#92B5F5"/>
<path d="M41.5322 127.559L41.2953 125.471L43.3853 125.237L43.1485 123.149L45.2376 122.915L45.0006 120.827L47.0906 120.593L49.1807 120.358L48.9437 118.27L51.0328 118.036L53.1228 117.802L52.886 115.715L54.9751 115.48L54.7382 113.392L52.6491 113.626L50.5591 113.86L48.47 114.095L48.2332 112.007L46.1432 112.241L44.0532 112.476L41.9641 112.71L42.2009 114.797L40.1109 115.031L38.0218 115.265L38.2588 117.354L36.1688 117.588L34.0787 117.822L34.3156 119.909L32.2265 120.144L32.4634 122.232L32.7003 124.32L30.6103 124.554L30.8471 126.642L28.7571 126.876L28.9941 128.964L31.0841 128.73L33.1741 128.496L35.2631 128.262L37.3532 128.027L37.59 130.115L39.68 129.88L41.769 129.646L41.5322 127.559Z" fill="#5B63B3"/>
<path d="M56.1551 125.909L56.3919 127.995L54.3033 128.229L52.2138 128.464L52.4507 130.551L50.3621 130.785L50.5989 132.873L50.8357 134.96L48.7462 135.194L48.983 137.282L51.0726 137.047L51.3095 139.135L51.5462 141.222L49.4567 141.456L47.3672 141.69L45.2786 141.924L43.189 142.158L43.4259 144.246L43.6627 146.333L43.8996 148.42L45.9891 148.186L46.226 150.274L48.3146 150.04L50.4041 149.806L52.4936 149.572L54.5822 149.338L56.6717 149.103L56.4349 147.016L56.198 144.928L55.9612 142.841L55.7244 140.754L55.4876 138.667L55.2507 136.579L57.3393 136.345L57.1024 134.258L56.8657 132.171L56.6288 130.083L58.7183 129.849L58.4814 127.761L60.571 127.527L60.3342 125.44L58.2447 125.675L56.1551 125.909Z" fill="#5B63B3"/>
<path d="M98.1911 123.298L97.9543 121.211L95.8645 121.445L93.7757 121.679L91.6859 121.913L89.5961 122.147L87.5073 122.381L85.4175 122.615L83.3286 122.85L81.2388 123.084L81.4756 125.171L79.3858 125.405L77.297 125.639L75.2072 125.873L75.4441 127.961L73.3543 128.195L73.5912 130.283L71.5024 130.517L71.7392 132.604L69.6494 132.838L69.8863 134.926L67.7975 135.16L68.0344 137.248L68.2712 139.335L66.1814 139.569L66.4183 141.657L68.5081 141.423L70.5969 141.189L70.8337 143.276L72.9235 143.042L73.1604 145.13L73.3973 147.218L71.3075 147.452L69.2187 147.686L67.1289 147.92L67.3657 150.007L65.2759 150.241L65.5128 152.329L67.6026 152.095L67.8395 154.183L69.9293 153.949L70.1661 156.036L72.2549 155.802L74.3447 155.568L76.4336 155.334L78.5234 155.099L78.2866 153.012L80.3763 152.778L82.4652 152.544L82.702 154.631L84.7918 154.397L86.8816 154.163L86.6448 152.076L88.7336 151.842L90.8234 151.608L90.5865 149.52L90.3496 147.432L88.2598 147.666L88.023 145.579L85.9342 145.813L85.6973 143.725L85.4604 141.637L87.5492 141.403L89.639 141.169L91.7278 140.935L91.491 138.848L89.4022 139.082L89.1653 136.994L87.0755 137.228L86.8387 135.141L84.7499 135.375L84.513 133.287L82.4232 133.521L80.3334 133.756L78.2445 133.99L78.0076 131.902L77.7708 129.815L79.8597 129.581L81.9495 129.347L84.0392 129.112L86.1281 128.878L88.2179 128.644L88.4547 130.731L90.5435 130.497L92.6333 130.263L92.3965 128.176L94.4863 127.942L94.2494 125.854L96.3382 125.62L98.428 125.386L98.1911 123.298Z" fill="#5B63B3"/>
<path d="M124.025 145.757L121.936 145.992L119.846 146.226L119.609 144.138L119.372 142.051L119.136 139.963L117.047 140.197L116.81 138.11L114.72 138.344L114.484 136.257L112.394 136.491L112.157 134.403L111.92 132.316L114.01 132.082L113.773 129.995L111.683 130.229L109.595 130.463L107.505 130.697L105.416 130.931L103.327 131.165L103.564 133.253L101.474 133.487L101.711 135.574L99.6221 135.808L99.859 137.896L100.096 139.982L102.184 139.748L104.274 139.514L106.364 139.28L108.452 139.046L108.689 141.134L110.779 140.9L111.016 142.987L111.253 145.074L111.489 147.162L109.4 147.396L107.311 147.63L107.074 145.543L104.985 145.777L102.895 146.011L103.132 148.099L101.043 148.333L101.28 150.42L101.517 152.507L101.754 154.595L101.991 156.682L104.079 156.448L104.316 158.536L106.406 158.301L108.495 158.067L108.258 155.979L110.347 155.745L110.11 153.659L112.2 153.424L114.289 153.19L116.378 152.956L116.615 155.043L118.705 154.809L120.793 154.575L122.883 154.341L122.646 152.254L124.736 152.02L126.825 151.786L126.588 149.698L126.351 147.611L124.262 147.845L124.025 145.757Z" fill="#5B63B3"/>
<path d="M-4.66032 149.65L-6.75 149.884L-6.51321 151.971L-6.27632 154.059L-6.03942 156.146L-3.94975 155.912L-1.861 155.678L0.228707 155.444L-0.00818789 153.356L-0.245082 151.268L-0.481868 149.181L-2.57158 149.416L-4.66032 149.65Z" fill="#5B63B3"/>
<path d="M4.8532 140.13L6.94338 139.896L9.0326 139.662L8.79579 137.574L10.8859 137.34L12.9761 137.105L15.0653 136.871L17.1555 136.637L17.3923 138.725L17.6293 140.813L15.5391 141.047L15.776 143.136L17.8662 142.902L19.9554 142.668L19.7185 140.579L19.4816 138.49L21.5717 138.256L23.6609 138.022L23.8978 140.111L24.1348 142.199L26.2249 141.965L28.3151 141.731L30.4043 141.496L32.4945 141.262L34.5847 141.028L34.3478 138.939L32.2576 139.174L32.0207 137.085L29.9305 137.319L29.6937 135.232L27.6045 135.466L27.3675 133.377L25.2774 133.611L25.5143 135.7L23.4241 135.934L21.3349 136.168L21.098 134.08L20.861 131.991L18.7709 132.225L18.5341 130.138L18.2972 128.049L16.2079 128.283L15.9711 126.196L13.8809 126.43L11.7917 126.664L9.70155 126.898L7.6114 127.133L5.52218 127.367L3.432 127.601L3.66881 129.689L1.57863 129.923L-0.510561 130.157L-0.273639 132.246L-2.36382 132.48L-2.12701 134.568L-4.21719 134.802L-3.98027 136.891L-3.74334 138.979L-1.65316 138.745L-1.41635 140.833L-1.17943 142.921L0.910751 142.687L1.14767 144.776L3.23686 144.541L2.99994 142.453L5.09012 142.219L4.8532 140.13Z" fill="#5B63B3"/>
<path d="M134.247 142.491L136.335 142.257L136.098 140.17L135.862 138.083L133.773 138.317L134.01 140.404L134.247 142.491Z" fill="#5B63B3"/>
<path d="M69.8495 115.92L67.7598 116.154L67.9967 118.242L70.0864 118.007L69.8495 115.92Z" fill="#5B63B3"/>
<path d="M133.3 134.15L133.063 132.062L132.827 129.975L130.737 130.209L130.5 128.122L128.41 128.356L128.174 126.268L127.937 124.181L125.848 124.415L123.759 124.65L123.522 122.562L121.433 122.796L119.344 123.03L117.254 123.264L117.491 125.352L117.728 127.439L119.817 127.205L120.054 129.292L122.144 129.058L122.381 131.146L124.469 130.912L124.706 132.999L126.796 132.764L127.032 134.852L129.121 134.618L129.358 136.705L131.447 136.471L131.684 138.559L133.774 138.324L133.537 136.237L133.3 134.15Z" fill="#5B63B3"/>
<path d="M40.4149 155.158L38.3247 155.392L38.0878 153.304L35.9985 153.538L35.7617 151.45L33.6715 151.684L33.4346 149.596L33.1976 147.507L32.9608 145.419L30.8706 145.653L28.7814 145.888L26.6912 146.122L24.601 146.356L22.5117 146.59L20.4215 146.825L18.3323 147.059L18.5691 149.147L16.4789 149.381L14.3896 149.615L12.2994 149.849L10.2092 150.084L10.4462 152.172L8.35691 152.407L8.59383 154.495L6.50362 154.73L6.74043 156.817L6.97735 158.906L7.21427 160.995L9.30448 160.76L9.06756 158.672L11.1568 158.438L13.247 158.203L13.0101 156.115L15.1003 155.88L14.8635 153.792L16.9527 153.558L16.7158 151.47L18.806 151.235L20.8953 151.001L22.9855 150.767L25.0747 150.533L25.3116 152.621L25.5484 154.709L25.7854 156.798L26.0223 158.887L28.1125 158.652L28.3493 160.74L30.4395 160.506L32.5288 160.272L34.6189 160.037L36.7092 159.803L38.7984 159.569L40.8886 159.334L42.9788 159.1L42.742 157.012L40.6518 157.247L40.4149 155.158Z" fill="#5B63B3"/>
<path d="M156.8 154.754L154.71 154.988L154.473 152.9L152.384 153.134L150.294 153.368L148.204 153.602L146.115 153.837L145.879 151.748L143.789 151.983L143.552 149.895L141.463 150.13L141.226 148.041L140.989 145.954L138.899 146.188L138.662 144.1L136.572 144.334L136.809 146.423L137.046 148.51L137.283 150.598L139.373 150.364L139.61 152.451L139.847 154.539L141.937 154.305L142.173 156.393L144.262 156.159L146.352 155.925L146.589 158.012L148.678 157.778L150.768 157.544L152.858 157.309L154.947 157.075L157.037 156.841L159.127 156.607L158.89 154.52L156.8 154.754Z" fill="#5B63B3"/>
<path d="M73.8005 113.362L74.0373 115.45L76.1274 115.215L78.2166 114.981L80.3067 114.747L82.3968 114.513L84.486 114.279L86.5761 114.044L86.813 116.133L88.9022 115.899L90.9923 115.664L90.7554 113.576L92.8455 113.342L92.6087 111.254L90.5186 111.488L90.2817 109.4L88.1915 109.634L87.9547 107.547L85.8656 107.781L85.6286 105.692L85.3917 103.604L87.4809 103.37L89.571 103.135L91.6611 102.901L91.898 104.99L93.9872 104.756L96.0773 104.521L96.3142 106.61L98.4034 106.376L98.6402 108.463L98.8772 110.552L100.967 110.317L101.204 112.405L103.294 112.171L103.531 114.259L105.62 114.025L105.383 111.937L105.147 109.849L103.057 110.083L102.82 107.995L100.73 108.229L100.494 106.141L100.257 104.053L98.1665 104.287L97.9296 102.199L95.8404 102.433L93.7503 102.667L93.5135 100.58L91.4243 100.814L89.3342 101.048L87.2441 101.282L87.0071 99.1937L84.918 99.4278L82.8278 99.6621L83.0648 101.751L80.9756 101.985L78.8855 102.219L76.7954 102.453L77.0322 104.541L74.943 104.775L72.8529 105.009L73.0898 107.098L70.9997 107.332L71.2366 109.42L71.4735 111.508L73.5636 111.274L73.8005 113.362Z" fill="#5B63B3"/>
</g>
<defs>
<filter id="filter0_d_448_107095" x="-141.551" y="0.401855" width="407.658" height="280.794" filterUnits="userSpaceOnUse" color-interpolation-filters="sRGB">
<feFlood flood-opacity="0" result="BackgroundImageFix"/>
<feColorMatrix in="SourceAlpha" type="matrix" values="0 0 0 0 0 0 0 0 0 0 0 0 0 0 0 0 0 0 127 0" result="hardAlpha"/>
<feOffset dy="4"/>
<feGaussianBlur stdDeviation="50"/>
<feComposite in2="hardAlpha" operator="out"/>
<feColorMatrix type="matrix" values="0 0 0 0 0.298039 0 0 0 0 0.0705882 0 0 0 0 0.329412 0 0 0 1 0"/>
<feBlend mode="normal" in2="BackgroundImageFix" result="effect1_dropShadow_448_107095"/>
<feBlend mode="normal" in="SourceGraphic" in2="effect1_dropShadow_448_107095" result="shape"/>
</filter>
</defs>
</svg>
