<svg width="178" height="134" viewBox="0 0 178 134" fill="none" xmlns="http://www.w3.org/2000/svg">
<g filter="url(#filter0_f_448_103772)">
<path d="M116.879 51.9141H119.986V55.2654H116.879V51.9141Z" fill="#5B63B3"/>
<path d="M79.5939 58.6153V55.2654H82.7014H85.8076V51.9141H88.9151H92.0225V55.2654H95.13H98.2362V58.6153H101.344H104.451V61.9666H101.344V65.3179H98.2362V61.9666H95.13H92.0225V65.3179V68.6679H95.13V72.0192H98.2362V75.3705V78.7218V82.0731V85.423V88.7744V92.1257H95.13V95.477H92.0225H88.9151V98.8283H85.8076V95.477H82.7014H79.5939V92.1257V88.7744V85.423V82.0731H82.7014V78.7218H85.8076V75.3705V72.0192H82.7014H79.5939V75.3705H76.4864V72.0192V68.6679V65.3179V61.9666H79.5939V58.6153Z" fill="#5B63B3"/>
<path d="M67.1635 51.9142V48.5629V45.2115V41.8602H70.2697V38.5103V35.159V31.8077H73.3772V28.4564V25.1051H76.4847V21.7551H79.5922H82.6996V18.4038H85.8058H88.9133V15.0525H92.0208H95.1283V11.7012H98.2345H101.342H104.449V15.0525H107.557H110.663V18.4038H113.771H116.878V21.7551H119.986V25.1051H123.093V28.4564H126.199V31.8077H123.093V35.159H119.986H116.878H113.771V38.5103H110.663V41.8602H107.557H104.449H101.342H98.2345V38.5103H95.1283H92.0208H88.9133H85.8058H82.6996H79.5922V41.8602H76.4847H73.3772V45.2115V48.5629H70.2697V51.9142H67.1635Z" fill="#5B63B3"/>
<path d="M51.6281 72.0191H48.5206V75.3704V78.7217V82.0731H45.4131V85.423H42.3069V88.7743H39.1995V85.423V82.0731V78.7217H42.3069V75.3704V72.0191H45.4131V68.6678H48.5206H51.6281H54.7356V65.3179H57.8418V68.6678V72.0191H54.7356H51.6281Z" fill="#5B63B3"/>
<path d="M188.344 31.8072H185.236H182.129V28.4559H179.022H175.915V25.1046V21.7546H179.022V18.4033H182.129H185.236H188.344H191.451V21.7546H194.558H197.665V25.1046H200.773V28.4559H203.88V31.8072V35.1585H206.986V38.5098V41.8597V45.2111V48.5624V51.9137H210.094V55.265V58.6149H206.986H203.88H200.773V61.9662H197.665V58.6149V55.265V51.9137H200.773V48.5624H203.88V45.2111V41.8597H200.773H197.665H194.558V38.5098H191.451V35.1585H188.344V31.8072Z" fill="#5B63B3"/>
<path d="M151.056 28.4563V31.8076H147.95V35.1589V38.5102V41.8601V45.2115H144.843H141.735H138.628H135.522H132.414V48.5628H129.307H126.199H123.093V45.2115H119.986V41.8601H123.093H126.199V38.5102H129.307H132.414H135.522H138.628V41.8601H141.735H144.843V38.5102V35.1589H141.735V31.8076H144.843V28.4563H147.95V25.105H151.056H154.164H157.271V28.4563H154.164H151.056Z" fill="#5B63B3"/>
<path d="M104.449 112.232H107.557H110.663V115.582H113.771H116.878V112.232V108.881H113.771V105.529H110.663V102.178V98.828V95.4767V92.1254V88.7741V85.4228H113.771V82.0729H116.878V78.7215H119.986H123.093V75.3702H126.199H129.307H132.414V78.7215H135.522H138.628H141.735V75.3702V72.0189H138.628V68.6676V65.3177H141.735H144.843H147.95H151.057V61.9664H154.164V58.615H157.272H160.379V55.2651V51.9138V48.5625H157.272V45.2112H160.379H163.486V41.8599H166.593H169.7V45.2112H172.808H175.915H179.021V48.5625H175.915H172.808V51.9138V55.2651H175.915H179.021V58.615H182.129V61.9664H185.236V65.3177V68.6676V72.0189H188.344V75.3702V78.7215V82.0729V85.4228V88.7741H185.236V92.1254V95.4767H182.129V98.828H179.021H175.915V95.4767H172.808H169.7H166.593V98.828V102.178V105.529H169.7V108.881V112.232H166.593H163.486H160.379H157.272H154.164V108.881V105.529V102.178V98.828H157.272V95.4767V92.1254H160.379V88.7741H163.486V85.4228H166.593V82.0729H169.7H172.808V78.7215H175.915H179.021V75.3702V72.0189H175.915H172.808H169.7H166.593H163.486H160.379H157.272V75.3702H154.164V78.7215H151.057V82.0729H147.95V85.4228H144.843V88.7741H141.735V92.1254H138.628V95.4767V98.828V102.178V105.529H135.522V102.178H132.414H129.307H126.199H123.093V105.529V108.881H126.199H129.307V112.232H132.414V115.582V118.933H129.307H126.199H123.093H119.986H116.878H113.771H110.663H107.557H104.449H101.342H98.2345V115.582V112.232H101.342H104.449Z" fill="#5B63B3"/>
<path d="M42.3068 105.53H45.413V102.178V98.8283V95.477V92.1257H48.5205V88.7744H51.6279H54.7354H57.8416H60.9491H64.0566V92.1257H67.1641V95.477V98.8283V102.178H64.0566H60.9491H57.8416V105.53V108.881V112.232H60.9491H64.0566V115.582V118.933H60.9491H57.8416H54.7354H51.6279H48.5205H45.413H42.3068H39.1993V115.582V112.232V108.881H42.3068V105.53Z" fill="#5B63B3"/>
<path d="M23.6632 105.53V102.179H26.7707H29.8769H32.9844V105.53H29.8769V108.881V112.233H26.7707H23.6632H20.5558V108.881V105.53H23.6632Z" fill="#5B63B3"/>
<path d="M32.9843 98.8286H36.0918V102.18H32.9843V98.8286Z" fill="#5B63B3"/>
<path d="M36.0917 92.1255H39.1992V95.4768H36.0917V92.1255Z" fill="#5B63B3"/>
<path d="M76.4843 45.2117V48.563H73.3768V45.2117V41.8604H76.4843H79.5918V45.2117H76.4843Z" fill="#121A54"/>
<path d="M141.736 75.3708V78.7221H138.629V75.3708V72.0195H141.736V75.3708Z" fill="#121A54"/>
<path d="M138.629 68.6685V72.0198H135.523H132.415V68.6685H135.523H138.629Z" fill="#121A54"/>
<path d="M8.12711 125.636V122.285H11.2346H14.3421H17.4496H20.557V118.934V115.582V112.231H23.6645H26.772H29.8795V108.88V105.528H32.9869V102.177H36.0944H39.2019H42.3094V98.8258H45.4168V102.177V105.528H42.3094V108.88H39.2019V112.231V115.582V118.934H42.3094H45.4168H48.5243H51.6318H54.7393H57.8468H60.9543H64.0617V115.582V112.231H60.9543H57.8468V108.88V105.528V102.177H60.9543H64.0617H67.1692V98.8258V95.4745V92.1232H64.0617V88.7719V85.4205V82.0692H60.9543V78.7179H57.8468H54.7393H51.6318H48.5243V75.3666V72.0153H51.6318H54.7393H57.8468V68.664V65.3127H60.9543V61.9614H64.0617V58.61V55.2587H67.1692V51.9074H70.2767V48.5561H73.3842V51.9074V55.2587H70.2767V58.61V61.9614V65.3127H67.1692V68.664V72.0153V75.3666V78.7179H70.2767H73.3842H76.4917V75.3666H79.5991V72.0153H82.7066H85.8141V75.3666V78.7179H82.7066V82.0692H79.5991V85.4205V88.7719V92.1232V95.4745H82.7066H85.8141V98.8258H88.9216V95.4745H92.0291H95.1366V92.1232H98.244V88.7719V85.4205V82.0692V78.7179V75.3666V72.0153H95.1366V68.664H92.0291V65.3127V61.9614H95.1366H98.244V65.3127H101.352V61.9614H104.459V58.61V55.2587V51.9074H101.352V48.5561H98.244H95.1366V45.2048H92.0291H88.9216H85.8141V41.8535H82.7066H79.5991V38.5022H82.7066H85.8141H88.9216H92.0291H95.1366H98.244V41.8535H101.352H104.459H107.566H110.674V38.5022H113.781V35.1509H116.889H119.996H123.104V31.7995H126.211H129.319H132.426V35.1509H135.534H138.641H141.749H144.856V38.5022V41.8535H141.749H138.641V38.5022H135.534H132.426H129.319H126.211V41.8535H123.104H119.996V45.2048H123.104V48.5561H126.211H129.319H132.426V45.2048H135.534H138.641H141.749H144.856H147.964V48.5561H151.071H154.179V51.9074H151.071H147.964H144.856H141.749V55.2587H138.641H135.534V58.61H132.426V61.9614V65.3127V68.664H129.319H126.211H123.104H119.996H116.889H113.781H110.674H107.566V72.0153H104.459V75.3666H101.352V78.7179V82.0692V85.4205V88.7719V92.1232V95.4745V98.8258V102.177H104.459H107.566H110.674V105.528H113.781V108.88H116.889V112.231V115.582H113.781H110.674V112.231H107.566H104.459H101.352H98.244V115.582V118.934H101.352H104.459H107.566H110.674H113.781H116.889H119.996H123.104H126.211H129.319H132.426V115.582V112.231H129.319V108.88H126.211H123.104V105.528V102.177H126.211H129.319H132.426H135.534V105.528H138.641V102.177V98.8258V95.4745V92.1232H141.749V88.7719H144.856V85.4205H147.964V82.0692H151.071V78.7179H154.179V75.3666H157.286V72.0153H160.394H163.501V75.3666H160.394V78.7179H157.286V82.0692H154.179V85.4205H151.071V88.7719V92.1232H147.964V95.4745V98.8258V102.177V105.528V108.88V112.231H151.071H154.179H157.286H160.394H163.501H166.609H169.716V108.88V105.528H166.609V102.177V98.8258V95.4745H169.716H172.824H175.931V98.8258H179.039H182.146V95.4745H185.253V92.1232V88.7719H188.361V85.4205V82.0692V78.7179V75.3666V72.0153H185.253V68.664V65.3127V61.9614H182.146V58.61H179.039V55.2587H175.931H172.824V51.9074V48.5561H175.931H179.039V45.2048H175.931V41.8535V38.5022H172.824H169.716V35.1509H166.609H163.501H160.394H157.286H154.179H151.071H147.964V31.7995H151.071V28.4482H154.179H157.286H160.394H163.501H166.609H169.716H172.824H175.931H179.039H182.146V31.7995H185.253H188.361V35.1509H191.468V38.5022H194.576V41.8535H197.683H200.791H203.898V45.2048V48.5561H200.791V51.9074H197.683V55.2587V58.61V61.9614H200.791V58.61H203.898H207.006H210.113H213.221H216.328H219.436H222.543V61.9614H225.63V65.3127V68.664H222.523H219.415H216.308H213.2H210.093H206.985V72.0153H203.878H200.77V75.3666V78.7179V82.0692H203.878H206.985V85.4205V88.7719H203.878V92.1232H200.77V95.4745V98.8258V102.177V105.528V108.88H203.878V112.231H206.985V115.582H210.093H213.2V112.231H210.093V108.88V105.528V102.177H213.2H216.308H219.415V105.528H222.523V108.88H225.63H228.738V105.528H225.63V102.177V98.8258H228.738H231.845V102.177V105.528H234.953H238.06H241.168H244.275V108.88V112.231H241.168V115.582H238.06V118.934H241.168H244.275H247.383H250.49H253.598V122.285H256.705V125.636H259.812V128.988H256.705H253.598H250.49H247.383H244.275H241.168H238.06H234.953H231.845H228.738H225.63H222.523H219.415H216.308H213.2H210.093H206.985H203.878H200.77H197.663H194.555H191.448H188.34H185.233H182.125H179.018H175.911H172.803H169.696H166.588H163.481H160.373H157.266H154.158H151.051H147.943H144.836H141.728H138.621H135.513H132.406H129.298H126.191H123.083H119.976H116.868H113.761H110.653H107.546H104.438H101.331H98.2235H95.116H92.0086H88.9011H85.7936H82.6861H79.5786H76.4711H73.3637H70.2562H67.1487H64.0412H60.9337H57.8263H54.7188H51.6113H48.5038H45.3963H42.2889H39.1814H36.0739H32.9664H29.8589H26.7514H23.644H20.5365H17.429H14.3215H11.2141H8.1066H4.99911V125.636H8.12711ZM119.986 51.9143H116.879V55.2657H119.986V51.9143Z" fill="#121A54"/>
<path d="M60.9504 55.2656V51.9142V48.5629V45.2116V41.8603H64.0579V38.5104V35.159V31.8077H67.1654V28.4564V25.1051H70.2716V21.7552H73.379V18.4039H76.4865V15.0525H79.594V11.7012H82.7015H85.8077V8.35131H88.9152H92.0226H95.1301V5H98.2363H101.344H104.451H107.559H110.665V8.35131H113.772H116.88V11.7012H119.987V15.0525H123.095V18.4039H126.201V21.7552H129.309V25.1051H132.416V28.4564V31.8077H129.309H126.201V28.4564H123.095V25.1051H119.987V21.7552H116.88V18.4039H113.772H110.665V15.0525H107.559H104.451V11.7012H101.344H98.2363H95.1301V15.0525H92.0226H88.9152V18.4039H85.8077H82.7015V21.7552H79.594H76.4865V25.1051H73.379V28.4564V31.8077H70.2716V35.159V38.5104V41.8603H67.1654V45.2116V48.5629V51.9142V55.2656H64.0579V58.6155V61.9668H60.9504V58.6155V55.2656Z" fill="#92B5F5"/>
<path d="M104.45 72.0193H107.558V68.668H110.664H113.772H116.879H119.987H123.094H126.2H129.308H132.415V72.0193H135.523H138.629V75.3706V78.7219H135.523H132.415V75.3706H129.308H126.2H123.094V78.7219H119.987H116.879V82.0732H113.772V85.4231H110.664V88.7745V92.1258V95.4771V98.8284V102.178H107.558H104.45H101.343V98.8284V95.4771V92.1258V88.7745V85.4231V82.0732V78.7219V75.3706H104.45V72.0193Z" fill="#5B63B3"/>
<path d="M70.2715 61.9669V58.6155V55.2656H73.3789V51.9143V48.563H76.4864V45.2117H79.5939V41.8604H82.7014H85.8076V45.2117H88.9151H92.0225H95.13V48.563H98.2362H101.344V51.9143H104.451V55.2656V58.6155H101.344H98.2362V55.2656H95.13H92.0225V51.9143H88.9151H85.8076V55.2656H82.7014H79.5939V58.6155V61.9669H76.4864V65.3182V68.6681V72.0194V75.3707V78.722H73.3789H70.2715H67.1653V75.3707V72.0194V68.6681V65.3182H70.2715V61.9669Z" fill="#5B63B3"/>
<path d="M132.415 61.9669V58.6156H135.523V55.2657H138.629H141.736V51.9144H144.844H147.951H151.057H154.165V48.5631H151.057H147.951V45.2117V41.8604V38.5105V35.1592H151.057H154.165H157.272H160.38H163.487H166.594H169.701V38.5105H172.809H175.916V41.8604V45.2117H172.809H169.701V41.8604H166.594H163.487V45.2117H160.38H157.272V48.5631H160.38V51.9144V55.2657V58.6156H157.272H154.165V61.9669H151.057V65.3182H147.951H144.844H141.736H138.629V68.6682H135.523H132.415V65.3182V61.9669Z" fill="#5B63B3"/>
<path d="M132.416 31.8076H135.523V35.1589H132.416V31.8076Z" fill="#5B63B3"/>
<path d="M179.023 21.7551H175.917V25.1051V28.4564H172.81H169.702H166.595H163.488H160.381H157.274V25.1051H154.166H151.059H147.952V28.4564H144.845V31.8077H141.737V35.159H138.63V31.8077V28.4564H141.737V25.1051H144.845V21.7551H147.952H151.059V18.4038H154.166H157.274H160.381V21.7551H163.488V25.1051H166.595H169.702V21.7551H172.81V18.4038H175.917V15.0525H179.023V11.7012H182.131H185.238H188.346H191.453H194.559H197.667H200.774V15.0525H203.882V18.4038H206.988V21.7551H210.096V25.1051V28.4564H213.203V31.8077V35.159V38.5103V41.8602V45.2115V48.5629V51.9142V55.2655H216.311H219.418V58.6154H216.311H213.203H210.096V55.2655V51.9142H206.988V48.5629V45.2115V41.8602V38.5103V35.159H203.882V31.8077V28.4564H200.774V25.1051H197.667V21.7551H194.559H191.453V18.4038H188.346H185.238H182.131H179.023V21.7551Z" fill="#92B5F5"/>
<path d="M14.3409 118.933H17.4484V115.582V112.231H14.3409V108.88V105.528V102.177H17.4484V98.8256V95.4743H20.5559V92.123H23.6633H26.7708H29.8783H32.9858V88.7717V85.4204V82.0691V78.7177V75.3664V72.0151H36.0933V68.6638V65.3125H39.2007V61.9612H42.3082V58.6099H45.4157H48.5232H51.6306H54.7381V61.9612H57.8456H60.9531V65.3125H57.8456H54.7381V68.6638H51.6306H48.5232H45.4157V72.0151H42.3082V75.3664V78.7177H39.2007V82.0691V85.4204V88.7717H42.3082V85.4204H45.4157V82.0691H48.5232V78.7177H51.6306H54.7381H57.8456H60.9531V82.0691H64.0605V85.4204V88.7717H60.9531H57.8456H54.7381H51.6306H48.5232V92.123H45.4157V95.4743V98.8256H42.3082V102.177H39.2007H36.0933V98.8256H32.9858V102.177H29.8783H26.7708H23.6633V105.528H20.5559V108.88V112.231V115.582V118.933V122.285H17.4484H14.3409H11.2334V118.933H14.3409ZM39.1995 95.4771V92.1258H36.092V95.4771H39.1995Z" fill="#92B5F5"/>
<path d="M151.059 88.7747V85.4234H154.166V82.0735H157.274V78.7221H160.381V75.3708H163.489V72.0195H166.595H169.702H172.81H175.917H179.023V75.3708V78.7221H175.917H172.81V82.0735H169.702H166.595V85.4234H163.489V88.7747H160.381V92.126H157.274V95.4773V98.8286H154.166V102.179V105.53V108.881V112.232H151.059H147.952V108.881V105.53V102.179V98.8286V95.4773V92.126H151.059V88.7747Z" fill="#5B63B3"/>
</g>
<defs>
<filter id="filter0_f_448_103772" x="0" y="0" width="264.812" height="133.988" filterUnits="userSpaceOnUse" color-interpolation-filters="sRGB">
<feFlood flood-opacity="0" result="BackgroundImageFix"/>
<feBlend mode="normal" in="SourceGraphic" in2="BackgroundImageFix" result="shape"/>
<feGaussianBlur stdDeviation="2.5" result="effect1_foregroundBlur_448_103772"/>
</filter>
</defs>
</svg>
