<svg width="108" height="56" viewBox="0 0 108 56" fill="none" xmlns="http://www.w3.org/2000/svg">
<g filter="url(#filter0_f_448_103740)">
<path d="M168.801 41.0949V39.1955V37.296V35.3957H167.147V33.4962H165.492V31.5959H163.838H162.183H160.528H158.874H157.22V29.6964V27.797H155.565V25.8967V23.9972V22.0977V20.1974V18.298V16.3985H153.91V14.499V12.5987V10.6993H152.256V8.79979H150.602V6.89947H148.947H147.292H145.637V5H143.983H142.329H140.674V6.89947H139.019H137.365H135.711V8.79979H134.056V10.6993H132.401H130.747V12.5987H129.092V14.499H127.438V16.3985V18.298H125.783V20.1974V22.0977H124.128V23.9972H122.474V22.0977V20.1974H120.82V18.298H119.165V16.3985H117.51H115.856V14.499H114.201H112.547H110.892H109.237H107.583H105.929H104.274H102.619V16.3985H100.965H99.3099V18.298H97.6555H96.0012V20.1974H94.3462V22.0977H92.6919V23.9972H91.0376V25.8967H89.3825H87.7282H86.0739H84.4188H82.7645H81.1102V27.797H79.4551V29.6964H77.8008V31.5959H76.1465V33.4962H77.8008H79.4551H81.1102V31.5959H82.7645H84.4188V29.6964H86.0739H87.7282H89.3825H91.0376H92.6919H94.3462V31.5959H96.0012H97.6555H99.3099V29.6964V27.797H97.6555V25.8967H96.0012V23.9972H97.6555V22.0977H99.3099V20.1974H100.965H102.619V18.298H104.274H105.929H107.583H109.237V20.1974H110.892H112.547H114.201H115.856H117.51V22.0977H119.165V23.9972V25.8967H120.82V27.797H122.474H124.128H125.783V25.8967H127.438V23.9972H129.092V22.0977V20.1974H130.747V18.298H132.401V16.3985H134.056V14.499H135.711V12.5987H137.365V10.6993H139.019H140.674V8.79979H142.329H143.983H145.637V10.6993H147.292H148.947V12.5987H150.602V14.499V16.3985H152.256V18.298V20.1974V22.0977H153.91V23.9972V25.8967V27.797V29.6964H155.565V31.5959V33.4962H157.22H158.874V35.3957H160.528H162.183H163.838V37.296H165.492V39.1955H167.147V41.0949H168.801Z" fill="#92B5F5"/>
<path d="M6.6543 44.895V46.7945H8.30861H9.96367V44.895H8.30861H6.6543Z" fill="#92B5F5"/>
<path d="M76.1466 27.7969H74.4915V25.8966V23.9971H72.8372V22.0977H71.1829H69.5286H67.8735H66.2192H64.5641H62.9098H61.2555H59.6004H57.9461H56.2918V23.9971H54.6368H52.9824V25.8966H51.3281H49.6738V27.7969V29.6964H51.3281V27.7969H52.9824H54.6368V25.8966H56.2918H57.9461H59.6004H61.2555H62.9098V23.9971H64.5641H66.2192V25.8966H67.8735H69.5286V27.7969H71.1829V29.6964H72.8372V31.5958H74.4915H76.1466V29.6964V27.7969Z" fill="#92B5F5"/>
<path d="M46.363 29.6963H44.7087H43.0536H41.3993V31.5958H39.7443H38.0899V29.6963H36.4356V27.7969H34.7813V25.8965H33.1263H31.472H29.8176V23.9971H28.1626H26.5083H24.854H23.1989H21.5446V25.8965H19.8903H18.2352V27.7969H16.5809H14.9266V29.6963H13.2715V31.5958V33.4961H11.6172V35.3956V37.2959H9.96289V39.1954V41.0948V42.9943V44.8946H11.6172V42.9943H13.2715V41.0948V39.1954H14.9266V37.2959V35.3956H16.5809V33.4961H18.2352V31.5958H19.8903V29.6963H21.5446H23.1989V27.7969H24.854H26.5083H28.1626V29.6963H29.8176H31.472V31.5958H33.1263H34.7813V33.4961H36.4356H38.0899H39.7443H41.3993H43.0536H44.7087H46.363H48.0173V31.5958H49.6724V29.6963H48.0173H46.363Z" fill="#92B5F5"/>
<path d="M34.7817 35.396H33.1266H31.4723H29.818H28.1629H26.5086H24.8543H23.1992H21.5449V37.2963V39.1958H23.1992H24.8543H26.5086H28.1629H29.818V41.0953H31.4723V42.9947V44.895H33.1266H34.7817V42.9947H36.436V41.0953V39.1958V37.2963H34.7817V35.396Z" fill="#92B5F5"/>
<path d="M72.8372 35.3955H71.1828V33.496H69.5285V31.5957H67.8735H66.2192H64.5641H62.9098H61.2555H59.6004H57.9461H56.2918H54.6367V33.496V35.3955H56.2918H57.9461H59.6004H61.2555H62.9098H64.5641H66.2192V37.2958H67.8735V39.1953H69.5285V41.0947H71.1828V42.9942V44.8945H72.8372H74.4915V42.9942V41.0947V39.1953V37.2958H72.8372V35.3955Z" fill="#92B5F5"/>
<path d="M100.965 35.3955H99.3102V33.4961H97.6559H96.0016H94.3465H92.6922H91.0379H89.3828V35.3955V37.2959H91.0379H92.6922H94.3465H96.0016V39.1953H97.6559V41.0948H99.3102H100.965H102.62V39.1953V37.2959H100.965V35.3955Z" fill="#92B5F5"/>
<path d="M167.147 46.7941H165.492H163.837H162.183H160.528V44.8947V42.9943H162.183V41.0949V39.1954H160.528H158.874V37.296V35.3956H157.219V33.4962H155.565V31.5959V29.6964H153.91H152.256H150.601V31.5959V33.4962H152.256V35.3956V37.296V39.1954V41.0949V42.9943H150.601H148.946V44.8947H147.292H145.637H143.982H142.328V42.9943H140.674H139.019V41.0949V39.1954V37.296V35.3956H140.674H142.328V33.4962H143.982V31.5959H142.328H140.674H139.019V33.4962H137.365H135.71V35.3956H134.055V33.4962H132.401V31.5959H130.746V29.6964V27.7969H132.401V25.8966V23.9971H134.055V22.0977H135.71V20.1974H137.365H139.019V18.2979H140.674H142.328V16.3984H140.674H139.019H137.365H135.71V18.2979H134.055H132.401H130.746V20.1974H129.091V22.0977V23.9971H127.437V25.8966H125.783V27.7969V29.6964H124.128H122.473V31.5959V33.4962H124.128H125.783V35.3956H127.437V37.296H129.091H130.746V39.1954V41.0949V42.9943H129.091H127.437H125.783V44.8947H124.128H122.473H120.819H119.164V46.7941H117.51H115.855H114.2V44.8947H112.546H110.892H109.237H107.582V42.9943H105.928V41.0949V39.1954H107.582H109.237V37.296V35.3956H110.892H112.546V33.4962H110.892V31.5959H109.237H107.582V33.4962H105.928V31.5959V29.6964H104.273V27.7969H102.619V25.8966H100.964H99.3093H97.655V27.7969H99.3093V29.6964V31.5959V33.4962V35.3956H100.964V37.296H102.619V39.1954V41.0949H100.964H99.3093V42.9943H97.655H96.0007H94.3456V44.8947H92.6913H91.037H89.3819H87.7276H86.0733H84.4183H82.7639H81.1096H79.4546V42.9943H81.1096V41.0949H82.7639H84.4183V39.1954V37.296H82.7639H81.1096H79.4546H77.8002V35.3956V33.4962H76.1459V31.5959H74.4909H72.8366V29.6964H71.1823V27.7969H69.5279H67.8729V29.6964V31.5959H69.5279H71.1823V33.4962V35.3956H72.8366V37.296H74.4909V39.1954V41.0949V42.9943V44.8947H72.8366H71.1823H69.5279H67.8729H66.2186H64.5635H62.9092V46.7941H61.2549H59.5998H57.9455H56.2912H54.6361H52.9818H51.3275H49.6732V44.8947H48.0181V42.9943H49.6732V41.0949V39.1954H51.3275V37.296H52.9818V35.3956H54.6361V33.4962V31.5959H52.9818H51.3275H49.6732H48.0181V33.4962H46.3638V35.3956H44.7095V37.296H43.0544V35.3956H41.4001V33.4962H39.7451H38.0907H36.4364H34.7821V31.5959H33.1271H31.4727H29.8184V33.4962V35.3956H31.4727H33.1271H34.7821V37.296H36.4364V39.1954V41.0949V42.9943H34.7821V44.8947H33.1271V46.7941H31.4727H29.8184H28.1634H26.5091V48.6936H24.8548H23.1997H21.5454H19.8911H18.236H16.5817H14.9274H13.2723H11.618H9.96369H8.30862H6.65431H5V50.5939H6.65431H8.30862H9.96369H11.618H13.2723H14.9274H16.5817H18.236H19.8911H21.5454H23.1997H24.8548H26.5091H28.1634H29.8184H31.4727H33.1271H34.7821H36.4364H38.0907H39.7451H41.4001H43.0544H44.7095H46.3638H48.0181H49.6732H51.3275H52.9818H54.6361H56.2912H57.9455H59.5998H61.2549H62.9092H64.5635H66.2186H67.8729H69.5279H71.1823H72.8366H74.4909H76.1459H77.8002H79.4546H81.1096H82.7639H84.4183H86.0733H87.7276H89.3819H91.037H92.6913H94.3456H96.0007H97.655H99.3093H100.964H102.619H104.273H105.928H107.582H109.237H110.892H112.546H114.2H115.855H117.51H119.164H120.819H122.473H124.128H125.783H127.437H129.091H130.746H132.401H134.055H135.71H137.365H139.019H140.674H142.328H143.982H145.637H147.292H148.946H150.601H152.256H153.91H155.565H157.219H158.874H160.528H162.183H163.837H165.492H167.147H168.801V48.6936V46.7941H167.147Z" fill="#121A54"/>
<path d="M31.4727 42.9943V41.0948H29.8184V39.1954H28.1634H26.5091H24.8547H23.1997H21.5454V37.2959V35.3956H23.1997H24.8547H26.5091H28.1634H29.8184V33.4961V31.5958H31.4727V29.6963H29.8184H28.1634V27.7969H26.5091H24.8547H23.1997V29.6963H21.5454H19.8911V31.5958H18.236V33.4961H16.5817V35.3956H14.9274V37.2959V39.1954H13.2723V41.0948V42.9943H11.618V44.8946H9.96369V46.7941H8.30862H6.65431H5V48.6935H6.65431H8.30862H9.96369H11.618H13.2723H14.9274H16.5817H18.236H19.8911H21.5454H23.1997H24.8547H26.5091V46.7941H28.1634H29.8184H31.4727H33.1271V44.8946H31.4727V42.9943Z" fill="#5B63B3"/>
<path d="M69.5274 39.1958H67.8723V37.2963H66.218V35.396H64.563H62.9086H61.2543H59.5993H57.945H56.2906H54.6356H52.9813V37.2963H51.327V39.1958H49.6726V41.0953V42.9947H48.0176V44.895H49.6726V46.7945H51.327H52.9813H54.6356H56.2906H57.945H59.5993H61.2543H62.9086V44.895H64.563H66.218H67.8723H69.5274H71.1817V42.9947V41.0953H69.5274V39.1958Z" fill="#5B63B3"/>
<path d="M124.127 39.1954H122.473H120.819V37.2959H119.164H117.509H115.855H114.2H112.546V39.1954H110.891H109.236H107.582H105.928V41.0948V42.9943H107.582V44.8946H109.236H110.891H112.546H114.2V46.7941H115.855H117.509H119.164V44.8946H120.819H122.473H124.127H125.782V42.9943V41.0948H124.127V39.1954Z" fill="#5B63B3"/>
<path d="M52.9824 31.5963H54.6368H56.2918H57.9461H59.6004H61.2555H62.9098H64.5641H66.2192H67.8735V29.6968V27.7973H69.5286V25.897H67.8735H66.2192V23.9976H64.5641H62.9098V25.897H61.2555H59.6004H57.9461H56.2918H54.6368V27.7973H52.9824H51.3281V29.6968H49.6738V31.5963H51.3281H52.9824Z" fill="#5B63B3"/>
<path d="M122.473 27.7974H120.818V25.897H119.163V23.9976V22.0981H117.509V20.1978H115.855H114.2H112.545H110.891H109.236V18.2983H107.582H105.927H104.272H102.618V20.1978H100.964H99.3086V22.0981H97.6543V23.9976H96V25.897H97.6543H99.3086H100.964H102.618V27.7974H104.272V29.6968H105.927V31.5963V33.4966H107.582V31.5963H109.236H110.891V33.4966H112.545H114.2H115.855H117.509H119.163H120.818H122.473V31.5963V29.6968H124.127H125.782V27.7974H124.127H122.473Z" fill="#5B63B3"/>
<path d="M71.1817 31.5957H69.5273V33.4952H71.1817V31.5957Z" fill="#5B63B3"/>
<path d="M96.0012 31.5958H94.3462V29.6963H92.6918H91.0375H89.3825H87.7282H86.0738H84.4188V31.5958H82.7645H81.1102V33.4961H79.4551H77.8008V35.3955V37.2959H79.4551H81.1102H82.7645H84.4188V39.1953V41.0948H82.7645H81.1102V42.9942H79.4551V44.8946H81.1102H82.7645H84.4188H86.0738H87.7282H89.3825H91.0375H92.6918H94.3462V42.9942H96.0012H97.6555H99.3098V41.0948H97.6555V39.1953H96.0012V37.2959H94.3462H92.6918H91.0375H89.3825V35.3955V33.4961H91.0375H92.6918H94.3462H96.0012H97.6555H99.3098V31.5958H97.6555H96.0012Z" fill="#5B63B3"/>
<path d="M43.0547 33.4966H41.4004V35.396H43.0547V37.2964H44.7098V35.396H46.3641V33.4966H44.7098H43.0547Z" fill="#5B63B3"/>
</g>
<defs>
<filter id="filter0_f_448_103740" x="0" y="0" width="175.455" height="55.5942" filterUnits="userSpaceOnUse" color-interpolation-filters="sRGB">
<feFlood flood-opacity="0" result="BackgroundImageFix"/>
<feBlend mode="normal" in="SourceGraphic" in2="BackgroundImageFix" result="shape"/>
<feGaussianBlur stdDeviation="2.5" result="effect1_foregroundBlur_448_103740"/>
</filter>
</defs>
</svg>
