<svg width="158" height="104" viewBox="0 0 158 104" fill="none" xmlns="http://www.w3.org/2000/svg">
<g filter="url(#filter0_f_448_103805)">
<path d="M71.5131 38.5986H73.9746V41.1989H71.5131V38.5986Z" fill="#121A54"/>
<path d="M88.742 35.998H86.2814H83.8199H81.3594H78.8979V38.5983H76.4373H73.9758V35.998H71.5152V33.3987H69.0537V30.7984H66.5932V28.1992H64.1316H61.6711V25.5988V22.9985H64.1316H66.5932H69.0537H71.5152H73.9758V25.5988H76.4373H78.8979V28.1992H81.3594V30.7984V33.3987H83.8199V30.7984H86.2814H88.742H91.2035H93.6641V33.3987V35.998H91.2035H88.742Z" fill="#121A54"/>
<path d="M-51.5381 64.5963H-49.0775H-46.616H-44.1545V61.996H-41.6939H-39.2334H-36.7719H-34.3113H-31.8498V59.3967V56.7964H-29.3893V54.1972H-26.9277V51.5968H-24.4662V48.9976H-22.0057H-19.5441V46.3973H-17.0836H-14.622V48.9976V51.5968H-17.0836V54.1972H-19.5441H-22.0057V56.7964V59.3967H-19.5441H-17.0836V56.7964H-14.622H-12.1615H-9.69998H-7.23944V54.1972H-4.77791H-2.31738H0.14415V56.7964H2.60471V59.3967H5.06624H7.52678V56.7964H5.06624V54.1972V51.5968H2.60471V48.9976V46.3973H0.14415V43.7969V41.1977H2.60471H5.06624H7.52678V43.7969H9.9883H12.4488V41.1977H14.9104H17.3709H19.8324V43.7969V46.3973H17.3709V48.9976H14.9104V51.5968V54.1972H12.4488V56.7964V59.3967H14.9104V61.996H17.3709V64.5963V67.1956H19.8324V69.7959H22.293H24.7545V72.3952H27.215H29.6766V69.7959H32.1371V67.1956V64.5963H29.6766V61.996H27.215H24.7545H22.293V59.3967V56.7964H24.7545H27.215H29.6766H32.1371H34.5986V54.1972H37.0592V51.5968V48.9976V46.3973V43.7969V41.1977V38.5984V35.9981H39.5207V33.3988H41.9813V30.7985H44.4428V28.1992H46.9043H49.3649V30.7985H46.9043V33.3988H44.4428V35.9981H41.9813V38.5984V41.1977V43.7969V46.3973V48.9976V51.5968V54.1972V56.7964H39.5207V59.3967V61.996V64.5963V67.1956V69.7959H41.9813V72.3952H44.4428V74.9955H46.9043H49.3649V77.5948H51.8254V74.9955H54.2869V72.3952H51.8254H49.3649H46.9043V69.7959V67.1956H49.3649V64.5963H51.8254H54.2869H56.7484V67.1956H59.209H61.6705V64.5963H64.1311V61.996H66.5926V59.3967V56.7964V54.1972V51.5968V48.9976H64.1311V46.3973H61.6705H59.209V43.7969H61.6705H64.1311H66.5926H69.0531H71.5147V46.3973V48.9976H73.9752V51.5968V54.1972H76.4367V56.7964V59.3967V61.996V64.5963H73.9752H71.5147V67.1956V69.7959H69.0531V72.3952V74.9955V77.5948V80.1951H71.5147V82.7944H73.9752H76.4367H78.8973H81.3588V80.1951H83.8193V77.5948V74.9955H81.3588V72.3952V69.7959H83.8193H86.2809H88.7414V72.3952V74.9955H91.2029V77.5948H93.6635V80.1951H96.125V82.7944H98.5856H101.047H103.508H105.969H108.43H110.891H113.352V80.1951V77.5948V74.9955H110.891V72.3952H108.43V69.7959V67.1956H110.891V64.5963V61.996V59.3967H108.43V56.7964H105.969H103.508V54.1972V51.5968H101.047V48.9976H103.508H105.969H108.43V51.5968H110.891V54.1972H113.352V56.7964H115.813V59.3967H118.274V61.996V64.5963V67.1956V69.7959H120.735V72.3952H123.197V74.9955V77.5948V80.1951H125.657H128.118H130.579H133.041V82.7944H135.502V85.3947H137.963V87.9939H140.424H142.885V90.5942H145.346V93.1935H142.885H140.424H137.963H135.502H133.041V90.5942H130.579V87.9939H128.118H125.657H123.197H120.735H118.274H115.813V90.5942H113.352H110.891H108.43V93.1935H105.969H103.508H101.047H98.5856V90.5942H96.125H93.6635V87.9939H91.2029V85.3947H88.7414V82.7944H86.2809V85.3947H83.8193V87.9939H81.3588H78.8973V90.5942H76.4367H73.9752H71.5147H69.0531V87.9939H66.5926H64.1311H61.6705V85.3947H59.209V82.7944H56.7484H54.2869V85.3947H51.8254H49.3649H46.9043V87.9939H44.4428H41.9813H39.5207H37.0592V85.3947H34.5986H32.1371H29.6766V82.7944H27.215V80.1951H24.7545V77.5948H22.293H19.8324H17.3709H14.9104H12.4488H9.9883V74.9955H7.52678H5.06624H2.60471V72.3952H0.14415H-2.31738H-4.77791V69.7959H-7.23944V67.1956H-9.69998H-12.1615H-14.622V64.5963H-17.0836H-19.5441V67.1956H-22.0057H-24.4662H-26.9277H-29.3893V69.7959H-31.8498H-34.3113H-36.7719V72.3952H-39.2334H-41.6939H-44.1545H-46.616V69.7959H-49.0775H-51.5381V67.1956H-53.9996V64.5963H-51.5381Z" fill="#121A54"/>
<path d="M113.352 54.1971H110.891V51.5968H108.43V48.9975H105.969H103.508H101.047V46.3972V43.7969H98.5855H96.125V41.1976H93.6635V38.5984H91.2029V35.9981H93.6635V33.3988V30.7985H91.2029H88.7414H86.2809H83.8193V33.3988H81.3588V30.7985V28.1992H78.8973V25.5989H76.4367H73.9752V22.9986H71.5146H69.0531H66.5926H64.1311H61.6705V20.3993H64.1311V17.799H66.5926H69.0531V15.1997H71.5146H73.9752H76.4367H78.8973H81.3588H83.8193V17.799H86.2809H88.7414V20.3993H91.2029H93.6635V22.9986H96.125V25.5989H98.5855V28.1992H96.125V30.7985V33.3988H98.5855V35.9981H101.047V38.5984H103.508V41.1976V43.7969H105.969H108.43V46.3972H110.891H113.352V48.9975H115.813V51.5968V54.1971H118.274V56.7964H120.735V59.3967V61.996V64.5963H123.197V67.1956V69.7959H125.657V72.3952V74.9955H128.118H130.579H133.041V77.5947V80.195H130.579H128.118H125.657H123.197V77.5947V74.9955V72.3952H120.735V69.7959H118.274V67.1956V64.5963V61.996V59.3967H115.813V56.7964H113.352V54.1971Z" fill="#5B63B3"/>
<path d="M17.3697 56.7966H19.8313V54.1974V51.5971H22.2918V48.9978H24.7533V46.3975V43.7972H27.2139H29.6754V41.1979V38.5986H27.2139V35.9983H29.6754V33.399V30.7987H32.1359V28.1994H34.5975V25.5991H37.058H39.5195H41.9801H44.4416H46.9031H49.3637H51.8242V28.1994H49.3637H46.9031H44.4416V30.7987H41.9801V33.399H39.5195V35.9983H37.058V38.5986V41.1979V43.7972V46.3975V48.9978V51.5971V54.1974H34.5975V56.7966H32.1359H29.6754H27.2139H24.7533H22.2918V59.397V61.9962H24.7533H27.2139H29.6754V64.5965H32.1359V67.1958V69.7961H29.6754V72.3954H27.2139H24.7533V69.7961H22.2918H19.8313V67.1958H17.3697V64.5965V61.9962H14.9092V59.397H17.3697V56.7966Z" fill="#5B63B3"/>
<path d="M73.975 69.7963H76.4355H78.8971V67.197V64.5967H76.4355V61.9964V59.3961V56.7968V54.1975H73.975V51.5972V48.9979H76.4355V46.3987H78.8971H81.3576V43.7983H83.8191H86.2807H88.7412V46.3987H91.2027V48.9979H93.6633V51.5972H96.1248V54.1975H98.5854V56.7968V59.3961V61.9964H101.046H103.507V64.5967H105.969V67.197H108.429V69.7963V72.3955H110.89V74.9959H113.352V77.5951V80.1954V82.7957H110.89H108.429H105.969H103.507H101.046H98.5854H96.1248V80.1954H93.6633V77.5951H91.2027V74.9959H88.7412V72.3955V69.7963H86.2807H83.8191H81.3576V72.3955V74.9959H83.8191V77.5951V80.1954H81.3576V82.7957H78.8971H76.4355H73.975H71.5135V80.1954H69.0529V77.5951V74.9959V72.3955V69.7963H71.5135H73.975ZM83.8191 67.196H86.2807H88.7412H91.2027V69.7952H93.6633H96.1248V72.3945H98.5854H101.046V69.7952V67.196H98.5854V64.5956H96.1248H93.6633V61.9953H91.2027H88.7412H86.2807H83.8191H81.3576V64.5956V67.196H83.8191Z" fill="#5B63B3"/>
<path d="M44.442 64.5962V61.9959V59.3966H46.9035V56.7963H49.3641V54.197H51.8246H54.2861H56.7477V51.5967H59.2082H61.6697V54.197H64.1303H66.5918V56.7963V59.3966V61.9959H64.1303V64.5962H61.6697V67.1954H59.2082H56.7477V64.5962H54.2861H51.8246H49.3641V67.1954H46.9035V69.7957V72.395H49.3641H51.8246H54.2861V74.9953H51.8246V77.5946H49.3641V74.9953H46.9035H44.442V72.395H41.9805V69.7957H39.5199V67.1954V64.5962H41.9805H44.442Z" fill="#5B63B3"/>
<path d="M-17.0838 54.1973V51.597H-14.6223V48.9977V46.3974H-12.1617H-9.7002H-7.23965H-4.77812V43.7971V41.1978V38.5985V35.9982H-2.31759V33.3989H0.143938H2.60449H5.06602H7.52655H9.98808H12.4486V35.9982H14.9102V38.5985V41.1978H12.4486V43.7971H9.98808H7.52655V41.1978H5.06602H2.60449H0.143938V43.7971V46.3974H2.60449V48.9977V51.597H5.06602V54.1973V56.7965H7.52655V59.3969H5.06602H2.60449V56.7965H0.143938V54.1973H-2.31759H-4.77812H-7.23965V56.7965H-9.7002H-12.1617H-14.6223H-17.0838V59.3969H-19.5443H-22.0059V56.7965V54.1973H-19.5443H-17.0838Z" fill="#5B63B3"/>
<path d="M64.1305 43.7972H61.6699H59.2084V46.3975H56.7479H54.2863V48.9978H51.8248H49.3643H46.9037V46.3975V43.7972V41.1979H49.3643V38.5986V35.9983H51.8248V33.399H54.2863H56.7479V30.7987V28.1994H59.2084V25.5991H61.6699V28.1994H64.1305H66.592V30.7987H69.0525V33.399H71.5141V35.9983H73.9746V38.5986H71.5141V41.1979V43.7972H69.0525H66.592H64.1305Z" fill="#5B63B3"/>
<path d="M133.038 80.1953H135.5V82.7956H133.038V80.1953Z" fill="#5B63B3"/>
<path d="M147.807 87.9941V90.5945H145.345H142.885V87.9941H145.345H147.807Z" fill="#5B63B3"/>
<path d="M76.4359 64.5962H78.8965V67.1955V69.7958H76.4359H73.9744H71.5139V67.1955V64.5962H73.9744H76.4359Z" fill="#92B5F5"/>
<path d="M86.2807 61.9961H88.7412H91.2027H93.6633V64.5964H96.1248H98.5853V67.1957H101.047V69.796V72.3953H98.5853H96.1248V69.796H93.6633H91.2027V67.1957H88.7412H86.2807H83.8191H81.3586V64.5964V61.9961H83.8191H86.2807Z" fill="#92B5F5"/>
<path d="M0.142982 30.7983V28.199H2.60353H5.06506H7.5256H9.98713H12.4477V30.7983H14.9092H17.3697V33.3986H19.8313V35.9979V38.5982H22.2918V35.9979V33.3986V30.7983H24.7533V28.199H27.2139V25.5987V22.9984H29.6754H32.1359V20.3991H34.5975V17.7988H37.058H39.5195H41.9801V20.3991H44.4416H46.9031V22.9984H49.3637H51.8242V25.5987H49.3637H46.9031H44.4416H41.9801H39.5195H37.058H34.5975V28.199H32.1359V30.7983H29.6754V33.3986V35.9979H27.2139V38.5982H29.6754V41.1975V43.7968H27.2139H24.7533V46.3971V48.9974H22.2918V51.5967H19.8313V54.197V56.7962H17.3697V59.3966H14.9092H12.4477V56.7962V54.197H14.9092V51.5967V48.9974H17.3697V46.3971H19.8313V43.7968V41.1975H17.3697H14.9092V38.5982V35.9979H12.4477V33.3986H9.98713H7.5256H5.06506H2.60353H0.142982H-2.31854V30.7983H0.142982Z" fill="#92B5F5"/>
<path d="M56.7469 25.5988V22.9984V20.3992H59.2074V17.7989V15.1996H61.669V12.5993H64.1295H66.591V10H69.0516H71.5131H73.9736H76.4352H78.8957H81.3572H83.8178H86.2793H88.7398V12.5993H91.2014H93.6619V15.1996H96.1234H98.584V17.7989H101.046V20.3992V22.9984H103.506V25.5988H105.968V28.1991V30.7983V33.3987V35.9979H108.428H110.89V38.5982H113.35H115.812V41.1975H118.272V43.7968H120.734V46.3971H123.195V48.9974V51.5967H125.656V54.197V56.7963V59.3966V61.9959V64.5962H128.116H130.578V67.1955H133.039V69.7958V72.395H135.5V74.9954V77.5946V80.1949H133.039V77.5946V74.9954H130.578H128.116H125.656V72.395V69.7958H123.195V67.1955V64.5962H120.734V61.9959V59.3966V56.7963H118.272V54.197H115.812V51.5967V48.9974H113.35V46.3971H110.89H108.428V43.7968H105.968H103.506V41.1975V38.5982H101.046V35.9979H98.584V33.3987H96.1234V30.7983V28.1991H98.584V25.5988H96.1234V22.9984H93.6619V20.3992H91.2014H88.7398V17.7989H86.2793H83.8178V15.1996H81.3572H78.8957H76.4352H73.9736H71.5131H69.0516V17.7989H66.591H64.1295V20.3992H61.669V22.9984V25.5988H59.2074V28.1991H56.7469V30.7983V33.3987H54.2854H51.8238V35.9979H49.3633V38.5982V41.1975H46.9027V43.7968V46.3971V48.9974H49.3633H51.8238H54.2854V46.3971H56.7469H59.2074H61.669H64.1295V48.9974H66.591V51.5967V54.197H64.1295H61.669V51.5967H59.2074H56.7469V54.197H54.2854H51.8238H49.3633V56.7963H46.9027V59.3966H44.4412V61.9959V64.5962H41.9797H39.5192V61.9959V59.3966V56.7963H41.9797V54.197V51.5967V48.9974V46.3971V43.7968V41.1975V38.5982V35.9979H44.4412V33.3987H46.9027V30.7983H49.3633V28.1991H51.8238V25.5988H54.2854H56.7469Z" fill="#92B5F5"/>
<path d="M73.9746 38.5984H76.4361H78.8967V35.998H81.3582H83.8187H86.2803H88.7408H91.2023V38.5984H93.6629V41.1976H96.1244V43.7969H98.585H101.046V46.3972V48.9975V51.5968H103.507V54.1971V56.7964H105.969H108.429V59.3967H110.891V61.996V64.5963V67.1956H108.429H105.969V64.5963H103.507V61.996H101.046H98.585V59.3967V56.7964V54.1971H96.1244V51.5968H93.6629V48.9975H91.2023V46.3972H88.7408V43.7969H86.2803H83.8187H81.3582V46.3972H78.8967H76.4361V48.9975H73.9746H71.5141V46.3972V43.7969V41.1976H73.9746V38.5984Z" fill="#92B5F5"/>
<path d="M140.423 80.1948H142.885V82.7941H145.345H147.807V85.3944V87.9937H145.345H142.885H140.423H137.963V85.3944H135.501V82.7941V80.1948H137.963H140.423Z" fill="#92B5F5"/>
</g>
<defs>
<filter id="filter0_f_448_103805" x="-64" y="0" width="221.807" height="103.193" filterUnits="userSpaceOnUse" color-interpolation-filters="sRGB">
<feFlood flood-opacity="0" result="BackgroundImageFix"/>
<feBlend mode="normal" in="SourceGraphic" in2="BackgroundImageFix" result="shape"/>
<feGaussianBlur stdDeviation="5" result="effect1_foregroundBlur_448_103805"/>
</filter>
</defs>
</svg>
