<svg width="160" height="126" viewBox="0 0 160 126" fill="none" xmlns="http://www.w3.org/2000/svg">
<g style="mix-blend-mode:color-dodge" filter="url(#filter0_d_448_20935)">
<path d="M101.858 68.5934L103.748 66.9019L106.102 69.5324L104.212 71.224L101.858 68.5934Z" fill="#4D4A6F"/>
<path d="M103.748 66.9015L105.639 65.21L107.993 67.8406L106.102 69.5321L103.748 66.9015Z" fill="#544C75"/>
<path d="M105.639 65.2101L107.529 63.5186L109.883 66.1491L107.993 67.8407L105.639 65.2101Z" fill="#4F4B71"/>
<path d="M97.6135 67.6539L99.5039 65.9624L101.858 68.593L99.9675 70.2845L97.6135 67.6539Z" fill="#544B76"/>
<path d="M99.5042 65.9625L101.395 64.271L103.748 66.9016L101.858 68.5931L99.5042 65.9625Z" fill="#C2CBED"/>
<path d="M101.395 64.2711L103.285 62.5796L105.639 65.2102L103.749 66.9017L101.395 64.2711Z" fill="#F6F8FA"/>
<path d="M103.285 62.5797L105.176 60.8882L107.53 63.5188L105.639 65.2103L103.285 62.5797Z" fill="#F5FAF6"/>
<path d="M105.178 60.8854L107.068 59.1938L109.422 61.8244L107.532 63.516L105.178 60.8854Z" fill="#6C697E"/>
<path d="M93.3694 66.715L95.2598 65.0234L97.6137 67.654L95.7233 69.3456L93.3694 66.715Z" fill="#48486A"/>
<path d="M95.26 65.0236L97.1504 63.332L99.5043 65.9626L97.6139 67.6542L95.26 65.0236Z" fill="#B6BEEA"/>
<path d="M97.1507 63.3322L99.041 61.6406L101.395 64.2712L99.5046 65.9628L97.1507 63.3322Z" fill="#EAF6FC"/>
<path d="M99.0413 61.6403L100.932 59.9487L103.286 62.5793L101.395 64.2709L99.0413 61.6403Z" fill="#F1FAF3"/>
<path d="M100.93 59.9489L102.82 58.2573L105.174 60.8879L103.284 62.5795L100.93 59.9489Z" fill="#F2F9ED"/>
<path d="M102.824 58.255L104.715 56.5635L107.069 59.1941L105.178 60.8856L102.824 58.255Z" fill="#6A687C"/>
<path d="M89.1253 65.776L91.0156 64.0845L93.3695 66.7151L91.4792 68.4066L89.1253 65.776Z" fill="#544E78"/>
<path d="M91.0159 64.0846L92.9062 62.3931L95.2602 65.0237L93.3698 66.7152L91.0159 64.0846Z" fill="#B8CCE5"/>
<path d="M92.9065 62.3927L94.7969 60.7012L97.1508 63.3318L95.2604 65.0233L92.9065 62.3927Z" fill="#EAE7E1"/>
<path d="M94.7952 60.7013L96.6855 59.0098L99.0395 61.6404L97.1491 63.3319L94.7952 60.7013Z" fill="#EFF8ED"/>
<path d="M96.6858 59.0099L98.5762 57.3184L100.93 59.9489L99.0397 61.6405L96.6858 59.0099Z" fill="#F4F9F0"/>
<path d="M98.5764 57.3185L100.467 55.627L102.821 58.2575L100.93 59.9491L98.5764 57.3185Z" fill="#B8C9D8"/>
<path d="M100.471 55.6242L102.361 53.9326L104.715 56.5632L102.825 58.2548L100.471 55.6242Z" fill="#5F628B"/>
<path d="M84.8811 64.8371L86.7715 63.1455L89.1254 65.7761L87.235 67.4677L84.8811 64.8371Z" fill="#454468"/>
<path d="M86.7718 63.1452L88.6621 61.4536L91.016 64.0842L89.1257 65.7758L86.7718 63.1452Z" fill="#ABB0CE"/>
<path d="M88.6624 61.4537L90.5527 59.7622L92.9067 62.3928L91.0163 64.0843L88.6624 61.4537Z" fill="#DBE3EC"/>
<path d="M90.551 59.7623L92.4414 58.0708L94.7953 60.7014L92.905 62.3929L90.551 59.7623Z" fill="#ECF9F0"/>
<path d="M92.4417 58.0709L94.332 56.3794L96.686 59.01L94.7956 60.7015L92.4417 58.0709Z" fill="#EDE9EC"/>
<path d="M94.3323 56.3795L96.2227 54.688L98.5766 57.3186L96.6862 59.0101L94.3323 56.3795Z" fill="#C4D7DA"/>
<path d="M96.2229 54.6876L98.1133 52.9961L100.467 55.6267L98.5768 57.3182L96.2229 54.6876Z" fill="#5A647D"/>
<path d="M82.5276 62.2062L84.418 60.5146L86.7719 63.1452L84.8815 64.8368L82.5276 62.2062Z" fill="#534E74"/>
<path d="M84.4182 60.5148L86.3086 58.8232L88.6625 61.4538L86.7722 63.1454L84.4182 60.5148Z" fill="#B6CAE8"/>
<path d="M86.3069 58.8234L88.1973 57.1318L90.5512 59.7624L88.6608 61.454L86.3069 58.8234Z" fill="#E9EAE8"/>
<path d="M88.1975 57.1315L90.0879 55.4399L92.4418 58.0705L90.5514 59.7621L88.1975 57.1315Z" fill="#E5E7E7"/>
<path d="M90.0882 55.4401L91.9785 53.7485L94.3324 56.3791L92.4421 58.0707L90.0882 55.4401Z" fill="#BDC8D3"/>
<path d="M91.9788 53.7487L93.8691 52.0571L96.2231 54.6877L94.3327 56.3793L91.9788 53.7487Z" fill="#494E6F"/>
<path d="M80.1721 59.5758L82.0625 57.8843L84.4164 60.5149L82.5261 62.2064L80.1721 59.5758Z" fill="#667AA3"/>
<path d="M82.0628 57.8844L83.9531 56.1929L86.307 58.8235L84.4167 60.515L82.0628 57.8844Z" fill="#B7CAE4"/>
<path d="M83.9534 56.1925L85.8438 54.501L88.1977 57.1316L86.3073 58.8231L83.9534 56.1925Z" fill="#C6D4E3"/>
<path d="M85.844 54.5011L87.7344 52.8096L90.0883 55.4402L88.1979 57.1317L85.844 54.5011Z" fill="#C8D4E4"/>
<path d="M87.7346 52.8097L89.625 51.1182L91.9789 53.7488L90.0886 55.4403L87.7346 52.8097Z" fill="#707891"/>
<path d="M75.926 58.6393L77.8164 56.9478L80.1703 59.5783L78.28 61.2699L75.926 58.6393Z" fill="#4E507A"/>
<path d="M77.8186 56.945L79.709 55.2534L82.0629 57.884L80.1725 59.5756L77.8186 56.945Z" fill="#7795BD"/>
<path d="M79.7093 55.2535L81.5996 53.562L83.9535 56.1926L82.0632 57.8841L79.7093 55.2535Z" fill="#ABC7E7"/>
<path d="M81.5999 53.5621L83.4902 51.8706L85.8441 54.5012L83.9538 56.1927L81.5999 53.5621Z" fill="#B2BEE3"/>
<path d="M83.4905 51.8707L85.3809 50.1792L87.7348 52.8098L85.8444 54.5013L83.4905 51.8707Z" fill="#B0BFE2"/>
<path d="M85.3811 50.1788L87.2715 48.4873L89.6254 51.1179L87.735 52.8094L85.3811 50.1788Z" fill="#4B476C"/>
<path d="M71.6858 57.7042L73.5762 56.0127L75.9301 58.6433L74.0397 60.3348L71.6858 57.7042Z" fill="#544C73"/>
<path d="M73.5764 56.0123L75.4668 54.3208L77.8207 56.9514L75.9304 58.6429L73.5764 56.0123Z" fill="#6691B9"/>
<path d="M75.469 54.3185L77.3594 52.627L79.7133 55.2575L77.8229 56.9491L75.469 54.3185Z" fill="#89A8CE"/>
<path d="M77.3596 52.6271L79.25 50.9355L81.6039 53.5661L79.7136 55.2577L77.3596 52.6271Z" fill="#586A94"/>
<path d="M69.3303 55.0734L71.2207 53.3818L73.5746 56.0124L71.6843 57.704L69.3303 55.0734Z" fill="#4E4E79"/>
<path d="M71.221 53.382L73.1113 51.6904L75.4653 54.321L73.5749 56.0126L71.221 53.382Z" fill="#768AB7"/>
<path d="M73.1155 51.6881L75.0059 49.9966L77.3598 52.6272L75.4694 54.3187L73.1155 51.6881Z" fill="#748ABD"/>
<path d="M75.0042 49.9962L76.8945 48.3047L79.2485 50.9353L77.3581 52.6268L75.0042 49.9962Z" fill="#524B73"/>
<path d="M65.0862 54.1344L66.9766 52.4429L69.3305 55.0735L67.4401 56.765L65.0862 54.1344Z" fill="#4B4E7D"/>
<path d="M66.9768 52.443L68.8672 50.7515L71.2211 53.3821L69.3308 55.0736L66.9768 52.443Z" fill="#6491BC"/>
<path d="M68.8675 50.7511L70.7578 49.0596L73.1117 51.6902L71.2214 53.3817L68.8675 50.7511Z" fill="#5A4A74"/>
<path d="M70.76 49.0573L72.6504 47.3657L75.0043 49.9963L73.1139 51.6879L70.76 49.0573Z" fill="#574A71"/>
<path d="M60.8421 53.1954L62.7324 51.5039L65.0863 54.1345L63.196 55.826L60.8421 53.1954Z" fill="#514874"/>
<path d="M62.7327 51.5036L64.623 49.812L66.977 52.4426L65.0866 54.1342L62.7327 51.5036Z" fill="#758FB4"/>
<path d="M64.6233 49.8121L66.5137 48.1206L68.8676 50.7512L66.9772 52.4427L64.6233 49.8121Z" fill="#594C77"/>
<path d="M56.5979 52.256L58.4883 50.5645L60.8422 53.195L58.9518 54.8866L56.5979 52.256Z" fill="#534D75"/>
<path d="M58.4885 50.5646L60.3789 48.873L62.7328 51.5036L60.8425 53.1952L58.4885 50.5646Z" fill="#524973"/>
<path d="M60.3792 48.8732L62.2695 47.1816L64.6234 49.8122L62.7331 51.5038L60.3792 48.8732Z" fill="#534B75"/>
<path d="M54.2444 49.6256L56.1348 47.9341L58.4887 50.5647L56.5983 52.2562L54.2444 49.6256Z" fill="#534D73"/>
<path d="M56.135 47.9342L58.0254 46.2427L60.3793 48.8733L58.489 50.5648L56.135 47.9342Z" fill="#545071"/>
<path d="M50.0003 48.6867L51.8906 46.9951L54.2445 49.6257L52.3542 51.3173L50.0003 48.6867Z" fill="#555275"/>
</g>
<defs>
<filter id="filter0_d_448_20935" x="0" y="0.242676" width="159.883" height="124.981" filterUnits="userSpaceOnUse" color-interpolation-filters="sRGB">
<feFlood flood-opacity="0" result="BackgroundImageFix"/>
<feColorMatrix in="SourceAlpha" type="matrix" values="0 0 0 0 0 0 0 0 0 0 0 0 0 0 0 0 0 0 127 0" result="hardAlpha"/>
<feOffset dy="4"/>
<feGaussianBlur stdDeviation="25"/>
<feComposite in2="hardAlpha" operator="out"/>
<feColorMatrix type="matrix" values="0 0 0 0 1 0 0 0 0 1 0 0 0 0 1 0 0 0 1 0"/>
<feBlend mode="normal" in2="BackgroundImageFix" result="effect1_dropShadow_448_20935"/>
<feBlend mode="normal" in="SourceGraphic" in2="effect1_dropShadow_448_20935" result="shape"/>
</filter>
</defs>
</svg>
