<svg width="721" height="218" viewBox="0 0 721 218" fill="none" xmlns="http://www.w3.org/2000/svg">
<g style="mix-blend-mode:soft-light">
<path d="M720.821 49.9823H714.346V55.917C716.501 55.917 718.658 55.917 720.821 55.917V49.9823Z" fill="url(#paint0_linear_448_50294)"/>
<path d="M720.87 6.43054H714.559V18.5032H720.87V6.43054Z" fill="url(#paint1_linear_448_50294)"/>
<path d="M700.814 25.1074V37.2647C705.234 37.2647 709.654 37.2647 714.028 37.2647V30.9982H707.708C707.582 28.8861 707.469 26.9935 707.358 25.109L700.814 25.1074Z" fill="url(#paint2_linear_448_50294)"/>
<path d="M-164.745 11.3055H-157.972V20.5724H-164.734V25.3156H-177.952V30.132H-164.739V34.7722H-158.062V39.3716H-151.268V34.993H-144.559V44.2202H-157.724C-157.848 45.9282 -157.95 47.3658 -158.067 48.9807H-164.506V53.8529H-171.385V56H694.057V53.9919C696.132 53.9919 698.214 53.9919 700.718 53.9919V55.9988H707.591V53.9832H714.245V55.9988H721V53.9112H714.353C714.314 50.7768 714.275 47.6424 714.234 44.5079H707.631V39.8702H700.858V44.2686H694.084V39.8466C691.657 39.7623 689.605 39.6916 687.396 39.6147V35.0798H700.697V30.2808H694.1V25.6294C691.68 25.5376 689.623 25.4595 687.406 25.3751V20.8713H693.884V16.1443C696.307 16.0525 698.359 15.9743 700.577 15.8887V11.3849H693.99V1.77698H112.132V1.83404H-151.209V6.3366H-157.832V1.77698H-164.5V6.42343H-171.385V11.0451H-178V15.7263H-164.745V11.3055ZM-144.58 53.6892H-150.875V49.2325H-144.58V53.6892ZM687.49 49.3777H693.951C693.951 50.8946 693.951 52.4054 693.951 53.9174H687.49V49.3777ZM680.725 11.4296H687.019V15.8863H680.725V11.4296ZM-137.867 6.41102V15.7101H-144.275V11.2324H-151.103C-151.103 9.45367 -151.103 7.93049 -151.103 6.41102H-137.867ZM-157.86 20.6443H-144.622V25.2585H-150.962V30.0588H-164.629V25.3888H-157.86V20.6443Z" fill="url(#paint3_linear_448_50294)"/>
<path d="M707.537 0H700.771V5.98838H707.537V0Z" fill="url(#paint4_linear_448_50294)"/>
<path d="M720.821 103.982H714.346V109.917C716.501 109.917 718.658 109.917 720.821 109.917V103.982Z" fill="url(#paint5_linear_448_50294)"/>
<path d="M720.87 60.4305H714.559V72.5032H720.87V60.4305Z" fill="url(#paint6_linear_448_50294)"/>
<path d="M700.814 79.1074V91.2647C705.234 91.2647 709.654 91.2647 714.028 91.2647V84.9982H707.708C707.582 82.8861 707.469 80.9935 707.358 79.109L700.814 79.1074Z" fill="url(#paint7_linear_448_50294)"/>
<path d="M-164.745 65.3055H-157.972V74.5724H-164.734V79.3156H-177.952V84.132H-164.739V88.7722H-158.062V93.3716H-151.268V88.993H-144.559V98.2202H-157.724C-157.848 99.9282 -157.95 101.366 -158.067 102.981H-164.506V107.853H-171.385V110H694.057V107.992C696.132 107.992 698.214 107.992 700.718 107.992V109.999H707.591V107.983H714.245V109.999H721V107.911H714.353C714.314 104.777 714.275 101.642 714.234 98.5079H707.631V93.8702H700.858V98.2686H694.084V93.8466C691.657 93.7623 689.605 93.6916 687.396 93.6147V89.0798H700.697V84.2808H694.1V79.6294C691.68 79.5376 689.623 79.4595 687.406 79.3751V74.8713H693.884V70.1443C696.307 70.0525 698.359 69.9743 700.577 69.8887V65.3849H693.99V55.777H112.132V55.834H-151.209V60.3366H-157.832V55.777H-164.5V60.4234H-171.385V65.0451H-178V69.7263H-164.745V65.3055ZM-144.58 107.689H-150.875V103.233H-144.58V107.689ZM687.49 103.378H693.951C693.951 104.895 693.951 106.405 693.951 107.917H687.49V103.378ZM680.725 65.4296H687.019V69.8863H680.725V65.4296ZM-137.867 60.411V69.7101H-144.275V65.2324H-151.103C-151.103 63.4537 -151.103 61.9305 -151.103 60.411H-137.867ZM-157.86 74.6443H-144.622V79.2585H-150.962V84.0588H-164.629V79.3888H-157.86V74.6443Z" fill="url(#paint8_linear_448_50294)"/>
<path d="M707.537 54H700.771V59.9884H707.537V54Z" fill="url(#paint9_linear_448_50294)"/>
<path d="M720.821 156.982H714.346V162.917C716.501 162.917 718.658 162.917 720.821 162.917V156.982Z" fill="url(#paint10_linear_448_50294)"/>
<path d="M720.87 113.431H714.559V125.503H720.87V113.431Z" fill="url(#paint11_linear_448_50294)"/>
<path d="M700.814 132.107V144.265C705.234 144.265 709.654 144.265 714.028 144.265V137.998H707.708C707.582 135.886 707.469 133.994 707.358 132.109L700.814 132.107Z" fill="url(#paint12_linear_448_50294)"/>
<path d="M-164.745 118.306H-157.972V127.572H-164.734V132.316H-177.952V137.132H-164.739V141.772H-158.062V146.372H-151.268V141.993H-144.559V151.22H-157.724C-157.848 152.928 -157.95 154.366 -158.067 155.981H-164.506V160.853H-171.385V163H694.057V160.992C696.132 160.992 698.214 160.992 700.718 160.992V162.999H707.591V160.983H714.245V162.999H721V160.911H714.353C714.314 157.777 714.275 154.642 714.234 151.508H707.631V146.87H700.858V151.269H694.084V146.847C691.657 146.762 689.605 146.692 687.396 146.615V142.08H700.697V137.281H694.1V132.629C691.68 132.538 689.623 132.459 687.406 132.375V127.871H693.884V123.144C696.307 123.052 698.359 122.974 700.577 122.889V118.385H693.99V108.777H112.132V108.834H-151.209V113.337H-157.832V108.777H-164.5V113.423H-171.385V118.045H-178V122.726H-164.745V118.306ZM-144.58 160.689H-150.875V156.233H-144.58V160.689ZM687.49 156.378H693.951C693.951 157.895 693.951 159.405 693.951 160.917H687.49V156.378ZM680.725 118.43H687.019V122.886H680.725V118.43ZM-137.867 113.411V122.71H-144.275V118.232H-151.103C-151.103 116.454 -151.103 114.93 -151.103 113.411H-137.867ZM-157.86 127.644H-144.622V132.259H-150.962V137.059H-164.629V132.389H-157.86V127.644Z" fill="url(#paint13_linear_448_50294)"/>
<path d="M707.537 107H700.771V112.988H707.537V107Z" fill="url(#paint14_linear_448_50294)"/>
<path d="M720.821 210.982H714.346V216.917C716.501 216.917 718.658 216.917 720.821 216.917V210.982Z" fill="url(#paint15_linear_448_50294)"/>
<path d="M720.87 167.431H714.559V179.503H720.87V167.431Z" fill="url(#paint16_linear_448_50294)"/>
<path d="M700.814 186.107V198.265C705.234 198.265 709.654 198.265 714.028 198.265V191.998H707.708C707.582 189.886 707.469 187.994 707.358 186.109L700.814 186.107Z" fill="url(#paint17_linear_448_50294)"/>
<path d="M-164.745 172.529H-157.972V181.795H-164.734V186.539H-177.952V191.355H-164.739V195.995H-158.062V200.595H-151.268V196.216H-144.559V205.443H-157.724C-157.848 207.151 -157.95 208.589 -158.067 210.204H-164.506V215.076H-171.385V217.223H694.057V215.215C696.132 215.215 698.214 215.215 700.718 215.215V217.222H707.591V215.206H714.245V217.222H721V215.134H714.353C714.314 212 714.275 208.865 714.234 205.731H707.631V201.093H700.858V205.492H694.084V201.07C691.657 200.985 689.605 200.915 687.396 200.838V196.303H700.697V191.504H694.1V186.852C691.68 186.761 689.623 186.683 687.406 186.598V182.094H693.884V177.367C696.307 177.275 698.359 177.197 700.577 177.112V172.608H693.99V163H112.132V163.057H-151.209V167.56H-157.832V163H-164.5V167.646H-171.385V172.268H-178V176.949H-164.745V172.529ZM-144.58 214.912H-150.875V210.456H-144.58V214.912ZM687.49 210.601H693.951C693.951 212.118 693.951 213.628 693.951 215.14H687.49V210.601ZM680.725 172.653H687.019V177.109H680.725V172.653ZM-137.867 167.634V176.933H-144.275V172.455H-151.103C-151.103 170.677 -151.103 169.154 -151.103 167.634H-137.867ZM-157.86 181.867H-144.622V186.482H-150.962V191.282H-164.629V186.612H-157.86V181.867Z" fill="url(#paint18_linear_448_50294)"/>
<path d="M707.537 161H700.771V166.988H707.537V161Z" fill="url(#paint19_linear_448_50294)"/>
</g>
<path d="M108.96 102.36H110.4V87.96H108.96V86.52H107.52V85.08H106.08V83.64H100.32V106.68H106.08V105.24H107.52V103.8H108.96V102.36ZM114.72 86.52V103.8H113.28V105.24H111.84V106.68H110.4V108.12H108.96V109.56H107.472V111H96V79.32H107.52V80.76H108.96V82.2H110.4V83.64H111.84V85.08H113.28V86.52H114.72ZM136.329 106.68V111H117.609V106.68H124.809V83.64H121.929V79.32H132.009V83.64H129.129V106.68H136.329ZM143.539 99.48H153.619V98.04V96.6H152.179V93.72H150.739V90.84H149.299V87.96H147.859V90.84H146.419V93.72H144.979V96.6H143.539V98.04V99.48ZM157.939 99.48V111H153.619V103.8H143.539V111H139.219V99.48V98.04V95.16H140.659V92.28H142.099V89.4H143.539V86.52H144.979V83.64H146.419V80.76H147.859V79.32H149.299V80.76H150.739V83.64H152.179V86.52H153.619V89.4H155.059V92.28H156.499V95.16H157.939V98.04V99.48ZM179.548 79.32V111H175.228V95.16H173.788V98.04H172.348V100.92H170.908V103.8H169.468V100.92H168.028V98.04H166.588V95.16H165.148V111H160.828V79.32H162.268V82.2H163.708V85.08H165.148V87.96H166.588V90.84H168.028V93.72H169.468V96.6H170.908V93.72H172.348V90.84H173.788V87.96H175.228V85.08H176.668V82.2H178.108V79.32H179.548ZM195.398 103.8H196.838V86.52H195.398V85.08H193.958V83.64H189.638V85.08H188.198V86.52H186.758V103.8H188.198V105.24H189.638V106.68H193.958V105.24H195.398V103.8ZM201.158 85.08V105.24H199.718V106.68H198.278V108.12H196.838V109.56H195.398V111H188.198V109.56H186.758V108.12H185.318V106.68H183.878V105.24H182.438V85.08H183.878V83.64H185.318V82.2H186.758V80.76H188.198V79.32H195.398V80.76H196.838V82.2H198.278V83.64H199.718V85.08H201.158ZM222.767 79.32V111H218.447V109.56H217.007V106.68H215.567V103.8H214.127V100.92H212.687V98.04H211.247V95.16H209.807V92.28H208.367V111H204.047V79.32H206.927V82.2H208.367V85.08H209.807V87.96H211.247V90.84H212.687V93.72H214.127V96.6H215.567V99.48H217.007V102.36H218.447V79.32H222.767ZM238.616 102.36H240.056V87.96H238.616V86.52H237.176V85.08H235.736V83.64H229.976V106.68H235.736V105.24H237.176V103.8H238.616V102.36ZM244.376 86.52V103.8H242.936V105.24H241.496V106.68H240.056V108.12H238.616V109.56H237.128V111H225.656V79.32H237.176V80.76H238.616V82.2H240.056V83.64H241.496V85.08H242.936V86.52H244.376Z" fill="url(#paint20_linear_448_50294)"/>
<path d="M105.36 127.262V132.302H104.64V133.022H103.92V133.742H103.2V134.462H98.16V133.742H97.44V133.022H96.72V132.302H96V130.142H98.16V131.582H98.88V132.302H102.48V131.582H103.2V127.982H102.48V127.262H98.16V126.542H97.44V125.822H96.72V125.102H96V120.782H96.72V120.062H97.44V119.342H98.16V118.622H103.2V119.342H103.92V120.062H104.64V120.782H105.36V122.942H103.2V121.502H102.48V120.782H98.88V121.502H98.16V124.382H98.88V125.102H103.2V125.822H103.92V126.542H104.64V127.262H105.36ZM121.925 125.102H122.645V121.502H121.925V120.782H117.605V125.822H121.925V125.102ZM124.805 120.782V125.822H124.085V126.542H123.365V127.262H122.645V127.982H117.605V134.462H115.445V118.622H122.645V119.342H123.365V120.062H124.085V120.782H124.805ZM141.369 130.862H142.089V122.222H141.369V121.502H140.649V120.782H138.489V121.502H137.769V122.222H137.049V130.862H137.769V131.582H138.489V132.302H140.649V131.582H141.369V130.862ZM144.249 121.502V131.582H143.529V132.302H142.809V133.022H142.089V133.742H141.369V134.462H137.769V133.742H137.049V133.022H136.329V132.302H135.609V131.582H134.889V121.502H135.609V120.782H136.329V120.062H137.049V119.342H137.769V118.622H141.369V119.342H142.089V120.062H142.809V120.782H143.529V121.502H144.249ZM163.694 118.622V134.462H161.534V133.742H160.814V132.302H160.094V130.862H159.374V129.422H158.654V127.982H157.934V126.542H157.214V125.102H156.494V134.462H154.334V118.622H155.774V120.062H156.494V121.502H157.214V122.942H157.934V124.382H158.654V125.822H159.374V127.262H160.094V128.702H160.814V130.142H161.534V118.622H163.694ZM183.139 127.262V132.302H182.419V133.022H181.699V133.742H180.979V134.462H175.939V133.742H175.219V133.022H174.499V132.302H173.779V130.142H175.939V131.582H176.659V132.302H180.259V131.582H180.979V127.982H180.259V127.262H175.939V126.542H175.219V125.822H174.499V125.102H173.779V120.782H174.499V120.062H175.219V119.342H175.939V118.622H180.979V119.342H181.699V120.062H182.419V120.782H183.139V122.942H180.979V121.502H180.259V120.782H176.659V121.502H175.939V124.382H176.659V125.102H180.979V125.822H181.699V126.542H182.419V127.262H183.139ZM199.703 130.862H200.423V122.222H199.703V121.502H198.983V120.782H196.823V121.502H196.103V122.222H195.383V130.862H196.103V131.582H196.823V132.302H198.983V131.582H199.703V130.862ZM202.583 121.502V131.582H201.863V132.302H201.143V133.022H200.423V133.742H199.703V134.462H196.103V133.742H195.383V133.022H194.663V132.302H193.943V131.582H193.223V121.502H193.943V120.782H194.663V120.062H195.383V119.342H196.103V118.622H199.703V119.342H200.423V120.062H201.143V120.782H201.863V121.502H202.583ZM219.148 124.382H219.868V121.502H219.148V120.782H214.828V125.102H219.148V124.382ZM222.028 130.862V134.462H219.868V131.582H219.148V130.142H218.428V128.702H217.708V127.262H214.828V134.462H212.668V118.622H219.868V119.342H220.588V120.062H221.308V120.782H222.028V125.102H221.308V125.822H220.588V126.542H219.868V127.982H220.588V129.422H221.308V130.862H222.028ZM241.473 127.262V132.302H240.753V133.022H240.033V133.742H239.313V134.462H234.273V133.742H233.553V133.022H232.833V132.302H232.113V130.142H234.273V131.582H234.993V132.302H238.593V131.582H239.313V127.982H238.593V127.262H234.273V126.542H233.553V125.822H232.833V125.102H232.113V120.782H232.833V120.062H233.553V119.342H234.273V118.622H239.313V119.342H240.033V120.062H240.753V120.782H241.473V122.942H239.313V121.502H238.593V120.782H234.993V121.502H234.273V124.382H234.993V125.102H239.313V125.822H240.033V126.542H240.753V127.262H241.473Z" fill="url(#paint21_linear_448_50294)"/>
<defs>
<linearGradient id="paint0_linear_448_50294" x1="714.346" y1="52.9497" x2="720.821" y2="52.9497" gradientUnits="userSpaceOnUse">
<stop/>
<stop offset="0.0001" stop-color="#020101"/>
<stop offset="0.299" stop-color="#E74C3C"/>
<stop offset="0.879"/>
</linearGradient>
<linearGradient id="paint1_linear_448_50294" x1="714.559" y1="12.4669" x2="720.87" y2="12.4669" gradientUnits="userSpaceOnUse">
<stop/>
<stop offset="0.0001" stop-color="#020101"/>
<stop offset="0.299" stop-color="#E74C3C"/>
<stop offset="0.879"/>
</linearGradient>
<linearGradient id="paint2_linear_448_50294" x1="700.814" y1="31.186" x2="714.028" y2="31.186" gradientUnits="userSpaceOnUse">
<stop/>
<stop offset="0.0001" stop-color="#020101"/>
<stop offset="0.299" stop-color="#E74C3C"/>
<stop offset="0.879"/>
</linearGradient>
<linearGradient id="paint3_linear_448_50294" x1="-178" y1="28.8885" x2="721" y2="28.8885" gradientUnits="userSpaceOnUse">
<stop/>
<stop offset="0.0001" stop-color="#020101"/>
<stop offset="0.299" stop-color="#E74C3C"/>
<stop offset="0.879"/>
</linearGradient>
<linearGradient id="paint4_linear_448_50294" x1="700.771" y1="2.99419" x2="707.537" y2="2.99419" gradientUnits="userSpaceOnUse">
<stop/>
<stop offset="0.0001" stop-color="#020101"/>
<stop offset="0.299" stop-color="#E74C3C"/>
<stop offset="0.879"/>
</linearGradient>
<linearGradient id="paint5_linear_448_50294" x1="714.346" y1="106.95" x2="720.821" y2="106.95" gradientUnits="userSpaceOnUse">
<stop/>
<stop offset="0.0001" stop-color="#020101"/>
<stop offset="0.299" stop-color="#E74C3C"/>
<stop offset="0.879"/>
</linearGradient>
<linearGradient id="paint6_linear_448_50294" x1="714.559" y1="66.4669" x2="720.87" y2="66.4669" gradientUnits="userSpaceOnUse">
<stop/>
<stop offset="0.0001" stop-color="#020101"/>
<stop offset="0.299" stop-color="#E74C3C"/>
<stop offset="0.879"/>
</linearGradient>
<linearGradient id="paint7_linear_448_50294" x1="700.814" y1="85.186" x2="714.028" y2="85.186" gradientUnits="userSpaceOnUse">
<stop/>
<stop offset="0.0001" stop-color="#020101"/>
<stop offset="0.299" stop-color="#E74C3C"/>
<stop offset="0.879"/>
</linearGradient>
<linearGradient id="paint8_linear_448_50294" x1="-178" y1="82.8885" x2="721" y2="82.8885" gradientUnits="userSpaceOnUse">
<stop/>
<stop offset="0.0001" stop-color="#020101"/>
<stop offset="0.299" stop-color="#E74C3C"/>
<stop offset="0.879"/>
</linearGradient>
<linearGradient id="paint9_linear_448_50294" x1="700.771" y1="56.9942" x2="707.537" y2="56.9942" gradientUnits="userSpaceOnUse">
<stop/>
<stop offset="0.0001" stop-color="#020101"/>
<stop offset="0.299" stop-color="#E74C3C"/>
<stop offset="0.879"/>
</linearGradient>
<linearGradient id="paint10_linear_448_50294" x1="714.346" y1="159.95" x2="720.821" y2="159.95" gradientUnits="userSpaceOnUse">
<stop/>
<stop offset="0.0001" stop-color="#020101"/>
<stop offset="0.299" stop-color="#E74C3C"/>
<stop offset="0.879"/>
</linearGradient>
<linearGradient id="paint11_linear_448_50294" x1="714.559" y1="119.467" x2="720.87" y2="119.467" gradientUnits="userSpaceOnUse">
<stop/>
<stop offset="0.0001" stop-color="#020101"/>
<stop offset="0.299" stop-color="#E74C3C"/>
<stop offset="0.879"/>
</linearGradient>
<linearGradient id="paint12_linear_448_50294" x1="700.814" y1="138.186" x2="714.028" y2="138.186" gradientUnits="userSpaceOnUse">
<stop/>
<stop offset="0.0001" stop-color="#020101"/>
<stop offset="0.299" stop-color="#E74C3C"/>
<stop offset="0.879"/>
</linearGradient>
<linearGradient id="paint13_linear_448_50294" x1="-178" y1="135.889" x2="721" y2="135.889" gradientUnits="userSpaceOnUse">
<stop/>
<stop offset="0.0001" stop-color="#020101"/>
<stop offset="0.299" stop-color="#E74C3C"/>
<stop offset="0.879"/>
</linearGradient>
<linearGradient id="paint14_linear_448_50294" x1="700.771" y1="109.994" x2="707.537" y2="109.994" gradientUnits="userSpaceOnUse">
<stop/>
<stop offset="0.0001" stop-color="#020101"/>
<stop offset="0.299" stop-color="#E74C3C"/>
<stop offset="0.879"/>
</linearGradient>
<linearGradient id="paint15_linear_448_50294" x1="714.346" y1="213.95" x2="720.821" y2="213.95" gradientUnits="userSpaceOnUse">
<stop/>
<stop offset="0.0001" stop-color="#020101"/>
<stop offset="0.299" stop-color="#E74C3C"/>
<stop offset="0.879"/>
</linearGradient>
<linearGradient id="paint16_linear_448_50294" x1="714.559" y1="173.467" x2="720.87" y2="173.467" gradientUnits="userSpaceOnUse">
<stop/>
<stop offset="0.0001" stop-color="#020101"/>
<stop offset="0.299" stop-color="#E74C3C"/>
<stop offset="0.879"/>
</linearGradient>
<linearGradient id="paint17_linear_448_50294" x1="700.814" y1="192.186" x2="714.028" y2="192.186" gradientUnits="userSpaceOnUse">
<stop/>
<stop offset="0.0001" stop-color="#020101"/>
<stop offset="0.299" stop-color="#E74C3C"/>
<stop offset="0.879"/>
</linearGradient>
<linearGradient id="paint18_linear_448_50294" x1="-178" y1="190.112" x2="721" y2="190.112" gradientUnits="userSpaceOnUse">
<stop/>
<stop offset="0.0001" stop-color="#020101"/>
<stop offset="0.299" stop-color="#E74C3C"/>
<stop offset="0.879"/>
</linearGradient>
<linearGradient id="paint19_linear_448_50294" x1="700.771" y1="163.994" x2="707.537" y2="163.994" gradientUnits="userSpaceOnUse">
<stop/>
<stop offset="0.0001" stop-color="#020101"/>
<stop offset="0.299" stop-color="#E74C3C"/>
<stop offset="0.879"/>
</linearGradient>
<linearGradient id="paint20_linear_448_50294" x1="248" y1="96.5" x2="96" y2="96.5" gradientUnits="userSpaceOnUse">
<stop stop-color="#048EE9"/>
<stop offset="1" stop-color="#15E2E1"/>
</linearGradient>
<linearGradient id="paint21_linear_448_50294" x1="243" y1="127.231" x2="96" y2="127.231" gradientUnits="userSpaceOnUse">
<stop stop-color="#048EE9"/>
<stop offset="1" stop-color="#15E2E1"/>
</linearGradient>
</defs>
</svg>
