<svg width="1680" height="500" viewBox="0 0 1680 500" fill="none" xmlns="http://www.w3.org/2000/svg">
<rect width="1680" height="96" fill="url(#paint0_linear_1_58)"/>
<path d="M33.9201 65.9197H28.8V50.5603H33.9201V65.9197ZM44.1604 65.9197H39.0402V40.3201H44.1604V65.9197ZM54.3996 65.9197H49.2805V30.0798H54.3996V65.9197ZM64.6398 65.9197H59.5197V50.5603H64.6398V65.9197Z" fill="white"/>
<path d="M138.56 36.8C138.56 38.0267 138.453 39.0933 138.24 40C138.453 40.8533 138.56 41.92 138.56 43.2C138.56 44.4267 138.453 45.4933 138.24 46.4H135.04C135.253 47.2533 135.36 48.32 135.36 49.6C135.36 50.8267 135.253 51.8933 135.04 52.8H119.04C119.253 53.6533 119.36 54.72 119.36 56C119.36 57.2267 119.253 58.2933 119.04 59.2C119.253 60.0533 119.36 61.12 119.36 62.4C119.36 63.6267 119.253 64.6933 119.04 65.6C119.253 66.4533 119.36 67.52 119.36 68.8C119.36 70.0267 119.253 71.0933 119.04 72H112.64C112.427 71.0933 112.32 70.0267 112.32 68.8C112.32 67.52 112.427 66.4533 112.64 65.6C112.427 64.6933 112.32 63.6267 112.32 62.4C112.32 61.12 112.427 60.0533 112.64 59.2C112.427 58.2933 112.32 57.2267 112.32 56C112.32 54.72 112.427 53.6533 112.64 52.8C112.427 51.8933 112.32 50.8267 112.32 49.6C112.32 48.32 112.427 47.2533 112.64 46.4C112.427 45.4933 112.32 44.4267 112.32 43.2C112.32 41.92 112.427 40.8533 112.64 40C112.427 39.0933 112.32 38.0267 112.32 36.8C112.32 35.52 112.427 34.4533 112.64 33.6C112.427 32.6933 112.32 31.6267 112.32 30.4C112.32 29.12 112.427 28.0533 112.64 27.2H135.04C135.253 28.0533 135.36 29.12 135.36 30.4C135.36 31.6267 135.253 32.6933 135.04 33.6H138.24C138.453 34.4533 138.56 35.52 138.56 36.8ZM131.84 46.4C131.627 45.4933 131.52 44.4267 131.52 43.2C131.52 41.92 131.627 40.8533 131.84 40C131.627 39.0933 131.52 38.0267 131.52 36.8C131.52 35.52 131.627 34.4533 131.84 33.6H119.04C119.253 34.4533 119.36 35.52 119.36 36.8C119.36 38.0267 119.253 39.0933 119.04 40C119.253 40.8533 119.36 41.92 119.36 43.2C119.36 44.4267 119.253 45.4933 119.04 46.4H131.84ZM170.271 65.6C170.485 66.4533 170.591 67.52 170.591 68.8C170.591 70.0267 170.485 71.0933 170.271 72H147.871C147.658 71.0933 147.551 70.0267 147.551 68.8C147.551 67.52 147.658 66.4533 147.871 65.6C147.658 64.6933 147.551 63.6267 147.551 62.4C147.551 61.12 147.658 60.0533 147.871 59.2C147.658 58.2933 147.551 57.2267 147.551 56C147.551 54.72 147.658 53.6533 147.871 52.8C147.658 51.8933 147.551 50.8267 147.551 49.6C147.551 48.32 147.658 47.2533 147.871 46.4C147.658 45.4933 147.551 44.4267 147.551 43.2C147.551 41.92 147.658 40.8533 147.871 40C147.658 39.0933 147.551 38.0267 147.551 36.8C147.551 35.52 147.658 34.4533 147.871 33.6C147.658 32.6933 147.551 31.6267 147.551 30.4C147.551 29.12 147.658 28.0533 147.871 27.2H154.271C154.485 28.0533 154.591 29.12 154.591 30.4C154.591 31.6267 154.485 32.6933 154.271 33.6C154.485 34.4533 154.591 35.52 154.591 36.8C154.591 38.0267 154.485 39.0933 154.271 40C154.485 40.8533 154.591 41.92 154.591 43.2C154.591 44.4267 154.485 45.4933 154.271 46.4C154.485 47.2533 154.591 48.32 154.591 49.6C154.591 50.8267 154.485 51.8933 154.271 52.8C154.485 53.6533 154.591 54.72 154.591 56C154.591 57.2267 154.485 58.2933 154.271 59.2C154.485 60.0533 154.591 61.12 154.591 62.4C154.591 63.6267 154.485 64.6933 154.271 65.6H170.271ZM202.623 62.4C202.623 63.6267 202.516 64.6933 202.303 65.6C202.516 66.4533 202.623 67.52 202.623 68.8C202.623 70.0267 202.516 71.0933 202.303 72H195.903C195.689 71.0933 195.583 70.0267 195.583 68.8C195.583 67.52 195.689 66.4533 195.903 65.6C195.689 64.6933 195.583 63.6267 195.583 62.4C195.583 61.12 195.689 60.0533 195.903 59.2H183.103C183.316 60.0533 183.423 61.12 183.423 62.4C183.423 63.6267 183.316 64.6933 183.103 65.6C183.316 66.4533 183.423 67.52 183.423 68.8C183.423 70.0267 183.316 71.0933 183.103 72H176.703C176.489 71.0933 176.383 70.0267 176.383 68.8C176.383 67.52 176.489 66.4533 176.703 65.6C176.489 64.6933 176.383 63.6267 176.383 62.4C176.383 61.12 176.489 60.0533 176.703 59.2H179.103C178.889 58.2933 178.783 57.2267 178.783 56C178.783 54.72 178.889 53.6533 179.103 52.8C178.889 51.8933 178.783 50.8267 178.783 49.6C178.783 48.32 178.889 47.2533 179.103 46.4H180.703C180.489 45.4933 180.383 44.4267 180.383 43.2C180.383 41.92 180.489 40.8533 180.703 40H183.103C182.889 39.0933 182.783 38.0267 182.783 36.8C182.783 35.52 182.889 34.4533 183.103 33.6H184.703C184.489 32.6933 184.383 31.6267 184.383 30.4C184.383 29.12 184.489 28.0533 184.703 27.2H194.303C194.516 28.0533 194.623 29.12 194.623 30.4C194.623 31.6267 194.516 32.6933 194.303 33.6H195.903C196.116 34.4533 196.223 35.52 196.223 36.8C196.223 38.0267 196.116 39.0933 195.903 40H198.303C198.516 40.8533 198.623 41.92 198.623 43.2C198.623 44.4267 198.516 45.4933 198.303 46.4H199.903C200.116 47.2533 200.223 48.32 200.223 49.6C200.223 50.8267 200.116 51.8933 199.903 52.8C200.116 53.6533 200.223 54.72 200.223 56C200.223 57.2267 200.116 58.2933 199.903 59.2H202.303C202.516 60.0533 202.623 61.12 202.623 62.4ZM193.503 52.8C193.289 51.8933 193.183 50.8267 193.183 49.6C193.183 48.32 193.289 47.2533 193.503 46.4H191.903C191.689 45.4933 191.583 44.4267 191.583 43.2C191.583 41.92 191.689 40.8533 191.903 40H187.103C187.316 40.8533 187.423 41.92 187.423 43.2C187.423 44.4267 187.316 45.4933 187.103 46.4H185.503C185.716 47.2533 185.823 48.32 185.823 49.6C185.823 50.8267 185.716 51.8933 185.503 52.8H193.503ZM234.654 30.4C234.654 31.6267 234.547 32.6933 234.334 33.6H224.734C224.947 34.4533 225.054 35.52 225.054 36.8C225.054 38.0267 224.947 39.0933 224.734 40C224.947 40.8533 225.054 41.92 225.054 43.2C225.054 44.4267 224.947 45.4933 224.734 46.4C224.947 47.2533 225.054 48.32 225.054 49.6C225.054 50.8267 224.947 51.8933 224.734 52.8C224.947 53.6533 225.054 54.72 225.054 56C225.054 57.2267 224.947 58.2933 224.734 59.2C224.947 60.0533 225.054 61.12 225.054 62.4C225.054 63.6267 224.947 64.6933 224.734 65.6C224.947 66.4533 225.054 67.52 225.054 68.8C225.054 70.0267 224.947 71.0933 224.734 72H218.334C218.12 71.0933 218.014 70.0267 218.014 68.8C218.014 67.52 218.12 66.4533 218.334 65.6C218.12 64.6933 218.014 63.6267 218.014 62.4C218.014 61.12 218.12 60.0533 218.334 59.2C218.12 58.2933 218.014 57.2267 218.014 56C218.014 54.72 218.12 53.6533 218.334 52.8C218.12 51.8933 218.014 50.8267 218.014 49.6C218.014 48.32 218.12 47.2533 218.334 46.4C218.12 45.4933 218.014 44.4267 218.014 43.2C218.014 41.92 218.12 40.8533 218.334 40C218.12 39.0933 218.014 38.0267 218.014 36.8C218.014 35.52 218.12 34.4533 218.334 33.6H208.734C208.52 32.6933 208.414 31.6267 208.414 30.4C208.414 29.12 208.52 28.0533 208.734 27.2H234.334C234.547 28.0533 234.654 29.12 234.654 30.4ZM261.565 65.6C261.778 66.4533 261.885 67.52 261.885 68.8C261.885 70.0267 261.778 71.0933 261.565 72H245.565C245.352 71.0933 245.245 70.0267 245.245 68.8C245.245 67.52 245.352 66.4533 245.565 65.6H250.365C250.152 64.6933 250.045 63.6267 250.045 62.4C250.045 61.12 250.152 60.0533 250.365 59.2C250.152 58.2933 250.045 57.2267 250.045 56C250.045 54.72 250.152 53.6533 250.365 52.8C250.152 51.8933 250.045 50.8267 250.045 49.6C250.045 48.32 250.152 47.2533 250.365 46.4C250.152 45.4933 250.045 44.4267 250.045 43.2C250.045 41.92 250.152 40.8533 250.365 40C250.152 39.0933 250.045 38.0267 250.045 36.8C250.045 35.52 250.152 34.4533 250.365 33.6H245.565C245.352 32.6933 245.245 31.6267 245.245 30.4C245.245 29.12 245.352 28.0533 245.565 27.2H261.565C261.778 28.0533 261.885 29.12 261.885 30.4C261.885 31.6267 261.778 32.6933 261.565 33.6H256.765C256.978 34.4533 257.085 35.52 257.085 36.8C257.085 38.0267 256.978 39.0933 256.765 40C256.978 40.8533 257.085 41.92 257.085 43.2C257.085 44.4267 256.978 45.4933 256.765 46.4C256.978 47.2533 257.085 48.32 257.085 49.6C257.085 50.8267 256.978 51.8933 256.765 52.8C256.978 53.6533 257.085 54.72 257.085 56C257.085 57.2267 256.978 58.2933 256.765 59.2C256.978 60.0533 257.085 61.12 257.085 62.4C257.085 63.6267 256.978 64.6933 256.765 65.6H261.565ZM298.396 33.6C298.61 34.4533 298.716 35.52 298.716 36.8C298.716 38.0267 298.61 39.0933 298.396 40C298.61 40.8533 298.716 41.92 298.716 43.2C298.716 44.4267 298.61 45.4933 298.396 46.4C298.61 47.2533 298.716 48.32 298.716 49.6C298.716 50.8267 298.61 51.8933 298.396 52.8C298.61 53.6533 298.716 54.72 298.716 56C298.716 57.2267 298.61 58.2933 298.396 59.2C298.61 60.0533 298.716 61.12 298.716 62.4C298.716 63.6267 298.61 64.6933 298.396 65.6C298.61 66.4533 298.716 67.52 298.716 68.8C298.716 70.0267 298.61 71.0933 298.396 72H291.996C291.783 71.0933 291.676 70.0267 291.676 68.8C291.676 67.52 291.783 66.4533 291.996 65.6H287.996C287.783 64.6933 287.676 63.6267 287.676 62.4C287.676 61.12 287.783 60.0533 287.996 59.2H285.596C285.383 58.2933 285.276 57.2267 285.276 56C285.276 54.72 285.383 53.6533 285.596 52.8H282.396C282.183 51.8933 282.076 50.8267 282.076 49.6C282.076 48.32 282.183 47.2533 282.396 46.4H279.196C279.41 47.2533 279.516 48.32 279.516 49.6C279.516 50.8267 279.41 51.8933 279.196 52.8C279.41 53.6533 279.516 54.72 279.516 56C279.516 57.2267 279.41 58.2933 279.196 59.2C279.41 60.0533 279.516 61.12 279.516 62.4C279.516 63.6267 279.41 64.6933 279.196 65.6C279.41 66.4533 279.516 67.52 279.516 68.8C279.516 70.0267 279.41 71.0933 279.196 72H272.796C272.583 71.0933 272.476 70.0267 272.476 68.8C272.476 67.52 272.583 66.4533 272.796 65.6C272.583 64.6933 272.476 63.6267 272.476 62.4C272.476 61.12 272.583 60.0533 272.796 59.2C272.583 58.2933 272.476 57.2267 272.476 56C272.476 54.72 272.583 53.6533 272.796 52.8C272.583 51.8933 272.476 50.8267 272.476 49.6C272.476 48.32 272.583 47.2533 272.796 46.4C272.583 45.4933 272.476 44.4267 272.476 43.2C272.476 41.92 272.583 40.8533 272.796 40C272.583 39.0933 272.476 38.0267 272.476 36.8C272.476 35.52 272.583 34.4533 272.796 33.6C272.583 32.6933 272.476 31.6267 272.476 30.4C272.476 29.12 272.583 28.0533 272.796 27.2H280.796C281.01 28.0533 281.116 29.12 281.116 30.4C281.116 31.6267 281.01 32.6933 280.796 33.6H283.196C283.41 34.4533 283.516 35.52 283.516 36.8C283.516 38.0267 283.41 39.0933 283.196 40H285.596C285.81 40.8533 285.916 41.92 285.916 43.2C285.916 44.4267 285.81 45.4933 285.596 46.4H288.796C289.01 47.2533 289.116 48.32 289.116 49.6C289.116 50.8267 289.01 51.8933 288.796 52.8H291.996C291.783 51.8933 291.676 50.8267 291.676 49.6C291.676 48.32 291.783 47.2533 291.996 46.4C291.783 45.4933 291.676 44.4267 291.676 43.2C291.676 41.92 291.783 40.8533 291.996 40C291.783 39.0933 291.676 38.0267 291.676 36.8C291.676 35.52 291.783 34.4533 291.996 33.6C291.783 32.6933 291.676 31.6267 291.676 30.4C291.676 29.12 291.783 28.0533 291.996 27.2H298.396C298.61 28.0533 298.716 29.12 298.716 30.4C298.716 31.6267 298.61 32.6933 298.396 33.6ZM330.428 33.6C330.641 34.4533 330.748 35.52 330.748 36.8C330.748 38.0267 330.641 39.0933 330.428 40C330.641 40.8533 330.748 41.92 330.748 43.2C330.748 44.4267 330.641 45.4933 330.428 46.4C330.641 47.2533 330.748 48.32 330.748 49.6C330.748 50.8267 330.641 51.8933 330.428 52.8C330.641 53.6533 330.748 54.72 330.748 56C330.748 57.2267 330.641 58.2933 330.428 59.2C330.641 60.0533 330.748 61.12 330.748 62.4C330.748 63.6267 330.641 64.6933 330.428 65.6H327.228C327.441 66.4533 327.548 67.52 327.548 68.8C327.548 70.0267 327.441 71.0933 327.228 72H308.028C307.814 71.0933 307.708 70.0267 307.708 68.8C307.708 67.52 307.814 66.4533 308.028 65.6H304.828C304.614 64.6933 304.508 63.6267 304.508 62.4C304.508 61.12 304.614 60.0533 304.828 59.2C304.614 58.2933 304.508 57.2267 304.508 56C304.508 54.72 304.614 53.6533 304.828 52.8C304.614 51.8933 304.508 50.8267 304.508 49.6C304.508 48.32 304.614 47.2533 304.828 46.4C304.614 45.4933 304.508 44.4267 304.508 43.2C304.508 41.92 304.614 40.8533 304.828 40C304.614 39.0933 304.508 38.0267 304.508 36.8C304.508 35.52 304.614 34.4533 304.828 33.6C304.614 32.6933 304.508 31.6267 304.508 30.4C304.508 29.12 304.614 28.0533 304.828 27.2H311.228C311.441 28.0533 311.548 29.12 311.548 30.4C311.548 31.6267 311.441 32.6933 311.228 33.6C311.441 34.4533 311.548 35.52 311.548 36.8C311.548 38.0267 311.441 39.0933 311.228 40C311.441 40.8533 311.548 41.92 311.548 43.2C311.548 44.4267 311.441 45.4933 311.228 46.4C311.441 47.2533 311.548 48.32 311.548 49.6C311.548 50.8267 311.441 51.8933 311.228 52.8C311.441 53.6533 311.548 54.72 311.548 56C311.548 57.2267 311.441 58.2933 311.228 59.2C311.441 60.0533 311.548 61.12 311.548 62.4C311.548 63.6267 311.441 64.6933 311.228 65.6H324.028C323.814 64.6933 323.708 63.6267 323.708 62.4C323.708 61.12 323.814 60.0533 324.028 59.2C323.814 58.2933 323.708 57.2267 323.708 56C323.708 54.72 323.814 53.6533 324.028 52.8C323.814 51.8933 323.708 50.8267 323.708 49.6C323.708 48.32 323.814 47.2533 324.028 46.4C323.814 45.4933 323.708 44.4267 323.708 43.2C323.708 41.92 323.814 40.8533 324.028 40C323.814 39.0933 323.708 38.0267 323.708 36.8C323.708 35.52 323.814 34.4533 324.028 33.6C323.814 32.6933 323.708 31.6267 323.708 30.4C323.708 29.12 323.814 28.0533 324.028 27.2H330.428C330.641 28.0533 330.748 29.12 330.748 30.4C330.748 31.6267 330.641 32.6933 330.428 33.6ZM362.459 33.6C362.672 34.4533 362.779 35.52 362.779 36.8C362.779 38.0267 362.672 39.0933 362.459 40C362.672 40.8533 362.779 41.92 362.779 43.2C362.779 44.4267 362.672 45.4933 362.459 46.4C362.672 47.2533 362.779 48.32 362.779 49.6C362.779 50.8267 362.672 51.8933 362.459 52.8C362.672 53.6533 362.779 54.72 362.779 56C362.779 57.2267 362.672 58.2933 362.459 59.2C362.672 60.0533 362.779 61.12 362.779 62.4C362.779 63.6267 362.672 64.6933 362.459 65.6C362.672 66.4533 362.779 67.52 362.779 68.8C362.779 70.0267 362.672 71.0933 362.459 72H356.059C355.845 71.0933 355.739 70.0267 355.739 68.8C355.739 67.52 355.845 66.4533 356.059 65.6C355.845 64.6933 355.739 63.6267 355.739 62.4C355.739 61.12 355.845 60.0533 356.059 59.2C355.845 58.2933 355.739 57.2267 355.739 56C355.739 54.72 355.845 53.6533 356.059 52.8C355.845 51.8933 355.739 50.8267 355.739 49.6C355.739 48.32 355.845 47.2533 356.059 46.4C355.845 45.4933 355.739 44.4267 355.739 43.2C355.739 41.92 355.845 40.8533 356.059 40H353.659C353.872 40.8533 353.979 41.92 353.979 43.2C353.979 44.4267 353.872 45.4933 353.659 46.4C353.872 47.2533 353.979 48.32 353.979 49.6C353.979 50.8267 353.872 51.8933 353.659 52.8H352.059C352.272 53.6533 352.379 54.72 352.379 56C352.379 57.2267 352.272 58.2933 352.059 59.2C352.272 60.0533 352.379 61.12 352.379 62.4C352.379 63.6267 352.272 64.6933 352.059 65.6H347.259C347.045 64.6933 346.939 63.6267 346.939 62.4C346.939 61.12 347.045 60.0533 347.259 59.2C347.045 58.2933 346.939 57.2267 346.939 56C346.939 54.72 347.045 53.6533 347.259 52.8H345.659C345.445 51.8933 345.339 50.8267 345.339 49.6C345.339 48.32 345.445 47.2533 345.659 46.4C345.445 45.4933 345.339 44.4267 345.339 43.2C345.339 41.92 345.445 40.8533 345.659 40H343.259C343.472 40.8533 343.579 41.92 343.579 43.2C343.579 44.4267 343.472 45.4933 343.259 46.4C343.472 47.2533 343.579 48.32 343.579 49.6C343.579 50.8267 343.472 51.8933 343.259 52.8C343.472 53.6533 343.579 54.72 343.579 56C343.579 57.2267 343.472 58.2933 343.259 59.2C343.472 60.0533 343.579 61.12 343.579 62.4C343.579 63.6267 343.472 64.6933 343.259 65.6C343.472 66.4533 343.579 67.52 343.579 68.8C343.579 70.0267 343.472 71.0933 343.259 72H336.859C336.645 71.0933 336.539 70.0267 336.539 68.8C336.539 67.52 336.645 66.4533 336.859 65.6C336.645 64.6933 336.539 63.6267 336.539 62.4C336.539 61.12 336.645 60.0533 336.859 59.2C336.645 58.2933 336.539 57.2267 336.539 56C336.539 54.72 336.645 53.6533 336.859 52.8C336.645 51.8933 336.539 50.8267 336.539 49.6C336.539 48.32 336.645 47.2533 336.859 46.4C336.645 45.4933 336.539 44.4267 336.539 43.2C336.539 41.92 336.645 40.8533 336.859 40C336.645 39.0933 336.539 38.0267 336.539 36.8C336.539 35.52 336.645 34.4533 336.859 33.6C336.645 32.6933 336.539 31.6267 336.539 30.4C336.539 29.12 336.645 28.0533 336.859 27.2H344.859C345.072 28.0533 345.179 29.12 345.179 30.4C345.179 31.6267 345.072 32.6933 344.859 33.6H347.259C347.472 34.4533 347.579 35.52 347.579 36.8C347.579 38.0267 347.472 39.0933 347.259 40H348.459C348.672 40.8533 348.779 41.92 348.779 43.2C348.779 44.4267 348.672 45.4933 348.459 46.4H350.859C350.645 45.4933 350.539 44.4267 350.539 43.2C350.539 41.92 350.645 40.8533 350.859 40H352.059C351.845 39.0933 351.739 38.0267 351.739 36.8C351.739 35.52 351.845 34.4533 352.059 33.6H354.459C354.245 32.6933 354.139 31.6267 354.139 30.4C354.139 29.12 354.245 28.0533 354.459 27.2H362.459C362.672 28.0533 362.779 29.12 362.779 30.4C362.779 31.6267 362.672 32.6933 362.459 33.6ZM426.521 52.8C426.735 53.6533 426.841 54.72 426.841 56C426.841 57.2267 426.735 58.2933 426.521 59.2C426.735 60.0533 426.841 61.12 426.841 62.4C426.841 63.6267 426.735 64.6933 426.521 65.6H423.321C423.535 66.4533 423.641 67.52 423.641 68.8C423.641 70.0267 423.535 71.0933 423.321 72H404.121C403.908 71.0933 403.801 70.0267 403.801 68.8C403.801 67.52 403.908 66.4533 404.121 65.6H400.921C400.708 64.6933 400.601 63.6267 400.601 62.4C400.601 61.12 400.708 60.0533 400.921 59.2H407.321C407.535 60.0533 407.641 61.12 407.641 62.4C407.641 63.6267 407.535 64.6933 407.321 65.6H420.121C419.908 64.6933 419.801 63.6267 419.801 62.4C419.801 61.12 419.908 60.0533 420.121 59.2C419.908 58.2933 419.801 57.2267 419.801 56C419.801 54.72 419.908 53.6533 420.121 52.8H404.121C403.908 51.8933 403.801 50.8267 403.801 49.6C403.801 48.32 403.908 47.2533 404.121 46.4H400.921C400.708 45.4933 400.601 44.4267 400.601 43.2C400.601 41.92 400.708 40.8533 400.921 40C400.708 39.0933 400.601 38.0267 400.601 36.8C400.601 35.52 400.708 34.4533 400.921 33.6H404.121C403.908 32.6933 403.801 31.6267 403.801 30.4C403.801 29.12 403.908 28.0533 404.121 27.2H423.321C423.535 28.0533 423.641 29.12 423.641 30.4C423.641 31.6267 423.535 32.6933 423.321 33.6H426.521C426.735 34.4533 426.841 35.52 426.841 36.8C426.841 38.0267 426.735 39.0933 426.521 40H420.121C419.908 39.0933 419.801 38.0267 419.801 36.8C419.801 35.52 419.908 34.4533 420.121 33.6H407.321C407.535 34.4533 407.641 35.52 407.641 36.8C407.641 38.0267 407.535 39.0933 407.321 40C407.535 40.8533 407.641 41.92 407.641 43.2C407.641 44.4267 407.535 45.4933 407.321 46.4H423.321C423.535 47.2533 423.641 48.32 423.641 49.6C423.641 50.8267 423.535 51.8933 423.321 52.8H426.521ZM458.873 36.8C458.873 38.0267 458.766 39.0933 458.553 40C458.766 40.8533 458.873 41.92 458.873 43.2C458.873 44.4267 458.766 45.4933 458.553 46.4H455.353C455.566 47.2533 455.673 48.32 455.673 49.6C455.673 50.8267 455.566 51.8933 455.353 52.8H439.353C439.566 53.6533 439.673 54.72 439.673 56C439.673 57.2267 439.566 58.2933 439.353 59.2C439.566 60.0533 439.673 61.12 439.673 62.4C439.673 63.6267 439.566 64.6933 439.353 65.6C439.566 66.4533 439.673 67.52 439.673 68.8C439.673 70.0267 439.566 71.0933 439.353 72H432.953C432.739 71.0933 432.633 70.0267 432.633 68.8C432.633 67.52 432.739 66.4533 432.953 65.6C432.739 64.6933 432.633 63.6267 432.633 62.4C432.633 61.12 432.739 60.0533 432.953 59.2C432.739 58.2933 432.633 57.2267 432.633 56C432.633 54.72 432.739 53.6533 432.953 52.8C432.739 51.8933 432.633 50.8267 432.633 49.6C432.633 48.32 432.739 47.2533 432.953 46.4C432.739 45.4933 432.633 44.4267 432.633 43.2C432.633 41.92 432.739 40.8533 432.953 40C432.739 39.0933 432.633 38.0267 432.633 36.8C432.633 35.52 432.739 34.4533 432.953 33.6C432.739 32.6933 432.633 31.6267 432.633 30.4C432.633 29.12 432.739 28.0533 432.953 27.2H455.353C455.566 28.0533 455.673 29.12 455.673 30.4C455.673 31.6267 455.566 32.6933 455.353 33.6H458.553C458.766 34.4533 458.873 35.52 458.873 36.8ZM452.153 46.4C451.939 45.4933 451.833 44.4267 451.833 43.2C451.833 41.92 451.939 40.8533 452.153 40C451.939 39.0933 451.833 38.0267 451.833 36.8C451.833 35.52 451.939 34.4533 452.153 33.6H439.353C439.566 34.4533 439.673 35.52 439.673 36.8C439.673 38.0267 439.566 39.0933 439.353 40C439.566 40.8533 439.673 41.92 439.673 43.2C439.673 44.4267 439.566 45.4933 439.353 46.4H452.153ZM490.584 46.4C490.797 47.2533 490.904 48.32 490.904 49.6C490.904 50.8267 490.797 51.8933 490.584 52.8C490.797 53.6533 490.904 54.72 490.904 56C490.904 57.2267 490.797 58.2933 490.584 59.2H488.184C488.397 60.0533 488.504 61.12 488.504 62.4C488.504 63.6267 488.397 64.6933 488.184 65.6H484.184C484.397 66.4533 484.504 67.52 484.504 68.8C484.504 70.0267 484.397 71.0933 484.184 72H471.384C471.17 71.0933 471.064 70.0267 471.064 68.8C471.064 67.52 471.17 66.4533 471.384 65.6H467.384C467.17 64.6933 467.064 63.6267 467.064 62.4C467.064 61.12 467.17 60.0533 467.384 59.2H464.984C464.77 58.2933 464.664 57.2267 464.664 56C464.664 54.72 464.77 53.6533 464.984 52.8C464.77 51.8933 464.664 50.8267 464.664 49.6C464.664 48.32 464.77 47.2533 464.984 46.4C464.77 45.4933 464.664 44.4267 464.664 43.2C464.664 41.92 464.77 40.8533 464.984 40H467.384C467.17 39.0933 467.064 38.0267 467.064 36.8C467.064 35.52 467.17 34.4533 467.384 33.6H471.384C471.17 32.6933 471.064 31.6267 471.064 30.4C471.064 29.12 471.17 28.0533 471.384 27.2H484.184C484.397 28.0533 484.504 29.12 484.504 30.4C484.504 31.6267 484.397 32.6933 484.184 33.6H488.184C488.397 34.4533 488.504 35.52 488.504 36.8C488.504 38.0267 488.397 39.0933 488.184 40H490.584C490.797 40.8533 490.904 41.92 490.904 43.2C490.904 44.4267 490.797 45.4933 490.584 46.4ZM484.184 59.2C483.97 58.2933 483.864 57.2267 483.864 56C483.864 54.72 483.97 53.6533 484.184 52.8C483.97 51.8933 483.864 50.8267 483.864 49.6C483.864 48.32 483.97 47.2533 484.184 46.4C483.97 45.4933 483.864 44.4267 483.864 43.2C483.864 41.92 483.97 40.8533 484.184 40H481.784C481.57 39.0933 481.464 38.0267 481.464 36.8C481.464 35.52 481.57 34.4533 481.784 33.6H473.784C473.997 34.4533 474.104 35.52 474.104 36.8C474.104 38.0267 473.997 39.0933 473.784 40H471.384C471.597 40.8533 471.704 41.92 471.704 43.2C471.704 44.4267 471.597 45.4933 471.384 46.4C471.597 47.2533 471.704 48.32 471.704 49.6C471.704 50.8267 471.597 51.8933 471.384 52.8C471.597 53.6533 471.704 54.72 471.704 56C471.704 57.2267 471.597 58.2933 471.384 59.2H473.784C473.997 60.0533 474.104 61.12 474.104 62.4C474.104 63.6267 473.997 64.6933 473.784 65.6H481.784C481.57 64.6933 481.464 63.6267 481.464 62.4C481.464 61.12 481.57 60.0533 481.784 59.2H484.184ZM522.615 33.6C522.828 34.4533 522.935 35.52 522.935 36.8C522.935 38.0267 522.828 39.0933 522.615 40C522.828 40.8533 522.935 41.92 522.935 43.2C522.935 44.4267 522.828 45.4933 522.615 46.4C522.828 47.2533 522.935 48.32 522.935 49.6C522.935 50.8267 522.828 51.8933 522.615 52.8C522.828 53.6533 522.935 54.72 522.935 56C522.935 57.2267 522.828 58.2933 522.615 59.2C522.828 60.0533 522.935 61.12 522.935 62.4C522.935 63.6267 522.828 64.6933 522.615 65.6C522.828 66.4533 522.935 67.52 522.935 68.8C522.935 70.0267 522.828 71.0933 522.615 72H516.215C516.002 71.0933 515.895 70.0267 515.895 68.8C515.895 67.52 516.002 66.4533 516.215 65.6H512.215C512.002 64.6933 511.895 63.6267 511.895 62.4C511.895 61.12 512.002 60.0533 512.215 59.2H509.815C509.602 58.2933 509.495 57.2267 509.495 56C509.495 54.72 509.602 53.6533 509.815 52.8H506.615C506.402 51.8933 506.295 50.8267 506.295 49.6C506.295 48.32 506.402 47.2533 506.615 46.4H503.415C503.628 47.2533 503.735 48.32 503.735 49.6C503.735 50.8267 503.628 51.8933 503.415 52.8C503.628 53.6533 503.735 54.72 503.735 56C503.735 57.2267 503.628 58.2933 503.415 59.2C503.628 60.0533 503.735 61.12 503.735 62.4C503.735 63.6267 503.628 64.6933 503.415 65.6C503.628 66.4533 503.735 67.52 503.735 68.8C503.735 70.0267 503.628 71.0933 503.415 72H497.015C496.802 71.0933 496.695 70.0267 496.695 68.8C496.695 67.52 496.802 66.4533 497.015 65.6C496.802 64.6933 496.695 63.6267 496.695 62.4C496.695 61.12 496.802 60.0533 497.015 59.2C496.802 58.2933 496.695 57.2267 496.695 56C496.695 54.72 496.802 53.6533 497.015 52.8C496.802 51.8933 496.695 50.8267 496.695 49.6C496.695 48.32 496.802 47.2533 497.015 46.4C496.802 45.4933 496.695 44.4267 496.695 43.2C496.695 41.92 496.802 40.8533 497.015 40C496.802 39.0933 496.695 38.0267 496.695 36.8C496.695 35.52 496.802 34.4533 497.015 33.6C496.802 32.6933 496.695 31.6267 496.695 30.4C496.695 29.12 496.802 28.0533 497.015 27.2H505.015C505.228 28.0533 505.335 29.12 505.335 30.4C505.335 31.6267 505.228 32.6933 505.015 33.6H507.415C507.628 34.4533 507.735 35.52 507.735 36.8C507.735 38.0267 507.628 39.0933 507.415 40H509.815C510.028 40.8533 510.135 41.92 510.135 43.2C510.135 44.4267 510.028 45.4933 509.815 46.4H513.015C513.228 47.2533 513.335 48.32 513.335 49.6C513.335 50.8267 513.228 51.8933 513.015 52.8H516.215C516.002 51.8933 515.895 50.8267 515.895 49.6C515.895 48.32 516.002 47.2533 516.215 46.4C516.002 45.4933 515.895 44.4267 515.895 43.2C515.895 41.92 516.002 40.8533 516.215 40C516.002 39.0933 515.895 38.0267 515.895 36.8C515.895 35.52 516.002 34.4533 516.215 33.6C516.002 32.6933 515.895 31.6267 515.895 30.4C515.895 29.12 516.002 28.0533 516.215 27.2H522.615C522.828 28.0533 522.935 29.12 522.935 30.4C522.935 31.6267 522.828 32.6933 522.615 33.6ZM554.646 52.8C554.86 53.6533 554.966 54.72 554.966 56C554.966 57.2267 554.86 58.2933 554.646 59.2C554.86 60.0533 554.966 61.12 554.966 62.4C554.966 63.6267 554.86 64.6933 554.646 65.6H551.446C551.66 66.4533 551.766 67.52 551.766 68.8C551.766 70.0267 551.66 71.0933 551.446 72H532.246C532.033 71.0933 531.926 70.0267 531.926 68.8C531.926 67.52 532.033 66.4533 532.246 65.6H529.046C528.833 64.6933 528.726 63.6267 528.726 62.4C528.726 61.12 528.833 60.0533 529.046 59.2H535.446C535.66 60.0533 535.766 61.12 535.766 62.4C535.766 63.6267 535.66 64.6933 535.446 65.6H548.246C548.033 64.6933 547.926 63.6267 547.926 62.4C547.926 61.12 548.033 60.0533 548.246 59.2C548.033 58.2933 547.926 57.2267 547.926 56C547.926 54.72 548.033 53.6533 548.246 52.8H532.246C532.033 51.8933 531.926 50.8267 531.926 49.6C531.926 48.32 532.033 47.2533 532.246 46.4H529.046C528.833 45.4933 528.726 44.4267 528.726 43.2C528.726 41.92 528.833 40.8533 529.046 40C528.833 39.0933 528.726 38.0267 528.726 36.8C528.726 35.52 528.833 34.4533 529.046 33.6H532.246C532.033 32.6933 531.926 31.6267 531.926 30.4C531.926 29.12 532.033 28.0533 532.246 27.2H551.446C551.66 28.0533 551.766 29.12 551.766 30.4C551.766 31.6267 551.66 32.6933 551.446 33.6H554.646C554.86 34.4533 554.966 35.52 554.966 36.8C554.966 38.0267 554.86 39.0933 554.646 40H548.246C548.033 39.0933 547.926 38.0267 547.926 36.8C547.926 35.52 548.033 34.4533 548.246 33.6H535.446C535.66 34.4533 535.766 35.52 535.766 36.8C535.766 38.0267 535.66 39.0933 535.446 40C535.66 40.8533 535.766 41.92 535.766 43.2C535.766 44.4267 535.66 45.4933 535.446 46.4H551.446C551.66 47.2533 551.766 48.32 551.766 49.6C551.766 50.8267 551.66 51.8933 551.446 52.8H554.646ZM586.678 46.4C586.891 47.2533 586.998 48.32 586.998 49.6C586.998 50.8267 586.891 51.8933 586.678 52.8C586.891 53.6533 586.998 54.72 586.998 56C586.998 57.2267 586.891 58.2933 586.678 59.2H584.278C584.491 60.0533 584.598 61.12 584.598 62.4C584.598 63.6267 584.491 64.6933 584.278 65.6H580.278C580.491 66.4533 580.598 67.52 580.598 68.8C580.598 70.0267 580.491 71.0933 580.278 72H567.478C567.264 71.0933 567.158 70.0267 567.158 68.8C567.158 67.52 567.264 66.4533 567.478 65.6H563.478C563.264 64.6933 563.158 63.6267 563.158 62.4C563.158 61.12 563.264 60.0533 563.478 59.2H561.078C560.864 58.2933 560.758 57.2267 560.758 56C560.758 54.72 560.864 53.6533 561.078 52.8C560.864 51.8933 560.758 50.8267 560.758 49.6C560.758 48.32 560.864 47.2533 561.078 46.4C560.864 45.4933 560.758 44.4267 560.758 43.2C560.758 41.92 560.864 40.8533 561.078 40H563.478C563.264 39.0933 563.158 38.0267 563.158 36.8C563.158 35.52 563.264 34.4533 563.478 33.6H567.478C567.264 32.6933 567.158 31.6267 567.158 30.4C567.158 29.12 567.264 28.0533 567.478 27.2H580.278C580.491 28.0533 580.598 29.12 580.598 30.4C580.598 31.6267 580.491 32.6933 580.278 33.6H584.278C584.491 34.4533 584.598 35.52 584.598 36.8C584.598 38.0267 584.491 39.0933 584.278 40H586.678C586.891 40.8533 586.998 41.92 586.998 43.2C586.998 44.4267 586.891 45.4933 586.678 46.4ZM580.278 59.2C580.064 58.2933 579.958 57.2267 579.958 56C579.958 54.72 580.064 53.6533 580.278 52.8C580.064 51.8933 579.958 50.8267 579.958 49.6C579.958 48.32 580.064 47.2533 580.278 46.4C580.064 45.4933 579.958 44.4267 579.958 43.2C579.958 41.92 580.064 40.8533 580.278 40H577.878C577.664 39.0933 577.558 38.0267 577.558 36.8C577.558 35.52 577.664 34.4533 577.878 33.6H569.878C570.091 34.4533 570.198 35.52 570.198 36.8C570.198 38.0267 570.091 39.0933 569.878 40H567.478C567.691 40.8533 567.798 41.92 567.798 43.2C567.798 44.4267 567.691 45.4933 567.478 46.4C567.691 47.2533 567.798 48.32 567.798 49.6C567.798 50.8267 567.691 51.8933 567.478 52.8C567.691 53.6533 567.798 54.72 567.798 56C567.798 57.2267 567.691 58.2933 567.478 59.2H569.878C570.091 60.0533 570.198 61.12 570.198 62.4C570.198 63.6267 570.091 64.6933 569.878 65.6H577.878C577.664 64.6933 577.558 63.6267 577.558 62.4C577.558 61.12 577.664 60.0533 577.878 59.2H580.278ZM618.709 65.6C618.922 66.4533 619.029 67.52 619.029 68.8C619.029 70.0267 618.922 71.0933 618.709 72H612.309C612.095 71.0933 611.989 70.0267 611.989 68.8C611.989 67.52 612.095 66.4533 612.309 65.6H609.909C609.695 64.6933 609.589 63.6267 609.589 62.4C609.589 61.12 609.695 60.0533 609.909 59.2H607.509C607.295 58.2933 607.189 57.2267 607.189 56C607.189 54.72 607.295 53.6533 607.509 52.8H599.509C599.722 53.6533 599.829 54.72 599.829 56C599.829 57.2267 599.722 58.2933 599.509 59.2C599.722 60.0533 599.829 61.12 599.829 62.4C599.829 63.6267 599.722 64.6933 599.509 65.6C599.722 66.4533 599.829 67.52 599.829 68.8C599.829 70.0267 599.722 71.0933 599.509 72H593.109C592.895 71.0933 592.789 70.0267 592.789 68.8C592.789 67.52 592.895 66.4533 593.109 65.6C592.895 64.6933 592.789 63.6267 592.789 62.4C592.789 61.12 592.895 60.0533 593.109 59.2C592.895 58.2933 592.789 57.2267 592.789 56C592.789 54.72 592.895 53.6533 593.109 52.8C592.895 51.8933 592.789 50.8267 592.789 49.6C592.789 48.32 592.895 47.2533 593.109 46.4C592.895 45.4933 592.789 44.4267 592.789 43.2C592.789 41.92 592.895 40.8533 593.109 40C592.895 39.0933 592.789 38.0267 592.789 36.8C592.789 35.52 592.895 34.4533 593.109 33.6C592.895 32.6933 592.789 31.6267 592.789 30.4C592.789 29.12 592.895 28.0533 593.109 27.2H615.509C615.722 28.0533 615.829 29.12 615.829 30.4C615.829 31.6267 615.722 32.6933 615.509 33.6H618.709C618.922 34.4533 619.029 35.52 619.029 36.8C619.029 38.0267 618.922 39.0933 618.709 40H617.109C617.322 40.8533 617.429 41.92 617.429 43.2C617.429 44.4267 617.322 45.4933 617.109 46.4H612.309C612.522 47.2533 612.629 48.32 612.629 49.6C612.629 50.8267 612.522 51.8933 612.309 52.8H613.909C614.122 53.6533 614.229 54.72 614.229 56C614.229 57.2267 614.122 58.2933 613.909 59.2H616.309C616.522 60.0533 616.629 61.12 616.629 62.4C616.629 63.6267 616.522 64.6933 616.309 65.6H618.709ZM610.709 46.4C610.495 45.4933 610.389 44.4267 610.389 43.2C610.389 41.92 610.495 40.8533 610.709 40C610.495 39.0933 610.389 38.0267 610.389 36.8C610.389 35.52 610.495 34.4533 610.709 33.6H599.509C599.722 34.4533 599.829 35.52 599.829 36.8C599.829 38.0267 599.722 39.0933 599.509 40C599.722 40.8533 599.829 41.92 599.829 43.2C599.829 44.4267 599.722 45.4933 599.509 46.4H610.709ZM650.74 52.8C650.953 53.6533 651.06 54.72 651.06 56C651.06 57.2267 650.953 58.2933 650.74 59.2C650.953 60.0533 651.06 61.12 651.06 62.4C651.06 63.6267 650.953 64.6933 650.74 65.6H647.54C647.753 66.4533 647.86 67.52 647.86 68.8C647.86 70.0267 647.753 71.0933 647.54 72H628.34C628.127 71.0933 628.02 70.0267 628.02 68.8C628.02 67.52 628.127 66.4533 628.34 65.6H625.14C624.927 64.6933 624.82 63.6267 624.82 62.4C624.82 61.12 624.927 60.0533 625.14 59.2H631.54C631.753 60.0533 631.86 61.12 631.86 62.4C631.86 63.6267 631.753 64.6933 631.54 65.6H644.34C644.127 64.6933 644.02 63.6267 644.02 62.4C644.02 61.12 644.127 60.0533 644.34 59.2C644.127 58.2933 644.02 57.2267 644.02 56C644.02 54.72 644.127 53.6533 644.34 52.8H628.34C628.127 51.8933 628.02 50.8267 628.02 49.6C628.02 48.32 628.127 47.2533 628.34 46.4H625.14C624.927 45.4933 624.82 44.4267 624.82 43.2C624.82 41.92 624.927 40.8533 625.14 40C624.927 39.0933 624.82 38.0267 624.82 36.8C624.82 35.52 624.927 34.4533 625.14 33.6H628.34C628.127 32.6933 628.02 31.6267 628.02 30.4C628.02 29.12 628.127 28.0533 628.34 27.2H647.54C647.753 28.0533 647.86 29.12 647.86 30.4C647.86 31.6267 647.753 32.6933 647.54 33.6H650.74C650.953 34.4533 651.06 35.52 651.06 36.8C651.06 38.0267 650.953 39.0933 650.74 40H644.34C644.127 39.0933 644.02 38.0267 644.02 36.8C644.02 35.52 644.127 34.4533 644.34 33.6H631.54C631.753 34.4533 631.86 35.52 631.86 36.8C631.86 38.0267 631.753 39.0933 631.54 40C631.753 40.8533 631.86 41.92 631.86 43.2C631.86 44.4267 631.753 45.4933 631.54 46.4H647.54C647.753 47.2533 647.86 48.32 647.86 49.6C647.86 50.8267 647.753 51.8933 647.54 52.8H650.74Z" fill="white"/>
<rect width="64" height="64" transform="translate(1520 16)" fill="white"/>
<path d="M1537.66 62.3356H1549.95V66.4323H1533.56V50.0475H1537.66V62.3356ZM1541.76 62.3346H1537.66V58.2389H1541.76V62.3346ZM1545.86 58.2379H1541.76V54.1422H1545.86V58.2379ZM1549.95 54.1412H1545.86V50.0455H1549.95V54.1412ZM1562.24 41.8561H1558.14V45.9498H1554.05V41.8541H1558.14V37.7604H1562.24V41.8561ZM1570.43 45.9498H1566.33V33.6617H1566.33V37.7555H1562.23V33.6617H1554.05V29.566H1570.43V45.9498Z" fill="black"/>
<rect width="64" height="64" transform="translate(1600 16)" fill="white"/>
<path d="M1625.86 54.1412V58.2369H1621.76V62.3307H1617.67V58.235H1621.76V54.1412H1625.86ZM1642.25 58.235H1646.34V62.3307H1642.24V58.2369H1638.15V54.1412H1642.25V58.235ZM1629.96 54.1403H1625.86V50.0446H1629.96V54.1403ZM1638.15 54.1403H1634.06V50.0446H1638.15V54.1403ZM1634.05 50.0436H1629.96V45.9479H1634.05V50.0436ZM1629.95 45.9498H1625.86V41.8541H1629.95V45.9498ZM1638.15 45.9498H1634.05V41.8541H1638.15V45.9498ZM1621.76 37.7535H1625.86V41.8492H1621.76V37.7555H1617.67V33.6598H1621.76V37.7535ZM1646.34 37.7555H1642.24V41.8492H1638.15V37.7535H1642.24V33.6598H1646.34V37.7555Z" fill="black"/>
<mask id="path-5-inside-1_1_58" fill="white">
<path d="M0 96H1680V500H0V96Z"/>
</mask>
<path d="M1680 500V508H1688V500H1680ZM0 500H-8V508H0V500ZM1680 96H1672V500H1680H1688V96H1680ZM1680 500V492H0V500V508H1680V500ZM0 500H8V96H0H-8V500H0Z" fill="url(#paint1_linear_1_58)" mask="url(#path-5-inside-1_1_58)"/>
<defs>
<linearGradient id="paint0_linear_1_58" x1="1680" y1="48" x2="0" y2="48" gradientUnits="userSpaceOnUse">
<stop stop-color="#A16FFF"/>
<stop offset="1" stop-color="#6963FF"/>
</linearGradient>
<linearGradient id="paint1_linear_1_58" x1="1680" y1="298" x2="0" y2="298" gradientUnits="userSpaceOnUse">
<stop stop-color="#A16FFF"/>
<stop offset="1" stop-color="#6963FF"/>
</linearGradient>
</defs>
</svg>
