<svg width="1680" height="500" viewBox="0 0 1680 500" fill="none" xmlns="http://www.w3.org/2000/svg">
<rect width="1680" height="96" fill="url(#paint0_linear_1_36)"/>
<path d="M33.9201 65.9198H28.8V50.5605H33.9201V65.9198ZM44.1604 65.9198H39.0402V40.3202H44.1604V65.9198ZM54.3996 65.9198H49.2805V30.08H54.3996V65.9198ZM64.6398 65.9198H59.5197V50.5605H64.6398V65.9198Z" fill="white"/>
<path d="M138.56 30.4C138.56 31.6267 138.453 32.6933 138.24 33.6H128.64C128.853 34.4533 128.96 35.52 128.96 36.8C128.96 38.0267 128.853 39.0933 128.64 40C128.853 40.8533 128.96 41.92 128.96 43.2C128.96 44.4267 128.853 45.4933 128.64 46.4C128.853 47.2533 128.96 48.32 128.96 49.6C128.96 50.8267 128.853 51.8933 128.64 52.8C128.853 53.6533 128.96 54.72 128.96 56C128.96 57.2267 128.853 58.2933 128.64 59.2C128.853 60.0533 128.96 61.12 128.96 62.4C128.96 63.6267 128.853 64.6933 128.64 65.6C128.853 66.4533 128.96 67.52 128.96 68.8C128.96 70.0267 128.853 71.0933 128.64 72H122.24C122.027 71.0933 121.92 70.0267 121.92 68.8C121.92 67.52 122.027 66.4533 122.24 65.6C122.027 64.6933 121.92 63.6267 121.92 62.4C121.92 61.12 122.027 60.0533 122.24 59.2C122.027 58.2933 121.92 57.2267 121.92 56C121.92 54.72 122.027 53.6533 122.24 52.8C122.027 51.8933 121.92 50.8267 121.92 49.6C121.92 48.32 122.027 47.2533 122.24 46.4C122.027 45.4933 121.92 44.4267 121.92 43.2C121.92 41.92 122.027 40.8533 122.24 40C122.027 39.0933 121.92 38.0267 121.92 36.8C121.92 35.52 122.027 34.4533 122.24 33.6H112.64C112.427 32.6933 112.32 31.6267 112.32 30.4C112.32 29.12 112.427 28.0533 112.64 27.2H138.24C138.453 28.0533 138.56 29.12 138.56 30.4ZM165.471 65.6C165.685 66.4533 165.791 67.52 165.791 68.8C165.791 70.0267 165.685 71.0933 165.471 72H149.471C149.258 71.0933 149.151 70.0267 149.151 68.8C149.151 67.52 149.258 66.4533 149.471 65.6H154.271C154.058 64.6933 153.951 63.6267 153.951 62.4C153.951 61.12 154.058 60.0533 154.271 59.2C154.058 58.2933 153.951 57.2267 153.951 56C153.951 54.72 154.058 53.6533 154.271 52.8C154.058 51.8933 153.951 50.8267 153.951 49.6C153.951 48.32 154.058 47.2533 154.271 46.4C154.058 45.4933 153.951 44.4267 153.951 43.2C153.951 41.92 154.058 40.8533 154.271 40C154.058 39.0933 153.951 38.0267 153.951 36.8C153.951 35.52 154.058 34.4533 154.271 33.6H149.471C149.258 32.6933 149.151 31.6267 149.151 30.4C149.151 29.12 149.258 28.0533 149.471 27.2H165.471C165.685 28.0533 165.791 29.12 165.791 30.4C165.791 31.6267 165.685 32.6933 165.471 33.6H160.671C160.885 34.4533 160.991 35.52 160.991 36.8C160.991 38.0267 160.885 39.0933 160.671 40C160.885 40.8533 160.991 41.92 160.991 43.2C160.991 44.4267 160.885 45.4933 160.671 46.4C160.885 47.2533 160.991 48.32 160.991 49.6C160.991 50.8267 160.885 51.8933 160.671 52.8C160.885 53.6533 160.991 54.72 160.991 56C160.991 57.2267 160.885 58.2933 160.671 59.2C160.885 60.0533 160.991 61.12 160.991 62.4C160.991 63.6267 160.885 64.6933 160.671 65.6H165.471ZM202.623 30.4C202.623 31.6267 202.516 32.6933 202.303 33.6H192.703C192.916 34.4533 193.023 35.52 193.023 36.8C193.023 38.0267 192.916 39.0933 192.703 40C192.916 40.8533 193.023 41.92 193.023 43.2C193.023 44.4267 192.916 45.4933 192.703 46.4C192.916 47.2533 193.023 48.32 193.023 49.6C193.023 50.8267 192.916 51.8933 192.703 52.8C192.916 53.6533 193.023 54.72 193.023 56C193.023 57.2267 192.916 58.2933 192.703 59.2C192.916 60.0533 193.023 61.12 193.023 62.4C193.023 63.6267 192.916 64.6933 192.703 65.6C192.916 66.4533 193.023 67.52 193.023 68.8C193.023 70.0267 192.916 71.0933 192.703 72H186.303C186.089 71.0933 185.983 70.0267 185.983 68.8C185.983 67.52 186.089 66.4533 186.303 65.6C186.089 64.6933 185.983 63.6267 185.983 62.4C185.983 61.12 186.089 60.0533 186.303 59.2C186.089 58.2933 185.983 57.2267 185.983 56C185.983 54.72 186.089 53.6533 186.303 52.8C186.089 51.8933 185.983 50.8267 185.983 49.6C185.983 48.32 186.089 47.2533 186.303 46.4C186.089 45.4933 185.983 44.4267 185.983 43.2C185.983 41.92 186.089 40.8533 186.303 40C186.089 39.0933 185.983 38.0267 185.983 36.8C185.983 35.52 186.089 34.4533 186.303 33.6H176.703C176.489 32.6933 176.383 31.6267 176.383 30.4C176.383 29.12 176.489 28.0533 176.703 27.2H202.303C202.516 28.0533 202.623 29.12 202.623 30.4ZM234.334 65.6C234.547 66.4533 234.654 67.52 234.654 68.8C234.654 70.0267 234.547 71.0933 234.334 72H211.934C211.72 71.0933 211.614 70.0267 211.614 68.8C211.614 67.52 211.72 66.4533 211.934 65.6C211.72 64.6933 211.614 63.6267 211.614 62.4C211.614 61.12 211.72 60.0533 211.934 59.2C211.72 58.2933 211.614 57.2267 211.614 56C211.614 54.72 211.72 53.6533 211.934 52.8C211.72 51.8933 211.614 50.8267 211.614 49.6C211.614 48.32 211.72 47.2533 211.934 46.4C211.72 45.4933 211.614 44.4267 211.614 43.2C211.614 41.92 211.72 40.8533 211.934 40C211.72 39.0933 211.614 38.0267 211.614 36.8C211.614 35.52 211.72 34.4533 211.934 33.6C211.72 32.6933 211.614 31.6267 211.614 30.4C211.614 29.12 211.72 28.0533 211.934 27.2H218.334C218.547 28.0533 218.654 29.12 218.654 30.4C218.654 31.6267 218.547 32.6933 218.334 33.6C218.547 34.4533 218.654 35.52 218.654 36.8C218.654 38.0267 218.547 39.0933 218.334 40C218.547 40.8533 218.654 41.92 218.654 43.2C218.654 44.4267 218.547 45.4933 218.334 46.4C218.547 47.2533 218.654 48.32 218.654 49.6C218.654 50.8267 218.547 51.8933 218.334 52.8C218.547 53.6533 218.654 54.72 218.654 56C218.654 57.2267 218.547 58.2933 218.334 59.2C218.547 60.0533 218.654 61.12 218.654 62.4C218.654 63.6267 218.547 64.6933 218.334 65.6H234.334ZM250.365 52.8C250.578 53.6533 250.685 54.72 250.685 56C250.685 57.2267 250.578 58.2933 250.365 59.2C250.578 60.0533 250.685 61.12 250.685 62.4C250.685 63.6267 250.578 64.6933 250.365 65.6H263.165C263.378 66.4533 263.485 67.52 263.485 68.8C263.485 70.0267 263.378 71.0933 263.165 72H243.965C243.752 71.0933 243.645 70.0267 243.645 68.8C243.645 67.52 243.752 66.4533 243.965 65.6C243.752 64.6933 243.645 63.6267 243.645 62.4C243.645 61.12 243.752 60.0533 243.965 59.2C243.752 58.2933 243.645 57.2267 243.645 56C243.645 54.72 243.752 53.6533 243.965 52.8C243.752 51.8933 243.645 50.8267 243.645 49.6C243.645 48.32 243.752 47.2533 243.965 46.4C243.752 45.4933 243.645 44.4267 243.645 43.2C243.645 41.92 243.752 40.8533 243.965 40C243.752 39.0933 243.645 38.0267 243.645 36.8C243.645 35.52 243.752 34.4533 243.965 33.6C243.752 32.6933 243.645 31.6267 243.645 30.4C243.645 29.12 243.752 28.0533 243.965 27.2H263.165C263.378 28.0533 263.485 29.12 263.485 30.4C263.485 31.6267 263.378 32.6933 263.165 33.6H250.365C250.578 34.4533 250.685 35.52 250.685 36.8C250.685 38.0267 250.578 39.0933 250.365 40C250.578 40.8533 250.685 41.92 250.685 43.2C250.685 44.4267 250.578 45.4933 250.365 46.4H263.165C263.378 47.2533 263.485 48.32 263.485 49.6C263.485 50.8267 263.378 51.8933 263.165 52.8H250.365ZM330.428 52.8C330.641 53.6533 330.748 54.72 330.748 56C330.748 57.2267 330.641 58.2933 330.428 59.2C330.641 60.0533 330.748 61.12 330.748 62.4C330.748 63.6267 330.641 64.6933 330.428 65.6H327.228C327.441 66.4533 327.548 67.52 327.548 68.8C327.548 70.0267 327.441 71.0933 327.228 72H308.028C307.814 71.0933 307.708 70.0267 307.708 68.8C307.708 67.52 307.814 66.4533 308.028 65.6H304.828C304.614 64.6933 304.508 63.6267 304.508 62.4C304.508 61.12 304.614 60.0533 304.828 59.2H311.228C311.441 60.0533 311.548 61.12 311.548 62.4C311.548 63.6267 311.441 64.6933 311.228 65.6H324.028C323.814 64.6933 323.708 63.6267 323.708 62.4C323.708 61.12 323.814 60.0533 324.028 59.2C323.814 58.2933 323.708 57.2267 323.708 56C323.708 54.72 323.814 53.6533 324.028 52.8H308.028C307.814 51.8933 307.708 50.8267 307.708 49.6C307.708 48.32 307.814 47.2533 308.028 46.4H304.828C304.614 45.4933 304.508 44.4267 304.508 43.2C304.508 41.92 304.614 40.8533 304.828 40C304.614 39.0933 304.508 38.0267 304.508 36.8C304.508 35.52 304.614 34.4533 304.828 33.6H308.028C307.814 32.6933 307.708 31.6267 307.708 30.4C307.708 29.12 307.814 28.0533 308.028 27.2H327.228C327.441 28.0533 327.548 29.12 327.548 30.4C327.548 31.6267 327.441 32.6933 327.228 33.6H330.428C330.641 34.4533 330.748 35.52 330.748 36.8C330.748 38.0267 330.641 39.0933 330.428 40H324.028C323.814 39.0933 323.708 38.0267 323.708 36.8C323.708 35.52 323.814 34.4533 324.028 33.6H311.228C311.441 34.4533 311.548 35.52 311.548 36.8C311.548 38.0267 311.441 39.0933 311.228 40C311.441 40.8533 311.548 41.92 311.548 43.2C311.548 44.4267 311.441 45.4933 311.228 46.4H327.228C327.441 47.2533 327.548 48.32 327.548 49.6C327.548 50.8267 327.441 51.8933 327.228 52.8H330.428ZM362.779 36.8C362.779 38.0267 362.672 39.0933 362.459 40C362.672 40.8533 362.779 41.92 362.779 43.2C362.779 44.4267 362.672 45.4933 362.459 46.4H359.259C359.472 47.2533 359.579 48.32 359.579 49.6C359.579 50.8267 359.472 51.8933 359.259 52.8H343.259C343.472 53.6533 343.579 54.72 343.579 56C343.579 57.2267 343.472 58.2933 343.259 59.2C343.472 60.0533 343.579 61.12 343.579 62.4C343.579 63.6267 343.472 64.6933 343.259 65.6C343.472 66.4533 343.579 67.52 343.579 68.8C343.579 70.0267 343.472 71.0933 343.259 72H336.859C336.645 71.0933 336.539 70.0267 336.539 68.8C336.539 67.52 336.645 66.4533 336.859 65.6C336.645 64.6933 336.539 63.6267 336.539 62.4C336.539 61.12 336.645 60.0533 336.859 59.2C336.645 58.2933 336.539 57.2267 336.539 56C336.539 54.72 336.645 53.6533 336.859 52.8C336.645 51.8933 336.539 50.8267 336.539 49.6C336.539 48.32 336.645 47.2533 336.859 46.4C336.645 45.4933 336.539 44.4267 336.539 43.2C336.539 41.92 336.645 40.8533 336.859 40C336.645 39.0933 336.539 38.0267 336.539 36.8C336.539 35.52 336.645 34.4533 336.859 33.6C336.645 32.6933 336.539 31.6267 336.539 30.4C336.539 29.12 336.645 28.0533 336.859 27.2H359.259C359.472 28.0533 359.579 29.12 359.579 30.4C359.579 31.6267 359.472 32.6933 359.259 33.6H362.459C362.672 34.4533 362.779 35.52 362.779 36.8ZM356.059 46.4C355.845 45.4933 355.739 44.4267 355.739 43.2C355.739 41.92 355.845 40.8533 356.059 40C355.845 39.0933 355.739 38.0267 355.739 36.8C355.739 35.52 355.845 34.4533 356.059 33.6H343.259C343.472 34.4533 343.579 35.52 343.579 36.8C343.579 38.0267 343.472 39.0933 343.259 40C343.472 40.8533 343.579 41.92 343.579 43.2C343.579 44.4267 343.472 45.4933 343.259 46.4H356.059ZM394.49 46.4C394.703 47.2533 394.81 48.32 394.81 49.6C394.81 50.8267 394.703 51.8933 394.49 52.8C394.703 53.6533 394.81 54.72 394.81 56C394.81 57.2267 394.703 58.2933 394.49 59.2H392.09C392.303 60.0533 392.41 61.12 392.41 62.4C392.41 63.6267 392.303 64.6933 392.09 65.6H388.09C388.303 66.4533 388.41 67.52 388.41 68.8C388.41 70.0267 388.303 71.0933 388.09 72H375.29C375.077 71.0933 374.97 70.0267 374.97 68.8C374.97 67.52 375.077 66.4533 375.29 65.6H371.29C371.077 64.6933 370.97 63.6267 370.97 62.4C370.97 61.12 371.077 60.0533 371.29 59.2H368.89C368.677 58.2933 368.57 57.2267 368.57 56C368.57 54.72 368.677 53.6533 368.89 52.8C368.677 51.8933 368.57 50.8267 368.57 49.6C368.57 48.32 368.677 47.2533 368.89 46.4C368.677 45.4933 368.57 44.4267 368.57 43.2C368.57 41.92 368.677 40.8533 368.89 40H371.29C371.077 39.0933 370.97 38.0267 370.97 36.8C370.97 35.52 371.077 34.4533 371.29 33.6H375.29C375.077 32.6933 374.97 31.6267 374.97 30.4C374.97 29.12 375.077 28.0533 375.29 27.2H388.09C388.303 28.0533 388.41 29.12 388.41 30.4C388.41 31.6267 388.303 32.6933 388.09 33.6H392.09C392.303 34.4533 392.41 35.52 392.41 36.8C392.41 38.0267 392.303 39.0933 392.09 40H394.49C394.703 40.8533 394.81 41.92 394.81 43.2C394.81 44.4267 394.703 45.4933 394.49 46.4ZM388.09 59.2C387.877 58.2933 387.77 57.2267 387.77 56C387.77 54.72 387.877 53.6533 388.09 52.8C387.877 51.8933 387.77 50.8267 387.77 49.6C387.77 48.32 387.877 47.2533 388.09 46.4C387.877 45.4933 387.77 44.4267 387.77 43.2C387.77 41.92 387.877 40.8533 388.09 40H385.69C385.477 39.0933 385.37 38.0267 385.37 36.8C385.37 35.52 385.477 34.4533 385.69 33.6H377.69C377.903 34.4533 378.01 35.52 378.01 36.8C378.01 38.0267 377.903 39.0933 377.69 40H375.29C375.503 40.8533 375.61 41.92 375.61 43.2C375.61 44.4267 375.503 45.4933 375.29 46.4C375.503 47.2533 375.61 48.32 375.61 49.6C375.61 50.8267 375.503 51.8933 375.29 52.8C375.503 53.6533 375.61 54.72 375.61 56C375.61 57.2267 375.503 58.2933 375.29 59.2H377.69C377.903 60.0533 378.01 61.12 378.01 62.4C378.01 63.6267 377.903 64.6933 377.69 65.6H385.69C385.477 64.6933 385.37 63.6267 385.37 62.4C385.37 61.12 385.477 60.0533 385.69 59.2H388.09ZM426.521 33.6C426.735 34.4533 426.841 35.52 426.841 36.8C426.841 38.0267 426.735 39.0933 426.521 40C426.735 40.8533 426.841 41.92 426.841 43.2C426.841 44.4267 426.735 45.4933 426.521 46.4C426.735 47.2533 426.841 48.32 426.841 49.6C426.841 50.8267 426.735 51.8933 426.521 52.8C426.735 53.6533 426.841 54.72 426.841 56C426.841 57.2267 426.735 58.2933 426.521 59.2C426.735 60.0533 426.841 61.12 426.841 62.4C426.841 63.6267 426.735 64.6933 426.521 65.6C426.735 66.4533 426.841 67.52 426.841 68.8C426.841 70.0267 426.735 71.0933 426.521 72H420.121C419.908 71.0933 419.801 70.0267 419.801 68.8C419.801 67.52 419.908 66.4533 420.121 65.6H416.121C415.908 64.6933 415.801 63.6267 415.801 62.4C415.801 61.12 415.908 60.0533 416.121 59.2H413.721C413.508 58.2933 413.401 57.2267 413.401 56C413.401 54.72 413.508 53.6533 413.721 52.8H410.521C410.308 51.8933 410.201 50.8267 410.201 49.6C410.201 48.32 410.308 47.2533 410.521 46.4H407.321C407.535 47.2533 407.641 48.32 407.641 49.6C407.641 50.8267 407.535 51.8933 407.321 52.8C407.535 53.6533 407.641 54.72 407.641 56C407.641 57.2267 407.535 58.2933 407.321 59.2C407.535 60.0533 407.641 61.12 407.641 62.4C407.641 63.6267 407.535 64.6933 407.321 65.6C407.535 66.4533 407.641 67.52 407.641 68.8C407.641 70.0267 407.535 71.0933 407.321 72H400.921C400.708 71.0933 400.601 70.0267 400.601 68.8C400.601 67.52 400.708 66.4533 400.921 65.6C400.708 64.6933 400.601 63.6267 400.601 62.4C400.601 61.12 400.708 60.0533 400.921 59.2C400.708 58.2933 400.601 57.2267 400.601 56C400.601 54.72 400.708 53.6533 400.921 52.8C400.708 51.8933 400.601 50.8267 400.601 49.6C400.601 48.32 400.708 47.2533 400.921 46.4C400.708 45.4933 400.601 44.4267 400.601 43.2C400.601 41.92 400.708 40.8533 400.921 40C400.708 39.0933 400.601 38.0267 400.601 36.8C400.601 35.52 400.708 34.4533 400.921 33.6C400.708 32.6933 400.601 31.6267 400.601 30.4C400.601 29.12 400.708 28.0533 400.921 27.2H408.921C409.135 28.0533 409.241 29.12 409.241 30.4C409.241 31.6267 409.135 32.6933 408.921 33.6H411.321C411.535 34.4533 411.641 35.52 411.641 36.8C411.641 38.0267 411.535 39.0933 411.321 40H413.721C413.935 40.8533 414.041 41.92 414.041 43.2C414.041 44.4267 413.935 45.4933 413.721 46.4H416.921C417.135 47.2533 417.241 48.32 417.241 49.6C417.241 50.8267 417.135 51.8933 416.921 52.8H420.121C419.908 51.8933 419.801 50.8267 419.801 49.6C419.801 48.32 419.908 47.2533 420.121 46.4C419.908 45.4933 419.801 44.4267 419.801 43.2C419.801 41.92 419.908 40.8533 420.121 40C419.908 39.0933 419.801 38.0267 419.801 36.8C419.801 35.52 419.908 34.4533 420.121 33.6C419.908 32.6933 419.801 31.6267 419.801 30.4C419.801 29.12 419.908 28.0533 420.121 27.2H426.521C426.735 28.0533 426.841 29.12 426.841 30.4C426.841 31.6267 426.735 32.6933 426.521 33.6ZM458.553 52.8C458.766 53.6533 458.873 54.72 458.873 56C458.873 57.2267 458.766 58.2933 458.553 59.2C458.766 60.0533 458.873 61.12 458.873 62.4C458.873 63.6267 458.766 64.6933 458.553 65.6H455.353C455.566 66.4533 455.673 67.52 455.673 68.8C455.673 70.0267 455.566 71.0933 455.353 72H436.153C435.939 71.0933 435.833 70.0267 435.833 68.8C435.833 67.52 435.939 66.4533 436.153 65.6H432.953C432.739 64.6933 432.633 63.6267 432.633 62.4C432.633 61.12 432.739 60.0533 432.953 59.2H439.353C439.566 60.0533 439.673 61.12 439.673 62.4C439.673 63.6267 439.566 64.6933 439.353 65.6H452.153C451.939 64.6933 451.833 63.6267 451.833 62.4C451.833 61.12 451.939 60.0533 452.153 59.2C451.939 58.2933 451.833 57.2267 451.833 56C451.833 54.72 451.939 53.6533 452.153 52.8H436.153C435.939 51.8933 435.833 50.8267 435.833 49.6C435.833 48.32 435.939 47.2533 436.153 46.4H432.953C432.739 45.4933 432.633 44.4267 432.633 43.2C432.633 41.92 432.739 40.8533 432.953 40C432.739 39.0933 432.633 38.0267 432.633 36.8C432.633 35.52 432.739 34.4533 432.953 33.6H436.153C435.939 32.6933 435.833 31.6267 435.833 30.4C435.833 29.12 435.939 28.0533 436.153 27.2H455.353C455.566 28.0533 455.673 29.12 455.673 30.4C455.673 31.6267 455.566 32.6933 455.353 33.6H458.553C458.766 34.4533 458.873 35.52 458.873 36.8C458.873 38.0267 458.766 39.0933 458.553 40H452.153C451.939 39.0933 451.833 38.0267 451.833 36.8C451.833 35.52 451.939 34.4533 452.153 33.6H439.353C439.566 34.4533 439.673 35.52 439.673 36.8C439.673 38.0267 439.566 39.0933 439.353 40C439.566 40.8533 439.673 41.92 439.673 43.2C439.673 44.4267 439.566 45.4933 439.353 46.4H455.353C455.566 47.2533 455.673 48.32 455.673 49.6C455.673 50.8267 455.566 51.8933 455.353 52.8H458.553ZM490.584 46.4C490.797 47.2533 490.904 48.32 490.904 49.6C490.904 50.8267 490.797 51.8933 490.584 52.8C490.797 53.6533 490.904 54.72 490.904 56C490.904 57.2267 490.797 58.2933 490.584 59.2H488.184C488.397 60.0533 488.504 61.12 488.504 62.4C488.504 63.6267 488.397 64.6933 488.184 65.6H484.184C484.397 66.4533 484.504 67.52 484.504 68.8C484.504 70.0267 484.397 71.0933 484.184 72H471.384C471.17 71.0933 471.064 70.0267 471.064 68.8C471.064 67.52 471.17 66.4533 471.384 65.6H467.384C467.17 64.6933 467.064 63.6267 467.064 62.4C467.064 61.12 467.17 60.0533 467.384 59.2H464.984C464.77 58.2933 464.664 57.2267 464.664 56C464.664 54.72 464.77 53.6533 464.984 52.8C464.77 51.8933 464.664 50.8267 464.664 49.6C464.664 48.32 464.77 47.2533 464.984 46.4C464.77 45.4933 464.664 44.4267 464.664 43.2C464.664 41.92 464.77 40.8533 464.984 40H467.384C467.17 39.0933 467.064 38.0267 467.064 36.8C467.064 35.52 467.17 34.4533 467.384 33.6H471.384C471.17 32.6933 471.064 31.6267 471.064 30.4C471.064 29.12 471.17 28.0533 471.384 27.2H484.184C484.397 28.0533 484.504 29.12 484.504 30.4C484.504 31.6267 484.397 32.6933 484.184 33.6H488.184C488.397 34.4533 488.504 35.52 488.504 36.8C488.504 38.0267 488.397 39.0933 488.184 40H490.584C490.797 40.8533 490.904 41.92 490.904 43.2C490.904 44.4267 490.797 45.4933 490.584 46.4ZM484.184 59.2C483.97 58.2933 483.864 57.2267 483.864 56C483.864 54.72 483.97 53.6533 484.184 52.8C483.97 51.8933 483.864 50.8267 483.864 49.6C483.864 48.32 483.97 47.2533 484.184 46.4C483.97 45.4933 483.864 44.4267 483.864 43.2C483.864 41.92 483.97 40.8533 484.184 40H481.784C481.57 39.0933 481.464 38.0267 481.464 36.8C481.464 35.52 481.57 34.4533 481.784 33.6H473.784C473.997 34.4533 474.104 35.52 474.104 36.8C474.104 38.0267 473.997 39.0933 473.784 40H471.384C471.597 40.8533 471.704 41.92 471.704 43.2C471.704 44.4267 471.597 45.4933 471.384 46.4C471.597 47.2533 471.704 48.32 471.704 49.6C471.704 50.8267 471.597 51.8933 471.384 52.8C471.597 53.6533 471.704 54.72 471.704 56C471.704 57.2267 471.597 58.2933 471.384 59.2H473.784C473.997 60.0533 474.104 61.12 474.104 62.4C474.104 63.6267 473.997 64.6933 473.784 65.6H481.784C481.57 64.6933 481.464 63.6267 481.464 62.4C481.464 61.12 481.57 60.0533 481.784 59.2H484.184ZM522.615 65.6C522.828 66.4533 522.935 67.52 522.935 68.8C522.935 70.0267 522.828 71.0933 522.615 72H516.215C516.002 71.0933 515.895 70.0267 515.895 68.8C515.895 67.52 516.002 66.4533 516.215 65.6H513.815C513.602 64.6933 513.495 63.6267 513.495 62.4C513.495 61.12 513.602 60.0533 513.815 59.2H511.415C511.202 58.2933 511.095 57.2267 511.095 56C511.095 54.72 511.202 53.6533 511.415 52.8H503.415C503.628 53.6533 503.735 54.72 503.735 56C503.735 57.2267 503.628 58.2933 503.415 59.2C503.628 60.0533 503.735 61.12 503.735 62.4C503.735 63.6267 503.628 64.6933 503.415 65.6C503.628 66.4533 503.735 67.52 503.735 68.8C503.735 70.0267 503.628 71.0933 503.415 72H497.015C496.802 71.0933 496.695 70.0267 496.695 68.8C496.695 67.52 496.802 66.4533 497.015 65.6C496.802 64.6933 496.695 63.6267 496.695 62.4C496.695 61.12 496.802 60.0533 497.015 59.2C496.802 58.2933 496.695 57.2267 496.695 56C496.695 54.72 496.802 53.6533 497.015 52.8C496.802 51.8933 496.695 50.8267 496.695 49.6C496.695 48.32 496.802 47.2533 497.015 46.4C496.802 45.4933 496.695 44.4267 496.695 43.2C496.695 41.92 496.802 40.8533 497.015 40C496.802 39.0933 496.695 38.0267 496.695 36.8C496.695 35.52 496.802 34.4533 497.015 33.6C496.802 32.6933 496.695 31.6267 496.695 30.4C496.695 29.12 496.802 28.0533 497.015 27.2H519.415C519.628 28.0533 519.735 29.12 519.735 30.4C519.735 31.6267 519.628 32.6933 519.415 33.6H522.615C522.828 34.4533 522.935 35.52 522.935 36.8C522.935 38.0267 522.828 39.0933 522.615 40H521.015C521.228 40.8533 521.335 41.92 521.335 43.2C521.335 44.4267 521.228 45.4933 521.015 46.4H516.215C516.428 47.2533 516.535 48.32 516.535 49.6C516.535 50.8267 516.428 51.8933 516.215 52.8H517.815C518.028 53.6533 518.135 54.72 518.135 56C518.135 57.2267 518.028 58.2933 517.815 59.2H520.215C520.428 60.0533 520.535 61.12 520.535 62.4C520.535 63.6267 520.428 64.6933 520.215 65.6H522.615ZM514.615 46.4C514.402 45.4933 514.295 44.4267 514.295 43.2C514.295 41.92 514.402 40.8533 514.615 40C514.402 39.0933 514.295 38.0267 514.295 36.8C514.295 35.52 514.402 34.4533 514.615 33.6H503.415C503.628 34.4533 503.735 35.52 503.735 36.8C503.735 38.0267 503.628 39.0933 503.415 40C503.628 40.8533 503.735 41.92 503.735 43.2C503.735 44.4267 503.628 45.4933 503.415 46.4H514.615ZM554.646 52.8C554.86 53.6533 554.966 54.72 554.966 56C554.966 57.2267 554.86 58.2933 554.646 59.2C554.86 60.0533 554.966 61.12 554.966 62.4C554.966 63.6267 554.86 64.6933 554.646 65.6H551.446C551.66 66.4533 551.766 67.52 551.766 68.8C551.766 70.0267 551.66 71.0933 551.446 72H532.246C532.033 71.0933 531.926 70.0267 531.926 68.8C531.926 67.52 532.033 66.4533 532.246 65.6H529.046C528.833 64.6933 528.726 63.6267 528.726 62.4C528.726 61.12 528.833 60.0533 529.046 59.2H535.446C535.66 60.0533 535.766 61.12 535.766 62.4C535.766 63.6267 535.66 64.6933 535.446 65.6H548.246C548.033 64.6933 547.926 63.6267 547.926 62.4C547.926 61.12 548.033 60.0533 548.246 59.2C548.033 58.2933 547.926 57.2267 547.926 56C547.926 54.72 548.033 53.6533 548.246 52.8H532.246C532.033 51.8933 531.926 50.8267 531.926 49.6C531.926 48.32 532.033 47.2533 532.246 46.4H529.046C528.833 45.4933 528.726 44.4267 528.726 43.2C528.726 41.92 528.833 40.8533 529.046 40C528.833 39.0933 528.726 38.0267 528.726 36.8C528.726 35.52 528.833 34.4533 529.046 33.6H532.246C532.033 32.6933 531.926 31.6267 531.926 30.4C531.926 29.12 532.033 28.0533 532.246 27.2H551.446C551.66 28.0533 551.766 29.12 551.766 30.4C551.766 31.6267 551.66 32.6933 551.446 33.6H554.646C554.86 34.4533 554.966 35.52 554.966 36.8C554.966 38.0267 554.86 39.0933 554.646 40H548.246C548.033 39.0933 547.926 38.0267 547.926 36.8C547.926 35.52 548.033 34.4533 548.246 33.6H535.446C535.66 34.4533 535.766 35.52 535.766 36.8C535.766 38.0267 535.66 39.0933 535.446 40C535.66 40.8533 535.766 41.92 535.766 43.2C535.766 44.4267 535.66 45.4933 535.446 46.4H551.446C551.66 47.2533 551.766 48.32 551.766 49.6C551.766 50.8267 551.66 51.8933 551.446 52.8H554.646Z" fill="white"/>
<rect width="64" height="64" transform="translate(1520 16)" fill="white"/>
<path d="M1537.66 62.3354H1549.95V66.4311H1533.56V50.0474H1537.66V62.3354ZM1541.76 62.3345H1537.66V58.2388H1541.76V62.3345ZM1545.86 58.2378H1541.76V54.1421H1545.86V58.2378ZM1549.95 54.1411H1545.86V50.0444H1549.95V54.1411ZM1562.24 41.8559H1558.14V45.9497H1554.05V41.853H1558.14V37.7593H1562.24V41.8559ZM1570.43 45.9497H1566.33V33.6616H1566.33V37.7554H1562.23V33.6616H1554.05V29.5659H1570.43V45.9497Z" fill="black"/>
<rect width="64" height="64" transform="translate(1600 16)" fill="white"/>
<path d="M1625.86 54.1411V58.2368H1621.76V62.3306H1617.67V58.2349H1621.76V54.1411H1625.86ZM1642.25 58.2349H1646.34V62.3306H1642.24V58.2368H1638.15V54.1411H1642.25V58.2349ZM1629.96 54.1401H1625.86V50.0444H1629.96V54.1401ZM1638.15 54.1401H1634.06V50.0444H1638.15V54.1401ZM1634.05 50.0434H1629.96V45.9468H1634.05V50.0434ZM1629.95 45.9497H1625.86V41.853H1629.95V45.9497ZM1638.15 45.9497H1634.05V41.853H1638.15V45.9497ZM1621.76 37.7534H1625.86V41.8491H1621.76V37.7554H1617.67V33.6597H1621.76V37.7534ZM1646.34 37.7554H1642.24V41.8491H1638.15V37.7534H1642.24V33.6597H1646.34V37.7554Z" fill="black"/>
<mask id="path-5-inside-1_1_36" fill="white">
<path d="M0 96H1680V500H0V96Z"/>
</mask>
<path d="M1680 500V508H1688V500H1680ZM0 500H-8V508H0V500ZM1680 96H1672V500H1680H1688V96H1680ZM1680 500V492H0V500V508H1680V500ZM0 500H8V96H0H-8V500H0Z" fill="url(#paint1_linear_1_36)" mask="url(#path-5-inside-1_1_36)"/>
<defs>
<linearGradient id="paint0_linear_1_36" x1="1680" y1="48" x2="0" y2="48" gradientUnits="userSpaceOnUse">
<stop stop-color="#FC6955"/>
<stop offset="1" stop-color="#FF2E41"/>
</linearGradient>
<linearGradient id="paint1_linear_1_36" x1="1680" y1="298" x2="0" y2="298" gradientUnits="userSpaceOnUse">
<stop stop-color="#FC6955"/>
<stop offset="1" stop-color="#FF2E41"/>
</linearGradient>
</defs>
</svg>
