<svg width="1680" height="500" viewBox="0 0 1680 500" fill="none" xmlns="http://www.w3.org/2000/svg">
<rect width="1680" height="96" fill="url(#paint0_linear_1_80)"/>
<path d="M33.9201 65.9207H28.8V50.5603H33.9201V65.9207ZM64.6398 65.9207H59.5197V50.5603H64.6398V65.9207ZM44.1604 65.9197H39.0402V40.3201H44.1604V65.9197ZM54.3996 65.9197H49.2805V30.0798H54.3996V65.9197Z" fill="white"/>
<path d="M138.24 52.8C138.453 53.6533 138.56 54.72 138.56 56C138.56 57.2267 138.453 58.2933 138.24 59.2C138.453 60.0533 138.56 61.12 138.56 62.4C138.56 63.6267 138.453 64.6933 138.24 65.6H135.04C135.253 66.4533 135.36 67.52 135.36 68.8C135.36 70.0267 135.253 71.0933 135.04 72H115.84C115.627 71.0933 115.52 70.0267 115.52 68.8C115.52 67.52 115.627 66.4533 115.84 65.6H112.64C112.427 64.6933 112.32 63.6267 112.32 62.4C112.32 61.12 112.427 60.0533 112.64 59.2H119.04C119.253 60.0533 119.36 61.12 119.36 62.4C119.36 63.6267 119.253 64.6933 119.04 65.6H131.84C131.627 64.6933 131.52 63.6267 131.52 62.4C131.52 61.12 131.627 60.0533 131.84 59.2C131.627 58.2933 131.52 57.2267 131.52 56C131.52 54.72 131.627 53.6533 131.84 52.8H115.84C115.627 51.8933 115.52 50.8267 115.52 49.6C115.52 48.32 115.627 47.2533 115.84 46.4H112.64C112.427 45.4933 112.32 44.4267 112.32 43.2C112.32 41.92 112.427 40.8533 112.64 40C112.427 39.0933 112.32 38.0267 112.32 36.8C112.32 35.52 112.427 34.4533 112.64 33.6H115.84C115.627 32.6933 115.52 31.6267 115.52 30.4C115.52 29.12 115.627 28.0533 115.84 27.2H135.04C135.253 28.0533 135.36 29.12 135.36 30.4C135.36 31.6267 135.253 32.6933 135.04 33.6H138.24C138.453 34.4533 138.56 35.52 138.56 36.8C138.56 38.0267 138.453 39.0933 138.24 40H131.84C131.627 39.0933 131.52 38.0267 131.52 36.8C131.52 35.52 131.627 34.4533 131.84 33.6H119.04C119.253 34.4533 119.36 35.52 119.36 36.8C119.36 38.0267 119.253 39.0933 119.04 40C119.253 40.8533 119.36 41.92 119.36 43.2C119.36 44.4267 119.253 45.4933 119.04 46.4H135.04C135.253 47.2533 135.36 48.32 135.36 49.6C135.36 50.8267 135.253 51.8933 135.04 52.8H138.24ZM165.471 65.6C165.685 66.4533 165.791 67.52 165.791 68.8C165.791 70.0267 165.685 71.0933 165.471 72H149.471C149.258 71.0933 149.151 70.0267 149.151 68.8C149.151 67.52 149.258 66.4533 149.471 65.6H154.271C154.058 64.6933 153.951 63.6267 153.951 62.4C153.951 61.12 154.058 60.0533 154.271 59.2C154.058 58.2933 153.951 57.2267 153.951 56C153.951 54.72 154.058 53.6533 154.271 52.8C154.058 51.8933 153.951 50.8267 153.951 49.6C153.951 48.32 154.058 47.2533 154.271 46.4C154.058 45.4933 153.951 44.4267 153.951 43.2C153.951 41.92 154.058 40.8533 154.271 40C154.058 39.0933 153.951 38.0267 153.951 36.8C153.951 35.52 154.058 34.4533 154.271 33.6H149.471C149.258 32.6933 149.151 31.6267 149.151 30.4C149.151 29.12 149.258 28.0533 149.471 27.2H165.471C165.685 28.0533 165.791 29.12 165.791 30.4C165.791 31.6267 165.685 32.6933 165.471 33.6H160.671C160.885 34.4533 160.991 35.52 160.991 36.8C160.991 38.0267 160.885 39.0933 160.671 40C160.885 40.8533 160.991 41.92 160.991 43.2C160.991 44.4267 160.885 45.4933 160.671 46.4C160.885 47.2533 160.991 48.32 160.991 49.6C160.991 50.8267 160.885 51.8933 160.671 52.8C160.885 53.6533 160.991 54.72 160.991 56C160.991 57.2267 160.885 58.2933 160.671 59.2C160.885 60.0533 160.991 61.12 160.991 62.4C160.991 63.6267 160.885 64.6933 160.671 65.6H165.471ZM202.303 65.6C202.516 66.4533 202.623 67.52 202.623 68.8C202.623 70.0267 202.516 71.0933 202.303 72H179.903C179.689 71.0933 179.583 70.0267 179.583 68.8C179.583 67.52 179.689 66.4533 179.903 65.6C179.689 64.6933 179.583 63.6267 179.583 62.4C179.583 61.12 179.689 60.0533 179.903 59.2C179.689 58.2933 179.583 57.2267 179.583 56C179.583 54.72 179.689 53.6533 179.903 52.8C179.689 51.8933 179.583 50.8267 179.583 49.6C179.583 48.32 179.689 47.2533 179.903 46.4C179.689 45.4933 179.583 44.4267 179.583 43.2C179.583 41.92 179.689 40.8533 179.903 40C179.689 39.0933 179.583 38.0267 179.583 36.8C179.583 35.52 179.689 34.4533 179.903 33.6C179.689 32.6933 179.583 31.6267 179.583 30.4C179.583 29.12 179.689 28.0533 179.903 27.2H186.303C186.516 28.0533 186.623 29.12 186.623 30.4C186.623 31.6267 186.516 32.6933 186.303 33.6C186.516 34.4533 186.623 35.52 186.623 36.8C186.623 38.0267 186.516 39.0933 186.303 40C186.516 40.8533 186.623 41.92 186.623 43.2C186.623 44.4267 186.516 45.4933 186.303 46.4C186.516 47.2533 186.623 48.32 186.623 49.6C186.623 50.8267 186.516 51.8933 186.303 52.8C186.516 53.6533 186.623 54.72 186.623 56C186.623 57.2267 186.516 58.2933 186.303 59.2C186.516 60.0533 186.623 61.12 186.623 62.4C186.623 63.6267 186.516 64.6933 186.303 65.6H202.303ZM234.334 33.6C234.547 34.4533 234.654 35.52 234.654 36.8C234.654 38.0267 234.547 39.0933 234.334 40C234.547 40.8533 234.654 41.92 234.654 43.2C234.654 44.4267 234.547 45.4933 234.334 46.4H231.934C232.147 47.2533 232.254 48.32 232.254 49.6C232.254 50.8267 232.147 51.8933 231.934 52.8H229.534C229.747 53.6533 229.854 54.72 229.854 56C229.854 57.2267 229.747 58.2933 229.534 59.2H227.934C228.147 60.0533 228.254 61.12 228.254 62.4C228.254 63.6267 228.147 64.6933 227.934 65.6H224.734C224.947 66.4533 225.054 67.52 225.054 68.8C225.054 70.0267 224.947 71.0933 224.734 72H218.334C218.12 71.0933 218.014 70.0267 218.014 68.8C218.014 67.52 218.12 66.4533 218.334 65.6H215.134C214.92 64.6933 214.814 63.6267 214.814 62.4C214.814 61.12 214.92 60.0533 215.134 59.2H213.534C213.32 58.2933 213.214 57.2267 213.214 56C213.214 54.72 213.32 53.6533 213.534 52.8H211.134C210.92 51.8933 210.814 50.8267 210.814 49.6C210.814 48.32 210.92 47.2533 211.134 46.4H208.734C208.52 45.4933 208.414 44.4267 208.414 43.2C208.414 41.92 208.52 40.8533 208.734 40C208.52 39.0933 208.414 38.0267 208.414 36.8C208.414 35.52 208.52 34.4533 208.734 33.6C208.52 32.6933 208.414 31.6267 208.414 30.4C208.414 29.12 208.52 28.0533 208.734 27.2H215.134C215.347 28.0533 215.454 29.12 215.454 30.4C215.454 31.6267 215.347 32.6933 215.134 33.6C215.347 34.4533 215.454 35.52 215.454 36.8C215.454 38.0267 215.347 39.0933 215.134 40C215.347 40.8533 215.454 41.92 215.454 43.2C215.454 44.4267 215.347 45.4933 215.134 46.4H217.534C217.747 47.2533 217.854 48.32 217.854 49.6C217.854 50.8267 217.747 51.8933 217.534 52.8H219.934C220.147 53.6533 220.254 54.72 220.254 56C220.254 57.2267 220.147 58.2933 219.934 59.2H223.134C222.92 58.2933 222.814 57.2267 222.814 56C222.814 54.72 222.92 53.6533 223.134 52.8H225.534C225.32 51.8933 225.214 50.8267 225.214 49.6C225.214 48.32 225.32 47.2533 225.534 46.4H227.934C227.72 45.4933 227.614 44.4267 227.614 43.2C227.614 41.92 227.72 40.8533 227.934 40C227.72 39.0933 227.614 38.0267 227.614 36.8C227.614 35.52 227.72 34.4533 227.934 33.6C227.72 32.6933 227.614 31.6267 227.614 30.4C227.614 29.12 227.72 28.0533 227.934 27.2H234.334C234.547 28.0533 234.654 29.12 234.654 30.4C234.654 31.6267 234.547 32.6933 234.334 33.6ZM250.365 52.8C250.578 53.6533 250.685 54.72 250.685 56C250.685 57.2267 250.578 58.2933 250.365 59.2C250.578 60.0533 250.685 61.12 250.685 62.4C250.685 63.6267 250.578 64.6933 250.365 65.6H263.165C263.378 66.4533 263.485 67.52 263.485 68.8C263.485 70.0267 263.378 71.0933 263.165 72H243.965C243.752 71.0933 243.645 70.0267 243.645 68.8C243.645 67.52 243.752 66.4533 243.965 65.6C243.752 64.6933 243.645 63.6267 243.645 62.4C243.645 61.12 243.752 60.0533 243.965 59.2C243.752 58.2933 243.645 57.2267 243.645 56C243.645 54.72 243.752 53.6533 243.965 52.8C243.752 51.8933 243.645 50.8267 243.645 49.6C243.645 48.32 243.752 47.2533 243.965 46.4C243.752 45.4933 243.645 44.4267 243.645 43.2C243.645 41.92 243.752 40.8533 243.965 40C243.752 39.0933 243.645 38.0267 243.645 36.8C243.645 35.52 243.752 34.4533 243.965 33.6C243.752 32.6933 243.645 31.6267 243.645 30.4C243.645 29.12 243.752 28.0533 243.965 27.2H263.165C263.378 28.0533 263.485 29.12 263.485 30.4C263.485 31.6267 263.378 32.6933 263.165 33.6H250.365C250.578 34.4533 250.685 35.52 250.685 36.8C250.685 38.0267 250.578 39.0933 250.365 40C250.578 40.8533 250.685 41.92 250.685 43.2C250.685 44.4267 250.578 45.4933 250.365 46.4H263.165C263.378 47.2533 263.485 48.32 263.485 49.6C263.485 50.8267 263.378 51.8933 263.165 52.8H250.365ZM298.396 65.6C298.61 66.4533 298.716 67.52 298.716 68.8C298.716 70.0267 298.61 71.0933 298.396 72H291.996C291.783 71.0933 291.676 70.0267 291.676 68.8C291.676 67.52 291.783 66.4533 291.996 65.6H289.596C289.383 64.6933 289.276 63.6267 289.276 62.4C289.276 61.12 289.383 60.0533 289.596 59.2H287.196C286.983 58.2933 286.876 57.2267 286.876 56C286.876 54.72 286.983 53.6533 287.196 52.8H279.196C279.41 53.6533 279.516 54.72 279.516 56C279.516 57.2267 279.41 58.2933 279.196 59.2C279.41 60.0533 279.516 61.12 279.516 62.4C279.516 63.6267 279.41 64.6933 279.196 65.6C279.41 66.4533 279.516 67.52 279.516 68.8C279.516 70.0267 279.41 71.0933 279.196 72H272.796C272.583 71.0933 272.476 70.0267 272.476 68.8C272.476 67.52 272.583 66.4533 272.796 65.6C272.583 64.6933 272.476 63.6267 272.476 62.4C272.476 61.12 272.583 60.0533 272.796 59.2C272.583 58.2933 272.476 57.2267 272.476 56C272.476 54.72 272.583 53.6533 272.796 52.8C272.583 51.8933 272.476 50.8267 272.476 49.6C272.476 48.32 272.583 47.2533 272.796 46.4C272.583 45.4933 272.476 44.4267 272.476 43.2C272.476 41.92 272.583 40.8533 272.796 40C272.583 39.0933 272.476 38.0267 272.476 36.8C272.476 35.52 272.583 34.4533 272.796 33.6C272.583 32.6933 272.476 31.6267 272.476 30.4C272.476 29.12 272.583 28.0533 272.796 27.2H295.196C295.41 28.0533 295.516 29.12 295.516 30.4C295.516 31.6267 295.41 32.6933 295.196 33.6H298.396C298.61 34.4533 298.716 35.52 298.716 36.8C298.716 38.0267 298.61 39.0933 298.396 40H296.796C297.01 40.8533 297.116 41.92 297.116 43.2C297.116 44.4267 297.01 45.4933 296.796 46.4H291.996C292.21 47.2533 292.316 48.32 292.316 49.6C292.316 50.8267 292.21 51.8933 291.996 52.8H293.596C293.81 53.6533 293.916 54.72 293.916 56C293.916 57.2267 293.81 58.2933 293.596 59.2H295.996C296.21 60.0533 296.316 61.12 296.316 62.4C296.316 63.6267 296.21 64.6933 295.996 65.6H298.396ZM290.396 46.4C290.183 45.4933 290.076 44.4267 290.076 43.2C290.076 41.92 290.183 40.8533 290.396 40C290.183 39.0933 290.076 38.0267 290.076 36.8C290.076 35.52 290.183 34.4533 290.396 33.6H279.196C279.41 34.4533 279.516 35.52 279.516 36.8C279.516 38.0267 279.41 39.0933 279.196 40C279.41 40.8533 279.516 41.92 279.516 43.2C279.516 44.4267 279.41 45.4933 279.196 46.4H290.396ZM362.459 52.8C362.672 53.6533 362.779 54.72 362.779 56C362.779 57.2267 362.672 58.2933 362.459 59.2C362.672 60.0533 362.779 61.12 362.779 62.4C362.779 63.6267 362.672 64.6933 362.459 65.6H359.259C359.472 66.4533 359.579 67.52 359.579 68.8C359.579 70.0267 359.472 71.0933 359.259 72H340.059C339.845 71.0933 339.739 70.0267 339.739 68.8C339.739 67.52 339.845 66.4533 340.059 65.6H336.859C336.645 64.6933 336.539 63.6267 336.539 62.4C336.539 61.12 336.645 60.0533 336.859 59.2H343.259C343.472 60.0533 343.579 61.12 343.579 62.4C343.579 63.6267 343.472 64.6933 343.259 65.6H356.059C355.845 64.6933 355.739 63.6267 355.739 62.4C355.739 61.12 355.845 60.0533 356.059 59.2C355.845 58.2933 355.739 57.2267 355.739 56C355.739 54.72 355.845 53.6533 356.059 52.8H340.059C339.845 51.8933 339.739 50.8267 339.739 49.6C339.739 48.32 339.845 47.2533 340.059 46.4H336.859C336.645 45.4933 336.539 44.4267 336.539 43.2C336.539 41.92 336.645 40.8533 336.859 40C336.645 39.0933 336.539 38.0267 336.539 36.8C336.539 35.52 336.645 34.4533 336.859 33.6H340.059C339.845 32.6933 339.739 31.6267 339.739 30.4C339.739 29.12 339.845 28.0533 340.059 27.2H359.259C359.472 28.0533 359.579 29.12 359.579 30.4C359.579 31.6267 359.472 32.6933 359.259 33.6H362.459C362.672 34.4533 362.779 35.52 362.779 36.8C362.779 38.0267 362.672 39.0933 362.459 40H356.059C355.845 39.0933 355.739 38.0267 355.739 36.8C355.739 35.52 355.845 34.4533 356.059 33.6H343.259C343.472 34.4533 343.579 35.52 343.579 36.8C343.579 38.0267 343.472 39.0933 343.259 40C343.472 40.8533 343.579 41.92 343.579 43.2C343.579 44.4267 343.472 45.4933 343.259 46.4H359.259C359.472 47.2533 359.579 48.32 359.579 49.6C359.579 50.8267 359.472 51.8933 359.259 52.8H362.459ZM394.81 36.8C394.81 38.0267 394.703 39.0933 394.49 40C394.703 40.8533 394.81 41.92 394.81 43.2C394.81 44.4267 394.703 45.4933 394.49 46.4H391.29C391.503 47.2533 391.61 48.32 391.61 49.6C391.61 50.8267 391.503 51.8933 391.29 52.8H375.29C375.503 53.6533 375.61 54.72 375.61 56C375.61 57.2267 375.503 58.2933 375.29 59.2C375.503 60.0533 375.61 61.12 375.61 62.4C375.61 63.6267 375.503 64.6933 375.29 65.6C375.503 66.4533 375.61 67.52 375.61 68.8C375.61 70.0267 375.503 71.0933 375.29 72H368.89C368.677 71.0933 368.57 70.0267 368.57 68.8C368.57 67.52 368.677 66.4533 368.89 65.6C368.677 64.6933 368.57 63.6267 368.57 62.4C368.57 61.12 368.677 60.0533 368.89 59.2C368.677 58.2933 368.57 57.2267 368.57 56C368.57 54.72 368.677 53.6533 368.89 52.8C368.677 51.8933 368.57 50.8267 368.57 49.6C368.57 48.32 368.677 47.2533 368.89 46.4C368.677 45.4933 368.57 44.4267 368.57 43.2C368.57 41.92 368.677 40.8533 368.89 40C368.677 39.0933 368.57 38.0267 368.57 36.8C368.57 35.52 368.677 34.4533 368.89 33.6C368.677 32.6933 368.57 31.6267 368.57 30.4C368.57 29.12 368.677 28.0533 368.89 27.2H391.29C391.503 28.0533 391.61 29.12 391.61 30.4C391.61 31.6267 391.503 32.6933 391.29 33.6H394.49C394.703 34.4533 394.81 35.52 394.81 36.8ZM388.09 46.4C387.877 45.4933 387.77 44.4267 387.77 43.2C387.77 41.92 387.877 40.8533 388.09 40C387.877 39.0933 387.77 38.0267 387.77 36.8C387.77 35.52 387.877 34.4533 388.09 33.6H375.29C375.503 34.4533 375.61 35.52 375.61 36.8C375.61 38.0267 375.503 39.0933 375.29 40C375.503 40.8533 375.61 41.92 375.61 43.2C375.61 44.4267 375.503 45.4933 375.29 46.4H388.09ZM426.521 46.4C426.735 47.2533 426.841 48.32 426.841 49.6C426.841 50.8267 426.735 51.8933 426.521 52.8C426.735 53.6533 426.841 54.72 426.841 56C426.841 57.2267 426.735 58.2933 426.521 59.2H424.121C424.335 60.0533 424.441 61.12 424.441 62.4C424.441 63.6267 424.335 64.6933 424.121 65.6H420.121C420.335 66.4533 420.441 67.52 420.441 68.8C420.441 70.0267 420.335 71.0933 420.121 72H407.321C407.108 71.0933 407.001 70.0267 407.001 68.8C407.001 67.52 407.108 66.4533 407.321 65.6H403.321C403.108 64.6933 403.001 63.6267 403.001 62.4C403.001 61.12 403.108 60.0533 403.321 59.2H400.921C400.708 58.2933 400.601 57.2267 400.601 56C400.601 54.72 400.708 53.6533 400.921 52.8C400.708 51.8933 400.601 50.8267 400.601 49.6C400.601 48.32 400.708 47.2533 400.921 46.4C400.708 45.4933 400.601 44.4267 400.601 43.2C400.601 41.92 400.708 40.8533 400.921 40H403.321C403.108 39.0933 403.001 38.0267 403.001 36.8C403.001 35.52 403.108 34.4533 403.321 33.6H407.321C407.108 32.6933 407.001 31.6267 407.001 30.4C407.001 29.12 407.108 28.0533 407.321 27.2H420.121C420.335 28.0533 420.441 29.12 420.441 30.4C420.441 31.6267 420.335 32.6933 420.121 33.6H424.121C424.335 34.4533 424.441 35.52 424.441 36.8C424.441 38.0267 424.335 39.0933 424.121 40H426.521C426.735 40.8533 426.841 41.92 426.841 43.2C426.841 44.4267 426.735 45.4933 426.521 46.4ZM420.121 59.2C419.908 58.2933 419.801 57.2267 419.801 56C419.801 54.72 419.908 53.6533 420.121 52.8C419.908 51.8933 419.801 50.8267 419.801 49.6C419.801 48.32 419.908 47.2533 420.121 46.4C419.908 45.4933 419.801 44.4267 419.801 43.2C419.801 41.92 419.908 40.8533 420.121 40H417.721C417.508 39.0933 417.401 38.0267 417.401 36.8C417.401 35.52 417.508 34.4533 417.721 33.6H409.721C409.935 34.4533 410.041 35.52 410.041 36.8C410.041 38.0267 409.935 39.0933 409.721 40H407.321C407.535 40.8533 407.641 41.92 407.641 43.2C407.641 44.4267 407.535 45.4933 407.321 46.4C407.535 47.2533 407.641 48.32 407.641 49.6C407.641 50.8267 407.535 51.8933 407.321 52.8C407.535 53.6533 407.641 54.72 407.641 56C407.641 57.2267 407.535 58.2933 407.321 59.2H409.721C409.935 60.0533 410.041 61.12 410.041 62.4C410.041 63.6267 409.935 64.6933 409.721 65.6H417.721C417.508 64.6933 417.401 63.6267 417.401 62.4C417.401 61.12 417.508 60.0533 417.721 59.2H420.121ZM458.553 33.6C458.766 34.4533 458.873 35.52 458.873 36.8C458.873 38.0267 458.766 39.0933 458.553 40C458.766 40.8533 458.873 41.92 458.873 43.2C458.873 44.4267 458.766 45.4933 458.553 46.4C458.766 47.2533 458.873 48.32 458.873 49.6C458.873 50.8267 458.766 51.8933 458.553 52.8C458.766 53.6533 458.873 54.72 458.873 56C458.873 57.2267 458.766 58.2933 458.553 59.2C458.766 60.0533 458.873 61.12 458.873 62.4C458.873 63.6267 458.766 64.6933 458.553 65.6C458.766 66.4533 458.873 67.52 458.873 68.8C458.873 70.0267 458.766 71.0933 458.553 72H452.153C451.939 71.0933 451.833 70.0267 451.833 68.8C451.833 67.52 451.939 66.4533 452.153 65.6H448.153C447.939 64.6933 447.833 63.6267 447.833 62.4C447.833 61.12 447.939 60.0533 448.153 59.2H445.753C445.539 58.2933 445.433 57.2267 445.433 56C445.433 54.72 445.539 53.6533 445.753 52.8H442.553C442.339 51.8933 442.233 50.8267 442.233 49.6C442.233 48.32 442.339 47.2533 442.553 46.4H439.353C439.566 47.2533 439.673 48.32 439.673 49.6C439.673 50.8267 439.566 51.8933 439.353 52.8C439.566 53.6533 439.673 54.72 439.673 56C439.673 57.2267 439.566 58.2933 439.353 59.2C439.566 60.0533 439.673 61.12 439.673 62.4C439.673 63.6267 439.566 64.6933 439.353 65.6C439.566 66.4533 439.673 67.52 439.673 68.8C439.673 70.0267 439.566 71.0933 439.353 72H432.953C432.739 71.0933 432.633 70.0267 432.633 68.8C432.633 67.52 432.739 66.4533 432.953 65.6C432.739 64.6933 432.633 63.6267 432.633 62.4C432.633 61.12 432.739 60.0533 432.953 59.2C432.739 58.2933 432.633 57.2267 432.633 56C432.633 54.72 432.739 53.6533 432.953 52.8C432.739 51.8933 432.633 50.8267 432.633 49.6C432.633 48.32 432.739 47.2533 432.953 46.4C432.739 45.4933 432.633 44.4267 432.633 43.2C432.633 41.92 432.739 40.8533 432.953 40C432.739 39.0933 432.633 38.0267 432.633 36.8C432.633 35.52 432.739 34.4533 432.953 33.6C432.739 32.6933 432.633 31.6267 432.633 30.4C432.633 29.12 432.739 28.0533 432.953 27.2H440.953C441.166 28.0533 441.273 29.12 441.273 30.4C441.273 31.6267 441.166 32.6933 440.953 33.6H443.353C443.566 34.4533 443.673 35.52 443.673 36.8C443.673 38.0267 443.566 39.0933 443.353 40H445.753C445.966 40.8533 446.073 41.92 446.073 43.2C446.073 44.4267 445.966 45.4933 445.753 46.4H448.953C449.166 47.2533 449.273 48.32 449.273 49.6C449.273 50.8267 449.166 51.8933 448.953 52.8H452.153C451.939 51.8933 451.833 50.8267 451.833 49.6C451.833 48.32 451.939 47.2533 452.153 46.4C451.939 45.4933 451.833 44.4267 451.833 43.2C451.833 41.92 451.939 40.8533 452.153 40C451.939 39.0933 451.833 38.0267 451.833 36.8C451.833 35.52 451.939 34.4533 452.153 33.6C451.939 32.6933 451.833 31.6267 451.833 30.4C451.833 29.12 451.939 28.0533 452.153 27.2H458.553C458.766 28.0533 458.873 29.12 458.873 30.4C458.873 31.6267 458.766 32.6933 458.553 33.6ZM490.584 52.8C490.797 53.6533 490.904 54.72 490.904 56C490.904 57.2267 490.797 58.2933 490.584 59.2C490.797 60.0533 490.904 61.12 490.904 62.4C490.904 63.6267 490.797 64.6933 490.584 65.6H487.384C487.597 66.4533 487.704 67.52 487.704 68.8C487.704 70.0267 487.597 71.0933 487.384 72H468.184C467.97 71.0933 467.864 70.0267 467.864 68.8C467.864 67.52 467.97 66.4533 468.184 65.6H464.984C464.77 64.6933 464.664 63.6267 464.664 62.4C464.664 61.12 464.77 60.0533 464.984 59.2H471.384C471.597 60.0533 471.704 61.12 471.704 62.4C471.704 63.6267 471.597 64.6933 471.384 65.6H484.184C483.97 64.6933 483.864 63.6267 483.864 62.4C483.864 61.12 483.97 60.0533 484.184 59.2C483.97 58.2933 483.864 57.2267 483.864 56C483.864 54.72 483.97 53.6533 484.184 52.8H468.184C467.97 51.8933 467.864 50.8267 467.864 49.6C467.864 48.32 467.97 47.2533 468.184 46.4H464.984C464.77 45.4933 464.664 44.4267 464.664 43.2C464.664 41.92 464.77 40.8533 464.984 40C464.77 39.0933 464.664 38.0267 464.664 36.8C464.664 35.52 464.77 34.4533 464.984 33.6H468.184C467.97 32.6933 467.864 31.6267 467.864 30.4C467.864 29.12 467.97 28.0533 468.184 27.2H487.384C487.597 28.0533 487.704 29.12 487.704 30.4C487.704 31.6267 487.597 32.6933 487.384 33.6H490.584C490.797 34.4533 490.904 35.52 490.904 36.8C490.904 38.0267 490.797 39.0933 490.584 40H484.184C483.97 39.0933 483.864 38.0267 483.864 36.8C483.864 35.52 483.97 34.4533 484.184 33.6H471.384C471.597 34.4533 471.704 35.52 471.704 36.8C471.704 38.0267 471.597 39.0933 471.384 40C471.597 40.8533 471.704 41.92 471.704 43.2C471.704 44.4267 471.597 45.4933 471.384 46.4H487.384C487.597 47.2533 487.704 48.32 487.704 49.6C487.704 50.8267 487.597 51.8933 487.384 52.8H490.584ZM522.615 46.4C522.828 47.2533 522.935 48.32 522.935 49.6C522.935 50.8267 522.828 51.8933 522.615 52.8C522.828 53.6533 522.935 54.72 522.935 56C522.935 57.2267 522.828 58.2933 522.615 59.2H520.215C520.428 60.0533 520.535 61.12 520.535 62.4C520.535 63.6267 520.428 64.6933 520.215 65.6H516.215C516.428 66.4533 516.535 67.52 516.535 68.8C516.535 70.0267 516.428 71.0933 516.215 72H503.415C503.202 71.0933 503.095 70.0267 503.095 68.8C503.095 67.52 503.202 66.4533 503.415 65.6H499.415C499.202 64.6933 499.095 63.6267 499.095 62.4C499.095 61.12 499.202 60.0533 499.415 59.2H497.015C496.802 58.2933 496.695 57.2267 496.695 56C496.695 54.72 496.802 53.6533 497.015 52.8C496.802 51.8933 496.695 50.8267 496.695 49.6C496.695 48.32 496.802 47.2533 497.015 46.4C496.802 45.4933 496.695 44.4267 496.695 43.2C496.695 41.92 496.802 40.8533 497.015 40H499.415C499.202 39.0933 499.095 38.0267 499.095 36.8C499.095 35.52 499.202 34.4533 499.415 33.6H503.415C503.202 32.6933 503.095 31.6267 503.095 30.4C503.095 29.12 503.202 28.0533 503.415 27.2H516.215C516.428 28.0533 516.535 29.12 516.535 30.4C516.535 31.6267 516.428 32.6933 516.215 33.6H520.215C520.428 34.4533 520.535 35.52 520.535 36.8C520.535 38.0267 520.428 39.0933 520.215 40H522.615C522.828 40.8533 522.935 41.92 522.935 43.2C522.935 44.4267 522.828 45.4933 522.615 46.4ZM516.215 59.2C516.002 58.2933 515.895 57.2267 515.895 56C515.895 54.72 516.002 53.6533 516.215 52.8C516.002 51.8933 515.895 50.8267 515.895 49.6C515.895 48.32 516.002 47.2533 516.215 46.4C516.002 45.4933 515.895 44.4267 515.895 43.2C515.895 41.92 516.002 40.8533 516.215 40H513.815C513.602 39.0933 513.495 38.0267 513.495 36.8C513.495 35.52 513.602 34.4533 513.815 33.6H505.815C506.028 34.4533 506.135 35.52 506.135 36.8C506.135 38.0267 506.028 39.0933 505.815 40H503.415C503.628 40.8533 503.735 41.92 503.735 43.2C503.735 44.4267 503.628 45.4933 503.415 46.4C503.628 47.2533 503.735 48.32 503.735 49.6C503.735 50.8267 503.628 51.8933 503.415 52.8C503.628 53.6533 503.735 54.72 503.735 56C503.735 57.2267 503.628 58.2933 503.415 59.2H505.815C506.028 60.0533 506.135 61.12 506.135 62.4C506.135 63.6267 506.028 64.6933 505.815 65.6H513.815C513.602 64.6933 513.495 63.6267 513.495 62.4C513.495 61.12 513.602 60.0533 513.815 59.2H516.215ZM554.646 65.6C554.86 66.4533 554.966 67.52 554.966 68.8C554.966 70.0267 554.86 71.0933 554.646 72H548.246C548.033 71.0933 547.926 70.0267 547.926 68.8C547.926 67.52 548.033 66.4533 548.246 65.6H545.846C545.633 64.6933 545.526 63.6267 545.526 62.4C545.526 61.12 545.633 60.0533 545.846 59.2H543.446C543.233 58.2933 543.126 57.2267 543.126 56C543.126 54.72 543.233 53.6533 543.446 52.8H535.446C535.66 53.6533 535.766 54.72 535.766 56C535.766 57.2267 535.66 58.2933 535.446 59.2C535.66 60.0533 535.766 61.12 535.766 62.4C535.766 63.6267 535.66 64.6933 535.446 65.6C535.66 66.4533 535.766 67.52 535.766 68.8C535.766 70.0267 535.66 71.0933 535.446 72H529.046C528.833 71.0933 528.726 70.0267 528.726 68.8C528.726 67.52 528.833 66.4533 529.046 65.6C528.833 64.6933 528.726 63.6267 528.726 62.4C528.726 61.12 528.833 60.0533 529.046 59.2C528.833 58.2933 528.726 57.2267 528.726 56C528.726 54.72 528.833 53.6533 529.046 52.8C528.833 51.8933 528.726 50.8267 528.726 49.6C528.726 48.32 528.833 47.2533 529.046 46.4C528.833 45.4933 528.726 44.4267 528.726 43.2C528.726 41.92 528.833 40.8533 529.046 40C528.833 39.0933 528.726 38.0267 528.726 36.8C528.726 35.52 528.833 34.4533 529.046 33.6C528.833 32.6933 528.726 31.6267 528.726 30.4C528.726 29.12 528.833 28.0533 529.046 27.2H551.446C551.66 28.0533 551.766 29.12 551.766 30.4C551.766 31.6267 551.66 32.6933 551.446 33.6H554.646C554.86 34.4533 554.966 35.52 554.966 36.8C554.966 38.0267 554.86 39.0933 554.646 40H553.046C553.26 40.8533 553.366 41.92 553.366 43.2C553.366 44.4267 553.26 45.4933 553.046 46.4H548.246C548.46 47.2533 548.566 48.32 548.566 49.6C548.566 50.8267 548.46 51.8933 548.246 52.8H549.846C550.06 53.6533 550.166 54.72 550.166 56C550.166 57.2267 550.06 58.2933 549.846 59.2H552.246C552.46 60.0533 552.566 61.12 552.566 62.4C552.566 63.6267 552.46 64.6933 552.246 65.6H554.646ZM546.646 46.4C546.433 45.4933 546.326 44.4267 546.326 43.2C546.326 41.92 546.433 40.8533 546.646 40C546.433 39.0933 546.326 38.0267 546.326 36.8C546.326 35.52 546.433 34.4533 546.646 33.6H535.446C535.66 34.4533 535.766 35.52 535.766 36.8C535.766 38.0267 535.66 39.0933 535.446 40C535.66 40.8533 535.766 41.92 535.766 43.2C535.766 44.4267 535.66 45.4933 535.446 46.4H546.646ZM586.678 52.8C586.891 53.6533 586.998 54.72 586.998 56C586.998 57.2267 586.891 58.2933 586.678 59.2C586.891 60.0533 586.998 61.12 586.998 62.4C586.998 63.6267 586.891 64.6933 586.678 65.6H583.478C583.691 66.4533 583.798 67.52 583.798 68.8C583.798 70.0267 583.691 71.0933 583.478 72H564.278C564.064 71.0933 563.958 70.0267 563.958 68.8C563.958 67.52 564.064 66.4533 564.278 65.6H561.078C560.864 64.6933 560.758 63.6267 560.758 62.4C560.758 61.12 560.864 60.0533 561.078 59.2H567.478C567.691 60.0533 567.798 61.12 567.798 62.4C567.798 63.6267 567.691 64.6933 567.478 65.6H580.278C580.064 64.6933 579.958 63.6267 579.958 62.4C579.958 61.12 580.064 60.0533 580.278 59.2C580.064 58.2933 579.958 57.2267 579.958 56C579.958 54.72 580.064 53.6533 580.278 52.8H564.278C564.064 51.8933 563.958 50.8267 563.958 49.6C563.958 48.32 564.064 47.2533 564.278 46.4H561.078C560.864 45.4933 560.758 44.4267 560.758 43.2C560.758 41.92 560.864 40.8533 561.078 40C560.864 39.0933 560.758 38.0267 560.758 36.8C560.758 35.52 560.864 34.4533 561.078 33.6H564.278C564.064 32.6933 563.958 31.6267 563.958 30.4C563.958 29.12 564.064 28.0533 564.278 27.2H583.478C583.691 28.0533 583.798 29.12 583.798 30.4C583.798 31.6267 583.691 32.6933 583.478 33.6H586.678C586.891 34.4533 586.998 35.52 586.998 36.8C586.998 38.0267 586.891 39.0933 586.678 40H580.278C580.064 39.0933 579.958 38.0267 579.958 36.8C579.958 35.52 580.064 34.4533 580.278 33.6H567.478C567.691 34.4533 567.798 35.52 567.798 36.8C567.798 38.0267 567.691 39.0933 567.478 40C567.691 40.8533 567.798 41.92 567.798 43.2C567.798 44.4267 567.691 45.4933 567.478 46.4H583.478C583.691 47.2533 583.798 48.32 583.798 49.6C583.798 50.8267 583.691 51.8933 583.478 52.8H586.678Z" fill="white"/>
<rect width="64" height="64" transform="translate(1520 16)" fill="white"/>
<path d="M1537.66 62.3352H1549.95V66.4309H1533.56V50.0471H1537.66V62.3352ZM1541.76 62.3342H1537.66V58.2385H1541.76V62.3342ZM1545.86 58.2375H1541.76V54.1418H1545.86V58.2375ZM1549.95 54.1409H1545.86V50.0452H1549.95V54.1409ZM1570.43 45.9495H1566.33V33.6614H1566.33V37.7551H1562.23V33.6614H1554.05V29.5657H1570.43V45.9495ZM1562.24 41.8547H1558.14V45.9485H1554.05V41.8528H1558.14V37.759H1562.24V41.8547Z" fill="black"/>
<rect width="64" height="64" transform="translate(1600 16)" fill="white"/>
<path d="M1625.86 54.1409V58.2366H1621.76V62.3303H1617.67V58.2346H1621.76V54.1409H1625.86ZM1642.25 58.2346H1646.34V62.3303H1642.24V58.2366H1638.15V54.1409H1642.25V58.2346ZM1629.96 54.1399H1625.86V50.0442H1629.96V54.1399ZM1638.15 54.1399H1634.06V50.0442H1638.15V54.1399ZM1634.05 50.0422H1629.96V45.9465H1634.05V50.0422ZM1629.95 45.9485H1625.86V41.8528H1629.95V45.9485ZM1638.15 45.9485H1634.05V41.8528H1638.15V45.9485ZM1621.76 37.7532H1625.86V41.8489H1621.76V37.7551H1617.67V33.6594H1621.76V37.7532ZM1646.34 37.7551H1642.24V41.8489H1638.15V37.7532H1642.24V33.6594H1646.34V37.7551Z" fill="black"/>
<mask id="path-5-inside-1_1_80" fill="white">
<path d="M0 96H1680V500H0V96Z"/>
</mask>
<path d="M1680 500V508H1688V500H1680ZM0 500H-8V508H0V500ZM1680 96H1672V500H1680H1688V96H1680ZM1680 500V492H0V500V508H1680V500ZM0 500H8V96H0H-8V500H0Z" fill="url(#paint1_linear_1_80)" mask="url(#path-5-inside-1_1_80)"/>
<defs>
<linearGradient id="paint0_linear_1_80" x1="1680" y1="48" x2="0" y2="48" gradientUnits="userSpaceOnUse">
<stop stop-color="#ADADAD"/>
<stop offset="1" stop-color="#969696"/>
</linearGradient>
<linearGradient id="paint1_linear_1_80" x1="1680" y1="298" x2="0" y2="298" gradientUnits="userSpaceOnUse">
<stop stop-color="#ADADAD"/>
<stop offset="1" stop-color="#969696"/>
</linearGradient>
</defs>
</svg>
