<svg width="1680" height="500" viewBox="0 0 1680 500" fill="none" xmlns="http://www.w3.org/2000/svg">
<rect width="1680" height="96" fill="url(#paint0_linear_1_47)"/>
<path d="M33.9201 65.9199H28.8V50.5605H33.9201V65.9199ZM44.1604 65.9199H39.0402V40.3203H44.1604V65.9199ZM54.3996 65.9199H49.2805V30.0801H54.3996V65.9199ZM64.6398 65.9199H59.5197V50.5605H64.6398V65.9199Z" fill="white"/>
<path d="M138.24 46.4C138.453 47.2533 138.56 48.32 138.56 49.6C138.56 50.8267 138.453 51.8933 138.24 52.8C138.453 53.6533 138.56 54.72 138.56 56C138.56 57.2267 138.453 58.2933 138.24 59.2H135.04C135.253 60.0533 135.36 61.12 135.36 62.4C135.36 63.6267 135.253 64.6933 135.04 65.6H131.84C132.053 66.4533 132.16 67.52 132.16 68.8C132.16 70.0267 132.053 71.0933 131.84 72H112.64C112.427 71.0933 112.32 70.0267 112.32 68.8C112.32 67.52 112.427 66.4533 112.64 65.6C112.427 64.6933 112.32 63.6267 112.32 62.4C112.32 61.12 112.427 60.0533 112.64 59.2C112.427 58.2933 112.32 57.2267 112.32 56C112.32 54.72 112.427 53.6533 112.64 52.8C112.427 51.8933 112.32 50.8267 112.32 49.6C112.32 48.32 112.427 47.2533 112.64 46.4C112.427 45.4933 112.32 44.4267 112.32 43.2C112.32 41.92 112.427 40.8533 112.64 40C112.427 39.0933 112.32 38.0267 112.32 36.8C112.32 35.52 112.427 34.4533 112.64 33.6C112.427 32.6933 112.32 31.6267 112.32 30.4C112.32 29.12 112.427 28.0533 112.64 27.2H131.84C132.053 28.0533 132.16 29.12 132.16 30.4C132.16 31.6267 132.053 32.6933 131.84 33.6H135.04C135.253 34.4533 135.36 35.52 135.36 36.8C135.36 38.0267 135.253 39.0933 135.04 40H138.24C138.453 40.8533 138.56 41.92 138.56 43.2C138.56 44.4267 138.453 45.4933 138.24 46.4ZM131.84 59.2C131.627 58.2933 131.52 57.2267 131.52 56C131.52 54.72 131.627 53.6533 131.84 52.8C131.627 51.8933 131.52 50.8267 131.52 49.6C131.52 48.32 131.627 47.2533 131.84 46.4C131.627 45.4933 131.52 44.4267 131.52 43.2C131.52 41.92 131.627 40.8533 131.84 40H128.64C128.427 39.0933 128.32 38.0267 128.32 36.8C128.32 35.52 128.427 34.4533 128.64 33.6H119.04C119.253 34.4533 119.36 35.52 119.36 36.8C119.36 38.0267 119.253 39.0933 119.04 40C119.253 40.8533 119.36 41.92 119.36 43.2C119.36 44.4267 119.253 45.4933 119.04 46.4C119.253 47.2533 119.36 48.32 119.36 49.6C119.36 50.8267 119.253 51.8933 119.04 52.8C119.253 53.6533 119.36 54.72 119.36 56C119.36 57.2267 119.253 58.2933 119.04 59.2C119.253 60.0533 119.36 61.12 119.36 62.4C119.36 63.6267 119.253 64.6933 119.04 65.6H128.64C128.427 64.6933 128.32 63.6267 128.32 62.4C128.32 61.12 128.427 60.0533 128.64 59.2H131.84ZM165.471 65.6C165.685 66.4533 165.791 67.52 165.791 68.8C165.791 70.0267 165.685 71.0933 165.471 72H149.471C149.258 71.0933 149.151 70.0267 149.151 68.8C149.151 67.52 149.258 66.4533 149.471 65.6H154.271C154.058 64.6933 153.951 63.6267 153.951 62.4C153.951 61.12 154.058 60.0533 154.271 59.2C154.058 58.2933 153.951 57.2267 153.951 56C153.951 54.72 154.058 53.6533 154.271 52.8C154.058 51.8933 153.951 50.8267 153.951 49.6C153.951 48.32 154.058 47.2533 154.271 46.4C154.058 45.4933 153.951 44.4267 153.951 43.2C153.951 41.92 154.058 40.8533 154.271 40C154.058 39.0933 153.951 38.0267 153.951 36.8C153.951 35.52 154.058 34.4533 154.271 33.6H149.471C149.258 32.6933 149.151 31.6267 149.151 30.4C149.151 29.12 149.258 28.0533 149.471 27.2H165.471C165.685 28.0533 165.791 29.12 165.791 30.4C165.791 31.6267 165.685 32.6933 165.471 33.6H160.671C160.885 34.4533 160.991 35.52 160.991 36.8C160.991 38.0267 160.885 39.0933 160.671 40C160.885 40.8533 160.991 41.92 160.991 43.2C160.991 44.4267 160.885 45.4933 160.671 46.4C160.885 47.2533 160.991 48.32 160.991 49.6C160.991 50.8267 160.885 51.8933 160.671 52.8C160.885 53.6533 160.991 54.72 160.991 56C160.991 57.2267 160.885 58.2933 160.671 59.2C160.885 60.0533 160.991 61.12 160.991 62.4C160.991 63.6267 160.885 64.6933 160.671 65.6H165.471ZM202.623 62.4C202.623 63.6267 202.516 64.6933 202.303 65.6C202.516 66.4533 202.623 67.52 202.623 68.8C202.623 70.0267 202.516 71.0933 202.303 72H195.903C195.689 71.0933 195.583 70.0267 195.583 68.8C195.583 67.52 195.689 66.4533 195.903 65.6C195.689 64.6933 195.583 63.6267 195.583 62.4C195.583 61.12 195.689 60.0533 195.903 59.2H183.103C183.316 60.0533 183.423 61.12 183.423 62.4C183.423 63.6267 183.316 64.6933 183.103 65.6C183.316 66.4533 183.423 67.52 183.423 68.8C183.423 70.0267 183.316 71.0933 183.103 72H176.703C176.489 71.0933 176.383 70.0267 176.383 68.8C176.383 67.52 176.489 66.4533 176.703 65.6C176.489 64.6933 176.383 63.6267 176.383 62.4C176.383 61.12 176.489 60.0533 176.703 59.2H179.103C178.889 58.2933 178.783 57.2267 178.783 56C178.783 54.72 178.889 53.6533 179.103 52.8C178.889 51.8933 178.783 50.8267 178.783 49.6C178.783 48.32 178.889 47.2533 179.103 46.4H180.703C180.489 45.4933 180.383 44.4267 180.383 43.2C180.383 41.92 180.489 40.8533 180.703 40H183.103C182.889 39.0933 182.783 38.0267 182.783 36.8C182.783 35.52 182.889 34.4533 183.103 33.6H184.703C184.489 32.6933 184.383 31.6267 184.383 30.4C184.383 29.12 184.489 28.0533 184.703 27.2H194.303C194.516 28.0533 194.623 29.12 194.623 30.4C194.623 31.6267 194.516 32.6933 194.303 33.6H195.903C196.116 34.4533 196.223 35.52 196.223 36.8C196.223 38.0267 196.116 39.0933 195.903 40H198.303C198.516 40.8533 198.623 41.92 198.623 43.2C198.623 44.4267 198.516 45.4933 198.303 46.4H199.903C200.116 47.2533 200.223 48.32 200.223 49.6C200.223 50.8267 200.116 51.8933 199.903 52.8C200.116 53.6533 200.223 54.72 200.223 56C200.223 57.2267 200.116 58.2933 199.903 59.2H202.303C202.516 60.0533 202.623 61.12 202.623 62.4ZM193.503 52.8C193.289 51.8933 193.183 50.8267 193.183 49.6C193.183 48.32 193.289 47.2533 193.503 46.4H191.903C191.689 45.4933 191.583 44.4267 191.583 43.2C191.583 41.92 191.689 40.8533 191.903 40H187.103C187.316 40.8533 187.423 41.92 187.423 43.2C187.423 44.4267 187.316 45.4933 187.103 46.4H185.503C185.716 47.2533 185.823 48.32 185.823 49.6C185.823 50.8267 185.716 51.8933 185.503 52.8H193.503ZM234.334 33.6C234.547 34.4533 234.654 35.52 234.654 36.8C234.654 38.0267 234.547 39.0933 234.334 40C234.547 40.8533 234.654 41.92 234.654 43.2C234.654 44.4267 234.547 45.4933 234.334 46.4C234.547 47.2533 234.654 48.32 234.654 49.6C234.654 50.8267 234.547 51.8933 234.334 52.8C234.547 53.6533 234.654 54.72 234.654 56C234.654 57.2267 234.547 58.2933 234.334 59.2C234.547 60.0533 234.654 61.12 234.654 62.4C234.654 63.6267 234.547 64.6933 234.334 65.6C234.547 66.4533 234.654 67.52 234.654 68.8C234.654 70.0267 234.547 71.0933 234.334 72H227.934C227.72 71.0933 227.614 70.0267 227.614 68.8C227.614 67.52 227.72 66.4533 227.934 65.6C227.72 64.6933 227.614 63.6267 227.614 62.4C227.614 61.12 227.72 60.0533 227.934 59.2C227.72 58.2933 227.614 57.2267 227.614 56C227.614 54.72 227.72 53.6533 227.934 52.8C227.72 51.8933 227.614 50.8267 227.614 49.6C227.614 48.32 227.72 47.2533 227.934 46.4C227.72 45.4933 227.614 44.4267 227.614 43.2C227.614 41.92 227.72 40.8533 227.934 40H225.534C225.747 40.8533 225.854 41.92 225.854 43.2C225.854 44.4267 225.747 45.4933 225.534 46.4C225.747 47.2533 225.854 48.32 225.854 49.6C225.854 50.8267 225.747 51.8933 225.534 52.8H223.934C224.147 53.6533 224.254 54.72 224.254 56C224.254 57.2267 224.147 58.2933 223.934 59.2C224.147 60.0533 224.254 61.12 224.254 62.4C224.254 63.6267 224.147 64.6933 223.934 65.6H219.134C218.92 64.6933 218.814 63.6267 218.814 62.4C218.814 61.12 218.92 60.0533 219.134 59.2C218.92 58.2933 218.814 57.2267 218.814 56C218.814 54.72 218.92 53.6533 219.134 52.8H217.534C217.32 51.8933 217.214 50.8267 217.214 49.6C217.214 48.32 217.32 47.2533 217.534 46.4C217.32 45.4933 217.214 44.4267 217.214 43.2C217.214 41.92 217.32 40.8533 217.534 40H215.134C215.347 40.8533 215.454 41.92 215.454 43.2C215.454 44.4267 215.347 45.4933 215.134 46.4C215.347 47.2533 215.454 48.32 215.454 49.6C215.454 50.8267 215.347 51.8933 215.134 52.8C215.347 53.6533 215.454 54.72 215.454 56C215.454 57.2267 215.347 58.2933 215.134 59.2C215.347 60.0533 215.454 61.12 215.454 62.4C215.454 63.6267 215.347 64.6933 215.134 65.6C215.347 66.4533 215.454 67.52 215.454 68.8C215.454 70.0267 215.347 71.0933 215.134 72H208.734C208.52 71.0933 208.414 70.0267 208.414 68.8C208.414 67.52 208.52 66.4533 208.734 65.6C208.52 64.6933 208.414 63.6267 208.414 62.4C208.414 61.12 208.52 60.0533 208.734 59.2C208.52 58.2933 208.414 57.2267 208.414 56C208.414 54.72 208.52 53.6533 208.734 52.8C208.52 51.8933 208.414 50.8267 208.414 49.6C208.414 48.32 208.52 47.2533 208.734 46.4C208.52 45.4933 208.414 44.4267 208.414 43.2C208.414 41.92 208.52 40.8533 208.734 40C208.52 39.0933 208.414 38.0267 208.414 36.8C208.414 35.52 208.52 34.4533 208.734 33.6C208.52 32.6933 208.414 31.6267 208.414 30.4C208.414 29.12 208.52 28.0533 208.734 27.2H216.734C216.947 28.0533 217.054 29.12 217.054 30.4C217.054 31.6267 216.947 32.6933 216.734 33.6H219.134C219.347 34.4533 219.454 35.52 219.454 36.8C219.454 38.0267 219.347 39.0933 219.134 40H220.334C220.547 40.8533 220.654 41.92 220.654 43.2C220.654 44.4267 220.547 45.4933 220.334 46.4H222.734C222.52 45.4933 222.414 44.4267 222.414 43.2C222.414 41.92 222.52 40.8533 222.734 40H223.934C223.72 39.0933 223.614 38.0267 223.614 36.8C223.614 35.52 223.72 34.4533 223.934 33.6H226.334C226.12 32.6933 226.014 31.6267 226.014 30.4C226.014 29.12 226.12 28.0533 226.334 27.2H234.334C234.547 28.0533 234.654 29.12 234.654 30.4C234.654 31.6267 234.547 32.6933 234.334 33.6ZM266.365 46.4C266.578 47.2533 266.685 48.32 266.685 49.6C266.685 50.8267 266.578 51.8933 266.365 52.8C266.578 53.6533 266.685 54.72 266.685 56C266.685 57.2267 266.578 58.2933 266.365 59.2H263.965C264.178 60.0533 264.285 61.12 264.285 62.4C264.285 63.6267 264.178 64.6933 263.965 65.6H259.965C260.178 66.4533 260.285 67.52 260.285 68.8C260.285 70.0267 260.178 71.0933 259.965 72H247.165C246.952 71.0933 246.845 70.0267 246.845 68.8C246.845 67.52 246.952 66.4533 247.165 65.6H243.165C242.952 64.6933 242.845 63.6267 242.845 62.4C242.845 61.12 242.952 60.0533 243.165 59.2H240.765C240.552 58.2933 240.445 57.2267 240.445 56C240.445 54.72 240.552 53.6533 240.765 52.8C240.552 51.8933 240.445 50.8267 240.445 49.6C240.445 48.32 240.552 47.2533 240.765 46.4C240.552 45.4933 240.445 44.4267 240.445 43.2C240.445 41.92 240.552 40.8533 240.765 40H243.165C242.952 39.0933 242.845 38.0267 242.845 36.8C242.845 35.52 242.952 34.4533 243.165 33.6H247.165C246.952 32.6933 246.845 31.6267 246.845 30.4C246.845 29.12 246.952 28.0533 247.165 27.2H259.965C260.178 28.0533 260.285 29.12 260.285 30.4C260.285 31.6267 260.178 32.6933 259.965 33.6H263.965C264.178 34.4533 264.285 35.52 264.285 36.8C264.285 38.0267 264.178 39.0933 263.965 40H266.365C266.578 40.8533 266.685 41.92 266.685 43.2C266.685 44.4267 266.578 45.4933 266.365 46.4ZM259.965 59.2C259.752 58.2933 259.645 57.2267 259.645 56C259.645 54.72 259.752 53.6533 259.965 52.8C259.752 51.8933 259.645 50.8267 259.645 49.6C259.645 48.32 259.752 47.2533 259.965 46.4C259.752 45.4933 259.645 44.4267 259.645 43.2C259.645 41.92 259.752 40.8533 259.965 40H257.565C257.352 39.0933 257.245 38.0267 257.245 36.8C257.245 35.52 257.352 34.4533 257.565 33.6H249.565C249.778 34.4533 249.885 35.52 249.885 36.8C249.885 38.0267 249.778 39.0933 249.565 40H247.165C247.378 40.8533 247.485 41.92 247.485 43.2C247.485 44.4267 247.378 45.4933 247.165 46.4C247.378 47.2533 247.485 48.32 247.485 49.6C247.485 50.8267 247.378 51.8933 247.165 52.8C247.378 53.6533 247.485 54.72 247.485 56C247.485 57.2267 247.378 58.2933 247.165 59.2H249.565C249.778 60.0533 249.885 61.12 249.885 62.4C249.885 63.6267 249.778 64.6933 249.565 65.6H257.565C257.352 64.6933 257.245 63.6267 257.245 62.4C257.245 61.12 257.352 60.0533 257.565 59.2H259.965ZM298.396 33.6C298.61 34.4533 298.716 35.52 298.716 36.8C298.716 38.0267 298.61 39.0933 298.396 40C298.61 40.8533 298.716 41.92 298.716 43.2C298.716 44.4267 298.61 45.4933 298.396 46.4C298.61 47.2533 298.716 48.32 298.716 49.6C298.716 50.8267 298.61 51.8933 298.396 52.8C298.61 53.6533 298.716 54.72 298.716 56C298.716 57.2267 298.61 58.2933 298.396 59.2C298.61 60.0533 298.716 61.12 298.716 62.4C298.716 63.6267 298.61 64.6933 298.396 65.6C298.61 66.4533 298.716 67.52 298.716 68.8C298.716 70.0267 298.61 71.0933 298.396 72H291.996C291.783 71.0933 291.676 70.0267 291.676 68.8C291.676 67.52 291.783 66.4533 291.996 65.6H287.996C287.783 64.6933 287.676 63.6267 287.676 62.4C287.676 61.12 287.783 60.0533 287.996 59.2H285.596C285.383 58.2933 285.276 57.2267 285.276 56C285.276 54.72 285.383 53.6533 285.596 52.8H282.396C282.183 51.8933 282.076 50.8267 282.076 49.6C282.076 48.32 282.183 47.2533 282.396 46.4H279.196C279.41 47.2533 279.516 48.32 279.516 49.6C279.516 50.8267 279.41 51.8933 279.196 52.8C279.41 53.6533 279.516 54.72 279.516 56C279.516 57.2267 279.41 58.2933 279.196 59.2C279.41 60.0533 279.516 61.12 279.516 62.4C279.516 63.6267 279.41 64.6933 279.196 65.6C279.41 66.4533 279.516 67.52 279.516 68.8C279.516 70.0267 279.41 71.0933 279.196 72H272.796C272.583 71.0933 272.476 70.0267 272.476 68.8C272.476 67.52 272.583 66.4533 272.796 65.6C272.583 64.6933 272.476 63.6267 272.476 62.4C272.476 61.12 272.583 60.0533 272.796 59.2C272.583 58.2933 272.476 57.2267 272.476 56C272.476 54.72 272.583 53.6533 272.796 52.8C272.583 51.8933 272.476 50.8267 272.476 49.6C272.476 48.32 272.583 47.2533 272.796 46.4C272.583 45.4933 272.476 44.4267 272.476 43.2C272.476 41.92 272.583 40.8533 272.796 40C272.583 39.0933 272.476 38.0267 272.476 36.8C272.476 35.52 272.583 34.4533 272.796 33.6C272.583 32.6933 272.476 31.6267 272.476 30.4C272.476 29.12 272.583 28.0533 272.796 27.2H280.796C281.01 28.0533 281.116 29.12 281.116 30.4C281.116 31.6267 281.01 32.6933 280.796 33.6H283.196C283.41 34.4533 283.516 35.52 283.516 36.8C283.516 38.0267 283.41 39.0933 283.196 40H285.596C285.81 40.8533 285.916 41.92 285.916 43.2C285.916 44.4267 285.81 45.4933 285.596 46.4H288.796C289.01 47.2533 289.116 48.32 289.116 49.6C289.116 50.8267 289.01 51.8933 288.796 52.8H291.996C291.783 51.8933 291.676 50.8267 291.676 49.6C291.676 48.32 291.783 47.2533 291.996 46.4C291.783 45.4933 291.676 44.4267 291.676 43.2C291.676 41.92 291.783 40.8533 291.996 40C291.783 39.0933 291.676 38.0267 291.676 36.8C291.676 35.52 291.783 34.4533 291.996 33.6C291.783 32.6933 291.676 31.6267 291.676 30.4C291.676 29.12 291.783 28.0533 291.996 27.2H298.396C298.61 28.0533 298.716 29.12 298.716 30.4C298.716 31.6267 298.61 32.6933 298.396 33.6ZM330.428 46.4C330.641 47.2533 330.748 48.32 330.748 49.6C330.748 50.8267 330.641 51.8933 330.428 52.8C330.641 53.6533 330.748 54.72 330.748 56C330.748 57.2267 330.641 58.2933 330.428 59.2H327.228C327.441 60.0533 327.548 61.12 327.548 62.4C327.548 63.6267 327.441 64.6933 327.228 65.6H324.028C324.241 66.4533 324.348 67.52 324.348 68.8C324.348 70.0267 324.241 71.0933 324.028 72H304.828C304.614 71.0933 304.508 70.0267 304.508 68.8C304.508 67.52 304.614 66.4533 304.828 65.6C304.614 64.6933 304.508 63.6267 304.508 62.4C304.508 61.12 304.614 60.0533 304.828 59.2C304.614 58.2933 304.508 57.2267 304.508 56C304.508 54.72 304.614 53.6533 304.828 52.8C304.614 51.8933 304.508 50.8267 304.508 49.6C304.508 48.32 304.614 47.2533 304.828 46.4C304.614 45.4933 304.508 44.4267 304.508 43.2C304.508 41.92 304.614 40.8533 304.828 40C304.614 39.0933 304.508 38.0267 304.508 36.8C304.508 35.52 304.614 34.4533 304.828 33.6C304.614 32.6933 304.508 31.6267 304.508 30.4C304.508 29.12 304.614 28.0533 304.828 27.2H324.028C324.241 28.0533 324.348 29.12 324.348 30.4C324.348 31.6267 324.241 32.6933 324.028 33.6H327.228C327.441 34.4533 327.548 35.52 327.548 36.8C327.548 38.0267 327.441 39.0933 327.228 40H330.428C330.641 40.8533 330.748 41.92 330.748 43.2C330.748 44.4267 330.641 45.4933 330.428 46.4ZM324.028 59.2C323.814 58.2933 323.708 57.2267 323.708 56C323.708 54.72 323.814 53.6533 324.028 52.8C323.814 51.8933 323.708 50.8267 323.708 49.6C323.708 48.32 323.814 47.2533 324.028 46.4C323.814 45.4933 323.708 44.4267 323.708 43.2C323.708 41.92 323.814 40.8533 324.028 40H320.828C320.614 39.0933 320.508 38.0267 320.508 36.8C320.508 35.52 320.614 34.4533 320.828 33.6H311.228C311.441 34.4533 311.548 35.52 311.548 36.8C311.548 38.0267 311.441 39.0933 311.228 40C311.441 40.8533 311.548 41.92 311.548 43.2C311.548 44.4267 311.441 45.4933 311.228 46.4C311.441 47.2533 311.548 48.32 311.548 49.6C311.548 50.8267 311.441 51.8933 311.228 52.8C311.441 53.6533 311.548 54.72 311.548 56C311.548 57.2267 311.441 58.2933 311.228 59.2C311.441 60.0533 311.548 61.12 311.548 62.4C311.548 63.6267 311.441 64.6933 311.228 65.6H320.828C320.614 64.6933 320.508 63.6267 320.508 62.4C320.508 61.12 320.614 60.0533 320.828 59.2H324.028ZM394.49 52.8C394.703 53.6533 394.81 54.72 394.81 56C394.81 57.2267 394.703 58.2933 394.49 59.2C394.703 60.0533 394.81 61.12 394.81 62.4C394.81 63.6267 394.703 64.6933 394.49 65.6H391.29C391.503 66.4533 391.61 67.52 391.61 68.8C391.61 70.0267 391.503 71.0933 391.29 72H372.09C371.877 71.0933 371.77 70.0267 371.77 68.8C371.77 67.52 371.877 66.4533 372.09 65.6H368.89C368.677 64.6933 368.57 63.6267 368.57 62.4C368.57 61.12 368.677 60.0533 368.89 59.2H375.29C375.503 60.0533 375.61 61.12 375.61 62.4C375.61 63.6267 375.503 64.6933 375.29 65.6H388.09C387.877 64.6933 387.77 63.6267 387.77 62.4C387.77 61.12 387.877 60.0533 388.09 59.2C387.877 58.2933 387.77 57.2267 387.77 56C387.77 54.72 387.877 53.6533 388.09 52.8H372.09C371.877 51.8933 371.77 50.8267 371.77 49.6C371.77 48.32 371.877 47.2533 372.09 46.4H368.89C368.677 45.4933 368.57 44.4267 368.57 43.2C368.57 41.92 368.677 40.8533 368.89 40C368.677 39.0933 368.57 38.0267 368.57 36.8C368.57 35.52 368.677 34.4533 368.89 33.6H372.09C371.877 32.6933 371.77 31.6267 371.77 30.4C371.77 29.12 371.877 28.0533 372.09 27.2H391.29C391.503 28.0533 391.61 29.12 391.61 30.4C391.61 31.6267 391.503 32.6933 391.29 33.6H394.49C394.703 34.4533 394.81 35.52 394.81 36.8C394.81 38.0267 394.703 39.0933 394.49 40H388.09C387.877 39.0933 387.77 38.0267 387.77 36.8C387.77 35.52 387.877 34.4533 388.09 33.6H375.29C375.503 34.4533 375.61 35.52 375.61 36.8C375.61 38.0267 375.503 39.0933 375.29 40C375.503 40.8533 375.61 41.92 375.61 43.2C375.61 44.4267 375.503 45.4933 375.29 46.4H391.29C391.503 47.2533 391.61 48.32 391.61 49.6C391.61 50.8267 391.503 51.8933 391.29 52.8H394.49ZM426.841 36.8C426.841 38.0267 426.735 39.0933 426.521 40C426.735 40.8533 426.841 41.92 426.841 43.2C426.841 44.4267 426.735 45.4933 426.521 46.4H423.321C423.535 47.2533 423.641 48.32 423.641 49.6C423.641 50.8267 423.535 51.8933 423.321 52.8H407.321C407.535 53.6533 407.641 54.72 407.641 56C407.641 57.2267 407.535 58.2933 407.321 59.2C407.535 60.0533 407.641 61.12 407.641 62.4C407.641 63.6267 407.535 64.6933 407.321 65.6C407.535 66.4533 407.641 67.52 407.641 68.8C407.641 70.0267 407.535 71.0933 407.321 72H400.921C400.708 71.0933 400.601 70.0267 400.601 68.8C400.601 67.52 400.708 66.4533 400.921 65.6C400.708 64.6933 400.601 63.6267 400.601 62.4C400.601 61.12 400.708 60.0533 400.921 59.2C400.708 58.2933 400.601 57.2267 400.601 56C400.601 54.72 400.708 53.6533 400.921 52.8C400.708 51.8933 400.601 50.8267 400.601 49.6C400.601 48.32 400.708 47.2533 400.921 46.4C400.708 45.4933 400.601 44.4267 400.601 43.2C400.601 41.92 400.708 40.8533 400.921 40C400.708 39.0933 400.601 38.0267 400.601 36.8C400.601 35.52 400.708 34.4533 400.921 33.6C400.708 32.6933 400.601 31.6267 400.601 30.4C400.601 29.12 400.708 28.0533 400.921 27.2H423.321C423.535 28.0533 423.641 29.12 423.641 30.4C423.641 31.6267 423.535 32.6933 423.321 33.6H426.521C426.735 34.4533 426.841 35.52 426.841 36.8ZM420.121 46.4C419.908 45.4933 419.801 44.4267 419.801 43.2C419.801 41.92 419.908 40.8533 420.121 40C419.908 39.0933 419.801 38.0267 419.801 36.8C419.801 35.52 419.908 34.4533 420.121 33.6H407.321C407.535 34.4533 407.641 35.52 407.641 36.8C407.641 38.0267 407.535 39.0933 407.321 40C407.535 40.8533 407.641 41.92 407.641 43.2C407.641 44.4267 407.535 45.4933 407.321 46.4H420.121ZM458.553 46.4C458.766 47.2533 458.873 48.32 458.873 49.6C458.873 50.8267 458.766 51.8933 458.553 52.8C458.766 53.6533 458.873 54.72 458.873 56C458.873 57.2267 458.766 58.2933 458.553 59.2H456.153C456.366 60.0533 456.473 61.12 456.473 62.4C456.473 63.6267 456.366 64.6933 456.153 65.6H452.153C452.366 66.4533 452.473 67.52 452.473 68.8C452.473 70.0267 452.366 71.0933 452.153 72H439.353C439.139 71.0933 439.033 70.0267 439.033 68.8C439.033 67.52 439.139 66.4533 439.353 65.6H435.353C435.139 64.6933 435.033 63.6267 435.033 62.4C435.033 61.12 435.139 60.0533 435.353 59.2H432.953C432.739 58.2933 432.633 57.2267 432.633 56C432.633 54.72 432.739 53.6533 432.953 52.8C432.739 51.8933 432.633 50.8267 432.633 49.6C432.633 48.32 432.739 47.2533 432.953 46.4C432.739 45.4933 432.633 44.4267 432.633 43.2C432.633 41.92 432.739 40.8533 432.953 40H435.353C435.139 39.0933 435.033 38.0267 435.033 36.8C435.033 35.52 435.139 34.4533 435.353 33.6H439.353C439.139 32.6933 439.033 31.6267 439.033 30.4C439.033 29.12 439.139 28.0533 439.353 27.2H452.153C452.366 28.0533 452.473 29.12 452.473 30.4C452.473 31.6267 452.366 32.6933 452.153 33.6H456.153C456.366 34.4533 456.473 35.52 456.473 36.8C456.473 38.0267 456.366 39.0933 456.153 40H458.553C458.766 40.8533 458.873 41.92 458.873 43.2C458.873 44.4267 458.766 45.4933 458.553 46.4ZM452.153 59.2C451.939 58.2933 451.833 57.2267 451.833 56C451.833 54.72 451.939 53.6533 452.153 52.8C451.939 51.8933 451.833 50.8267 451.833 49.6C451.833 48.32 451.939 47.2533 452.153 46.4C451.939 45.4933 451.833 44.4267 451.833 43.2C451.833 41.92 451.939 40.8533 452.153 40H449.753C449.539 39.0933 449.433 38.0267 449.433 36.8C449.433 35.52 449.539 34.4533 449.753 33.6H441.753C441.966 34.4533 442.073 35.52 442.073 36.8C442.073 38.0267 441.966 39.0933 441.753 40H439.353C439.566 40.8533 439.673 41.92 439.673 43.2C439.673 44.4267 439.566 45.4933 439.353 46.4C439.566 47.2533 439.673 48.32 439.673 49.6C439.673 50.8267 439.566 51.8933 439.353 52.8C439.566 53.6533 439.673 54.72 439.673 56C439.673 57.2267 439.566 58.2933 439.353 59.2H441.753C441.966 60.0533 442.073 61.12 442.073 62.4C442.073 63.6267 441.966 64.6933 441.753 65.6H449.753C449.539 64.6933 449.433 63.6267 449.433 62.4C449.433 61.12 449.539 60.0533 449.753 59.2H452.153ZM490.584 33.6C490.797 34.4533 490.904 35.52 490.904 36.8C490.904 38.0267 490.797 39.0933 490.584 40C490.797 40.8533 490.904 41.92 490.904 43.2C490.904 44.4267 490.797 45.4933 490.584 46.4C490.797 47.2533 490.904 48.32 490.904 49.6C490.904 50.8267 490.797 51.8933 490.584 52.8C490.797 53.6533 490.904 54.72 490.904 56C490.904 57.2267 490.797 58.2933 490.584 59.2C490.797 60.0533 490.904 61.12 490.904 62.4C490.904 63.6267 490.797 64.6933 490.584 65.6C490.797 66.4533 490.904 67.52 490.904 68.8C490.904 70.0267 490.797 71.0933 490.584 72H484.184C483.97 71.0933 483.864 70.0267 483.864 68.8C483.864 67.52 483.97 66.4533 484.184 65.6H480.184C479.97 64.6933 479.864 63.6267 479.864 62.4C479.864 61.12 479.97 60.0533 480.184 59.2H477.784C477.57 58.2933 477.464 57.2267 477.464 56C477.464 54.72 477.57 53.6533 477.784 52.8H474.584C474.37 51.8933 474.264 50.8267 474.264 49.6C474.264 48.32 474.37 47.2533 474.584 46.4H471.384C471.597 47.2533 471.704 48.32 471.704 49.6C471.704 50.8267 471.597 51.8933 471.384 52.8C471.597 53.6533 471.704 54.72 471.704 56C471.704 57.2267 471.597 58.2933 471.384 59.2C471.597 60.0533 471.704 61.12 471.704 62.4C471.704 63.6267 471.597 64.6933 471.384 65.6C471.597 66.4533 471.704 67.52 471.704 68.8C471.704 70.0267 471.597 71.0933 471.384 72H464.984C464.77 71.0933 464.664 70.0267 464.664 68.8C464.664 67.52 464.77 66.4533 464.984 65.6C464.77 64.6933 464.664 63.6267 464.664 62.4C464.664 61.12 464.77 60.0533 464.984 59.2C464.77 58.2933 464.664 57.2267 464.664 56C464.664 54.72 464.77 53.6533 464.984 52.8C464.77 51.8933 464.664 50.8267 464.664 49.6C464.664 48.32 464.77 47.2533 464.984 46.4C464.77 45.4933 464.664 44.4267 464.664 43.2C464.664 41.92 464.77 40.8533 464.984 40C464.77 39.0933 464.664 38.0267 464.664 36.8C464.664 35.52 464.77 34.4533 464.984 33.6C464.77 32.6933 464.664 31.6267 464.664 30.4C464.664 29.12 464.77 28.0533 464.984 27.2H472.984C473.197 28.0533 473.304 29.12 473.304 30.4C473.304 31.6267 473.197 32.6933 472.984 33.6H475.384C475.597 34.4533 475.704 35.52 475.704 36.8C475.704 38.0267 475.597 39.0933 475.384 40H477.784C477.997 40.8533 478.104 41.92 478.104 43.2C478.104 44.4267 477.997 45.4933 477.784 46.4H480.984C481.197 47.2533 481.304 48.32 481.304 49.6C481.304 50.8267 481.197 51.8933 480.984 52.8H484.184C483.97 51.8933 483.864 50.8267 483.864 49.6C483.864 48.32 483.97 47.2533 484.184 46.4C483.97 45.4933 483.864 44.4267 483.864 43.2C483.864 41.92 483.97 40.8533 484.184 40C483.97 39.0933 483.864 38.0267 483.864 36.8C483.864 35.52 483.97 34.4533 484.184 33.6C483.97 32.6933 483.864 31.6267 483.864 30.4C483.864 29.12 483.97 28.0533 484.184 27.2H490.584C490.797 28.0533 490.904 29.12 490.904 30.4C490.904 31.6267 490.797 32.6933 490.584 33.6ZM522.615 52.8C522.828 53.6533 522.935 54.72 522.935 56C522.935 57.2267 522.828 58.2933 522.615 59.2C522.828 60.0533 522.935 61.12 522.935 62.4C522.935 63.6267 522.828 64.6933 522.615 65.6H519.415C519.628 66.4533 519.735 67.52 519.735 68.8C519.735 70.0267 519.628 71.0933 519.415 72H500.215C500.002 71.0933 499.895 70.0267 499.895 68.8C499.895 67.52 500.002 66.4533 500.215 65.6H497.015C496.802 64.6933 496.695 63.6267 496.695 62.4C496.695 61.12 496.802 60.0533 497.015 59.2H503.415C503.628 60.0533 503.735 61.12 503.735 62.4C503.735 63.6267 503.628 64.6933 503.415 65.6H516.215C516.002 64.6933 515.895 63.6267 515.895 62.4C515.895 61.12 516.002 60.0533 516.215 59.2C516.002 58.2933 515.895 57.2267 515.895 56C515.895 54.72 516.002 53.6533 516.215 52.8H500.215C500.002 51.8933 499.895 50.8267 499.895 49.6C499.895 48.32 500.002 47.2533 500.215 46.4H497.015C496.802 45.4933 496.695 44.4267 496.695 43.2C496.695 41.92 496.802 40.8533 497.015 40C496.802 39.0933 496.695 38.0267 496.695 36.8C496.695 35.52 496.802 34.4533 497.015 33.6H500.215C500.002 32.6933 499.895 31.6267 499.895 30.4C499.895 29.12 500.002 28.0533 500.215 27.2H519.415C519.628 28.0533 519.735 29.12 519.735 30.4C519.735 31.6267 519.628 32.6933 519.415 33.6H522.615C522.828 34.4533 522.935 35.52 522.935 36.8C522.935 38.0267 522.828 39.0933 522.615 40H516.215C516.002 39.0933 515.895 38.0267 515.895 36.8C515.895 35.52 516.002 34.4533 516.215 33.6H503.415C503.628 34.4533 503.735 35.52 503.735 36.8C503.735 38.0267 503.628 39.0933 503.415 40C503.628 40.8533 503.735 41.92 503.735 43.2C503.735 44.4267 503.628 45.4933 503.415 46.4H519.415C519.628 47.2533 519.735 48.32 519.735 49.6C519.735 50.8267 519.628 51.8933 519.415 52.8H522.615ZM554.646 46.4C554.86 47.2533 554.966 48.32 554.966 49.6C554.966 50.8267 554.86 51.8933 554.646 52.8C554.86 53.6533 554.966 54.72 554.966 56C554.966 57.2267 554.86 58.2933 554.646 59.2H552.246C552.46 60.0533 552.566 61.12 552.566 62.4C552.566 63.6267 552.46 64.6933 552.246 65.6H548.246C548.46 66.4533 548.566 67.52 548.566 68.8C548.566 70.0267 548.46 71.0933 548.246 72H535.446C535.233 71.0933 535.126 70.0267 535.126 68.8C535.126 67.52 535.233 66.4533 535.446 65.6H531.446C531.233 64.6933 531.126 63.6267 531.126 62.4C531.126 61.12 531.233 60.0533 531.446 59.2H529.046C528.833 58.2933 528.726 57.2267 528.726 56C528.726 54.72 528.833 53.6533 529.046 52.8C528.833 51.8933 528.726 50.8267 528.726 49.6C528.726 48.32 528.833 47.2533 529.046 46.4C528.833 45.4933 528.726 44.4267 528.726 43.2C528.726 41.92 528.833 40.8533 529.046 40H531.446C531.233 39.0933 531.126 38.0267 531.126 36.8C531.126 35.52 531.233 34.4533 531.446 33.6H535.446C535.233 32.6933 535.126 31.6267 535.126 30.4C535.126 29.12 535.233 28.0533 535.446 27.2H548.246C548.46 28.0533 548.566 29.12 548.566 30.4C548.566 31.6267 548.46 32.6933 548.246 33.6H552.246C552.46 34.4533 552.566 35.52 552.566 36.8C552.566 38.0267 552.46 39.0933 552.246 40H554.646C554.86 40.8533 554.966 41.92 554.966 43.2C554.966 44.4267 554.86 45.4933 554.646 46.4ZM548.246 59.2C548.033 58.2933 547.926 57.2267 547.926 56C547.926 54.72 548.033 53.6533 548.246 52.8C548.033 51.8933 547.926 50.8267 547.926 49.6C547.926 48.32 548.033 47.2533 548.246 46.4C548.033 45.4933 547.926 44.4267 547.926 43.2C547.926 41.92 548.033 40.8533 548.246 40H545.846C545.633 39.0933 545.526 38.0267 545.526 36.8C545.526 35.52 545.633 34.4533 545.846 33.6H537.846C538.06 34.4533 538.166 35.52 538.166 36.8C538.166 38.0267 538.06 39.0933 537.846 40H535.446C535.66 40.8533 535.766 41.92 535.766 43.2C535.766 44.4267 535.66 45.4933 535.446 46.4C535.66 47.2533 535.766 48.32 535.766 49.6C535.766 50.8267 535.66 51.8933 535.446 52.8C535.66 53.6533 535.766 54.72 535.766 56C535.766 57.2267 535.66 58.2933 535.446 59.2H537.846C538.06 60.0533 538.166 61.12 538.166 62.4C538.166 63.6267 538.06 64.6933 537.846 65.6H545.846C545.633 64.6933 545.526 63.6267 545.526 62.4C545.526 61.12 545.633 60.0533 545.846 59.2H548.246ZM586.678 65.6C586.891 66.4533 586.998 67.52 586.998 68.8C586.998 70.0267 586.891 71.0933 586.678 72H580.278C580.064 71.0933 579.958 70.0267 579.958 68.8C579.958 67.52 580.064 66.4533 580.278 65.6H577.878C577.664 64.6933 577.558 63.6267 577.558 62.4C577.558 61.12 577.664 60.0533 577.878 59.2H575.478C575.264 58.2933 575.158 57.2267 575.158 56C575.158 54.72 575.264 53.6533 575.478 52.8H567.478C567.691 53.6533 567.798 54.72 567.798 56C567.798 57.2267 567.691 58.2933 567.478 59.2C567.691 60.0533 567.798 61.12 567.798 62.4C567.798 63.6267 567.691 64.6933 567.478 65.6C567.691 66.4533 567.798 67.52 567.798 68.8C567.798 70.0267 567.691 71.0933 567.478 72H561.078C560.864 71.0933 560.758 70.0267 560.758 68.8C560.758 67.52 560.864 66.4533 561.078 65.6C560.864 64.6933 560.758 63.6267 560.758 62.4C560.758 61.12 560.864 60.0533 561.078 59.2C560.864 58.2933 560.758 57.2267 560.758 56C560.758 54.72 560.864 53.6533 561.078 52.8C560.864 51.8933 560.758 50.8267 560.758 49.6C560.758 48.32 560.864 47.2533 561.078 46.4C560.864 45.4933 560.758 44.4267 560.758 43.2C560.758 41.92 560.864 40.8533 561.078 40C560.864 39.0933 560.758 38.0267 560.758 36.8C560.758 35.52 560.864 34.4533 561.078 33.6C560.864 32.6933 560.758 31.6267 560.758 30.4C560.758 29.12 560.864 28.0533 561.078 27.2H583.478C583.691 28.0533 583.798 29.12 583.798 30.4C583.798 31.6267 583.691 32.6933 583.478 33.6H586.678C586.891 34.4533 586.998 35.52 586.998 36.8C586.998 38.0267 586.891 39.0933 586.678 40H585.078C585.291 40.8533 585.398 41.92 585.398 43.2C585.398 44.4267 585.291 45.4933 585.078 46.4H580.278C580.491 47.2533 580.598 48.32 580.598 49.6C580.598 50.8267 580.491 51.8933 580.278 52.8H581.878C582.091 53.6533 582.198 54.72 582.198 56C582.198 57.2267 582.091 58.2933 581.878 59.2H584.278C584.491 60.0533 584.598 61.12 584.598 62.4C584.598 63.6267 584.491 64.6933 584.278 65.6H586.678ZM578.678 46.4C578.464 45.4933 578.358 44.4267 578.358 43.2C578.358 41.92 578.464 40.8533 578.678 40C578.464 39.0933 578.358 38.0267 578.358 36.8C578.358 35.52 578.464 34.4533 578.678 33.6H567.478C567.691 34.4533 567.798 35.52 567.798 36.8C567.798 38.0267 567.691 39.0933 567.478 40C567.691 40.8533 567.798 41.92 567.798 43.2C567.798 44.4267 567.691 45.4933 567.478 46.4H578.678ZM618.709 52.8C618.922 53.6533 619.029 54.72 619.029 56C619.029 57.2267 618.922 58.2933 618.709 59.2C618.922 60.0533 619.029 61.12 619.029 62.4C619.029 63.6267 618.922 64.6933 618.709 65.6H615.509C615.722 66.4533 615.829 67.52 615.829 68.8C615.829 70.0267 615.722 71.0933 615.509 72H596.309C596.095 71.0933 595.989 70.0267 595.989 68.8C595.989 67.52 596.095 66.4533 596.309 65.6H593.109C592.895 64.6933 592.789 63.6267 592.789 62.4C592.789 61.12 592.895 60.0533 593.109 59.2H599.509C599.722 60.0533 599.829 61.12 599.829 62.4C599.829 63.6267 599.722 64.6933 599.509 65.6H612.309C612.095 64.6933 611.989 63.6267 611.989 62.4C611.989 61.12 612.095 60.0533 612.309 59.2C612.095 58.2933 611.989 57.2267 611.989 56C611.989 54.72 612.095 53.6533 612.309 52.8H596.309C596.095 51.8933 595.989 50.8267 595.989 49.6C595.989 48.32 596.095 47.2533 596.309 46.4H593.109C592.895 45.4933 592.789 44.4267 592.789 43.2C592.789 41.92 592.895 40.8533 593.109 40C592.895 39.0933 592.789 38.0267 592.789 36.8C592.789 35.52 592.895 34.4533 593.109 33.6H596.309C596.095 32.6933 595.989 31.6267 595.989 30.4C595.989 29.12 596.095 28.0533 596.309 27.2H615.509C615.722 28.0533 615.829 29.12 615.829 30.4C615.829 31.6267 615.722 32.6933 615.509 33.6H618.709C618.922 34.4533 619.029 35.52 619.029 36.8C619.029 38.0267 618.922 39.0933 618.709 40H612.309C612.095 39.0933 611.989 38.0267 611.989 36.8C611.989 35.52 612.095 34.4533 612.309 33.6H599.509C599.722 34.4533 599.829 35.52 599.829 36.8C599.829 38.0267 599.722 39.0933 599.509 40C599.722 40.8533 599.829 41.92 599.829 43.2C599.829 44.4267 599.722 45.4933 599.509 46.4H615.509C615.722 47.2533 615.829 48.32 615.829 49.6C615.829 50.8267 615.722 51.8933 615.509 52.8H618.709Z" fill="white"/>
<rect width="64" height="64" transform="translate(1520 16)" fill="white"/>
<path d="M1537.66 62.3354H1549.95V66.4321H1533.56V50.0473H1537.66V62.3354ZM1541.76 62.3344H1537.66V58.2387H1541.76V62.3344ZM1545.86 58.2377H1541.76V54.142H1545.86V58.2377ZM1549.95 54.1411H1545.86V50.0444H1549.95V54.1411ZM1562.24 41.8559H1558.14V45.9496H1554.05V41.8539H1558.14V37.7602H1562.24V41.8559ZM1570.43 45.9496H1566.33V33.6616H1566.33V37.7553H1562.23V33.6616H1554.05V29.5659H1570.43V45.9496Z" fill="black"/>
<rect width="64" height="64" transform="translate(1600 16)" fill="white"/>
<path d="M1625.86 54.1411V58.2368H1621.76V62.3305H1617.67V58.2348H1621.76V54.1411H1625.86ZM1642.25 58.2348H1646.34V62.3305H1642.24V58.2368H1638.15V54.1411H1642.25V58.2348ZM1629.96 54.1401H1625.86V50.0444H1629.96V54.1401ZM1638.15 54.1401H1634.06V50.0444H1638.15V54.1401ZM1634.05 50.0434H1629.96V45.9477H1634.05V50.0434ZM1629.95 45.9496H1625.86V41.8539H1629.95V45.9496ZM1638.15 45.9496H1634.05V41.8539H1638.15V45.9496ZM1621.76 37.7534H1625.86V41.8491H1621.76V37.7553H1617.67V33.6596H1621.76V37.7534ZM1646.34 37.7553H1642.24V41.8491H1638.15V37.7534H1642.24V33.6596H1646.34V37.7553Z" fill="black"/>
<mask id="path-5-inside-1_1_47" fill="white">
<path d="M0 96H1680V500H0V96Z"/>
</mask>
<path d="M1680 500V508H1688V500H1680ZM0 500H-8V508H0V500ZM1680 96H1672V500H1680H1688V96H1680ZM1680 500V492H0V500V508H1680V500ZM0 500H8V96H0H-8V500H0Z" fill="url(#paint1_linear_1_47)" mask="url(#path-5-inside-1_1_47)"/>
<defs>
<linearGradient id="paint0_linear_1_47" x1="1680" y1="48" x2="0" y2="48" gradientUnits="userSpaceOnUse">
<stop stop-color="#16E8E6"/>
<stop offset="1" stop-color="#008DEB"/>
</linearGradient>
<linearGradient id="paint1_linear_1_47" x1="0" y1="298" x2="1680" y2="298" gradientUnits="userSpaceOnUse">
<stop stop-color="#008DEB"/>
<stop offset="1" stop-color="#16E8E6"/>
</linearGradient>
</defs>
</svg>
