<svg width="719" height="218" viewBox="0 0 719 218" fill="none" xmlns="http://www.w3.org/2000/svg">
<g style="mix-blend-mode:soft-light">
<path d="M718.821 49.9823H712.346V55.917C714.501 55.917 716.658 55.917 718.821 55.917V49.9823Z" fill="url(#paint0_linear_448_50347)"/>
<path d="M718.87 6.43054H712.559V18.5032H718.87V6.43054Z" fill="url(#paint1_linear_448_50347)"/>
<path d="M698.814 25.1074V37.2647C703.234 37.2647 707.654 37.2647 712.028 37.2647V30.9982H705.708C705.582 28.8861 705.469 26.9935 705.358 25.109L698.814 25.1074Z" fill="url(#paint2_linear_448_50347)"/>
<path d="M-166.745 11.3055H-159.972V20.5724H-166.734V25.3156H-179.952V30.132H-166.739V34.7722H-160.062V39.3716H-153.268V34.993H-146.559V44.2202H-159.724C-159.848 45.9282 -159.95 47.3658 -160.067 48.9807H-166.506V53.8529H-173.385V56H692.057V53.9919C694.132 53.9919 696.214 53.9919 698.718 53.9919V55.9988H705.591V53.9832H712.245V55.9988H719V53.9112H712.353C712.314 50.7768 712.275 47.6424 712.234 44.5079H705.631V39.8702H698.858V44.2686H692.084V39.8466C689.657 39.7623 687.605 39.6916 685.396 39.6147V35.0798H698.697V30.2808H692.1V25.6294C689.68 25.5376 687.623 25.4595 685.406 25.3751V20.8713H691.884V16.1443C694.307 16.0525 696.359 15.9743 698.577 15.8887V11.3849H691.99V1.77698H110.132V1.83404H-153.209V6.3366H-159.832V1.77698H-166.5V6.42343H-173.385V11.0451H-180V15.7263H-166.745V11.3055ZM-146.58 53.6892H-152.875V49.2325H-146.58V53.6892ZM685.49 49.3777H691.951C691.951 50.8946 691.951 52.4054 691.951 53.9174H685.49V49.3777ZM678.725 11.4296H685.019V15.8863H678.725V11.4296ZM-139.867 6.41102V15.7101H-146.275V11.2324H-153.103C-153.103 9.45367 -153.103 7.93049 -153.103 6.41102H-139.867ZM-159.86 20.6443H-146.622V25.2585H-152.962V30.0588H-166.629V25.3888H-159.86V20.6443Z" fill="url(#paint3_linear_448_50347)"/>
<path d="M705.537 0H698.771V5.98838H705.537V0Z" fill="url(#paint4_linear_448_50347)"/>
<path d="M718.821 103.982H712.346V109.917C714.501 109.917 716.658 109.917 718.821 109.917V103.982Z" fill="url(#paint5_linear_448_50347)"/>
<path d="M718.87 60.4305H712.559V72.5032H718.87V60.4305Z" fill="url(#paint6_linear_448_50347)"/>
<path d="M698.814 79.1074V91.2647C703.234 91.2647 707.654 91.2647 712.028 91.2647V84.9982H705.708C705.582 82.8861 705.469 80.9935 705.358 79.109L698.814 79.1074Z" fill="url(#paint7_linear_448_50347)"/>
<path d="M-166.745 65.3055H-159.972V74.5724H-166.734V79.3156H-179.952V84.132H-166.739V88.7722H-160.062V93.3716H-153.268V88.993H-146.559V98.2202H-159.724C-159.848 99.9282 -159.95 101.366 -160.067 102.981H-166.506V107.853H-173.385V110H692.057V107.992C694.132 107.992 696.214 107.992 698.718 107.992V109.999H705.591V107.983H712.245V109.999H719V107.911H712.353C712.314 104.777 712.275 101.642 712.234 98.5079H705.631V93.8702H698.858V98.2686H692.084V93.8466C689.657 93.7623 687.605 93.6916 685.396 93.6147V89.0798H698.697V84.2808H692.1V79.6294C689.68 79.5376 687.623 79.4595 685.406 79.3751V74.8713H691.884V70.1443C694.307 70.0525 696.359 69.9743 698.577 69.8887V65.3849H691.99V55.777H110.132V55.834H-153.209V60.3366H-159.832V55.777H-166.5V60.4234H-173.385V65.0451H-180V69.7263H-166.745V65.3055ZM-146.58 107.689H-152.875V103.233H-146.58V107.689ZM685.49 103.378H691.951C691.951 104.895 691.951 106.405 691.951 107.917H685.49V103.378ZM678.725 65.4296H685.019V69.8863H678.725V65.4296ZM-139.867 60.411V69.7101H-146.275V65.2324H-153.103C-153.103 63.4537 -153.103 61.9305 -153.103 60.411H-139.867ZM-159.86 74.6443H-146.622V79.2585H-152.962V84.0588H-166.629V79.3888H-159.86V74.6443Z" fill="url(#paint8_linear_448_50347)"/>
<path d="M705.537 54H698.771V59.9884H705.537V54Z" fill="url(#paint9_linear_448_50347)"/>
<path d="M718.821 156.982H712.346V162.917C714.501 162.917 716.658 162.917 718.821 162.917V156.982Z" fill="url(#paint10_linear_448_50347)"/>
<path d="M718.87 113.431H712.559V125.503H718.87V113.431Z" fill="url(#paint11_linear_448_50347)"/>
<path d="M698.814 132.107V144.265C703.234 144.265 707.654 144.265 712.028 144.265V137.998H705.708C705.582 135.886 705.469 133.994 705.358 132.109L698.814 132.107Z" fill="url(#paint12_linear_448_50347)"/>
<path d="M-166.745 118.306H-159.972V127.572H-166.734V132.316H-179.952V137.132H-166.739V141.772H-160.062V146.372H-153.268V141.993H-146.559V151.22H-159.724C-159.848 152.928 -159.95 154.366 -160.067 155.981H-166.506V160.853H-173.385V163H692.057V160.992C694.132 160.992 696.214 160.992 698.718 160.992V162.999H705.591V160.983H712.245V162.999H719V160.911H712.353C712.314 157.777 712.275 154.642 712.234 151.508H705.631V146.87H698.858V151.269H692.084V146.847C689.657 146.762 687.605 146.692 685.396 146.615V142.08H698.697V137.281H692.1V132.629C689.68 132.538 687.623 132.459 685.406 132.375V127.871H691.884V123.144C694.307 123.052 696.359 122.974 698.577 122.889V118.385H691.99V108.777H110.132V108.834H-153.209V113.337H-159.832V108.777H-166.5V113.423H-173.385V118.045H-180V122.726H-166.745V118.306ZM-146.58 160.689H-152.875V156.233H-146.58V160.689ZM685.49 156.378H691.951C691.951 157.895 691.951 159.405 691.951 160.917H685.49V156.378ZM678.725 118.43H685.019V122.886H678.725V118.43ZM-139.867 113.411V122.71H-146.275V118.232H-153.103C-153.103 116.454 -153.103 114.93 -153.103 113.411H-139.867ZM-159.86 127.644H-146.622V132.259H-152.962V137.059H-166.629V132.389H-159.86V127.644Z" fill="url(#paint13_linear_448_50347)"/>
<path d="M705.537 107H698.771V112.988H705.537V107Z" fill="url(#paint14_linear_448_50347)"/>
<path d="M718.821 210.982H712.346V216.917C714.501 216.917 716.658 216.917 718.821 216.917V210.982Z" fill="url(#paint15_linear_448_50347)"/>
<path d="M718.87 167.431H712.559V179.503H718.87V167.431Z" fill="url(#paint16_linear_448_50347)"/>
<path d="M698.814 186.107V198.265C703.234 198.265 707.654 198.265 712.028 198.265V191.998H705.708C705.582 189.886 705.469 187.994 705.358 186.109L698.814 186.107Z" fill="url(#paint17_linear_448_50347)"/>
<path d="M-166.745 172.529H-159.972V181.795H-166.734V186.539H-179.952V191.355H-166.739V195.995H-160.062V200.595H-153.268V196.216H-146.559V205.443H-159.724C-159.848 207.151 -159.95 208.589 -160.067 210.204H-166.506V215.076H-173.385V217.223H692.057V215.215C694.132 215.215 696.214 215.215 698.718 215.215V217.222H705.591V215.206H712.245V217.222H719V215.134H712.353C712.314 212 712.275 208.865 712.234 205.731H705.631V201.093H698.858V205.492H692.084V201.07C689.657 200.985 687.605 200.915 685.396 200.838V196.303H698.697V191.504H692.1V186.852C689.68 186.761 687.623 186.683 685.406 186.598V182.094H691.884V177.367C694.307 177.275 696.359 177.197 698.577 177.112V172.608H691.99V163H110.132V163.057H-153.209V167.56H-159.832V163H-166.5V167.646H-173.385V172.268H-180V176.949H-166.745V172.529ZM-146.58 214.912H-152.875V210.456H-146.58V214.912ZM685.49 210.601H691.951C691.951 212.118 691.951 213.628 691.951 215.14H685.49V210.601ZM678.725 172.653H685.019V177.109H678.725V172.653ZM-139.867 167.634V176.933H-146.275V172.455H-153.103C-153.103 170.677 -153.103 169.154 -153.103 167.634H-139.867ZM-159.86 181.867H-146.622V186.482H-152.962V191.282H-166.629V186.612H-159.86V181.867Z" fill="url(#paint18_linear_448_50347)"/>
<path d="M705.537 161H698.771V166.988H705.537V161Z" fill="url(#paint19_linear_448_50347)"/>
</g>
<path d="M115.72 93.72V108.12H114.28V109.56H112.84V111H102.76V109.56H101.32V108.12H99.88V106.68H98.44V105.24H97V85.08H98.44V83.64H99.88V82.2H101.32V80.76H102.76V79.32H112.84V80.76H114.28V82.2H115.72V85.08H111.4V83.64H104.2V85.08H102.76V86.52H101.32V103.8H102.76V105.24H104.2V106.68H111.4V98.04H109.96V99.48H105.64V93.72H115.72ZM131.569 103.8H133.009V86.52H131.569V85.08H130.129V83.64H125.809V85.08H124.369V86.52H122.929V103.8H124.369V105.24H125.809V106.68H130.129V105.24H131.569V103.8ZM137.329 85.08V105.24H135.889V106.68H134.449V108.12H133.009V109.56H131.569V111H124.369V109.56H122.929V108.12H121.489V106.68H120.049V105.24H118.609V85.08H120.049V83.64H121.489V82.2H122.929V80.76H124.369V79.32H131.569V80.76H133.009V82.2H134.449V83.64H135.889V85.08H137.329ZM158.939 106.68V111H140.219V79.32H144.539V106.68H158.939ZM174.788 102.36H176.228V87.96H174.788V86.52H173.348V85.08H171.908V83.64H166.148V106.68H171.908V105.24H173.348V103.8H174.788V102.36ZM180.548 86.52V103.8H179.108V105.24H177.668V106.68H176.228V108.12H174.788V109.56H173.3V111H161.828V79.32H173.348V80.76H174.788V82.2H176.228V83.64H177.668V85.08H179.108V86.52H180.548Z" fill="url(#paint20_linear_448_50347)"/>
<path d="M106.36 126.8V131.84H105.64V132.56H104.92V133.28H104.2V134H99.16V133.28H98.44V132.56H97.72V131.84H97V129.68H99.16V131.12H99.88V131.84H103.48V131.12H104.2V127.52H103.48V126.8H99.16V126.08H98.44V125.36H97.72V124.64H97V120.32H97.72V119.6H98.44V118.88H99.16V118.16H104.2V118.88H104.92V119.6H105.64V120.32H106.36V122.48H104.2V121.04H103.48V120.32H99.88V121.04H99.16V123.92H99.88V124.64H104.2V125.36H104.92V126.08H105.64V126.8H106.36ZM114.045 124.64H114.765V121.04H114.045V120.32H109.725V125.36H114.045V124.64ZM116.925 120.32V125.36H116.205V126.08H115.485V126.8H114.765V127.52H109.725V134H107.565V118.16H114.765V118.88H115.485V119.6H116.205V120.32H116.925ZM124.609 130.4H125.329V121.76H124.609V121.04H123.889V120.32H121.729V121.04H121.009V121.76H120.289V130.4H121.009V131.12H121.729V131.84H123.889V131.12H124.609V130.4ZM127.489 121.04V131.12H126.769V131.84H126.049V132.56H125.329V133.28H124.609V134H121.009V133.28H120.289V132.56H119.569V131.84H118.849V131.12H118.129V121.04H118.849V120.32H119.569V119.6H120.289V118.88H121.009V118.16H124.609V118.88H125.329V119.6H126.049V120.32H126.769V121.04H127.489ZM138.054 118.16V134H135.894V133.28H135.174V131.84H134.454V130.4H133.734V128.96H133.014V127.52H132.294V126.08H131.574V124.64H130.854V134H128.694V118.16H130.134V119.6H130.854V121.04H131.574V122.48H132.294V123.92H133.014V125.36H133.734V126.8H134.454V128.24H135.174V129.68H135.894V118.16H138.054ZM148.619 126.8V131.84H147.899V132.56H147.179V133.28H146.459V134H141.419V133.28H140.699V132.56H139.979V131.84H139.259V129.68H141.419V131.12H142.139V131.84H145.739V131.12H146.459V127.52H145.739V126.8H141.419V126.08H140.699V125.36H139.979V124.64H139.259V120.32H139.979V119.6H140.699V118.88H141.419V118.16H146.459V118.88H147.179V119.6H147.899V120.32H148.619V122.48H146.459V121.04H145.739V120.32H142.139V121.04H141.419V123.92H142.139V124.64H146.459V125.36H147.179V126.08H147.899V126.8H148.619ZM156.303 130.4H157.023V121.76H156.303V121.04H155.583V120.32H153.423V121.04H152.703V121.76H151.983V130.4H152.703V131.12H153.423V131.84H155.583V131.12H156.303V130.4ZM159.183 121.04V131.12H158.463V131.84H157.743V132.56H157.023V133.28H156.303V134H152.703V133.28H151.983V132.56H151.263V131.84H150.543V131.12H149.823V121.04H150.543V120.32H151.263V119.6H151.983V118.88H152.703V118.16H156.303V118.88H157.023V119.6H157.743V120.32H158.463V121.04H159.183ZM166.868 123.92H167.588V121.04H166.868V120.32H162.548V124.64H166.868V123.92ZM169.748 130.4V134H167.588V131.12H166.868V129.68H166.148V128.24H165.428V126.8H162.548V134H160.388V118.16H167.588V118.88H168.308V119.6H169.028V120.32H169.748V124.64H169.028V125.36H168.308V126.08H167.588V127.52H168.308V128.96H169.028V130.4H169.748ZM180.313 126.8V131.84H179.593V132.56H178.873V133.28H178.153V134H173.113V133.28H172.393V132.56H171.673V131.84H170.953V129.68H173.113V131.12H173.833V131.84H177.433V131.12H178.153V127.52H177.433V126.8H173.113V126.08H172.393V125.36H171.673V124.64H170.953V120.32H171.673V119.6H172.393V118.88H173.113V118.16H178.153V118.88H178.873V119.6H179.593V120.32H180.313V122.48H178.153V121.04H177.433V120.32H173.833V121.04H173.113V123.92H173.833V124.64H178.153V125.36H178.873V126.08H179.593V126.8H180.313Z" fill="url(#paint21_linear_448_50347)"/>
<defs>
<linearGradient id="paint0_linear_448_50347" x1="712.346" y1="52.9497" x2="718.821" y2="52.9497" gradientUnits="userSpaceOnUse">
<stop/>
<stop offset="0.0001" stop-color="#020101"/>
<stop offset="0.299" stop-color="#E74C3C"/>
<stop offset="0.879"/>
</linearGradient>
<linearGradient id="paint1_linear_448_50347" x1="712.559" y1="12.4669" x2="718.87" y2="12.4669" gradientUnits="userSpaceOnUse">
<stop/>
<stop offset="0.0001" stop-color="#020101"/>
<stop offset="0.299" stop-color="#E74C3C"/>
<stop offset="0.879"/>
</linearGradient>
<linearGradient id="paint2_linear_448_50347" x1="698.814" y1="31.186" x2="712.028" y2="31.186" gradientUnits="userSpaceOnUse">
<stop/>
<stop offset="0.0001" stop-color="#020101"/>
<stop offset="0.299" stop-color="#E74C3C"/>
<stop offset="0.879"/>
</linearGradient>
<linearGradient id="paint3_linear_448_50347" x1="-180" y1="28.8885" x2="719" y2="28.8885" gradientUnits="userSpaceOnUse">
<stop/>
<stop offset="0.0001" stop-color="#020101"/>
<stop offset="0.299" stop-color="#E74C3C"/>
<stop offset="0.879"/>
</linearGradient>
<linearGradient id="paint4_linear_448_50347" x1="698.771" y1="2.99419" x2="705.537" y2="2.99419" gradientUnits="userSpaceOnUse">
<stop/>
<stop offset="0.0001" stop-color="#020101"/>
<stop offset="0.299" stop-color="#E74C3C"/>
<stop offset="0.879"/>
</linearGradient>
<linearGradient id="paint5_linear_448_50347" x1="712.346" y1="106.95" x2="718.821" y2="106.95" gradientUnits="userSpaceOnUse">
<stop/>
<stop offset="0.0001" stop-color="#020101"/>
<stop offset="0.299" stop-color="#E74C3C"/>
<stop offset="0.879"/>
</linearGradient>
<linearGradient id="paint6_linear_448_50347" x1="712.559" y1="66.4669" x2="718.87" y2="66.4669" gradientUnits="userSpaceOnUse">
<stop/>
<stop offset="0.0001" stop-color="#020101"/>
<stop offset="0.299" stop-color="#E74C3C"/>
<stop offset="0.879"/>
</linearGradient>
<linearGradient id="paint7_linear_448_50347" x1="698.814" y1="85.186" x2="712.028" y2="85.186" gradientUnits="userSpaceOnUse">
<stop/>
<stop offset="0.0001" stop-color="#020101"/>
<stop offset="0.299" stop-color="#E74C3C"/>
<stop offset="0.879"/>
</linearGradient>
<linearGradient id="paint8_linear_448_50347" x1="-180" y1="82.8885" x2="719" y2="82.8885" gradientUnits="userSpaceOnUse">
<stop/>
<stop offset="0.0001" stop-color="#020101"/>
<stop offset="0.299" stop-color="#E74C3C"/>
<stop offset="0.879"/>
</linearGradient>
<linearGradient id="paint9_linear_448_50347" x1="698.771" y1="56.9942" x2="705.537" y2="56.9942" gradientUnits="userSpaceOnUse">
<stop/>
<stop offset="0.0001" stop-color="#020101"/>
<stop offset="0.299" stop-color="#E74C3C"/>
<stop offset="0.879"/>
</linearGradient>
<linearGradient id="paint10_linear_448_50347" x1="712.346" y1="159.95" x2="718.821" y2="159.95" gradientUnits="userSpaceOnUse">
<stop/>
<stop offset="0.0001" stop-color="#020101"/>
<stop offset="0.299" stop-color="#E74C3C"/>
<stop offset="0.879"/>
</linearGradient>
<linearGradient id="paint11_linear_448_50347" x1="712.559" y1="119.467" x2="718.87" y2="119.467" gradientUnits="userSpaceOnUse">
<stop/>
<stop offset="0.0001" stop-color="#020101"/>
<stop offset="0.299" stop-color="#E74C3C"/>
<stop offset="0.879"/>
</linearGradient>
<linearGradient id="paint12_linear_448_50347" x1="698.814" y1="138.186" x2="712.028" y2="138.186" gradientUnits="userSpaceOnUse">
<stop/>
<stop offset="0.0001" stop-color="#020101"/>
<stop offset="0.299" stop-color="#E74C3C"/>
<stop offset="0.879"/>
</linearGradient>
<linearGradient id="paint13_linear_448_50347" x1="-180" y1="135.889" x2="719" y2="135.889" gradientUnits="userSpaceOnUse">
<stop/>
<stop offset="0.0001" stop-color="#020101"/>
<stop offset="0.299" stop-color="#E74C3C"/>
<stop offset="0.879"/>
</linearGradient>
<linearGradient id="paint14_linear_448_50347" x1="698.771" y1="109.994" x2="705.537" y2="109.994" gradientUnits="userSpaceOnUse">
<stop/>
<stop offset="0.0001" stop-color="#020101"/>
<stop offset="0.299" stop-color="#E74C3C"/>
<stop offset="0.879"/>
</linearGradient>
<linearGradient id="paint15_linear_448_50347" x1="712.346" y1="213.95" x2="718.821" y2="213.95" gradientUnits="userSpaceOnUse">
<stop/>
<stop offset="0.0001" stop-color="#020101"/>
<stop offset="0.299" stop-color="#E74C3C"/>
<stop offset="0.879"/>
</linearGradient>
<linearGradient id="paint16_linear_448_50347" x1="712.559" y1="173.467" x2="718.87" y2="173.467" gradientUnits="userSpaceOnUse">
<stop/>
<stop offset="0.0001" stop-color="#020101"/>
<stop offset="0.299" stop-color="#E74C3C"/>
<stop offset="0.879"/>
</linearGradient>
<linearGradient id="paint17_linear_448_50347" x1="698.814" y1="192.186" x2="712.028" y2="192.186" gradientUnits="userSpaceOnUse">
<stop/>
<stop offset="0.0001" stop-color="#020101"/>
<stop offset="0.299" stop-color="#E74C3C"/>
<stop offset="0.879"/>
</linearGradient>
<linearGradient id="paint18_linear_448_50347" x1="-180" y1="190.112" x2="719" y2="190.112" gradientUnits="userSpaceOnUse">
<stop/>
<stop offset="0.0001" stop-color="#020101"/>
<stop offset="0.299" stop-color="#E74C3C"/>
<stop offset="0.879"/>
</linearGradient>
<linearGradient id="paint19_linear_448_50347" x1="698.771" y1="163.994" x2="705.537" y2="163.994" gradientUnits="userSpaceOnUse">
<stop/>
<stop offset="0.0001" stop-color="#020101"/>
<stop offset="0.299" stop-color="#E74C3C"/>
<stop offset="0.879"/>
</linearGradient>
<linearGradient id="paint20_linear_448_50347" x1="186" y1="96.5" x2="97" y2="96.5" gradientUnits="userSpaceOnUse">
<stop stop-color="#FE6A18"/>
<stop offset="1" stop-color="#FED018"/>
</linearGradient>
<linearGradient id="paint21_linear_448_50347" x1="183" y1="127" x2="97" y2="127" gradientUnits="userSpaceOnUse">
<stop stop-color="#FE6A18"/>
<stop offset="1" stop-color="#FED018"/>
</linearGradient>
</defs>
</svg>
