<svg width="22" height="20" viewBox="0 0 22 20" fill="none" xmlns="http://www.w3.org/2000/svg">
<g style="mix-blend-mode:plus-lighter">
<path d="M10.7411 18.4614H9.20703V20.0001H10.7411V18.4614Z" fill="#4D496F"/>
<path d="M10.7411 16.9229H9.20703V18.4615H10.7411V16.9229Z" fill="#4E4672"/>
<path d="M10.7411 15.3843H9.20703V16.9229H10.7411V15.3843Z" fill="#6D88AF"/>
<path d="M12.2743 13.8452H10.7402V15.3839H12.2743V13.8452Z" fill="#514778"/>
<path d="M10.7411 13.8452H9.20703V15.3839H10.7411V13.8452Z" fill="#7288BA"/>
<path d="M9.20402 13.8452H7.66992V15.3839H9.20402V13.8452Z" fill="#535072"/>
<path d="M13.8095 12.3066H12.2754V13.8453H13.8095V12.3066Z" fill="#505582"/>
<path d="M12.2743 12.3066H10.7402V13.8453H12.2743V12.3066Z" fill="#6A8DB2"/>
<path d="M10.7411 12.3066H9.20703V13.8453H10.7411V12.3066Z" fill="#ACC8E6"/>
<path d="M9.20402 12.3066H7.66992V13.8453H9.20402V12.3066Z" fill="#708BB4"/>
<path d="M7.67082 12.3066H6.13672V13.8453H7.67082V12.3066Z" fill="#51496D"/>
<path d="M15.3427 10.7705H13.8086V12.3091H15.3427V10.7705Z" fill="#747CA4"/>
<path d="M13.8095 10.7705H12.2754V12.3091H13.8095V10.7705Z" fill="#7E96C1"/>
<path d="M12.2743 10.7705H10.7402V12.3091H12.2743V10.7705Z" fill="#B7C8E1"/>
<path d="M10.7411 10.7705H9.20703V12.3091H10.7411V10.7705Z" fill="#E1E6F2"/>
<path d="M9.20402 10.7705H7.66992V12.3091H9.20402V10.7705Z" fill="#B4CCE9"/>
<path d="M7.67082 10.7705H6.13672V12.3091H7.67082V10.7705Z" fill="#788CB5"/>
<path d="M6.13567 10.7705H4.60156V12.3091H6.13567V10.7705Z" fill="#514B73"/>
<path d="M21.4814 9.23193H19.9473V10.7706H21.4814V9.23193Z" fill="#4F4970"/>
<path d="M19.9462 9.23193H18.4121V10.7706H19.9462V9.23193Z" fill="#524C73"/>
<path d="M18.4111 9.23193H16.877V10.7706H18.4111V9.23193Z" fill="#6B84B1"/>
<path d="M16.8779 9.23193H15.3438V10.7706H16.8779V9.23193Z" fill="#6C90BB"/>
<path d="M15.3427 9.23193H13.8086V10.7706H15.3427V9.23193Z" fill="#A2BDEB"/>
<path d="M13.8095 9.23193H12.2754V10.7706H13.8095V9.23193Z" fill="#BBCDE0"/>
<path d="M12.2743 9.23193H10.7402V10.7706H12.2743V9.23193Z" fill="#E6E5E7"/>
<path d="M10.7411 9.23193H9.20703V10.7706H10.7411V9.23193Z" fill="#F2F7F2"/>
<path d="M9.20402 9.23193H7.66992V10.7706H9.20402V9.23193Z" fill="#E3E9E8"/>
<path d="M7.67082 9.23193H6.13672V10.7706H7.67082V9.23193Z" fill="#B1C9EF"/>
<path d="M6.13567 9.23193H4.60156V10.7706H6.13567V9.23193Z" fill="#6A8FBA"/>
<path d="M4.60246 9.23193H3.06836V10.7706H4.60246V9.23193Z" fill="#6F8FBA"/>
<path d="M3.06731 9.23193H1.5332V10.7706H3.06731V9.23193Z" fill="#574A75"/>
<path d="M1.5341 9.23193H0V10.7706H1.5341V9.23193Z" fill="#544D74"/>
<path d="M15.3427 7.69336H13.8086V9.23199H15.3427V7.69336Z" fill="#7380A7"/>
<path d="M13.8095 7.69336H12.2754V9.23199H13.8095V7.69336Z" fill="#7899C1"/>
<path d="M12.2743 7.69336H10.7402V9.23199H12.2743V7.69336Z" fill="#B8CAD8"/>
<path d="M10.7411 7.69336H9.20703V9.23199H10.7411V7.69336Z" fill="#E5E8F0"/>
<path d="M9.20402 7.69336H7.66992V9.23199H9.20402V7.69336Z" fill="#B8C9E9"/>
<path d="M7.67082 7.69336H6.13672V9.23199H7.67082V7.69336Z" fill="#748CB1"/>
<path d="M6.13567 7.69336H4.60156V9.23199H6.13567V7.69336Z" fill="#564B75"/>
<path d="M13.8095 6.15479H12.2754V7.69342H13.8095V6.15479Z" fill="#4E5C88"/>
<path d="M12.2743 6.15479H10.7402V7.69342H12.2743V6.15479Z" fill="#7392B1"/>
<path d="M10.7411 6.15479H9.20703V7.69342H10.7411V6.15479Z" fill="#B5C4DB"/>
<path d="M9.20402 6.15479H7.66992V7.69342H9.20402V6.15479Z" fill="#7792BB"/>
<path d="M7.67082 6.15479H6.13672V7.69342H7.67082V6.15479Z" fill="#4F4A81"/>
<path d="M12.2743 4.61572H10.7402V6.15436H12.2743V4.61572Z" fill="#454977"/>
<path d="M10.7411 4.61572H9.20703V6.15436H10.7411V4.61572Z" fill="#7186B3"/>
<path d="M9.20402 4.61572H7.66992V6.15436H9.20402V4.61572Z" fill="#4B4975"/>
<path d="M10.7411 3.07715H9.20703V4.61578H10.7411V3.07715Z" fill="#6984B0"/>
<path d="M10.7411 1.53857H9.20703V3.07721H10.7411V1.53857Z" fill="#494A75"/>
<path d="M10.7411 0H9.20703V1.53864H10.7411V0Z" fill="#514970"/>
</g>
</svg>
