<svg width="267" height="97" viewBox="0 0 267 97" fill="none" xmlns="http://www.w3.org/2000/svg">
<mask id="path-1-outside-1_2015_37723" maskUnits="userSpaceOnUse" x="78" y="5" width="109" height="26" fill="black">
<rect fill="white" x="78" y="5" width="109" height="26"/>
<path d="M92.6782 29H89.7982V19.4H83.0782V29H80.1982V7.88H83.0782V16.52H89.7982V7.88H92.6782V29ZM108.044 29H105.164V24.2H98.4444V29H95.5644V21.32V20.36V18.44H96.5244V16.52H97.4844V14.6H98.4444V12.68H99.4044V10.76H100.364V8.84H101.324V7.88H102.284V8.84H103.244V10.76H104.204V12.68H105.164V14.6H106.124V16.52H107.084V18.44H108.044V20.36V21.32V29ZM105.164 21.32V20.36V19.4H104.204V17.48H103.244V15.56H102.284V13.64H101.324V15.56H100.364V17.48H99.4044V19.4H98.4444V20.36V21.32H105.164ZM123.411 26.12H122.451V27.08H121.491V28.04H120.531V29H114.771V28.04H113.811V27.08H112.851V26.12H111.891V25.16H110.931V11.72H111.891V10.76H112.851V9.8H113.811V8.84H114.771V7.88H120.531V8.84H121.491V9.8H122.451V10.76H123.411V13.64H120.531V11.72H119.571V10.76H115.731V11.72H114.771V12.68H113.811V24.2H114.771V25.16H115.731V26.12H119.571V25.16H120.531V23.24H123.411V26.12ZM138.777 29H135.897V27.08H134.937V25.16H133.977V23.24H133.017V21.32H132.057V19.4H130.137V20.36H129.177V29H126.297V7.88H129.177V16.52H130.137V15.56H131.097V14.6H132.057V13.64H133.017V12.68H133.977V11.72H134.937V10.728H135.897V9.8H136.857V8.84H137.817V7.88H138.777V11.72H137.817V12.68H136.857V13.64H135.897V14.568H134.937V15.56H133.977V16.52H133.017V17.48H133.977V18.44H134.937V20.36H135.897V22.28H136.857V24.2H137.817V26.12H138.777V29ZM154.143 29H141.663V26.12H146.463V10.76H144.543V7.88H151.263V10.76H149.343V26.12H154.143V29ZM169.509 29H166.629V28.04H165.669V26.12H164.709V24.2H163.749V22.28H162.789V20.36H161.829V18.44H160.869V16.52H159.909V29H157.029V7.88H158.949V9.8H159.909V11.72H160.869V13.64H161.829V15.56H162.789V17.48H163.749V19.4H164.709V21.32H165.669V23.24H166.629V7.88H169.509V29ZM184.876 27.08H183.916V28.04H182.956V29H176.236V28.04H175.276V27.08H174.316V26.12H173.356V25.16H172.396V11.72H173.356V10.76H174.316V9.8H175.276V8.84H176.236V7.88H182.956V8.84H183.916V9.8H184.876V11.72H181.996V10.76H177.196V11.72H176.236V12.68H175.276V24.2H176.236V25.16H177.196V26.12H181.996V20.36H181.036V21.32H178.156V17.48H184.876V27.08Z"/>
</mask>
<path d="M92.6782 29V31H94.6782V29H92.6782ZM89.7982 29H87.7982V31H89.7982V29ZM89.7982 19.4H91.7982V17.4H89.7982V19.4ZM83.0782 19.4V17.4H81.0782V19.4H83.0782ZM83.0782 29V31H85.0782V29H83.0782ZM80.1982 29H78.1982V31H80.1982V29ZM80.1982 7.88V5.88H78.1982V7.88H80.1982ZM83.0782 7.88H85.0782V5.88H83.0782V7.88ZM83.0782 16.52H81.0782V18.52H83.0782V16.52ZM89.7982 16.52V18.52H91.7982V16.52H89.7982ZM89.7982 7.88V5.88H87.7982V7.88H89.7982ZM92.6782 7.88H94.6782V5.88H92.6782V7.88ZM92.6782 29V27H89.7982V29V31H92.6782V29ZM89.7982 29H91.7982V19.4H89.7982H87.7982V29H89.7982ZM89.7982 19.4V17.4H83.0782V19.4V21.4H89.7982V19.4ZM83.0782 19.4H81.0782V29H83.0782H85.0782V19.4H83.0782ZM83.0782 29V27H80.1982V29V31H83.0782V29ZM80.1982 29H82.1982V7.88H80.1982H78.1982V29H80.1982ZM80.1982 7.88V9.88H83.0782V7.88V5.88H80.1982V7.88ZM83.0782 7.88H81.0782V16.52H83.0782H85.0782V7.88H83.0782ZM83.0782 16.52V18.52H89.7982V16.52V14.52H83.0782V16.52ZM89.7982 16.52H91.7982V7.88H89.7982H87.7982V16.52H89.7982ZM89.7982 7.88V9.88H92.6782V7.88V5.88H89.7982V7.88ZM92.6782 7.88H90.6782V29H92.6782H94.6782V7.88H92.6782ZM108.044 29V31H110.044V29H108.044ZM105.164 29H103.164V31H105.164V29ZM105.164 24.2H107.164V22.2H105.164V24.2ZM98.4444 24.2V22.2H96.4444V24.2H98.4444ZM98.4444 29V31H100.444V29H98.4444ZM95.5644 29H93.5644V31H95.5644V29ZM95.5644 18.44V16.44H93.5644V18.44H95.5644ZM96.5244 18.44V20.44H98.5244V18.44H96.5244ZM96.5244 16.52V14.52H94.5244V16.52H96.5244ZM97.4844 16.52V18.52H99.4844V16.52H97.4844ZM97.4844 14.6V12.6H95.4844V14.6H97.4844ZM98.4444 14.6V16.6H100.444V14.6H98.4444ZM98.4444 12.68V10.68H96.4444V12.68H98.4444ZM99.4044 12.68V14.68H101.404V12.68H99.4044ZM99.4044 10.76V8.76H97.4044V10.76H99.4044ZM100.364 10.76V12.76H102.364V10.76H100.364ZM100.364 8.84V6.84H98.3644V8.84H100.364ZM101.324 8.84V10.84H103.324V8.84H101.324ZM101.324 7.88V5.88H99.3244V7.88H101.324ZM102.284 7.88H104.284V5.88H102.284V7.88ZM102.284 8.84H100.284V10.84H102.284V8.84ZM103.244 8.84H105.244V6.84H103.244V8.84ZM103.244 10.76H101.244V12.76H103.244V10.76ZM104.204 10.76H106.204V8.76H104.204V10.76ZM104.204 12.68H102.204V14.68H104.204V12.68ZM105.164 12.68H107.164V10.68H105.164V12.68ZM105.164 14.6H103.164V16.6H105.164V14.6ZM106.124 14.6H108.124V12.6H106.124V14.6ZM106.124 16.52H104.124V18.52H106.124V16.52ZM107.084 16.52H109.084V14.52H107.084V16.52ZM107.084 18.44H105.084V20.44H107.084V18.44ZM108.044 18.44H110.044V16.44H108.044V18.44ZM105.164 21.32V23.32H107.164V21.32H105.164ZM105.164 19.4H107.164V17.4H105.164V19.4ZM104.204 19.4H102.204V21.4H104.204V19.4ZM104.204 17.48H106.204V15.48H104.204V17.48ZM103.244 17.48H101.244V19.48H103.244V17.48ZM103.244 15.56H105.244V13.56H103.244V15.56ZM102.284 15.56H100.284V17.56H102.284V15.56ZM102.284 13.64H104.284V11.64H102.284V13.64ZM101.324 13.64V11.64H99.3244V13.64H101.324ZM101.324 15.56V17.56H103.324V15.56H101.324ZM100.364 15.56V13.56H98.3644V15.56H100.364ZM100.364 17.48V19.48H102.364V17.48H100.364ZM99.4044 17.48V15.48H97.4044V17.48H99.4044ZM99.4044 19.4V21.4H101.404V19.4H99.4044ZM98.4444 19.4V17.4H96.4444V19.4H98.4444ZM98.4444 21.32H96.4444V23.32H98.4444V21.32ZM108.044 29V27H105.164V29V31H108.044V29ZM105.164 29H107.164V24.2H105.164H103.164V29H105.164ZM105.164 24.2V22.2H98.4444V24.2V26.2H105.164V24.2ZM98.4444 24.2H96.4444V29H98.4444H100.444V24.2H98.4444ZM98.4444 29V27H95.5644V29V31H98.4444V29ZM95.5644 29H97.5644V21.32H95.5644H93.5644V29H95.5644ZM95.5644 21.32H97.5644V20.36H95.5644H93.5644V21.32H95.5644ZM95.5644 20.36H97.5644V18.44H95.5644H93.5644V20.36H95.5644ZM95.5644 18.44V20.44H96.5244V18.44V16.44H95.5644V18.44ZM96.5244 18.44H98.5244V16.52H96.5244H94.5244V18.44H96.5244ZM96.5244 16.52V18.52H97.4844V16.52V14.52H96.5244V16.52ZM97.4844 16.52H99.4844V14.6H97.4844H95.4844V16.52H97.4844ZM97.4844 14.6V16.6H98.4444V14.6V12.6H97.4844V14.6ZM98.4444 14.6H100.444V12.68H98.4444H96.4444V14.6H98.4444ZM98.4444 12.68V14.68H99.4044V12.68V10.68H98.4444V12.68ZM99.4044 12.68H101.404V10.76H99.4044H97.4044V12.68H99.4044ZM99.4044 10.76V12.76H100.364V10.76V8.76H99.4044V10.76ZM100.364 10.76H102.364V8.84H100.364H98.3644V10.76H100.364ZM100.364 8.84V10.84H101.324V8.84V6.84H100.364V8.84ZM101.324 8.84H103.324V7.88H101.324H99.3244V8.84H101.324ZM101.324 7.88V9.88H102.284V7.88V5.88H101.324V7.88ZM102.284 7.88H100.284V8.84H102.284H104.284V7.88H102.284ZM102.284 8.84V10.84H103.244V8.84V6.84H102.284V8.84ZM103.244 8.84H101.244V10.76H103.244H105.244V8.84H103.244ZM103.244 10.76V12.76H104.204V10.76V8.76H103.244V10.76ZM104.204 10.76H102.204V12.68H104.204H106.204V10.76H104.204ZM104.204 12.68V14.68H105.164V12.68V10.68H104.204V12.68ZM105.164 12.68H103.164V14.6H105.164H107.164V12.68H105.164ZM105.164 14.6V16.6H106.124V14.6V12.6H105.164V14.6ZM106.124 14.6H104.124V16.52H106.124H108.124V14.6H106.124ZM106.124 16.52V18.52H107.084V16.52V14.52H106.124V16.52ZM107.084 16.52H105.084V18.44H107.084H109.084V16.52H107.084ZM107.084 18.44V20.44H108.044V18.44V16.44H107.084V18.44ZM108.044 18.44H106.044V20.36H108.044H110.044V18.44H108.044ZM108.044 20.36H106.044V21.32H108.044H110.044V20.36H108.044ZM108.044 21.32H106.044V29H108.044H110.044V21.32H108.044ZM105.164 21.32H107.164V20.36H105.164H103.164V21.32H105.164ZM105.164 20.36H107.164V19.4H105.164H103.164V20.36H105.164ZM105.164 19.4V17.4H104.204V19.4V21.4H105.164V19.4ZM104.204 19.4H106.204V17.48H104.204H102.204V19.4H104.204ZM104.204 17.48V15.48H103.244V17.48V19.48H104.204V17.48ZM103.244 17.48H105.244V15.56H103.244H101.244V17.48H103.244ZM103.244 15.56V13.56H102.284V15.56V17.56H103.244V15.56ZM102.284 15.56H104.284V13.64H102.284H100.284V15.56H102.284ZM102.284 13.64V11.64H101.324V13.64V15.64H102.284V13.64ZM101.324 13.64H99.3244V15.56H101.324H103.324V13.64H101.324ZM101.324 15.56V13.56H100.364V15.56V17.56H101.324V15.56ZM100.364 15.56H98.3644V17.48H100.364H102.364V15.56H100.364ZM100.364 17.48V15.48H99.4044V17.48V19.48H100.364V17.48ZM99.4044 17.48H97.4044V19.4H99.4044H101.404V17.48H99.4044ZM99.4044 19.4V17.4H98.4444V19.4V21.4H99.4044V19.4ZM98.4444 19.4H96.4444V20.36H98.4444H100.444V19.4H98.4444ZM98.4444 20.36H96.4444V21.32H98.4444H100.444V20.36H98.4444ZM98.4444 21.32V23.32H105.164V21.32V19.32H98.4444V21.32ZM123.411 26.12V28.12H125.411V26.12H123.411ZM122.451 26.12V24.12H120.451V26.12H122.451ZM122.451 27.08V29.08H124.451V27.08H122.451ZM121.491 27.08V25.08H119.491V27.08H121.491ZM121.491 28.04V30.04H123.491V28.04H121.491ZM120.531 28.04V26.04H118.531V28.04H120.531ZM120.531 29V31H122.531V29H120.531ZM114.771 29H112.771V31H114.771V29ZM114.771 28.04H116.771V26.04H114.771V28.04ZM113.811 28.04H111.811V30.04H113.811V28.04ZM113.811 27.08H115.811V25.08H113.811V27.08ZM112.851 27.08H110.851V29.08H112.851V27.08ZM112.851 26.12H114.851V24.12H112.851V26.12ZM111.891 26.12H109.891V28.12H111.891V26.12ZM111.891 25.16H113.891V23.16H111.891V25.16ZM110.931 25.16H108.931V27.16H110.931V25.16ZM110.931 11.72V9.72H108.931V11.72H110.931ZM111.891 11.72V13.72H113.891V11.72H111.891ZM111.891 10.76V8.76H109.891V10.76H111.891ZM112.851 10.76V12.76H114.851V10.76H112.851ZM112.851 9.8V7.8H110.851V9.8H112.851ZM113.811 9.8V11.8H115.811V9.8H113.811ZM113.811 8.84V6.84H111.811V8.84H113.811ZM114.771 8.84V10.84H116.771V8.84H114.771ZM114.771 7.88V5.88H112.771V7.88H114.771ZM120.531 7.88H122.531V5.88H120.531V7.88ZM120.531 8.84H118.531V10.84H120.531V8.84ZM121.491 8.84H123.491V6.84H121.491V8.84ZM121.491 9.8H119.491V11.8H121.491V9.8ZM122.451 9.8H124.451V7.8H122.451V9.8ZM122.451 10.76H120.451V12.76H122.451V10.76ZM123.411 10.76H125.411V8.76H123.411V10.76ZM123.411 13.64V15.64H125.411V13.64H123.411ZM120.531 13.64H118.531V15.64H120.531V13.64ZM120.531 11.72H122.531V9.72H120.531V11.72ZM119.571 11.72H117.571V13.72H119.571V11.72ZM119.571 10.76H121.571V8.76H119.571V10.76ZM115.731 10.76V8.76H113.731V10.76H115.731ZM115.731 11.72V13.72H117.731V11.72H115.731ZM114.771 11.72V9.72H112.771V11.72H114.771ZM114.771 12.68V14.68H116.771V12.68H114.771ZM113.811 12.68V10.68H111.811V12.68H113.811ZM113.811 24.2H111.811V26.2H113.811V24.2ZM114.771 24.2H116.771V22.2H114.771V24.2ZM114.771 25.16H112.771V27.16H114.771V25.16ZM115.731 25.16H117.731V23.16H115.731V25.16ZM115.731 26.12H113.731V28.12H115.731V26.12ZM119.571 26.12V28.12H121.571V26.12H119.571ZM119.571 25.16V23.16H117.571V25.16H119.571ZM120.531 25.16V27.16H122.531V25.16H120.531ZM120.531 23.24V21.24H118.531V23.24H120.531ZM123.411 23.24H125.411V21.24H123.411V23.24ZM123.411 26.12V24.12H122.451V26.12V28.12H123.411V26.12ZM122.451 26.12H120.451V27.08H122.451H124.451V26.12H122.451ZM122.451 27.08V25.08H121.491V27.08V29.08H122.451V27.08ZM121.491 27.08H119.491V28.04H121.491H123.491V27.08H121.491ZM121.491 28.04V26.04H120.531V28.04V30.04H121.491V28.04ZM120.531 28.04H118.531V29H120.531H122.531V28.04H120.531ZM120.531 29V27H114.771V29V31H120.531V29ZM114.771 29H116.771V28.04H114.771H112.771V29H114.771ZM114.771 28.04V26.04H113.811V28.04V30.04H114.771V28.04ZM113.811 28.04H115.811V27.08H113.811H111.811V28.04H113.811ZM113.811 27.08V25.08H112.851V27.08V29.08H113.811V27.08ZM112.851 27.08H114.851V26.12H112.851H110.851V27.08H112.851ZM112.851 26.12V24.12H111.891V26.12V28.12H112.851V26.12ZM111.891 26.12H113.891V25.16H111.891H109.891V26.12H111.891ZM111.891 25.16V23.16H110.931V25.16V27.16H111.891V25.16ZM110.931 25.16H112.931V11.72H110.931H108.931V25.16H110.931ZM110.931 11.72V13.72H111.891V11.72V9.72H110.931V11.72ZM111.891 11.72H113.891V10.76H111.891H109.891V11.72H111.891ZM111.891 10.76V12.76H112.851V10.76V8.76H111.891V10.76ZM112.851 10.76H114.851V9.8H112.851H110.851V10.76H112.851ZM112.851 9.8V11.8H113.811V9.8V7.8H112.851V9.8ZM113.811 9.8H115.811V8.84H113.811H111.811V9.8H113.811ZM113.811 8.84V10.84H114.771V8.84V6.84H113.811V8.84ZM114.771 8.84H116.771V7.88H114.771H112.771V8.84H114.771ZM114.771 7.88V9.88H120.531V7.88V5.88H114.771V7.88ZM120.531 7.88H118.531V8.84H120.531H122.531V7.88H120.531ZM120.531 8.84V10.84H121.491V8.84V6.84H120.531V8.84ZM121.491 8.84H119.491V9.8H121.491H123.491V8.84H121.491ZM121.491 9.8V11.8H122.451V9.8V7.8H121.491V9.8ZM122.451 9.8H120.451V10.76H122.451H124.451V9.8H122.451ZM122.451 10.76V12.76H123.411V10.76V8.76H122.451V10.76ZM123.411 10.76H121.411V13.64H123.411H125.411V10.76H123.411ZM123.411 13.64V11.64H120.531V13.64V15.64H123.411V13.64ZM120.531 13.64H122.531V11.72H120.531H118.531V13.64H120.531ZM120.531 11.72V9.72H119.571V11.72V13.72H120.531V11.72ZM119.571 11.72H121.571V10.76H119.571H117.571V11.72H119.571ZM119.571 10.76V8.76H115.731V10.76V12.76H119.571V10.76ZM115.731 10.76H113.731V11.72H115.731H117.731V10.76H115.731ZM115.731 11.72V9.72H114.771V11.72V13.72H115.731V11.72ZM114.771 11.72H112.771V12.68H114.771H116.771V11.72H114.771ZM114.771 12.68V10.68H113.811V12.68V14.68H114.771V12.68ZM113.811 12.68H111.811V24.2H113.811H115.811V12.68H113.811ZM113.811 24.2V26.2H114.771V24.2V22.2H113.811V24.2ZM114.771 24.2H112.771V25.16H114.771H116.771V24.2H114.771ZM114.771 25.16V27.16H115.731V25.16V23.16H114.771V25.16ZM115.731 25.16H113.731V26.12H115.731H117.731V25.16H115.731ZM115.731 26.12V28.12H119.571V26.12V24.12H115.731V26.12ZM119.571 26.12H121.571V25.16H119.571H117.571V26.12H119.571ZM119.571 25.16V27.16H120.531V25.16V23.16H119.571V25.16ZM120.531 25.16H122.531V23.24H120.531H118.531V25.16H120.531ZM120.531 23.24V25.24H123.411V23.24V21.24H120.531V23.24ZM123.411 23.24H121.411V26.12H123.411H125.411V23.24H123.411ZM138.777 29V31H140.777V29H138.777ZM135.897 29H133.897V31H135.897V29ZM135.897 27.08H137.897V25.08H135.897V27.08ZM134.937 27.08H132.937V29.08H134.937V27.08ZM134.937 25.16H136.937V23.16H134.937V25.16ZM133.977 25.16H131.977V27.16H133.977V25.16ZM133.977 23.24H135.977V21.24H133.977V23.24ZM133.017 23.24H131.017V25.24H133.017V23.24ZM133.017 21.32H135.017V19.32H133.017V21.32ZM132.057 21.32H130.057V23.32H132.057V21.32ZM132.057 19.4H134.057V17.4H132.057V19.4ZM130.137 19.4V17.4H128.137V19.4H130.137ZM130.137 20.36V22.36H132.137V20.36H130.137ZM129.177 20.36V18.36H127.177V20.36H129.177ZM129.177 29V31H131.177V29H129.177ZM126.297 29H124.297V31H126.297V29ZM126.297 7.88V5.88H124.297V7.88H126.297ZM129.177 7.88H131.177V5.88H129.177V7.88ZM129.177 16.52H127.177V18.52H129.177V16.52ZM130.137 16.52V18.52H132.137V16.52H130.137ZM130.137 15.56V13.56H128.137V15.56H130.137ZM131.097 15.56V17.56H133.097V15.56H131.097ZM131.097 14.6V12.6H129.097V14.6H131.097ZM132.057 14.6V16.6H134.057V14.6H132.057ZM132.057 13.64V11.64H130.057V13.64H132.057ZM133.017 13.64V15.64H135.017V13.64H133.017ZM133.017 12.68V10.68H131.017V12.68H133.017ZM133.977 12.68V14.68H135.977V12.68H133.977ZM133.977 11.72V9.72H131.977V11.72H133.977ZM134.937 11.72V13.72H136.937V11.72H134.937ZM134.937 10.728V8.728H132.937V10.728H134.937ZM135.897 10.728V12.728H137.897V10.728H135.897ZM135.897 9.8V7.8H133.897V9.8H135.897ZM136.857 9.8V11.8H138.857V9.8H136.857ZM136.857 8.84V6.84H134.857V8.84H136.857ZM137.817 8.84V10.84H139.817V8.84H137.817ZM137.817 7.88V5.88H135.817V7.88H137.817ZM138.777 7.88H140.777V5.88H138.777V7.88ZM138.777 11.72V13.72H140.777V11.72H138.777ZM137.817 11.72V9.72H135.817V11.72H137.817ZM137.817 12.68V14.68H139.817V12.68H137.817ZM136.857 12.68V10.68H134.857V12.68H136.857ZM136.857 13.64V15.64H138.857V13.64H136.857ZM135.897 13.64V11.64H133.897V13.64H135.897ZM135.897 14.568V16.568H137.897V14.568H135.897ZM134.937 14.568V12.568H132.937V14.568H134.937ZM134.937 15.56V17.56H136.937V15.56H134.937ZM133.977 15.56V13.56H131.977V15.56H133.977ZM133.977 16.52V18.52H135.977V16.52H133.977ZM133.017 16.52V14.52H131.017V16.52H133.017ZM133.017 17.48H131.017V19.48H133.017V17.48ZM133.977 17.48H135.977V15.48H133.977V17.48ZM133.977 18.44H131.977V20.44H133.977V18.44ZM134.937 18.44H136.937V16.44H134.937V18.44ZM134.937 20.36H132.937V22.36H134.937V20.36ZM135.897 20.36H137.897V18.36H135.897V20.36ZM135.897 22.28H133.897V24.28H135.897V22.28ZM136.857 22.28H138.857V20.28H136.857V22.28ZM136.857 24.2H134.857V26.2H136.857V24.2ZM137.817 24.2H139.817V22.2H137.817V24.2ZM137.817 26.12H135.817V28.12H137.817V26.12ZM138.777 26.12H140.777V24.12H138.777V26.12ZM138.777 29V27H135.897V29V31H138.777V29ZM135.897 29H137.897V27.08H135.897H133.897V29H135.897ZM135.897 27.08V25.08H134.937V27.08V29.08H135.897V27.08ZM134.937 27.08H136.937V25.16H134.937H132.937V27.08H134.937ZM134.937 25.16V23.16H133.977V25.16V27.16H134.937V25.16ZM133.977 25.16H135.977V23.24H133.977H131.977V25.16H133.977ZM133.977 23.24V21.24H133.017V23.24V25.24H133.977V23.24ZM133.017 23.24H135.017V21.32H133.017H131.017V23.24H133.017ZM133.017 21.32V19.32H132.057V21.32V23.32H133.017V21.32ZM132.057 21.32H134.057V19.4H132.057H130.057V21.32H132.057ZM132.057 19.4V17.4H130.137V19.4V21.4H132.057V19.4ZM130.137 19.4H128.137V20.36H130.137H132.137V19.4H130.137ZM130.137 20.36V18.36H129.177V20.36V22.36H130.137V20.36ZM129.177 20.36H127.177V29H129.177H131.177V20.36H129.177ZM129.177 29V27H126.297V29V31H129.177V29ZM126.297 29H128.297V7.88H126.297H124.297V29H126.297ZM126.297 7.88V9.88H129.177V7.88V5.88H126.297V7.88ZM129.177 7.88H127.177V16.52H129.177H131.177V7.88H129.177ZM129.177 16.52V18.52H130.137V16.52V14.52H129.177V16.52ZM130.137 16.52H132.137V15.56H130.137H128.137V16.52H130.137ZM130.137 15.56V17.56H131.097V15.56V13.56H130.137V15.56ZM131.097 15.56H133.097V14.6H131.097H129.097V15.56H131.097ZM131.097 14.6V16.6H132.057V14.6V12.6H131.097V14.6ZM132.057 14.6H134.057V13.64H132.057H130.057V14.6H132.057ZM132.057 13.64V15.64H133.017V13.64V11.64H132.057V13.64ZM133.017 13.64H135.017V12.68H133.017H131.017V13.64H133.017ZM133.017 12.68V14.68H133.977V12.68V10.68H133.017V12.68ZM133.977 12.68H135.977V11.72H133.977H131.977V12.68H133.977ZM133.977 11.72V13.72H134.937V11.72V9.72H133.977V11.72ZM134.937 11.72H136.937V10.728H134.937H132.937V11.72H134.937ZM134.937 10.728V12.728H135.897V10.728V8.728H134.937V10.728ZM135.897 10.728H137.897V9.8H135.897H133.897V10.728H135.897ZM135.897 9.8V11.8H136.857V9.8V7.8H135.897V9.8ZM136.857 9.8H138.857V8.84H136.857H134.857V9.8H136.857ZM136.857 8.84V10.84H137.817V8.84V6.84H136.857V8.84ZM137.817 8.84H139.817V7.88H137.817H135.817V8.84H137.817ZM137.817 7.88V9.88H138.777V7.88V5.88H137.817V7.88ZM138.777 7.88H136.777V11.72H138.777H140.777V7.88H138.777ZM138.777 11.72V9.72H137.817V11.72V13.72H138.777V11.72ZM137.817 11.72H135.817V12.68H137.817H139.817V11.72H137.817ZM137.817 12.68V10.68H136.857V12.68V14.68H137.817V12.68ZM136.857 12.68H134.857V13.64H136.857H138.857V12.68H136.857ZM136.857 13.64V11.64H135.897V13.64V15.64H136.857V13.64ZM135.897 13.64H133.897V14.568H135.897H137.897V13.64H135.897ZM135.897 14.568V12.568H134.937V14.568V16.568H135.897V14.568ZM134.937 14.568H132.937V15.56H134.937H136.937V14.568H134.937ZM134.937 15.56V13.56H133.977V15.56V17.56H134.937V15.56ZM133.977 15.56H131.977V16.52H133.977H135.977V15.56H133.977ZM133.977 16.52V14.52H133.017V16.52V18.52H133.977V16.52ZM133.017 16.52H131.017V17.48H133.017H135.017V16.52H133.017ZM133.017 17.48V19.48H133.977V17.48V15.48H133.017V17.48ZM133.977 17.48H131.977V18.44H133.977H135.977V17.48H133.977ZM133.977 18.44V20.44H134.937V18.44V16.44H133.977V18.44ZM134.937 18.44H132.937V20.36H134.937H136.937V18.44H134.937ZM134.937 20.36V22.36H135.897V20.36V18.36H134.937V20.36ZM135.897 20.36H133.897V22.28H135.897H137.897V20.36H135.897ZM135.897 22.28V24.28H136.857V22.28V20.28H135.897V22.28ZM136.857 22.28H134.857V24.2H136.857H138.857V22.28H136.857ZM136.857 24.2V26.2H137.817V24.2V22.2H136.857V24.2ZM137.817 24.2H135.817V26.12H137.817H139.817V24.2H137.817ZM137.817 26.12V28.12H138.777V26.12V24.12H137.817V26.12ZM138.777 26.12H136.777V29H138.777H140.777V26.12H138.777ZM154.143 29V31H156.143V29H154.143ZM141.663 29H139.663V31H141.663V29ZM141.663 26.12V24.12H139.663V26.12H141.663ZM146.463 26.12V28.12H148.463V26.12H146.463ZM146.463 10.76H148.463V8.76H146.463V10.76ZM144.543 10.76H142.543V12.76H144.543V10.76ZM144.543 7.88V5.88H142.543V7.88H144.543ZM151.263 7.88H153.263V5.88H151.263V7.88ZM151.263 10.76V12.76H153.263V10.76H151.263ZM149.343 10.76V8.76H147.343V10.76H149.343ZM149.343 26.12H147.343V28.12H149.343V26.12ZM154.143 26.12H156.143V24.12H154.143V26.12ZM154.143 29V27H141.663V29V31H154.143V29ZM141.663 29H143.663V26.12H141.663H139.663V29H141.663ZM141.663 26.12V28.12H146.463V26.12V24.12H141.663V26.12ZM146.463 26.12H148.463V10.76H146.463H144.463V26.12H146.463ZM146.463 10.76V8.76H144.543V10.76V12.76H146.463V10.76ZM144.543 10.76H146.543V7.88H144.543H142.543V10.76H144.543ZM144.543 7.88V9.88H151.263V7.88V5.88H144.543V7.88ZM151.263 7.88H149.263V10.76H151.263H153.263V7.88H151.263ZM151.263 10.76V8.76H149.343V10.76V12.76H151.263V10.76ZM149.343 10.76H147.343V26.12H149.343H151.343V10.76H149.343ZM149.343 26.12V28.12H154.143V26.12V24.12H149.343V26.12ZM154.143 26.12H152.143V29H154.143H156.143V26.12H154.143ZM169.509 29V31H171.509V29H169.509ZM166.629 29H164.629V31H166.629V29ZM166.629 28.04H168.629V26.04H166.629V28.04ZM165.669 28.04H163.669V30.04H165.669V28.04ZM165.669 26.12H167.669V24.12H165.669V26.12ZM164.709 26.12H162.709V28.12H164.709V26.12ZM164.709 24.2H166.709V22.2H164.709V24.2ZM163.749 24.2H161.749V26.2H163.749V24.2ZM163.749 22.28H165.749V20.28H163.749V22.28ZM162.789 22.28H160.789V24.28H162.789V22.28ZM162.789 20.36H164.789V18.36H162.789V20.36ZM161.829 20.36H159.829V22.36H161.829V20.36ZM161.829 18.44H163.829V16.44H161.829V18.44ZM160.869 18.44H158.869V20.44H160.869V18.44ZM160.869 16.52H162.869V14.52H160.869V16.52ZM159.909 16.52V14.52H157.909V16.52H159.909ZM159.909 29V31H161.909V29H159.909ZM157.029 29H155.029V31H157.029V29ZM157.029 7.88V5.88H155.029V7.88H157.029ZM158.949 7.88H160.949V5.88H158.949V7.88ZM158.949 9.8H156.949V11.8H158.949V9.8ZM159.909 9.8H161.909V7.8H159.909V9.8ZM159.909 11.72H157.909V13.72H159.909V11.72ZM160.869 11.72H162.869V9.72H160.869V11.72ZM160.869 13.64H158.869V15.64H160.869V13.64ZM161.829 13.64H163.829V11.64H161.829V13.64ZM161.829 15.56H159.829V17.56H161.829V15.56ZM162.789 15.56H164.789V13.56H162.789V15.56ZM162.789 17.48H160.789V19.48H162.789V17.48ZM163.749 17.48H165.749V15.48H163.749V17.48ZM163.749 19.4H161.749V21.4H163.749V19.4ZM164.709 19.4H166.709V17.4H164.709V19.4ZM164.709 21.32H162.709V23.32H164.709V21.32ZM165.669 21.32H167.669V19.32H165.669V21.32ZM165.669 23.24H163.669V25.24H165.669V23.24ZM166.629 23.24V25.24H168.629V23.24H166.629ZM166.629 7.88V5.88H164.629V7.88H166.629ZM169.509 7.88H171.509V5.88H169.509V7.88ZM169.509 29V27H166.629V29V31H169.509V29ZM166.629 29H168.629V28.04H166.629H164.629V29H166.629ZM166.629 28.04V26.04H165.669V28.04V30.04H166.629V28.04ZM165.669 28.04H167.669V26.12H165.669H163.669V28.04H165.669ZM165.669 26.12V24.12H164.709V26.12V28.12H165.669V26.12ZM164.709 26.12H166.709V24.2H164.709H162.709V26.12H164.709ZM164.709 24.2V22.2H163.749V24.2V26.2H164.709V24.2ZM163.749 24.2H165.749V22.28H163.749H161.749V24.2H163.749ZM163.749 22.28V20.28H162.789V22.28V24.28H163.749V22.28ZM162.789 22.28H164.789V20.36H162.789H160.789V22.28H162.789ZM162.789 20.36V18.36H161.829V20.36V22.36H162.789V20.36ZM161.829 20.36H163.829V18.44H161.829H159.829V20.36H161.829ZM161.829 18.44V16.44H160.869V18.44V20.44H161.829V18.44ZM160.869 18.44H162.869V16.52H160.869H158.869V18.44H160.869ZM160.869 16.52V14.52H159.909V16.52V18.52H160.869V16.52ZM159.909 16.52H157.909V29H159.909H161.909V16.52H159.909ZM159.909 29V27H157.029V29V31H159.909V29ZM157.029 29H159.029V7.88H157.029H155.029V29H157.029ZM157.029 7.88V9.88H158.949V7.88V5.88H157.029V7.88ZM158.949 7.88H156.949V9.8H158.949H160.949V7.88H158.949ZM158.949 9.8V11.8H159.909V9.8V7.8H158.949V9.8ZM159.909 9.8H157.909V11.72H159.909H161.909V9.8H159.909ZM159.909 11.72V13.72H160.869V11.72V9.72H159.909V11.72ZM160.869 11.72H158.869V13.64H160.869H162.869V11.72H160.869ZM160.869 13.64V15.64H161.829V13.64V11.64H160.869V13.64ZM161.829 13.64H159.829V15.56H161.829H163.829V13.64H161.829ZM161.829 15.56V17.56H162.789V15.56V13.56H161.829V15.56ZM162.789 15.56H160.789V17.48H162.789H164.789V15.56H162.789ZM162.789 17.48V19.48H163.749V17.48V15.48H162.789V17.48ZM163.749 17.48H161.749V19.4H163.749H165.749V17.48H163.749ZM163.749 19.4V21.4H164.709V19.4V17.4H163.749V19.4ZM164.709 19.4H162.709V21.32H164.709H166.709V19.4H164.709ZM164.709 21.32V23.32H165.669V21.32V19.32H164.709V21.32ZM165.669 21.32H163.669V23.24H165.669H167.669V21.32H165.669ZM165.669 23.24V25.24H166.629V23.24V21.24H165.669V23.24ZM166.629 23.24H168.629V7.88H166.629H164.629V23.24H166.629ZM166.629 7.88V9.88H169.509V7.88V5.88H166.629V7.88ZM169.509 7.88H167.509V29H169.509H171.509V7.88H169.509ZM184.876 27.08V29.08H186.876V27.08H184.876ZM183.916 27.08V25.08H181.916V27.08H183.916ZM183.916 28.04V30.04H185.916V28.04H183.916ZM182.956 28.04V26.04H180.956V28.04H182.956ZM182.956 29V31H184.956V29H182.956ZM176.236 29H174.236V31H176.236V29ZM176.236 28.04H178.236V26.04H176.236V28.04ZM175.276 28.04H173.276V30.04H175.276V28.04ZM175.276 27.08H177.276V25.08H175.276V27.08ZM174.316 27.08H172.316V29.08H174.316V27.08ZM174.316 26.12H176.316V24.12H174.316V26.12ZM173.356 26.12H171.356V28.12H173.356V26.12ZM173.356 25.16H175.356V23.16H173.356V25.16ZM172.396 25.16H170.396V27.16H172.396V25.16ZM172.396 11.72V9.72H170.396V11.72H172.396ZM173.356 11.72V13.72H175.356V11.72H173.356ZM173.356 10.76V8.76H171.356V10.76H173.356ZM174.316 10.76V12.76H176.316V10.76H174.316ZM174.316 9.8V7.8H172.316V9.8H174.316ZM175.276 9.8V11.8H177.276V9.8H175.276ZM175.276 8.84V6.84H173.276V8.84H175.276ZM176.236 8.84V10.84H178.236V8.84H176.236ZM176.236 7.88V5.88H174.236V7.88H176.236ZM182.956 7.88H184.956V5.88H182.956V7.88ZM182.956 8.84H180.956V10.84H182.956V8.84ZM183.916 8.84H185.916V6.84H183.916V8.84ZM183.916 9.8H181.916V11.8H183.916V9.8ZM184.876 9.8H186.876V7.8H184.876V9.8ZM184.876 11.72V13.72H186.876V11.72H184.876ZM181.996 11.72H179.996V13.72H181.996V11.72ZM181.996 10.76H183.996V8.76H181.996V10.76ZM177.196 10.76V8.76H175.196V10.76H177.196ZM177.196 11.72V13.72H179.196V11.72H177.196ZM176.236 11.72V9.72H174.236V11.72H176.236ZM176.236 12.68V14.68H178.236V12.68H176.236ZM175.276 12.68V10.68H173.276V12.68H175.276ZM175.276 24.2H173.276V26.2H175.276V24.2ZM176.236 24.2H178.236V22.2H176.236V24.2ZM176.236 25.16H174.236V27.16H176.236V25.16ZM177.196 25.16H179.196V23.16H177.196V25.16ZM177.196 26.12H175.196V28.12H177.196V26.12ZM181.996 26.12V28.12H183.996V26.12H181.996ZM181.996 20.36H183.996V18.36H181.996V20.36ZM181.036 20.36V18.36H179.036V20.36H181.036ZM181.036 21.32V23.32H183.036V21.32H181.036ZM178.156 21.32H176.156V23.32H178.156V21.32ZM178.156 17.48V15.48H176.156V17.48H178.156ZM184.876 17.48H186.876V15.48H184.876V17.48ZM184.876 27.08V25.08H183.916V27.08V29.08H184.876V27.08ZM183.916 27.08H181.916V28.04H183.916H185.916V27.08H183.916ZM183.916 28.04V26.04H182.956V28.04V30.04H183.916V28.04ZM182.956 28.04H180.956V29H182.956H184.956V28.04H182.956ZM182.956 29V27H176.236V29V31H182.956V29ZM176.236 29H178.236V28.04H176.236H174.236V29H176.236ZM176.236 28.04V26.04H175.276V28.04V30.04H176.236V28.04ZM175.276 28.04H177.276V27.08H175.276H173.276V28.04H175.276ZM175.276 27.08V25.08H174.316V27.08V29.08H175.276V27.08ZM174.316 27.08H176.316V26.12H174.316H172.316V27.08H174.316ZM174.316 26.12V24.12H173.356V26.12V28.12H174.316V26.12ZM173.356 26.12H175.356V25.16H173.356H171.356V26.12H173.356ZM173.356 25.16V23.16H172.396V25.16V27.16H173.356V25.16ZM172.396 25.16H174.396V11.72H172.396H170.396V25.16H172.396ZM172.396 11.72V13.72H173.356V11.72V9.72H172.396V11.72ZM173.356 11.72H175.356V10.76H173.356H171.356V11.72H173.356ZM173.356 10.76V12.76H174.316V10.76V8.76H173.356V10.76ZM174.316 10.76H176.316V9.8H174.316H172.316V10.76H174.316ZM174.316 9.8V11.8H175.276V9.8V7.8H174.316V9.8ZM175.276 9.8H177.276V8.84H175.276H173.276V9.8H175.276ZM175.276 8.84V10.84H176.236V8.84V6.84H175.276V8.84ZM176.236 8.84H178.236V7.88H176.236H174.236V8.84H176.236ZM176.236 7.88V9.88H182.956V7.88V5.88H176.236V7.88ZM182.956 7.88H180.956V8.84H182.956H184.956V7.88H182.956ZM182.956 8.84V10.84H183.916V8.84V6.84H182.956V8.84ZM183.916 8.84H181.916V9.8H183.916H185.916V8.84H183.916ZM183.916 9.8V11.8H184.876V9.8V7.8H183.916V9.8ZM184.876 9.8H182.876V11.72H184.876H186.876V9.8H184.876ZM184.876 11.72V9.72H181.996V11.72V13.72H184.876V11.72ZM181.996 11.72H183.996V10.76H181.996H179.996V11.72H181.996ZM181.996 10.76V8.76H177.196V10.76V12.76H181.996V10.76ZM177.196 10.76H175.196V11.72H177.196H179.196V10.76H177.196ZM177.196 11.72V9.72H176.236V11.72V13.72H177.196V11.72ZM176.236 11.72H174.236V12.68H176.236H178.236V11.72H176.236ZM176.236 12.68V10.68H175.276V12.68V14.68H176.236V12.68ZM175.276 12.68H173.276V24.2H175.276H177.276V12.68H175.276ZM175.276 24.2V26.2H176.236V24.2V22.2H175.276V24.2ZM176.236 24.2H174.236V25.16H176.236H178.236V24.2H176.236ZM176.236 25.16V27.16H177.196V25.16V23.16H176.236V25.16ZM177.196 25.16H175.196V26.12H177.196H179.196V25.16H177.196ZM177.196 26.12V28.12H181.996V26.12V24.12H177.196V26.12ZM181.996 26.12H183.996V20.36H181.996H179.996V26.12H181.996ZM181.996 20.36V18.36H181.036V20.36V22.36H181.996V20.36ZM181.036 20.36H179.036V21.32H181.036H183.036V20.36H181.036ZM181.036 21.32V19.32H178.156V21.32V23.32H181.036V21.32ZM178.156 21.32H180.156V17.48H178.156H176.156V21.32H178.156ZM178.156 17.48V19.48H184.876V17.48V15.48H178.156V17.48ZM184.876 17.48H182.876V27.08H184.876H186.876V17.48H184.876Z" fill="white" mask="url(#path-1-outside-1_2015_37723)"/>
<mask id="path-3-outside-2_2015_37723" maskUnits="userSpaceOnUse" x="86.8718" y="46.5664" width="94" height="26" fill="black">
<rect fill="white" x="86.8718" y="46.5664" width="94" height="26"/>
<path d="M101.932 67.6864H100.972V68.6464H100.012V69.6064H99.0518V70.5664H89.4518V49.4464H99.0518V50.4064H100.012V51.3664H100.972V52.3264H101.932V57.1264H100.972V58.0864H100.012V59.0464H99.0518V60.0064H100.012V60.9664H100.972V61.9264H101.932V67.6864ZM99.0518 56.1664V53.2864H98.0918V52.3264H92.3318V58.0864H97.1318V57.1264H98.0918V56.1664H99.0518ZM99.0518 66.7264V62.8864H98.0918V61.9264H97.1318V60.9664H92.3318V67.6864H98.0918V66.7264H99.0518ZM117.298 70.5664H104.818V49.4464H117.298V52.3264H107.698V58.0864H115.378V60.9664H107.698V67.6864H117.298V70.5664ZM132.664 68.6464H131.704V69.6064H130.744V70.5664H124.024V69.6064H123.064V68.6464H122.104V67.6864H121.144V66.7264H120.184V53.2864H121.144V52.3264H122.104V51.3664H123.064V50.4064H124.024V49.4464H130.744V50.4064H131.704V51.3664H132.664V53.2864H129.784V52.3264H124.984V53.2864H124.024V54.2464H123.064V65.7664H124.024V66.7264H124.984V67.6864H129.784V61.9264H128.824V62.8864H125.944V59.0464H132.664V68.6464ZM148.031 70.5664H135.551V67.6864H140.351V52.3264H138.431V49.4464H145.151V52.3264H143.231V67.6864H148.031V70.5664ZM163.397 70.5664H160.517V69.6064H159.557V67.6864H158.597V65.7664H157.637V63.8464H156.677V61.9264H155.717V60.0064H154.757V58.0864H153.797V70.5664H150.917V49.4464H152.837V51.3664H153.797V53.2864H154.757V55.2064H155.717V57.1264H156.677V59.0464H157.637V60.9664H158.597V62.8864H159.557V64.8064H160.517V49.4464H163.397V70.5664ZM178.763 67.6864H177.803V68.6464H176.843V69.6064H175.883V70.5664H169.163V69.6064H168.203V68.6464H167.243V67.6864H166.283V64.8064H169.163V66.7264H170.123V67.6864H174.923V66.7264H175.883V61.9264H174.923V60.9664H169.163V60.0064H168.203V59.0464H167.243V58.0864H166.283V52.3264H167.243V51.3664H168.203V50.4064H169.163V49.4464H175.883V50.4064H176.843V51.3664H177.803V52.3264H178.763V55.2064H175.883V53.2864H174.923V52.3264H170.123V53.2864H169.163V57.1264H170.123V58.0864H175.883V59.0464H176.843V60.0064H177.803V60.9664H178.763V67.6864Z"/>
</mask>
<path d="M101.932 67.6864V69.6864H103.932V67.6864H101.932ZM100.972 67.6864V65.6864H98.9718V67.6864H100.972ZM100.972 68.6464V70.6464H102.972V68.6464H100.972ZM100.012 68.6464V66.6464H98.0118V68.6464H100.012ZM100.012 69.6064V71.6064H102.012V69.6064H100.012ZM99.0518 69.6064V67.6064H97.0518V69.6064H99.0518ZM99.0518 70.5664V72.5664H101.052V70.5664H99.0518ZM89.4518 70.5664H87.4518V72.5664H89.4518V70.5664ZM89.4518 49.4464V47.4464H87.4518V49.4464H89.4518ZM99.0518 49.4464H101.052V47.4464H99.0518V49.4464ZM99.0518 50.4064H97.0518V52.4064H99.0518V50.4064ZM100.012 50.4064H102.012V48.4064H100.012V50.4064ZM100.012 51.3664H98.0118V53.3664H100.012V51.3664ZM100.972 51.3664H102.972V49.3664H100.972V51.3664ZM100.972 52.3264H98.9718V54.3264H100.972V52.3264ZM101.932 52.3264H103.932V50.3264H101.932V52.3264ZM101.932 57.1264V59.1264H103.932V57.1264H101.932ZM100.972 57.1264V55.1264H98.9718V57.1264H100.972ZM100.972 58.0864V60.0864H102.972V58.0864H100.972ZM100.012 58.0864V56.0864H98.0118V58.0864H100.012ZM100.012 59.0464V61.0464H102.012V59.0464H100.012ZM99.0518 59.0464V57.0464H97.0518V59.0464H99.0518ZM99.0518 60.0064H97.0518V62.0064H99.0518V60.0064ZM100.012 60.0064H102.012V58.0064H100.012V60.0064ZM100.012 60.9664H98.0118V62.9664H100.012V60.9664ZM100.972 60.9664H102.972V58.9664H100.972V60.9664ZM100.972 61.9264H98.9718V63.9264H100.972V61.9264ZM101.932 61.9264H103.932V59.9264H101.932V61.9264ZM99.0518 56.1664V58.1664H101.052V56.1664H99.0518ZM99.0518 53.2864H101.052V51.2864H99.0518V53.2864ZM98.0918 53.2864H96.0918V55.2864H98.0918V53.2864ZM98.0918 52.3264H100.092V50.3264H98.0918V52.3264ZM92.3318 52.3264V50.3264H90.3318V52.3264H92.3318ZM92.3318 58.0864H90.3318V60.0864H92.3318V58.0864ZM97.1318 58.0864V60.0864H99.1318V58.0864H97.1318ZM97.1318 57.1264V55.1264H95.1318V57.1264H97.1318ZM98.0918 57.1264V59.1264H100.092V57.1264H98.0918ZM98.0918 56.1664V54.1664H96.0918V56.1664H98.0918ZM99.0518 66.7264V68.7264H101.052V66.7264H99.0518ZM99.0518 62.8864H101.052V60.8864H99.0518V62.8864ZM98.0918 62.8864H96.0918V64.8864H98.0918V62.8864ZM98.0918 61.9264H100.092V59.9264H98.0918V61.9264ZM97.1318 61.9264H95.1318V63.9264H97.1318V61.9264ZM97.1318 60.9664H99.1318V58.9664H97.1318V60.9664ZM92.3318 60.9664V58.9664H90.3318V60.9664H92.3318ZM92.3318 67.6864H90.3318V69.6864H92.3318V67.6864ZM98.0918 67.6864V69.6864H100.092V67.6864H98.0918ZM98.0918 66.7264V64.7264H96.0918V66.7264H98.0918ZM101.932 67.6864V65.6864H100.972V67.6864V69.6864H101.932V67.6864ZM100.972 67.6864H98.9718V68.6464H100.972H102.972V67.6864H100.972ZM100.972 68.6464V66.6464H100.012V68.6464V70.6464H100.972V68.6464ZM100.012 68.6464H98.0118V69.6064H100.012H102.012V68.6464H100.012ZM100.012 69.6064V67.6064H99.0518V69.6064V71.6064H100.012V69.6064ZM99.0518 69.6064H97.0518V70.5664H99.0518H101.052V69.6064H99.0518ZM99.0518 70.5664V68.5664H89.4518V70.5664V72.5664H99.0518V70.5664ZM89.4518 70.5664H91.4518V49.4464H89.4518H87.4518V70.5664H89.4518ZM89.4518 49.4464V51.4464H99.0518V49.4464V47.4464H89.4518V49.4464ZM99.0518 49.4464H97.0518V50.4064H99.0518H101.052V49.4464H99.0518ZM99.0518 50.4064V52.4064H100.012V50.4064V48.4064H99.0518V50.4064ZM100.012 50.4064H98.0118V51.3664H100.012H102.012V50.4064H100.012ZM100.012 51.3664V53.3664H100.972V51.3664V49.3664H100.012V51.3664ZM100.972 51.3664H98.9718V52.3264H100.972H102.972V51.3664H100.972ZM100.972 52.3264V54.3264H101.932V52.3264V50.3264H100.972V52.3264ZM101.932 52.3264H99.9318V57.1264H101.932H103.932V52.3264H101.932ZM101.932 57.1264V55.1264H100.972V57.1264V59.1264H101.932V57.1264ZM100.972 57.1264H98.9718V58.0864H100.972H102.972V57.1264H100.972ZM100.972 58.0864V56.0864H100.012V58.0864V60.0864H100.972V58.0864ZM100.012 58.0864H98.0118V59.0464H100.012H102.012V58.0864H100.012ZM100.012 59.0464V57.0464H99.0518V59.0464V61.0464H100.012V59.0464ZM99.0518 59.0464H97.0518V60.0064H99.0518H101.052V59.0464H99.0518ZM99.0518 60.0064V62.0064H100.012V60.0064V58.0064H99.0518V60.0064ZM100.012 60.0064H98.0118V60.9664H100.012H102.012V60.0064H100.012ZM100.012 60.9664V62.9664H100.972V60.9664V58.9664H100.012V60.9664ZM100.972 60.9664H98.9718V61.9264H100.972H102.972V60.9664H100.972ZM100.972 61.9264V63.9264H101.932V61.9264V59.9264H100.972V61.9264ZM101.932 61.9264H99.9318V67.6864H101.932H103.932V61.9264H101.932ZM99.0518 56.1664H101.052V53.2864H99.0518H97.0518V56.1664H99.0518ZM99.0518 53.2864V51.2864H98.0918V53.2864V55.2864H99.0518V53.2864ZM98.0918 53.2864H100.092V52.3264H98.0918H96.0918V53.2864H98.0918ZM98.0918 52.3264V50.3264H92.3318V52.3264V54.3264H98.0918V52.3264ZM92.3318 52.3264H90.3318V58.0864H92.3318H94.3318V52.3264H92.3318ZM92.3318 58.0864V60.0864H97.1318V58.0864V56.0864H92.3318V58.0864ZM97.1318 58.0864H99.1318V57.1264H97.1318H95.1318V58.0864H97.1318ZM97.1318 57.1264V59.1264H98.0918V57.1264V55.1264H97.1318V57.1264ZM98.0918 57.1264H100.092V56.1664H98.0918H96.0918V57.1264H98.0918ZM98.0918 56.1664V58.1664H99.0518V56.1664V54.1664H98.0918V56.1664ZM99.0518 66.7264H101.052V62.8864H99.0518H97.0518V66.7264H99.0518ZM99.0518 62.8864V60.8864H98.0918V62.8864V64.8864H99.0518V62.8864ZM98.0918 62.8864H100.092V61.9264H98.0918H96.0918V62.8864H98.0918ZM98.0918 61.9264V59.9264H97.1318V61.9264V63.9264H98.0918V61.9264ZM97.1318 61.9264H99.1318V60.9664H97.1318H95.1318V61.9264H97.1318ZM97.1318 60.9664V58.9664H92.3318V60.9664V62.9664H97.1318V60.9664ZM92.3318 60.9664H90.3318V67.6864H92.3318H94.3318V60.9664H92.3318ZM92.3318 67.6864V69.6864H98.0918V67.6864V65.6864H92.3318V67.6864ZM98.0918 67.6864H100.092V66.7264H98.0918H96.0918V67.6864H98.0918ZM98.0918 66.7264V68.7264H99.0518V66.7264V64.7264H98.0918V66.7264ZM117.298 70.5664V72.5664H119.298V70.5664H117.298ZM104.818 70.5664H102.818V72.5664H104.818V70.5664ZM104.818 49.4464V47.4464H102.818V49.4464H104.818ZM117.298 49.4464H119.298V47.4464H117.298V49.4464ZM117.298 52.3264V54.3264H119.298V52.3264H117.298ZM107.698 52.3264V50.3264H105.698V52.3264H107.698ZM107.698 58.0864H105.698V60.0864H107.698V58.0864ZM115.378 58.0864H117.378V56.0864H115.378V58.0864ZM115.378 60.9664V62.9664H117.378V60.9664H115.378ZM107.698 60.9664V58.9664H105.698V60.9664H107.698ZM107.698 67.6864H105.698V69.6864H107.698V67.6864ZM117.298 67.6864H119.298V65.6864H117.298V67.6864ZM117.298 70.5664V68.5664H104.818V70.5664V72.5664H117.298V70.5664ZM104.818 70.5664H106.818V49.4464H104.818H102.818V70.5664H104.818ZM104.818 49.4464V51.4464H117.298V49.4464V47.4464H104.818V49.4464ZM117.298 49.4464H115.298V52.3264H117.298H119.298V49.4464H117.298ZM117.298 52.3264V50.3264H107.698V52.3264V54.3264H117.298V52.3264ZM107.698 52.3264H105.698V58.0864H107.698H109.698V52.3264H107.698ZM107.698 58.0864V60.0864H115.378V58.0864V56.0864H107.698V58.0864ZM115.378 58.0864H113.378V60.9664H115.378H117.378V58.0864H115.378ZM115.378 60.9664V58.9664H107.698V60.9664V62.9664H115.378V60.9664ZM107.698 60.9664H105.698V67.6864H107.698H109.698V60.9664H107.698ZM107.698 67.6864V69.6864H117.298V67.6864V65.6864H107.698V67.6864ZM117.298 67.6864H115.298V70.5664H117.298H119.298V67.6864H117.298ZM132.664 68.6464V70.6464H134.664V68.6464H132.664ZM131.704 68.6464V66.6464H129.704V68.6464H131.704ZM131.704 69.6064V71.6064H133.704V69.6064H131.704ZM130.744 69.6064V67.6064H128.744V69.6064H130.744ZM130.744 70.5664V72.5664H132.744V70.5664H130.744ZM124.024 70.5664H122.024V72.5664H124.024V70.5664ZM124.024 69.6064H126.024V67.6064H124.024V69.6064ZM123.064 69.6064H121.064V71.6064H123.064V69.6064ZM123.064 68.6464H125.064V66.6464H123.064V68.6464ZM122.104 68.6464H120.104V70.6464H122.104V68.6464ZM122.104 67.6864H124.104V65.6864H122.104V67.6864ZM121.144 67.6864H119.144V69.6864H121.144V67.6864ZM121.144 66.7264H123.144V64.7264H121.144V66.7264ZM120.184 66.7264H118.184V68.7264H120.184V66.7264ZM120.184 53.2864V51.2864H118.184V53.2864H120.184ZM121.144 53.2864V55.2864H123.144V53.2864H121.144ZM121.144 52.3264V50.3264H119.144V52.3264H121.144ZM122.104 52.3264V54.3264H124.104V52.3264H122.104ZM122.104 51.3664V49.3664H120.104V51.3664H122.104ZM123.064 51.3664V53.3664H125.064V51.3664H123.064ZM123.064 50.4064V48.4064H121.064V50.4064H123.064ZM124.024 50.4064V52.4064H126.024V50.4064H124.024ZM124.024 49.4464V47.4464H122.024V49.4464H124.024ZM130.744 49.4464H132.744V47.4464H130.744V49.4464ZM130.744 50.4064H128.744V52.4064H130.744V50.4064ZM131.704 50.4064H133.704V48.4064H131.704V50.4064ZM131.704 51.3664H129.704V53.3664H131.704V51.3664ZM132.664 51.3664H134.664V49.3664H132.664V51.3664ZM132.664 53.2864V55.2864H134.664V53.2864H132.664ZM129.784 53.2864H127.784V55.2864H129.784V53.2864ZM129.784 52.3264H131.784V50.3264H129.784V52.3264ZM124.984 52.3264V50.3264H122.984V52.3264H124.984ZM124.984 53.2864V55.2864H126.984V53.2864H124.984ZM124.024 53.2864V51.2864H122.024V53.2864H124.024ZM124.024 54.2464V56.2464H126.024V54.2464H124.024ZM123.064 54.2464V52.2464H121.064V54.2464H123.064ZM123.064 65.7664H121.064V67.7664H123.064V65.7664ZM124.024 65.7664H126.024V63.7664H124.024V65.7664ZM124.024 66.7264H122.024V68.7264H124.024V66.7264ZM124.984 66.7264H126.984V64.7264H124.984V66.7264ZM124.984 67.6864H122.984V69.6864H124.984V67.6864ZM129.784 67.6864V69.6864H131.784V67.6864H129.784ZM129.784 61.9264H131.784V59.9264H129.784V61.9264ZM128.824 61.9264V59.9264H126.824V61.9264H128.824ZM128.824 62.8864V64.8864H130.824V62.8864H128.824ZM125.944 62.8864H123.944V64.8864H125.944V62.8864ZM125.944 59.0464V57.0464H123.944V59.0464H125.944ZM132.664 59.0464H134.664V57.0464H132.664V59.0464ZM132.664 68.6464V66.6464H131.704V68.6464V70.6464H132.664V68.6464ZM131.704 68.6464H129.704V69.6064H131.704H133.704V68.6464H131.704ZM131.704 69.6064V67.6064H130.744V69.6064V71.6064H131.704V69.6064ZM130.744 69.6064H128.744V70.5664H130.744H132.744V69.6064H130.744ZM130.744 70.5664V68.5664H124.024V70.5664V72.5664H130.744V70.5664ZM124.024 70.5664H126.024V69.6064H124.024H122.024V70.5664H124.024ZM124.024 69.6064V67.6064H123.064V69.6064V71.6064H124.024V69.6064ZM123.064 69.6064H125.064V68.6464H123.064H121.064V69.6064H123.064ZM123.064 68.6464V66.6464H122.104V68.6464V70.6464H123.064V68.6464ZM122.104 68.6464H124.104V67.6864H122.104H120.104V68.6464H122.104ZM122.104 67.6864V65.6864H121.144V67.6864V69.6864H122.104V67.6864ZM121.144 67.6864H123.144V66.7264H121.144H119.144V67.6864H121.144ZM121.144 66.7264V64.7264H120.184V66.7264V68.7264H121.144V66.7264ZM120.184 66.7264H122.184V53.2864H120.184H118.184V66.7264H120.184ZM120.184 53.2864V55.2864H121.144V53.2864V51.2864H120.184V53.2864ZM121.144 53.2864H123.144V52.3264H121.144H119.144V53.2864H121.144ZM121.144 52.3264V54.3264H122.104V52.3264V50.3264H121.144V52.3264ZM122.104 52.3264H124.104V51.3664H122.104H120.104V52.3264H122.104ZM122.104 51.3664V53.3664H123.064V51.3664V49.3664H122.104V51.3664ZM123.064 51.3664H125.064V50.4064H123.064H121.064V51.3664H123.064ZM123.064 50.4064V52.4064H124.024V50.4064V48.4064H123.064V50.4064ZM124.024 50.4064H126.024V49.4464H124.024H122.024V50.4064H124.024ZM124.024 49.4464V51.4464H130.744V49.4464V47.4464H124.024V49.4464ZM130.744 49.4464H128.744V50.4064H130.744H132.744V49.4464H130.744ZM130.744 50.4064V52.4064H131.704V50.4064V48.4064H130.744V50.4064ZM131.704 50.4064H129.704V51.3664H131.704H133.704V50.4064H131.704ZM131.704 51.3664V53.3664H132.664V51.3664V49.3664H131.704V51.3664ZM132.664 51.3664H130.664V53.2864H132.664H134.664V51.3664H132.664ZM132.664 53.2864V51.2864H129.784V53.2864V55.2864H132.664V53.2864ZM129.784 53.2864H131.784V52.3264H129.784H127.784V53.2864H129.784ZM129.784 52.3264V50.3264H124.984V52.3264V54.3264H129.784V52.3264ZM124.984 52.3264H122.984V53.2864H124.984H126.984V52.3264H124.984ZM124.984 53.2864V51.2864H124.024V53.2864V55.2864H124.984V53.2864ZM124.024 53.2864H122.024V54.2464H124.024H126.024V53.2864H124.024ZM124.024 54.2464V52.2464H123.064V54.2464V56.2464H124.024V54.2464ZM123.064 54.2464H121.064V65.7664H123.064H125.064V54.2464H123.064ZM123.064 65.7664V67.7664H124.024V65.7664V63.7664H123.064V65.7664ZM124.024 65.7664H122.024V66.7264H124.024H126.024V65.7664H124.024ZM124.024 66.7264V68.7264H124.984V66.7264V64.7264H124.024V66.7264ZM124.984 66.7264H122.984V67.6864H124.984H126.984V66.7264H124.984ZM124.984 67.6864V69.6864H129.784V67.6864V65.6864H124.984V67.6864ZM129.784 67.6864H131.784V61.9264H129.784H127.784V67.6864H129.784ZM129.784 61.9264V59.9264H128.824V61.9264V63.9264H129.784V61.9264ZM128.824 61.9264H126.824V62.8864H128.824H130.824V61.9264H128.824ZM128.824 62.8864V60.8864H125.944V62.8864V64.8864H128.824V62.8864ZM125.944 62.8864H127.944V59.0464H125.944H123.944V62.8864H125.944ZM125.944 59.0464V61.0464H132.664V59.0464V57.0464H125.944V59.0464ZM132.664 59.0464H130.664V68.6464H132.664H134.664V59.0464H132.664ZM148.031 70.5664V72.5664H150.031V70.5664H148.031ZM135.551 70.5664H133.551V72.5664H135.551V70.5664ZM135.551 67.6864V65.6864H133.551V67.6864H135.551ZM140.351 67.6864V69.6864H142.351V67.6864H140.351ZM140.351 52.3264H142.351V50.3264H140.351V52.3264ZM138.431 52.3264H136.431V54.3264H138.431V52.3264ZM138.431 49.4464V47.4464H136.431V49.4464H138.431ZM145.151 49.4464H147.151V47.4464H145.151V49.4464ZM145.151 52.3264V54.3264H147.151V52.3264H145.151ZM143.231 52.3264V50.3264H141.231V52.3264H143.231ZM143.231 67.6864H141.231V69.6864H143.231V67.6864ZM148.031 67.6864H150.031V65.6864H148.031V67.6864ZM148.031 70.5664V68.5664H135.551V70.5664V72.5664H148.031V70.5664ZM135.551 70.5664H137.551V67.6864H135.551H133.551V70.5664H135.551ZM135.551 67.6864V69.6864H140.351V67.6864V65.6864H135.551V67.6864ZM140.351 67.6864H142.351V52.3264H140.351H138.351V67.6864H140.351ZM140.351 52.3264V50.3264H138.431V52.3264V54.3264H140.351V52.3264ZM138.431 52.3264H140.431V49.4464H138.431H136.431V52.3264H138.431ZM138.431 49.4464V51.4464H145.151V49.4464V47.4464H138.431V49.4464ZM145.151 49.4464H143.151V52.3264H145.151H147.151V49.4464H145.151ZM145.151 52.3264V50.3264H143.231V52.3264V54.3264H145.151V52.3264ZM143.231 52.3264H141.231V67.6864H143.231H145.231V52.3264H143.231ZM143.231 67.6864V69.6864H148.031V67.6864V65.6864H143.231V67.6864ZM148.031 67.6864H146.031V70.5664H148.031H150.031V67.6864H148.031ZM163.397 70.5664V72.5664H165.397V70.5664H163.397ZM160.517 70.5664H158.517V72.5664H160.517V70.5664ZM160.517 69.6064H162.517V67.6064H160.517V69.6064ZM159.557 69.6064H157.557V71.6064H159.557V69.6064ZM159.557 67.6864H161.557V65.6864H159.557V67.6864ZM158.597 67.6864H156.597V69.6864H158.597V67.6864ZM158.597 65.7664H160.597V63.7664H158.597V65.7664ZM157.637 65.7664H155.637V67.7664H157.637V65.7664ZM157.637 63.8464H159.637V61.8464H157.637V63.8464ZM156.677 63.8464H154.677V65.8464H156.677V63.8464ZM156.677 61.9264H158.677V59.9264H156.677V61.9264ZM155.717 61.9264H153.717V63.9264H155.717V61.9264ZM155.717 60.0064H157.717V58.0064H155.717V60.0064ZM154.757 60.0064H152.757V62.0064H154.757V60.0064ZM154.757 58.0864H156.757V56.0864H154.757V58.0864ZM153.797 58.0864V56.0864H151.797V58.0864H153.797ZM153.797 70.5664V72.5664H155.797V70.5664H153.797ZM150.917 70.5664H148.917V72.5664H150.917V70.5664ZM150.917 49.4464V47.4464H148.917V49.4464H150.917ZM152.837 49.4464H154.837V47.4464H152.837V49.4464ZM152.837 51.3664H150.837V53.3664H152.837V51.3664ZM153.797 51.3664H155.797V49.3664H153.797V51.3664ZM153.797 53.2864H151.797V55.2864H153.797V53.2864ZM154.757 53.2864H156.757V51.2864H154.757V53.2864ZM154.757 55.2064H152.757V57.2064H154.757V55.2064ZM155.717 55.2064H157.717V53.2064H155.717V55.2064ZM155.717 57.1264H153.717V59.1264H155.717V57.1264ZM156.677 57.1264H158.677V55.1264H156.677V57.1264ZM156.677 59.0464H154.677V61.0464H156.677V59.0464ZM157.637 59.0464H159.637V57.0464H157.637V59.0464ZM157.637 60.9664H155.637V62.9664H157.637V60.9664ZM158.597 60.9664H160.597V58.9664H158.597V60.9664ZM158.597 62.8864H156.597V64.8864H158.597V62.8864ZM159.557 62.8864H161.557V60.8864H159.557V62.8864ZM159.557 64.8064H157.557V66.8064H159.557V64.8064ZM160.517 64.8064V66.8064H162.517V64.8064H160.517ZM160.517 49.4464V47.4464H158.517V49.4464H160.517ZM163.397 49.4464H165.397V47.4464H163.397V49.4464ZM163.397 70.5664V68.5664H160.517V70.5664V72.5664H163.397V70.5664ZM160.517 70.5664H162.517V69.6064H160.517H158.517V70.5664H160.517ZM160.517 69.6064V67.6064H159.557V69.6064V71.6064H160.517V69.6064ZM159.557 69.6064H161.557V67.6864H159.557H157.557V69.6064H159.557ZM159.557 67.6864V65.6864H158.597V67.6864V69.6864H159.557V67.6864ZM158.597 67.6864H160.597V65.7664H158.597H156.597V67.6864H158.597ZM158.597 65.7664V63.7664H157.637V65.7664V67.7664H158.597V65.7664ZM157.637 65.7664H159.637V63.8464H157.637H155.637V65.7664H157.637ZM157.637 63.8464V61.8464H156.677V63.8464V65.8464H157.637V63.8464ZM156.677 63.8464H158.677V61.9264H156.677H154.677V63.8464H156.677ZM156.677 61.9264V59.9264H155.717V61.9264V63.9264H156.677V61.9264ZM155.717 61.9264H157.717V60.0064H155.717H153.717V61.9264H155.717ZM155.717 60.0064V58.0064H154.757V60.0064V62.0064H155.717V60.0064ZM154.757 60.0064H156.757V58.0864H154.757H152.757V60.0064H154.757ZM154.757 58.0864V56.0864H153.797V58.0864V60.0864H154.757V58.0864ZM153.797 58.0864H151.797V70.5664H153.797H155.797V58.0864H153.797ZM153.797 70.5664V68.5664H150.917V70.5664V72.5664H153.797V70.5664ZM150.917 70.5664H152.917V49.4464H150.917H148.917V70.5664H150.917ZM150.917 49.4464V51.4464H152.837V49.4464V47.4464H150.917V49.4464ZM152.837 49.4464H150.837V51.3664H152.837H154.837V49.4464H152.837ZM152.837 51.3664V53.3664H153.797V51.3664V49.3664H152.837V51.3664ZM153.797 51.3664H151.797V53.2864H153.797H155.797V51.3664H153.797ZM153.797 53.2864V55.2864H154.757V53.2864V51.2864H153.797V53.2864ZM154.757 53.2864H152.757V55.2064H154.757H156.757V53.2864H154.757ZM154.757 55.2064V57.2064H155.717V55.2064V53.2064H154.757V55.2064ZM155.717 55.2064H153.717V57.1264H155.717H157.717V55.2064H155.717ZM155.717 57.1264V59.1264H156.677V57.1264V55.1264H155.717V57.1264ZM156.677 57.1264H154.677V59.0464H156.677H158.677V57.1264H156.677ZM156.677 59.0464V61.0464H157.637V59.0464V57.0464H156.677V59.0464ZM157.637 59.0464H155.637V60.9664H157.637H159.637V59.0464H157.637ZM157.637 60.9664V62.9664H158.597V60.9664V58.9664H157.637V60.9664ZM158.597 60.9664H156.597V62.8864H158.597H160.597V60.9664H158.597ZM158.597 62.8864V64.8864H159.557V62.8864V60.8864H158.597V62.8864ZM159.557 62.8864H157.557V64.8064H159.557H161.557V62.8864H159.557ZM159.557 64.8064V66.8064H160.517V64.8064V62.8064H159.557V64.8064ZM160.517 64.8064H162.517V49.4464H160.517H158.517V64.8064H160.517ZM160.517 49.4464V51.4464H163.397V49.4464V47.4464H160.517V49.4464ZM163.397 49.4464H161.397V70.5664H163.397H165.397V49.4464H163.397ZM178.763 67.6864V69.6864H180.763V67.6864H178.763ZM177.803 67.6864V65.6864H175.803V67.6864H177.803ZM177.803 68.6464V70.6464H179.803V68.6464H177.803ZM176.843 68.6464V66.6464H174.843V68.6464H176.843ZM176.843 69.6064V71.6064H178.843V69.6064H176.843ZM175.883 69.6064V67.6064H173.883V69.6064H175.883ZM175.883 70.5664V72.5664H177.883V70.5664H175.883ZM169.163 70.5664H167.163V72.5664H169.163V70.5664ZM169.163 69.6064H171.163V67.6064H169.163V69.6064ZM168.203 69.6064H166.203V71.6064H168.203V69.6064ZM168.203 68.6464H170.203V66.6464H168.203V68.6464ZM167.243 68.6464H165.243V70.6464H167.243V68.6464ZM167.243 67.6864H169.243V65.6864H167.243V67.6864ZM166.283 67.6864H164.283V69.6864H166.283V67.6864ZM166.283 64.8064V62.8064H164.283V64.8064H166.283ZM169.163 64.8064H171.163V62.8064H169.163V64.8064ZM169.163 66.7264H167.163V68.7264H169.163V66.7264ZM170.123 66.7264H172.123V64.7264H170.123V66.7264ZM170.123 67.6864H168.123V69.6864H170.123V67.6864ZM174.923 67.6864V69.6864H176.923V67.6864H174.923ZM174.923 66.7264V64.7264H172.923V66.7264H174.923ZM175.883 66.7264V68.7264H177.883V66.7264H175.883ZM175.883 61.9264H177.883V59.9264H175.883V61.9264ZM174.923 61.9264H172.923V63.9264H174.923V61.9264ZM174.923 60.9664H176.923V58.9664H174.923V60.9664ZM169.163 60.9664H167.163V62.9664H169.163V60.9664ZM169.163 60.0064H171.163V58.0064H169.163V60.0064ZM168.203 60.0064H166.203V62.0064H168.203V60.0064ZM168.203 59.0464H170.203V57.0464H168.203V59.0464ZM167.243 59.0464H165.243V61.0464H167.243V59.0464ZM167.243 58.0864H169.243V56.0864H167.243V58.0864ZM166.283 58.0864H164.283V60.0864H166.283V58.0864ZM166.283 52.3264V50.3264H164.283V52.3264H166.283ZM167.243 52.3264V54.3264H169.243V52.3264H167.243ZM167.243 51.3664V49.3664H165.243V51.3664H167.243ZM168.203 51.3664V53.3664H170.203V51.3664H168.203ZM168.203 50.4064V48.4064H166.203V50.4064H168.203ZM169.163 50.4064V52.4064H171.163V50.4064H169.163ZM169.163 49.4464V47.4464H167.163V49.4464H169.163ZM175.883 49.4464H177.883V47.4464H175.883V49.4464ZM175.883 50.4064H173.883V52.4064H175.883V50.4064ZM176.843 50.4064H178.843V48.4064H176.843V50.4064ZM176.843 51.3664H174.843V53.3664H176.843V51.3664ZM177.803 51.3664H179.803V49.3664H177.803V51.3664ZM177.803 52.3264H175.803V54.3264H177.803V52.3264ZM178.763 52.3264H180.763V50.3264H178.763V52.3264ZM178.763 55.2064V57.2064H180.763V55.2064H178.763ZM175.883 55.2064H173.883V57.2064H175.883V55.2064ZM175.883 53.2864H177.883V51.2864H175.883V53.2864ZM174.923 53.2864H172.923V55.2864H174.923V53.2864ZM174.923 52.3264H176.923V50.3264H174.923V52.3264ZM170.123 52.3264V50.3264H168.123V52.3264H170.123ZM170.123 53.2864V55.2864H172.123V53.2864H170.123ZM169.163 53.2864V51.2864H167.163V53.2864H169.163ZM169.163 57.1264H167.163V59.1264H169.163V57.1264ZM170.123 57.1264H172.123V55.1264H170.123V57.1264ZM170.123 58.0864H168.123V60.0864H170.123V58.0864ZM175.883 58.0864H177.883V56.0864H175.883V58.0864ZM175.883 59.0464H173.883V61.0464H175.883V59.0464ZM176.843 59.0464H178.843V57.0464H176.843V59.0464ZM176.843 60.0064H174.843V62.0064H176.843V60.0064ZM177.803 60.0064H179.803V58.0064H177.803V60.0064ZM177.803 60.9664H175.803V62.9664H177.803V60.9664ZM178.763 60.9664H180.763V58.9664H178.763V60.9664ZM178.763 67.6864V65.6864H177.803V67.6864V69.6864H178.763V67.6864ZM177.803 67.6864H175.803V68.6464H177.803H179.803V67.6864H177.803ZM177.803 68.6464V66.6464H176.843V68.6464V70.6464H177.803V68.6464ZM176.843 68.6464H174.843V69.6064H176.843H178.843V68.6464H176.843ZM176.843 69.6064V67.6064H175.883V69.6064V71.6064H176.843V69.6064ZM175.883 69.6064H173.883V70.5664H175.883H177.883V69.6064H175.883ZM175.883 70.5664V68.5664H169.163V70.5664V72.5664H175.883V70.5664ZM169.163 70.5664H171.163V69.6064H169.163H167.163V70.5664H169.163ZM169.163 69.6064V67.6064H168.203V69.6064V71.6064H169.163V69.6064ZM168.203 69.6064H170.203V68.6464H168.203H166.203V69.6064H168.203ZM168.203 68.6464V66.6464H167.243V68.6464V70.6464H168.203V68.6464ZM167.243 68.6464H169.243V67.6864H167.243H165.243V68.6464H167.243ZM167.243 67.6864V65.6864H166.283V67.6864V69.6864H167.243V67.6864ZM166.283 67.6864H168.283V64.8064H166.283H164.283V67.6864H166.283ZM166.283 64.8064V66.8064H169.163V64.8064V62.8064H166.283V64.8064ZM169.163 64.8064H167.163V66.7264H169.163H171.163V64.8064H169.163ZM169.163 66.7264V68.7264H170.123V66.7264V64.7264H169.163V66.7264ZM170.123 66.7264H168.123V67.6864H170.123H172.123V66.7264H170.123ZM170.123 67.6864V69.6864H174.923V67.6864V65.6864H170.123V67.6864ZM174.923 67.6864H176.923V66.7264H174.923H172.923V67.6864H174.923ZM174.923 66.7264V68.7264H175.883V66.7264V64.7264H174.923V66.7264ZM175.883 66.7264H177.883V61.9264H175.883H173.883V66.7264H175.883ZM175.883 61.9264V59.9264H174.923V61.9264V63.9264H175.883V61.9264ZM174.923 61.9264H176.923V60.9664H174.923H172.923V61.9264H174.923ZM174.923 60.9664V58.9664H169.163V60.9664V62.9664H174.923V60.9664ZM169.163 60.9664H171.163V60.0064H169.163H167.163V60.9664H169.163ZM169.163 60.0064V58.0064H168.203V60.0064V62.0064H169.163V60.0064ZM168.203 60.0064H170.203V59.0464H168.203H166.203V60.0064H168.203ZM168.203 59.0464V57.0464H167.243V59.0464V61.0464H168.203V59.0464ZM167.243 59.0464H169.243V58.0864H167.243H165.243V59.0464H167.243ZM167.243 58.0864V56.0864H166.283V58.0864V60.0864H167.243V58.0864ZM166.283 58.0864H168.283V52.3264H166.283H164.283V58.0864H166.283ZM166.283 52.3264V54.3264H167.243V52.3264V50.3264H166.283V52.3264ZM167.243 52.3264H169.243V51.3664H167.243H165.243V52.3264H167.243ZM167.243 51.3664V53.3664H168.203V51.3664V49.3664H167.243V51.3664ZM168.203 51.3664H170.203V50.4064H168.203H166.203V51.3664H168.203ZM168.203 50.4064V52.4064H169.163V50.4064V48.4064H168.203V50.4064ZM169.163 50.4064H171.163V49.4464H169.163H167.163V50.4064H169.163ZM169.163 49.4464V51.4464H175.883V49.4464V47.4464H169.163V49.4464ZM175.883 49.4464H173.883V50.4064H175.883H177.883V49.4464H175.883ZM175.883 50.4064V52.4064H176.843V50.4064V48.4064H175.883V50.4064ZM176.843 50.4064H174.843V51.3664H176.843H178.843V50.4064H176.843ZM176.843 51.3664V53.3664H177.803V51.3664V49.3664H176.843V51.3664ZM177.803 51.3664H175.803V52.3264H177.803H179.803V51.3664H177.803ZM177.803 52.3264V54.3264H178.763V52.3264V50.3264H177.803V52.3264ZM178.763 52.3264H176.763V55.2064H178.763H180.763V52.3264H178.763ZM178.763 55.2064V53.2064H175.883V55.2064V57.2064H178.763V55.2064ZM175.883 55.2064H177.883V53.2864H175.883H173.883V55.2064H175.883ZM175.883 53.2864V51.2864H174.923V53.2864V55.2864H175.883V53.2864ZM174.923 53.2864H176.923V52.3264H174.923H172.923V53.2864H174.923ZM174.923 52.3264V50.3264H170.123V52.3264V54.3264H174.923V52.3264ZM170.123 52.3264H168.123V53.2864H170.123H172.123V52.3264H170.123ZM170.123 53.2864V51.2864H169.163V53.2864V55.2864H170.123V53.2864ZM169.163 53.2864H167.163V57.1264H169.163H171.163V53.2864H169.163ZM169.163 57.1264V59.1264H170.123V57.1264V55.1264H169.163V57.1264ZM170.123 57.1264H168.123V58.0864H170.123H172.123V57.1264H170.123ZM170.123 58.0864V60.0864H175.883V58.0864V56.0864H170.123V58.0864ZM175.883 58.0864H173.883V59.0464H175.883H177.883V58.0864H175.883ZM175.883 59.0464V61.0464H176.843V59.0464V57.0464H175.883V59.0464ZM176.843 59.0464H174.843V60.0064H176.843H178.843V59.0464H176.843ZM176.843 60.0064V62.0064H177.803V60.0064V58.0064H176.843V60.0064ZM177.803 60.0064H175.803V60.9664H177.803H179.803V60.0064H177.803ZM177.803 60.9664V62.9664H178.763V60.9664V58.9664H177.803V60.9664ZM178.763 60.9664H176.763V67.6864H178.763H180.763V60.9664H178.763Z" fill="white" mask="url(#path-3-outside-2_2015_37723)"/>
</svg>
