<svg width="268" height="98" viewBox="0 0 268 98" fill="none" xmlns="http://www.w3.org/2000/svg">
<mask id="path-1-outside-1_448_49970" maskUnits="userSpaceOnUse" x="39.0273" y="5.22998" width="187" height="26" fill="black">
<rect fill="white" x="39.0273" y="5.22998" width="187" height="26"/>
<path d="M50.4499 15.79H51.4099V11.95H50.4499V10.99H44.6899V16.75H50.4499V15.79ZM54.2899 24.43V29.23H51.4099V25.39H50.4499V23.47H49.4899V21.55H48.5299V19.63H44.6899V29.23H41.8099V8.10998H51.4099V9.06998H52.3699V10.03H53.3299V10.99H54.2899V16.75H53.3299V17.71H52.3699V18.67H51.4099V20.59H52.3699V22.51H53.3299V24.43H54.2899ZM69.6561 26.35V29.23H57.1761V8.10998H69.6561V10.99H60.0561V16.75H67.7361V19.63H60.0561V26.35H69.6561ZM85.0224 17.71V27.31H84.0624V28.27H83.1024V29.23H76.3824V28.27H75.4224V27.31H74.4624V26.35H73.5024V25.39H72.5424V11.95H73.5024V10.99H74.4624V10.03H75.4224V9.06998H76.3824V8.10998H83.1024V9.06998H84.0624V10.03H85.0224V11.95H82.1424V10.99H77.3424V11.95H76.3824V12.91H75.4224V24.43H76.3824V25.39H77.3424V26.35H82.1424V20.59H81.1824V21.55H78.3024V17.71H85.0224ZM100.389 26.35V29.23H87.9086V26.35H92.7086V10.99H90.7886V8.10998H97.5086V10.99H95.5886V26.35H100.389ZM115.755 19.63V26.35H114.795V27.31H113.835V28.27H112.875V29.23H106.155V28.27H105.195V27.31H104.235V26.35H103.275V23.47H106.155V25.39H107.115V26.35H111.915V25.39H112.875V20.59H111.915V19.63H106.155V18.67H105.195V17.71H104.235V16.75H103.275V10.99H104.235V10.03H105.195V9.06998H106.155V8.10998H112.875V9.06998H113.835V10.03H114.795V10.99H115.755V13.87H112.875V11.95H111.915V10.99H107.115V11.95H106.155V15.79H107.115V16.75H112.875V17.71H113.835V18.67H114.795V19.63H115.755ZM131.121 8.10998V10.99H126.321V29.23H123.441V10.99H118.641V8.10998H131.121ZM142.647 15.79H143.607V11.95H142.647V10.99H136.887V16.75H142.647V15.79ZM146.487 24.43V29.23H143.607V25.39H142.647V23.47H141.687V21.55H140.727V19.63H136.887V29.23H134.007V8.10998H143.607V9.06998H144.567V10.03H145.527V10.99H146.487V16.75H145.527V17.71H144.567V18.67H143.607V20.59H144.567V22.51H145.527V24.43H146.487ZM152.254 21.55H158.974V20.59V19.63H158.014V17.71H157.054V15.79H156.094V13.87H155.134V15.79H154.174V17.71H153.214V19.63H152.254V20.59V21.55ZM161.854 21.55V29.23H158.974V24.43H152.254V29.23H149.374V21.55V20.59V18.67H150.334V16.75H151.294V14.83H152.254V12.91H153.214V10.99H154.174V9.06998H155.134V8.10998H156.094V9.06998H157.054V10.99H158.014V12.91H158.974V14.83H159.934V16.75H160.894V18.67H161.854V20.59V21.55ZM177.22 8.10998V10.99H172.42V29.23H169.54V10.99H164.74V8.10998H177.22ZM192.586 26.35V29.23H180.106V26.35H184.906V10.99H182.986V8.10998H189.706V10.99H187.786V26.35H192.586ZM204.112 24.43H205.072V12.91H204.112V11.95H203.152V10.99H200.272V11.95H199.312V12.91H198.352V24.43H199.312V25.39H200.272V26.35H203.152V25.39H204.112V24.43ZM207.952 11.95V25.39H206.992V26.35H206.032V27.31H205.072V28.27H204.112V29.23H199.312V28.27H198.352V27.31H197.392V26.35H196.432V25.39H195.472V11.95H196.432V10.99H197.392V10.03H198.352V9.06998H199.312V8.10998H204.112V9.06998H205.072V10.03H206.032V10.99H206.992V11.95H207.952ZM223.319 8.10998V29.23H220.439V28.27H219.479V26.35H218.519V24.43H217.559V22.51H216.599V20.59H215.639V18.67H214.679V16.75H213.719V29.23H210.839V8.10998H212.759V10.03H213.719V11.95H214.679V13.87H215.639V15.79H216.599V17.71H217.559V19.63H218.519V21.55H219.479V23.47H220.439V8.10998H223.319Z"/>
</mask>
<path d="M50.4499 15.79V13.79H48.4499V15.79H50.4499ZM51.4099 15.79V17.79H53.4099V15.79H51.4099ZM51.4099 11.95H53.4099V9.94998H51.4099V11.95ZM50.4499 11.95H48.4499V13.95H50.4499V11.95ZM50.4499 10.99H52.4499V8.98998H50.4499V10.99ZM44.6899 10.99V8.98998H42.6899V10.99H44.6899ZM44.6899 16.75H42.6899V18.75H44.6899V16.75ZM50.4499 16.75V18.75H52.4499V16.75H50.4499ZM54.2899 24.43H56.2899V22.43H54.2899V24.43ZM54.2899 29.23V31.23H56.2899V29.23H54.2899ZM51.4099 29.23H49.4099V31.23H51.4099V29.23ZM51.4099 25.39H53.4099V23.39H51.4099V25.39ZM50.4499 25.39H48.4499V27.39H50.4499V25.39ZM50.4499 23.47H52.4499V21.47H50.4499V23.47ZM49.4899 23.47H47.4899V25.47H49.4899V23.47ZM49.4899 21.55H51.4899V19.55H49.4899V21.55ZM48.5299 21.55H46.5299V23.55H48.5299V21.55ZM48.5299 19.63H50.5299V17.63H48.5299V19.63ZM44.6899 19.63V17.63H42.6899V19.63H44.6899ZM44.6899 29.23V31.23H46.6899V29.23H44.6899ZM41.8099 29.23H39.8099V31.23H41.8099V29.23ZM41.8099 8.10998V6.10998H39.8099V8.10998H41.8099ZM51.4099 8.10998H53.4099V6.10998H51.4099V8.10998ZM51.4099 9.06998H49.4099V11.07H51.4099V9.06998ZM52.3699 9.06998H54.3699V7.06998H52.3699V9.06998ZM52.3699 10.03H50.3699V12.03H52.3699V10.03ZM53.3299 10.03H55.3299V8.02998H53.3299V10.03ZM53.3299 10.99H51.3299V12.99H53.3299V10.99ZM54.2899 10.99H56.2899V8.98998H54.2899V10.99ZM54.2899 16.75V18.75H56.2899V16.75H54.2899ZM53.3299 16.75V14.75H51.3299V16.75H53.3299ZM53.3299 17.71V19.71H55.3299V17.71H53.3299ZM52.3699 17.71V15.71H50.3699V17.71H52.3699ZM52.3699 18.67V20.67H54.3699V18.67H52.3699ZM51.4099 18.67V16.67H49.4099V18.67H51.4099ZM51.4099 20.59H49.4099V22.59H51.4099V20.59ZM52.3699 20.59H54.3699V18.59H52.3699V20.59ZM52.3699 22.51H50.3699V24.51H52.3699V22.51ZM53.3299 22.51H55.3299V20.51H53.3299V22.51ZM53.3299 24.43H51.3299V26.43H53.3299V24.43ZM50.4499 17.79H51.4099V13.79H50.4499V17.79ZM53.4099 15.79V11.95H49.4099V15.79H53.4099ZM51.4099 9.94998H50.4499V13.95H51.4099V9.94998ZM52.4499 11.95V10.99H48.4499V11.95H52.4499ZM50.4499 8.98998H44.6899V12.99H50.4499V8.98998ZM42.6899 10.99V16.75H46.6899V10.99H42.6899ZM44.6899 18.75H50.4499V14.75H44.6899V18.75ZM52.4499 16.75V15.79H48.4499V16.75H52.4499ZM52.2899 24.43V29.23H56.2899V24.43H52.2899ZM54.2899 27.23H51.4099V31.23H54.2899V27.23ZM53.4099 29.23V25.39H49.4099V29.23H53.4099ZM51.4099 23.39H50.4499V27.39H51.4099V23.39ZM52.4499 25.39V23.47H48.4499V25.39H52.4499ZM50.4499 21.47H49.4899V25.47H50.4499V21.47ZM51.4899 23.47V21.55H47.4899V23.47H51.4899ZM49.4899 19.55H48.5299V23.55H49.4899V19.55ZM50.5299 21.55V19.63H46.5299V21.55H50.5299ZM48.5299 17.63H44.6899V21.63H48.5299V17.63ZM42.6899 19.63V29.23H46.6899V19.63H42.6899ZM44.6899 27.23H41.8099V31.23H44.6899V27.23ZM43.8099 29.23V8.10998H39.8099V29.23H43.8099ZM41.8099 10.11H51.4099V6.10998H41.8099V10.11ZM49.4099 8.10998V9.06998H53.4099V8.10998H49.4099ZM51.4099 11.07H52.3699V7.06998H51.4099V11.07ZM50.3699 9.06998V10.03H54.3699V9.06998H50.3699ZM52.3699 12.03H53.3299V8.02998H52.3699V12.03ZM51.3299 10.03V10.99H55.3299V10.03H51.3299ZM53.3299 12.99H54.2899V8.98998H53.3299V12.99ZM52.2899 10.99V16.75H56.2899V10.99H52.2899ZM54.2899 14.75H53.3299V18.75H54.2899V14.75ZM51.3299 16.75V17.71H55.3299V16.75H51.3299ZM53.3299 15.71H52.3699V19.71H53.3299V15.71ZM50.3699 17.71V18.67H54.3699V17.71H50.3699ZM52.3699 16.67H51.4099V20.67H52.3699V16.67ZM49.4099 18.67V20.59H53.4099V18.67H49.4099ZM51.4099 22.59H52.3699V18.59H51.4099V22.59ZM50.3699 20.59V22.51H54.3699V20.59H50.3699ZM52.3699 24.51H53.3299V20.51H52.3699V24.51ZM51.3299 22.51V24.43H55.3299V22.51H51.3299ZM53.3299 26.43H54.2899V22.43H53.3299V26.43ZM69.6561 26.35H71.6561V24.35H69.6561V26.35ZM69.6561 29.23V31.23H71.6561V29.23H69.6561ZM57.1761 29.23H55.1761V31.23H57.1761V29.23ZM57.1761 8.10998V6.10998H55.1761V8.10998H57.1761ZM69.6561 8.10998H71.6561V6.10998H69.6561V8.10998ZM69.6561 10.99V12.99H71.6561V10.99H69.6561ZM60.0561 10.99V8.98998H58.0561V10.99H60.0561ZM60.0561 16.75H58.0561V18.75H60.0561V16.75ZM67.7361 16.75H69.7361V14.75H67.7361V16.75ZM67.7361 19.63V21.63H69.7361V19.63H67.7361ZM60.0561 19.63V17.63H58.0561V19.63H60.0561ZM60.0561 26.35H58.0561V28.35H60.0561V26.35ZM67.6561 26.35V29.23H71.6561V26.35H67.6561ZM69.6561 27.23H57.1761V31.23H69.6561V27.23ZM59.1761 29.23V8.10998H55.1761V29.23H59.1761ZM57.1761 10.11H69.6561V6.10998H57.1761V10.11ZM67.6561 8.10998V10.99H71.6561V8.10998H67.6561ZM69.6561 8.98998H60.0561V12.99H69.6561V8.98998ZM58.0561 10.99V16.75H62.0561V10.99H58.0561ZM60.0561 18.75H67.7361V14.75H60.0561V18.75ZM65.7361 16.75V19.63H69.7361V16.75H65.7361ZM67.7361 17.63H60.0561V21.63H67.7361V17.63ZM58.0561 19.63V26.35H62.0561V19.63H58.0561ZM60.0561 28.35H69.6561V24.35H60.0561V28.35ZM85.0224 17.71H87.0224V15.71H85.0224V17.71ZM85.0224 27.31V29.31H87.0224V27.31H85.0224ZM84.0624 27.31V25.31H82.0624V27.31H84.0624ZM84.0624 28.27V30.27H86.0624V28.27H84.0624ZM83.1024 28.27V26.27H81.1024V28.27H83.1024ZM83.1024 29.23V31.23H85.1024V29.23H83.1024ZM76.3824 29.23H74.3824V31.23H76.3824V29.23ZM76.3824 28.27H78.3824V26.27H76.3824V28.27ZM75.4224 28.27H73.4224V30.27H75.4224V28.27ZM75.4224 27.31H77.4224V25.31H75.4224V27.31ZM74.4624 27.31H72.4624V29.31H74.4624V27.31ZM74.4624 26.35H76.4624V24.35H74.4624V26.35ZM73.5024 26.35H71.5024V28.35H73.5024V26.35ZM73.5024 25.39H75.5024V23.39H73.5024V25.39ZM72.5424 25.39H70.5424V27.39H72.5424V25.39ZM72.5424 11.95V9.94998H70.5424V11.95H72.5424ZM73.5024 11.95V13.95H75.5024V11.95H73.5024ZM73.5024 10.99V8.98998H71.5024V10.99H73.5024ZM74.4624 10.99V12.99H76.4624V10.99H74.4624ZM74.4624 10.03V8.02998H72.4624V10.03H74.4624ZM75.4224 10.03V12.03H77.4224V10.03H75.4224ZM75.4224 9.06998V7.06998H73.4224V9.06998H75.4224ZM76.3824 9.06998V11.07H78.3824V9.06998H76.3824ZM76.3824 8.10998V6.10998H74.3824V8.10998H76.3824ZM83.1024 8.10998H85.1024V6.10998H83.1024V8.10998ZM83.1024 9.06998H81.1024V11.07H83.1024V9.06998ZM84.0624 9.06998H86.0624V7.06998H84.0624V9.06998ZM84.0624 10.03H82.0624V12.03H84.0624V10.03ZM85.0224 10.03H87.0224V8.02998H85.0224V10.03ZM85.0224 11.95V13.95H87.0224V11.95H85.0224ZM82.1424 11.95H80.1424V13.95H82.1424V11.95ZM82.1424 10.99H84.1424V8.98998H82.1424V10.99ZM77.3424 10.99V8.98998H75.3424V10.99H77.3424ZM77.3424 11.95V13.95H79.3424V11.95H77.3424ZM76.3824 11.95V9.94998H74.3824V11.95H76.3824ZM76.3824 12.91V14.91H78.3824V12.91H76.3824ZM75.4224 12.91V10.91H73.4224V12.91H75.4224ZM75.4224 24.43H73.4224V26.43H75.4224V24.43ZM76.3824 24.43H78.3824V22.43H76.3824V24.43ZM76.3824 25.39H74.3824V27.39H76.3824V25.39ZM77.3424 25.39H79.3424V23.39H77.3424V25.39ZM77.3424 26.35H75.3424V28.35H77.3424V26.35ZM82.1424 26.35V28.35H84.1424V26.35H82.1424ZM82.1424 20.59H84.1424V18.59H82.1424V20.59ZM81.1824 20.59V18.59H79.1824V20.59H81.1824ZM81.1824 21.55V23.55H83.1824V21.55H81.1824ZM78.3024 21.55H76.3024V23.55H78.3024V21.55ZM78.3024 17.71V15.71H76.3024V17.71H78.3024ZM83.0224 17.71V27.31H87.0224V17.71H83.0224ZM85.0224 25.31H84.0624V29.31H85.0224V25.31ZM82.0624 27.31V28.27H86.0624V27.31H82.0624ZM84.0624 26.27H83.1024V30.27H84.0624V26.27ZM81.1024 28.27V29.23H85.1024V28.27H81.1024ZM83.1024 27.23H76.3824V31.23H83.1024V27.23ZM78.3824 29.23V28.27H74.3824V29.23H78.3824ZM76.3824 26.27H75.4224V30.27H76.3824V26.27ZM77.4224 28.27V27.31H73.4224V28.27H77.4224ZM75.4224 25.31H74.4624V29.31H75.4224V25.31ZM76.4624 27.31V26.35H72.4624V27.31H76.4624ZM74.4624 24.35H73.5024V28.35H74.4624V24.35ZM75.5024 26.35V25.39H71.5024V26.35H75.5024ZM73.5024 23.39H72.5424V27.39H73.5024V23.39ZM74.5424 25.39V11.95H70.5424V25.39H74.5424ZM72.5424 13.95H73.5024V9.94998H72.5424V13.95ZM75.5024 11.95V10.99H71.5024V11.95H75.5024ZM73.5024 12.99H74.4624V8.98998H73.5024V12.99ZM76.4624 10.99V10.03H72.4624V10.99H76.4624ZM74.4624 12.03H75.4224V8.02998H74.4624V12.03ZM77.4224 10.03V9.06998H73.4224V10.03H77.4224ZM75.4224 11.07H76.3824V7.06998H75.4224V11.07ZM78.3824 9.06998V8.10998H74.3824V9.06998H78.3824ZM76.3824 10.11H83.1024V6.10998H76.3824V10.11ZM81.1024 8.10998V9.06998H85.1024V8.10998H81.1024ZM83.1024 11.07H84.0624V7.06998H83.1024V11.07ZM82.0624 9.06998V10.03H86.0624V9.06998H82.0624ZM84.0624 12.03H85.0224V8.02998H84.0624V12.03ZM83.0224 10.03V11.95H87.0224V10.03H83.0224ZM85.0224 9.94998H82.1424V13.95H85.0224V9.94998ZM84.1424 11.95V10.99H80.1424V11.95H84.1424ZM82.1424 8.98998H77.3424V12.99H82.1424V8.98998ZM75.3424 10.99V11.95H79.3424V10.99H75.3424ZM77.3424 9.94998H76.3824V13.95H77.3424V9.94998ZM74.3824 11.95V12.91H78.3824V11.95H74.3824ZM76.3824 10.91H75.4224V14.91H76.3824V10.91ZM73.4224 12.91V24.43H77.4224V12.91H73.4224ZM75.4224 26.43H76.3824V22.43H75.4224V26.43ZM74.3824 24.43V25.39H78.3824V24.43H74.3824ZM76.3824 27.39H77.3424V23.39H76.3824V27.39ZM75.3424 25.39V26.35H79.3424V25.39H75.3424ZM77.3424 28.35H82.1424V24.35H77.3424V28.35ZM84.1424 26.35V20.59H80.1424V26.35H84.1424ZM82.1424 18.59H81.1824V22.59H82.1424V18.59ZM79.1824 20.59V21.55H83.1824V20.59H79.1824ZM81.1824 19.55H78.3024V23.55H81.1824V19.55ZM80.3024 21.55V17.71H76.3024V21.55H80.3024ZM78.3024 19.71H85.0224V15.71H78.3024V19.71ZM100.389 26.35H102.389V24.35H100.389V26.35ZM100.389 29.23V31.23H102.389V29.23H100.389ZM87.9086 29.23H85.9086V31.23H87.9086V29.23ZM87.9086 26.35V24.35H85.9086V26.35H87.9086ZM92.7086 26.35V28.35H94.7086V26.35H92.7086ZM92.7086 10.99H94.7086V8.98998H92.7086V10.99ZM90.7886 10.99H88.7886V12.99H90.7886V10.99ZM90.7886 8.10998V6.10998H88.7886V8.10998H90.7886ZM97.5086 8.10998H99.5086V6.10998H97.5086V8.10998ZM97.5086 10.99V12.99H99.5086V10.99H97.5086ZM95.5886 10.99V8.98998H93.5886V10.99H95.5886ZM95.5886 26.35H93.5886V28.35H95.5886V26.35ZM98.3886 26.35V29.23H102.389V26.35H98.3886ZM100.389 27.23H87.9086V31.23H100.389V27.23ZM89.9086 29.23V26.35H85.9086V29.23H89.9086ZM87.9086 28.35H92.7086V24.35H87.9086V28.35ZM94.7086 26.35V10.99H90.7086V26.35H94.7086ZM92.7086 8.98998H90.7886V12.99H92.7086V8.98998ZM92.7886 10.99V8.10998H88.7886V10.99H92.7886ZM90.7886 10.11H97.5086V6.10998H90.7886V10.11ZM95.5086 8.10998V10.99H99.5086V8.10998H95.5086ZM97.5086 8.98998H95.5886V12.99H97.5086V8.98998ZM93.5886 10.99V26.35H97.5886V10.99H93.5886ZM95.5886 28.35H100.389V24.35H95.5886V28.35ZM115.755 19.63H117.755V17.63H115.755V19.63ZM115.755 26.35V28.35H117.755V26.35H115.755ZM114.795 26.35V24.35H112.795V26.35H114.795ZM114.795 27.31V29.31H116.795V27.31H114.795ZM113.835 27.31V25.31H111.835V27.31H113.835ZM113.835 28.27V30.27H115.835V28.27H113.835ZM112.875 28.27V26.27H110.875V28.27H112.875ZM112.875 29.23V31.23H114.875V29.23H112.875ZM106.155 29.23H104.155V31.23H106.155V29.23ZM106.155 28.27H108.155V26.27H106.155V28.27ZM105.195 28.27H103.195V30.27H105.195V28.27ZM105.195 27.31H107.195V25.31H105.195V27.31ZM104.235 27.31H102.235V29.31H104.235V27.31ZM104.235 26.35H106.235V24.35H104.235V26.35ZM103.275 26.35H101.275V28.35H103.275V26.35ZM103.275 23.47V21.47H101.275V23.47H103.275ZM106.155 23.47H108.155V21.47H106.155V23.47ZM106.155 25.39H104.155V27.39H106.155V25.39ZM107.115 25.39H109.115V23.39H107.115V25.39ZM107.115 26.35H105.115V28.35H107.115V26.35ZM111.915 26.35V28.35H113.915V26.35H111.915ZM111.915 25.39V23.39H109.915V25.39H111.915ZM112.875 25.39V27.39H114.875V25.39H112.875ZM112.875 20.59H114.875V18.59H112.875V20.59ZM111.915 20.59H109.915V22.59H111.915V20.59ZM111.915 19.63H113.915V17.63H111.915V19.63ZM106.155 19.63H104.155V21.63H106.155V19.63ZM106.155 18.67H108.155V16.67H106.155V18.67ZM105.195 18.67H103.195V20.67H105.195V18.67ZM105.195 17.71H107.195V15.71H105.195V17.71ZM104.235 17.71H102.235V19.71H104.235V17.71ZM104.235 16.75H106.235V14.75H104.235V16.75ZM103.275 16.75H101.275V18.75H103.275V16.75ZM103.275 10.99V8.98998H101.275V10.99H103.275ZM104.235 10.99V12.99H106.235V10.99H104.235ZM104.235 10.03V8.02998H102.235V10.03H104.235ZM105.195 10.03V12.03H107.195V10.03H105.195ZM105.195 9.06998V7.06998H103.195V9.06998H105.195ZM106.155 9.06998V11.07H108.155V9.06998H106.155ZM106.155 8.10998V6.10998H104.155V8.10998H106.155ZM112.875 8.10998H114.875V6.10998H112.875V8.10998ZM112.875 9.06998H110.875V11.07H112.875V9.06998ZM113.835 9.06998H115.835V7.06998H113.835V9.06998ZM113.835 10.03H111.835V12.03H113.835V10.03ZM114.795 10.03H116.795V8.02998H114.795V10.03ZM114.795 10.99H112.795V12.99H114.795V10.99ZM115.755 10.99H117.755V8.98998H115.755V10.99ZM115.755 13.87V15.87H117.755V13.87H115.755ZM112.875 13.87H110.875V15.87H112.875V13.87ZM112.875 11.95H114.875V9.94998H112.875V11.95ZM111.915 11.95H109.915V13.95H111.915V11.95ZM111.915 10.99H113.915V8.98998H111.915V10.99ZM107.115 10.99V8.98998H105.115V10.99H107.115ZM107.115 11.95V13.95H109.115V11.95H107.115ZM106.155 11.95V9.94998H104.155V11.95H106.155ZM106.155 15.79H104.155V17.79H106.155V15.79ZM107.115 15.79H109.115V13.79H107.115V15.79ZM107.115 16.75H105.115V18.75H107.115V16.75ZM112.875 16.75H114.875V14.75H112.875V16.75ZM112.875 17.71H110.875V19.71H112.875V17.71ZM113.835 17.71H115.835V15.71H113.835V17.71ZM113.835 18.67H111.835V20.67H113.835V18.67ZM114.795 18.67H116.795V16.67H114.795V18.67ZM114.795 19.63H112.795V21.63H114.795V19.63ZM113.755 19.63V26.35H117.755V19.63H113.755ZM115.755 24.35H114.795V28.35H115.755V24.35ZM112.795 26.35V27.31H116.795V26.35H112.795ZM114.795 25.31H113.835V29.31H114.795V25.31ZM111.835 27.31V28.27H115.835V27.31H111.835ZM113.835 26.27H112.875V30.27H113.835V26.27ZM110.875 28.27V29.23H114.875V28.27H110.875ZM112.875 27.23H106.155V31.23H112.875V27.23ZM108.155 29.23V28.27H104.155V29.23H108.155ZM106.155 26.27H105.195V30.27H106.155V26.27ZM107.195 28.27V27.31H103.195V28.27H107.195ZM105.195 25.31H104.235V29.31H105.195V25.31ZM106.235 27.31V26.35H102.235V27.31H106.235ZM104.235 24.35H103.275V28.35H104.235V24.35ZM105.275 26.35V23.47H101.275V26.35H105.275ZM103.275 25.47H106.155V21.47H103.275V25.47ZM104.155 23.47V25.39H108.155V23.47H104.155ZM106.155 27.39H107.115V23.39H106.155V27.39ZM105.115 25.39V26.35H109.115V25.39H105.115ZM107.115 28.35H111.915V24.35H107.115V28.35ZM113.915 26.35V25.39H109.915V26.35H113.915ZM111.915 27.39H112.875V23.39H111.915V27.39ZM114.875 25.39V20.59H110.875V25.39H114.875ZM112.875 18.59H111.915V22.59H112.875V18.59ZM113.915 20.59V19.63H109.915V20.59H113.915ZM111.915 17.63H106.155V21.63H111.915V17.63ZM108.155 19.63V18.67H104.155V19.63H108.155ZM106.155 16.67H105.195V20.67H106.155V16.67ZM107.195 18.67V17.71H103.195V18.67H107.195ZM105.195 15.71H104.235V19.71H105.195V15.71ZM106.235 17.71V16.75H102.235V17.71H106.235ZM104.235 14.75H103.275V18.75H104.235V14.75ZM105.275 16.75V10.99H101.275V16.75H105.275ZM103.275 12.99H104.235V8.98998H103.275V12.99ZM106.235 10.99V10.03H102.235V10.99H106.235ZM104.235 12.03H105.195V8.02998H104.235V12.03ZM107.195 10.03V9.06998H103.195V10.03H107.195ZM105.195 11.07H106.155V7.06998H105.195V11.07ZM108.155 9.06998V8.10998H104.155V9.06998H108.155ZM106.155 10.11H112.875V6.10998H106.155V10.11ZM110.875 8.10998V9.06998H114.875V8.10998H110.875ZM112.875 11.07H113.835V7.06998H112.875V11.07ZM111.835 9.06998V10.03H115.835V9.06998H111.835ZM113.835 12.03H114.795V8.02998H113.835V12.03ZM112.795 10.03V10.99H116.795V10.03H112.795ZM114.795 12.99H115.755V8.98998H114.795V12.99ZM113.755 10.99V13.87H117.755V10.99H113.755ZM115.755 11.87H112.875V15.87H115.755V11.87ZM114.875 13.87V11.95H110.875V13.87H114.875ZM112.875 9.94998H111.915V13.95H112.875V9.94998ZM113.915 11.95V10.99H109.915V11.95H113.915ZM111.915 8.98998H107.115V12.99H111.915V8.98998ZM105.115 10.99V11.95H109.115V10.99H105.115ZM107.115 9.94998H106.155V13.95H107.115V9.94998ZM104.155 11.95V15.79H108.155V11.95H104.155ZM106.155 17.79H107.115V13.79H106.155V17.79ZM105.115 15.79V16.75H109.115V15.79H105.115ZM107.115 18.75H112.875V14.75H107.115V18.75ZM110.875 16.75V17.71H114.875V16.75H110.875ZM112.875 19.71H113.835V15.71H112.875V19.71ZM111.835 17.71V18.67H115.835V17.71H111.835ZM113.835 20.67H114.795V16.67H113.835V20.67ZM112.795 18.67V19.63H116.795V18.67H112.795ZM114.795 21.63H115.755V17.63H114.795V21.63ZM131.121 8.10998H133.121V6.10998H131.121V8.10998ZM131.121 10.99V12.99H133.121V10.99H131.121ZM126.321 10.99V8.98998H124.321V10.99H126.321ZM126.321 29.23V31.23H128.321V29.23H126.321ZM123.441 29.23H121.441V31.23H123.441V29.23ZM123.441 10.99H125.441V8.98998H123.441V10.99ZM118.641 10.99H116.641V12.99H118.641V10.99ZM118.641 8.10998V6.10998H116.641V8.10998H118.641ZM129.121 8.10998V10.99H133.121V8.10998H129.121ZM131.121 8.98998H126.321V12.99H131.121V8.98998ZM124.321 10.99V29.23H128.321V10.99H124.321ZM126.321 27.23H123.441V31.23H126.321V27.23ZM125.441 29.23V10.99H121.441V29.23H125.441ZM123.441 8.98998H118.641V12.99H123.441V8.98998ZM120.641 10.99V8.10998H116.641V10.99H120.641ZM118.641 10.11H131.121V6.10998H118.641V10.11ZM142.647 15.79V13.79H140.647V15.79H142.647ZM143.607 15.79V17.79H145.607V15.79H143.607ZM143.607 11.95H145.607V9.94998H143.607V11.95ZM142.647 11.95H140.647V13.95H142.647V11.95ZM142.647 10.99H144.647V8.98998H142.647V10.99ZM136.887 10.99V8.98998H134.887V10.99H136.887ZM136.887 16.75H134.887V18.75H136.887V16.75ZM142.647 16.75V18.75H144.647V16.75H142.647ZM146.487 24.43H148.487V22.43H146.487V24.43ZM146.487 29.23V31.23H148.487V29.23H146.487ZM143.607 29.23H141.607V31.23H143.607V29.23ZM143.607 25.39H145.607V23.39H143.607V25.39ZM142.647 25.39H140.647V27.39H142.647V25.39ZM142.647 23.47H144.647V21.47H142.647V23.47ZM141.687 23.47H139.687V25.47H141.687V23.47ZM141.687 21.55H143.687V19.55H141.687V21.55ZM140.727 21.55H138.727V23.55H140.727V21.55ZM140.727 19.63H142.727V17.63H140.727V19.63ZM136.887 19.63V17.63H134.887V19.63H136.887ZM136.887 29.23V31.23H138.887V29.23H136.887ZM134.007 29.23H132.007V31.23H134.007V29.23ZM134.007 8.10998V6.10998H132.007V8.10998H134.007ZM143.607 8.10998H145.607V6.10998H143.607V8.10998ZM143.607 9.06998H141.607V11.07H143.607V9.06998ZM144.567 9.06998H146.567V7.06998H144.567V9.06998ZM144.567 10.03H142.567V12.03H144.567V10.03ZM145.527 10.03H147.527V8.02998H145.527V10.03ZM145.527 10.99H143.527V12.99H145.527V10.99ZM146.487 10.99H148.487V8.98998H146.487V10.99ZM146.487 16.75V18.75H148.487V16.75H146.487ZM145.527 16.75V14.75H143.527V16.75H145.527ZM145.527 17.71V19.71H147.527V17.71H145.527ZM144.567 17.71V15.71H142.567V17.71H144.567ZM144.567 18.67V20.67H146.567V18.67H144.567ZM143.607 18.67V16.67H141.607V18.67H143.607ZM143.607 20.59H141.607V22.59H143.607V20.59ZM144.567 20.59H146.567V18.59H144.567V20.59ZM144.567 22.51H142.567V24.51H144.567V22.51ZM145.527 22.51H147.527V20.51H145.527V22.51ZM145.527 24.43H143.527V26.43H145.527V24.43ZM142.647 17.79H143.607V13.79H142.647V17.79ZM145.607 15.79V11.95H141.607V15.79H145.607ZM143.607 9.94998H142.647V13.95H143.607V9.94998ZM144.647 11.95V10.99H140.647V11.95H144.647ZM142.647 8.98998H136.887V12.99H142.647V8.98998ZM134.887 10.99V16.75H138.887V10.99H134.887ZM136.887 18.75H142.647V14.75H136.887V18.75ZM144.647 16.75V15.79H140.647V16.75H144.647ZM144.487 24.43V29.23H148.487V24.43H144.487ZM146.487 27.23H143.607V31.23H146.487V27.23ZM145.607 29.23V25.39H141.607V29.23H145.607ZM143.607 23.39H142.647V27.39H143.607V23.39ZM144.647 25.39V23.47H140.647V25.39H144.647ZM142.647 21.47H141.687V25.47H142.647V21.47ZM143.687 23.47V21.55H139.687V23.47H143.687ZM141.687 19.55H140.727V23.55H141.687V19.55ZM142.727 21.55V19.63H138.727V21.55H142.727ZM140.727 17.63H136.887V21.63H140.727V17.63ZM134.887 19.63V29.23H138.887V19.63H134.887ZM136.887 27.23H134.007V31.23H136.887V27.23ZM136.007 29.23V8.10998H132.007V29.23H136.007ZM134.007 10.11H143.607V6.10998H134.007V10.11ZM141.607 8.10998V9.06998H145.607V8.10998H141.607ZM143.607 11.07H144.567V7.06998H143.607V11.07ZM142.567 9.06998V10.03H146.567V9.06998H142.567ZM144.567 12.03H145.527V8.02998H144.567V12.03ZM143.527 10.03V10.99H147.527V10.03H143.527ZM145.527 12.99H146.487V8.98998H145.527V12.99ZM144.487 10.99V16.75H148.487V10.99H144.487ZM146.487 14.75H145.527V18.75H146.487V14.75ZM143.527 16.75V17.71H147.527V16.75H143.527ZM145.527 15.71H144.567V19.71H145.527V15.71ZM142.567 17.71V18.67H146.567V17.71H142.567ZM144.567 16.67H143.607V20.67H144.567V16.67ZM141.607 18.67V20.59H145.607V18.67H141.607ZM143.607 22.59H144.567V18.59H143.607V22.59ZM142.567 20.59V22.51H146.567V20.59H142.567ZM144.567 24.51H145.527V20.51H144.567V24.51ZM143.527 22.51V24.43H147.527V22.51H143.527ZM145.527 26.43H146.487V22.43H145.527V26.43ZM152.254 21.55H150.254V23.55H152.254V21.55ZM158.974 21.55V23.55H160.974V21.55H158.974ZM158.974 19.63H160.974V17.63H158.974V19.63ZM158.014 19.63H156.014V21.63H158.014V19.63ZM158.014 17.71H160.014V15.71H158.014V17.71ZM157.054 17.71H155.054V19.71H157.054V17.71ZM157.054 15.79H159.054V13.79H157.054V15.79ZM156.094 15.79H154.094V17.79H156.094V15.79ZM156.094 13.87H158.094V11.87H156.094V13.87ZM155.134 13.87V11.87H153.134V13.87H155.134ZM155.134 15.79V17.79H157.134V15.79H155.134ZM154.174 15.79V13.79H152.174V15.79H154.174ZM154.174 17.71V19.71H156.174V17.71H154.174ZM153.214 17.71V15.71H151.214V17.71H153.214ZM153.214 19.63V21.63H155.214V19.63H153.214ZM152.254 19.63V17.63H150.254V19.63H152.254ZM161.854 29.23V31.23H163.854V29.23H161.854ZM158.974 29.23H156.974V31.23H158.974V29.23ZM158.974 24.43H160.974V22.43H158.974V24.43ZM152.254 24.43V22.43H150.254V24.43H152.254ZM152.254 29.23V31.23H154.254V29.23H152.254ZM149.374 29.23H147.374V31.23H149.374V29.23ZM149.374 18.67V16.67H147.374V18.67H149.374ZM150.334 18.67V20.67H152.334V18.67H150.334ZM150.334 16.75V14.75H148.334V16.75H150.334ZM151.294 16.75V18.75H153.294V16.75H151.294ZM151.294 14.83V12.83H149.294V14.83H151.294ZM152.254 14.83V16.83H154.254V14.83H152.254ZM152.254 12.91V10.91H150.254V12.91H152.254ZM153.214 12.91V14.91H155.214V12.91H153.214ZM153.214 10.99V8.98998H151.214V10.99H153.214ZM154.174 10.99V12.99H156.174V10.99H154.174ZM154.174 9.06998V7.06998H152.174V9.06998H154.174ZM155.134 9.06998V11.07H157.134V9.06998H155.134ZM155.134 8.10998V6.10998H153.134V8.10998H155.134ZM156.094 8.10998H158.094V6.10998H156.094V8.10998ZM156.094 9.06998H154.094V11.07H156.094V9.06998ZM157.054 9.06998H159.054V7.06998H157.054V9.06998ZM157.054 10.99H155.054V12.99H157.054V10.99ZM158.014 10.99H160.014V8.98998H158.014V10.99ZM158.014 12.91H156.014V14.91H158.014V12.91ZM158.974 12.91H160.974V10.91H158.974V12.91ZM158.974 14.83H156.974V16.83H158.974V14.83ZM159.934 14.83H161.934V12.83H159.934V14.83ZM159.934 16.75H157.934V18.75H159.934V16.75ZM160.894 16.75H162.894V14.75H160.894V16.75ZM160.894 18.67H158.894V20.67H160.894V18.67ZM161.854 18.67H163.854V16.67H161.854V18.67ZM152.254 23.55H158.974V19.55H152.254V23.55ZM160.974 21.55V20.59H156.974V21.55H160.974ZM160.974 20.59V19.63H156.974V20.59H160.974ZM158.974 17.63H158.014V21.63H158.974V17.63ZM160.014 19.63V17.71H156.014V19.63H160.014ZM158.014 15.71H157.054V19.71H158.014V15.71ZM159.054 17.71V15.79H155.054V17.71H159.054ZM157.054 13.79H156.094V17.79H157.054V13.79ZM158.094 15.79V13.87H154.094V15.79H158.094ZM156.094 11.87H155.134V15.87H156.094V11.87ZM153.134 13.87V15.79H157.134V13.87H153.134ZM155.134 13.79H154.174V17.79H155.134V13.79ZM152.174 15.79V17.71H156.174V15.79H152.174ZM154.174 15.71H153.214V19.71H154.174V15.71ZM151.214 17.71V19.63H155.214V17.71H151.214ZM153.214 17.63H152.254V21.63H153.214V17.63ZM150.254 19.63V20.59H154.254V19.63H150.254ZM150.254 20.59V21.55H154.254V20.59H150.254ZM159.854 21.55V29.23H163.854V21.55H159.854ZM161.854 27.23H158.974V31.23H161.854V27.23ZM160.974 29.23V24.43H156.974V29.23H160.974ZM158.974 22.43H152.254V26.43H158.974V22.43ZM150.254 24.43V29.23H154.254V24.43H150.254ZM152.254 27.23H149.374V31.23H152.254V27.23ZM151.374 29.23V21.55H147.374V29.23H151.374ZM151.374 21.55V20.59H147.374V21.55H151.374ZM151.374 20.59V18.67H147.374V20.59H151.374ZM149.374 20.67H150.334V16.67H149.374V20.67ZM152.334 18.67V16.75H148.334V18.67H152.334ZM150.334 18.75H151.294V14.75H150.334V18.75ZM153.294 16.75V14.83H149.294V16.75H153.294ZM151.294 16.83H152.254V12.83H151.294V16.83ZM154.254 14.83V12.91H150.254V14.83H154.254ZM152.254 14.91H153.214V10.91H152.254V14.91ZM155.214 12.91V10.99H151.214V12.91H155.214ZM153.214 12.99H154.174V8.98998H153.214V12.99ZM156.174 10.99V9.06998H152.174V10.99H156.174ZM154.174 11.07H155.134V7.06998H154.174V11.07ZM157.134 9.06998V8.10998H153.134V9.06998H157.134ZM155.134 10.11H156.094V6.10998H155.134V10.11ZM154.094 8.10998V9.06998H158.094V8.10998H154.094ZM156.094 11.07H157.054V7.06998H156.094V11.07ZM155.054 9.06998V10.99H159.054V9.06998H155.054ZM157.054 12.99H158.014V8.98998H157.054V12.99ZM156.014 10.99V12.91H160.014V10.99H156.014ZM158.014 14.91H158.974V10.91H158.014V14.91ZM156.974 12.91V14.83H160.974V12.91H156.974ZM158.974 16.83H159.934V12.83H158.974V16.83ZM157.934 14.83V16.75H161.934V14.83H157.934ZM159.934 18.75H160.894V14.75H159.934V18.75ZM158.894 16.75V18.67H162.894V16.75H158.894ZM160.894 20.67H161.854V16.67H160.894V20.67ZM159.854 18.67V20.59H163.854V18.67H159.854ZM159.854 20.59V21.55H163.854V20.59H159.854ZM177.22 8.10998H179.22V6.10998H177.22V8.10998ZM177.22 10.99V12.99H179.22V10.99H177.22ZM172.42 10.99V8.98998H170.42V10.99H172.42ZM172.42 29.23V31.23H174.42V29.23H172.42ZM169.54 29.23H167.54V31.23H169.54V29.23ZM169.54 10.99H171.54V8.98998H169.54V10.99ZM164.74 10.99H162.74V12.99H164.74V10.99ZM164.74 8.10998V6.10998H162.74V8.10998H164.74ZM175.22 8.10998V10.99H179.22V8.10998H175.22ZM177.22 8.98998H172.42V12.99H177.22V8.98998ZM170.42 10.99V29.23H174.42V10.99H170.42ZM172.42 27.23H169.54V31.23H172.42V27.23ZM171.54 29.23V10.99H167.54V29.23H171.54ZM169.54 8.98998H164.74V12.99H169.54V8.98998ZM166.74 10.99V8.10998H162.74V10.99H166.74ZM164.74 10.11H177.22V6.10998H164.74V10.11ZM192.586 26.35H194.586V24.35H192.586V26.35ZM192.586 29.23V31.23H194.586V29.23H192.586ZM180.106 29.23H178.106V31.23H180.106V29.23ZM180.106 26.35V24.35H178.106V26.35H180.106ZM184.906 26.35V28.35H186.906V26.35H184.906ZM184.906 10.99H186.906V8.98998H184.906V10.99ZM182.986 10.99H180.986V12.99H182.986V10.99ZM182.986 8.10998V6.10998H180.986V8.10998H182.986ZM189.706 8.10998H191.706V6.10998H189.706V8.10998ZM189.706 10.99V12.99H191.706V10.99H189.706ZM187.786 10.99V8.98998H185.786V10.99H187.786ZM187.786 26.35H185.786V28.35H187.786V26.35ZM190.586 26.35V29.23H194.586V26.35H190.586ZM192.586 27.23H180.106V31.23H192.586V27.23ZM182.106 29.23V26.35H178.106V29.23H182.106ZM180.106 28.35H184.906V24.35H180.106V28.35ZM186.906 26.35V10.99H182.906V26.35H186.906ZM184.906 8.98998H182.986V12.99H184.906V8.98998ZM184.986 10.99V8.10998H180.986V10.99H184.986ZM182.986 10.11H189.706V6.10998H182.986V10.11ZM187.706 8.10998V10.99H191.706V8.10998H187.706ZM189.706 8.98998H187.786V12.99H189.706V8.98998ZM185.786 10.99V26.35H189.786V10.99H185.786ZM187.786 28.35H192.586V24.35H187.786V28.35ZM204.112 24.43V22.43H202.112V24.43H204.112ZM205.072 24.43V26.43H207.072V24.43H205.072ZM205.072 12.91H207.072V10.91H205.072V12.91ZM204.112 12.91H202.112V14.91H204.112V12.91ZM204.112 11.95H206.112V9.94998H204.112V11.95ZM203.152 11.95H201.152V13.95H203.152V11.95ZM203.152 10.99H205.152V8.98998H203.152V10.99ZM200.272 10.99V8.98998H198.272V10.99H200.272ZM200.272 11.95V13.95H202.272V11.95H200.272ZM199.312 11.95V9.94998H197.312V11.95H199.312ZM199.312 12.91V14.91H201.312V12.91H199.312ZM198.352 12.91V10.91H196.352V12.91H198.352ZM198.352 24.43H196.352V26.43H198.352V24.43ZM199.312 24.43H201.312V22.43H199.312V24.43ZM199.312 25.39H197.312V27.39H199.312V25.39ZM200.272 25.39H202.272V23.39H200.272V25.39ZM200.272 26.35H198.272V28.35H200.272V26.35ZM203.152 26.35V28.35H205.152V26.35H203.152ZM203.152 25.39V23.39H201.152V25.39H203.152ZM204.112 25.39V27.39H206.112V25.39H204.112ZM207.952 11.95H209.952V9.94998H207.952V11.95ZM207.952 25.39V27.39H209.952V25.39H207.952ZM206.992 25.39V23.39H204.992V25.39H206.992ZM206.992 26.35V28.35H208.992V26.35H206.992ZM206.032 26.35V24.35H204.032V26.35H206.032ZM206.032 27.31V29.31H208.032V27.31H206.032ZM205.072 27.31V25.31H203.072V27.31H205.072ZM205.072 28.27V30.27H207.072V28.27H205.072ZM204.112 28.27V26.27H202.112V28.27H204.112ZM204.112 29.23V31.23H206.112V29.23H204.112ZM199.312 29.23H197.312V31.23H199.312V29.23ZM199.312 28.27H201.312V26.27H199.312V28.27ZM198.352 28.27H196.352V30.27H198.352V28.27ZM198.352 27.31H200.352V25.31H198.352V27.31ZM197.392 27.31H195.392V29.31H197.392V27.31ZM197.392 26.35H199.392V24.35H197.392V26.35ZM196.432 26.35H194.432V28.35H196.432V26.35ZM196.432 25.39H198.432V23.39H196.432V25.39ZM195.472 25.39H193.472V27.39H195.472V25.39ZM195.472 11.95V9.94998H193.472V11.95H195.472ZM196.432 11.95V13.95H198.432V11.95H196.432ZM196.432 10.99V8.98998H194.432V10.99H196.432ZM197.392 10.99V12.99H199.392V10.99H197.392ZM197.392 10.03V8.02998H195.392V10.03H197.392ZM198.352 10.03V12.03H200.352V10.03H198.352ZM198.352 9.06998V7.06998H196.352V9.06998H198.352ZM199.312 9.06998V11.07H201.312V9.06998H199.312ZM199.312 8.10998V6.10998H197.312V8.10998H199.312ZM204.112 8.10998H206.112V6.10998H204.112V8.10998ZM204.112 9.06998H202.112V11.07H204.112V9.06998ZM205.072 9.06998H207.072V7.06998H205.072V9.06998ZM205.072 10.03H203.072V12.03H205.072V10.03ZM206.032 10.03H208.032V8.02998H206.032V10.03ZM206.032 10.99H204.032V12.99H206.032V10.99ZM206.992 10.99H208.992V8.98998H206.992V10.99ZM206.992 11.95H204.992V13.95H206.992V11.95ZM204.112 26.43H205.072V22.43H204.112V26.43ZM207.072 24.43V12.91H203.072V24.43H207.072ZM205.072 10.91H204.112V14.91H205.072V10.91ZM206.112 12.91V11.95H202.112V12.91H206.112ZM204.112 9.94998H203.152V13.95H204.112V9.94998ZM205.152 11.95V10.99H201.152V11.95H205.152ZM203.152 8.98998H200.272V12.99H203.152V8.98998ZM198.272 10.99V11.95H202.272V10.99H198.272ZM200.272 9.94998H199.312V13.95H200.272V9.94998ZM197.312 11.95V12.91H201.312V11.95H197.312ZM199.312 10.91H198.352V14.91H199.312V10.91ZM196.352 12.91V24.43H200.352V12.91H196.352ZM198.352 26.43H199.312V22.43H198.352V26.43ZM197.312 24.43V25.39H201.312V24.43H197.312ZM199.312 27.39H200.272V23.39H199.312V27.39ZM198.272 25.39V26.35H202.272V25.39H198.272ZM200.272 28.35H203.152V24.35H200.272V28.35ZM205.152 26.35V25.39H201.152V26.35H205.152ZM203.152 27.39H204.112V23.39H203.152V27.39ZM206.112 25.39V24.43H202.112V25.39H206.112ZM205.952 11.95V25.39H209.952V11.95H205.952ZM207.952 23.39H206.992V27.39H207.952V23.39ZM204.992 25.39V26.35H208.992V25.39H204.992ZM206.992 24.35H206.032V28.35H206.992V24.35ZM204.032 26.35V27.31H208.032V26.35H204.032ZM206.032 25.31H205.072V29.31H206.032V25.31ZM203.072 27.31V28.27H207.072V27.31H203.072ZM205.072 26.27H204.112V30.27H205.072V26.27ZM202.112 28.27V29.23H206.112V28.27H202.112ZM204.112 27.23H199.312V31.23H204.112V27.23ZM201.312 29.23V28.27H197.312V29.23H201.312ZM199.312 26.27H198.352V30.27H199.312V26.27ZM200.352 28.27V27.31H196.352V28.27H200.352ZM198.352 25.31H197.392V29.31H198.352V25.31ZM199.392 27.31V26.35H195.392V27.31H199.392ZM197.392 24.35H196.432V28.35H197.392V24.35ZM198.432 26.35V25.39H194.432V26.35H198.432ZM196.432 23.39H195.472V27.39H196.432V23.39ZM197.472 25.39V11.95H193.472V25.39H197.472ZM195.472 13.95H196.432V9.94998H195.472V13.95ZM198.432 11.95V10.99H194.432V11.95H198.432ZM196.432 12.99H197.392V8.98998H196.432V12.99ZM199.392 10.99V10.03H195.392V10.99H199.392ZM197.392 12.03H198.352V8.02998H197.392V12.03ZM200.352 10.03V9.06998H196.352V10.03H200.352ZM198.352 11.07H199.312V7.06998H198.352V11.07ZM201.312 9.06998V8.10998H197.312V9.06998H201.312ZM199.312 10.11H204.112V6.10998H199.312V10.11ZM202.112 8.10998V9.06998H206.112V8.10998H202.112ZM204.112 11.07H205.072V7.06998H204.112V11.07ZM203.072 9.06998V10.03H207.072V9.06998H203.072ZM205.072 12.03H206.032V8.02998H205.072V12.03ZM204.032 10.03V10.99H208.032V10.03H204.032ZM206.032 12.99H206.992V8.98998H206.032V12.99ZM204.992 10.99V11.95H208.992V10.99H204.992ZM206.992 13.95H207.952V9.94998H206.992V13.95ZM223.319 8.10998H225.319V6.10998H223.319V8.10998ZM223.319 29.23V31.23H225.319V29.23H223.319ZM220.439 29.23H218.439V31.23H220.439V29.23ZM220.439 28.27H222.439V26.27H220.439V28.27ZM219.479 28.27H217.479V30.27H219.479V28.27ZM219.479 26.35H221.479V24.35H219.479V26.35ZM218.519 26.35H216.519V28.35H218.519V26.35ZM218.519 24.43H220.519V22.43H218.519V24.43ZM217.559 24.43H215.559V26.43H217.559V24.43ZM217.559 22.51H219.559V20.51H217.559V22.51ZM216.599 22.51H214.599V24.51H216.599V22.51ZM216.599 20.59H218.599V18.59H216.599V20.59ZM215.639 20.59H213.639V22.59H215.639V20.59ZM215.639 18.67H217.639V16.67H215.639V18.67ZM214.679 18.67H212.679V20.67H214.679V18.67ZM214.679 16.75H216.679V14.75H214.679V16.75ZM213.719 16.75V14.75H211.719V16.75H213.719ZM213.719 29.23V31.23H215.719V29.23H213.719ZM210.839 29.23H208.839V31.23H210.839V29.23ZM210.839 8.10998V6.10998H208.839V8.10998H210.839ZM212.759 8.10998H214.759V6.10998H212.759V8.10998ZM212.759 10.03H210.759V12.03H212.759V10.03ZM213.719 10.03H215.719V8.02998H213.719V10.03ZM213.719 11.95H211.719V13.95H213.719V11.95ZM214.679 11.95H216.679V9.94998H214.679V11.95ZM214.679 13.87H212.679V15.87H214.679V13.87ZM215.639 13.87H217.639V11.87H215.639V13.87ZM215.639 15.79H213.639V17.79H215.639V15.79ZM216.599 15.79H218.599V13.79H216.599V15.79ZM216.599 17.71H214.599V19.71H216.599V17.71ZM217.559 17.71H219.559V15.71H217.559V17.71ZM217.559 19.63H215.559V21.63H217.559V19.63ZM218.519 19.63H220.519V17.63H218.519V19.63ZM218.519 21.55H216.519V23.55H218.519V21.55ZM219.479 21.55H221.479V19.55H219.479V21.55ZM219.479 23.47H217.479V25.47H219.479V23.47ZM220.439 23.47V25.47H222.439V23.47H220.439ZM220.439 8.10998V6.10998H218.439V8.10998H220.439ZM221.319 8.10998V29.23H225.319V8.10998H221.319ZM223.319 27.23H220.439V31.23H223.319V27.23ZM222.439 29.23V28.27H218.439V29.23H222.439ZM220.439 26.27H219.479V30.27H220.439V26.27ZM221.479 28.27V26.35H217.479V28.27H221.479ZM219.479 24.35H218.519V28.35H219.479V24.35ZM220.519 26.35V24.43H216.519V26.35H220.519ZM218.519 22.43H217.559V26.43H218.519V22.43ZM219.559 24.43V22.51H215.559V24.43H219.559ZM217.559 20.51H216.599V24.51H217.559V20.51ZM218.599 22.51V20.59H214.599V22.51H218.599ZM216.599 18.59H215.639V22.59H216.599V18.59ZM217.639 20.59V18.67H213.639V20.59H217.639ZM215.639 16.67H214.679V20.67H215.639V16.67ZM216.679 18.67V16.75H212.679V18.67H216.679ZM214.679 14.75H213.719V18.75H214.679V14.75ZM211.719 16.75V29.23H215.719V16.75H211.719ZM213.719 27.23H210.839V31.23H213.719V27.23ZM212.839 29.23V8.10998H208.839V29.23H212.839ZM210.839 10.11H212.759V6.10998H210.839V10.11ZM210.759 8.10998V10.03H214.759V8.10998H210.759ZM212.759 12.03H213.719V8.02998H212.759V12.03ZM211.719 10.03V11.95H215.719V10.03H211.719ZM213.719 13.95H214.679V9.94998H213.719V13.95ZM212.679 11.95V13.87H216.679V11.95H212.679ZM214.679 15.87H215.639V11.87H214.679V15.87ZM213.639 13.87V15.79H217.639V13.87H213.639ZM215.639 17.79H216.599V13.79H215.639V17.79ZM214.599 15.79V17.71H218.599V15.79H214.599ZM216.599 19.71H217.559V15.71H216.599V19.71ZM215.559 17.71V19.63H219.559V17.71H215.559ZM217.559 21.63H218.519V17.63H217.559V21.63ZM216.519 19.63V21.55H220.519V19.63H216.519ZM218.519 23.55H219.479V19.55H218.519V23.55ZM217.479 21.55V23.47H221.479V21.55H217.479ZM219.479 25.47H220.439V21.47H219.479V25.47ZM222.439 23.47V8.10998H218.439V23.47H222.439ZM220.439 10.11H223.319V6.10998H220.439V10.11Z" fill="white" mask="url(#path-1-outside-1_448_49970)"/>
<mask id="path-3-outside-2_448_49970" maskUnits="userSpaceOnUse" x="94.8984" y="46.7964" width="79" height="26" fill="black">
<rect fill="white" x="94.8984" y="46.7964" width="79" height="26"/>
<path d="M105.802 66.9564H106.762V63.1164H105.802V62.1564H104.842V61.1964H100.042V67.9164H105.802V66.9564ZM105.802 56.3964H106.762V53.5164H105.802V52.5564H100.042V58.3164H104.842V57.3564H105.802V56.3964ZM109.642 62.1564V67.9164H108.682V68.8764H107.722V69.8364H106.762V70.7964H97.1615V49.6764H106.762V50.6364H107.722V51.5964H108.682V52.5564H109.642V57.3564H108.682V58.3164H107.722V59.2764H106.762V60.2364H107.722V61.1964H108.682V62.1564H109.642ZM125.008 67.9164V70.7964H112.528V49.6764H125.008V52.5564H115.408V58.3164H123.088V61.1964H115.408V67.9164H125.008ZM140.374 59.2764V68.8764H139.414V69.8364H138.454V70.7964H131.734V69.8364H130.774V68.8764H129.814V67.9164H128.854V66.9564H127.894V53.5164H128.854V52.5564H129.814V51.5964H130.774V50.6364H131.734V49.6764H138.454V50.6364H139.414V51.5964H140.374V53.5164H137.494V52.5564H132.694V53.5164H131.734V54.4764H130.774V65.9964H131.734V66.9564H132.694V67.9164H137.494V62.1564H136.534V63.1164H133.654V59.2764H140.374ZM155.74 67.9164V70.7964H143.26V67.9164H148.06V52.5564H146.14V49.6764H152.86V52.5564H150.94V67.9164H155.74ZM171.107 49.6764V70.7964H168.227V69.8364H167.267V67.9164H166.307V65.9964H165.347V64.0764H164.387V62.1564H163.427V60.2364H162.467V58.3164H161.507V70.7964H158.627V49.6764H160.547V51.5964H161.507V53.5164H162.467V55.4364H163.427V57.3564H164.387V59.2764H165.347V61.1964H166.307V63.1164H167.267V65.0364H168.227V49.6764H171.107Z"/>
</mask>
<path d="M105.802 66.9564V64.9564H103.802V66.9564H105.802ZM106.762 66.9564V68.9564H108.762V66.9564H106.762ZM106.762 63.1164H108.762V61.1164H106.762V63.1164ZM105.802 63.1164H103.802V65.1164H105.802V63.1164ZM105.802 62.1564H107.802V60.1564H105.802V62.1564ZM104.842 62.1564H102.842V64.1564H104.842V62.1564ZM104.842 61.1964H106.842V59.1964H104.842V61.1964ZM100.042 61.1964V59.1964H98.0415V61.1964H100.042ZM100.042 67.9164H98.0415V69.9164H100.042V67.9164ZM105.802 67.9164V69.9164H107.802V67.9164H105.802ZM105.802 56.3964V54.3964H103.802V56.3964H105.802ZM106.762 56.3964V58.3964H108.762V56.3964H106.762ZM106.762 53.5164H108.762V51.5164H106.762V53.5164ZM105.802 53.5164H103.802V55.5164H105.802V53.5164ZM105.802 52.5564H107.802V50.5564H105.802V52.5564ZM100.042 52.5564V50.5564H98.0415V52.5564H100.042ZM100.042 58.3164H98.0415V60.3164H100.042V58.3164ZM104.842 58.3164V60.3164H106.842V58.3164H104.842ZM104.842 57.3564V55.3564H102.842V57.3564H104.842ZM105.802 57.3564V59.3564H107.802V57.3564H105.802ZM109.642 62.1564H111.642V60.1564H109.642V62.1564ZM109.642 67.9164V69.9164H111.642V67.9164H109.642ZM108.682 67.9164V65.9164H106.682V67.9164H108.682ZM108.682 68.8764V70.8764H110.682V68.8764H108.682ZM107.722 68.8764V66.8764H105.722V68.8764H107.722ZM107.722 69.8364V71.8364H109.722V69.8364H107.722ZM106.762 69.8364V67.8364H104.762V69.8364H106.762ZM106.762 70.7964V72.7964H108.762V70.7964H106.762ZM97.1615 70.7964H95.1615V72.7964H97.1615V70.7964ZM97.1615 49.6764V47.6764H95.1615V49.6764H97.1615ZM106.762 49.6764H108.762V47.6764H106.762V49.6764ZM106.762 50.6364H104.762V52.6364H106.762V50.6364ZM107.722 50.6364H109.722V48.6364H107.722V50.6364ZM107.722 51.5964H105.722V53.5964H107.722V51.5964ZM108.682 51.5964H110.682V49.5964H108.682V51.5964ZM108.682 52.5564H106.682V54.5564H108.682V52.5564ZM109.642 52.5564H111.642V50.5564H109.642V52.5564ZM109.642 57.3564V59.3564H111.642V57.3564H109.642ZM108.682 57.3564V55.3564H106.682V57.3564H108.682ZM108.682 58.3164V60.3164H110.682V58.3164H108.682ZM107.722 58.3164V56.3164H105.722V58.3164H107.722ZM107.722 59.2764V61.2764H109.722V59.2764H107.722ZM106.762 59.2764V57.2764H104.762V59.2764H106.762ZM106.762 60.2364H104.762V62.2364H106.762V60.2364ZM107.722 60.2364H109.722V58.2364H107.722V60.2364ZM107.722 61.1964H105.722V63.1964H107.722V61.1964ZM108.682 61.1964H110.682V59.1964H108.682V61.1964ZM108.682 62.1564H106.682V64.1564H108.682V62.1564ZM105.802 68.9564H106.762V64.9564H105.802V68.9564ZM108.762 66.9564V63.1164H104.762V66.9564H108.762ZM106.762 61.1164H105.802V65.1164H106.762V61.1164ZM107.802 63.1164V62.1564H103.802V63.1164H107.802ZM105.802 60.1564H104.842V64.1564H105.802V60.1564ZM106.842 62.1564V61.1964H102.842V62.1564H106.842ZM104.842 59.1964H100.042V63.1964H104.842V59.1964ZM98.0415 61.1964V67.9164H102.042V61.1964H98.0415ZM100.042 69.9164H105.802V65.9164H100.042V69.9164ZM107.802 67.9164V66.9564H103.802V67.9164H107.802ZM105.802 58.3964H106.762V54.3964H105.802V58.3964ZM108.762 56.3964V53.5164H104.762V56.3964H108.762ZM106.762 51.5164H105.802V55.5164H106.762V51.5164ZM107.802 53.5164V52.5564H103.802V53.5164H107.802ZM105.802 50.5564H100.042V54.5564H105.802V50.5564ZM98.0415 52.5564V58.3164H102.042V52.5564H98.0415ZM100.042 60.3164H104.842V56.3164H100.042V60.3164ZM106.842 58.3164V57.3564H102.842V58.3164H106.842ZM104.842 59.3564H105.802V55.3564H104.842V59.3564ZM107.802 57.3564V56.3964H103.802V57.3564H107.802ZM107.642 62.1564V67.9164H111.642V62.1564H107.642ZM109.642 65.9164H108.682V69.9164H109.642V65.9164ZM106.682 67.9164V68.8764H110.682V67.9164H106.682ZM108.682 66.8764H107.722V70.8764H108.682V66.8764ZM105.722 68.8764V69.8364H109.722V68.8764H105.722ZM107.722 67.8364H106.762V71.8364H107.722V67.8364ZM104.762 69.8364V70.7964H108.762V69.8364H104.762ZM106.762 68.7964H97.1615V72.7964H106.762V68.7964ZM99.1615 70.7964V49.6764H95.1615V70.7964H99.1615ZM97.1615 51.6764H106.762V47.6764H97.1615V51.6764ZM104.762 49.6764V50.6364H108.762V49.6764H104.762ZM106.762 52.6364H107.722V48.6364H106.762V52.6364ZM105.722 50.6364V51.5964H109.722V50.6364H105.722ZM107.722 53.5964H108.682V49.5964H107.722V53.5964ZM106.682 51.5964V52.5564H110.682V51.5964H106.682ZM108.682 54.5564H109.642V50.5564H108.682V54.5564ZM107.642 52.5564V57.3564H111.642V52.5564H107.642ZM109.642 55.3564H108.682V59.3564H109.642V55.3564ZM106.682 57.3564V58.3164H110.682V57.3564H106.682ZM108.682 56.3164H107.722V60.3164H108.682V56.3164ZM105.722 58.3164V59.2764H109.722V58.3164H105.722ZM107.722 57.2764H106.762V61.2764H107.722V57.2764ZM104.762 59.2764V60.2364H108.762V59.2764H104.762ZM106.762 62.2364H107.722V58.2364H106.762V62.2364ZM105.722 60.2364V61.1964H109.722V60.2364H105.722ZM107.722 63.1964H108.682V59.1964H107.722V63.1964ZM106.682 61.1964V62.1564H110.682V61.1964H106.682ZM108.682 64.1564H109.642V60.1564H108.682V64.1564ZM125.008 67.9164H127.008V65.9164H125.008V67.9164ZM125.008 70.7964V72.7964H127.008V70.7964H125.008ZM112.528 70.7964H110.528V72.7964H112.528V70.7964ZM112.528 49.6764V47.6764H110.528V49.6764H112.528ZM125.008 49.6764H127.008V47.6764H125.008V49.6764ZM125.008 52.5564V54.5564H127.008V52.5564H125.008ZM115.408 52.5564V50.5564H113.408V52.5564H115.408ZM115.408 58.3164H113.408V60.3164H115.408V58.3164ZM123.088 58.3164H125.088V56.3164H123.088V58.3164ZM123.088 61.1964V63.1964H125.088V61.1964H123.088ZM115.408 61.1964V59.1964H113.408V61.1964H115.408ZM115.408 67.9164H113.408V69.9164H115.408V67.9164ZM123.008 67.9164V70.7964H127.008V67.9164H123.008ZM125.008 68.7964H112.528V72.7964H125.008V68.7964ZM114.528 70.7964V49.6764H110.528V70.7964H114.528ZM112.528 51.6764H125.008V47.6764H112.528V51.6764ZM123.008 49.6764V52.5564H127.008V49.6764H123.008ZM125.008 50.5564H115.408V54.5564H125.008V50.5564ZM113.408 52.5564V58.3164H117.408V52.5564H113.408ZM115.408 60.3164H123.088V56.3164H115.408V60.3164ZM121.088 58.3164V61.1964H125.088V58.3164H121.088ZM123.088 59.1964H115.408V63.1964H123.088V59.1964ZM113.408 61.1964V67.9164H117.408V61.1964H113.408ZM115.408 69.9164H125.008V65.9164H115.408V69.9164ZM140.374 59.2764H142.374V57.2764H140.374V59.2764ZM140.374 68.8764V70.8764H142.374V68.8764H140.374ZM139.414 68.8764V66.8764H137.414V68.8764H139.414ZM139.414 69.8364V71.8364H141.414V69.8364H139.414ZM138.454 69.8364V67.8364H136.454V69.8364H138.454ZM138.454 70.7964V72.7964H140.454V70.7964H138.454ZM131.734 70.7964H129.734V72.7964H131.734V70.7964ZM131.734 69.8364H133.734V67.8364H131.734V69.8364ZM130.774 69.8364H128.774V71.8364H130.774V69.8364ZM130.774 68.8764H132.774V66.8764H130.774V68.8764ZM129.814 68.8764H127.814V70.8764H129.814V68.8764ZM129.814 67.9164H131.814V65.9164H129.814V67.9164ZM128.854 67.9164H126.854V69.9164H128.854V67.9164ZM128.854 66.9564H130.854V64.9564H128.854V66.9564ZM127.894 66.9564H125.894V68.9564H127.894V66.9564ZM127.894 53.5164V51.5164H125.894V53.5164H127.894ZM128.854 53.5164V55.5164H130.854V53.5164H128.854ZM128.854 52.5564V50.5564H126.854V52.5564H128.854ZM129.814 52.5564V54.5564H131.814V52.5564H129.814ZM129.814 51.5964V49.5964H127.814V51.5964H129.814ZM130.774 51.5964V53.5964H132.774V51.5964H130.774ZM130.774 50.6364V48.6364H128.774V50.6364H130.774ZM131.734 50.6364V52.6364H133.734V50.6364H131.734ZM131.734 49.6764V47.6764H129.734V49.6764H131.734ZM138.454 49.6764H140.454V47.6764H138.454V49.6764ZM138.454 50.6364H136.454V52.6364H138.454V50.6364ZM139.414 50.6364H141.414V48.6364H139.414V50.6364ZM139.414 51.5964H137.414V53.5964H139.414V51.5964ZM140.374 51.5964H142.374V49.5964H140.374V51.5964ZM140.374 53.5164V55.5164H142.374V53.5164H140.374ZM137.494 53.5164H135.494V55.5164H137.494V53.5164ZM137.494 52.5564H139.494V50.5564H137.494V52.5564ZM132.694 52.5564V50.5564H130.694V52.5564H132.694ZM132.694 53.5164V55.5164H134.694V53.5164H132.694ZM131.734 53.5164V51.5164H129.734V53.5164H131.734ZM131.734 54.4764V56.4764H133.734V54.4764H131.734ZM130.774 54.4764V52.4764H128.774V54.4764H130.774ZM130.774 65.9964H128.774V67.9964H130.774V65.9964ZM131.734 65.9964H133.734V63.9964H131.734V65.9964ZM131.734 66.9564H129.734V68.9564H131.734V66.9564ZM132.694 66.9564H134.694V64.9564H132.694V66.9564ZM132.694 67.9164H130.694V69.9164H132.694V67.9164ZM137.494 67.9164V69.9164H139.494V67.9164H137.494ZM137.494 62.1564H139.494V60.1564H137.494V62.1564ZM136.534 62.1564V60.1564H134.534V62.1564H136.534ZM136.534 63.1164V65.1164H138.534V63.1164H136.534ZM133.654 63.1164H131.654V65.1164H133.654V63.1164ZM133.654 59.2764V57.2764H131.654V59.2764H133.654ZM138.374 59.2764V68.8764H142.374V59.2764H138.374ZM140.374 66.8764H139.414V70.8764H140.374V66.8764ZM137.414 68.8764V69.8364H141.414V68.8764H137.414ZM139.414 67.8364H138.454V71.8364H139.414V67.8364ZM136.454 69.8364V70.7964H140.454V69.8364H136.454ZM138.454 68.7964H131.734V72.7964H138.454V68.7964ZM133.734 70.7964V69.8364H129.734V70.7964H133.734ZM131.734 67.8364H130.774V71.8364H131.734V67.8364ZM132.774 69.8364V68.8764H128.774V69.8364H132.774ZM130.774 66.8764H129.814V70.8764H130.774V66.8764ZM131.814 68.8764V67.9164H127.814V68.8764H131.814ZM129.814 65.9164H128.854V69.9164H129.814V65.9164ZM130.854 67.9164V66.9564H126.854V67.9164H130.854ZM128.854 64.9564H127.894V68.9564H128.854V64.9564ZM129.894 66.9564V53.5164H125.894V66.9564H129.894ZM127.894 55.5164H128.854V51.5164H127.894V55.5164ZM130.854 53.5164V52.5564H126.854V53.5164H130.854ZM128.854 54.5564H129.814V50.5564H128.854V54.5564ZM131.814 52.5564V51.5964H127.814V52.5564H131.814ZM129.814 53.5964H130.774V49.5964H129.814V53.5964ZM132.774 51.5964V50.6364H128.774V51.5964H132.774ZM130.774 52.6364H131.734V48.6364H130.774V52.6364ZM133.734 50.6364V49.6764H129.734V50.6364H133.734ZM131.734 51.6764H138.454V47.6764H131.734V51.6764ZM136.454 49.6764V50.6364H140.454V49.6764H136.454ZM138.454 52.6364H139.414V48.6364H138.454V52.6364ZM137.414 50.6364V51.5964H141.414V50.6364H137.414ZM139.414 53.5964H140.374V49.5964H139.414V53.5964ZM138.374 51.5964V53.5164H142.374V51.5964H138.374ZM140.374 51.5164H137.494V55.5164H140.374V51.5164ZM139.494 53.5164V52.5564H135.494V53.5164H139.494ZM137.494 50.5564H132.694V54.5564H137.494V50.5564ZM130.694 52.5564V53.5164H134.694V52.5564H130.694ZM132.694 51.5164H131.734V55.5164H132.694V51.5164ZM129.734 53.5164V54.4764H133.734V53.5164H129.734ZM131.734 52.4764H130.774V56.4764H131.734V52.4764ZM128.774 54.4764V65.9964H132.774V54.4764H128.774ZM130.774 67.9964H131.734V63.9964H130.774V67.9964ZM129.734 65.9964V66.9564H133.734V65.9964H129.734ZM131.734 68.9564H132.694V64.9564H131.734V68.9564ZM130.694 66.9564V67.9164H134.694V66.9564H130.694ZM132.694 69.9164H137.494V65.9164H132.694V69.9164ZM139.494 67.9164V62.1564H135.494V67.9164H139.494ZM137.494 60.1564H136.534V64.1564H137.494V60.1564ZM134.534 62.1564V63.1164H138.534V62.1564H134.534ZM136.534 61.1164H133.654V65.1164H136.534V61.1164ZM135.654 63.1164V59.2764H131.654V63.1164H135.654ZM133.654 61.2764H140.374V57.2764H133.654V61.2764ZM155.74 67.9164H157.74V65.9164H155.74V67.9164ZM155.74 70.7964V72.7964H157.74V70.7964H155.74ZM143.26 70.7964H141.26V72.7964H143.26V70.7964ZM143.26 67.9164V65.9164H141.26V67.9164H143.26ZM148.06 67.9164V69.9164H150.06V67.9164H148.06ZM148.06 52.5564H150.06V50.5564H148.06V52.5564ZM146.14 52.5564H144.14V54.5564H146.14V52.5564ZM146.14 49.6764V47.6764H144.14V49.6764H146.14ZM152.86 49.6764H154.86V47.6764H152.86V49.6764ZM152.86 52.5564V54.5564H154.86V52.5564H152.86ZM150.94 52.5564V50.5564H148.94V52.5564H150.94ZM150.94 67.9164H148.94V69.9164H150.94V67.9164ZM153.74 67.9164V70.7964H157.74V67.9164H153.74ZM155.74 68.7964H143.26V72.7964H155.74V68.7964ZM145.26 70.7964V67.9164H141.26V70.7964H145.26ZM143.26 69.9164H148.06V65.9164H143.26V69.9164ZM150.06 67.9164V52.5564H146.06V67.9164H150.06ZM148.06 50.5564H146.14V54.5564H148.06V50.5564ZM148.14 52.5564V49.6764H144.14V52.5564H148.14ZM146.14 51.6764H152.86V47.6764H146.14V51.6764ZM150.86 49.6764V52.5564H154.86V49.6764H150.86ZM152.86 50.5564H150.94V54.5564H152.86V50.5564ZM148.94 52.5564V67.9164H152.94V52.5564H148.94ZM150.94 69.9164H155.74V65.9164H150.94V69.9164ZM171.107 49.6764H173.107V47.6764H171.107V49.6764ZM171.107 70.7964V72.7964H173.107V70.7964H171.107ZM168.227 70.7964H166.227V72.7964H168.227V70.7964ZM168.227 69.8364H170.227V67.8364H168.227V69.8364ZM167.267 69.8364H165.267V71.8364H167.267V69.8364ZM167.267 67.9164H169.267V65.9164H167.267V67.9164ZM166.307 67.9164H164.307V69.9164H166.307V67.9164ZM166.307 65.9964H168.307V63.9964H166.307V65.9964ZM165.347 65.9964H163.347V67.9964H165.347V65.9964ZM165.347 64.0764H167.347V62.0764H165.347V64.0764ZM164.387 64.0764H162.387V66.0764H164.387V64.0764ZM164.387 62.1564H166.387V60.1564H164.387V62.1564ZM163.427 62.1564H161.427V64.1564H163.427V62.1564ZM163.427 60.2364H165.427V58.2364H163.427V60.2364ZM162.467 60.2364H160.467V62.2364H162.467V60.2364ZM162.467 58.3164H164.467V56.3164H162.467V58.3164ZM161.507 58.3164V56.3164H159.507V58.3164H161.507ZM161.507 70.7964V72.7964H163.507V70.7964H161.507ZM158.627 70.7964H156.627V72.7964H158.627V70.7964ZM158.627 49.6764V47.6764H156.627V49.6764H158.627ZM160.547 49.6764H162.547V47.6764H160.547V49.6764ZM160.547 51.5964H158.547V53.5964H160.547V51.5964ZM161.507 51.5964H163.507V49.5964H161.507V51.5964ZM161.507 53.5164H159.507V55.5164H161.507V53.5164ZM162.467 53.5164H164.467V51.5164H162.467V53.5164ZM162.467 55.4364H160.467V57.4364H162.467V55.4364ZM163.427 55.4364H165.427V53.4364H163.427V55.4364ZM163.427 57.3564H161.427V59.3564H163.427V57.3564ZM164.387 57.3564H166.387V55.3564H164.387V57.3564ZM164.387 59.2764H162.387V61.2764H164.387V59.2764ZM165.347 59.2764H167.347V57.2764H165.347V59.2764ZM165.347 61.1964H163.347V63.1964H165.347V61.1964ZM166.307 61.1964H168.307V59.1964H166.307V61.1964ZM166.307 63.1164H164.307V65.1164H166.307V63.1164ZM167.267 63.1164H169.267V61.1164H167.267V63.1164ZM167.267 65.0364H165.267V67.0364H167.267V65.0364ZM168.227 65.0364V67.0364H170.227V65.0364H168.227ZM168.227 49.6764V47.6764H166.227V49.6764H168.227ZM169.107 49.6764V70.7964H173.107V49.6764H169.107ZM171.107 68.7964H168.227V72.7964H171.107V68.7964ZM170.227 70.7964V69.8364H166.227V70.7964H170.227ZM168.227 67.8364H167.267V71.8364H168.227V67.8364ZM169.267 69.8364V67.9164H165.267V69.8364H169.267ZM167.267 65.9164H166.307V69.9164H167.267V65.9164ZM168.307 67.9164V65.9964H164.307V67.9164H168.307ZM166.307 63.9964H165.347V67.9964H166.307V63.9964ZM167.347 65.9964V64.0764H163.347V65.9964H167.347ZM165.347 62.0764H164.387V66.0764H165.347V62.0764ZM166.387 64.0764V62.1564H162.387V64.0764H166.387ZM164.387 60.1564H163.427V64.1564H164.387V60.1564ZM165.427 62.1564V60.2364H161.427V62.1564H165.427ZM163.427 58.2364H162.467V62.2364H163.427V58.2364ZM164.467 60.2364V58.3164H160.467V60.2364H164.467ZM162.467 56.3164H161.507V60.3164H162.467V56.3164ZM159.507 58.3164V70.7964H163.507V58.3164H159.507ZM161.507 68.7964H158.627V72.7964H161.507V68.7964ZM160.627 70.7964V49.6764H156.627V70.7964H160.627ZM158.627 51.6764H160.547V47.6764H158.627V51.6764ZM158.547 49.6764V51.5964H162.547V49.6764H158.547ZM160.547 53.5964H161.507V49.5964H160.547V53.5964ZM159.507 51.5964V53.5164H163.507V51.5964H159.507ZM161.507 55.5164H162.467V51.5164H161.507V55.5164ZM160.467 53.5164V55.4364H164.467V53.5164H160.467ZM162.467 57.4364H163.427V53.4364H162.467V57.4364ZM161.427 55.4364V57.3564H165.427V55.4364H161.427ZM163.427 59.3564H164.387V55.3564H163.427V59.3564ZM162.387 57.3564V59.2764H166.387V57.3564H162.387ZM164.387 61.2764H165.347V57.2764H164.387V61.2764ZM163.347 59.2764V61.1964H167.347V59.2764H163.347ZM165.347 63.1964H166.307V59.1964H165.347V63.1964ZM164.307 61.1964V63.1164H168.307V61.1964H164.307ZM166.307 65.1164H167.267V61.1164H166.307V65.1164ZM165.267 63.1164V65.0364H169.267V63.1164H165.267ZM167.267 67.0364H168.227V63.0364H167.267V67.0364ZM170.227 65.0364V49.6764H166.227V65.0364H170.227ZM168.227 51.6764H171.107V47.6764H168.227V51.6764Z" fill="white" mask="url(#path-3-outside-2_448_49970)"/>
</svg>
