<svg width="26" height="24" viewBox="0 0 26 24" fill="none" xmlns="http://www.w3.org/2000/svg">
<g style="mix-blend-mode:plus-lighter">
<path d="M12.8898 22.1538H11.0488V24.0002H12.8898V22.1538Z" fill="#4D496F"/>
<path d="M12.8898 20.3071H11.0488V22.1535H12.8898V20.3071Z" fill="#4E4672"/>
<path d="M12.8898 18.4609H11.0488V20.3073H12.8898V18.4609Z" fill="#6D88AF"/>
<path d="M14.7296 16.6147H12.8887V18.4611H14.7296V16.6147Z" fill="#514778"/>
<path d="M12.8898 16.6147H11.0488V18.4611H12.8898V16.6147Z" fill="#7288BA"/>
<path d="M11.046 16.6147H9.20508V18.4611H11.046V16.6147Z" fill="#535072"/>
<path d="M16.5714 14.7681H14.7305V16.6144H16.5714V14.7681Z" fill="#505582"/>
<path d="M14.7296 14.7681H12.8887V16.6144H14.7296V14.7681Z" fill="#6A8DB2"/>
<path d="M12.8898 14.7681H11.0488V16.6144H12.8898V14.7681Z" fill="#ACC8E6"/>
<path d="M11.046 14.7681H9.20508V16.6144H11.046V14.7681Z" fill="#708BB4"/>
<path d="M9.20421 14.7681H7.36328V16.6144H9.20421V14.7681Z" fill="#51496D"/>
<path d="M18.4112 12.9243H16.5703V14.7707H18.4112V12.9243Z" fill="#747CA4"/>
<path d="M16.5714 12.9243H14.7305V14.7707H16.5714V12.9243Z" fill="#7E96C1"/>
<path d="M14.7296 12.9243H12.8887V14.7707H14.7296V12.9243Z" fill="#B7C8E1"/>
<path d="M12.8898 12.9243H11.0488V14.7707H12.8898V12.9243Z" fill="#E1E6F2"/>
<path d="M11.046 12.9243H9.20508V14.7707H11.046V12.9243Z" fill="#B4CCE9"/>
<path d="M9.20421 12.9243H7.36328V14.7707H9.20421V12.9243Z" fill="#788CB5"/>
<path d="M7.36436 12.9243H5.52344V14.7707H7.36436V12.9243Z" fill="#514B73"/>
<path d="M25.7784 11.0781H23.9375V12.9245H25.7784V11.0781Z" fill="#4F4970"/>
<path d="M23.9347 11.0781H22.0938V12.9245H23.9347V11.0781Z" fill="#524C73"/>
<path d="M22.0929 11.0781H20.252V12.9245H22.0929V11.0781Z" fill="#6B84B1"/>
<path d="M20.253 11.0781H18.4121V12.9245H20.253V11.0781Z" fill="#6C90BB"/>
<path d="M18.4112 11.0781H16.5703V12.9245H18.4112V11.0781Z" fill="#A2BDEB"/>
<path d="M16.5714 11.0781H14.7305V12.9245H16.5714V11.0781Z" fill="#BBCDE0"/>
<path d="M14.7296 11.0781H12.8887V12.9245H14.7296V11.0781Z" fill="#E6E5E7"/>
<path d="M12.8898 11.0781H11.0488V12.9245H12.8898V11.0781Z" fill="#F2F7F2"/>
<path d="M11.046 11.0781H9.20508V12.9245H11.046V11.0781Z" fill="#E3E9E8"/>
<path d="M9.20421 11.0781H7.36328V12.9245H9.20421V11.0781Z" fill="#B1C9EF"/>
<path d="M7.36436 11.0781H5.52344V12.9245H7.36436V11.0781Z" fill="#6A8FBA"/>
<path d="M5.52256 11.0781H3.68164V12.9245H5.52256V11.0781Z" fill="#6F8FBA"/>
<path d="M3.68272 11.0781H1.8418V12.9245H3.68272V11.0781Z" fill="#574A75"/>
<path d="M1.84092 11.0781H0V12.9245H1.84092V11.0781Z" fill="#544D74"/>
<path d="M18.4112 9.23193H16.5703V11.0783H18.4112V9.23193Z" fill="#7380A7"/>
<path d="M16.5714 9.23193H14.7305V11.0783H16.5714V9.23193Z" fill="#7899C1"/>
<path d="M14.7296 9.23193H12.8887V11.0783H14.7296V9.23193Z" fill="#B8CAD8"/>
<path d="M12.8898 9.23193H11.0488V11.0783H12.8898V9.23193Z" fill="#E5E8F0"/>
<path d="M11.046 9.23193H9.20508V11.0783H11.046V9.23193Z" fill="#B8C9E9"/>
<path d="M9.20421 9.23193H7.36328V11.0783H9.20421V9.23193Z" fill="#748CB1"/>
<path d="M7.36436 9.23193H5.52344V11.0783H7.36436V9.23193Z" fill="#564B75"/>
<path d="M16.5714 7.38525H14.7305V9.23162H16.5714V7.38525Z" fill="#4E5C88"/>
<path d="M14.7296 7.38525H12.8887V9.23162H14.7296V7.38525Z" fill="#7392B1"/>
<path d="M12.8898 7.38525H11.0488V9.23162H12.8898V7.38525Z" fill="#B5C4DB"/>
<path d="M11.046 7.38525H9.20508V9.23162H11.046V7.38525Z" fill="#7792BB"/>
<path d="M9.20421 7.38525H7.36328V9.23162H9.20421V7.38525Z" fill="#4F4A81"/>
<path d="M14.7296 5.53906H12.8887V7.38543H14.7296V5.53906Z" fill="#454977"/>
<path d="M12.8898 5.53906H11.0488V7.38543H12.8898V5.53906Z" fill="#7186B3"/>
<path d="M11.046 5.53906H9.20508V7.38543H11.046V5.53906Z" fill="#4B4975"/>
<path d="M12.8898 3.69287H11.0488V5.53923H12.8898V3.69287Z" fill="#6984B0"/>
<path d="M12.8898 1.84619H11.0488V3.69256H12.8898V1.84619Z" fill="#494A75"/>
<path d="M12.8898 0H11.0488V1.84636H12.8898V0Z" fill="#514970"/>
</g>
</svg>
