<svg width="41" height="38" viewBox="0 0 41 38" fill="none" xmlns="http://www.w3.org/2000/svg">
<g style="mix-blend-mode:color-dodge">
<path d="M20.4089 35.0767H17.4941V38.0001H20.4089V35.0767Z" fill="#4D496F"/>
<path d="M20.4089 32.1533H17.4941V35.0767H20.4089V32.1533Z" fill="#4E4672"/>
<path d="M20.4089 29.23H17.4941V32.1534H20.4089V29.23Z" fill="#6D88AF"/>
<path d="M23.323 26.3062H20.4082V29.2296H23.323V26.3062Z" fill="#514778"/>
<path d="M20.4089 26.3062H17.4941V29.2296H20.4089V26.3062Z" fill="#7288BA"/>
<path d="M17.489 26.3062H14.5742V29.2296H17.489V26.3062Z" fill="#535072"/>
<path d="M26.2371 23.3828H23.3223V26.3062H26.2371V23.3828Z" fill="#505582"/>
<path d="M23.323 23.3828H20.4082V26.3062H23.323V23.3828Z" fill="#6A8DB2"/>
<path d="M20.4089 23.3828H17.4941V26.3062H20.4089V23.3828Z" fill="#ACC8E6"/>
<path d="M17.489 23.3828H14.5742V26.3062H17.489V23.3828Z" fill="#708BB4"/>
<path d="M14.573 23.3828H11.6582V26.3062H14.573V23.3828Z" fill="#51496D"/>
<path d="M29.1531 20.4639H26.2383V23.3873H29.1531V20.4639Z" fill="#747CA4"/>
<path d="M26.2371 20.4639H23.3223V23.3873H26.2371V20.4639Z" fill="#7E96C1"/>
<path d="M23.323 20.4639H20.4082V23.3873H23.323V20.4639Z" fill="#B7C8E1"/>
<path d="M20.4089 20.4639H17.4941V23.3873H20.4089V20.4639Z" fill="#E1E6F2"/>
<path d="M17.489 20.4639H14.5742V23.3873H17.489V20.4639Z" fill="#B4CCE9"/>
<path d="M14.573 20.4639H11.6582V23.3873H14.573V20.4639Z" fill="#788CB5"/>
<path d="M11.6589 20.4639H8.74414V23.3873H11.6589V20.4639Z" fill="#514B73"/>
<path d="M40.8152 17.5405H37.9004V20.4639H40.8152V17.5405Z" fill="#4F4970"/>
<path d="M37.8972 17.5405H34.9824V20.4639H37.8972V17.5405Z" fill="#524C73"/>
<path d="M34.9812 17.5405H32.0664V20.4639H34.9812V17.5405Z" fill="#6B84B1"/>
<path d="M32.0671 17.5405H29.1523V20.4639H32.0671V17.5405Z" fill="#6C90BB"/>
<path d="M29.1531 17.5405H26.2383V20.4639H29.1531V17.5405Z" fill="#A2BDEB"/>
<path d="M26.2371 17.5405H23.3223V20.4639H26.2371V17.5405Z" fill="#BBCDE0"/>
<path d="M23.323 17.5405H20.4082V20.4639H23.323V17.5405Z" fill="#E6E5E7"/>
<path d="M20.4089 17.5405H17.4941V20.4639H20.4089V17.5405Z" fill="#F2F7F2"/>
<path d="M17.489 17.5405H14.5742V20.4639H17.489V17.5405Z" fill="#E3E9E8"/>
<path d="M14.573 17.5405H11.6582V20.4639H14.573V17.5405Z" fill="#B1C9EF"/>
<path d="M11.6589 17.5405H8.74414V20.4639H11.6589V17.5405Z" fill="#6A8FBA"/>
<path d="M8.74487 17.5405H5.83008V20.4639H8.74487V17.5405Z" fill="#6F8FBA"/>
<path d="M5.82886 17.5405H2.91406V20.4639H5.82886V17.5405Z" fill="#574A75"/>
<path d="M2.9148 17.5405H0V20.4639H2.9148V17.5405Z" fill="#544D74"/>
<path d="M29.1531 14.6172H26.2383V17.5406H29.1531V14.6172Z" fill="#7380A7"/>
<path d="M26.2371 14.6172H23.3223V17.5406H26.2371V14.6172Z" fill="#7899C1"/>
<path d="M23.323 14.6172H20.4082V17.5406H23.323V14.6172Z" fill="#B8CAD8"/>
<path d="M20.4089 14.6172H17.4941V17.5406H20.4089V14.6172Z" fill="#E5E8F0"/>
<path d="M17.489 14.6172H14.5742V17.5406H17.489V14.6172Z" fill="#B8C9E9"/>
<path d="M14.573 14.6172H11.6582V17.5406H14.573V14.6172Z" fill="#748CB1"/>
<path d="M11.6589 14.6172H8.74414V17.5406H11.6589V14.6172Z" fill="#564B75"/>
<path d="M26.2371 11.6934H23.3223V14.6168H26.2371V11.6934Z" fill="#4E5C88"/>
<path d="M23.323 11.6934H20.4082V14.6168H23.323V11.6934Z" fill="#7392B1"/>
<path d="M20.4089 11.6934H17.4941V14.6168H20.4089V11.6934Z" fill="#B5C4DB"/>
<path d="M17.489 11.6934H14.5742V14.6168H17.489V11.6934Z" fill="#7792BB"/>
<path d="M14.573 11.6934H11.6582V14.6168H14.573V11.6934Z" fill="#4F4A81"/>
<path d="M23.323 8.77051H20.4082V11.6939H23.323V8.77051Z" fill="#454977"/>
<path d="M20.4089 8.77051H17.4941V11.6939H20.4089V8.77051Z" fill="#7186B3"/>
<path d="M17.489 8.77051H14.5742V11.6939H17.489V8.77051Z" fill="#4B4975"/>
<path d="M20.4089 5.84668H17.4941V8.77009H20.4089V5.84668Z" fill="#6984B0"/>
<path d="M20.4089 2.92334H17.4941V5.84675H20.4089V2.92334Z" fill="#494A75"/>
<path d="M20.4089 0H17.4941V2.92341H20.4089V0Z" fill="#514970"/>
</g>
</svg>
