<svg width="45" height="45" viewBox="0 0 45 45" fill="none" xmlns="http://www.w3.org/2000/svg">
<path d="M37.2765 42.2482H34.791V44.7337H37.2765V42.2482Z" fill="black"/>
<path d="M34.7921 42.2482H32.3066V44.7337H34.7921V42.2482Z" fill="black"/>
<path d="M32.3058 42.2482H29.8203V44.7337H32.3058V42.2482Z" fill="black"/>
<path d="M29.8214 42.2482H27.3359V44.7337H29.8214V42.2482Z" fill="black"/>
<path d="M27.3351 42.2482H24.8496V44.7337H27.3351V42.2482Z" fill="black"/>
<path d="M24.8507 42.2482H22.3652V44.7337H24.8507V42.2482Z" fill="black"/>
<path d="M22.3644 42.2482H19.8789V44.7337H22.3644V42.2482Z" fill="black"/>
<path d="M19.88 42.2482H17.3945V44.7337H19.88V42.2482Z" fill="black"/>
<path d="M17.3956 42.2482H14.9102V44.7337H17.3956V42.2482Z" fill="black"/>
<path d="M14.9093 42.2482H12.4238V44.7337H14.9093V42.2482Z" fill="black"/>
<path d="M12.4249 42.2482H9.93945V44.7337H12.4249V42.2482Z" fill="black"/>
<path d="M9.93858 42.2482H7.45312V44.7337H9.93858V42.2482Z" fill="black"/>
<path d="M39.7608 39.7636H37.2754V42.249H39.7608V39.7636Z" fill="black"/>
<path d="M37.2765 39.7636H34.791V42.249H37.2765V39.7636Z" fill="#FE2E41"/>
<path d="M34.7921 39.7636H32.3066V42.249H34.7921V39.7636Z" fill="#FE2E41"/>
<path d="M32.3058 39.7636H29.8203V42.249H32.3058V39.7636Z" fill="#FE2E41"/>
<path d="M29.8214 39.7636H27.3359V42.249H29.8214V39.7636Z" fill="#FE2E41"/>
<path d="M27.3351 39.7636H24.8496V42.249H27.3351V39.7636Z" fill="#FE2E41"/>
<path d="M24.8507 39.7636H22.3652V42.249H24.8507V39.7636Z" fill="#FE2E41"/>
<path d="M22.3644 39.7636H19.8789V42.249H22.3644V39.7636Z" fill="#FE2E41"/>
<path d="M19.88 39.7636H17.3945V42.249H19.88V39.7636Z" fill="#FE2E41"/>
<path d="M17.3956 39.7636H14.9102V42.249H17.3956V39.7636Z" fill="#FE2E41"/>
<path d="M14.9093 39.7636H12.4238V42.249H14.9093V39.7636Z" fill="#FE2E41"/>
<path d="M12.4249 39.7636H9.93945V42.249H12.4249V39.7636Z" fill="#FE2E41"/>
<path d="M9.93858 39.7636H7.45312V42.249H9.93858V39.7636Z" fill="#FE2E41"/>
<path d="M7.45421 39.7636H4.96875V42.249H7.45421V39.7636Z" fill="black"/>
<path d="M42.2472 37.2781H39.7617V39.7635H42.2472V37.2781Z" fill="black"/>
<path d="M39.7608 37.2781H37.2754V39.7635H39.7608V37.2781Z" fill="#FC6653"/>
<path d="M37.2765 37.2781H34.791V39.7635H37.2765V37.2781Z" fill="#FC6653"/>
<path d="M34.7921 37.2781H32.3066V39.7635H34.7921V37.2781Z" fill="#FC6653"/>
<path d="M32.3058 37.2781H29.8203V39.7635H32.3058V37.2781Z" fill="#FC6653"/>
<path d="M29.8214 37.2781H27.3359V39.7635H29.8214V37.2781Z" fill="#FC6653"/>
<path d="M27.3351 37.2781H24.8496V39.7635H27.3351V37.2781Z" fill="#FC6653"/>
<path d="M24.8507 37.2781H22.3652V39.7635H24.8507V37.2781Z" fill="#FC6653"/>
<path d="M22.3644 37.2781H19.8789V39.7635H22.3644V37.2781Z" fill="#FC6653"/>
<path d="M19.88 37.2781H17.3945V39.7635H19.88V37.2781Z" fill="#FC6653"/>
<path d="M17.3956 37.2781H14.9102V39.7635H17.3956V37.2781Z" fill="#FC6653"/>
<path d="M14.9093 37.2781H12.4238V39.7635H14.9093V37.2781Z" fill="#FC6653"/>
<path d="M12.4249 37.2781H9.93945V39.7635H12.4249V37.2781Z" fill="#FC6653"/>
<path d="M9.93858 37.2781H7.45312V39.7635H9.93858V37.2781Z" fill="#FC6653"/>
<path d="M7.45421 37.2781H4.96875V39.7635H7.45421V37.2781Z" fill="#FC6653"/>
<path d="M4.96983 37.2781H2.48438V39.7635H4.96983V37.2781Z" fill="black"/>
<path d="M44.7316 34.793H42.2461V37.2785H44.7316V34.793Z" fill="black"/>
<path d="M42.2472 34.793H39.7617V37.2785H42.2472V34.793Z" fill="#FE2E41"/>
<path d="M39.7608 34.793H37.2754V37.2785H39.7608V34.793Z" fill="#FC6653"/>
<path d="M37.2765 34.793H34.791V37.2785H37.2765V34.793Z" fill="#FC6653"/>
<path d="M34.7921 34.793H32.3066V37.2785H34.7921V34.793Z" fill="#FC6653"/>
<path d="M32.3058 34.793H29.8203V37.2785H32.3058V34.793Z" fill="#FC6653"/>
<path d="M29.8214 34.793H27.3359V37.2785H29.8214V34.793Z" fill="#FC6653"/>
<path d="M27.3351 34.793H24.8496V37.2785H27.3351V34.793Z" fill="black"/>
<path d="M24.8507 34.793H22.3652V37.2785H24.8507V34.793Z" fill="black"/>
<path d="M22.3644 34.793H19.8789V37.2785H22.3644V34.793Z" fill="black"/>
<path d="M19.88 34.793H17.3945V37.2785H19.88V34.793Z" fill="black"/>
<path d="M17.3956 34.793H14.9102V37.2785H17.3956V34.793Z" fill="#FC6653"/>
<path d="M14.9093 34.793H12.4238V37.2785H14.9093V34.793Z" fill="#FC6653"/>
<path d="M12.4249 34.793H9.93945V37.2785H12.4249V34.793Z" fill="#FC6653"/>
<path d="M9.93858 34.793H7.45312V37.2785H9.93858V34.793Z" fill="#FC6653"/>
<path d="M7.45421 34.793H4.96875V37.2785H7.45421V34.793Z" fill="#FC6653"/>
<path d="M4.96983 34.793H2.48438V37.2785H4.96983V34.793Z" fill="#F8F4D8"/>
<path d="M2.48351 34.793H-0.00195312V37.2785H2.48351V34.793Z" fill="black"/>
<path d="M44.7316 32.3075H42.2461V34.793H44.7316V32.3075Z" fill="black"/>
<path d="M42.2472 32.3075H39.7617V34.793H42.2472V32.3075Z" fill="#FE2E41"/>
<path d="M39.7608 32.3075H37.2754V34.793H39.7608V32.3075Z" fill="#FC6653"/>
<path d="M37.2765 32.3075H34.791V34.793H37.2765V32.3075Z" fill="#FC6653"/>
<path d="M34.7921 32.3075H32.3066V34.793H34.7921V32.3075Z" fill="#FC6653"/>
<path d="M32.3058 32.3075H29.8203V34.793H32.3058V32.3075Z" fill="#FC6653"/>
<path d="M29.8214 32.3075H27.3359V34.793H29.8214V32.3075Z" fill="#FC6653"/>
<path d="M27.3351 32.3075H24.8496V34.793H27.3351V32.3075Z" fill="black"/>
<path d="M24.8507 32.3075H22.3652V34.793H24.8507V32.3075Z" fill="black"/>
<path d="M22.3644 32.3075H19.8789V34.793H22.3644V32.3075Z" fill="black"/>
<path d="M19.88 32.3075H17.3945V34.793H19.88V32.3075Z" fill="black"/>
<path d="M17.3956 32.3075H14.9102V34.793H17.3956V32.3075Z" fill="#FC6653"/>
<path d="M14.9093 32.3075H12.4238V34.793H14.9093V32.3075Z" fill="#FC6653"/>
<path d="M12.4249 32.3075H9.93945V34.793H12.4249V32.3075Z" fill="#FC6653"/>
<path d="M9.93858 32.3075H7.45312V34.793H9.93858V32.3075Z" fill="#FC6653"/>
<path d="M7.45421 32.3075H4.96875V34.793H7.45421V32.3075Z" fill="#FC6653"/>
<path d="M4.96983 32.3075H2.48438V34.793H4.96983V32.3075Z" fill="#F8F4D8"/>
<path d="M2.48351 32.3075H-0.00195312V34.793H2.48351V32.3075Z" fill="black"/>
<path d="M44.7316 29.8224H42.2461V32.3079H44.7316V29.8224Z" fill="black"/>
<path d="M42.2472 29.8224H39.7617V32.3079H42.2472V29.8224Z" fill="#FE2E41"/>
<path d="M39.7608 29.8224H37.2754V32.3079H39.7608V29.8224Z" fill="#FC6653"/>
<path d="M37.2765 29.8224H34.791V32.3079H37.2765V29.8224Z" fill="#FC6653"/>
<path d="M34.7921 29.8224H32.3066V32.3079H34.7921V29.8224Z" fill="#FC6653"/>
<path d="M32.3058 29.8224H29.8203V32.3079H32.3058V29.8224Z" fill="#FC6653"/>
<path d="M29.8214 29.8224H27.3359V32.3079H29.8214V29.8224Z" fill="#FC6653"/>
<path d="M27.3351 29.8224H24.8496V32.3079H27.3351V29.8224Z" fill="black"/>
<path d="M24.8507 29.8224H22.3652V32.3079H24.8507V29.8224Z" fill="black"/>
<path d="M22.3644 29.8224H19.8789V32.3079H22.3644V29.8224Z" fill="black"/>
<path d="M19.88 29.8224H17.3945V32.3079H19.88V29.8224Z" fill="black"/>
<path d="M17.3956 29.8224H14.9102V32.3079H17.3956V29.8224Z" fill="#FC6653"/>
<path d="M14.9093 29.8224H12.4238V32.3079H14.9093V29.8224Z" fill="#FC6653"/>
<path d="M12.4249 29.8224H9.93945V32.3079H12.4249V29.8224Z" fill="#FC6653"/>
<path d="M9.93858 29.8224H7.45312V32.3079H9.93858V29.8224Z" fill="#FC6653"/>
<path d="M7.45421 29.8224H4.96875V32.3079H7.45421V29.8224Z" fill="#FC6653"/>
<path d="M4.96983 29.8224H2.48438V32.3079H4.96983V29.8224Z" fill="#F8F4D8"/>
<path d="M2.48351 29.8224H-0.00195312V32.3079H2.48351V29.8224Z" fill="black"/>
<path d="M44.7316 27.3369H42.2461V29.8224H44.7316V27.3369Z" fill="black"/>
<path d="M42.2472 27.3369H39.7617V29.8224H42.2472V27.3369Z" fill="#FE2E41"/>
<path d="M39.7608 27.3369H37.2754V29.8224H39.7608V27.3369Z" fill="#FC6653"/>
<path d="M37.2765 27.3369H34.791V29.8224H37.2765V27.3369Z" fill="#FC6653"/>
<path d="M34.7921 27.3369H32.3066V29.8224H34.7921V27.3369Z" fill="#FC6653"/>
<path d="M32.3058 27.3369H29.8203V29.8224H32.3058V27.3369Z" fill="#FC6653"/>
<path d="M29.8214 27.3369H27.3359V29.8224H29.8214V27.3369Z" fill="#FC6653"/>
<path d="M27.3351 27.3369H24.8496V29.8224H27.3351V27.3369Z" fill="black"/>
<path d="M24.8507 27.3369H22.3652V29.8224H24.8507V27.3369Z" fill="black"/>
<path d="M22.3644 27.3369H19.8789V29.8224H22.3644V27.3369Z" fill="black"/>
<path d="M19.88 27.3369H17.3945V29.8224H19.88V27.3369Z" fill="black"/>
<path d="M17.3956 27.3369H14.9102V29.8224H17.3956V27.3369Z" fill="#FC6653"/>
<path d="M14.9093 27.3369H12.4238V29.8224H14.9093V27.3369Z" fill="#FC6653"/>
<path d="M12.4249 27.3369H9.93945V29.8224H12.4249V27.3369Z" fill="#FC6653"/>
<path d="M9.93858 27.3369H7.45312V29.8224H9.93858V27.3369Z" fill="#FC6653"/>
<path d="M7.45421 27.3369H4.96875V29.8224H7.45421V27.3369Z" fill="#FC6653"/>
<path d="M4.96983 27.3369H2.48438V29.8224H4.96983V27.3369Z" fill="#F8F4D8"/>
<path d="M2.48351 27.3369H-0.00195312V29.8224H2.48351V27.3369Z" fill="black"/>
<path d="M44.7316 24.8524H42.2461V27.3378H44.7316V24.8524Z" fill="black"/>
<path d="M42.2472 24.8524H39.7617V27.3378H42.2472V24.8524Z" fill="#FE2E41"/>
<path d="M39.7608 24.8524H37.2754V27.3378H39.7608V24.8524Z" fill="#FC6653"/>
<path d="M37.2765 24.8524H34.791V27.3378H37.2765V24.8524Z" fill="black"/>
<path d="M34.7921 24.8524H32.3066V27.3378H34.7921V24.8524Z" fill="black"/>
<path d="M32.3058 24.8524H29.8203V27.3378H32.3058V24.8524Z" fill="black"/>
<path d="M29.8214 24.8524H27.3359V27.3378H29.8214V24.8524Z" fill="black"/>
<path d="M27.3351 24.8524H24.8496V27.3378H27.3351V24.8524Z" fill="black"/>
<path d="M24.8507 24.8524H22.3652V27.3378H24.8507V24.8524Z" fill="black"/>
<path d="M22.3644 24.8524H19.8789V27.3378H22.3644V24.8524Z" fill="black"/>
<path d="M19.88 24.8524H17.3945V27.3378H19.88V24.8524Z" fill="black"/>
<path d="M17.3956 24.8524H14.9102V27.3378H17.3956V24.8524Z" fill="black"/>
<path d="M14.9093 24.8524H12.4238V27.3378H14.9093V24.8524Z" fill="black"/>
<path d="M12.4249 24.8524H9.93945V27.3378H12.4249V24.8524Z" fill="black"/>
<path d="M9.93858 24.8524H7.45312V27.3378H9.93858V24.8524Z" fill="black"/>
<path d="M7.45421 24.8524H4.96875V27.3378H7.45421V24.8524Z" fill="#FC6653"/>
<path d="M4.96983 24.8524H2.48438V27.3378H4.96983V24.8524Z" fill="#F8F4D8"/>
<path d="M2.48351 24.8524H-0.00195312V27.3378H2.48351V24.8524Z" fill="black"/>
<path d="M44.7316 22.3669H42.2461V24.8523H44.7316V22.3669Z" fill="black"/>
<path d="M42.2472 22.3669H39.7617V24.8523H42.2472V22.3669Z" fill="#FE2E41"/>
<path d="M39.7608 22.3669H37.2754V24.8523H39.7608V22.3669Z" fill="#FC6653"/>
<path d="M37.2765 22.3669H34.791V24.8523H37.2765V22.3669Z" fill="black"/>
<path d="M34.7921 22.3669H32.3066V24.8523H34.7921V22.3669Z" fill="black"/>
<path d="M32.3058 22.3669H29.8203V24.8523H32.3058V22.3669Z" fill="black"/>
<path d="M29.8214 22.3669H27.3359V24.8523H29.8214V22.3669Z" fill="black"/>
<path d="M27.3351 22.3669H24.8496V24.8523H27.3351V22.3669Z" fill="black"/>
<path d="M24.8507 22.3669H22.3652V24.8523H24.8507V22.3669Z" fill="black"/>
<path d="M22.3644 22.3669H19.8789V24.8523H22.3644V22.3669Z" fill="black"/>
<path d="M19.88 22.3669H17.3945V24.8523H19.88V22.3669Z" fill="black"/>
<path d="M17.3956 22.3669H14.9102V24.8523H17.3956V22.3669Z" fill="black"/>
<path d="M14.9093 22.3669H12.4238V24.8523H14.9093V22.3669Z" fill="black"/>
<path d="M12.4249 22.3669H9.93945V24.8523H12.4249V22.3669Z" fill="black"/>
<path d="M9.93858 22.3669H7.45312V24.8523H9.93858V22.3669Z" fill="black"/>
<path d="M7.45421 22.3669H4.96875V24.8523H7.45421V22.3669Z" fill="#FC6653"/>
<path d="M4.96983 22.3669H2.48438V24.8523H4.96983V22.3669Z" fill="#F8F4D8"/>
<path d="M2.48351 22.3669H-0.00195312V24.8523H2.48351V22.3669Z" fill="black"/>
<path d="M44.7316 19.8813H42.2461V22.3668H44.7316V19.8813Z" fill="black"/>
<path d="M42.2472 19.8813H39.7617V22.3668H42.2472V19.8813Z" fill="#FE2E41"/>
<path d="M39.7608 19.8813H37.2754V22.3668H39.7608V19.8813Z" fill="#FC6653"/>
<path d="M37.2765 19.8813H34.791V22.3668H37.2765V19.8813Z" fill="black"/>
<path d="M34.7921 19.8813H32.3066V22.3668H34.7921V19.8813Z" fill="black"/>
<path d="M32.3058 19.8813H29.8203V22.3668H32.3058V19.8813Z" fill="black"/>
<path d="M29.8214 19.8813H27.3359V22.3668H29.8214V19.8813Z" fill="black"/>
<path d="M27.3351 19.8813H24.8496V22.3668H27.3351V19.8813Z" fill="black"/>
<path d="M24.8507 19.8813H22.3652V22.3668H24.8507V19.8813Z" fill="black"/>
<path d="M22.3644 19.8813H19.8789V22.3668H22.3644V19.8813Z" fill="black"/>
<path d="M19.88 19.8813H17.3945V22.3668H19.88V19.8813Z" fill="black"/>
<path d="M17.3956 19.8813H14.9102V22.3668H17.3956V19.8813Z" fill="black"/>
<path d="M14.9093 19.8813H12.4238V22.3668H14.9093V19.8813Z" fill="black"/>
<path d="M12.4249 19.8813H9.93945V22.3668H12.4249V19.8813Z" fill="black"/>
<path d="M9.93858 19.8813H7.45312V22.3668H9.93858V19.8813Z" fill="black"/>
<path d="M7.45421 19.8813H4.96875V22.3668H7.45421V19.8813Z" fill="#FC6653"/>
<path d="M4.96983 19.8813H2.48438V22.3668H4.96983V19.8813Z" fill="#F8F4D8"/>
<path d="M2.48351 19.8813H-0.00195312V22.3668H2.48351V19.8813Z" fill="black"/>
<path d="M44.7316 17.3967H42.2461V19.8822H44.7316V17.3967Z" fill="black"/>
<path d="M42.2472 17.3967H39.7617V19.8822H42.2472V17.3967Z" fill="#FE2E41"/>
<path d="M39.7608 17.3967H37.2754V19.8822H39.7608V17.3967Z" fill="#FC6653"/>
<path d="M37.2765 17.3967H34.791V19.8822H37.2765V17.3967Z" fill="black"/>
<path d="M34.7921 17.3967H32.3066V19.8822H34.7921V17.3967Z" fill="black"/>
<path d="M32.3058 17.3967H29.8203V19.8822H32.3058V17.3967Z" fill="black"/>
<path d="M29.8214 17.3967H27.3359V19.8822H29.8214V17.3967Z" fill="black"/>
<path d="M27.3351 17.3967H24.8496V19.8822H27.3351V17.3967Z" fill="black"/>
<path d="M24.8507 17.3967H22.3652V19.8822H24.8507V17.3967Z" fill="black"/>
<path d="M22.3644 17.3967H19.8789V19.8822H22.3644V17.3967Z" fill="black"/>
<path d="M19.88 17.3967H17.3945V19.8822H19.88V17.3967Z" fill="black"/>
<path d="M17.3956 17.3967H14.9102V19.8822H17.3956V17.3967Z" fill="black"/>
<path d="M14.9093 17.3967H12.4238V19.8822H14.9093V17.3967Z" fill="black"/>
<path d="M12.4249 17.3967H9.93945V19.8822H12.4249V17.3967Z" fill="black"/>
<path d="M9.93858 17.3967H7.45312V19.8822H9.93858V17.3967Z" fill="black"/>
<path d="M7.45421 17.3967H4.96875V19.8822H7.45421V17.3967Z" fill="#FC6653"/>
<path d="M4.96983 17.3967H2.48438V19.8822H4.96983V17.3967Z" fill="#F8F4D8"/>
<path d="M2.48351 17.3967H-0.00195312V19.8822H2.48351V17.3967Z" fill="black"/>
<path d="M44.7316 14.9113H42.2461V17.3967H44.7316V14.9113Z" fill="black"/>
<path d="M42.2472 14.9113H39.7617V17.3967H42.2472V14.9113Z" fill="#FE2E41"/>
<path d="M39.7608 14.9113H37.2754V17.3967H39.7608V14.9113Z" fill="#FC6653"/>
<path d="M37.2765 14.9113H34.791V17.3967H37.2765V14.9113Z" fill="#FC6653"/>
<path d="M34.7921 14.9113H32.3066V17.3967H34.7921V14.9113Z" fill="#FC6653"/>
<path d="M32.3058 14.9113H29.8203V17.3967H32.3058V14.9113Z" fill="#FC6653"/>
<path d="M29.8214 14.9113H27.3359V17.3967H29.8214V14.9113Z" fill="#FC6653"/>
<path d="M27.3351 14.9113H24.8496V17.3967H27.3351V14.9113Z" fill="black"/>
<path d="M24.8507 14.9113H22.3652V17.3967H24.8507V14.9113Z" fill="black"/>
<path d="M22.3644 14.9113H19.8789V17.3967H22.3644V14.9113Z" fill="black"/>
<path d="M19.88 14.9113H17.3945V17.3967H19.88V14.9113Z" fill="black"/>
<path d="M17.3956 14.9113H14.9102V17.3967H17.3956V14.9113Z" fill="#FC6653"/>
<path d="M14.9093 14.9113H12.4238V17.3967H14.9093V14.9113Z" fill="#FC6653"/>
<path d="M12.4249 14.9113H9.93945V17.3967H12.4249V14.9113Z" fill="#FC6653"/>
<path d="M9.93858 14.9113H7.45312V17.3967H9.93858V14.9113Z" fill="#FC6653"/>
<path d="M7.45421 14.9113H4.96875V17.3967H7.45421V14.9113Z" fill="#FC6653"/>
<path d="M4.96983 14.9113H2.48438V17.3967H4.96983V14.9113Z" fill="#F8F4D8"/>
<path d="M2.48351 14.9113H-0.00195312V17.3967H2.48351V14.9113Z" fill="black"/>
<path d="M44.7316 12.4261H42.2461V14.9116H44.7316V12.4261Z" fill="black"/>
<path d="M42.2472 12.4261H39.7617V14.9116H42.2472V12.4261Z" fill="#FE2E41"/>
<path d="M39.7608 12.4261H37.2754V14.9116H39.7608V12.4261Z" fill="#FC6653"/>
<path d="M37.2765 12.4261H34.791V14.9116H37.2765V12.4261Z" fill="#FC6653"/>
<path d="M34.7921 12.4261H32.3066V14.9116H34.7921V12.4261Z" fill="#FC6653"/>
<path d="M32.3058 12.4261H29.8203V14.9116H32.3058V12.4261Z" fill="#FC6653"/>
<path d="M29.8214 12.4261H27.3359V14.9116H29.8214V12.4261Z" fill="#FC6653"/>
<path d="M27.3351 12.4261H24.8496V14.9116H27.3351V12.4261Z" fill="black"/>
<path d="M24.8507 12.4261H22.3652V14.9116H24.8507V12.4261Z" fill="black"/>
<path d="M22.3644 12.4261H19.8789V14.9116H22.3644V12.4261Z" fill="black"/>
<path d="M19.88 12.4261H17.3945V14.9116H19.88V12.4261Z" fill="black"/>
<path d="M17.3956 12.4261H14.9102V14.9116H17.3956V12.4261Z" fill="#FC6653"/>
<path d="M14.9093 12.4261H12.4238V14.9116H14.9093V12.4261Z" fill="#FC6653"/>
<path d="M12.4249 12.4261H9.93945V14.9116H12.4249V12.4261Z" fill="#FC6653"/>
<path d="M9.93858 12.4261H7.45312V14.9116H9.93858V12.4261Z" fill="#FC6653"/>
<path d="M7.45421 12.4261H4.96875V14.9116H7.45421V12.4261Z" fill="#FC6653"/>
<path d="M4.96983 12.4261H2.48438V14.9116H4.96983V12.4261Z" fill="#F8F4D8"/>
<path d="M2.48351 12.4261H-0.00195312V14.9116H2.48351V12.4261Z" fill="black"/>
<path d="M44.7316 9.94067H42.2461V12.4261H44.7316V9.94067Z" fill="black"/>
<path d="M42.2472 9.94067H39.7617V12.4261H42.2472V9.94067Z" fill="#FE2E41"/>
<path d="M39.7608 9.94067H37.2754V12.4261H39.7608V9.94067Z" fill="#FC6653"/>
<path d="M37.2765 9.94067H34.791V12.4261H37.2765V9.94067Z" fill="#FC6653"/>
<path d="M34.7921 9.94067H32.3066V12.4261H34.7921V9.94067Z" fill="#FC6653"/>
<path d="M32.3058 9.94067H29.8203V12.4261H32.3058V9.94067Z" fill="#FC6653"/>
<path d="M29.8214 9.94067H27.3359V12.4261H29.8214V9.94067Z" fill="#FC6653"/>
<path d="M27.3351 9.94067H24.8496V12.4261H27.3351V9.94067Z" fill="black"/>
<path d="M24.8507 9.94067H22.3652V12.4261H24.8507V9.94067Z" fill="black"/>
<path d="M22.3644 9.94067H19.8789V12.4261H22.3644V9.94067Z" fill="black"/>
<path d="M19.88 9.94067H17.3945V12.4261H19.88V9.94067Z" fill="black"/>
<path d="M17.3956 9.94067H14.9102V12.4261H17.3956V9.94067Z" fill="#FC6653"/>
<path d="M14.9093 9.94067H12.4238V12.4261H14.9093V9.94067Z" fill="#FC6653"/>
<path d="M12.4249 9.94067H9.93945V12.4261H12.4249V9.94067Z" fill="#FC6653"/>
<path d="M9.93858 9.94067H7.45312V12.4261H9.93858V9.94067Z" fill="#FC6653"/>
<path d="M7.45421 9.94067H4.96875V12.4261H7.45421V9.94067Z" fill="#FC6653"/>
<path d="M4.96983 9.94067H2.48438V12.4261H4.96983V9.94067Z" fill="#F8F4D8"/>
<path d="M2.48351 9.94067H-0.00195312V12.4261H2.48351V9.94067Z" fill="black"/>
<path d="M44.7316 7.45563H42.2461V9.94109H44.7316V7.45563Z" fill="black"/>
<path d="M42.2472 7.45563H39.7617V9.94109H42.2472V7.45563Z" fill="#FE2E41"/>
<path d="M39.7608 7.45563H37.2754V9.94109H39.7608V7.45563Z" fill="#FC6653"/>
<path d="M37.2765 7.45563H34.791V9.94109H37.2765V7.45563Z" fill="#FC6653"/>
<path d="M34.7921 7.45563H32.3066V9.94109H34.7921V7.45563Z" fill="#FC6653"/>
<path d="M32.3058 7.45563H29.8203V9.94109H32.3058V7.45563Z" fill="#FC6653"/>
<path d="M29.8214 7.45563H27.3359V9.94109H29.8214V7.45563Z" fill="#FC6653"/>
<path d="M27.3351 7.45563H24.8496V9.94109H27.3351V7.45563Z" fill="black"/>
<path d="M24.8507 7.45563H22.3652V9.94109H24.8507V7.45563Z" fill="black"/>
<path d="M22.3644 7.45563H19.8789V9.94109H22.3644V7.45563Z" fill="black"/>
<path d="M19.88 7.45563H17.3945V9.94109H19.88V7.45563Z" fill="black"/>
<path d="M17.3956 7.45563H14.9102V9.94109H17.3956V7.45563Z" fill="#FC6653"/>
<path d="M14.9093 7.45563H12.4238V9.94109H14.9093V7.45563Z" fill="#FC6653"/>
<path d="M12.4249 7.45563H9.93945V9.94109H12.4249V7.45563Z" fill="#FC6653"/>
<path d="M9.93858 7.45563H7.45312V9.94109H9.93858V7.45563Z" fill="#FC6653"/>
<path d="M7.45421 7.45563H4.96875V9.94109H7.45421V7.45563Z" fill="#FC6653"/>
<path d="M4.96983 7.45563H2.48438V9.94109H4.96983V7.45563Z" fill="#F8F4D8"/>
<path d="M2.48351 7.45563H-0.00195312V9.94109H2.48351V7.45563Z" fill="black"/>
<path d="M42.2472 4.97009H39.7617V7.45555H42.2472V4.97009Z" fill="black"/>
<path d="M39.7608 4.97009H37.2754V7.45555H39.7608V4.97009Z" fill="#FC6653"/>
<path d="M37.2765 4.97009H34.791V7.45555H37.2765V4.97009Z" fill="#FC6653"/>
<path d="M34.7921 4.97009H32.3066V7.45555H34.7921V4.97009Z" fill="#FC6653"/>
<path d="M32.3058 4.97009H29.8203V7.45555H32.3058V4.97009Z" fill="#FC6653"/>
<path d="M29.8214 4.97009H27.3359V7.45555H29.8214V4.97009Z" fill="#FC6653"/>
<path d="M27.3351 4.97009H24.8496V7.45555H27.3351V4.97009Z" fill="#FC6653"/>
<path d="M24.8507 4.97009H22.3652V7.45555H24.8507V4.97009Z" fill="#FC6653"/>
<path d="M22.3644 4.97009H19.8789V7.45555H22.3644V4.97009Z" fill="#FC6653"/>
<path d="M19.88 4.97009H17.3945V7.45555H19.88V4.97009Z" fill="#FC6653"/>
<path d="M17.3956 4.97009H14.9102V7.45555H17.3956V4.97009Z" fill="#FC6653"/>
<path d="M14.9093 4.97009H12.4238V7.45555H14.9093V4.97009Z" fill="#FC6653"/>
<path d="M12.4249 4.97009H9.93945V7.45555H12.4249V4.97009Z" fill="#FC6653"/>
<path d="M9.93858 4.97009H7.45312V7.45555H9.93858V4.97009Z" fill="#FC6653"/>
<path d="M7.45421 4.97009H4.96875V7.45555H7.45421V4.97009Z" fill="#FC6653"/>
<path d="M4.96983 4.97009H2.48438V7.45555H4.96983V4.97009Z" fill="black"/>
<path d="M39.7608 2.48553H37.2754V4.97099H39.7608V2.48553Z" fill="black"/>
<path d="M37.2765 2.48553H34.791V4.97099H37.2765V2.48553Z" fill="#F8F4D8"/>
<path d="M34.7921 2.48553H32.3066V4.97099H34.7921V2.48553Z" fill="#F8F4D8"/>
<path d="M32.3058 2.48553H29.8203V4.97099H32.3058V2.48553Z" fill="#F8F4D8"/>
<path d="M29.8214 2.48553H27.3359V4.97099H29.8214V2.48553Z" fill="#F8F4D8"/>
<path d="M27.3351 2.48553H24.8496V4.97099H27.3351V2.48553Z" fill="#F8F4D8"/>
<path d="M24.8507 2.48553H22.3652V4.97099H24.8507V2.48553Z" fill="#F8F4D8"/>
<path d="M22.3644 2.48553H19.8789V4.97099H22.3644V2.48553Z" fill="#F8F4D8"/>
<path d="M19.88 2.48553H17.3945V4.97099H19.88V2.48553Z" fill="#F8F4D8"/>
<path d="M17.3956 2.48553H14.9102V4.97099H17.3956V2.48553Z" fill="#F8F4D8"/>
<path d="M14.9093 2.48553H12.4238V4.97099H14.9093V2.48553Z" fill="#F8F4D8"/>
<path d="M12.4249 2.48553H9.93945V4.97099H12.4249V2.48553Z" fill="#F8F4D8"/>
<path d="M9.93858 2.48553H7.45312V4.97099H9.93858V2.48553Z" fill="#F8F4D8"/>
<path d="M7.45421 2.48553H4.96875V4.97099H7.45421V2.48553Z" fill="black"/>
<path d="M37.2765 0H34.791V2.48546H37.2765V0Z" fill="black"/>
<path d="M34.7921 0H32.3066V2.48546H34.7921V0Z" fill="black"/>
<path d="M32.3058 0H29.8203V2.48546H32.3058V0Z" fill="black"/>
<path d="M29.8214 0H27.3359V2.48546H29.8214V0Z" fill="black"/>
<path d="M27.3351 0H24.8496V2.48546H27.3351V0Z" fill="black"/>
<path d="M24.8507 0H22.3652V2.48546H24.8507V0Z" fill="black"/>
<path d="M22.3644 0H19.8789V2.48546H22.3644V0Z" fill="black"/>
<path d="M19.88 0H17.3945V2.48546H19.88V0Z" fill="black"/>
<path d="M17.3956 0H14.9102V2.48546H17.3956V0Z" fill="black"/>
<path d="M14.9093 0H12.4238V2.48546H14.9093V0Z" fill="black"/>
<path d="M12.4249 0H9.93945V2.48546H12.4249V0Z" fill="black"/>
<path d="M9.93858 0H7.45312V2.48546H9.93858V0Z" fill="black"/>
</svg>
