<svg width="267" height="94" viewBox="0 0 267 94" fill="none" xmlns="http://www.w3.org/2000/svg">
<mask id="path-1-outside-1_1280_9027" maskUnits="userSpaceOnUse" x="93" y="5" width="79" height="26" fill="black">
<rect fill="white" x="93" y="5" width="79" height="26"/>
<path d="M108.044 10.76H98.4444V16.52H105.164V19.4H98.4444V29H95.5644V7.88H108.044V10.76ZM123.411 29H110.931V26.12H115.731V10.76H113.811V7.88H120.531V10.76H118.611V26.12H123.411V29ZM138.777 29H135.897V28.04H134.937V26.12H133.977V24.2H133.017V22.28H132.057V20.36H131.097V18.44H130.137V16.52H129.177V29H126.297V7.88H128.217V9.8H129.177V11.72H130.137V13.64H131.097V15.56H132.057V17.48H133.017V19.4H133.977V21.32H134.937V23.24H135.897V7.88H138.777V29ZM154.143 29H151.263V24.2H144.543V29H141.663V21.32V20.36V18.44H142.623V16.52H143.583V14.6H144.543V12.68H145.503V10.76H146.463V8.84H147.423V7.88H148.383V8.84H149.343V10.76H150.303V12.68H151.263V14.6H152.223V16.52H153.183V18.44H154.143V20.36V21.32V29ZM151.263 21.32V20.36V19.4H150.303V17.48H149.343V15.56H148.383V13.64H147.423V15.56H146.463V17.48H145.503V19.4H144.543V20.36V21.32H151.263ZM169.509 29H157.029V7.88H159.909V26.12H169.509V29Z"/>
</mask>
<path d="M108.044 10.76V12.76H110.044V10.76H108.044ZM98.4444 10.76V8.76H96.4444V10.76H98.4444ZM98.4444 16.52H96.4444V18.52H98.4444V16.52ZM105.164 16.52H107.164V14.52H105.164V16.52ZM105.164 19.4V21.4H107.164V19.4H105.164ZM98.4444 19.4V17.4H96.4444V19.4H98.4444ZM98.4444 29V31H100.444V29H98.4444ZM95.5644 29H93.5644V31H95.5644V29ZM95.5644 7.88V5.88H93.5644V7.88H95.5644ZM108.044 7.88H110.044V5.88H108.044V7.88ZM108.044 10.76V8.76H98.4444V10.76V12.76H108.044V10.76ZM98.4444 10.76H96.4444V16.52H98.4444H100.444V10.76H98.4444ZM98.4444 16.52V18.52H105.164V16.52V14.52H98.4444V16.52ZM105.164 16.52H103.164V19.4H105.164H107.164V16.52H105.164ZM105.164 19.4V17.4H98.4444V19.4V21.4H105.164V19.4ZM98.4444 19.4H96.4444V29H98.4444H100.444V19.4H98.4444ZM98.4444 29V27H95.5644V29V31H98.4444V29ZM95.5644 29H97.5644V7.88H95.5644H93.5644V29H95.5644ZM95.5644 7.88V9.88H108.044V7.88V5.88H95.5644V7.88ZM108.044 7.88H106.044V10.76H108.044H110.044V7.88H108.044ZM123.411 29V31H125.411V29H123.411ZM110.931 29H108.931V31H110.931V29ZM110.931 26.12V24.12H108.931V26.12H110.931ZM115.731 26.12V28.12H117.731V26.12H115.731ZM115.731 10.76H117.731V8.76H115.731V10.76ZM113.811 10.76H111.811V12.76H113.811V10.76ZM113.811 7.88V5.88H111.811V7.88H113.811ZM120.531 7.88H122.531V5.88H120.531V7.88ZM120.531 10.76V12.76H122.531V10.76H120.531ZM118.611 10.76V8.76H116.611V10.76H118.611ZM118.611 26.12H116.611V28.12H118.611V26.12ZM123.411 26.12H125.411V24.12H123.411V26.12ZM123.411 29V27H110.931V29V31H123.411V29ZM110.931 29H112.931V26.12H110.931H108.931V29H110.931ZM110.931 26.12V28.12H115.731V26.12V24.12H110.931V26.12ZM115.731 26.12H117.731V10.76H115.731H113.731V26.12H115.731ZM115.731 10.76V8.76H113.811V10.76V12.76H115.731V10.76ZM113.811 10.76H115.811V7.88H113.811H111.811V10.76H113.811ZM113.811 7.88V9.88H120.531V7.88V5.88H113.811V7.88ZM120.531 7.88H118.531V10.76H120.531H122.531V7.88H120.531ZM120.531 10.76V8.76H118.611V10.76V12.76H120.531V10.76ZM118.611 10.76H116.611V26.12H118.611H120.611V10.76H118.611ZM118.611 26.12V28.12H123.411V26.12V24.12H118.611V26.12ZM123.411 26.12H121.411V29H123.411H125.411V26.12H123.411ZM138.777 29V31H140.777V29H138.777ZM135.897 29H133.897V31H135.897V29ZM135.897 28.04H137.897V26.04H135.897V28.04ZM134.937 28.04H132.937V30.04H134.937V28.04ZM134.937 26.12H136.937V24.12H134.937V26.12ZM133.977 26.12H131.977V28.12H133.977V26.12ZM133.977 24.2H135.977V22.2H133.977V24.2ZM133.017 24.2H131.017V26.2H133.017V24.2ZM133.017 22.28H135.017V20.28H133.017V22.28ZM132.057 22.28H130.057V24.28H132.057V22.28ZM132.057 20.36H134.057V18.36H132.057V20.36ZM131.097 20.36H129.097V22.36H131.097V20.36ZM131.097 18.44H133.097V16.44H131.097V18.44ZM130.137 18.44H128.137V20.44H130.137V18.44ZM130.137 16.52H132.137V14.52H130.137V16.52ZM129.177 16.52V14.52H127.177V16.52H129.177ZM129.177 29V31H131.177V29H129.177ZM126.297 29H124.297V31H126.297V29ZM126.297 7.88V5.88H124.297V7.88H126.297ZM128.217 7.88H130.217V5.88H128.217V7.88ZM128.217 9.8H126.217V11.8H128.217V9.8ZM129.177 9.8H131.177V7.8H129.177V9.8ZM129.177 11.72H127.177V13.72H129.177V11.72ZM130.137 11.72H132.137V9.72H130.137V11.72ZM130.137 13.64H128.137V15.64H130.137V13.64ZM131.097 13.64H133.097V11.64H131.097V13.64ZM131.097 15.56H129.097V17.56H131.097V15.56ZM132.057 15.56H134.057V13.56H132.057V15.56ZM132.057 17.48H130.057V19.48H132.057V17.48ZM133.017 17.48H135.017V15.48H133.017V17.48ZM133.017 19.4H131.017V21.4H133.017V19.4ZM133.977 19.4H135.977V17.4H133.977V19.4ZM133.977 21.32H131.977V23.32H133.977V21.32ZM134.937 21.32H136.937V19.32H134.937V21.32ZM134.937 23.24H132.937V25.24H134.937V23.24ZM135.897 23.24V25.24H137.897V23.24H135.897ZM135.897 7.88V5.88H133.897V7.88H135.897ZM138.777 7.88H140.777V5.88H138.777V7.88ZM138.777 29V27H135.897V29V31H138.777V29ZM135.897 29H137.897V28.04H135.897H133.897V29H135.897ZM135.897 28.04V26.04H134.937V28.04V30.04H135.897V28.04ZM134.937 28.04H136.937V26.12H134.937H132.937V28.04H134.937ZM134.937 26.12V24.12H133.977V26.12V28.12H134.937V26.12ZM133.977 26.12H135.977V24.2H133.977H131.977V26.12H133.977ZM133.977 24.2V22.2H133.017V24.2V26.2H133.977V24.2ZM133.017 24.2H135.017V22.28H133.017H131.017V24.2H133.017ZM133.017 22.28V20.28H132.057V22.28V24.28H133.017V22.28ZM132.057 22.28H134.057V20.36H132.057H130.057V22.28H132.057ZM132.057 20.36V18.36H131.097V20.36V22.36H132.057V20.36ZM131.097 20.36H133.097V18.44H131.097H129.097V20.36H131.097ZM131.097 18.44V16.44H130.137V18.44V20.44H131.097V18.44ZM130.137 18.44H132.137V16.52H130.137H128.137V18.44H130.137ZM130.137 16.52V14.52H129.177V16.52V18.52H130.137V16.52ZM129.177 16.52H127.177V29H129.177H131.177V16.52H129.177ZM129.177 29V27H126.297V29V31H129.177V29ZM126.297 29H128.297V7.88H126.297H124.297V29H126.297ZM126.297 7.88V9.88H128.217V7.88V5.88H126.297V7.88ZM128.217 7.88H126.217V9.8H128.217H130.217V7.88H128.217ZM128.217 9.8V11.8H129.177V9.8V7.8H128.217V9.8ZM129.177 9.8H127.177V11.72H129.177H131.177V9.8H129.177ZM129.177 11.72V13.72H130.137V11.72V9.72H129.177V11.72ZM130.137 11.72H128.137V13.64H130.137H132.137V11.72H130.137ZM130.137 13.64V15.64H131.097V13.64V11.64H130.137V13.64ZM131.097 13.64H129.097V15.56H131.097H133.097V13.64H131.097ZM131.097 15.56V17.56H132.057V15.56V13.56H131.097V15.56ZM132.057 15.56H130.057V17.48H132.057H134.057V15.56H132.057ZM132.057 17.48V19.48H133.017V17.48V15.48H132.057V17.48ZM133.017 17.48H131.017V19.4H133.017H135.017V17.48H133.017ZM133.017 19.4V21.4H133.977V19.4V17.4H133.017V19.4ZM133.977 19.4H131.977V21.32H133.977H135.977V19.4H133.977ZM133.977 21.32V23.32H134.937V21.32V19.32H133.977V21.32ZM134.937 21.32H132.937V23.24H134.937H136.937V21.32H134.937ZM134.937 23.24V25.24H135.897V23.24V21.24H134.937V23.24ZM135.897 23.24H137.897V7.88H135.897H133.897V23.24H135.897ZM135.897 7.88V9.88H138.777V7.88V5.88H135.897V7.88ZM138.777 7.88H136.777V29H138.777H140.777V7.88H138.777ZM154.143 29V31H156.143V29H154.143ZM151.263 29H149.263V31H151.263V29ZM151.263 24.2H153.263V22.2H151.263V24.2ZM144.543 24.2V22.2H142.543V24.2H144.543ZM144.543 29V31H146.543V29H144.543ZM141.663 29H139.663V31H141.663V29ZM141.663 18.44V16.44H139.663V18.44H141.663ZM142.623 18.44V20.44H144.623V18.44H142.623ZM142.623 16.52V14.52H140.623V16.52H142.623ZM143.583 16.52V18.52H145.583V16.52H143.583ZM143.583 14.6V12.6H141.583V14.6H143.583ZM144.543 14.6V16.6H146.543V14.6H144.543ZM144.543 12.68V10.68H142.543V12.68H144.543ZM145.503 12.68V14.68H147.503V12.68H145.503ZM145.503 10.76V8.76H143.503V10.76H145.503ZM146.463 10.76V12.76H148.463V10.76H146.463ZM146.463 8.84V6.84H144.463V8.84H146.463ZM147.423 8.84V10.84H149.423V8.84H147.423ZM147.423 7.88V5.88H145.423V7.88H147.423ZM148.383 7.88H150.383V5.88H148.383V7.88ZM148.383 8.84H146.383V10.84H148.383V8.84ZM149.343 8.84H151.343V6.84H149.343V8.84ZM149.343 10.76H147.343V12.76H149.343V10.76ZM150.303 10.76H152.303V8.76H150.303V10.76ZM150.303 12.68H148.303V14.68H150.303V12.68ZM151.263 12.68H153.263V10.68H151.263V12.68ZM151.263 14.6H149.263V16.6H151.263V14.6ZM152.223 14.6H154.223V12.6H152.223V14.6ZM152.223 16.52H150.223V18.52H152.223V16.52ZM153.183 16.52H155.183V14.52H153.183V16.52ZM153.183 18.44H151.183V20.44H153.183V18.44ZM154.143 18.44H156.143V16.44H154.143V18.44ZM151.263 21.32V23.32H153.263V21.32H151.263ZM151.263 19.4H153.263V17.4H151.263V19.4ZM150.303 19.4H148.303V21.4H150.303V19.4ZM150.303 17.48H152.303V15.48H150.303V17.48ZM149.343 17.48H147.343V19.48H149.343V17.48ZM149.343 15.56H151.343V13.56H149.343V15.56ZM148.383 15.56H146.383V17.56H148.383V15.56ZM148.383 13.64H150.383V11.64H148.383V13.64ZM147.423 13.64V11.64H145.423V13.64H147.423ZM147.423 15.56V17.56H149.423V15.56H147.423ZM146.463 15.56V13.56H144.463V15.56H146.463ZM146.463 17.48V19.48H148.463V17.48H146.463ZM145.503 17.48V15.48H143.503V17.48H145.503ZM145.503 19.4V21.4H147.503V19.4H145.503ZM144.543 19.4V17.4H142.543V19.4H144.543ZM144.543 21.32H142.543V23.32H144.543V21.32ZM154.143 29V27H151.263V29V31H154.143V29ZM151.263 29H153.263V24.2H151.263H149.263V29H151.263ZM151.263 24.2V22.2H144.543V24.2V26.2H151.263V24.2ZM144.543 24.2H142.543V29H144.543H146.543V24.2H144.543ZM144.543 29V27H141.663V29V31H144.543V29ZM141.663 29H143.663V21.32H141.663H139.663V29H141.663ZM141.663 21.32H143.663V20.36H141.663H139.663V21.32H141.663ZM141.663 20.36H143.663V18.44H141.663H139.663V20.36H141.663ZM141.663 18.44V20.44H142.623V18.44V16.44H141.663V18.44ZM142.623 18.44H144.623V16.52H142.623H140.623V18.44H142.623ZM142.623 16.52V18.52H143.583V16.52V14.52H142.623V16.52ZM143.583 16.52H145.583V14.6H143.583H141.583V16.52H143.583ZM143.583 14.6V16.6H144.543V14.6V12.6H143.583V14.6ZM144.543 14.6H146.543V12.68H144.543H142.543V14.6H144.543ZM144.543 12.68V14.68H145.503V12.68V10.68H144.543V12.68ZM145.503 12.68H147.503V10.76H145.503H143.503V12.68H145.503ZM145.503 10.76V12.76H146.463V10.76V8.76H145.503V10.76ZM146.463 10.76H148.463V8.84H146.463H144.463V10.76H146.463ZM146.463 8.84V10.84H147.423V8.84V6.84H146.463V8.84ZM147.423 8.84H149.423V7.88H147.423H145.423V8.84H147.423ZM147.423 7.88V9.88H148.383V7.88V5.88H147.423V7.88ZM148.383 7.88H146.383V8.84H148.383H150.383V7.88H148.383ZM148.383 8.84V10.84H149.343V8.84V6.84H148.383V8.84ZM149.343 8.84H147.343V10.76H149.343H151.343V8.84H149.343ZM149.343 10.76V12.76H150.303V10.76V8.76H149.343V10.76ZM150.303 10.76H148.303V12.68H150.303H152.303V10.76H150.303ZM150.303 12.68V14.68H151.263V12.68V10.68H150.303V12.68ZM151.263 12.68H149.263V14.6H151.263H153.263V12.68H151.263ZM151.263 14.6V16.6H152.223V14.6V12.6H151.263V14.6ZM152.223 14.6H150.223V16.52H152.223H154.223V14.6H152.223ZM152.223 16.52V18.52H153.183V16.52V14.52H152.223V16.52ZM153.183 16.52H151.183V18.44H153.183H155.183V16.52H153.183ZM153.183 18.44V20.44H154.143V18.44V16.44H153.183V18.44ZM154.143 18.44H152.143V20.36H154.143H156.143V18.44H154.143ZM154.143 20.36H152.143V21.32H154.143H156.143V20.36H154.143ZM154.143 21.32H152.143V29H154.143H156.143V21.32H154.143ZM151.263 21.32H153.263V20.36H151.263H149.263V21.32H151.263ZM151.263 20.36H153.263V19.4H151.263H149.263V20.36H151.263ZM151.263 19.4V17.4H150.303V19.4V21.4H151.263V19.4ZM150.303 19.4H152.303V17.48H150.303H148.303V19.4H150.303ZM150.303 17.48V15.48H149.343V17.48V19.48H150.303V17.48ZM149.343 17.48H151.343V15.56H149.343H147.343V17.48H149.343ZM149.343 15.56V13.56H148.383V15.56V17.56H149.343V15.56ZM148.383 15.56H150.383V13.64H148.383H146.383V15.56H148.383ZM148.383 13.64V11.64H147.423V13.64V15.64H148.383V13.64ZM147.423 13.64H145.423V15.56H147.423H149.423V13.64H147.423ZM147.423 15.56V13.56H146.463V15.56V17.56H147.423V15.56ZM146.463 15.56H144.463V17.48H146.463H148.463V15.56H146.463ZM146.463 17.48V15.48H145.503V17.48V19.48H146.463V17.48ZM145.503 17.48H143.503V19.4H145.503H147.503V17.48H145.503ZM145.503 19.4V17.4H144.543V19.4V21.4H145.503V19.4ZM144.543 19.4H142.543V20.36H144.543H146.543V19.4H144.543ZM144.543 20.36H142.543V21.32H144.543H146.543V20.36H144.543ZM144.543 21.32V23.32H151.263V21.32V19.32H144.543V21.32ZM169.509 29V31H171.509V29H169.509ZM157.029 29H155.029V31H157.029V29ZM157.029 7.88V5.88H155.029V7.88H157.029ZM159.909 7.88H161.909V5.88H159.909V7.88ZM159.909 26.12H157.909V28.12H159.909V26.12ZM169.509 26.12H171.509V24.12H169.509V26.12ZM169.509 29V27H157.029V29V31H169.509V29ZM157.029 29H159.029V7.88H157.029H155.029V29H157.029ZM157.029 7.88V9.88H159.909V7.88V5.88H157.029V7.88ZM159.909 7.88H157.909V26.12H159.909H161.909V7.88H159.909ZM159.909 26.12V28.12H169.509V26.12V24.12H159.909V26.12ZM169.509 26.12H167.509V29H169.509H171.509V26.12H169.509Z" fill="white" mask="url(#path-1-outside-1_1280_9027)"/>
<mask id="path-3-outside-2_1280_9027" maskUnits="userSpaceOnUse" x="55" y="44" width="156" height="26" fill="black">
<rect fill="white" x="55" y="44" width="156" height="26"/>
<path d="M70.1288 68H57.6488V46.88H70.1288V49.76H60.5288V55.52H68.2088V58.4H60.5288V65.12H70.1288V68ZM85.495 56.48H84.535V58.4H83.575V60.32H82.615V62.24H81.655V64.16H80.695V66.08H79.735V68H78.775V66.08H77.815V64.16H76.855V62.24H75.895V60.32H74.935V58.4H73.975V56.48H73.015V46.88H75.895V55.52H76.855V57.44H77.815V59.36H78.775V61.28H79.735V59.36H80.695V57.44H81.655V55.52H82.615V46.88H85.495V56.48ZM100.861 68H97.9812V63.2H91.2612V68H88.3812V60.32V59.36V57.44H89.3412V55.52H90.3012V53.6H91.2612V51.68H92.2212V49.76H93.1812V47.84H94.1412V46.88H95.1012V47.84H96.0612V49.76H97.0212V51.68H97.9812V53.6H98.9412V55.52H99.9012V57.44H100.861V59.36V60.32V68ZM97.9812 60.32V59.36V58.4H97.0212V56.48H96.0612V54.56H95.1012V52.64H94.1412V54.56H93.1812V56.48H92.2212V58.4H91.2612V59.36V60.32H97.9812ZM116.227 68H103.747V46.88H106.627V65.12H116.227V68ZM131.594 65.12H130.634V66.08H129.674V67.04H128.714V68H121.994V67.04H121.034V66.08H120.074V65.12H119.114V46.88H121.994V64.16H122.954V65.12H127.754V64.16H128.714V46.88H131.594V65.12ZM146.96 68H144.08V63.2H137.36V68H134.48V60.32V59.36V57.44H135.44V55.52H136.4V53.6H137.36V51.68H138.32V49.76H139.28V47.84H140.24V46.88H141.2V47.84H142.16V49.76H143.12V51.68H144.08V53.6H145.04V55.52H146V57.44H146.96V59.36V60.32V68ZM144.08 60.32V59.36V58.4H143.12V56.48H142.16V54.56H141.2V52.64H140.24V54.56H139.28V56.48H138.32V58.4H137.36V59.36V60.32H144.08ZM162.326 49.76H157.526V68H154.646V49.76H149.846V46.88H162.326V49.76ZM177.693 68H165.213V65.12H170.013V49.76H168.093V46.88H174.813V49.76H172.893V65.12H177.693V68ZM193.059 64.16H192.099V65.12H191.139V66.08H190.179V67.04H189.219V68H184.419V67.04H183.459V66.08H182.499V65.12H181.539V64.16H180.579V50.72H181.539V49.76H182.499V48.8H183.459V47.84H184.419V46.88H189.219V47.84H190.179V48.8H191.139V49.76H192.099V50.72H193.059V64.16ZM190.179 63.2V51.68H189.219V50.72H188.259V49.76H185.379V50.72H184.419V51.68H183.459V63.2H184.419V64.16H185.379V65.12H188.259V64.16H189.219V63.2H190.179ZM208.425 68H205.545V67.04H204.585V65.12H203.625V63.2H202.665V61.28H201.705V59.36H200.745V57.44H199.785V55.52H198.825V68H195.945V46.88H197.865V48.8H198.825V50.72H199.785V52.64H200.745V54.56H201.705V56.48H202.665V58.4H203.625V60.32H204.585V62.24H205.545V46.88H208.425V68Z"/>
</mask>
<path d="M70.1288 68V70H72.1288V68H70.1288ZM57.6488 68H55.6488V70H57.6488V68ZM57.6488 46.88V44.88H55.6488V46.88H57.6488ZM70.1288 46.88H72.1288V44.88H70.1288V46.88ZM70.1288 49.76V51.76H72.1288V49.76H70.1288ZM60.5288 49.76V47.76H58.5288V49.76H60.5288ZM60.5288 55.52H58.5288V57.52H60.5288V55.52ZM68.2088 55.52H70.2088V53.52H68.2088V55.52ZM68.2088 58.4V60.4H70.2088V58.4H68.2088ZM60.5288 58.4V56.4H58.5288V58.4H60.5288ZM60.5288 65.12H58.5288V67.12H60.5288V65.12ZM70.1288 65.12H72.1288V63.12H70.1288V65.12ZM70.1288 68V66H57.6488V68V70H70.1288V68ZM57.6488 68H59.6488V46.88H57.6488H55.6488V68H57.6488ZM57.6488 46.88V48.88H70.1288V46.88V44.88H57.6488V46.88ZM70.1288 46.88H68.1288V49.76H70.1288H72.1288V46.88H70.1288ZM70.1288 49.76V47.76H60.5288V49.76V51.76H70.1288V49.76ZM60.5288 49.76H58.5288V55.52H60.5288H62.5288V49.76H60.5288ZM60.5288 55.52V57.52H68.2088V55.52V53.52H60.5288V55.52ZM68.2088 55.52H66.2088V58.4H68.2088H70.2088V55.52H68.2088ZM68.2088 58.4V56.4H60.5288V58.4V60.4H68.2088V58.4ZM60.5288 58.4H58.5288V65.12H60.5288H62.5288V58.4H60.5288ZM60.5288 65.12V67.12H70.1288V65.12V63.12H60.5288V65.12ZM70.1288 65.12H68.1288V68H70.1288H72.1288V65.12H70.1288ZM85.495 56.48V58.48H87.495V56.48H85.495ZM84.535 56.48V54.48H82.535V56.48H84.535ZM84.535 58.4V60.4H86.535V58.4H84.535ZM83.575 58.4V56.4H81.575V58.4H83.575ZM83.575 60.32V62.32H85.575V60.32H83.575ZM82.615 60.32V58.32H80.615V60.32H82.615ZM82.615 62.24V64.24H84.615V62.24H82.615ZM81.655 62.24V60.24H79.655V62.24H81.655ZM81.655 64.16V66.16H83.655V64.16H81.655ZM80.695 64.16V62.16H78.695V64.16H80.695ZM80.695 66.08V68.08H82.695V66.08H80.695ZM79.735 66.08V64.08H77.735V66.08H79.735ZM79.735 68V70H81.735V68H79.735ZM78.775 68H76.775V70H78.775V68ZM78.775 66.08H80.775V64.08H78.775V66.08ZM77.815 66.08H75.815V68.08H77.815V66.08ZM77.815 64.16H79.815V62.16H77.815V64.16ZM76.855 64.16H74.855V66.16H76.855V64.16ZM76.855 62.24H78.855V60.24H76.855V62.24ZM75.895 62.24H73.895V64.24H75.895V62.24ZM75.895 60.32H77.895V58.32H75.895V60.32ZM74.935 60.32H72.935V62.32H74.935V60.32ZM74.935 58.4H76.935V56.4H74.935V58.4ZM73.975 58.4H71.975V60.4H73.975V58.4ZM73.975 56.48H75.975V54.48H73.975V56.48ZM73.015 56.48H71.015V58.48H73.015V56.48ZM73.015 46.88V44.88H71.015V46.88H73.015ZM75.895 46.88H77.895V44.88H75.895V46.88ZM75.895 55.52H73.895V57.52H75.895V55.52ZM76.855 55.52H78.855V53.52H76.855V55.52ZM76.855 57.44H74.855V59.44H76.855V57.44ZM77.815 57.44H79.815V55.44H77.815V57.44ZM77.815 59.36H75.815V61.36H77.815V59.36ZM78.775 59.36H80.775V57.36H78.775V59.36ZM78.775 61.28H76.775V63.28H78.775V61.28ZM79.735 61.28V63.28H81.735V61.28H79.735ZM79.735 59.36V57.36H77.735V59.36H79.735ZM80.695 59.36V61.36H82.695V59.36H80.695ZM80.695 57.44V55.44H78.695V57.44H80.695ZM81.655 57.44V59.44H83.655V57.44H81.655ZM81.655 55.52V53.52H79.655V55.52H81.655ZM82.615 55.52V57.52H84.615V55.52H82.615ZM82.615 46.88V44.88H80.615V46.88H82.615ZM85.495 46.88H87.495V44.88H85.495V46.88ZM85.495 56.48V54.48H84.535V56.48V58.48H85.495V56.48ZM84.535 56.48H82.535V58.4H84.535H86.535V56.48H84.535ZM84.535 58.4V56.4H83.575V58.4V60.4H84.535V58.4ZM83.575 58.4H81.575V60.32H83.575H85.575V58.4H83.575ZM83.575 60.32V58.32H82.615V60.32V62.32H83.575V60.32ZM82.615 60.32H80.615V62.24H82.615H84.615V60.32H82.615ZM82.615 62.24V60.24H81.655V62.24V64.24H82.615V62.24ZM81.655 62.24H79.655V64.16H81.655H83.655V62.24H81.655ZM81.655 64.16V62.16H80.695V64.16V66.16H81.655V64.16ZM80.695 64.16H78.695V66.08H80.695H82.695V64.16H80.695ZM80.695 66.08V64.08H79.735V66.08V68.08H80.695V66.08ZM79.735 66.08H77.735V68H79.735H81.735V66.08H79.735ZM79.735 68V66H78.775V68V70H79.735V68ZM78.775 68H80.775V66.08H78.775H76.775V68H78.775ZM78.775 66.08V64.08H77.815V66.08V68.08H78.775V66.08ZM77.815 66.08H79.815V64.16H77.815H75.815V66.08H77.815ZM77.815 64.16V62.16H76.855V64.16V66.16H77.815V64.16ZM76.855 64.16H78.855V62.24H76.855H74.855V64.16H76.855ZM76.855 62.24V60.24H75.895V62.24V64.24H76.855V62.24ZM75.895 62.24H77.895V60.32H75.895H73.895V62.24H75.895ZM75.895 60.32V58.32H74.935V60.32V62.32H75.895V60.32ZM74.935 60.32H76.935V58.4H74.935H72.935V60.32H74.935ZM74.935 58.4V56.4H73.975V58.4V60.4H74.935V58.4ZM73.975 58.4H75.975V56.48H73.975H71.975V58.4H73.975ZM73.975 56.48V54.48H73.015V56.48V58.48H73.975V56.48ZM73.015 56.48H75.015V46.88H73.015H71.015V56.48H73.015ZM73.015 46.88V48.88H75.895V46.88V44.88H73.015V46.88ZM75.895 46.88H73.895V55.52H75.895H77.895V46.88H75.895ZM75.895 55.52V57.52H76.855V55.52V53.52H75.895V55.52ZM76.855 55.52H74.855V57.44H76.855H78.855V55.52H76.855ZM76.855 57.44V59.44H77.815V57.44V55.44H76.855V57.44ZM77.815 57.44H75.815V59.36H77.815H79.815V57.44H77.815ZM77.815 59.36V61.36H78.775V59.36V57.36H77.815V59.36ZM78.775 59.36H76.775V61.28H78.775H80.775V59.36H78.775ZM78.775 61.28V63.28H79.735V61.28V59.28H78.775V61.28ZM79.735 61.28H81.735V59.36H79.735H77.735V61.28H79.735ZM79.735 59.36V61.36H80.695V59.36V57.36H79.735V59.36ZM80.695 59.36H82.695V57.44H80.695H78.695V59.36H80.695ZM80.695 57.44V59.44H81.655V57.44V55.44H80.695V57.44ZM81.655 57.44H83.655V55.52H81.655H79.655V57.44H81.655ZM81.655 55.52V57.52H82.615V55.52V53.52H81.655V55.52ZM82.615 55.52H84.615V46.88H82.615H80.615V55.52H82.615ZM82.615 46.88V48.88H85.495V46.88V44.88H82.615V46.88ZM85.495 46.88H83.495V56.48H85.495H87.495V46.88H85.495ZM100.861 68V70H102.861V68H100.861ZM97.9812 68H95.9812V70H97.9812V68ZM97.9812 63.2H99.9812V61.2H97.9812V63.2ZM91.2612 63.2V61.2H89.2612V63.2H91.2612ZM91.2612 68V70H93.2612V68H91.2612ZM88.3812 68H86.3812V70H88.3812V68ZM88.3812 57.44V55.44H86.3812V57.44H88.3812ZM89.3412 57.44V59.44H91.3412V57.44H89.3412ZM89.3412 55.52V53.52H87.3412V55.52H89.3412ZM90.3012 55.52V57.52H92.3012V55.52H90.3012ZM90.3012 53.6V51.6H88.3012V53.6H90.3012ZM91.2612 53.6V55.6H93.2612V53.6H91.2612ZM91.2612 51.68V49.68H89.2612V51.68H91.2612ZM92.2212 51.68V53.68H94.2212V51.68H92.2212ZM92.2212 49.76V47.76H90.2212V49.76H92.2212ZM93.1812 49.76V51.76H95.1812V49.76H93.1812ZM93.1812 47.84V45.84H91.1812V47.84H93.1812ZM94.1412 47.84V49.84H96.1412V47.84H94.1412ZM94.1412 46.88V44.88H92.1412V46.88H94.1412ZM95.1012 46.88H97.1012V44.88H95.1012V46.88ZM95.1012 47.84H93.1012V49.84H95.1012V47.84ZM96.0612 47.84H98.0612V45.84H96.0612V47.84ZM96.0612 49.76H94.0612V51.76H96.0612V49.76ZM97.0212 49.76H99.0212V47.76H97.0212V49.76ZM97.0212 51.68H95.0212V53.68H97.0212V51.68ZM97.9812 51.68H99.9812V49.68H97.9812V51.68ZM97.9812 53.6H95.9812V55.6H97.9812V53.6ZM98.9412 53.6H100.941V51.6H98.9412V53.6ZM98.9412 55.52H96.9412V57.52H98.9412V55.52ZM99.9012 55.52H101.901V53.52H99.9012V55.52ZM99.9012 57.44H97.9012V59.44H99.9012V57.44ZM100.861 57.44H102.861V55.44H100.861V57.44ZM97.9812 60.32V62.32H99.9812V60.32H97.9812ZM97.9812 58.4H99.9812V56.4H97.9812V58.4ZM97.0212 58.4H95.0212V60.4H97.0212V58.4ZM97.0212 56.48H99.0212V54.48H97.0212V56.48ZM96.0612 56.48H94.0612V58.48H96.0612V56.48ZM96.0612 54.56H98.0612V52.56H96.0612V54.56ZM95.1012 54.56H93.1012V56.56H95.1012V54.56ZM95.1012 52.64H97.1012V50.64H95.1012V52.64ZM94.1412 52.64V50.64H92.1412V52.64H94.1412ZM94.1412 54.56V56.56H96.1412V54.56H94.1412ZM93.1812 54.56V52.56H91.1812V54.56H93.1812ZM93.1812 56.48V58.48H95.1812V56.48H93.1812ZM92.2212 56.48V54.48H90.2212V56.48H92.2212ZM92.2212 58.4V60.4H94.2212V58.4H92.2212ZM91.2612 58.4V56.4H89.2612V58.4H91.2612ZM91.2612 60.32H89.2612V62.32H91.2612V60.32ZM100.861 68V66H97.9812V68V70H100.861V68ZM97.9812 68H99.9812V63.2H97.9812H95.9812V68H97.9812ZM97.9812 63.2V61.2H91.2612V63.2V65.2H97.9812V63.2ZM91.2612 63.2H89.2612V68H91.2612H93.2612V63.2H91.2612ZM91.2612 68V66H88.3812V68V70H91.2612V68ZM88.3812 68H90.3812V60.32H88.3812H86.3812V68H88.3812ZM88.3812 60.32H90.3812V59.36H88.3812H86.3812V60.32H88.3812ZM88.3812 59.36H90.3812V57.44H88.3812H86.3812V59.36H88.3812ZM88.3812 57.44V59.44H89.3412V57.44V55.44H88.3812V57.44ZM89.3412 57.44H91.3412V55.52H89.3412H87.3412V57.44H89.3412ZM89.3412 55.52V57.52H90.3012V55.52V53.52H89.3412V55.52ZM90.3012 55.52H92.3012V53.6H90.3012H88.3012V55.52H90.3012ZM90.3012 53.6V55.6H91.2612V53.6V51.6H90.3012V53.6ZM91.2612 53.6H93.2612V51.68H91.2612H89.2612V53.6H91.2612ZM91.2612 51.68V53.68H92.2212V51.68V49.68H91.2612V51.68ZM92.2212 51.68H94.2212V49.76H92.2212H90.2212V51.68H92.2212ZM92.2212 49.76V51.76H93.1812V49.76V47.76H92.2212V49.76ZM93.1812 49.76H95.1812V47.84H93.1812H91.1812V49.76H93.1812ZM93.1812 47.84V49.84H94.1412V47.84V45.84H93.1812V47.84ZM94.1412 47.84H96.1412V46.88H94.1412H92.1412V47.84H94.1412ZM94.1412 46.88V48.88H95.1012V46.88V44.88H94.1412V46.88ZM95.1012 46.88H93.1012V47.84H95.1012H97.1012V46.88H95.1012ZM95.1012 47.84V49.84H96.0612V47.84V45.84H95.1012V47.84ZM96.0612 47.84H94.0612V49.76H96.0612H98.0612V47.84H96.0612ZM96.0612 49.76V51.76H97.0212V49.76V47.76H96.0612V49.76ZM97.0212 49.76H95.0212V51.68H97.0212H99.0212V49.76H97.0212ZM97.0212 51.68V53.68H97.9812V51.68V49.68H97.0212V51.68ZM97.9812 51.68H95.9812V53.6H97.9812H99.9812V51.68H97.9812ZM97.9812 53.6V55.6H98.9412V53.6V51.6H97.9812V53.6ZM98.9412 53.6H96.9412V55.52H98.9412H100.941V53.6H98.9412ZM98.9412 55.52V57.52H99.9012V55.52V53.52H98.9412V55.52ZM99.9012 55.52H97.9012V57.44H99.9012H101.901V55.52H99.9012ZM99.9012 57.44V59.44H100.861V57.44V55.44H99.9012V57.44ZM100.861 57.44H98.8612V59.36H100.861H102.861V57.44H100.861ZM100.861 59.36H98.8612V60.32H100.861H102.861V59.36H100.861ZM100.861 60.32H98.8612V68H100.861H102.861V60.32H100.861ZM97.9812 60.32H99.9812V59.36H97.9812H95.9812V60.32H97.9812ZM97.9812 59.36H99.9812V58.4H97.9812H95.9812V59.36H97.9812ZM97.9812 58.4V56.4H97.0212V58.4V60.4H97.9812V58.4ZM97.0212 58.4H99.0212V56.48H97.0212H95.0212V58.4H97.0212ZM97.0212 56.48V54.48H96.0612V56.48V58.48H97.0212V56.48ZM96.0612 56.48H98.0612V54.56H96.0612H94.0612V56.48H96.0612ZM96.0612 54.56V52.56H95.1012V54.56V56.56H96.0612V54.56ZM95.1012 54.56H97.1012V52.64H95.1012H93.1012V54.56H95.1012ZM95.1012 52.64V50.64H94.1412V52.64V54.64H95.1012V52.64ZM94.1412 52.64H92.1412V54.56H94.1412H96.1412V52.64H94.1412ZM94.1412 54.56V52.56H93.1812V54.56V56.56H94.1412V54.56ZM93.1812 54.56H91.1812V56.48H93.1812H95.1812V54.56H93.1812ZM93.1812 56.48V54.48H92.2212V56.48V58.48H93.1812V56.48ZM92.2212 56.48H90.2212V58.4H92.2212H94.2212V56.48H92.2212ZM92.2212 58.4V56.4H91.2612V58.4V60.4H92.2212V58.4ZM91.2612 58.4H89.2612V59.36H91.2612H93.2612V58.4H91.2612ZM91.2612 59.36H89.2612V60.32H91.2612H93.2612V59.36H91.2612ZM91.2612 60.32V62.32H97.9812V60.32V58.32H91.2612V60.32ZM116.227 68V70H118.227V68H116.227ZM103.747 68H101.747V70H103.747V68ZM103.747 46.88V44.88H101.747V46.88H103.747ZM106.627 46.88H108.627V44.88H106.627V46.88ZM106.627 65.12H104.627V67.12H106.627V65.12ZM116.227 65.12H118.227V63.12H116.227V65.12ZM116.227 68V66H103.747V68V70H116.227V68ZM103.747 68H105.747V46.88H103.747H101.747V68H103.747ZM103.747 46.88V48.88H106.627V46.88V44.88H103.747V46.88ZM106.627 46.88H104.627V65.12H106.627H108.627V46.88H106.627ZM106.627 65.12V67.12H116.227V65.12V63.12H106.627V65.12ZM116.227 65.12H114.227V68H116.227H118.227V65.12H116.227ZM131.594 65.12V67.12H133.594V65.12H131.594ZM130.634 65.12V63.12H128.634V65.12H130.634ZM130.634 66.08V68.08H132.634V66.08H130.634ZM129.674 66.08V64.08H127.674V66.08H129.674ZM129.674 67.04V69.04H131.674V67.04H129.674ZM128.714 67.04V65.04H126.714V67.04H128.714ZM128.714 68V70H130.714V68H128.714ZM121.994 68H119.994V70H121.994V68ZM121.994 67.04H123.994V65.04H121.994V67.04ZM121.034 67.04H119.034V69.04H121.034V67.04ZM121.034 66.08H123.034V64.08H121.034V66.08ZM120.074 66.08H118.074V68.08H120.074V66.08ZM120.074 65.12H122.074V63.12H120.074V65.12ZM119.114 65.12H117.114V67.12H119.114V65.12ZM119.114 46.88V44.88H117.114V46.88H119.114ZM121.994 46.88H123.994V44.88H121.994V46.88ZM121.994 64.16H119.994V66.16H121.994V64.16ZM122.954 64.16H124.954V62.16H122.954V64.16ZM122.954 65.12H120.954V67.12H122.954V65.12ZM127.754 65.12V67.12H129.754V65.12H127.754ZM127.754 64.16V62.16H125.754V64.16H127.754ZM128.714 64.16V66.16H130.714V64.16H128.714ZM128.714 46.88V44.88H126.714V46.88H128.714ZM131.594 46.88H133.594V44.88H131.594V46.88ZM131.594 65.12V63.12H130.634V65.12V67.12H131.594V65.12ZM130.634 65.12H128.634V66.08H130.634H132.634V65.12H130.634ZM130.634 66.08V64.08H129.674V66.08V68.08H130.634V66.08ZM129.674 66.08H127.674V67.04H129.674H131.674V66.08H129.674ZM129.674 67.04V65.04H128.714V67.04V69.04H129.674V67.04ZM128.714 67.04H126.714V68H128.714H130.714V67.04H128.714ZM128.714 68V66H121.994V68V70H128.714V68ZM121.994 68H123.994V67.04H121.994H119.994V68H121.994ZM121.994 67.04V65.04H121.034V67.04V69.04H121.994V67.04ZM121.034 67.04H123.034V66.08H121.034H119.034V67.04H121.034ZM121.034 66.08V64.08H120.074V66.08V68.08H121.034V66.08ZM120.074 66.08H122.074V65.12H120.074H118.074V66.08H120.074ZM120.074 65.12V63.12H119.114V65.12V67.12H120.074V65.12ZM119.114 65.12H121.114V46.88H119.114H117.114V65.12H119.114ZM119.114 46.88V48.88H121.994V46.88V44.88H119.114V46.88ZM121.994 46.88H119.994V64.16H121.994H123.994V46.88H121.994ZM121.994 64.16V66.16H122.954V64.16V62.16H121.994V64.16ZM122.954 64.16H120.954V65.12H122.954H124.954V64.16H122.954ZM122.954 65.12V67.12H127.754V65.12V63.12H122.954V65.12ZM127.754 65.12H129.754V64.16H127.754H125.754V65.12H127.754ZM127.754 64.16V66.16H128.714V64.16V62.16H127.754V64.16ZM128.714 64.16H130.714V46.88H128.714H126.714V64.16H128.714ZM128.714 46.88V48.88H131.594V46.88V44.88H128.714V46.88ZM131.594 46.88H129.594V65.12H131.594H133.594V46.88H131.594ZM146.96 68V70H148.96V68H146.96ZM144.08 68H142.08V70H144.08V68ZM144.08 63.2H146.08V61.2H144.08V63.2ZM137.36 63.2V61.2H135.36V63.2H137.36ZM137.36 68V70H139.36V68H137.36ZM134.48 68H132.48V70H134.48V68ZM134.48 57.44V55.44H132.48V57.44H134.48ZM135.44 57.44V59.44H137.44V57.44H135.44ZM135.44 55.52V53.52H133.44V55.52H135.44ZM136.4 55.52V57.52H138.4V55.52H136.4ZM136.4 53.6V51.6H134.4V53.6H136.4ZM137.36 53.6V55.6H139.36V53.6H137.36ZM137.36 51.68V49.68H135.36V51.68H137.36ZM138.32 51.68V53.68H140.32V51.68H138.32ZM138.32 49.76V47.76H136.32V49.76H138.32ZM139.28 49.76V51.76H141.28V49.76H139.28ZM139.28 47.84V45.84H137.28V47.84H139.28ZM140.24 47.84V49.84H142.24V47.84H140.24ZM140.24 46.88V44.88H138.24V46.88H140.24ZM141.2 46.88H143.2V44.88H141.2V46.88ZM141.2 47.84H139.2V49.84H141.2V47.84ZM142.16 47.84H144.16V45.84H142.16V47.84ZM142.16 49.76H140.16V51.76H142.16V49.76ZM143.12 49.76H145.12V47.76H143.12V49.76ZM143.12 51.68H141.12V53.68H143.12V51.68ZM144.08 51.68H146.08V49.68H144.08V51.68ZM144.08 53.6H142.08V55.6H144.08V53.6ZM145.04 53.6H147.04V51.6H145.04V53.6ZM145.04 55.52H143.04V57.52H145.04V55.52ZM146 55.52H148V53.52H146V55.52ZM146 57.44H144V59.44H146V57.44ZM146.96 57.44H148.96V55.44H146.96V57.44ZM144.08 60.32V62.32H146.08V60.32H144.08ZM144.08 58.4H146.08V56.4H144.08V58.4ZM143.12 58.4H141.12V60.4H143.12V58.4ZM143.12 56.48H145.12V54.48H143.12V56.48ZM142.16 56.48H140.16V58.48H142.16V56.48ZM142.16 54.56H144.16V52.56H142.16V54.56ZM141.2 54.56H139.2V56.56H141.2V54.56ZM141.2 52.64H143.2V50.64H141.2V52.64ZM140.24 52.64V50.64H138.24V52.64H140.24ZM140.24 54.56V56.56H142.24V54.56H140.24ZM139.28 54.56V52.56H137.28V54.56H139.28ZM139.28 56.48V58.48H141.28V56.48H139.28ZM138.32 56.48V54.48H136.32V56.48H138.32ZM138.32 58.4V60.4H140.32V58.4H138.32ZM137.36 58.4V56.4H135.36V58.4H137.36ZM137.36 60.32H135.36V62.32H137.36V60.32ZM146.96 68V66H144.08V68V70H146.96V68ZM144.08 68H146.08V63.2H144.08H142.08V68H144.08ZM144.08 63.2V61.2H137.36V63.2V65.2H144.08V63.2ZM137.36 63.2H135.36V68H137.36H139.36V63.2H137.36ZM137.36 68V66H134.48V68V70H137.36V68ZM134.48 68H136.48V60.32H134.48H132.48V68H134.48ZM134.48 60.32H136.48V59.36H134.48H132.48V60.32H134.48ZM134.48 59.36H136.48V57.44H134.48H132.48V59.36H134.48ZM134.48 57.44V59.44H135.44V57.44V55.44H134.48V57.44ZM135.44 57.44H137.44V55.52H135.44H133.44V57.44H135.44ZM135.44 55.52V57.52H136.4V55.52V53.52H135.44V55.52ZM136.4 55.52H138.4V53.6H136.4H134.4V55.52H136.4ZM136.4 53.6V55.6H137.36V53.6V51.6H136.4V53.6ZM137.36 53.6H139.36V51.68H137.36H135.36V53.6H137.36ZM137.36 51.68V53.68H138.32V51.68V49.68H137.36V51.68ZM138.32 51.68H140.32V49.76H138.32H136.32V51.68H138.32ZM138.32 49.76V51.76H139.28V49.76V47.76H138.32V49.76ZM139.28 49.76H141.28V47.84H139.28H137.28V49.76H139.28ZM139.28 47.84V49.84H140.24V47.84V45.84H139.28V47.84ZM140.24 47.84H142.24V46.88H140.24H138.24V47.84H140.24ZM140.24 46.88V48.88H141.2V46.88V44.88H140.24V46.88ZM141.2 46.88H139.2V47.84H141.2H143.2V46.88H141.2ZM141.2 47.84V49.84H142.16V47.84V45.84H141.2V47.84ZM142.16 47.84H140.16V49.76H142.16H144.16V47.84H142.16ZM142.16 49.76V51.76H143.12V49.76V47.76H142.16V49.76ZM143.12 49.76H141.12V51.68H143.12H145.12V49.76H143.12ZM143.12 51.68V53.68H144.08V51.68V49.68H143.12V51.68ZM144.08 51.68H142.08V53.6H144.08H146.08V51.68H144.08ZM144.08 53.6V55.6H145.04V53.6V51.6H144.08V53.6ZM145.04 53.6H143.04V55.52H145.04H147.04V53.6H145.04ZM145.04 55.52V57.52H146V55.52V53.52H145.04V55.52ZM146 55.52H144V57.44H146H148V55.52H146ZM146 57.44V59.44H146.96V57.44V55.44H146V57.44ZM146.96 57.44H144.96V59.36H146.96H148.96V57.44H146.96ZM146.96 59.36H144.96V60.32H146.96H148.96V59.36H146.96ZM146.96 60.32H144.96V68H146.96H148.96V60.32H146.96ZM144.08 60.32H146.08V59.36H144.08H142.08V60.32H144.08ZM144.08 59.36H146.08V58.4H144.08H142.08V59.36H144.08ZM144.08 58.4V56.4H143.12V58.4V60.4H144.08V58.4ZM143.12 58.4H145.12V56.48H143.12H141.12V58.4H143.12ZM143.12 56.48V54.48H142.16V56.48V58.48H143.12V56.48ZM142.16 56.48H144.16V54.56H142.16H140.16V56.48H142.16ZM142.16 54.56V52.56H141.2V54.56V56.56H142.16V54.56ZM141.2 54.56H143.2V52.64H141.2H139.2V54.56H141.2ZM141.2 52.64V50.64H140.24V52.64V54.64H141.2V52.64ZM140.24 52.64H138.24V54.56H140.24H142.24V52.64H140.24ZM140.24 54.56V52.56H139.28V54.56V56.56H140.24V54.56ZM139.28 54.56H137.28V56.48H139.28H141.28V54.56H139.28ZM139.28 56.48V54.48H138.32V56.48V58.48H139.28V56.48ZM138.32 56.48H136.32V58.4H138.32H140.32V56.48H138.32ZM138.32 58.4V56.4H137.36V58.4V60.4H138.32V58.4ZM137.36 58.4H135.36V59.36H137.36H139.36V58.4H137.36ZM137.36 59.36H135.36V60.32H137.36H139.36V59.36H137.36ZM137.36 60.32V62.32H144.08V60.32V58.32H137.36V60.32ZM162.326 49.76V51.76H164.326V49.76H162.326ZM157.526 49.76V47.76H155.526V49.76H157.526ZM157.526 68V70H159.526V68H157.526ZM154.646 68H152.646V70H154.646V68ZM154.646 49.76H156.646V47.76H154.646V49.76ZM149.846 49.76H147.846V51.76H149.846V49.76ZM149.846 46.88V44.88H147.846V46.88H149.846ZM162.326 46.88H164.326V44.88H162.326V46.88ZM162.326 49.76V47.76H157.526V49.76V51.76H162.326V49.76ZM157.526 49.76H155.526V68H157.526H159.526V49.76H157.526ZM157.526 68V66H154.646V68V70H157.526V68ZM154.646 68H156.646V49.76H154.646H152.646V68H154.646ZM154.646 49.76V47.76H149.846V49.76V51.76H154.646V49.76ZM149.846 49.76H151.846V46.88H149.846H147.846V49.76H149.846ZM149.846 46.88V48.88H162.326V46.88V44.88H149.846V46.88ZM162.326 46.88H160.326V49.76H162.326H164.326V46.88H162.326ZM177.693 68V70H179.693V68H177.693ZM165.213 68H163.213V70H165.213V68ZM165.213 65.12V63.12H163.213V65.12H165.213ZM170.013 65.12V67.12H172.013V65.12H170.013ZM170.013 49.76H172.013V47.76H170.013V49.76ZM168.093 49.76H166.093V51.76H168.093V49.76ZM168.093 46.88V44.88H166.093V46.88H168.093ZM174.813 46.88H176.813V44.88H174.813V46.88ZM174.813 49.76V51.76H176.813V49.76H174.813ZM172.893 49.76V47.76H170.893V49.76H172.893ZM172.893 65.12H170.893V67.12H172.893V65.12ZM177.693 65.12H179.693V63.12H177.693V65.12ZM177.693 68V66H165.213V68V70H177.693V68ZM165.213 68H167.213V65.12H165.213H163.213V68H165.213ZM165.213 65.12V67.12H170.013V65.12V63.12H165.213V65.12ZM170.013 65.12H172.013V49.76H170.013H168.013V65.12H170.013ZM170.013 49.76V47.76H168.093V49.76V51.76H170.013V49.76ZM168.093 49.76H170.093V46.88H168.093H166.093V49.76H168.093ZM168.093 46.88V48.88H174.813V46.88V44.88H168.093V46.88ZM174.813 46.88H172.813V49.76H174.813H176.813V46.88H174.813ZM174.813 49.76V47.76H172.893V49.76V51.76H174.813V49.76ZM172.893 49.76H170.893V65.12H172.893H174.893V49.76H172.893ZM172.893 65.12V67.12H177.693V65.12V63.12H172.893V65.12ZM177.693 65.12H175.693V68H177.693H179.693V65.12H177.693ZM193.059 64.16V66.16H195.059V64.16H193.059ZM192.099 64.16V62.16H190.099V64.16H192.099ZM192.099 65.12V67.12H194.099V65.12H192.099ZM191.139 65.12V63.12H189.139V65.12H191.139ZM191.139 66.08V68.08H193.139V66.08H191.139ZM190.179 66.08V64.08H188.179V66.08H190.179ZM190.179 67.04V69.04H192.179V67.04H190.179ZM189.219 67.04V65.04H187.219V67.04H189.219ZM189.219 68V70H191.219V68H189.219ZM184.419 68H182.419V70H184.419V68ZM184.419 67.04H186.419V65.04H184.419V67.04ZM183.459 67.04H181.459V69.04H183.459V67.04ZM183.459 66.08H185.459V64.08H183.459V66.08ZM182.499 66.08H180.499V68.08H182.499V66.08ZM182.499 65.12H184.499V63.12H182.499V65.12ZM181.539 65.12H179.539V67.12H181.539V65.12ZM181.539 64.16H183.539V62.16H181.539V64.16ZM180.579 64.16H178.579V66.16H180.579V64.16ZM180.579 50.72V48.72H178.579V50.72H180.579ZM181.539 50.72V52.72H183.539V50.72H181.539ZM181.539 49.76V47.76H179.539V49.76H181.539ZM182.499 49.76V51.76H184.499V49.76H182.499ZM182.499 48.8V46.8H180.499V48.8H182.499ZM183.459 48.8V50.8H185.459V48.8H183.459ZM183.459 47.84V45.84H181.459V47.84H183.459ZM184.419 47.84V49.84H186.419V47.84H184.419ZM184.419 46.88V44.88H182.419V46.88H184.419ZM189.219 46.88H191.219V44.88H189.219V46.88ZM189.219 47.84H187.219V49.84H189.219V47.84ZM190.179 47.84H192.179V45.84H190.179V47.84ZM190.179 48.8H188.179V50.8H190.179V48.8ZM191.139 48.8H193.139V46.8H191.139V48.8ZM191.139 49.76H189.139V51.76H191.139V49.76ZM192.099 49.76H194.099V47.76H192.099V49.76ZM192.099 50.72H190.099V52.72H192.099V50.72ZM193.059 50.72H195.059V48.72H193.059V50.72ZM190.179 63.2V65.2H192.179V63.2H190.179ZM190.179 51.68H192.179V49.68H190.179V51.68ZM189.219 51.68H187.219V53.68H189.219V51.68ZM189.219 50.72H191.219V48.72H189.219V50.72ZM188.259 50.72H186.259V52.72H188.259V50.72ZM188.259 49.76H190.259V47.76H188.259V49.76ZM185.379 49.76V47.76H183.379V49.76H185.379ZM185.379 50.72V52.72H187.379V50.72H185.379ZM184.419 50.72V48.72H182.419V50.72H184.419ZM184.419 51.68V53.68H186.419V51.68H184.419ZM183.459 51.68V49.68H181.459V51.68H183.459ZM183.459 63.2H181.459V65.2H183.459V63.2ZM184.419 63.2H186.419V61.2H184.419V63.2ZM184.419 64.16H182.419V66.16H184.419V64.16ZM185.379 64.16H187.379V62.16H185.379V64.16ZM185.379 65.12H183.379V67.12H185.379V65.12ZM188.259 65.12V67.12H190.259V65.12H188.259ZM188.259 64.16V62.16H186.259V64.16H188.259ZM189.219 64.16V66.16H191.219V64.16H189.219ZM189.219 63.2V61.2H187.219V63.2H189.219ZM193.059 64.16V62.16H192.099V64.16V66.16H193.059V64.16ZM192.099 64.16H190.099V65.12H192.099H194.099V64.16H192.099ZM192.099 65.12V63.12H191.139V65.12V67.12H192.099V65.12ZM191.139 65.12H189.139V66.08H191.139H193.139V65.12H191.139ZM191.139 66.08V64.08H190.179V66.08V68.08H191.139V66.08ZM190.179 66.08H188.179V67.04H190.179H192.179V66.08H190.179ZM190.179 67.04V65.04H189.219V67.04V69.04H190.179V67.04ZM189.219 67.04H187.219V68H189.219H191.219V67.04H189.219ZM189.219 68V66H184.419V68V70H189.219V68ZM184.419 68H186.419V67.04H184.419H182.419V68H184.419ZM184.419 67.04V65.04H183.459V67.04V69.04H184.419V67.04ZM183.459 67.04H185.459V66.08H183.459H181.459V67.04H183.459ZM183.459 66.08V64.08H182.499V66.08V68.08H183.459V66.08ZM182.499 66.08H184.499V65.12H182.499H180.499V66.08H182.499ZM182.499 65.12V63.12H181.539V65.12V67.12H182.499V65.12ZM181.539 65.12H183.539V64.16H181.539H179.539V65.12H181.539ZM181.539 64.16V62.16H180.579V64.16V66.16H181.539V64.16ZM180.579 64.16H182.579V50.72H180.579H178.579V64.16H180.579ZM180.579 50.72V52.72H181.539V50.72V48.72H180.579V50.72ZM181.539 50.72H183.539V49.76H181.539H179.539V50.72H181.539ZM181.539 49.76V51.76H182.499V49.76V47.76H181.539V49.76ZM182.499 49.76H184.499V48.8H182.499H180.499V49.76H182.499ZM182.499 48.8V50.8H183.459V48.8V46.8H182.499V48.8ZM183.459 48.8H185.459V47.84H183.459H181.459V48.8H183.459ZM183.459 47.84V49.84H184.419V47.84V45.84H183.459V47.84ZM184.419 47.84H186.419V46.88H184.419H182.419V47.84H184.419ZM184.419 46.88V48.88H189.219V46.88V44.88H184.419V46.88ZM189.219 46.88H187.219V47.84H189.219H191.219V46.88H189.219ZM189.219 47.84V49.84H190.179V47.84V45.84H189.219V47.84ZM190.179 47.84H188.179V48.8H190.179H192.179V47.84H190.179ZM190.179 48.8V50.8H191.139V48.8V46.8H190.179V48.8ZM191.139 48.8H189.139V49.76H191.139H193.139V48.8H191.139ZM191.139 49.76V51.76H192.099V49.76V47.76H191.139V49.76ZM192.099 49.76H190.099V50.72H192.099H194.099V49.76H192.099ZM192.099 50.72V52.72H193.059V50.72V48.72H192.099V50.72ZM193.059 50.72H191.059V64.16H193.059H195.059V50.72H193.059ZM190.179 63.2H192.179V51.68H190.179H188.179V63.2H190.179ZM190.179 51.68V49.68H189.219V51.68V53.68H190.179V51.68ZM189.219 51.68H191.219V50.72H189.219H187.219V51.68H189.219ZM189.219 50.72V48.72H188.259V50.72V52.72H189.219V50.72ZM188.259 50.72H190.259V49.76H188.259H186.259V50.72H188.259ZM188.259 49.76V47.76H185.379V49.76V51.76H188.259V49.76ZM185.379 49.76H183.379V50.72H185.379H187.379V49.76H185.379ZM185.379 50.72V48.72H184.419V50.72V52.72H185.379V50.72ZM184.419 50.72H182.419V51.68H184.419H186.419V50.72H184.419ZM184.419 51.68V49.68H183.459V51.68V53.68H184.419V51.68ZM183.459 51.68H181.459V63.2H183.459H185.459V51.68H183.459ZM183.459 63.2V65.2H184.419V63.2V61.2H183.459V63.2ZM184.419 63.2H182.419V64.16H184.419H186.419V63.2H184.419ZM184.419 64.16V66.16H185.379V64.16V62.16H184.419V64.16ZM185.379 64.16H183.379V65.12H185.379H187.379V64.16H185.379ZM185.379 65.12V67.12H188.259V65.12V63.12H185.379V65.12ZM188.259 65.12H190.259V64.16H188.259H186.259V65.12H188.259ZM188.259 64.16V66.16H189.219V64.16V62.16H188.259V64.16ZM189.219 64.16H191.219V63.2H189.219H187.219V64.16H189.219ZM189.219 63.2V65.2H190.179V63.2V61.2H189.219V63.2ZM208.425 68V70H210.425V68H208.425ZM205.545 68H203.545V70H205.545V68ZM205.545 67.04H207.545V65.04H205.545V67.04ZM204.585 67.04H202.585V69.04H204.585V67.04ZM204.585 65.12H206.585V63.12H204.585V65.12ZM203.625 65.12H201.625V67.12H203.625V65.12ZM203.625 63.2H205.625V61.2H203.625V63.2ZM202.665 63.2H200.665V65.2H202.665V63.2ZM202.665 61.28H204.665V59.28H202.665V61.28ZM201.705 61.28H199.705V63.28H201.705V61.28ZM201.705 59.36H203.705V57.36H201.705V59.36ZM200.745 59.36H198.745V61.36H200.745V59.36ZM200.745 57.44H202.745V55.44H200.745V57.44ZM199.785 57.44H197.785V59.44H199.785V57.44ZM199.785 55.52H201.785V53.52H199.785V55.52ZM198.825 55.52V53.52H196.825V55.52H198.825ZM198.825 68V70H200.825V68H198.825ZM195.945 68H193.945V70H195.945V68ZM195.945 46.88V44.88H193.945V46.88H195.945ZM197.865 46.88H199.865V44.88H197.865V46.88ZM197.865 48.8H195.865V50.8H197.865V48.8ZM198.825 48.8H200.825V46.8H198.825V48.8ZM198.825 50.72H196.825V52.72H198.825V50.72ZM199.785 50.72H201.785V48.72H199.785V50.72ZM199.785 52.64H197.785V54.64H199.785V52.64ZM200.745 52.64H202.745V50.64H200.745V52.64ZM200.745 54.56H198.745V56.56H200.745V54.56ZM201.705 54.56H203.705V52.56H201.705V54.56ZM201.705 56.48H199.705V58.48H201.705V56.48ZM202.665 56.48H204.665V54.48H202.665V56.48ZM202.665 58.4H200.665V60.4H202.665V58.4ZM203.625 58.4H205.625V56.4H203.625V58.4ZM203.625 60.32H201.625V62.32H203.625V60.32ZM204.585 60.32H206.585V58.32H204.585V60.32ZM204.585 62.24H202.585V64.24H204.585V62.24ZM205.545 62.24V64.24H207.545V62.24H205.545ZM205.545 46.88V44.88H203.545V46.88H205.545ZM208.425 46.88H210.425V44.88H208.425V46.88ZM208.425 68V66H205.545V68V70H208.425V68ZM205.545 68H207.545V67.04H205.545H203.545V68H205.545ZM205.545 67.04V65.04H204.585V67.04V69.04H205.545V67.04ZM204.585 67.04H206.585V65.12H204.585H202.585V67.04H204.585ZM204.585 65.12V63.12H203.625V65.12V67.12H204.585V65.12ZM203.625 65.12H205.625V63.2H203.625H201.625V65.12H203.625ZM203.625 63.2V61.2H202.665V63.2V65.2H203.625V63.2ZM202.665 63.2H204.665V61.28H202.665H200.665V63.2H202.665ZM202.665 61.28V59.28H201.705V61.28V63.28H202.665V61.28ZM201.705 61.28H203.705V59.36H201.705H199.705V61.28H201.705ZM201.705 59.36V57.36H200.745V59.36V61.36H201.705V59.36ZM200.745 59.36H202.745V57.44H200.745H198.745V59.36H200.745ZM200.745 57.44V55.44H199.785V57.44V59.44H200.745V57.44ZM199.785 57.44H201.785V55.52H199.785H197.785V57.44H199.785ZM199.785 55.52V53.52H198.825V55.52V57.52H199.785V55.52ZM198.825 55.52H196.825V68H198.825H200.825V55.52H198.825ZM198.825 68V66H195.945V68V70H198.825V68ZM195.945 68H197.945V46.88H195.945H193.945V68H195.945ZM195.945 46.88V48.88H197.865V46.88V44.88H195.945V46.88ZM197.865 46.88H195.865V48.8H197.865H199.865V46.88H197.865ZM197.865 48.8V50.8H198.825V48.8V46.8H197.865V48.8ZM198.825 48.8H196.825V50.72H198.825H200.825V48.8H198.825ZM198.825 50.72V52.72H199.785V50.72V48.72H198.825V50.72ZM199.785 50.72H197.785V52.64H199.785H201.785V50.72H199.785ZM199.785 52.64V54.64H200.745V52.64V50.64H199.785V52.64ZM200.745 52.64H198.745V54.56H200.745H202.745V52.64H200.745ZM200.745 54.56V56.56H201.705V54.56V52.56H200.745V54.56ZM201.705 54.56H199.705V56.48H201.705H203.705V54.56H201.705ZM201.705 56.48V58.48H202.665V56.48V54.48H201.705V56.48ZM202.665 56.48H200.665V58.4H202.665H204.665V56.48H202.665ZM202.665 58.4V60.4H203.625V58.4V56.4H202.665V58.4ZM203.625 58.4H201.625V60.32H203.625H205.625V58.4H203.625ZM203.625 60.32V62.32H204.585V60.32V58.32H203.625V60.32ZM204.585 60.32H202.585V62.24H204.585H206.585V60.32H204.585ZM204.585 62.24V64.24H205.545V62.24V60.24H204.585V62.24ZM205.545 62.24H207.545V46.88H205.545H203.545V62.24H205.545ZM205.545 46.88V48.88H208.425V46.88V44.88H205.545V46.88ZM208.425 46.88H206.425V68H208.425H210.425V46.88H208.425Z" fill="white" mask="url(#path-3-outside-2_1280_9027)"/>
</svg>
