<svg width="267" height="94" viewBox="0 0 267 94" fill="none" xmlns="http://www.w3.org/2000/svg">
<mask id="path-1-outside-1_1280_9031" maskUnits="userSpaceOnUse" x="78" y="5" width="109" height="26" fill="black">
<rect fill="white" x="78" y="5" width="109" height="26"/>
<path d="M92.6782 26.12H91.7182V27.08H90.7582V28.04H89.7982V29H84.0382V28.04H83.0782V27.08H82.1182V26.12H81.1582V25.16H80.1982V11.72H81.1582V10.76H82.1182V9.8H83.0782V8.84H84.0382V7.88H89.7982V8.84H90.7582V9.8H91.7182V10.76H92.6782V13.64H89.7982V11.72H88.8382V10.76H84.9982V11.72H84.0382V12.68H83.0782V24.2H84.0382V25.16H84.9982V26.12H88.8382V25.16H89.7982V23.24H92.6782V26.12ZM108.044 29H95.5644V7.88H98.4444V26.12H108.044V29ZM123.411 25.16H122.451V26.12H121.491V27.08H120.531V28.04H119.571V29H114.771V28.04H113.811V27.08H112.851V26.12H111.891V25.16H110.931V11.72H111.891V10.76H112.851V9.8H113.811V8.84H114.771V7.88H119.571V8.84H120.531V9.8H121.491V10.76H122.451V11.72H123.411V25.16ZM120.531 24.2V12.68H119.571V11.72H118.611V10.76H115.731V11.72H114.771V12.68H113.811V24.2H114.771V25.16H115.731V26.12H118.611V25.16H119.571V24.2H120.531ZM138.777 26.12H137.817V27.08H136.857V28.04H135.897V29H129.177V28.04H128.217V27.08H127.257V26.12H126.297V23.24H129.177V25.16H130.137V26.12H134.937V25.16H135.897V20.36H134.937V19.4H129.177V18.44H128.217V17.48H127.257V16.52H126.297V10.76H127.257V9.8H128.217V8.84H129.177V7.88H135.897V8.84H136.857V9.8H137.817V10.76H138.777V13.64H135.897V11.72H134.937V10.76H130.137V11.72H129.177V15.56H130.137V16.52H135.897V17.48H136.857V18.44H137.817V19.4H138.777V26.12ZM154.143 29H141.663V26.12H146.463V10.76H144.543V7.88H151.263V10.76H149.343V26.12H154.143V29ZM169.509 29H166.629V28.04H165.669V26.12H164.709V24.2H163.749V22.28H162.789V20.36H161.829V18.44H160.869V16.52H159.909V29H157.029V7.88H158.949V9.8H159.909V11.72H160.869V13.64H161.829V15.56H162.789V17.48H163.749V19.4H164.709V21.32H165.669V23.24H166.629V7.88H169.509V29ZM184.876 27.08H183.916V28.04H182.956V29H176.236V28.04H175.276V27.08H174.316V26.12H173.356V25.16H172.396V11.72H173.356V10.76H174.316V9.8H175.276V8.84H176.236V7.88H182.956V8.84H183.916V9.8H184.876V11.72H181.996V10.76H177.196V11.72H176.236V12.68H175.276V24.2H176.236V25.16H177.196V26.12H181.996V20.36H181.036V21.32H178.156V17.48H184.876V27.08Z"/>
</mask>
<path d="M92.6782 26.12V28.12H94.6782V26.12H92.6782ZM91.7182 26.12V24.12H89.7182V26.12H91.7182ZM91.7182 27.08V29.08H93.7182V27.08H91.7182ZM90.7582 27.08V25.08H88.7582V27.08H90.7582ZM90.7582 28.04V30.04H92.7582V28.04H90.7582ZM89.7982 28.04V26.04H87.7982V28.04H89.7982ZM89.7982 29V31H91.7982V29H89.7982ZM84.0382 29H82.0382V31H84.0382V29ZM84.0382 28.04H86.0382V26.04H84.0382V28.04ZM83.0782 28.04H81.0782V30.04H83.0782V28.04ZM83.0782 27.08H85.0782V25.08H83.0782V27.08ZM82.1182 27.08H80.1182V29.08H82.1182V27.08ZM82.1182 26.12H84.1182V24.12H82.1182V26.12ZM81.1582 26.12H79.1582V28.12H81.1582V26.12ZM81.1582 25.16H83.1582V23.16H81.1582V25.16ZM80.1982 25.16H78.1982V27.16H80.1982V25.16ZM80.1982 11.72V9.72H78.1982V11.72H80.1982ZM81.1582 11.72V13.72H83.1582V11.72H81.1582ZM81.1582 10.76V8.76H79.1582V10.76H81.1582ZM82.1182 10.76V12.76H84.1182V10.76H82.1182ZM82.1182 9.8V7.8H80.1182V9.8H82.1182ZM83.0782 9.8V11.8H85.0782V9.8H83.0782ZM83.0782 8.84V6.84H81.0782V8.84H83.0782ZM84.0382 8.84V10.84H86.0382V8.84H84.0382ZM84.0382 7.88V5.88H82.0382V7.88H84.0382ZM89.7982 7.88H91.7982V5.88H89.7982V7.88ZM89.7982 8.84H87.7982V10.84H89.7982V8.84ZM90.7582 8.84H92.7582V6.84H90.7582V8.84ZM90.7582 9.8H88.7582V11.8H90.7582V9.8ZM91.7182 9.8H93.7182V7.8H91.7182V9.8ZM91.7182 10.76H89.7182V12.76H91.7182V10.76ZM92.6782 10.76H94.6782V8.76H92.6782V10.76ZM92.6782 13.64V15.64H94.6782V13.64H92.6782ZM89.7982 13.64H87.7982V15.64H89.7982V13.64ZM89.7982 11.72H91.7982V9.72H89.7982V11.72ZM88.8382 11.72H86.8382V13.72H88.8382V11.72ZM88.8382 10.76H90.8382V8.76H88.8382V10.76ZM84.9982 10.76V8.76H82.9982V10.76H84.9982ZM84.9982 11.72V13.72H86.9982V11.72H84.9982ZM84.0382 11.72V9.72H82.0382V11.72H84.0382ZM84.0382 12.68V14.68H86.0382V12.68H84.0382ZM83.0782 12.68V10.68H81.0782V12.68H83.0782ZM83.0782 24.2H81.0782V26.2H83.0782V24.2ZM84.0382 24.2H86.0382V22.2H84.0382V24.2ZM84.0382 25.16H82.0382V27.16H84.0382V25.16ZM84.9982 25.16H86.9982V23.16H84.9982V25.16ZM84.9982 26.12H82.9982V28.12H84.9982V26.12ZM88.8382 26.12V28.12H90.8382V26.12H88.8382ZM88.8382 25.16V23.16H86.8382V25.16H88.8382ZM89.7982 25.16V27.16H91.7982V25.16H89.7982ZM89.7982 23.24V21.24H87.7982V23.24H89.7982ZM92.6782 23.24H94.6782V21.24H92.6782V23.24ZM92.6782 26.12V24.12H91.7182V26.12V28.12H92.6782V26.12ZM91.7182 26.12H89.7182V27.08H91.7182H93.7182V26.12H91.7182ZM91.7182 27.08V25.08H90.7582V27.08V29.08H91.7182V27.08ZM90.7582 27.08H88.7582V28.04H90.7582H92.7582V27.08H90.7582ZM90.7582 28.04V26.04H89.7982V28.04V30.04H90.7582V28.04ZM89.7982 28.04H87.7982V29H89.7982H91.7982V28.04H89.7982ZM89.7982 29V27H84.0382V29V31H89.7982V29ZM84.0382 29H86.0382V28.04H84.0382H82.0382V29H84.0382ZM84.0382 28.04V26.04H83.0782V28.04V30.04H84.0382V28.04ZM83.0782 28.04H85.0782V27.08H83.0782H81.0782V28.04H83.0782ZM83.0782 27.08V25.08H82.1182V27.08V29.08H83.0782V27.08ZM82.1182 27.08H84.1182V26.12H82.1182H80.1182V27.08H82.1182ZM82.1182 26.12V24.12H81.1582V26.12V28.12H82.1182V26.12ZM81.1582 26.12H83.1582V25.16H81.1582H79.1582V26.12H81.1582ZM81.1582 25.16V23.16H80.1982V25.16V27.16H81.1582V25.16ZM80.1982 25.16H82.1982V11.72H80.1982H78.1982V25.16H80.1982ZM80.1982 11.72V13.72H81.1582V11.72V9.72H80.1982V11.72ZM81.1582 11.72H83.1582V10.76H81.1582H79.1582V11.72H81.1582ZM81.1582 10.76V12.76H82.1182V10.76V8.76H81.1582V10.76ZM82.1182 10.76H84.1182V9.8H82.1182H80.1182V10.76H82.1182ZM82.1182 9.8V11.8H83.0782V9.8V7.8H82.1182V9.8ZM83.0782 9.8H85.0782V8.84H83.0782H81.0782V9.8H83.0782ZM83.0782 8.84V10.84H84.0382V8.84V6.84H83.0782V8.84ZM84.0382 8.84H86.0382V7.88H84.0382H82.0382V8.84H84.0382ZM84.0382 7.88V9.88H89.7982V7.88V5.88H84.0382V7.88ZM89.7982 7.88H87.7982V8.84H89.7982H91.7982V7.88H89.7982ZM89.7982 8.84V10.84H90.7582V8.84V6.84H89.7982V8.84ZM90.7582 8.84H88.7582V9.8H90.7582H92.7582V8.84H90.7582ZM90.7582 9.8V11.8H91.7182V9.8V7.8H90.7582V9.8ZM91.7182 9.8H89.7182V10.76H91.7182H93.7182V9.8H91.7182ZM91.7182 10.76V12.76H92.6782V10.76V8.76H91.7182V10.76ZM92.6782 10.76H90.6782V13.64H92.6782H94.6782V10.76H92.6782ZM92.6782 13.64V11.64H89.7982V13.64V15.64H92.6782V13.64ZM89.7982 13.64H91.7982V11.72H89.7982H87.7982V13.64H89.7982ZM89.7982 11.72V9.72H88.8382V11.72V13.72H89.7982V11.72ZM88.8382 11.72H90.8382V10.76H88.8382H86.8382V11.72H88.8382ZM88.8382 10.76V8.76H84.9982V10.76V12.76H88.8382V10.76ZM84.9982 10.76H82.9982V11.72H84.9982H86.9982V10.76H84.9982ZM84.9982 11.72V9.72H84.0382V11.72V13.72H84.9982V11.72ZM84.0382 11.72H82.0382V12.68H84.0382H86.0382V11.72H84.0382ZM84.0382 12.68V10.68H83.0782V12.68V14.68H84.0382V12.68ZM83.0782 12.68H81.0782V24.2H83.0782H85.0782V12.68H83.0782ZM83.0782 24.2V26.2H84.0382V24.2V22.2H83.0782V24.2ZM84.0382 24.2H82.0382V25.16H84.0382H86.0382V24.2H84.0382ZM84.0382 25.16V27.16H84.9982V25.16V23.16H84.0382V25.16ZM84.9982 25.16H82.9982V26.12H84.9982H86.9982V25.16H84.9982ZM84.9982 26.12V28.12H88.8382V26.12V24.12H84.9982V26.12ZM88.8382 26.12H90.8382V25.16H88.8382H86.8382V26.12H88.8382ZM88.8382 25.16V27.16H89.7982V25.16V23.16H88.8382V25.16ZM89.7982 25.16H91.7982V23.24H89.7982H87.7982V25.16H89.7982ZM89.7982 23.24V25.24H92.6782V23.24V21.24H89.7982V23.24ZM92.6782 23.24H90.6782V26.12H92.6782H94.6782V23.24H92.6782ZM108.044 29V31H110.044V29H108.044ZM95.5644 29H93.5644V31H95.5644V29ZM95.5644 7.88V5.88H93.5644V7.88H95.5644ZM98.4444 7.88H100.444V5.88H98.4444V7.88ZM98.4444 26.12H96.4444V28.12H98.4444V26.12ZM108.044 26.12H110.044V24.12H108.044V26.12ZM108.044 29V27H95.5644V29V31H108.044V29ZM95.5644 29H97.5644V7.88H95.5644H93.5644V29H95.5644ZM95.5644 7.88V9.88H98.4444V7.88V5.88H95.5644V7.88ZM98.4444 7.88H96.4444V26.12H98.4444H100.444V7.88H98.4444ZM98.4444 26.12V28.12H108.044V26.12V24.12H98.4444V26.12ZM108.044 26.12H106.044V29H108.044H110.044V26.12H108.044ZM123.411 25.16V27.16H125.411V25.16H123.411ZM122.451 25.16V23.16H120.451V25.16H122.451ZM122.451 26.12V28.12H124.451V26.12H122.451ZM121.491 26.12V24.12H119.491V26.12H121.491ZM121.491 27.08V29.08H123.491V27.08H121.491ZM120.531 27.08V25.08H118.531V27.08H120.531ZM120.531 28.04V30.04H122.531V28.04H120.531ZM119.571 28.04V26.04H117.571V28.04H119.571ZM119.571 29V31H121.571V29H119.571ZM114.771 29H112.771V31H114.771V29ZM114.771 28.04H116.771V26.04H114.771V28.04ZM113.811 28.04H111.811V30.04H113.811V28.04ZM113.811 27.08H115.811V25.08H113.811V27.08ZM112.851 27.08H110.851V29.08H112.851V27.08ZM112.851 26.12H114.851V24.12H112.851V26.12ZM111.891 26.12H109.891V28.12H111.891V26.12ZM111.891 25.16H113.891V23.16H111.891V25.16ZM110.931 25.16H108.931V27.16H110.931V25.16ZM110.931 11.72V9.72H108.931V11.72H110.931ZM111.891 11.72V13.72H113.891V11.72H111.891ZM111.891 10.76V8.76H109.891V10.76H111.891ZM112.851 10.76V12.76H114.851V10.76H112.851ZM112.851 9.8V7.8H110.851V9.8H112.851ZM113.811 9.8V11.8H115.811V9.8H113.811ZM113.811 8.84V6.84H111.811V8.84H113.811ZM114.771 8.84V10.84H116.771V8.84H114.771ZM114.771 7.88V5.88H112.771V7.88H114.771ZM119.571 7.88H121.571V5.88H119.571V7.88ZM119.571 8.84H117.571V10.84H119.571V8.84ZM120.531 8.84H122.531V6.84H120.531V8.84ZM120.531 9.8H118.531V11.8H120.531V9.8ZM121.491 9.8H123.491V7.8H121.491V9.8ZM121.491 10.76H119.491V12.76H121.491V10.76ZM122.451 10.76H124.451V8.76H122.451V10.76ZM122.451 11.72H120.451V13.72H122.451V11.72ZM123.411 11.72H125.411V9.72H123.411V11.72ZM120.531 24.2V26.2H122.531V24.2H120.531ZM120.531 12.68H122.531V10.68H120.531V12.68ZM119.571 12.68H117.571V14.68H119.571V12.68ZM119.571 11.72H121.571V9.72H119.571V11.72ZM118.611 11.72H116.611V13.72H118.611V11.72ZM118.611 10.76H120.611V8.76H118.611V10.76ZM115.731 10.76V8.76H113.731V10.76H115.731ZM115.731 11.72V13.72H117.731V11.72H115.731ZM114.771 11.72V9.72H112.771V11.72H114.771ZM114.771 12.68V14.68H116.771V12.68H114.771ZM113.811 12.68V10.68H111.811V12.68H113.811ZM113.811 24.2H111.811V26.2H113.811V24.2ZM114.771 24.2H116.771V22.2H114.771V24.2ZM114.771 25.16H112.771V27.16H114.771V25.16ZM115.731 25.16H117.731V23.16H115.731V25.16ZM115.731 26.12H113.731V28.12H115.731V26.12ZM118.611 26.12V28.12H120.611V26.12H118.611ZM118.611 25.16V23.16H116.611V25.16H118.611ZM119.571 25.16V27.16H121.571V25.16H119.571ZM119.571 24.2V22.2H117.571V24.2H119.571ZM123.411 25.16V23.16H122.451V25.16V27.16H123.411V25.16ZM122.451 25.16H120.451V26.12H122.451H124.451V25.16H122.451ZM122.451 26.12V24.12H121.491V26.12V28.12H122.451V26.12ZM121.491 26.12H119.491V27.08H121.491H123.491V26.12H121.491ZM121.491 27.08V25.08H120.531V27.08V29.08H121.491V27.08ZM120.531 27.08H118.531V28.04H120.531H122.531V27.08H120.531ZM120.531 28.04V26.04H119.571V28.04V30.04H120.531V28.04ZM119.571 28.04H117.571V29H119.571H121.571V28.04H119.571ZM119.571 29V27H114.771V29V31H119.571V29ZM114.771 29H116.771V28.04H114.771H112.771V29H114.771ZM114.771 28.04V26.04H113.811V28.04V30.04H114.771V28.04ZM113.811 28.04H115.811V27.08H113.811H111.811V28.04H113.811ZM113.811 27.08V25.08H112.851V27.08V29.08H113.811V27.08ZM112.851 27.08H114.851V26.12H112.851H110.851V27.08H112.851ZM112.851 26.12V24.12H111.891V26.12V28.12H112.851V26.12ZM111.891 26.12H113.891V25.16H111.891H109.891V26.12H111.891ZM111.891 25.16V23.16H110.931V25.16V27.16H111.891V25.16ZM110.931 25.16H112.931V11.72H110.931H108.931V25.16H110.931ZM110.931 11.72V13.72H111.891V11.72V9.72H110.931V11.72ZM111.891 11.72H113.891V10.76H111.891H109.891V11.72H111.891ZM111.891 10.76V12.76H112.851V10.76V8.76H111.891V10.76ZM112.851 10.76H114.851V9.8H112.851H110.851V10.76H112.851ZM112.851 9.8V11.8H113.811V9.8V7.8H112.851V9.8ZM113.811 9.8H115.811V8.84H113.811H111.811V9.8H113.811ZM113.811 8.84V10.84H114.771V8.84V6.84H113.811V8.84ZM114.771 8.84H116.771V7.88H114.771H112.771V8.84H114.771ZM114.771 7.88V9.88H119.571V7.88V5.88H114.771V7.88ZM119.571 7.88H117.571V8.84H119.571H121.571V7.88H119.571ZM119.571 8.84V10.84H120.531V8.84V6.84H119.571V8.84ZM120.531 8.84H118.531V9.8H120.531H122.531V8.84H120.531ZM120.531 9.8V11.8H121.491V9.8V7.8H120.531V9.8ZM121.491 9.8H119.491V10.76H121.491H123.491V9.8H121.491ZM121.491 10.76V12.76H122.451V10.76V8.76H121.491V10.76ZM122.451 10.76H120.451V11.72H122.451H124.451V10.76H122.451ZM122.451 11.72V13.72H123.411V11.72V9.72H122.451V11.72ZM123.411 11.72H121.411V25.16H123.411H125.411V11.72H123.411ZM120.531 24.2H122.531V12.68H120.531H118.531V24.2H120.531ZM120.531 12.68V10.68H119.571V12.68V14.68H120.531V12.68ZM119.571 12.68H121.571V11.72H119.571H117.571V12.68H119.571ZM119.571 11.72V9.72H118.611V11.72V13.72H119.571V11.72ZM118.611 11.72H120.611V10.76H118.611H116.611V11.72H118.611ZM118.611 10.76V8.76H115.731V10.76V12.76H118.611V10.76ZM115.731 10.76H113.731V11.72H115.731H117.731V10.76H115.731ZM115.731 11.72V9.72H114.771V11.72V13.72H115.731V11.72ZM114.771 11.72H112.771V12.68H114.771H116.771V11.72H114.771ZM114.771 12.68V10.68H113.811V12.68V14.68H114.771V12.68ZM113.811 12.68H111.811V24.2H113.811H115.811V12.68H113.811ZM113.811 24.2V26.2H114.771V24.2V22.2H113.811V24.2ZM114.771 24.2H112.771V25.16H114.771H116.771V24.2H114.771ZM114.771 25.16V27.16H115.731V25.16V23.16H114.771V25.16ZM115.731 25.16H113.731V26.12H115.731H117.731V25.16H115.731ZM115.731 26.12V28.12H118.611V26.12V24.12H115.731V26.12ZM118.611 26.12H120.611V25.16H118.611H116.611V26.12H118.611ZM118.611 25.16V27.16H119.571V25.16V23.16H118.611V25.16ZM119.571 25.16H121.571V24.2H119.571H117.571V25.16H119.571ZM119.571 24.2V26.2H120.531V24.2V22.2H119.571V24.2ZM138.777 26.12V28.12H140.777V26.12H138.777ZM137.817 26.12V24.12H135.817V26.12H137.817ZM137.817 27.08V29.08H139.817V27.08H137.817ZM136.857 27.08V25.08H134.857V27.08H136.857ZM136.857 28.04V30.04H138.857V28.04H136.857ZM135.897 28.04V26.04H133.897V28.04H135.897ZM135.897 29V31H137.897V29H135.897ZM129.177 29H127.177V31H129.177V29ZM129.177 28.04H131.177V26.04H129.177V28.04ZM128.217 28.04H126.217V30.04H128.217V28.04ZM128.217 27.08H130.217V25.08H128.217V27.08ZM127.257 27.08H125.257V29.08H127.257V27.08ZM127.257 26.12H129.257V24.12H127.257V26.12ZM126.297 26.12H124.297V28.12H126.297V26.12ZM126.297 23.24V21.24H124.297V23.24H126.297ZM129.177 23.24H131.177V21.24H129.177V23.24ZM129.177 25.16H127.177V27.16H129.177V25.16ZM130.137 25.16H132.137V23.16H130.137V25.16ZM130.137 26.12H128.137V28.12H130.137V26.12ZM134.937 26.12V28.12H136.937V26.12H134.937ZM134.937 25.16V23.16H132.937V25.16H134.937ZM135.897 25.16V27.16H137.897V25.16H135.897ZM135.897 20.36H137.897V18.36H135.897V20.36ZM134.937 20.36H132.937V22.36H134.937V20.36ZM134.937 19.4H136.937V17.4H134.937V19.4ZM129.177 19.4H127.177V21.4H129.177V19.4ZM129.177 18.44H131.177V16.44H129.177V18.44ZM128.217 18.44H126.217V20.44H128.217V18.44ZM128.217 17.48H130.217V15.48H128.217V17.48ZM127.257 17.48H125.257V19.48H127.257V17.48ZM127.257 16.52H129.257V14.52H127.257V16.52ZM126.297 16.52H124.297V18.52H126.297V16.52ZM126.297 10.76V8.76H124.297V10.76H126.297ZM127.257 10.76V12.76H129.257V10.76H127.257ZM127.257 9.8V7.8H125.257V9.8H127.257ZM128.217 9.8V11.8H130.217V9.8H128.217ZM128.217 8.84V6.84H126.217V8.84H128.217ZM129.177 8.84V10.84H131.177V8.84H129.177ZM129.177 7.88V5.88H127.177V7.88H129.177ZM135.897 7.88H137.897V5.88H135.897V7.88ZM135.897 8.84H133.897V10.84H135.897V8.84ZM136.857 8.84H138.857V6.84H136.857V8.84ZM136.857 9.8H134.857V11.8H136.857V9.8ZM137.817 9.8H139.817V7.8H137.817V9.8ZM137.817 10.76H135.817V12.76H137.817V10.76ZM138.777 10.76H140.777V8.76H138.777V10.76ZM138.777 13.64V15.64H140.777V13.64H138.777ZM135.897 13.64H133.897V15.64H135.897V13.64ZM135.897 11.72H137.897V9.72H135.897V11.72ZM134.937 11.72H132.937V13.72H134.937V11.72ZM134.937 10.76H136.937V8.76H134.937V10.76ZM130.137 10.76V8.76H128.137V10.76H130.137ZM130.137 11.72V13.72H132.137V11.72H130.137ZM129.177 11.72V9.72H127.177V11.72H129.177ZM129.177 15.56H127.177V17.56H129.177V15.56ZM130.137 15.56H132.137V13.56H130.137V15.56ZM130.137 16.52H128.137V18.52H130.137V16.52ZM135.897 16.52H137.897V14.52H135.897V16.52ZM135.897 17.48H133.897V19.48H135.897V17.48ZM136.857 17.48H138.857V15.48H136.857V17.48ZM136.857 18.44H134.857V20.44H136.857V18.44ZM137.817 18.44H139.817V16.44H137.817V18.44ZM137.817 19.4H135.817V21.4H137.817V19.4ZM138.777 19.4H140.777V17.4H138.777V19.4ZM138.777 26.12V24.12H137.817V26.12V28.12H138.777V26.12ZM137.817 26.12H135.817V27.08H137.817H139.817V26.12H137.817ZM137.817 27.08V25.08H136.857V27.08V29.08H137.817V27.08ZM136.857 27.08H134.857V28.04H136.857H138.857V27.08H136.857ZM136.857 28.04V26.04H135.897V28.04V30.04H136.857V28.04ZM135.897 28.04H133.897V29H135.897H137.897V28.04H135.897ZM135.897 29V27H129.177V29V31H135.897V29ZM129.177 29H131.177V28.04H129.177H127.177V29H129.177ZM129.177 28.04V26.04H128.217V28.04V30.04H129.177V28.04ZM128.217 28.04H130.217V27.08H128.217H126.217V28.04H128.217ZM128.217 27.08V25.08H127.257V27.08V29.08H128.217V27.08ZM127.257 27.08H129.257V26.12H127.257H125.257V27.08H127.257ZM127.257 26.12V24.12H126.297V26.12V28.12H127.257V26.12ZM126.297 26.12H128.297V23.24H126.297H124.297V26.12H126.297ZM126.297 23.24V25.24H129.177V23.24V21.24H126.297V23.24ZM129.177 23.24H127.177V25.16H129.177H131.177V23.24H129.177ZM129.177 25.16V27.16H130.137V25.16V23.16H129.177V25.16ZM130.137 25.16H128.137V26.12H130.137H132.137V25.16H130.137ZM130.137 26.12V28.12H134.937V26.12V24.12H130.137V26.12ZM134.937 26.12H136.937V25.16H134.937H132.937V26.12H134.937ZM134.937 25.16V27.16H135.897V25.16V23.16H134.937V25.16ZM135.897 25.16H137.897V20.36H135.897H133.897V25.16H135.897ZM135.897 20.36V18.36H134.937V20.36V22.36H135.897V20.36ZM134.937 20.36H136.937V19.4H134.937H132.937V20.36H134.937ZM134.937 19.4V17.4H129.177V19.4V21.4H134.937V19.4ZM129.177 19.4H131.177V18.44H129.177H127.177V19.4H129.177ZM129.177 18.44V16.44H128.217V18.44V20.44H129.177V18.44ZM128.217 18.44H130.217V17.48H128.217H126.217V18.44H128.217ZM128.217 17.48V15.48H127.257V17.48V19.48H128.217V17.48ZM127.257 17.48H129.257V16.52H127.257H125.257V17.48H127.257ZM127.257 16.52V14.52H126.297V16.52V18.52H127.257V16.52ZM126.297 16.52H128.297V10.76H126.297H124.297V16.52H126.297ZM126.297 10.76V12.76H127.257V10.76V8.76H126.297V10.76ZM127.257 10.76H129.257V9.8H127.257H125.257V10.76H127.257ZM127.257 9.8V11.8H128.217V9.8V7.8H127.257V9.8ZM128.217 9.8H130.217V8.84H128.217H126.217V9.8H128.217ZM128.217 8.84V10.84H129.177V8.84V6.84H128.217V8.84ZM129.177 8.84H131.177V7.88H129.177H127.177V8.84H129.177ZM129.177 7.88V9.88H135.897V7.88V5.88H129.177V7.88ZM135.897 7.88H133.897V8.84H135.897H137.897V7.88H135.897ZM135.897 8.84V10.84H136.857V8.84V6.84H135.897V8.84ZM136.857 8.84H134.857V9.8H136.857H138.857V8.84H136.857ZM136.857 9.8V11.8H137.817V9.8V7.8H136.857V9.8ZM137.817 9.8H135.817V10.76H137.817H139.817V9.8H137.817ZM137.817 10.76V12.76H138.777V10.76V8.76H137.817V10.76ZM138.777 10.76H136.777V13.64H138.777H140.777V10.76H138.777ZM138.777 13.64V11.64H135.897V13.64V15.64H138.777V13.64ZM135.897 13.64H137.897V11.72H135.897H133.897V13.64H135.897ZM135.897 11.72V9.72H134.937V11.72V13.72H135.897V11.72ZM134.937 11.72H136.937V10.76H134.937H132.937V11.72H134.937ZM134.937 10.76V8.76H130.137V10.76V12.76H134.937V10.76ZM130.137 10.76H128.137V11.72H130.137H132.137V10.76H130.137ZM130.137 11.72V9.72H129.177V11.72V13.72H130.137V11.72ZM129.177 11.72H127.177V15.56H129.177H131.177V11.72H129.177ZM129.177 15.56V17.56H130.137V15.56V13.56H129.177V15.56ZM130.137 15.56H128.137V16.52H130.137H132.137V15.56H130.137ZM130.137 16.52V18.52H135.897V16.52V14.52H130.137V16.52ZM135.897 16.52H133.897V17.48H135.897H137.897V16.52H135.897ZM135.897 17.48V19.48H136.857V17.48V15.48H135.897V17.48ZM136.857 17.48H134.857V18.44H136.857H138.857V17.48H136.857ZM136.857 18.44V20.44H137.817V18.44V16.44H136.857V18.44ZM137.817 18.44H135.817V19.4H137.817H139.817V18.44H137.817ZM137.817 19.4V21.4H138.777V19.4V17.4H137.817V19.4ZM138.777 19.4H136.777V26.12H138.777H140.777V19.4H138.777ZM154.143 29V31H156.143V29H154.143ZM141.663 29H139.663V31H141.663V29ZM141.663 26.12V24.12H139.663V26.12H141.663ZM146.463 26.12V28.12H148.463V26.12H146.463ZM146.463 10.76H148.463V8.76H146.463V10.76ZM144.543 10.76H142.543V12.76H144.543V10.76ZM144.543 7.88V5.88H142.543V7.88H144.543ZM151.263 7.88H153.263V5.88H151.263V7.88ZM151.263 10.76V12.76H153.263V10.76H151.263ZM149.343 10.76V8.76H147.343V10.76H149.343ZM149.343 26.12H147.343V28.12H149.343V26.12ZM154.143 26.12H156.143V24.12H154.143V26.12ZM154.143 29V27H141.663V29V31H154.143V29ZM141.663 29H143.663V26.12H141.663H139.663V29H141.663ZM141.663 26.12V28.12H146.463V26.12V24.12H141.663V26.12ZM146.463 26.12H148.463V10.76H146.463H144.463V26.12H146.463ZM146.463 10.76V8.76H144.543V10.76V12.76H146.463V10.76ZM144.543 10.76H146.543V7.88H144.543H142.543V10.76H144.543ZM144.543 7.88V9.88H151.263V7.88V5.88H144.543V7.88ZM151.263 7.88H149.263V10.76H151.263H153.263V7.88H151.263ZM151.263 10.76V8.76H149.343V10.76V12.76H151.263V10.76ZM149.343 10.76H147.343V26.12H149.343H151.343V10.76H149.343ZM149.343 26.12V28.12H154.143V26.12V24.12H149.343V26.12ZM154.143 26.12H152.143V29H154.143H156.143V26.12H154.143ZM169.509 29V31H171.509V29H169.509ZM166.629 29H164.629V31H166.629V29ZM166.629 28.04H168.629V26.04H166.629V28.04ZM165.669 28.04H163.669V30.04H165.669V28.04ZM165.669 26.12H167.669V24.12H165.669V26.12ZM164.709 26.12H162.709V28.12H164.709V26.12ZM164.709 24.2H166.709V22.2H164.709V24.2ZM163.749 24.2H161.749V26.2H163.749V24.2ZM163.749 22.28H165.749V20.28H163.749V22.28ZM162.789 22.28H160.789V24.28H162.789V22.28ZM162.789 20.36H164.789V18.36H162.789V20.36ZM161.829 20.36H159.829V22.36H161.829V20.36ZM161.829 18.44H163.829V16.44H161.829V18.44ZM160.869 18.44H158.869V20.44H160.869V18.44ZM160.869 16.52H162.869V14.52H160.869V16.52ZM159.909 16.52V14.52H157.909V16.52H159.909ZM159.909 29V31H161.909V29H159.909ZM157.029 29H155.029V31H157.029V29ZM157.029 7.88V5.88H155.029V7.88H157.029ZM158.949 7.88H160.949V5.88H158.949V7.88ZM158.949 9.8H156.949V11.8H158.949V9.8ZM159.909 9.8H161.909V7.8H159.909V9.8ZM159.909 11.72H157.909V13.72H159.909V11.72ZM160.869 11.72H162.869V9.72H160.869V11.72ZM160.869 13.64H158.869V15.64H160.869V13.64ZM161.829 13.64H163.829V11.64H161.829V13.64ZM161.829 15.56H159.829V17.56H161.829V15.56ZM162.789 15.56H164.789V13.56H162.789V15.56ZM162.789 17.48H160.789V19.48H162.789V17.48ZM163.749 17.48H165.749V15.48H163.749V17.48ZM163.749 19.4H161.749V21.4H163.749V19.4ZM164.709 19.4H166.709V17.4H164.709V19.4ZM164.709 21.32H162.709V23.32H164.709V21.32ZM165.669 21.32H167.669V19.32H165.669V21.32ZM165.669 23.24H163.669V25.24H165.669V23.24ZM166.629 23.24V25.24H168.629V23.24H166.629ZM166.629 7.88V5.88H164.629V7.88H166.629ZM169.509 7.88H171.509V5.88H169.509V7.88ZM169.509 29V27H166.629V29V31H169.509V29ZM166.629 29H168.629V28.04H166.629H164.629V29H166.629ZM166.629 28.04V26.04H165.669V28.04V30.04H166.629V28.04ZM165.669 28.04H167.669V26.12H165.669H163.669V28.04H165.669ZM165.669 26.12V24.12H164.709V26.12V28.12H165.669V26.12ZM164.709 26.12H166.709V24.2H164.709H162.709V26.12H164.709ZM164.709 24.2V22.2H163.749V24.2V26.2H164.709V24.2ZM163.749 24.2H165.749V22.28H163.749H161.749V24.2H163.749ZM163.749 22.28V20.28H162.789V22.28V24.28H163.749V22.28ZM162.789 22.28H164.789V20.36H162.789H160.789V22.28H162.789ZM162.789 20.36V18.36H161.829V20.36V22.36H162.789V20.36ZM161.829 20.36H163.829V18.44H161.829H159.829V20.36H161.829ZM161.829 18.44V16.44H160.869V18.44V20.44H161.829V18.44ZM160.869 18.44H162.869V16.52H160.869H158.869V18.44H160.869ZM160.869 16.52V14.52H159.909V16.52V18.52H160.869V16.52ZM159.909 16.52H157.909V29H159.909H161.909V16.52H159.909ZM159.909 29V27H157.029V29V31H159.909V29ZM157.029 29H159.029V7.88H157.029H155.029V29H157.029ZM157.029 7.88V9.88H158.949V7.88V5.88H157.029V7.88ZM158.949 7.88H156.949V9.8H158.949H160.949V7.88H158.949ZM158.949 9.8V11.8H159.909V9.8V7.8H158.949V9.8ZM159.909 9.8H157.909V11.72H159.909H161.909V9.8H159.909ZM159.909 11.72V13.72H160.869V11.72V9.72H159.909V11.72ZM160.869 11.72H158.869V13.64H160.869H162.869V11.72H160.869ZM160.869 13.64V15.64H161.829V13.64V11.64H160.869V13.64ZM161.829 13.64H159.829V15.56H161.829H163.829V13.64H161.829ZM161.829 15.56V17.56H162.789V15.56V13.56H161.829V15.56ZM162.789 15.56H160.789V17.48H162.789H164.789V15.56H162.789ZM162.789 17.48V19.48H163.749V17.48V15.48H162.789V17.48ZM163.749 17.48H161.749V19.4H163.749H165.749V17.48H163.749ZM163.749 19.4V21.4H164.709V19.4V17.4H163.749V19.4ZM164.709 19.4H162.709V21.32H164.709H166.709V19.4H164.709ZM164.709 21.32V23.32H165.669V21.32V19.32H164.709V21.32ZM165.669 21.32H163.669V23.24H165.669H167.669V21.32H165.669ZM165.669 23.24V25.24H166.629V23.24V21.24H165.669V23.24ZM166.629 23.24H168.629V7.88H166.629H164.629V23.24H166.629ZM166.629 7.88V9.88H169.509V7.88V5.88H166.629V7.88ZM169.509 7.88H167.509V29H169.509H171.509V7.88H169.509ZM184.876 27.08V29.08H186.876V27.08H184.876ZM183.916 27.08V25.08H181.916V27.08H183.916ZM183.916 28.04V30.04H185.916V28.04H183.916ZM182.956 28.04V26.04H180.956V28.04H182.956ZM182.956 29V31H184.956V29H182.956ZM176.236 29H174.236V31H176.236V29ZM176.236 28.04H178.236V26.04H176.236V28.04ZM175.276 28.04H173.276V30.04H175.276V28.04ZM175.276 27.08H177.276V25.08H175.276V27.08ZM174.316 27.08H172.316V29.08H174.316V27.08ZM174.316 26.12H176.316V24.12H174.316V26.12ZM173.356 26.12H171.356V28.12H173.356V26.12ZM173.356 25.16H175.356V23.16H173.356V25.16ZM172.396 25.16H170.396V27.16H172.396V25.16ZM172.396 11.72V9.72H170.396V11.72H172.396ZM173.356 11.72V13.72H175.356V11.72H173.356ZM173.356 10.76V8.76H171.356V10.76H173.356ZM174.316 10.76V12.76H176.316V10.76H174.316ZM174.316 9.8V7.8H172.316V9.8H174.316ZM175.276 9.8V11.8H177.276V9.8H175.276ZM175.276 8.84V6.84H173.276V8.84H175.276ZM176.236 8.84V10.84H178.236V8.84H176.236ZM176.236 7.88V5.88H174.236V7.88H176.236ZM182.956 7.88H184.956V5.88H182.956V7.88ZM182.956 8.84H180.956V10.84H182.956V8.84ZM183.916 8.84H185.916V6.84H183.916V8.84ZM183.916 9.8H181.916V11.8H183.916V9.8ZM184.876 9.8H186.876V7.8H184.876V9.8ZM184.876 11.72V13.72H186.876V11.72H184.876ZM181.996 11.72H179.996V13.72H181.996V11.72ZM181.996 10.76H183.996V8.76H181.996V10.76ZM177.196 10.76V8.76H175.196V10.76H177.196ZM177.196 11.72V13.72H179.196V11.72H177.196ZM176.236 11.72V9.72H174.236V11.72H176.236ZM176.236 12.68V14.68H178.236V12.68H176.236ZM175.276 12.68V10.68H173.276V12.68H175.276ZM175.276 24.2H173.276V26.2H175.276V24.2ZM176.236 24.2H178.236V22.2H176.236V24.2ZM176.236 25.16H174.236V27.16H176.236V25.16ZM177.196 25.16H179.196V23.16H177.196V25.16ZM177.196 26.12H175.196V28.12H177.196V26.12ZM181.996 26.12V28.12H183.996V26.12H181.996ZM181.996 20.36H183.996V18.36H181.996V20.36ZM181.036 20.36V18.36H179.036V20.36H181.036ZM181.036 21.32V23.32H183.036V21.32H181.036ZM178.156 21.32H176.156V23.32H178.156V21.32ZM178.156 17.48V15.48H176.156V17.48H178.156ZM184.876 17.48H186.876V15.48H184.876V17.48ZM184.876 27.08V25.08H183.916V27.08V29.08H184.876V27.08ZM183.916 27.08H181.916V28.04H183.916H185.916V27.08H183.916ZM183.916 28.04V26.04H182.956V28.04V30.04H183.916V28.04ZM182.956 28.04H180.956V29H182.956H184.956V28.04H182.956ZM182.956 29V27H176.236V29V31H182.956V29ZM176.236 29H178.236V28.04H176.236H174.236V29H176.236ZM176.236 28.04V26.04H175.276V28.04V30.04H176.236V28.04ZM175.276 28.04H177.276V27.08H175.276H173.276V28.04H175.276ZM175.276 27.08V25.08H174.316V27.08V29.08H175.276V27.08ZM174.316 27.08H176.316V26.12H174.316H172.316V27.08H174.316ZM174.316 26.12V24.12H173.356V26.12V28.12H174.316V26.12ZM173.356 26.12H175.356V25.16H173.356H171.356V26.12H173.356ZM173.356 25.16V23.16H172.396V25.16V27.16H173.356V25.16ZM172.396 25.16H174.396V11.72H172.396H170.396V25.16H172.396ZM172.396 11.72V13.72H173.356V11.72V9.72H172.396V11.72ZM173.356 11.72H175.356V10.76H173.356H171.356V11.72H173.356ZM173.356 10.76V12.76H174.316V10.76V8.76H173.356V10.76ZM174.316 10.76H176.316V9.8H174.316H172.316V10.76H174.316ZM174.316 9.8V11.8H175.276V9.8V7.8H174.316V9.8ZM175.276 9.8H177.276V8.84H175.276H173.276V9.8H175.276ZM175.276 8.84V10.84H176.236V8.84V6.84H175.276V8.84ZM176.236 8.84H178.236V7.88H176.236H174.236V8.84H176.236ZM176.236 7.88V9.88H182.956V7.88V5.88H176.236V7.88ZM182.956 7.88H180.956V8.84H182.956H184.956V7.88H182.956ZM182.956 8.84V10.84H183.916V8.84V6.84H182.956V8.84ZM183.916 8.84H181.916V9.8H183.916H185.916V8.84H183.916ZM183.916 9.8V11.8H184.876V9.8V7.8H183.916V9.8ZM184.876 9.8H182.876V11.72H184.876H186.876V9.8H184.876ZM184.876 11.72V9.72H181.996V11.72V13.72H184.876V11.72ZM181.996 11.72H183.996V10.76H181.996H179.996V11.72H181.996ZM181.996 10.76V8.76H177.196V10.76V12.76H181.996V10.76ZM177.196 10.76H175.196V11.72H177.196H179.196V10.76H177.196ZM177.196 11.72V9.72H176.236V11.72V13.72H177.196V11.72ZM176.236 11.72H174.236V12.68H176.236H178.236V11.72H176.236ZM176.236 12.68V10.68H175.276V12.68V14.68H176.236V12.68ZM175.276 12.68H173.276V24.2H175.276H177.276V12.68H175.276ZM175.276 24.2V26.2H176.236V24.2V22.2H175.276V24.2ZM176.236 24.2H174.236V25.16H176.236H178.236V24.2H176.236ZM176.236 25.16V27.16H177.196V25.16V23.16H176.236V25.16ZM177.196 25.16H175.196V26.12H177.196H179.196V25.16H177.196ZM177.196 26.12V28.12H181.996V26.12V24.12H177.196V26.12ZM181.996 26.12H183.996V20.36H181.996H179.996V26.12H181.996ZM181.996 20.36V18.36H181.036V20.36V22.36H181.996V20.36ZM181.036 20.36H179.036V21.32H181.036H183.036V20.36H181.036ZM181.036 21.32V19.32H178.156V21.32V23.32H181.036V21.32ZM178.156 21.32H180.156V17.48H178.156H176.156V21.32H178.156ZM178.156 17.48V19.48H184.876V17.48V15.48H178.156V17.48ZM184.876 17.48H182.876V27.08H184.876H186.876V17.48H184.876Z" fill="white" mask="url(#path-1-outside-1_1280_9031)"/>
<mask id="path-3-outside-2_1280_9031" maskUnits="userSpaceOnUse" x="71" y="44" width="125" height="26" fill="black">
<rect fill="white" x="71" y="44" width="125" height="26"/>
<path d="M85.495 65.12H84.535V66.08H83.575V67.04H82.615V68H76.855V67.04H75.895V66.08H74.935V65.12H73.975V64.16H73.015V50.72H73.975V49.76H74.935V48.8H75.895V47.84H76.855V46.88H82.615V47.84H83.575V48.8H84.535V49.76H85.495V52.64H82.615V50.72H81.655V49.76H77.815V50.72H76.855V51.68H75.895V63.2H76.855V64.16H77.815V65.12H81.655V64.16H82.615V62.24H85.495V65.12ZM100.861 68H88.3812V46.88H100.861V49.76H91.2612V55.52H98.9412V58.4H91.2612V65.12H100.861V68ZM116.227 68H113.347V64.16H112.387V62.24H111.427V60.32H110.467V58.4H106.627V68H103.747V46.88H113.347V47.84H114.307V48.8H115.267V49.76H116.227V55.52H115.267V56.48H114.307V57.44H113.347V59.36H114.307V61.28H115.267V63.2H116.227V68ZM113.347 54.56V50.72H112.387V49.76H106.627V55.52H112.387V54.56H113.347ZM131.594 68H119.114V46.88H131.594V49.76H121.994V55.52H129.674V58.4H121.994V65.12H131.594V68ZM146.96 68H144.08V57.44H143.12V59.36H142.16V61.28H141.2V63.2H140.24V61.28H139.28V59.36H138.32V57.44H137.36V68H134.48V46.88H135.44V48.8H136.4V50.72H137.36V52.64H138.32V54.56H139.28V56.48H140.24V58.4H141.2V56.48H142.16V54.56H143.12V52.64H144.08V50.72H145.04V48.8H146V46.88H146.96V68ZM162.326 64.16H161.366V65.12H160.406V66.08H159.446V67.04H158.486V68H153.686V67.04H152.726V66.08H151.766V65.12H150.806V64.16H149.846V50.72H150.806V49.76H151.766V48.8H152.726V47.84H153.686V46.88H158.486V47.84H159.446V48.8H160.406V49.76H161.366V50.72H162.326V64.16ZM159.446 63.2V51.68H158.486V50.72H157.526V49.76H154.646V50.72H153.686V51.68H152.726V63.2H153.686V64.16H154.646V65.12H157.526V64.16H158.486V63.2H159.446ZM177.693 68H174.813V67.04H173.853V65.12H172.893V63.2H171.933V61.28H170.973V59.36H170.013V57.44H169.053V55.52H168.093V68H165.213V46.88H167.133V48.8H168.093V50.72H169.053V52.64H170.013V54.56H170.973V56.48H171.933V58.4H172.893V60.32H173.853V62.24H174.813V46.88H177.693V68ZM193.059 49.76H192.099V51.68H191.139V53.6H190.179V55.52H189.219V57.44H188.259V68H185.379V57.44H184.419V55.52H183.459V53.6H182.499V51.68H181.539V49.76H180.579V46.88H183.459V48.8H184.419V50.72H185.379V52.64H186.339V54.56H187.299V52.64H188.259V50.72H189.219V48.8H190.179V46.88H193.059V49.76Z"/>
</mask>
<path d="M85.495 65.12V67.12H87.495V65.12H85.495ZM84.535 65.12V63.12H82.535V65.12H84.535ZM84.535 66.08V68.08H86.535V66.08H84.535ZM83.575 66.08V64.08H81.575V66.08H83.575ZM83.575 67.04V69.04H85.575V67.04H83.575ZM82.615 67.04V65.04H80.615V67.04H82.615ZM82.615 68V70H84.615V68H82.615ZM76.855 68H74.855V70H76.855V68ZM76.855 67.04H78.855V65.04H76.855V67.04ZM75.895 67.04H73.895V69.04H75.895V67.04ZM75.895 66.08H77.895V64.08H75.895V66.08ZM74.935 66.08H72.935V68.08H74.935V66.08ZM74.935 65.12H76.935V63.12H74.935V65.12ZM73.975 65.12H71.975V67.12H73.975V65.12ZM73.975 64.16H75.975V62.16H73.975V64.16ZM73.015 64.16H71.015V66.16H73.015V64.16ZM73.015 50.72V48.72H71.015V50.72H73.015ZM73.975 50.72V52.72H75.975V50.72H73.975ZM73.975 49.76V47.76H71.975V49.76H73.975ZM74.935 49.76V51.76H76.935V49.76H74.935ZM74.935 48.8V46.8H72.935V48.8H74.935ZM75.895 48.8V50.8H77.895V48.8H75.895ZM75.895 47.84V45.84H73.895V47.84H75.895ZM76.855 47.84V49.84H78.855V47.84H76.855ZM76.855 46.88V44.88H74.855V46.88H76.855ZM82.615 46.88H84.615V44.88H82.615V46.88ZM82.615 47.84H80.615V49.84H82.615V47.84ZM83.575 47.84H85.575V45.84H83.575V47.84ZM83.575 48.8H81.575V50.8H83.575V48.8ZM84.535 48.8H86.535V46.8H84.535V48.8ZM84.535 49.76H82.535V51.76H84.535V49.76ZM85.495 49.76H87.495V47.76H85.495V49.76ZM85.495 52.64V54.64H87.495V52.64H85.495ZM82.615 52.64H80.615V54.64H82.615V52.64ZM82.615 50.72H84.615V48.72H82.615V50.72ZM81.655 50.72H79.655V52.72H81.655V50.72ZM81.655 49.76H83.655V47.76H81.655V49.76ZM77.815 49.76V47.76H75.815V49.76H77.815ZM77.815 50.72V52.72H79.815V50.72H77.815ZM76.855 50.72V48.72H74.855V50.72H76.855ZM76.855 51.68V53.68H78.855V51.68H76.855ZM75.895 51.68V49.68H73.895V51.68H75.895ZM75.895 63.2H73.895V65.2H75.895V63.2ZM76.855 63.2H78.855V61.2H76.855V63.2ZM76.855 64.16H74.855V66.16H76.855V64.16ZM77.815 64.16H79.815V62.16H77.815V64.16ZM77.815 65.12H75.815V67.12H77.815V65.12ZM81.655 65.12V67.12H83.655V65.12H81.655ZM81.655 64.16V62.16H79.655V64.16H81.655ZM82.615 64.16V66.16H84.615V64.16H82.615ZM82.615 62.24V60.24H80.615V62.24H82.615ZM85.495 62.24H87.495V60.24H85.495V62.24ZM85.495 65.12V63.12H84.535V65.12V67.12H85.495V65.12ZM84.535 65.12H82.535V66.08H84.535H86.535V65.12H84.535ZM84.535 66.08V64.08H83.575V66.08V68.08H84.535V66.08ZM83.575 66.08H81.575V67.04H83.575H85.575V66.08H83.575ZM83.575 67.04V65.04H82.615V67.04V69.04H83.575V67.04ZM82.615 67.04H80.615V68H82.615H84.615V67.04H82.615ZM82.615 68V66H76.855V68V70H82.615V68ZM76.855 68H78.855V67.04H76.855H74.855V68H76.855ZM76.855 67.04V65.04H75.895V67.04V69.04H76.855V67.04ZM75.895 67.04H77.895V66.08H75.895H73.895V67.04H75.895ZM75.895 66.08V64.08H74.935V66.08V68.08H75.895V66.08ZM74.935 66.08H76.935V65.12H74.935H72.935V66.08H74.935ZM74.935 65.12V63.12H73.975V65.12V67.12H74.935V65.12ZM73.975 65.12H75.975V64.16H73.975H71.975V65.12H73.975ZM73.975 64.16V62.16H73.015V64.16V66.16H73.975V64.16ZM73.015 64.16H75.015V50.72H73.015H71.015V64.16H73.015ZM73.015 50.72V52.72H73.975V50.72V48.72H73.015V50.72ZM73.975 50.72H75.975V49.76H73.975H71.975V50.72H73.975ZM73.975 49.76V51.76H74.935V49.76V47.76H73.975V49.76ZM74.935 49.76H76.935V48.8H74.935H72.935V49.76H74.935ZM74.935 48.8V50.8H75.895V48.8V46.8H74.935V48.8ZM75.895 48.8H77.895V47.84H75.895H73.895V48.8H75.895ZM75.895 47.84V49.84H76.855V47.84V45.84H75.895V47.84ZM76.855 47.84H78.855V46.88H76.855H74.855V47.84H76.855ZM76.855 46.88V48.88H82.615V46.88V44.88H76.855V46.88ZM82.615 46.88H80.615V47.84H82.615H84.615V46.88H82.615ZM82.615 47.84V49.84H83.575V47.84V45.84H82.615V47.84ZM83.575 47.84H81.575V48.8H83.575H85.575V47.84H83.575ZM83.575 48.8V50.8H84.535V48.8V46.8H83.575V48.8ZM84.535 48.8H82.535V49.76H84.535H86.535V48.8H84.535ZM84.535 49.76V51.76H85.495V49.76V47.76H84.535V49.76ZM85.495 49.76H83.495V52.64H85.495H87.495V49.76H85.495ZM85.495 52.64V50.64H82.615V52.64V54.64H85.495V52.64ZM82.615 52.64H84.615V50.72H82.615H80.615V52.64H82.615ZM82.615 50.72V48.72H81.655V50.72V52.72H82.615V50.72ZM81.655 50.72H83.655V49.76H81.655H79.655V50.72H81.655ZM81.655 49.76V47.76H77.815V49.76V51.76H81.655V49.76ZM77.815 49.76H75.815V50.72H77.815H79.815V49.76H77.815ZM77.815 50.72V48.72H76.855V50.72V52.72H77.815V50.72ZM76.855 50.72H74.855V51.68H76.855H78.855V50.72H76.855ZM76.855 51.68V49.68H75.895V51.68V53.68H76.855V51.68ZM75.895 51.68H73.895V63.2H75.895H77.895V51.68H75.895ZM75.895 63.2V65.2H76.855V63.2V61.2H75.895V63.2ZM76.855 63.2H74.855V64.16H76.855H78.855V63.2H76.855ZM76.855 64.16V66.16H77.815V64.16V62.16H76.855V64.16ZM77.815 64.16H75.815V65.12H77.815H79.815V64.16H77.815ZM77.815 65.12V67.12H81.655V65.12V63.12H77.815V65.12ZM81.655 65.12H83.655V64.16H81.655H79.655V65.12H81.655ZM81.655 64.16V66.16H82.615V64.16V62.16H81.655V64.16ZM82.615 64.16H84.615V62.24H82.615H80.615V64.16H82.615ZM82.615 62.24V64.24H85.495V62.24V60.24H82.615V62.24ZM85.495 62.24H83.495V65.12H85.495H87.495V62.24H85.495ZM100.861 68V70H102.861V68H100.861ZM88.3812 68H86.3812V70H88.3812V68ZM88.3812 46.88V44.88H86.3812V46.88H88.3812ZM100.861 46.88H102.861V44.88H100.861V46.88ZM100.861 49.76V51.76H102.861V49.76H100.861ZM91.2612 49.76V47.76H89.2612V49.76H91.2612ZM91.2612 55.52H89.2612V57.52H91.2612V55.52ZM98.9412 55.52H100.941V53.52H98.9412V55.52ZM98.9412 58.4V60.4H100.941V58.4H98.9412ZM91.2612 58.4V56.4H89.2612V58.4H91.2612ZM91.2612 65.12H89.2612V67.12H91.2612V65.12ZM100.861 65.12H102.861V63.12H100.861V65.12ZM100.861 68V66H88.3812V68V70H100.861V68ZM88.3812 68H90.3812V46.88H88.3812H86.3812V68H88.3812ZM88.3812 46.88V48.88H100.861V46.88V44.88H88.3812V46.88ZM100.861 46.88H98.8612V49.76H100.861H102.861V46.88H100.861ZM100.861 49.76V47.76H91.2612V49.76V51.76H100.861V49.76ZM91.2612 49.76H89.2612V55.52H91.2612H93.2612V49.76H91.2612ZM91.2612 55.52V57.52H98.9412V55.52V53.52H91.2612V55.52ZM98.9412 55.52H96.9412V58.4H98.9412H100.941V55.52H98.9412ZM98.9412 58.4V56.4H91.2612V58.4V60.4H98.9412V58.4ZM91.2612 58.4H89.2612V65.12H91.2612H93.2612V58.4H91.2612ZM91.2612 65.12V67.12H100.861V65.12V63.12H91.2612V65.12ZM100.861 65.12H98.8612V68H100.861H102.861V65.12H100.861ZM116.227 68V70H118.227V68H116.227ZM113.347 68H111.347V70H113.347V68ZM113.347 64.16H115.347V62.16H113.347V64.16ZM112.387 64.16H110.387V66.16H112.387V64.16ZM112.387 62.24H114.387V60.24H112.387V62.24ZM111.427 62.24H109.427V64.24H111.427V62.24ZM111.427 60.32H113.427V58.32H111.427V60.32ZM110.467 60.32H108.467V62.32H110.467V60.32ZM110.467 58.4H112.467V56.4H110.467V58.4ZM106.627 58.4V56.4H104.627V58.4H106.627ZM106.627 68V70H108.627V68H106.627ZM103.747 68H101.747V70H103.747V68ZM103.747 46.88V44.88H101.747V46.88H103.747ZM113.347 46.88H115.347V44.88H113.347V46.88ZM113.347 47.84H111.347V49.84H113.347V47.84ZM114.307 47.84H116.307V45.84H114.307V47.84ZM114.307 48.8H112.307V50.8H114.307V48.8ZM115.267 48.8H117.267V46.8H115.267V48.8ZM115.267 49.76H113.267V51.76H115.267V49.76ZM116.227 49.76H118.227V47.76H116.227V49.76ZM116.227 55.52V57.52H118.227V55.52H116.227ZM115.267 55.52V53.52H113.267V55.52H115.267ZM115.267 56.48V58.48H117.267V56.48H115.267ZM114.307 56.48V54.48H112.307V56.48H114.307ZM114.307 57.44V59.44H116.307V57.44H114.307ZM113.347 57.44V55.44H111.347V57.44H113.347ZM113.347 59.36H111.347V61.36H113.347V59.36ZM114.307 59.36H116.307V57.36H114.307V59.36ZM114.307 61.28H112.307V63.28H114.307V61.28ZM115.267 61.28H117.267V59.28H115.267V61.28ZM115.267 63.2H113.267V65.2H115.267V63.2ZM116.227 63.2H118.227V61.2H116.227V63.2ZM113.347 54.56V56.56H115.347V54.56H113.347ZM113.347 50.72H115.347V48.72H113.347V50.72ZM112.387 50.72H110.387V52.72H112.387V50.72ZM112.387 49.76H114.387V47.76H112.387V49.76ZM106.627 49.76V47.76H104.627V49.76H106.627ZM106.627 55.52H104.627V57.52H106.627V55.52ZM112.387 55.52V57.52H114.387V55.52H112.387ZM112.387 54.56V52.56H110.387V54.56H112.387ZM116.227 68V66H113.347V68V70H116.227V68ZM113.347 68H115.347V64.16H113.347H111.347V68H113.347ZM113.347 64.16V62.16H112.387V64.16V66.16H113.347V64.16ZM112.387 64.16H114.387V62.24H112.387H110.387V64.16H112.387ZM112.387 62.24V60.24H111.427V62.24V64.24H112.387V62.24ZM111.427 62.24H113.427V60.32H111.427H109.427V62.24H111.427ZM111.427 60.32V58.32H110.467V60.32V62.32H111.427V60.32ZM110.467 60.32H112.467V58.4H110.467H108.467V60.32H110.467ZM110.467 58.4V56.4H106.627V58.4V60.4H110.467V58.4ZM106.627 58.4H104.627V68H106.627H108.627V58.4H106.627ZM106.627 68V66H103.747V68V70H106.627V68ZM103.747 68H105.747V46.88H103.747H101.747V68H103.747ZM103.747 46.88V48.88H113.347V46.88V44.88H103.747V46.88ZM113.347 46.88H111.347V47.84H113.347H115.347V46.88H113.347ZM113.347 47.84V49.84H114.307V47.84V45.84H113.347V47.84ZM114.307 47.84H112.307V48.8H114.307H116.307V47.84H114.307ZM114.307 48.8V50.8H115.267V48.8V46.8H114.307V48.8ZM115.267 48.8H113.267V49.76H115.267H117.267V48.8H115.267ZM115.267 49.76V51.76H116.227V49.76V47.76H115.267V49.76ZM116.227 49.76H114.227V55.52H116.227H118.227V49.76H116.227ZM116.227 55.52V53.52H115.267V55.52V57.52H116.227V55.52ZM115.267 55.52H113.267V56.48H115.267H117.267V55.52H115.267ZM115.267 56.48V54.48H114.307V56.48V58.48H115.267V56.48ZM114.307 56.48H112.307V57.44H114.307H116.307V56.48H114.307ZM114.307 57.44V55.44H113.347V57.44V59.44H114.307V57.44ZM113.347 57.44H111.347V59.36H113.347H115.347V57.44H113.347ZM113.347 59.36V61.36H114.307V59.36V57.36H113.347V59.36ZM114.307 59.36H112.307V61.28H114.307H116.307V59.36H114.307ZM114.307 61.28V63.28H115.267V61.28V59.28H114.307V61.28ZM115.267 61.28H113.267V63.2H115.267H117.267V61.28H115.267ZM115.267 63.2V65.2H116.227V63.2V61.2H115.267V63.2ZM116.227 63.2H114.227V68H116.227H118.227V63.2H116.227ZM113.347 54.56H115.347V50.72H113.347H111.347V54.56H113.347ZM113.347 50.72V48.72H112.387V50.72V52.72H113.347V50.72ZM112.387 50.72H114.387V49.76H112.387H110.387V50.72H112.387ZM112.387 49.76V47.76H106.627V49.76V51.76H112.387V49.76ZM106.627 49.76H104.627V55.52H106.627H108.627V49.76H106.627ZM106.627 55.52V57.52H112.387V55.52V53.52H106.627V55.52ZM112.387 55.52H114.387V54.56H112.387H110.387V55.52H112.387ZM112.387 54.56V56.56H113.347V54.56V52.56H112.387V54.56ZM131.594 68V70H133.594V68H131.594ZM119.114 68H117.114V70H119.114V68ZM119.114 46.88V44.88H117.114V46.88H119.114ZM131.594 46.88H133.594V44.88H131.594V46.88ZM131.594 49.76V51.76H133.594V49.76H131.594ZM121.994 49.76V47.76H119.994V49.76H121.994ZM121.994 55.52H119.994V57.52H121.994V55.52ZM129.674 55.52H131.674V53.52H129.674V55.52ZM129.674 58.4V60.4H131.674V58.4H129.674ZM121.994 58.4V56.4H119.994V58.4H121.994ZM121.994 65.12H119.994V67.12H121.994V65.12ZM131.594 65.12H133.594V63.12H131.594V65.12ZM131.594 68V66H119.114V68V70H131.594V68ZM119.114 68H121.114V46.88H119.114H117.114V68H119.114ZM119.114 46.88V48.88H131.594V46.88V44.88H119.114V46.88ZM131.594 46.88H129.594V49.76H131.594H133.594V46.88H131.594ZM131.594 49.76V47.76H121.994V49.76V51.76H131.594V49.76ZM121.994 49.76H119.994V55.52H121.994H123.994V49.76H121.994ZM121.994 55.52V57.52H129.674V55.52V53.52H121.994V55.52ZM129.674 55.52H127.674V58.4H129.674H131.674V55.52H129.674ZM129.674 58.4V56.4H121.994V58.4V60.4H129.674V58.4ZM121.994 58.4H119.994V65.12H121.994H123.994V58.4H121.994ZM121.994 65.12V67.12H131.594V65.12V63.12H121.994V65.12ZM131.594 65.12H129.594V68H131.594H133.594V65.12H131.594ZM146.96 68V70H148.96V68H146.96ZM144.08 68H142.08V70H144.08V68ZM144.08 57.44H146.08V55.44H144.08V57.44ZM143.12 57.44V55.44H141.12V57.44H143.12ZM143.12 59.36V61.36H145.12V59.36H143.12ZM142.16 59.36V57.36H140.16V59.36H142.16ZM142.16 61.28V63.28H144.16V61.28H142.16ZM141.2 61.28V59.28H139.2V61.28H141.2ZM141.2 63.2V65.2H143.2V63.2H141.2ZM140.24 63.2H138.24V65.2H140.24V63.2ZM140.24 61.28H142.24V59.28H140.24V61.28ZM139.28 61.28H137.28V63.28H139.28V61.28ZM139.28 59.36H141.28V57.36H139.28V59.36ZM138.32 59.36H136.32V61.36H138.32V59.36ZM138.32 57.44H140.32V55.44H138.32V57.44ZM137.36 57.44V55.44H135.36V57.44H137.36ZM137.36 68V70H139.36V68H137.36ZM134.48 68H132.48V70H134.48V68ZM134.48 46.88V44.88H132.48V46.88H134.48ZM135.44 46.88H137.44V44.88H135.44V46.88ZM135.44 48.8H133.44V50.8H135.44V48.8ZM136.4 48.8H138.4V46.8H136.4V48.8ZM136.4 50.72H134.4V52.72H136.4V50.72ZM137.36 50.72H139.36V48.72H137.36V50.72ZM137.36 52.64H135.36V54.64H137.36V52.64ZM138.32 52.64H140.32V50.64H138.32V52.64ZM138.32 54.56H136.32V56.56H138.32V54.56ZM139.28 54.56H141.28V52.56H139.28V54.56ZM139.28 56.48H137.28V58.48H139.28V56.48ZM140.24 56.48H142.24V54.48H140.24V56.48ZM140.24 58.4H138.24V60.4H140.24V58.4ZM141.2 58.4V60.4H143.2V58.4H141.2ZM141.2 56.48V54.48H139.2V56.48H141.2ZM142.16 56.48V58.48H144.16V56.48H142.16ZM142.16 54.56V52.56H140.16V54.56H142.16ZM143.12 54.56V56.56H145.12V54.56H143.12ZM143.12 52.64V50.64H141.12V52.64H143.12ZM144.08 52.64V54.64H146.08V52.64H144.08ZM144.08 50.72V48.72H142.08V50.72H144.08ZM145.04 50.72V52.72H147.04V50.72H145.04ZM145.04 48.8V46.8H143.04V48.8H145.04ZM146 48.8V50.8H148V48.8H146ZM146 46.88V44.88H144V46.88H146ZM146.96 46.88H148.96V44.88H146.96V46.88ZM146.96 68V66H144.08V68V70H146.96V68ZM144.08 68H146.08V57.44H144.08H142.08V68H144.08ZM144.08 57.44V55.44H143.12V57.44V59.44H144.08V57.44ZM143.12 57.44H141.12V59.36H143.12H145.12V57.44H143.12ZM143.12 59.36V57.36H142.16V59.36V61.36H143.12V59.36ZM142.16 59.36H140.16V61.28H142.16H144.16V59.36H142.16ZM142.16 61.28V59.28H141.2V61.28V63.28H142.16V61.28ZM141.2 61.28H139.2V63.2H141.2H143.2V61.28H141.2ZM141.2 63.2V61.2H140.24V63.2V65.2H141.2V63.2ZM140.24 63.2H142.24V61.28H140.24H138.24V63.2H140.24ZM140.24 61.28V59.28H139.28V61.28V63.28H140.24V61.28ZM139.28 61.28H141.28V59.36H139.28H137.28V61.28H139.28ZM139.28 59.36V57.36H138.32V59.36V61.36H139.28V59.36ZM138.32 59.36H140.32V57.44H138.32H136.32V59.36H138.32ZM138.32 57.44V55.44H137.36V57.44V59.44H138.32V57.44ZM137.36 57.44H135.36V68H137.36H139.36V57.44H137.36ZM137.36 68V66H134.48V68V70H137.36V68ZM134.48 68H136.48V46.88H134.48H132.48V68H134.48ZM134.48 46.88V48.88H135.44V46.88V44.88H134.48V46.88ZM135.44 46.88H133.44V48.8H135.44H137.44V46.88H135.44ZM135.44 48.8V50.8H136.4V48.8V46.8H135.44V48.8ZM136.4 48.8H134.4V50.72H136.4H138.4V48.8H136.4ZM136.4 50.72V52.72H137.36V50.72V48.72H136.4V50.72ZM137.36 50.72H135.36V52.64H137.36H139.36V50.72H137.36ZM137.36 52.64V54.64H138.32V52.64V50.64H137.36V52.64ZM138.32 52.64H136.32V54.56H138.32H140.32V52.64H138.32ZM138.32 54.56V56.56H139.28V54.56V52.56H138.32V54.56ZM139.28 54.56H137.28V56.48H139.28H141.28V54.56H139.28ZM139.28 56.48V58.48H140.24V56.48V54.48H139.28V56.48ZM140.24 56.48H138.24V58.4H140.24H142.24V56.48H140.24ZM140.24 58.4V60.4H141.2V58.4V56.4H140.24V58.4ZM141.2 58.4H143.2V56.48H141.2H139.2V58.4H141.2ZM141.2 56.48V58.48H142.16V56.48V54.48H141.2V56.48ZM142.16 56.48H144.16V54.56H142.16H140.16V56.48H142.16ZM142.16 54.56V56.56H143.12V54.56V52.56H142.16V54.56ZM143.12 54.56H145.12V52.64H143.12H141.12V54.56H143.12ZM143.12 52.64V54.64H144.08V52.64V50.64H143.12V52.64ZM144.08 52.64H146.08V50.72H144.08H142.08V52.64H144.08ZM144.08 50.72V52.72H145.04V50.72V48.72H144.08V50.72ZM145.04 50.72H147.04V48.8H145.04H143.04V50.72H145.04ZM145.04 48.8V50.8H146V48.8V46.8H145.04V48.8ZM146 48.8H148V46.88H146H144V48.8H146ZM146 46.88V48.88H146.96V46.88V44.88H146V46.88ZM146.96 46.88H144.96V68H146.96H148.96V46.88H146.96ZM162.326 64.16V66.16H164.326V64.16H162.326ZM161.366 64.16V62.16H159.366V64.16H161.366ZM161.366 65.12V67.12H163.366V65.12H161.366ZM160.406 65.12V63.12H158.406V65.12H160.406ZM160.406 66.08V68.08H162.406V66.08H160.406ZM159.446 66.08V64.08H157.446V66.08H159.446ZM159.446 67.04V69.04H161.446V67.04H159.446ZM158.486 67.04V65.04H156.486V67.04H158.486ZM158.486 68V70H160.486V68H158.486ZM153.686 68H151.686V70H153.686V68ZM153.686 67.04H155.686V65.04H153.686V67.04ZM152.726 67.04H150.726V69.04H152.726V67.04ZM152.726 66.08H154.726V64.08H152.726V66.08ZM151.766 66.08H149.766V68.08H151.766V66.08ZM151.766 65.12H153.766V63.12H151.766V65.12ZM150.806 65.12H148.806V67.12H150.806V65.12ZM150.806 64.16H152.806V62.16H150.806V64.16ZM149.846 64.16H147.846V66.16H149.846V64.16ZM149.846 50.72V48.72H147.846V50.72H149.846ZM150.806 50.72V52.72H152.806V50.72H150.806ZM150.806 49.76V47.76H148.806V49.76H150.806ZM151.766 49.76V51.76H153.766V49.76H151.766ZM151.766 48.8V46.8H149.766V48.8H151.766ZM152.726 48.8V50.8H154.726V48.8H152.726ZM152.726 47.84V45.84H150.726V47.84H152.726ZM153.686 47.84V49.84H155.686V47.84H153.686ZM153.686 46.88V44.88H151.686V46.88H153.686ZM158.486 46.88H160.486V44.88H158.486V46.88ZM158.486 47.84H156.486V49.84H158.486V47.84ZM159.446 47.84H161.446V45.84H159.446V47.84ZM159.446 48.8H157.446V50.8H159.446V48.8ZM160.406 48.8H162.406V46.8H160.406V48.8ZM160.406 49.76H158.406V51.76H160.406V49.76ZM161.366 49.76H163.366V47.76H161.366V49.76ZM161.366 50.72H159.366V52.72H161.366V50.72ZM162.326 50.72H164.326V48.72H162.326V50.72ZM159.446 63.2V65.2H161.446V63.2H159.446ZM159.446 51.68H161.446V49.68H159.446V51.68ZM158.486 51.68H156.486V53.68H158.486V51.68ZM158.486 50.72H160.486V48.72H158.486V50.72ZM157.526 50.72H155.526V52.72H157.526V50.72ZM157.526 49.76H159.526V47.76H157.526V49.76ZM154.646 49.76V47.76H152.646V49.76H154.646ZM154.646 50.72V52.72H156.646V50.72H154.646ZM153.686 50.72V48.72H151.686V50.72H153.686ZM153.686 51.68V53.68H155.686V51.68H153.686ZM152.726 51.68V49.68H150.726V51.68H152.726ZM152.726 63.2H150.726V65.2H152.726V63.2ZM153.686 63.2H155.686V61.2H153.686V63.2ZM153.686 64.16H151.686V66.16H153.686V64.16ZM154.646 64.16H156.646V62.16H154.646V64.16ZM154.646 65.12H152.646V67.12H154.646V65.12ZM157.526 65.12V67.12H159.526V65.12H157.526ZM157.526 64.16V62.16H155.526V64.16H157.526ZM158.486 64.16V66.16H160.486V64.16H158.486ZM158.486 63.2V61.2H156.486V63.2H158.486ZM162.326 64.16V62.16H161.366V64.16V66.16H162.326V64.16ZM161.366 64.16H159.366V65.12H161.366H163.366V64.16H161.366ZM161.366 65.12V63.12H160.406V65.12V67.12H161.366V65.12ZM160.406 65.12H158.406V66.08H160.406H162.406V65.12H160.406ZM160.406 66.08V64.08H159.446V66.08V68.08H160.406V66.08ZM159.446 66.08H157.446V67.04H159.446H161.446V66.08H159.446ZM159.446 67.04V65.04H158.486V67.04V69.04H159.446V67.04ZM158.486 67.04H156.486V68H158.486H160.486V67.04H158.486ZM158.486 68V66H153.686V68V70H158.486V68ZM153.686 68H155.686V67.04H153.686H151.686V68H153.686ZM153.686 67.04V65.04H152.726V67.04V69.04H153.686V67.04ZM152.726 67.04H154.726V66.08H152.726H150.726V67.04H152.726ZM152.726 66.08V64.08H151.766V66.08V68.08H152.726V66.08ZM151.766 66.08H153.766V65.12H151.766H149.766V66.08H151.766ZM151.766 65.12V63.12H150.806V65.12V67.12H151.766V65.12ZM150.806 65.12H152.806V64.16H150.806H148.806V65.12H150.806ZM150.806 64.16V62.16H149.846V64.16V66.16H150.806V64.16ZM149.846 64.16H151.846V50.72H149.846H147.846V64.16H149.846ZM149.846 50.72V52.72H150.806V50.72V48.72H149.846V50.72ZM150.806 50.72H152.806V49.76H150.806H148.806V50.72H150.806ZM150.806 49.76V51.76H151.766V49.76V47.76H150.806V49.76ZM151.766 49.76H153.766V48.8H151.766H149.766V49.76H151.766ZM151.766 48.8V50.8H152.726V48.8V46.8H151.766V48.8ZM152.726 48.8H154.726V47.84H152.726H150.726V48.8H152.726ZM152.726 47.84V49.84H153.686V47.84V45.84H152.726V47.84ZM153.686 47.84H155.686V46.88H153.686H151.686V47.84H153.686ZM153.686 46.88V48.88H158.486V46.88V44.88H153.686V46.88ZM158.486 46.88H156.486V47.84H158.486H160.486V46.88H158.486ZM158.486 47.84V49.84H159.446V47.84V45.84H158.486V47.84ZM159.446 47.84H157.446V48.8H159.446H161.446V47.84H159.446ZM159.446 48.8V50.8H160.406V48.8V46.8H159.446V48.8ZM160.406 48.8H158.406V49.76H160.406H162.406V48.8H160.406ZM160.406 49.76V51.76H161.366V49.76V47.76H160.406V49.76ZM161.366 49.76H159.366V50.72H161.366H163.366V49.76H161.366ZM161.366 50.72V52.72H162.326V50.72V48.72H161.366V50.72ZM162.326 50.72H160.326V64.16H162.326H164.326V50.72H162.326ZM159.446 63.2H161.446V51.68H159.446H157.446V63.2H159.446ZM159.446 51.68V49.68H158.486V51.68V53.68H159.446V51.68ZM158.486 51.68H160.486V50.72H158.486H156.486V51.68H158.486ZM158.486 50.72V48.72H157.526V50.72V52.72H158.486V50.72ZM157.526 50.72H159.526V49.76H157.526H155.526V50.72H157.526ZM157.526 49.76V47.76H154.646V49.76V51.76H157.526V49.76ZM154.646 49.76H152.646V50.72H154.646H156.646V49.76H154.646ZM154.646 50.72V48.72H153.686V50.72V52.72H154.646V50.72ZM153.686 50.72H151.686V51.68H153.686H155.686V50.72H153.686ZM153.686 51.68V49.68H152.726V51.68V53.68H153.686V51.68ZM152.726 51.68H150.726V63.2H152.726H154.726V51.68H152.726ZM152.726 63.2V65.2H153.686V63.2V61.2H152.726V63.2ZM153.686 63.2H151.686V64.16H153.686H155.686V63.2H153.686ZM153.686 64.16V66.16H154.646V64.16V62.16H153.686V64.16ZM154.646 64.16H152.646V65.12H154.646H156.646V64.16H154.646ZM154.646 65.12V67.12H157.526V65.12V63.12H154.646V65.12ZM157.526 65.12H159.526V64.16H157.526H155.526V65.12H157.526ZM157.526 64.16V66.16H158.486V64.16V62.16H157.526V64.16ZM158.486 64.16H160.486V63.2H158.486H156.486V64.16H158.486ZM158.486 63.2V65.2H159.446V63.2V61.2H158.486V63.2ZM177.693 68V70H179.693V68H177.693ZM174.813 68H172.813V70H174.813V68ZM174.813 67.04H176.813V65.04H174.813V67.04ZM173.853 67.04H171.853V69.04H173.853V67.04ZM173.853 65.12H175.853V63.12H173.853V65.12ZM172.893 65.12H170.893V67.12H172.893V65.12ZM172.893 63.2H174.893V61.2H172.893V63.2ZM171.933 63.2H169.933V65.2H171.933V63.2ZM171.933 61.28H173.933V59.28H171.933V61.28ZM170.973 61.28H168.973V63.28H170.973V61.28ZM170.973 59.36H172.973V57.36H170.973V59.36ZM170.013 59.36H168.013V61.36H170.013V59.36ZM170.013 57.44H172.013V55.44H170.013V57.44ZM169.053 57.44H167.053V59.44H169.053V57.44ZM169.053 55.52H171.053V53.52H169.053V55.52ZM168.093 55.52V53.52H166.093V55.52H168.093ZM168.093 68V70H170.093V68H168.093ZM165.213 68H163.213V70H165.213V68ZM165.213 46.88V44.88H163.213V46.88H165.213ZM167.133 46.88H169.133V44.88H167.133V46.88ZM167.133 48.8H165.133V50.8H167.133V48.8ZM168.093 48.8H170.093V46.8H168.093V48.8ZM168.093 50.72H166.093V52.72H168.093V50.72ZM169.053 50.72H171.053V48.72H169.053V50.72ZM169.053 52.64H167.053V54.64H169.053V52.64ZM170.013 52.64H172.013V50.64H170.013V52.64ZM170.013 54.56H168.013V56.56H170.013V54.56ZM170.973 54.56H172.973V52.56H170.973V54.56ZM170.973 56.48H168.973V58.48H170.973V56.48ZM171.933 56.48H173.933V54.48H171.933V56.48ZM171.933 58.4H169.933V60.4H171.933V58.4ZM172.893 58.4H174.893V56.4H172.893V58.4ZM172.893 60.32H170.893V62.32H172.893V60.32ZM173.853 60.32H175.853V58.32H173.853V60.32ZM173.853 62.24H171.853V64.24H173.853V62.24ZM174.813 62.24V64.24H176.813V62.24H174.813ZM174.813 46.88V44.88H172.813V46.88H174.813ZM177.693 46.88H179.693V44.88H177.693V46.88ZM177.693 68V66H174.813V68V70H177.693V68ZM174.813 68H176.813V67.04H174.813H172.813V68H174.813ZM174.813 67.04V65.04H173.853V67.04V69.04H174.813V67.04ZM173.853 67.04H175.853V65.12H173.853H171.853V67.04H173.853ZM173.853 65.12V63.12H172.893V65.12V67.12H173.853V65.12ZM172.893 65.12H174.893V63.2H172.893H170.893V65.12H172.893ZM172.893 63.2V61.2H171.933V63.2V65.2H172.893V63.2ZM171.933 63.2H173.933V61.28H171.933H169.933V63.2H171.933ZM171.933 61.28V59.28H170.973V61.28V63.28H171.933V61.28ZM170.973 61.28H172.973V59.36H170.973H168.973V61.28H170.973ZM170.973 59.36V57.36H170.013V59.36V61.36H170.973V59.36ZM170.013 59.36H172.013V57.44H170.013H168.013V59.36H170.013ZM170.013 57.44V55.44H169.053V57.44V59.44H170.013V57.44ZM169.053 57.44H171.053V55.52H169.053H167.053V57.44H169.053ZM169.053 55.52V53.52H168.093V55.52V57.52H169.053V55.52ZM168.093 55.52H166.093V68H168.093H170.093V55.52H168.093ZM168.093 68V66H165.213V68V70H168.093V68ZM165.213 68H167.213V46.88H165.213H163.213V68H165.213ZM165.213 46.88V48.88H167.133V46.88V44.88H165.213V46.88ZM167.133 46.88H165.133V48.8H167.133H169.133V46.88H167.133ZM167.133 48.8V50.8H168.093V48.8V46.8H167.133V48.8ZM168.093 48.8H166.093V50.72H168.093H170.093V48.8H168.093ZM168.093 50.72V52.72H169.053V50.72V48.72H168.093V50.72ZM169.053 50.72H167.053V52.64H169.053H171.053V50.72H169.053ZM169.053 52.64V54.64H170.013V52.64V50.64H169.053V52.64ZM170.013 52.64H168.013V54.56H170.013H172.013V52.64H170.013ZM170.013 54.56V56.56H170.973V54.56V52.56H170.013V54.56ZM170.973 54.56H168.973V56.48H170.973H172.973V54.56H170.973ZM170.973 56.48V58.48H171.933V56.48V54.48H170.973V56.48ZM171.933 56.48H169.933V58.4H171.933H173.933V56.48H171.933ZM171.933 58.4V60.4H172.893V58.4V56.4H171.933V58.4ZM172.893 58.4H170.893V60.32H172.893H174.893V58.4H172.893ZM172.893 60.32V62.32H173.853V60.32V58.32H172.893V60.32ZM173.853 60.32H171.853V62.24H173.853H175.853V60.32H173.853ZM173.853 62.24V64.24H174.813V62.24V60.24H173.853V62.24ZM174.813 62.24H176.813V46.88H174.813H172.813V62.24H174.813ZM174.813 46.88V48.88H177.693V46.88V44.88H174.813V46.88ZM177.693 46.88H175.693V68H177.693H179.693V46.88H177.693ZM193.059 49.76V51.76H195.059V49.76H193.059ZM192.099 49.76V47.76H190.099V49.76H192.099ZM192.099 51.68V53.68H194.099V51.68H192.099ZM191.139 51.68V49.68H189.139V51.68H191.139ZM191.139 53.6V55.6H193.139V53.6H191.139ZM190.179 53.6V51.6H188.179V53.6H190.179ZM190.179 55.52V57.52H192.179V55.52H190.179ZM189.219 55.52V53.52H187.219V55.52H189.219ZM189.219 57.44V59.44H191.219V57.44H189.219ZM188.259 57.44V55.44H186.259V57.44H188.259ZM188.259 68V70H190.259V68H188.259ZM185.379 68H183.379V70H185.379V68ZM185.379 57.44H187.379V55.44H185.379V57.44ZM184.419 57.44H182.419V59.44H184.419V57.44ZM184.419 55.52H186.419V53.52H184.419V55.52ZM183.459 55.52H181.459V57.52H183.459V55.52ZM183.459 53.6H185.459V51.6H183.459V53.6ZM182.499 53.6H180.499V55.6H182.499V53.6ZM182.499 51.68H184.499V49.68H182.499V51.68ZM181.539 51.68H179.539V53.68H181.539V51.68ZM181.539 49.76H183.539V47.76H181.539V49.76ZM180.579 49.76H178.579V51.76H180.579V49.76ZM180.579 46.88V44.88H178.579V46.88H180.579ZM183.459 46.88H185.459V44.88H183.459V46.88ZM183.459 48.8H181.459V50.8H183.459V48.8ZM184.419 48.8H186.419V46.8H184.419V48.8ZM184.419 50.72H182.419V52.72H184.419V50.72ZM185.379 50.72H187.379V48.72H185.379V50.72ZM185.379 52.64H183.379V54.64H185.379V52.64ZM186.339 52.64H188.339V50.64H186.339V52.64ZM186.339 54.56H184.339V56.56H186.339V54.56ZM187.299 54.56V56.56H189.299V54.56H187.299ZM187.299 52.64V50.64H185.299V52.64H187.299ZM188.259 52.64V54.64H190.259V52.64H188.259ZM188.259 50.72V48.72H186.259V50.72H188.259ZM189.219 50.72V52.72H191.219V50.72H189.219ZM189.219 48.8V46.8H187.219V48.8H189.219ZM190.179 48.8V50.8H192.179V48.8H190.179ZM190.179 46.88V44.88H188.179V46.88H190.179ZM193.059 46.88H195.059V44.88H193.059V46.88ZM193.059 49.76V47.76H192.099V49.76V51.76H193.059V49.76ZM192.099 49.76H190.099V51.68H192.099H194.099V49.76H192.099ZM192.099 51.68V49.68H191.139V51.68V53.68H192.099V51.68ZM191.139 51.68H189.139V53.6H191.139H193.139V51.68H191.139ZM191.139 53.6V51.6H190.179V53.6V55.6H191.139V53.6ZM190.179 53.6H188.179V55.52H190.179H192.179V53.6H190.179ZM190.179 55.52V53.52H189.219V55.52V57.52H190.179V55.52ZM189.219 55.52H187.219V57.44H189.219H191.219V55.52H189.219ZM189.219 57.44V55.44H188.259V57.44V59.44H189.219V57.44ZM188.259 57.44H186.259V68H188.259H190.259V57.44H188.259ZM188.259 68V66H185.379V68V70H188.259V68ZM185.379 68H187.379V57.44H185.379H183.379V68H185.379ZM185.379 57.44V55.44H184.419V57.44V59.44H185.379V57.44ZM184.419 57.44H186.419V55.52H184.419H182.419V57.44H184.419ZM184.419 55.52V53.52H183.459V55.52V57.52H184.419V55.52ZM183.459 55.52H185.459V53.6H183.459H181.459V55.52H183.459ZM183.459 53.6V51.6H182.499V53.6V55.6H183.459V53.6ZM182.499 53.6H184.499V51.68H182.499H180.499V53.6H182.499ZM182.499 51.68V49.68H181.539V51.68V53.68H182.499V51.68ZM181.539 51.68H183.539V49.76H181.539H179.539V51.68H181.539ZM181.539 49.76V47.76H180.579V49.76V51.76H181.539V49.76ZM180.579 49.76H182.579V46.88H180.579H178.579V49.76H180.579ZM180.579 46.88V48.88H183.459V46.88V44.88H180.579V46.88ZM183.459 46.88H181.459V48.8H183.459H185.459V46.88H183.459ZM183.459 48.8V50.8H184.419V48.8V46.8H183.459V48.8ZM184.419 48.8H182.419V50.72H184.419H186.419V48.8H184.419ZM184.419 50.72V52.72H185.379V50.72V48.72H184.419V50.72ZM185.379 50.72H183.379V52.64H185.379H187.379V50.72H185.379ZM185.379 52.64V54.64H186.339V52.64V50.64H185.379V52.64ZM186.339 52.64H184.339V54.56H186.339H188.339V52.64H186.339ZM186.339 54.56V56.56H187.299V54.56V52.56H186.339V54.56ZM187.299 54.56H189.299V52.64H187.299H185.299V54.56H187.299ZM187.299 52.64V54.64H188.259V52.64V50.64H187.299V52.64ZM188.259 52.64H190.259V50.72H188.259H186.259V52.64H188.259ZM188.259 50.72V52.72H189.219V50.72V48.72H188.259V50.72ZM189.219 50.72H191.219V48.8H189.219H187.219V50.72H189.219ZM189.219 48.8V50.8H190.179V48.8V46.8H189.219V48.8ZM190.179 48.8H192.179V46.88H190.179H188.179V48.8H190.179ZM190.179 46.88V48.88H193.059V46.88V44.88H190.179V46.88ZM193.059 46.88H191.059V49.76H193.059H195.059V46.88H193.059Z" fill="white" mask="url(#path-3-outside-2_1280_9031)"/>
</svg>
