<svg width="562" height="225" viewBox="0 0 562 225" fill="none" xmlns="http://www.w3.org/2000/svg">
<path d="M34.32 51.08H31.68V53.72H29.04V56.36H26.4V59H7.92V56.36H5.28V53.72H2.64V51.08H0V43.16H7.92V48.44H10.56V51.08H23.76V48.44H26.4V35.24H23.76V32.6H7.92V29.96H5.28V27.32H2.64V24.68H0V8.84H2.64V6.2H5.28V3.56H7.92V0.919998H26.4V3.56H29.04V6.2H31.68V8.84H34.32V16.76H26.4V11.48H23.76V8.84H10.56V11.48H7.92V22.04H10.56V24.68H26.4V27.32H29.04V29.96H31.68V32.6H34.32V51.08ZM73.9372 8.84H60.7372V59H52.8172V8.84H39.6172V0.919998H73.9372V8.84ZM113.554 59H105.634V45.8H87.1544V59H79.2344V37.88V35.24V29.96H81.8744V24.68H84.5144V19.4H87.1544V14.12H89.7944V8.84H92.4344V3.56H95.0744V0.919998H97.7144V3.56H100.354V8.84H102.994V14.12H105.634V19.4H108.274V24.68H110.914V29.96H113.554V35.24V37.88V59ZM105.634 37.88V35.24V32.6H102.994V27.32H100.354V22.04H97.7144V16.76H95.0744V22.04H92.4344V27.32H89.7944V32.6H87.1544V35.24V37.88H105.634ZM153.172 8.84H139.972V59H132.052V8.84H118.852V0.919998H153.172V8.84ZM192.789 51.08H190.149V53.72H187.509V56.36H184.869V59H166.389V56.36H163.749V53.72H161.109V51.08H158.469V0.919998H166.389V48.44H169.029V51.08H182.229V48.44H184.869V0.919998H192.789V51.08ZM232.406 51.08H229.766V53.72H227.126V56.36H224.486V59H206.006V56.36H203.366V53.72H200.726V51.08H198.086V43.16H206.006V48.44H208.646V51.08H221.846V48.44H224.486V35.24H221.846V32.6H206.006V29.96H203.366V27.32H200.726V24.68H198.086V8.84H200.726V6.2H203.366V3.56H206.006V0.919998H224.486V3.56H227.126V6.2H229.766V8.84H232.406V16.76H224.486V11.48H221.846V8.84H208.646V11.48H206.006V22.04H208.646V24.68H224.486V27.32H227.126V29.96H229.766V32.6H232.406V51.08ZM311.64 51.08H309V53.72H306.36V56.36H303.72V59H287.88V56.36H285.24V53.72H282.6V51.08H279.96V48.44H277.32V11.48H279.96V8.84H282.6V6.2H285.24V3.56H287.88V0.919998H303.72V3.56H306.36V6.2H309V8.84H311.64V16.76H303.72V11.48H301.08V8.84H290.52V11.48H287.88V14.12H285.24V45.8H287.88V48.44H290.52V51.08H301.08V48.44H303.72V43.16H311.64V51.08ZM351.258 48.44H348.618V51.08H345.978V53.72H343.338V56.36H340.698V59H327.498V56.36H324.858V53.72H322.218V51.08H319.578V48.44H316.938V11.48H319.578V8.84H322.218V6.2H324.858V3.56H327.498V0.919998H340.698V3.56H343.338V6.2H345.978V8.84H348.618V11.48H351.258V48.44ZM343.338 45.8V14.12H340.698V11.48H338.058V8.84H330.138V11.48H327.498V14.12H324.858V45.8H327.498V48.44H330.138V51.08H338.058V48.44H340.698V45.8H343.338ZM390.875 45.8H388.235V48.44H385.595V51.08H382.955V53.72H380.315V56.36H377.587V59H356.555V0.919998H377.675V3.56H380.315V6.2H382.955V8.84H385.595V11.48H388.235V14.12H390.875V45.8ZM382.955 43.16V16.76H380.315V14.12H377.675V11.48H375.035V8.84H364.475V51.08H375.035V48.44H377.675V45.8H380.315V43.16H382.955ZM430.492 59H396.172V0.919998H430.492V8.84H404.092V24.68H425.212V32.6H404.092V51.08H430.492V59Z" fill="white"/>
<path d="M509.726 59H475.406V51.08H488.606V8.84H480.686V0.919998H496.526V51.08H509.726V59Z" fill="#FC6653"/>
<g filter="url(#filter0_d_1424_6035)">
<mask id="path-2-outside-1_1424_6035" maskUnits="userSpaceOnUse" x="122" y="83" width="390" height="88" fill="black">
<rect fill="white" x="122" y="83" width="390" height="88"/>
<path d="M173.36 123.36V160.56H169.64V164.28H165.92V168H139.88V164.28H136.16V160.56H132.44V156.84H128.72V153.12H125V101.04H128.72V97.32H132.44V93.6H136.16V89.88H139.88V86.16H165.92V89.88H169.64V93.6H173.36V101.04H162.2V97.32H143.6V101.04H139.88V104.76H136.16V149.4H139.88V153.12H143.6V156.84H162.2V134.52H158.48V138.24H147.32V123.36H173.36ZM229.184 156.84V168H180.824V86.16H191.984V156.84H229.184ZM285.008 156.84V168H236.648V156.84H255.248V97.32H247.808V86.16H273.848V97.32H266.408V156.84H285.008ZM340.833 86.16V168H329.673V127.08H325.953V134.52H322.233V141.96H318.513V149.4H314.793V141.96H311.073V134.52H307.353V127.08H303.633V168H292.473V86.16H296.193V93.6H299.913V101.04H303.633V108.48H307.353V115.92H311.073V123.36H314.793V130.8H318.513V123.36H322.233V115.92H325.953V108.48H329.673V101.04H333.393V93.6H337.113V86.16H340.833ZM381.777 119.64H385.497V101.04H381.777V97.32H359.457V123.36H381.777V119.64ZM396.657 97.32V123.36H392.937V127.08H389.217V130.8H385.497V134.52H359.457V168H348.297V86.16H385.497V89.88H389.217V93.6H392.937V97.32H396.657ZM452.481 130.8V156.84H448.761V160.56H445.041V164.28H441.321V168H415.281V164.28H411.561V160.56H407.841V156.84H404.121V145.68H415.281V153.12H419.001V156.84H437.601V153.12H441.321V134.52H437.601V130.8H415.281V127.08H411.561V123.36H407.841V119.64H404.121V97.32H407.841V93.6H411.561V89.88H415.281V86.16H441.321V89.88H445.041V93.6H448.761V97.32H452.481V108.48H441.321V101.04H437.601V97.32H419.001V101.04H415.281V115.92H419.001V119.64H441.321V123.36H445.041V127.08H448.761V130.8H452.481ZM508.305 156.84V168H459.945V86.16H508.305V97.32H471.105V119.64H500.865V130.8H471.105V156.84H508.305Z"/>
</mask>
<path d="M173.36 123.36V160.56H169.64V164.28H165.92V168H139.88V164.28H136.16V160.56H132.44V156.84H128.72V153.12H125V101.04H128.72V97.32H132.44V93.6H136.16V89.88H139.88V86.16H165.92V89.88H169.64V93.6H173.36V101.04H162.2V97.32H143.6V101.04H139.88V104.76H136.16V149.4H139.88V153.12H143.6V156.84H162.2V134.52H158.48V138.24H147.32V123.36H173.36ZM229.184 156.84V168H180.824V86.16H191.984V156.84H229.184ZM285.008 156.84V168H236.648V156.84H255.248V97.32H247.808V86.16H273.848V97.32H266.408V156.84H285.008ZM340.833 86.16V168H329.673V127.08H325.953V134.52H322.233V141.96H318.513V149.4H314.793V141.96H311.073V134.52H307.353V127.08H303.633V168H292.473V86.16H296.193V93.6H299.913V101.04H303.633V108.48H307.353V115.92H311.073V123.36H314.793V130.8H318.513V123.36H322.233V115.92H325.953V108.48H329.673V101.04H333.393V93.6H337.113V86.16H340.833ZM381.777 119.64H385.497V101.04H381.777V97.32H359.457V123.36H381.777V119.64ZM396.657 97.32V123.36H392.937V127.08H389.217V130.8H385.497V134.52H359.457V168H348.297V86.16H385.497V89.88H389.217V93.6H392.937V97.32H396.657ZM452.481 130.8V156.84H448.761V160.56H445.041V164.28H441.321V168H415.281V164.28H411.561V160.56H407.841V156.84H404.121V145.68H415.281V153.12H419.001V156.84H437.601V153.12H441.321V134.52H437.601V130.8H415.281V127.08H411.561V123.36H407.841V119.64H404.121V97.32H407.841V93.6H411.561V89.88H415.281V86.16H441.321V89.88H445.041V93.6H448.761V97.32H452.481V108.48H441.321V101.04H437.601V97.32H419.001V101.04H415.281V115.92H419.001V119.64H441.321V123.36H445.041V127.08H448.761V130.8H452.481ZM508.305 156.84V168H459.945V86.16H508.305V97.32H471.105V119.64H500.865V130.8H471.105V156.84H508.305Z" fill="#FC6653"/>
<path d="M173.36 123.36H176.36V120.36H173.36V123.36ZM173.36 160.56V163.56H176.36V160.56H173.36ZM169.64 160.56V157.56H166.64V160.56H169.64ZM169.64 164.28V167.28H172.64V164.28H169.64ZM165.92 164.28V161.28H162.92V164.28H165.92ZM165.92 168V171H168.92V168H165.92ZM139.88 168H136.88V171H139.88V168ZM139.88 164.28H142.88V161.28H139.88V164.28ZM136.16 164.28H133.16V167.28H136.16V164.28ZM136.16 160.56H139.16V157.56H136.16V160.56ZM132.44 160.56H129.44V163.56H132.44V160.56ZM132.44 156.84H135.44V153.84H132.44V156.84ZM128.72 156.84H125.72V159.84H128.72V156.84ZM128.72 153.12H131.72V150.12H128.72V153.12ZM125 153.12H122V156.12H125V153.12ZM125 101.04V98.04H122V101.04H125ZM128.72 101.04V104.04H131.72V101.04H128.72ZM128.72 97.32V94.32H125.72V97.32H128.72ZM132.44 97.32V100.32H135.44V97.32H132.44ZM132.44 93.6V90.6H129.44V93.6H132.44ZM136.16 93.6V96.6H139.16V93.6H136.16ZM136.16 89.88V86.88H133.16V89.88H136.16ZM139.88 89.88V92.88H142.88V89.88H139.88ZM139.88 86.16V83.16H136.88V86.16H139.88ZM165.92 86.16H168.92V83.16H165.92V86.16ZM165.92 89.88H162.92V92.88H165.92V89.88ZM169.64 89.88H172.64V86.88H169.64V89.88ZM169.64 93.6H166.64V96.6H169.64V93.6ZM173.36 93.6H176.36V90.6H173.36V93.6ZM173.36 101.04V104.04H176.36V101.04H173.36ZM162.2 101.04H159.2V104.04H162.2V101.04ZM162.2 97.32H165.2V94.32H162.2V97.32ZM143.6 97.32V94.32H140.6V97.32H143.6ZM143.6 101.04V104.04H146.6V101.04H143.6ZM139.88 101.04V98.04H136.88V101.04H139.88ZM139.88 104.76V107.76H142.88V104.76H139.88ZM136.16 104.76V101.76H133.16V104.76H136.16ZM136.16 149.4H133.16V152.4H136.16V149.4ZM139.88 149.4H142.88V146.4H139.88V149.4ZM139.88 153.12H136.88V156.12H139.88V153.12ZM143.6 153.12H146.6V150.12H143.6V153.12ZM143.6 156.84H140.6V159.84H143.6V156.84ZM162.2 156.84V159.84H165.2V156.84H162.2ZM162.2 134.52H165.2V131.52H162.2V134.52ZM158.48 134.52V131.52H155.48V134.52H158.48ZM158.48 138.24V141.24H161.48V138.24H158.48ZM147.32 138.24H144.32V141.24H147.32V138.24ZM147.32 123.36V120.36H144.32V123.36H147.32ZM173.36 123.36H170.36V160.56H173.36H176.36V123.36H173.36ZM173.36 160.56V157.56H169.64V160.56V163.56H173.36V160.56ZM169.64 160.56H166.64V164.28H169.64H172.64V160.56H169.64ZM169.64 164.28V161.28H165.92V164.28V167.28H169.64V164.28ZM165.92 164.28H162.92V168H165.92H168.92V164.28H165.92ZM165.92 168V165H139.88V168V171H165.92V168ZM139.88 168H142.88V164.28H139.88H136.88V168H139.88ZM139.88 164.28V161.28H136.16V164.28V167.28H139.88V164.28ZM136.16 164.28H139.16V160.56H136.16H133.16V164.28H136.16ZM136.16 160.56V157.56H132.44V160.56V163.56H136.16V160.56ZM132.44 160.56H135.44V156.84H132.44H129.44V160.56H132.44ZM132.44 156.84V153.84H128.72V156.84V159.84H132.44V156.84ZM128.72 156.84H131.72V153.12H128.72H125.72V156.84H128.72ZM128.72 153.12V150.12H125V153.12V156.12H128.72V153.12ZM125 153.12H128V101.04H125H122V153.12H125ZM125 101.04V104.04H128.72V101.04V98.04H125V101.04ZM128.72 101.04H131.72V97.32H128.72H125.72V101.04H128.72ZM128.72 97.32V100.32H132.44V97.32V94.32H128.72V97.32ZM132.44 97.32H135.44V93.6H132.44H129.44V97.32H132.44ZM132.44 93.6V96.6H136.16V93.6V90.6H132.44V93.6ZM136.16 93.6H139.16V89.88H136.16H133.16V93.6H136.16ZM136.16 89.88V92.88H139.88V89.88V86.88H136.16V89.88ZM139.88 89.88H142.88V86.16H139.88H136.88V89.88H139.88ZM139.88 86.16V89.16H165.92V86.16V83.16H139.88V86.16ZM165.92 86.16H162.92V89.88H165.92H168.92V86.16H165.92ZM165.92 89.88V92.88H169.64V89.88V86.88H165.92V89.88ZM169.64 89.88H166.64V93.6H169.64H172.64V89.88H169.64ZM169.64 93.6V96.6H173.36V93.6V90.6H169.64V93.6ZM173.36 93.6H170.36V101.04H173.36H176.36V93.6H173.36ZM173.36 101.04V98.04H162.2V101.04V104.04H173.36V101.04ZM162.2 101.04H165.2V97.32H162.2H159.2V101.04H162.2ZM162.2 97.32V94.32H143.6V97.32V100.32H162.2V97.32ZM143.6 97.32H140.6V101.04H143.6H146.6V97.32H143.6ZM143.6 101.04V98.04H139.88V101.04V104.04H143.6V101.04ZM139.88 101.04H136.88V104.76H139.88H142.88V101.04H139.88ZM139.88 104.76V101.76H136.16V104.76V107.76H139.88V104.76ZM136.16 104.76H133.16V149.4H136.16H139.16V104.76H136.16ZM136.16 149.4V152.4H139.88V149.4V146.4H136.16V149.4ZM139.88 149.4H136.88V153.12H139.88H142.88V149.4H139.88ZM139.88 153.12V156.12H143.6V153.12V150.12H139.88V153.12ZM143.6 153.12H140.6V156.84H143.6H146.6V153.12H143.6ZM143.6 156.84V159.84H162.2V156.84V153.84H143.6V156.84ZM162.2 156.84H165.2V134.52H162.2H159.2V156.84H162.2ZM162.2 134.52V131.52H158.48V134.52V137.52H162.2V134.52ZM158.48 134.52H155.48V138.24H158.48H161.48V134.52H158.48ZM158.48 138.24V135.24H147.32V138.24V141.24H158.48V138.24ZM147.32 138.24H150.32V123.36H147.32H144.32V138.24H147.32ZM147.32 123.36V126.36H173.36V123.36V120.36H147.32V123.36ZM229.184 156.84H232.184V153.84H229.184V156.84ZM229.184 168V171H232.184V168H229.184ZM180.824 168H177.824V171H180.824V168ZM180.824 86.16V83.16H177.824V86.16H180.824ZM191.984 86.16H194.984V83.16H191.984V86.16ZM191.984 156.84H188.984V159.84H191.984V156.84ZM229.184 156.84H226.184V168H229.184H232.184V156.84H229.184ZM229.184 168V165H180.824V168V171H229.184V168ZM180.824 168H183.824V86.16H180.824H177.824V168H180.824ZM180.824 86.16V89.16H191.984V86.16V83.16H180.824V86.16ZM191.984 86.16H188.984V156.84H191.984H194.984V86.16H191.984ZM191.984 156.84V159.84H229.184V156.84V153.84H191.984V156.84ZM285.008 156.84H288.008V153.84H285.008V156.84ZM285.008 168V171H288.008V168H285.008ZM236.648 168H233.648V171H236.648V168ZM236.648 156.84V153.84H233.648V156.84H236.648ZM255.248 156.84V159.84H258.248V156.84H255.248ZM255.248 97.32H258.248V94.32H255.248V97.32ZM247.808 97.32H244.808V100.32H247.808V97.32ZM247.808 86.16V83.16H244.808V86.16H247.808ZM273.848 86.16H276.848V83.16H273.848V86.16ZM273.848 97.32V100.32H276.848V97.32H273.848ZM266.408 97.32V94.32H263.408V97.32H266.408ZM266.408 156.84H263.408V159.84H266.408V156.84ZM285.008 156.84H282.008V168H285.008H288.008V156.84H285.008ZM285.008 168V165H236.648V168V171H285.008V168ZM236.648 168H239.648V156.84H236.648H233.648V168H236.648ZM236.648 156.84V159.84H255.248V156.84V153.84H236.648V156.84ZM255.248 156.84H258.248V97.32H255.248H252.248V156.84H255.248ZM255.248 97.32V94.32H247.808V97.32V100.32H255.248V97.32ZM247.808 97.32H250.808V86.16H247.808H244.808V97.32H247.808ZM247.808 86.16V89.16H273.848V86.16V83.16H247.808V86.16ZM273.848 86.16H270.848V97.32H273.848H276.848V86.16H273.848ZM273.848 97.32V94.32H266.408V97.32V100.32H273.848V97.32ZM266.408 97.32H263.408V156.84H266.408H269.408V97.32H266.408ZM266.408 156.84V159.84H285.008V156.84V153.84H266.408V156.84ZM340.833 86.16H343.833V83.16H340.833V86.16ZM340.833 168V171H343.833V168H340.833ZM329.673 168H326.673V171H329.673V168ZM329.673 127.08H332.673V124.08H329.673V127.08ZM325.953 127.08V124.08H322.953V127.08H325.953ZM325.953 134.52V137.52H328.953V134.52H325.953ZM322.233 134.52V131.52H319.233V134.52H322.233ZM322.233 141.96V144.96H325.233V141.96H322.233ZM318.513 141.96V138.96H315.513V141.96H318.513ZM318.513 149.4V152.4H321.513V149.4H318.513ZM314.793 149.4H311.793V152.4H314.793V149.4ZM314.793 141.96H317.793V138.96H314.793V141.96ZM311.073 141.96H308.073V144.96H311.073V141.96ZM311.073 134.52H314.073V131.52H311.073V134.52ZM307.353 134.52H304.353V137.52H307.353V134.52ZM307.353 127.08H310.353V124.08H307.353V127.08ZM303.633 127.08V124.08H300.633V127.08H303.633ZM303.633 168V171H306.633V168H303.633ZM292.473 168H289.473V171H292.473V168ZM292.473 86.16V83.16H289.473V86.16H292.473ZM296.193 86.16H299.193V83.16H296.193V86.16ZM296.193 93.6H293.193V96.6H296.193V93.6ZM299.913 93.6H302.913V90.6H299.913V93.6ZM299.913 101.04H296.913V104.04H299.913V101.04ZM303.633 101.04H306.633V98.04H303.633V101.04ZM303.633 108.48H300.633V111.48H303.633V108.48ZM307.353 108.48H310.353V105.48H307.353V108.48ZM307.353 115.92H304.353V118.92H307.353V115.92ZM311.073 115.92H314.073V112.92H311.073V115.92ZM311.073 123.36H308.073V126.36H311.073V123.36ZM314.793 123.36H317.793V120.36H314.793V123.36ZM314.793 130.8H311.793V133.8H314.793V130.8ZM318.513 130.8V133.8H321.513V130.8H318.513ZM318.513 123.36V120.36H315.513V123.36H318.513ZM322.233 123.36V126.36H325.233V123.36H322.233ZM322.233 115.92V112.92H319.233V115.92H322.233ZM325.953 115.92V118.92H328.953V115.92H325.953ZM325.953 108.48V105.48H322.953V108.48H325.953ZM329.673 108.48V111.48H332.673V108.48H329.673ZM329.673 101.04V98.04H326.673V101.04H329.673ZM333.393 101.04V104.04H336.393V101.04H333.393ZM333.393 93.6V90.6H330.393V93.6H333.393ZM337.113 93.6V96.6H340.113V93.6H337.113ZM337.113 86.16V83.16H334.113V86.16H337.113ZM340.833 86.16H337.833V168H340.833H343.833V86.16H340.833ZM340.833 168V165H329.673V168V171H340.833V168ZM329.673 168H332.673V127.08H329.673H326.673V168H329.673ZM329.673 127.08V124.08H325.953V127.08V130.08H329.673V127.08ZM325.953 127.08H322.953V134.52H325.953H328.953V127.08H325.953ZM325.953 134.52V131.52H322.233V134.52V137.52H325.953V134.52ZM322.233 134.52H319.233V141.96H322.233H325.233V134.52H322.233ZM322.233 141.96V138.96H318.513V141.96V144.96H322.233V141.96ZM318.513 141.96H315.513V149.4H318.513H321.513V141.96H318.513ZM318.513 149.4V146.4H314.793V149.4V152.4H318.513V149.4ZM314.793 149.4H317.793V141.96H314.793H311.793V149.4H314.793ZM314.793 141.96V138.96H311.073V141.96V144.96H314.793V141.96ZM311.073 141.96H314.073V134.52H311.073H308.073V141.96H311.073ZM311.073 134.52V131.52H307.353V134.52V137.52H311.073V134.52ZM307.353 134.52H310.353V127.08H307.353H304.353V134.52H307.353ZM307.353 127.08V124.08H303.633V127.08V130.08H307.353V127.08ZM303.633 127.08H300.633V168H303.633H306.633V127.08H303.633ZM303.633 168V165H292.473V168V171H303.633V168ZM292.473 168H295.473V86.16H292.473H289.473V168H292.473ZM292.473 86.16V89.16H296.193V86.16V83.16H292.473V86.16ZM296.193 86.16H293.193V93.6H296.193H299.193V86.16H296.193ZM296.193 93.6V96.6H299.913V93.6V90.6H296.193V93.6ZM299.913 93.6H296.913V101.04H299.913H302.913V93.6H299.913ZM299.913 101.04V104.04H303.633V101.04V98.04H299.913V101.04ZM303.633 101.04H300.633V108.48H303.633H306.633V101.04H303.633ZM303.633 108.48V111.48H307.353V108.48V105.48H303.633V108.48ZM307.353 108.48H304.353V115.92H307.353H310.353V108.48H307.353ZM307.353 115.92V118.92H311.073V115.92V112.92H307.353V115.92ZM311.073 115.92H308.073V123.36H311.073H314.073V115.92H311.073ZM311.073 123.36V126.36H314.793V123.36V120.36H311.073V123.36ZM314.793 123.36H311.793V130.8H314.793H317.793V123.36H314.793ZM314.793 130.8V133.8H318.513V130.8V127.8H314.793V130.8ZM318.513 130.8H321.513V123.36H318.513H315.513V130.8H318.513ZM318.513 123.36V126.36H322.233V123.36V120.36H318.513V123.36ZM322.233 123.36H325.233V115.92H322.233H319.233V123.36H322.233ZM322.233 115.92V118.92H325.953V115.92V112.92H322.233V115.92ZM325.953 115.92H328.953V108.48H325.953H322.953V115.92H325.953ZM325.953 108.48V111.48H329.673V108.48V105.48H325.953V108.48ZM329.673 108.48H332.673V101.04H329.673H326.673V108.48H329.673ZM329.673 101.04V104.04H333.393V101.04V98.04H329.673V101.04ZM333.393 101.04H336.393V93.6H333.393H330.393V101.04H333.393ZM333.393 93.6V96.6H337.113V93.6V90.6H333.393V93.6ZM337.113 93.6H340.113V86.16H337.113H334.113V93.6H337.113ZM337.113 86.16V89.16H340.833V86.16V83.16H337.113V86.16ZM381.777 119.64V116.64H378.777V119.64H381.777ZM385.497 119.64V122.64H388.497V119.64H385.497ZM385.497 101.04H388.497V98.04H385.497V101.04ZM381.777 101.04H378.777V104.04H381.777V101.04ZM381.777 97.32H384.777V94.32H381.777V97.32ZM359.457 97.32V94.32H356.457V97.32H359.457ZM359.457 123.36H356.457V126.36H359.457V123.36ZM381.777 123.36V126.36H384.777V123.36H381.777ZM396.657 97.32H399.657V94.32H396.657V97.32ZM396.657 123.36V126.36H399.657V123.36H396.657ZM392.937 123.36V120.36H389.937V123.36H392.937ZM392.937 127.08V130.08H395.937V127.08H392.937ZM389.217 127.08V124.08H386.217V127.08H389.217ZM389.217 130.8V133.8H392.217V130.8H389.217ZM385.497 130.8V127.8H382.497V130.8H385.497ZM385.497 134.52V137.52H388.497V134.52H385.497ZM359.457 134.52V131.52H356.457V134.52H359.457ZM359.457 168V171H362.457V168H359.457ZM348.297 168H345.297V171H348.297V168ZM348.297 86.16V83.16H345.297V86.16H348.297ZM385.497 86.16H388.497V83.16H385.497V86.16ZM385.497 89.88H382.497V92.88H385.497V89.88ZM389.217 89.88H392.217V86.88H389.217V89.88ZM389.217 93.6H386.217V96.6H389.217V93.6ZM392.937 93.6H395.937V90.6H392.937V93.6ZM392.937 97.32H389.937V100.32H392.937V97.32ZM381.777 119.64V122.64H385.497V119.64V116.64H381.777V119.64ZM385.497 119.64H388.497V101.04H385.497H382.497V119.64H385.497ZM385.497 101.04V98.04H381.777V101.04V104.04H385.497V101.04ZM381.777 101.04H384.777V97.32H381.777H378.777V101.04H381.777ZM381.777 97.32V94.32H359.457V97.32V100.32H381.777V97.32ZM359.457 97.32H356.457V123.36H359.457H362.457V97.32H359.457ZM359.457 123.36V126.36H381.777V123.36V120.36H359.457V123.36ZM381.777 123.36H384.777V119.64H381.777H378.777V123.36H381.777ZM396.657 97.32H393.657V123.36H396.657H399.657V97.32H396.657ZM396.657 123.36V120.36H392.937V123.36V126.36H396.657V123.36ZM392.937 123.36H389.937V127.08H392.937H395.937V123.36H392.937ZM392.937 127.08V124.08H389.217V127.08V130.08H392.937V127.08ZM389.217 127.08H386.217V130.8H389.217H392.217V127.08H389.217ZM389.217 130.8V127.8H385.497V130.8V133.8H389.217V130.8ZM385.497 130.8H382.497V134.52H385.497H388.497V130.8H385.497ZM385.497 134.52V131.52H359.457V134.52V137.52H385.497V134.52ZM359.457 134.52H356.457V168H359.457H362.457V134.52H359.457ZM359.457 168V165H348.297V168V171H359.457V168ZM348.297 168H351.297V86.16H348.297H345.297V168H348.297ZM348.297 86.16V89.16H385.497V86.16V83.16H348.297V86.16ZM385.497 86.16H382.497V89.88H385.497H388.497V86.16H385.497ZM385.497 89.88V92.88H389.217V89.88V86.88H385.497V89.88ZM389.217 89.88H386.217V93.6H389.217H392.217V89.88H389.217ZM389.217 93.6V96.6H392.937V93.6V90.6H389.217V93.6ZM392.937 93.6H389.937V97.32H392.937H395.937V93.6H392.937ZM392.937 97.32V100.32H396.657V97.32V94.32H392.937V97.32ZM452.481 130.8H455.481V127.8H452.481V130.8ZM452.481 156.84V159.84H455.481V156.84H452.481ZM448.761 156.84V153.84H445.761V156.84H448.761ZM448.761 160.56V163.56H451.761V160.56H448.761ZM445.041 160.56V157.56H442.041V160.56H445.041ZM445.041 164.28V167.28H448.041V164.28H445.041ZM441.321 164.28V161.28H438.321V164.28H441.321ZM441.321 168V171H444.321V168H441.321ZM415.281 168H412.281V171H415.281V168ZM415.281 164.28H418.281V161.28H415.281V164.28ZM411.561 164.28H408.561V167.28H411.561V164.28ZM411.561 160.56H414.561V157.56H411.561V160.56ZM407.841 160.56H404.841V163.56H407.841V160.56ZM407.841 156.84H410.841V153.84H407.841V156.84ZM404.121 156.84H401.121V159.84H404.121V156.84ZM404.121 145.68V142.68H401.121V145.68H404.121ZM415.281 145.68H418.281V142.68H415.281V145.68ZM415.281 153.12H412.281V156.12H415.281V153.12ZM419.001 153.12H422.001V150.12H419.001V153.12ZM419.001 156.84H416.001V159.84H419.001V156.84ZM437.601 156.84V159.84H440.601V156.84H437.601ZM437.601 153.12V150.12H434.601V153.12H437.601ZM441.321 153.12V156.12H444.321V153.12H441.321ZM441.321 134.52H444.321V131.52H441.321V134.52ZM437.601 134.52H434.601V137.52H437.601V134.52ZM437.601 130.8H440.601V127.8H437.601V130.8ZM415.281 130.8H412.281V133.8H415.281V130.8ZM415.281 127.08H418.281V124.08H415.281V127.08ZM411.561 127.08H408.561V130.08H411.561V127.08ZM411.561 123.36H414.561V120.36H411.561V123.36ZM407.841 123.36H404.841V126.36H407.841V123.36ZM407.841 119.64H410.841V116.64H407.841V119.64ZM404.121 119.64H401.121V122.64H404.121V119.64ZM404.121 97.32V94.32H401.121V97.32H404.121ZM407.841 97.32V100.32H410.841V97.32H407.841ZM407.841 93.6V90.6H404.841V93.6H407.841ZM411.561 93.6V96.6H414.561V93.6H411.561ZM411.561 89.88V86.88H408.561V89.88H411.561ZM415.281 89.88V92.88H418.281V89.88H415.281ZM415.281 86.16V83.16H412.281V86.16H415.281ZM441.321 86.16H444.321V83.16H441.321V86.16ZM441.321 89.88H438.321V92.88H441.321V89.88ZM445.041 89.88H448.041V86.88H445.041V89.88ZM445.041 93.6H442.041V96.6H445.041V93.6ZM448.761 93.6H451.761V90.6H448.761V93.6ZM448.761 97.32H445.761V100.32H448.761V97.32ZM452.481 97.32H455.481V94.32H452.481V97.32ZM452.481 108.48V111.48H455.481V108.48H452.481ZM441.321 108.48H438.321V111.48H441.321V108.48ZM441.321 101.04H444.321V98.04H441.321V101.04ZM437.601 101.04H434.601V104.04H437.601V101.04ZM437.601 97.32H440.601V94.32H437.601V97.32ZM419.001 97.32V94.32H416.001V97.32H419.001ZM419.001 101.04V104.04H422.001V101.04H419.001ZM415.281 101.04V98.04H412.281V101.04H415.281ZM415.281 115.92H412.281V118.92H415.281V115.92ZM419.001 115.92H422.001V112.92H419.001V115.92ZM419.001 119.64H416.001V122.64H419.001V119.64ZM441.321 119.64H444.321V116.64H441.321V119.64ZM441.321 123.36H438.321V126.36H441.321V123.36ZM445.041 123.36H448.041V120.36H445.041V123.36ZM445.041 127.08H442.041V130.08H445.041V127.08ZM448.761 127.08H451.761V124.08H448.761V127.08ZM448.761 130.8H445.761V133.8H448.761V130.8ZM452.481 130.8H449.481V156.84H452.481H455.481V130.8H452.481ZM452.481 156.84V153.84H448.761V156.84V159.84H452.481V156.84ZM448.761 156.84H445.761V160.56H448.761H451.761V156.84H448.761ZM448.761 160.56V157.56H445.041V160.56V163.56H448.761V160.56ZM445.041 160.56H442.041V164.28H445.041H448.041V160.56H445.041ZM445.041 164.28V161.28H441.321V164.28V167.28H445.041V164.28ZM441.321 164.28H438.321V168H441.321H444.321V164.28H441.321ZM441.321 168V165H415.281V168V171H441.321V168ZM415.281 168H418.281V164.28H415.281H412.281V168H415.281ZM415.281 164.28V161.28H411.561V164.28V167.28H415.281V164.28ZM411.561 164.28H414.561V160.56H411.561H408.561V164.28H411.561ZM411.561 160.56V157.56H407.841V160.56V163.56H411.561V160.56ZM407.841 160.56H410.841V156.84H407.841H404.841V160.56H407.841ZM407.841 156.84V153.84H404.121V156.84V159.84H407.841V156.84ZM404.121 156.84H407.121V145.68H404.121H401.121V156.84H404.121ZM404.121 145.68V148.68H415.281V145.68V142.68H404.121V145.68ZM415.281 145.68H412.281V153.12H415.281H418.281V145.68H415.281ZM415.281 153.12V156.12H419.001V153.12V150.12H415.281V153.12ZM419.001 153.12H416.001V156.84H419.001H422.001V153.12H419.001ZM419.001 156.84V159.84H437.601V156.84V153.84H419.001V156.84ZM437.601 156.84H440.601V153.12H437.601H434.601V156.84H437.601ZM437.601 153.12V156.12H441.321V153.12V150.12H437.601V153.12ZM441.321 153.12H444.321V134.52H441.321H438.321V153.12H441.321ZM441.321 134.52V131.52H437.601V134.52V137.52H441.321V134.52ZM437.601 134.52H440.601V130.8H437.601H434.601V134.52H437.601ZM437.601 130.8V127.8H415.281V130.8V133.8H437.601V130.8ZM415.281 130.8H418.281V127.08H415.281H412.281V130.8H415.281ZM415.281 127.08V124.08H411.561V127.08V130.08H415.281V127.08ZM411.561 127.08H414.561V123.36H411.561H408.561V127.08H411.561ZM411.561 123.36V120.36H407.841V123.36V126.36H411.561V123.36ZM407.841 123.36H410.841V119.64H407.841H404.841V123.36H407.841ZM407.841 119.64V116.64H404.121V119.64V122.64H407.841V119.64ZM404.121 119.64H407.121V97.32H404.121H401.121V119.64H404.121ZM404.121 97.32V100.32H407.841V97.32V94.32H404.121V97.32ZM407.841 97.32H410.841V93.6H407.841H404.841V97.32H407.841ZM407.841 93.6V96.6H411.561V93.6V90.6H407.841V93.6ZM411.561 93.6H414.561V89.88H411.561H408.561V93.6H411.561ZM411.561 89.88V92.88H415.281V89.88V86.88H411.561V89.88ZM415.281 89.88H418.281V86.16H415.281H412.281V89.88H415.281ZM415.281 86.16V89.16H441.321V86.16V83.16H415.281V86.16ZM441.321 86.16H438.321V89.88H441.321H444.321V86.16H441.321ZM441.321 89.88V92.88H445.041V89.88V86.88H441.321V89.88ZM445.041 89.88H442.041V93.6H445.041H448.041V89.88H445.041ZM445.041 93.6V96.6H448.761V93.6V90.6H445.041V93.6ZM448.761 93.6H445.761V97.32H448.761H451.761V93.6H448.761ZM448.761 97.32V100.32H452.481V97.32V94.32H448.761V97.32ZM452.481 97.32H449.481V108.48H452.481H455.481V97.32H452.481ZM452.481 108.48V105.48H441.321V108.48V111.48H452.481V108.48ZM441.321 108.48H444.321V101.04H441.321H438.321V108.48H441.321ZM441.321 101.04V98.04H437.601V101.04V104.04H441.321V101.04ZM437.601 101.04H440.601V97.32H437.601H434.601V101.04H437.601ZM437.601 97.32V94.32H419.001V97.32V100.32H437.601V97.32ZM419.001 97.32H416.001V101.04H419.001H422.001V97.32H419.001ZM419.001 101.04V98.04H415.281V101.04V104.04H419.001V101.04ZM415.281 101.04H412.281V115.92H415.281H418.281V101.04H415.281ZM415.281 115.92V118.92H419.001V115.92V112.92H415.281V115.92ZM419.001 115.92H416.001V119.64H419.001H422.001V115.92H419.001ZM419.001 119.64V122.64H441.321V119.64V116.64H419.001V119.64ZM441.321 119.64H438.321V123.36H441.321H444.321V119.64H441.321ZM441.321 123.36V126.36H445.041V123.36V120.36H441.321V123.36ZM445.041 123.36H442.041V127.08H445.041H448.041V123.36H445.041ZM445.041 127.08V130.08H448.761V127.08V124.08H445.041V127.08ZM448.761 127.08H445.761V130.8H448.761H451.761V127.08H448.761ZM448.761 130.8V133.8H452.481V130.8V127.8H448.761V130.8ZM508.305 156.84H511.305V153.84H508.305V156.84ZM508.305 168V171H511.305V168H508.305ZM459.945 168H456.945V171H459.945V168ZM459.945 86.16V83.16H456.945V86.16H459.945ZM508.305 86.16H511.305V83.16H508.305V86.16ZM508.305 97.32V100.32H511.305V97.32H508.305ZM471.105 97.32V94.32H468.105V97.32H471.105ZM471.105 119.64H468.105V122.64H471.105V119.64ZM500.865 119.64H503.865V116.64H500.865V119.64ZM500.865 130.8V133.8H503.865V130.8H500.865ZM471.105 130.8V127.8H468.105V130.8H471.105ZM471.105 156.84H468.105V159.84H471.105V156.84ZM508.305 156.84H505.305V168H508.305H511.305V156.84H508.305ZM508.305 168V165H459.945V168V171H508.305V168ZM459.945 168H462.945V86.16H459.945H456.945V168H459.945ZM459.945 86.16V89.16H508.305V86.16V83.16H459.945V86.16ZM508.305 86.16H505.305V97.32H508.305H511.305V86.16H508.305ZM508.305 97.32V94.32H471.105V97.32V100.32H508.305V97.32ZM471.105 97.32H468.105V119.64H471.105H474.105V97.32H471.105ZM471.105 119.64V122.64H500.865V119.64V116.64H471.105V119.64ZM500.865 119.64H497.865V130.8H500.865H503.865V119.64H500.865ZM500.865 130.8V127.8H471.105V130.8V133.8H500.865V130.8ZM471.105 130.8H468.105V156.84H471.105H474.105V130.8H471.105ZM471.105 156.84V159.84H508.305V156.84V153.84H471.105V156.84Z" fill="#49C7FF" mask="url(#path-2-outside-1_1424_6035)"/>
</g>
<defs>
<filter id="filter0_d_1424_6035" x="72" y="37.16" width="489.305" height="187.84" filterUnits="userSpaceOnUse" color-interpolation-filters="sRGB">
<feFlood flood-opacity="0" result="BackgroundImageFix"/>
<feColorMatrix in="SourceAlpha" type="matrix" values="0 0 0 0 0 0 0 0 0 0 0 0 0 0 0 0 0 0 127 0" result="hardAlpha"/>
<feOffset dy="4"/>
<feGaussianBlur stdDeviation="25"/>
<feComposite in2="hardAlpha" operator="out"/>
<feColorMatrix type="matrix" values="0 0 0 0 0.286275 0 0 0 0 0.780392 0 0 0 0 1 0 0 0 0.5 0"/>
<feBlend mode="normal" in2="BackgroundImageFix" result="effect1_dropShadow_1424_6035"/>
<feBlend mode="normal" in="SourceGraphic" in2="effect1_dropShadow_1424_6035" result="shape"/>
</filter>
</defs>
</svg>
