<svg width="328" height="808" viewBox="0 0 328 808" fill="none" xmlns="http://www.w3.org/2000/svg">
<g style="mix-blend-mode:plus-lighter">
<path d="M342.876 770.253C342.501 771.084 342.159 771.897 341.848 772.692C341.537 773.488 341.242 774.313 340.964 775.169L338.693 782.16C338.666 782.566 338.661 782.745 338.676 782.698L338.537 783.126C338.151 784.314 337.724 785.467 337.257 786.582C336.789 787.698 336.242 788.818 335.614 789.943C334.28 789.847 332.881 789.631 331.415 789.293C329.902 788.943 328.42 788.576 326.97 788.191L311.82 784.17L311.721 783.989C311.557 783.687 311.424 783.368 311.323 783.031C311.159 782.729 311.116 782.46 311.193 782.222L312.49 778.227L320.36 770.243C320.835 769.75 321.262 769.243 321.641 768.724C321.956 768.239 322.335 767.798 322.78 767.399C323.176 766.988 323.638 766.697 324.165 766.527C324.693 766.357 325.319 766.368 326.044 766.561C326.479 766.676 326.955 766.828 327.471 767.017C327.971 767.253 328.121 767.68 327.921 768.299C327.55 769.44 327.042 770.519 326.397 771.536C325.688 772.587 324.914 773.596 324.075 774.561C323.188 775.514 322.261 776.43 321.293 777.309C320.325 778.189 319.396 779.027 318.507 779.824L318.754 780.277L331.15 783.567C331.623 782.918 332.126 782.096 332.659 781.101C333.193 780.106 333.755 778.86 334.346 777.364C334.921 775.916 335.573 774.152 336.301 772.072C337.014 770.04 337.818 767.645 338.714 764.887C339.687 761.891 340.783 758.437 342.001 754.525C343.204 750.66 344.599 746.123 346.187 740.914L332.268 737.221C332.114 737.696 331.96 738.249 331.808 738.88C331.607 739.499 331.375 740.212 331.113 741.02C330.696 742.304 330.165 743.455 329.519 744.471C328.826 745.475 327.923 745.83 326.812 745.535L326.667 745.496C326.28 745.394 325.957 745.256 325.698 745.084C325.375 744.947 325.187 744.639 325.132 744.159C325.281 743.217 325.462 742.336 325.677 741.515C325.891 740.693 326.145 739.831 326.438 738.928L327.782 734.79L328.063 734.168C328.174 733.99 328.315 733.718 328.486 733.35C328.643 733.03 328.831 732.693 329.052 732.338C329.272 731.983 329.525 731.689 329.811 731.455C330.049 731.208 330.312 731.123 330.602 731.2L352.349 736.971C352.404 737.451 352.561 737.854 352.822 738.182C353.02 738.544 353.033 738.987 352.863 739.51L342.876 770.253Z" fill="#81E6FC" fill-opacity="0.5"/>
<path d="M180.051 638.911C179.146 639.62 178.301 639.745 177.516 639.285C176.657 638.821 175.864 638.209 175.137 637.451L173.217 635.448C173.044 635.268 172.784 634.997 172.438 634.636C172.018 634.27 171.566 633.834 171.082 633.329L168.383 630.513L166.583 629.175C166.098 630.754 165.61 632.654 165.118 634.872C164.586 637.121 164.067 639.455 163.56 641.874C163.019 644.257 162.517 646.609 162.054 648.93C161.518 651.246 161.04 653.264 160.62 654.983L159.194 655.436L132.798 657.341L132.059 657.541C131.98 657.602 131.936 657.7 131.926 657.834C131.917 657.968 131.912 658.035 131.912 658.035C132.189 658.324 132.641 658.759 133.269 659.342C133.857 659.956 134.514 660.641 135.241 661.399C135.933 662.121 136.573 662.789 137.161 663.403C137.71 664.047 138.123 664.514 138.4 664.802C138.469 664.874 138.571 665.016 138.704 665.228C138.803 665.403 138.939 665.581 139.112 665.761C139.246 665.972 139.38 666.184 139.513 666.395C139.612 666.57 139.679 666.676 139.714 666.712C139.769 666.985 139.676 667.247 139.435 667.499C139.159 667.715 138.864 667.946 138.549 668.193L137.309 669.164C137.309 669.164 137.321 669.249 137.347 669.419C137.298 669.584 137.254 669.681 137.214 669.712C137.135 669.774 136.983 669.83 136.756 669.881C136.495 669.896 136.364 669.904 136.364 669.904L110.569 642.996C111.08 642.595 111.54 642.141 111.948 641.631C112.322 641.086 112.784 640.598 113.335 640.166C113.414 640.105 113.549 640.03 113.741 639.943C113.859 639.851 113.918 639.804 113.918 639.804C114.031 639.779 114.286 639.864 114.68 640.06C115.075 640.257 115.342 640.427 115.48 640.571L124.408 649.883L128.264 624.682L128.677 624.359C131.674 624.034 134.634 623.706 137.556 623.376C140.44 623.077 143.175 622.767 145.763 622.447C148.35 622.126 150.773 621.777 153.03 621.4C155.213 621.017 157.139 620.583 158.81 620.096C158.637 619.916 158.397 619.629 158.09 619.238C157.744 618.877 157.4 618.482 157.059 618.055C156.683 617.591 156.342 617.163 156.035 616.771C155.655 616.374 155.378 616.085 155.205 615.905L149.963 610.437L150.263 609.348C150.238 609.178 150.299 608.846 150.446 608.352C150.553 607.889 150.823 607.488 151.256 607.149L151.669 606.825L152.718 606.193L181.316 636.024L181.533 636.897C181.74 637.114 181.741 637.366 181.535 637.654C181.294 637.906 181.016 638.156 180.701 638.402L180.051 638.911ZM157.294 643.749C157.669 642.127 158.106 640.426 158.605 638.646C159.068 636.829 159.508 635.095 159.923 633.443C160.303 631.755 160.597 630.229 160.806 628.864C161.015 627.5 161.032 626.476 160.858 625.791L160.296 625.852L139.213 629.093L134.497 630.322L134.261 630.507C134.261 630.507 134.217 630.605 134.129 630.8C134.006 630.959 133.96 631.091 133.989 631.194C133.639 632.985 133.372 634.647 133.188 636.181C132.966 637.746 132.782 639.28 132.638 640.783C132.42 642.281 132.236 643.815 132.087 645.385C131.904 646.919 131.674 648.584 131.397 650.381C131.349 650.545 131.329 650.813 131.34 651.184C131.312 651.585 131.295 651.82 131.29 651.886C131.29 651.886 131.308 651.905 131.342 651.941C131.337 652.008 131.352 652.059 131.387 652.095C131.422 652.131 131.476 652.152 131.55 652.157C131.658 652.199 131.861 652.23 132.156 652.251C132.378 652.267 132.546 652.262 132.659 652.236C135.794 652.056 138.757 651.947 141.548 651.91C144.338 651.873 147.34 651.734 150.554 651.492L155.101 651.059L157.294 643.749Z" fill="#81E6FC" fill-opacity="0.5"/>
<path d="M63.1367 480.864L62.3929 480.96C62.2206 480.831 61.8799 480.598 61.3708 480.261C60.8122 479.931 60.2287 479.603 59.6205 479.279C59.0122 478.955 58.4327 478.652 57.8819 478.371C57.3232 478.041 56.9329 477.814 56.711 477.692C56.2019 477.355 55.4214 476.902 54.3693 476.333C53.3094 475.715 52.1673 475.057 50.9429 474.359C49.6611 473.618 48.3754 472.853 47.0858 472.063C45.7465 471.28 44.5352 470.505 43.4517 469.738C42.3187 468.978 41.3957 468.267 40.6829 467.603C39.9205 466.946 39.5 466.371 39.4215 465.877C39.4058 465.778 39.6286 465.271 40.0901 464.354C40.5516 463.437 41.1591 462.325 41.9127 461.017C42.6584 459.66 43.4954 458.241 44.4237 456.76C45.3442 455.229 46.2556 453.8 47.1579 452.473C48.0106 451.153 48.8243 450.064 49.599 449.208C50.3162 448.308 50.8732 447.833 51.2699 447.781C51.8153 447.71 52.8607 448.078 54.4061 448.885C55.9437 449.643 57.5375 450.595 59.1874 451.742C60.8296 452.839 62.323 453.955 63.6676 455.091C64.9548 456.183 65.6455 457.026 65.7398 457.618C65.8733 458.458 65.6129 459.525 64.9585 460.82C64.2545 462.121 63.4226 463.413 62.4629 464.697C61.4457 465.938 60.4545 467.025 59.4894 467.956C58.4746 468.895 57.6946 469.399 57.1492 469.47C56.7029 469.528 56.2618 469.459 55.8259 469.264C55.3404 469.075 54.9174 468.803 54.5571 468.446C54.1472 468.096 53.8077 467.712 53.5387 467.293C53.2201 466.881 53.0006 466.456 52.8803 466.018L50.7934 457.671L50.5703 457.7L50.3472 457.729L49.1189 459.552L45.5946 465.075L45.6181 465.223C45.6967 465.717 46.044 466.15 46.6601 466.524L49.2758 467.696C49.4976 467.818 50.1751 468.26 51.3082 469.02C52.3838 469.737 53.5951 470.512 54.9422 471.344C56.2397 472.184 57.4719 472.931 58.6389 473.586C59.7562 474.247 60.4636 474.558 60.7611 474.519L60.8237 474.436C61.7393 473.51 62.5152 472.502 63.1514 471.412C63.7798 470.272 64.4121 469.156 65.0483 468.066L71.5528 456.939C71.5945 456.883 71.6492 456.75 71.717 456.539C71.7352 456.335 71.7403 456.209 71.7325 456.159C71.7325 456.159 71.7533 456.131 71.795 456.076C71.7872 456.026 71.7793 455.977 71.7715 455.927L71.6735 455.789L70.8002 455.071C70.6357 454.991 70.2742 454.786 69.7155 454.456C69.1072 454.132 68.4703 453.786 67.8046 453.419C67.0815 453.009 66.4406 452.639 65.8819 452.308C65.2658 451.934 64.8716 451.683 64.6993 451.555L51.345 441.572C51.2797 441.48 51.1687 441.419 51.0121 441.388C50.7981 441.315 50.6415 441.285 50.5423 441.298C48.7529 443.093 47.0784 444.974 45.5187 446.941C43.9095 448.914 42.3289 450.908 40.7771 452.925C39.2253 454.941 37.7023 456.978 36.2079 459.037C34.6561 461.053 33.0717 463.023 31.4546 464.947C31.1129 465.344 30.7413 465.871 30.3397 466.528C29.9303 467.136 29.496 467.747 29.037 468.361C28.5702 468.925 28.0706 469.444 27.5385 469.916C27.0063 470.389 26.4428 470.663 25.8478 470.741C25.2032 470.824 24.5885 470.778 24.0039 470.602C23.3696 470.433 22.8396 470.124 22.414 469.675C22.0272 468.516 21.754 467.593 21.5944 466.909C21.4349 466.224 21.2922 465.486 21.1666 464.696L20.495 460.474C20.3536 459.585 20.2017 458.471 20.0392 457.132C19.8688 455.742 19.7102 454.428 19.5634 453.187C19.4088 451.896 19.2856 450.803 19.1938 449.908C19.0941 448.964 19.0443 448.491 19.0443 448.491L20.9103 445.905C20.9599 445.899 21.0342 445.889 21.1334 445.876C21.1751 445.82 21.2208 445.789 21.2704 445.783C21.7166 445.725 22.4685 446.156 23.5259 447.077C24.5259 447.955 25.6199 448.947 26.808 450.053C27.9881 451.109 29.2061 452.085 30.4619 452.98C31.7098 453.826 32.78 454.191 33.6725 454.075L34.0444 454.026L48.3744 435.305C48.583 435.026 48.8361 434.867 49.1336 434.829C49.4232 434.741 49.692 434.68 49.9399 434.648L50.1631 434.619C50.6093 434.561 51.0217 434.608 51.4002 434.761C51.7787 434.913 52.1194 435.146 52.4223 435.46C52.7173 435.724 53.0202 436.037 53.331 436.4C53.5843 436.72 53.8833 437.009 54.2279 437.266C54.4002 437.395 54.6626 437.613 55.0151 437.92C55.3597 438.177 55.737 438.481 56.1469 438.831C56.4994 439.138 56.8519 439.445 57.2043 439.752C57.4994 440.016 57.7331 440.213 57.9054 440.341L65.8554 446.415C66.0773 446.537 66.6072 446.846 67.4452 447.342C68.2832 447.838 69.2035 448.374 70.2059 448.949C71.2084 449.524 72.1286 450.06 72.9666 450.556C73.8046 451.052 74.3346 451.361 74.5565 451.483C75.1151 451.814 75.6569 452.197 76.1817 452.633C76.6569 453.075 76.9455 453.617 77.0477 454.259C77.3069 455.888 77.0742 457.607 76.3496 459.415C75.5675 461.18 74.6289 462.914 73.5337 464.619C72.381 466.281 71.2204 467.893 70.052 469.456C68.8758 470.97 68.0022 472.318 67.4313 473.501C67.2123 474.034 67.013 474.69 66.8333 475.469C66.6041 476.255 66.35 477.044 66.0712 477.836C65.7845 478.579 65.4116 479.258 64.9526 479.872C64.4857 480.436 63.8804 480.767 63.1367 480.864ZM57.8112 462.656C57.9859 462.482 58.2272 462.249 58.535 461.957C58.7854 461.622 59.0358 461.287 59.2861 460.952C59.5286 460.568 59.7464 460.187 59.9393 459.809C60.0826 459.437 60.1347 459.128 60.0954 458.881C60.064 458.684 59.8681 458.407 59.5078 458.05C59.0979 457.7 58.6423 457.382 58.141 457.094C57.632 456.757 57.1307 456.469 56.6374 456.231C56.0944 455.999 55.699 455.899 55.451 455.932L55.2279 455.961C55.6874 456.304 55.9891 456.769 56.1329 457.355C56.2689 457.892 56.388 458.481 56.4901 459.123L56.5254 459.345C56.6275 459.987 56.7544 460.626 56.9061 461.261C57.05 461.847 57.3516 462.312 57.8112 462.656ZM27.104 462.413L30.1593 458.236L25.9376 455.08L25.7542 456.313L26.6614 462.017L27.104 462.413Z" fill="#81E6FC" fill-opacity="0.5"/>
<path d="M95.9515 282.856L47.4233 262.825L46.7707 259.805L58.8791 235.84L59.4642 235.677C59.4868 235.632 59.706 235.696 60.122 235.867L60.8846 236.182C61.5316 236.449 62.0749 236.701 62.5146 236.936C62.9305 237.108 63.2321 237.34 63.4192 237.633C63.6288 237.881 63.7128 238.213 63.6711 238.627C63.6519 238.996 63.5194 239.535 63.2736 240.243C62.7798 241.441 62.3761 242.461 62.0627 243.303C61.7256 244.08 61.3316 244.915 60.8806 245.808L60.035 247.481L55.9425 255.581C55.5559 256.015 55.3766 256.48 55.4048 256.977C55.4329 257.474 55.3455 257.924 55.1426 258.325L55.0749 258.459C55.0073 258.593 54.9628 258.737 54.9413 258.889C54.8737 259.023 54.9329 259.183 55.1188 259.367C55.3499 259.463 55.6966 259.606 56.1587 259.796C56.5972 259.924 57.0938 260.102 57.6484 260.33C58.1568 260.54 58.6308 260.763 59.0704 260.998C59.5326 261.189 59.8792 261.332 60.1103 261.428L67.4251 264.528C67.5175 264.566 67.6905 264.611 67.9442 264.661C68.1516 264.693 68.3939 264.766 68.6712 264.88C68.9711 264.95 69.271 265.02 69.5708 265.09C69.8244 265.141 69.9975 265.185 70.0899 265.223C70.2049 265.217 70.2968 265.201 70.3655 265.175C70.4568 265.105 70.5369 265.057 70.6057 265.032C71.264 264.171 71.8418 263.304 72.339 262.43C72.8587 261.512 73.3554 260.585 73.8289 259.647L76.6361 254.091C77.0871 253.199 77.5499 252.338 78.0245 251.509C78.4992 250.68 79.02 249.871 79.5871 249.08C80.6896 248.888 81.6568 248.963 82.4887 249.307L83.1126 249.564C83.2513 249.622 83.3335 249.79 83.3595 250.071C83.6029 251.358 83.7758 252.508 83.8784 253.521C83.9809 254.534 84.1291 255.512 84.3229 256.455C84.4931 257.335 84.7438 258.22 85.0752 259.112C85.3829 259.94 85.8642 260.867 86.5191 261.892C86.5664 262.02 86.5687 262.236 86.5258 262.542C86.4593 262.784 86.4035 262.95 86.3584 263.039C85.8849 263.977 85.2006 264.557 84.3055 264.781C83.3642 264.986 82.3649 265.139 81.3075 265.242C80.2726 265.301 79.2964 265.464 78.3788 265.732C77.4149 265.982 76.685 266.597 76.1889 267.579C76.0536 267.847 76.3912 268.229 77.2017 268.725C78.0122 269.222 79.0651 269.791 80.3603 270.434C81.6318 271.012 83.042 271.648 84.5908 272.342C86.1622 272.99 87.6412 273.601 89.0277 274.173C90.5067 274.784 91.8351 275.305 93.0131 275.737C94.1911 276.17 95.1036 276.519 95.7506 276.786L104.139 260.185C104.296 259.873 103.982 259.554 103.197 259.23C102.596 258.982 101.903 258.75 101.119 258.534C100.31 258.254 99.4904 257.943 98.6585 257.599C97.4568 257.103 96.4722 256.454 95.7045 255.652C94.9369 254.85 94.9026 253.757 95.6016 252.373C95.9173 251.749 96.4556 251.512 97.2165 251.665C97.9537 251.753 98.6458 251.931 99.2929 252.198L100.61 252.742L111.154 257.742L100.669 278.493L98.5115 283.427C98.4428 283.453 98.2816 283.44 98.0279 283.39C97.7743 283.339 97.5207 283.288 97.267 283.237C97.0134 283.187 96.7829 283.145 96.5754 283.114C96.3444 283.018 96.2057 282.961 96.1595 282.942L95.9515 282.856ZM77.5826 262.168C77.7201 262.117 77.9608 262.027 78.3046 261.899C78.6484 261.772 79.0035 261.622 79.3699 261.449C79.7363 261.277 80.0914 261.127 80.4352 260.999C80.7554 260.808 80.9611 260.677 81.0524 260.607L81.1877 260.339C81.2779 260.16 81.3439 259.864 81.3856 259.45C81.3811 259.016 81.3423 258.596 81.269 258.188C81.1721 257.717 81.0182 257.302 80.8075 256.946C80.6192 256.544 80.3865 256.287 80.1092 256.172C79.9705 256.115 79.7873 256.201 79.5596 256.431C79.3544 256.616 79.1385 256.877 78.9119 257.215C78.6853 257.553 78.4474 257.913 78.1983 258.296C77.9255 258.615 77.6865 258.867 77.4813 259.052C77.1431 259.721 77.01 260.205 77.0821 260.505C77.1081 260.785 77.2749 261.339 77.5826 262.168Z" fill="#81E6FC" fill-opacity="0.5"/>
<path d="M247.407 105.44C247.209 107.052 246.846 108.817 246.317 110.737C245.802 112.591 245.186 114.474 244.469 116.387C243.796 118.276 243.072 120.136 242.297 121.968C241.566 123.774 240.892 125.404 240.275 126.856C239.945 127.509 239.513 128.105 238.981 128.645C238.448 129.184 237.879 129.63 237.274 129.982C236.15 130.635 234.757 130.867 233.097 130.68C231.437 130.493 229.704 130.118 227.898 129.555C226.107 128.925 224.365 128.238 222.675 127.493C220.984 126.747 219.568 126.131 218.427 125.642L209.626 121.771L207.241 120.479C207.298 119.871 207.634 118.84 208.251 117.388C208.839 115.895 209.578 114.228 210.468 112.387C211.329 110.504 212.24 108.564 213.202 106.566C214.178 104.502 215.047 102.587 215.807 100.821C216.567 99.0549 217.141 97.5415 217.527 96.2806C217.957 94.9946 218.041 94.1682 217.78 93.8015C217.751 93.7607 217.614 93.6965 217.369 93.6089C217.166 93.4961 217.014 93.4115 216.913 93.3551C216.537 93.1703 215.808 92.8744 214.724 92.4674C213.641 92.0604 212.514 91.6785 211.344 91.3218C210.188 90.8991 209.105 90.5783 208.094 90.3595C207.097 90.0747 206.491 89.9951 206.274 90.1207C206.102 90.2211 205.857 90.5647 205.541 91.1513C205.268 91.7128 204.945 92.4186 204.572 93.2687C204.213 94.0529 203.819 94.9155 203.388 95.8565C203.001 96.7725 202.621 97.6555 202.248 98.5056C201.889 99.2898 201.552 99.9752 201.236 100.562C200.92 101.148 200.675 101.492 200.502 101.592C200.199 101.768 199.817 101.875 199.355 101.913C198.908 101.885 198.446 101.837 197.969 101.768C197.536 101.674 197.125 101.568 196.735 101.449C196.345 101.33 196.063 101.235 195.889 101.162C195.627 100.278 195.603 99.3422 195.817 98.3543C196.074 97.3412 196.44 96.3516 196.914 95.3854C197.387 94.4193 197.905 93.5142 198.465 92.6703C199.04 91.7605 199.536 90.9543 199.953 90.2516C200.039 90.0289 200.226 89.6901 200.513 89.2352C200.815 88.7144 201.153 88.2015 201.527 87.6964C201.901 87.1912 202.231 86.7112 202.519 86.2564C202.806 85.8015 202.971 85.4752 203.014 85.2776C203.952 84.9635 204.723 84.803 205.33 84.7964C205.936 84.7898 206.752 84.9492 207.777 85.2747C208.023 85.3624 208.601 85.5737 209.511 85.9087C210.435 86.1778 211.425 86.4955 212.48 86.8617C213.505 87.1872 214.459 87.4971 215.34 87.7914C216.264 88.0605 216.849 88.2389 217.095 88.3265C217.658 88.5175 218.287 88.6707 218.98 88.7863C219.673 88.9019 220.359 89.0505 221.038 89.232C221.688 89.3727 222.316 89.6122 222.923 89.9505C223.544 90.2229 224.043 90.624 224.42 91.1538C224.478 91.2353 224.514 91.3293 224.529 91.4359C224.587 91.5174 224.616 91.5582 224.616 91.5582L223.953 94.6209C223.91 94.8185 223.667 95.5069 223.222 96.6863C222.778 97.8657 222.255 99.2349 221.652 100.794C221.021 102.312 220.383 103.863 219.738 105.447C219.136 107.006 218.619 108.256 218.189 109.197C218.059 109.445 217.823 109.928 217.478 110.646C217.133 111.365 216.76 112.129 216.358 112.938C215.956 113.747 215.583 114.511 215.238 115.229C214.894 115.948 214.635 116.443 214.463 116.716C214.305 116.923 214.269 117.088 214.356 117.21L214.617 117.577C214.733 117.74 215.007 117.955 215.441 118.221C215.889 118.421 216.373 118.63 216.893 118.846C217.413 119.062 217.919 119.258 218.41 119.433C218.873 119.567 219.234 119.646 219.493 119.667C219.84 119.811 220.425 120.076 221.249 120.461C222.087 120.781 222.99 121.149 223.958 121.565C224.898 121.941 225.779 122.321 226.603 122.706C227.47 123.067 228.055 123.331 228.358 123.5C228.575 123.547 228.907 123.671 229.355 123.871C229.818 124.006 230.309 124.181 230.829 124.397C231.392 124.588 231.956 124.779 232.519 124.97C233.054 125.12 233.487 125.214 233.819 125.252C233.819 125.252 233.855 125.259 233.927 125.275C233.97 125.25 234.035 125.212 234.122 125.162C234.597 124.886 235.058 124.33 235.503 123.496C235.948 122.661 236.372 121.753 236.773 120.772C237.146 119.749 237.468 118.784 237.74 117.878C238.055 116.946 238.306 116.225 238.492 115.714L240.236 112.109L241.569 108.571L241.483 108.449C241.019 107.797 240.281 107.189 239.269 106.625C238.301 106.036 237.239 105.531 236.083 105.108C234.97 104.66 233.88 104.286 232.811 103.986C231.713 103.645 230.788 103.375 230.037 103.178C229.995 103.376 229.894 103.664 229.737 104.044C229.622 104.398 229.479 104.798 229.307 105.244C229.135 105.689 228.948 106.114 228.747 106.519C228.589 106.898 228.453 107.179 228.338 107.361C228.281 107.625 228.166 107.979 227.994 108.424C227.793 108.829 227.6 109.287 227.413 109.798C227.241 110.244 227.105 110.697 227.006 111.158C226.877 111.578 226.856 111.936 226.943 112.231C227.045 112.287 227.232 112.379 227.507 112.508C227.753 112.595 228.013 112.703 228.287 112.832C228.605 112.935 228.887 113.031 229.132 113.118C229.378 113.206 229.537 113.258 229.609 113.273C229.811 113.386 230.035 113.486 230.281 113.574C230.541 113.596 230.714 113.581 230.801 113.531C231.031 113.512 231.24 113.247 231.426 112.736C231.613 112.225 231.792 111.66 231.963 111.042C232.149 110.358 232.364 109.715 232.608 109.113C232.851 108.511 233.168 108.097 233.557 107.871C234.335 107.419 235.151 107.406 236.003 107.831C236.856 108.257 237.529 108.817 238.021 109.51C238.34 109.958 238.371 110.688 238.114 111.702C237.827 112.674 237.433 113.709 236.931 114.807C236.429 115.905 235.868 116.921 235.25 117.856C234.646 118.725 234.128 119.285 233.696 119.536C233.22 119.813 232.325 119.843 231.011 119.627C229.712 119.346 228.339 118.963 226.895 118.477C225.464 117.926 224.12 117.325 222.863 116.674C221.606 116.022 220.789 115.431 220.412 114.902L220.282 114.718C220.323 114.003 220.408 113.436 220.537 113.015C220.68 112.529 220.852 112.084 221.053 111.679C221.268 111.209 221.498 110.758 221.742 110.329C222.001 109.833 222.266 109.218 222.539 108.484C222.739 107.907 222.975 107.079 223.247 106C223.532 104.855 223.854 103.718 224.212 102.589C224.584 101.394 224.985 100.326 225.416 99.385C225.861 98.3781 226.364 97.7114 226.926 97.3849C227.013 97.3347 227.092 97.3174 227.164 97.3331C227.207 97.3079 227.251 97.2828 227.294 97.2577C229.041 97.5671 230.76 98.0082 232.45 98.581C234.14 99.1539 235.831 99.813 237.522 100.558C239.183 101.263 240.816 102.013 242.42 102.808C243.996 103.563 245.556 104.298 247.103 105.012L247.407 105.44Z" fill="#81E6FC" fill-opacity="0.5"/>
</g>
</svg>
