<svg width="267" height="97" viewBox="0 0 267 97" fill="none" xmlns="http://www.w3.org/2000/svg">
<mask id="path-1-outside-1_2015_37715" maskUnits="userSpaceOnUse" x="39" y="5" width="187" height="26" fill="black">
<rect fill="white" x="39" y="5" width="187" height="26"/>
<path d="M54.2625 29H51.3825V25.16H50.4225V23.24H49.4625V21.32H48.5025V19.4H44.6625V29H41.7825V7.88H51.3825V8.84H52.3425V9.8H53.3025V10.76H54.2625V16.52H53.3025V17.48H52.3425V18.44H51.3825V20.36H52.3425V22.28H53.3025V24.2H54.2625V29ZM51.3825 15.56V11.72H50.4225V10.76H44.6625V16.52H50.4225V15.56H51.3825ZM69.6288 29H57.1488V7.88H69.6288V10.76H60.0288V16.52H67.7088V19.4H60.0288V26.12H69.6288V29ZM84.995 27.08H84.035V28.04H83.075V29H76.355V28.04H75.395V27.08H74.435V26.12H73.475V25.16H72.515V11.72H73.475V10.76H74.435V9.8H75.395V8.84H76.355V7.88H83.075V8.84H84.035V9.8H84.995V11.72H82.115V10.76H77.315V11.72H76.355V12.68H75.395V24.2H76.355V25.16H77.315V26.12H82.115V20.36H81.155V21.32H78.275V17.48H84.995V27.08ZM100.361 29H87.8813V26.12H92.6813V10.76H90.7613V7.88H97.4813V10.76H95.5613V26.12H100.361V29ZM115.728 26.12H114.768V27.08H113.808V28.04H112.848V29H106.128V28.04H105.168V27.08H104.208V26.12H103.248V23.24H106.128V25.16H107.088V26.12H111.888V25.16H112.848V20.36H111.888V19.4H106.128V18.44H105.168V17.48H104.208V16.52H103.248V10.76H104.208V9.8H105.168V8.84H106.128V7.88H112.848V8.84H113.808V9.8H114.768V10.76H115.728V13.64H112.848V11.72H111.888V10.76H107.088V11.72H106.128V15.56H107.088V16.52H112.848V17.48H113.808V18.44H114.768V19.4H115.728V26.12ZM131.094 10.76H126.294V29H123.414V10.76H118.614V7.88H131.094V10.76ZM146.46 29H143.58V25.16H142.62V23.24H141.66V21.32H140.7V19.4H136.86V29H133.98V7.88H143.58V8.84H144.54V9.8H145.5V10.76H146.46V16.52H145.5V17.48H144.54V18.44H143.58V20.36H144.54V22.28H145.5V24.2H146.46V29ZM143.58 15.56V11.72H142.62V10.76H136.86V16.52H142.62V15.56H143.58ZM161.826 29H158.946V24.2H152.226V29H149.346V21.32V20.36V18.44H150.306V16.52H151.266V14.6H152.226V12.68H153.186V10.76H154.146V8.84H155.106V7.88H156.066V8.84H157.026V10.76H157.986V12.68H158.946V14.6H159.906V16.52H160.866V18.44H161.826V20.36V21.32V29ZM158.946 21.32V20.36V19.4H157.986V17.48H157.026V15.56H156.066V13.64H155.106V15.56H154.146V17.48H153.186V19.4H152.226V20.36V21.32H158.946ZM177.193 10.76H172.393V29H169.513V10.76H164.713V7.88H177.193V10.76ZM192.559 29H180.079V26.12H184.879V10.76H182.959V7.88H189.679V10.76H187.759V26.12H192.559V29ZM207.925 25.16H206.965V26.12H206.005V27.08H205.045V28.04H204.085V29H199.285V28.04H198.325V27.08H197.365V26.12H196.405V25.16H195.445V11.72H196.405V10.76H197.365V9.8H198.325V8.84H199.285V7.88H204.085V8.84H205.045V9.8H206.005V10.76H206.965V11.72H207.925V25.16ZM205.045 24.2V12.68H204.085V11.72H203.125V10.76H200.245V11.72H199.285V12.68H198.325V24.2H199.285V25.16H200.245V26.12H203.125V25.16H204.085V24.2H205.045ZM223.291 29H220.411V28.04H219.451V26.12H218.491V24.2H217.531V22.28H216.571V20.36H215.611V18.44H214.651V16.52H213.691V29H210.811V7.88H212.731V9.8H213.691V11.72H214.651V13.64H215.611V15.56H216.571V17.48H217.531V19.4H218.491V21.32H219.451V23.24H220.411V7.88H223.291V29Z"/>
</mask>
<path d="M54.2625 29V31H56.2625V29H54.2625ZM51.3825 29H49.3825V31H51.3825V29ZM51.3825 25.16H53.3825V23.16H51.3825V25.16ZM50.4225 25.16H48.4225V27.16H50.4225V25.16ZM50.4225 23.24H52.4225V21.24H50.4225V23.24ZM49.4625 23.24H47.4625V25.24H49.4625V23.24ZM49.4625 21.32H51.4625V19.32H49.4625V21.32ZM48.5025 21.32H46.5025V23.32H48.5025V21.32ZM48.5025 19.4H50.5025V17.4H48.5025V19.4ZM44.6625 19.4V17.4H42.6625V19.4H44.6625ZM44.6625 29V31H46.6625V29H44.6625ZM41.7825 29H39.7825V31H41.7825V29ZM41.7825 7.88V5.88H39.7825V7.88H41.7825ZM51.3825 7.88H53.3825V5.88H51.3825V7.88ZM51.3825 8.84H49.3825V10.84H51.3825V8.84ZM52.3425 8.84H54.3425V6.84H52.3425V8.84ZM52.3425 9.8H50.3425V11.8H52.3425V9.8ZM53.3025 9.8H55.3025V7.8H53.3025V9.8ZM53.3025 10.76H51.3025V12.76H53.3025V10.76ZM54.2625 10.76H56.2625V8.76H54.2625V10.76ZM54.2625 16.52V18.52H56.2625V16.52H54.2625ZM53.3025 16.52V14.52H51.3025V16.52H53.3025ZM53.3025 17.48V19.48H55.3025V17.48H53.3025ZM52.3425 17.48V15.48H50.3425V17.48H52.3425ZM52.3425 18.44V20.44H54.3425V18.44H52.3425ZM51.3825 18.44V16.44H49.3825V18.44H51.3825ZM51.3825 20.36H49.3825V22.36H51.3825V20.36ZM52.3425 20.36H54.3425V18.36H52.3425V20.36ZM52.3425 22.28H50.3425V24.28H52.3425V22.28ZM53.3025 22.28H55.3025V20.28H53.3025V22.28ZM53.3025 24.2H51.3025V26.2H53.3025V24.2ZM54.2625 24.2H56.2625V22.2H54.2625V24.2ZM51.3825 15.56V17.56H53.3825V15.56H51.3825ZM51.3825 11.72H53.3825V9.72H51.3825V11.72ZM50.4225 11.72H48.4225V13.72H50.4225V11.72ZM50.4225 10.76H52.4225V8.76H50.4225V10.76ZM44.6625 10.76V8.76H42.6625V10.76H44.6625ZM44.6625 16.52H42.6625V18.52H44.6625V16.52ZM50.4225 16.52V18.52H52.4225V16.52H50.4225ZM50.4225 15.56V13.56H48.4225V15.56H50.4225ZM54.2625 29V27H51.3825V29V31H54.2625V29ZM51.3825 29H53.3825V25.16H51.3825H49.3825V29H51.3825ZM51.3825 25.16V23.16H50.4225V25.16V27.16H51.3825V25.16ZM50.4225 25.16H52.4225V23.24H50.4225H48.4225V25.16H50.4225ZM50.4225 23.24V21.24H49.4625V23.24V25.24H50.4225V23.24ZM49.4625 23.24H51.4625V21.32H49.4625H47.4625V23.24H49.4625ZM49.4625 21.32V19.32H48.5025V21.32V23.32H49.4625V21.32ZM48.5025 21.32H50.5025V19.4H48.5025H46.5025V21.32H48.5025ZM48.5025 19.4V17.4H44.6625V19.4V21.4H48.5025V19.4ZM44.6625 19.4H42.6625V29H44.6625H46.6625V19.4H44.6625ZM44.6625 29V27H41.7825V29V31H44.6625V29ZM41.7825 29H43.7825V7.88H41.7825H39.7825V29H41.7825ZM41.7825 7.88V9.88H51.3825V7.88V5.88H41.7825V7.88ZM51.3825 7.88H49.3825V8.84H51.3825H53.3825V7.88H51.3825ZM51.3825 8.84V10.84H52.3425V8.84V6.84H51.3825V8.84ZM52.3425 8.84H50.3425V9.8H52.3425H54.3425V8.84H52.3425ZM52.3425 9.8V11.8H53.3025V9.8V7.8H52.3425V9.8ZM53.3025 9.8H51.3025V10.76H53.3025H55.3025V9.8H53.3025ZM53.3025 10.76V12.76H54.2625V10.76V8.76H53.3025V10.76ZM54.2625 10.76H52.2625V16.52H54.2625H56.2625V10.76H54.2625ZM54.2625 16.52V14.52H53.3025V16.52V18.52H54.2625V16.52ZM53.3025 16.52H51.3025V17.48H53.3025H55.3025V16.52H53.3025ZM53.3025 17.48V15.48H52.3425V17.48V19.48H53.3025V17.48ZM52.3425 17.48H50.3425V18.44H52.3425H54.3425V17.48H52.3425ZM52.3425 18.44V16.44H51.3825V18.44V20.44H52.3425V18.44ZM51.3825 18.44H49.3825V20.36H51.3825H53.3825V18.44H51.3825ZM51.3825 20.36V22.36H52.3425V20.36V18.36H51.3825V20.36ZM52.3425 20.36H50.3425V22.28H52.3425H54.3425V20.36H52.3425ZM52.3425 22.28V24.28H53.3025V22.28V20.28H52.3425V22.28ZM53.3025 22.28H51.3025V24.2H53.3025H55.3025V22.28H53.3025ZM53.3025 24.2V26.2H54.2625V24.2V22.2H53.3025V24.2ZM54.2625 24.2H52.2625V29H54.2625H56.2625V24.2H54.2625ZM51.3825 15.56H53.3825V11.72H51.3825H49.3825V15.56H51.3825ZM51.3825 11.72V9.72H50.4225V11.72V13.72H51.3825V11.72ZM50.4225 11.72H52.4225V10.76H50.4225H48.4225V11.72H50.4225ZM50.4225 10.76V8.76H44.6625V10.76V12.76H50.4225V10.76ZM44.6625 10.76H42.6625V16.52H44.6625H46.6625V10.76H44.6625ZM44.6625 16.52V18.52H50.4225V16.52V14.52H44.6625V16.52ZM50.4225 16.52H52.4225V15.56H50.4225H48.4225V16.52H50.4225ZM50.4225 15.56V17.56H51.3825V15.56V13.56H50.4225V15.56ZM69.6288 29V31H71.6288V29H69.6288ZM57.1488 29H55.1488V31H57.1488V29ZM57.1488 7.88V5.88H55.1488V7.88H57.1488ZM69.6288 7.88H71.6288V5.88H69.6288V7.88ZM69.6288 10.76V12.76H71.6288V10.76H69.6288ZM60.0288 10.76V8.76H58.0288V10.76H60.0288ZM60.0288 16.52H58.0288V18.52H60.0288V16.52ZM67.7088 16.52H69.7088V14.52H67.7088V16.52ZM67.7088 19.4V21.4H69.7088V19.4H67.7088ZM60.0288 19.4V17.4H58.0288V19.4H60.0288ZM60.0288 26.12H58.0288V28.12H60.0288V26.12ZM69.6288 26.12H71.6288V24.12H69.6288V26.12ZM69.6288 29V27H57.1488V29V31H69.6288V29ZM57.1488 29H59.1488V7.88H57.1488H55.1488V29H57.1488ZM57.1488 7.88V9.88H69.6288V7.88V5.88H57.1488V7.88ZM69.6288 7.88H67.6288V10.76H69.6288H71.6288V7.88H69.6288ZM69.6288 10.76V8.76H60.0288V10.76V12.76H69.6288V10.76ZM60.0288 10.76H58.0288V16.52H60.0288H62.0288V10.76H60.0288ZM60.0288 16.52V18.52H67.7088V16.52V14.52H60.0288V16.52ZM67.7088 16.52H65.7088V19.4H67.7088H69.7088V16.52H67.7088ZM67.7088 19.4V17.4H60.0288V19.4V21.4H67.7088V19.4ZM60.0288 19.4H58.0288V26.12H60.0288H62.0288V19.4H60.0288ZM60.0288 26.12V28.12H69.6288V26.12V24.12H60.0288V26.12ZM69.6288 26.12H67.6288V29H69.6288H71.6288V26.12H69.6288ZM84.995 27.08V29.08H86.995V27.08H84.995ZM84.035 27.08V25.08H82.035V27.08H84.035ZM84.035 28.04V30.04H86.035V28.04H84.035ZM83.075 28.04V26.04H81.075V28.04H83.075ZM83.075 29V31H85.075V29H83.075ZM76.355 29H74.355V31H76.355V29ZM76.355 28.04H78.355V26.04H76.355V28.04ZM75.395 28.04H73.395V30.04H75.395V28.04ZM75.395 27.08H77.395V25.08H75.395V27.08ZM74.435 27.08H72.435V29.08H74.435V27.08ZM74.435 26.12H76.435V24.12H74.435V26.12ZM73.475 26.12H71.475V28.12H73.475V26.12ZM73.475 25.16H75.475V23.16H73.475V25.16ZM72.515 25.16H70.515V27.16H72.515V25.16ZM72.515 11.72V9.72H70.515V11.72H72.515ZM73.475 11.72V13.72H75.475V11.72H73.475ZM73.475 10.76V8.76H71.475V10.76H73.475ZM74.435 10.76V12.76H76.435V10.76H74.435ZM74.435 9.8V7.8H72.435V9.8H74.435ZM75.395 9.8V11.8H77.395V9.8H75.395ZM75.395 8.84V6.84H73.395V8.84H75.395ZM76.355 8.84V10.84H78.355V8.84H76.355ZM76.355 7.88V5.88H74.355V7.88H76.355ZM83.075 7.88H85.075V5.88H83.075V7.88ZM83.075 8.84H81.075V10.84H83.075V8.84ZM84.035 8.84H86.035V6.84H84.035V8.84ZM84.035 9.8H82.035V11.8H84.035V9.8ZM84.995 9.8H86.995V7.8H84.995V9.8ZM84.995 11.72V13.72H86.995V11.72H84.995ZM82.115 11.72H80.115V13.72H82.115V11.72ZM82.115 10.76H84.115V8.76H82.115V10.76ZM77.315 10.76V8.76H75.315V10.76H77.315ZM77.315 11.72V13.72H79.315V11.72H77.315ZM76.355 11.72V9.72H74.355V11.72H76.355ZM76.355 12.68V14.68H78.355V12.68H76.355ZM75.395 12.68V10.68H73.395V12.68H75.395ZM75.395 24.2H73.395V26.2H75.395V24.2ZM76.355 24.2H78.355V22.2H76.355V24.2ZM76.355 25.16H74.355V27.16H76.355V25.16ZM77.315 25.16H79.315V23.16H77.315V25.16ZM77.315 26.12H75.315V28.12H77.315V26.12ZM82.115 26.12V28.12H84.115V26.12H82.115ZM82.115 20.36H84.115V18.36H82.115V20.36ZM81.155 20.36V18.36H79.155V20.36H81.155ZM81.155 21.32V23.32H83.155V21.32H81.155ZM78.275 21.32H76.275V23.32H78.275V21.32ZM78.275 17.48V15.48H76.275V17.48H78.275ZM84.995 17.48H86.995V15.48H84.995V17.48ZM84.995 27.08V25.08H84.035V27.08V29.08H84.995V27.08ZM84.035 27.08H82.035V28.04H84.035H86.035V27.08H84.035ZM84.035 28.04V26.04H83.075V28.04V30.04H84.035V28.04ZM83.075 28.04H81.075V29H83.075H85.075V28.04H83.075ZM83.075 29V27H76.355V29V31H83.075V29ZM76.355 29H78.355V28.04H76.355H74.355V29H76.355ZM76.355 28.04V26.04H75.395V28.04V30.04H76.355V28.04ZM75.395 28.04H77.395V27.08H75.395H73.395V28.04H75.395ZM75.395 27.08V25.08H74.435V27.08V29.08H75.395V27.08ZM74.435 27.08H76.435V26.12H74.435H72.435V27.08H74.435ZM74.435 26.12V24.12H73.475V26.12V28.12H74.435V26.12ZM73.475 26.12H75.475V25.16H73.475H71.475V26.12H73.475ZM73.475 25.16V23.16H72.515V25.16V27.16H73.475V25.16ZM72.515 25.16H74.515V11.72H72.515H70.515V25.16H72.515ZM72.515 11.72V13.72H73.475V11.72V9.72H72.515V11.72ZM73.475 11.72H75.475V10.76H73.475H71.475V11.72H73.475ZM73.475 10.76V12.76H74.435V10.76V8.76H73.475V10.76ZM74.435 10.76H76.435V9.8H74.435H72.435V10.76H74.435ZM74.435 9.8V11.8H75.395V9.8V7.8H74.435V9.8ZM75.395 9.8H77.395V8.84H75.395H73.395V9.8H75.395ZM75.395 8.84V10.84H76.355V8.84V6.84H75.395V8.84ZM76.355 8.84H78.355V7.88H76.355H74.355V8.84H76.355ZM76.355 7.88V9.88H83.075V7.88V5.88H76.355V7.88ZM83.075 7.88H81.075V8.84H83.075H85.075V7.88H83.075ZM83.075 8.84V10.84H84.035V8.84V6.84H83.075V8.84ZM84.035 8.84H82.035V9.8H84.035H86.035V8.84H84.035ZM84.035 9.8V11.8H84.995V9.8V7.8H84.035V9.8ZM84.995 9.8H82.995V11.72H84.995H86.995V9.8H84.995ZM84.995 11.72V9.72H82.115V11.72V13.72H84.995V11.72ZM82.115 11.72H84.115V10.76H82.115H80.115V11.72H82.115ZM82.115 10.76V8.76H77.315V10.76V12.76H82.115V10.76ZM77.315 10.76H75.315V11.72H77.315H79.315V10.76H77.315ZM77.315 11.72V9.72H76.355V11.72V13.72H77.315V11.72ZM76.355 11.72H74.355V12.68H76.355H78.355V11.72H76.355ZM76.355 12.68V10.68H75.395V12.68V14.68H76.355V12.68ZM75.395 12.68H73.395V24.2H75.395H77.395V12.68H75.395ZM75.395 24.2V26.2H76.355V24.2V22.2H75.395V24.2ZM76.355 24.2H74.355V25.16H76.355H78.355V24.2H76.355ZM76.355 25.16V27.16H77.315V25.16V23.16H76.355V25.16ZM77.315 25.16H75.315V26.12H77.315H79.315V25.16H77.315ZM77.315 26.12V28.12H82.115V26.12V24.12H77.315V26.12ZM82.115 26.12H84.115V20.36H82.115H80.115V26.12H82.115ZM82.115 20.36V18.36H81.155V20.36V22.36H82.115V20.36ZM81.155 20.36H79.155V21.32H81.155H83.155V20.36H81.155ZM81.155 21.32V19.32H78.275V21.32V23.32H81.155V21.32ZM78.275 21.32H80.275V17.48H78.275H76.275V21.32H78.275ZM78.275 17.48V19.48H84.995V17.48V15.48H78.275V17.48ZM84.995 17.48H82.995V27.08H84.995H86.995V17.48H84.995ZM100.361 29V31H102.361V29H100.361ZM87.8813 29H85.8813V31H87.8813V29ZM87.8813 26.12V24.12H85.8813V26.12H87.8813ZM92.6813 26.12V28.12H94.6813V26.12H92.6813ZM92.6813 10.76H94.6813V8.76H92.6813V10.76ZM90.7613 10.76H88.7613V12.76H90.7613V10.76ZM90.7613 7.88V5.88H88.7613V7.88H90.7613ZM97.4813 7.88H99.4813V5.88H97.4813V7.88ZM97.4813 10.76V12.76H99.4813V10.76H97.4813ZM95.5613 10.76V8.76H93.5613V10.76H95.5613ZM95.5613 26.12H93.5613V28.12H95.5613V26.12ZM100.361 26.12H102.361V24.12H100.361V26.12ZM100.361 29V27H87.8813V29V31H100.361V29ZM87.8813 29H89.8813V26.12H87.8813H85.8813V29H87.8813ZM87.8813 26.12V28.12H92.6813V26.12V24.12H87.8813V26.12ZM92.6813 26.12H94.6813V10.76H92.6813H90.6813V26.12H92.6813ZM92.6813 10.76V8.76H90.7613V10.76V12.76H92.6813V10.76ZM90.7613 10.76H92.7613V7.88H90.7613H88.7613V10.76H90.7613ZM90.7613 7.88V9.88H97.4813V7.88V5.88H90.7613V7.88ZM97.4813 7.88H95.4813V10.76H97.4813H99.4813V7.88H97.4813ZM97.4813 10.76V8.76H95.5613V10.76V12.76H97.4813V10.76ZM95.5613 10.76H93.5613V26.12H95.5613H97.5613V10.76H95.5613ZM95.5613 26.12V28.12H100.361V26.12V24.12H95.5613V26.12ZM100.361 26.12H98.3613V29H100.361H102.361V26.12H100.361ZM115.728 26.12V28.12H117.728V26.12H115.728ZM114.768 26.12V24.12H112.768V26.12H114.768ZM114.768 27.08V29.08H116.768V27.08H114.768ZM113.808 27.08V25.08H111.808V27.08H113.808ZM113.808 28.04V30.04H115.808V28.04H113.808ZM112.848 28.04V26.04H110.848V28.04H112.848ZM112.848 29V31H114.848V29H112.848ZM106.128 29H104.128V31H106.128V29ZM106.128 28.04H108.128V26.04H106.128V28.04ZM105.168 28.04H103.168V30.04H105.168V28.04ZM105.168 27.08H107.168V25.08H105.168V27.08ZM104.208 27.08H102.208V29.08H104.208V27.08ZM104.208 26.12H106.208V24.12H104.208V26.12ZM103.248 26.12H101.248V28.12H103.248V26.12ZM103.248 23.24V21.24H101.248V23.24H103.248ZM106.128 23.24H108.128V21.24H106.128V23.24ZM106.128 25.16H104.128V27.16H106.128V25.16ZM107.088 25.16H109.088V23.16H107.088V25.16ZM107.088 26.12H105.088V28.12H107.088V26.12ZM111.888 26.12V28.12H113.888V26.12H111.888ZM111.888 25.16V23.16H109.888V25.16H111.888ZM112.848 25.16V27.16H114.848V25.16H112.848ZM112.848 20.36H114.848V18.36H112.848V20.36ZM111.888 20.36H109.888V22.36H111.888V20.36ZM111.888 19.4H113.888V17.4H111.888V19.4ZM106.128 19.4H104.128V21.4H106.128V19.4ZM106.128 18.44H108.128V16.44H106.128V18.44ZM105.168 18.44H103.168V20.44H105.168V18.44ZM105.168 17.48H107.168V15.48H105.168V17.48ZM104.208 17.48H102.208V19.48H104.208V17.48ZM104.208 16.52H106.208V14.52H104.208V16.52ZM103.248 16.52H101.248V18.52H103.248V16.52ZM103.248 10.76V8.76H101.248V10.76H103.248ZM104.208 10.76V12.76H106.208V10.76H104.208ZM104.208 9.8V7.8H102.208V9.8H104.208ZM105.168 9.8V11.8H107.168V9.8H105.168ZM105.168 8.84V6.84H103.168V8.84H105.168ZM106.128 8.84V10.84H108.128V8.84H106.128ZM106.128 7.88V5.88H104.128V7.88H106.128ZM112.848 7.88H114.848V5.88H112.848V7.88ZM112.848 8.84H110.848V10.84H112.848V8.84ZM113.808 8.84H115.808V6.84H113.808V8.84ZM113.808 9.8H111.808V11.8H113.808V9.8ZM114.768 9.8H116.768V7.8H114.768V9.8ZM114.768 10.76H112.768V12.76H114.768V10.76ZM115.728 10.76H117.728V8.76H115.728V10.76ZM115.728 13.64V15.64H117.728V13.64H115.728ZM112.848 13.64H110.848V15.64H112.848V13.64ZM112.848 11.72H114.848V9.72H112.848V11.72ZM111.888 11.72H109.888V13.72H111.888V11.72ZM111.888 10.76H113.888V8.76H111.888V10.76ZM107.088 10.76V8.76H105.088V10.76H107.088ZM107.088 11.72V13.72H109.088V11.72H107.088ZM106.128 11.72V9.72H104.128V11.72H106.128ZM106.128 15.56H104.128V17.56H106.128V15.56ZM107.088 15.56H109.088V13.56H107.088V15.56ZM107.088 16.52H105.088V18.52H107.088V16.52ZM112.848 16.52H114.848V14.52H112.848V16.52ZM112.848 17.48H110.848V19.48H112.848V17.48ZM113.808 17.48H115.808V15.48H113.808V17.48ZM113.808 18.44H111.808V20.44H113.808V18.44ZM114.768 18.44H116.768V16.44H114.768V18.44ZM114.768 19.4H112.768V21.4H114.768V19.4ZM115.728 19.4H117.728V17.4H115.728V19.4ZM115.728 26.12V24.12H114.768V26.12V28.12H115.728V26.12ZM114.768 26.12H112.768V27.08H114.768H116.768V26.12H114.768ZM114.768 27.08V25.08H113.808V27.08V29.08H114.768V27.08ZM113.808 27.08H111.808V28.04H113.808H115.808V27.08H113.808ZM113.808 28.04V26.04H112.848V28.04V30.04H113.808V28.04ZM112.848 28.04H110.848V29H112.848H114.848V28.04H112.848ZM112.848 29V27H106.128V29V31H112.848V29ZM106.128 29H108.128V28.04H106.128H104.128V29H106.128ZM106.128 28.04V26.04H105.168V28.04V30.04H106.128V28.04ZM105.168 28.04H107.168V27.08H105.168H103.168V28.04H105.168ZM105.168 27.08V25.08H104.208V27.08V29.08H105.168V27.08ZM104.208 27.08H106.208V26.12H104.208H102.208V27.08H104.208ZM104.208 26.12V24.12H103.248V26.12V28.12H104.208V26.12ZM103.248 26.12H105.248V23.24H103.248H101.248V26.12H103.248ZM103.248 23.24V25.24H106.128V23.24V21.24H103.248V23.24ZM106.128 23.24H104.128V25.16H106.128H108.128V23.24H106.128ZM106.128 25.16V27.16H107.088V25.16V23.16H106.128V25.16ZM107.088 25.16H105.088V26.12H107.088H109.088V25.16H107.088ZM107.088 26.12V28.12H111.888V26.12V24.12H107.088V26.12ZM111.888 26.12H113.888V25.16H111.888H109.888V26.12H111.888ZM111.888 25.16V27.16H112.848V25.16V23.16H111.888V25.16ZM112.848 25.16H114.848V20.36H112.848H110.848V25.16H112.848ZM112.848 20.36V18.36H111.888V20.36V22.36H112.848V20.36ZM111.888 20.36H113.888V19.4H111.888H109.888V20.36H111.888ZM111.888 19.4V17.4H106.128V19.4V21.4H111.888V19.4ZM106.128 19.4H108.128V18.44H106.128H104.128V19.4H106.128ZM106.128 18.44V16.44H105.168V18.44V20.44H106.128V18.44ZM105.168 18.44H107.168V17.48H105.168H103.168V18.44H105.168ZM105.168 17.48V15.48H104.208V17.48V19.48H105.168V17.48ZM104.208 17.48H106.208V16.52H104.208H102.208V17.48H104.208ZM104.208 16.52V14.52H103.248V16.52V18.52H104.208V16.52ZM103.248 16.52H105.248V10.76H103.248H101.248V16.52H103.248ZM103.248 10.76V12.76H104.208V10.76V8.76H103.248V10.76ZM104.208 10.76H106.208V9.8H104.208H102.208V10.76H104.208ZM104.208 9.8V11.8H105.168V9.8V7.8H104.208V9.8ZM105.168 9.8H107.168V8.84H105.168H103.168V9.8H105.168ZM105.168 8.84V10.84H106.128V8.84V6.84H105.168V8.84ZM106.128 8.84H108.128V7.88H106.128H104.128V8.84H106.128ZM106.128 7.88V9.88H112.848V7.88V5.88H106.128V7.88ZM112.848 7.88H110.848V8.84H112.848H114.848V7.88H112.848ZM112.848 8.84V10.84H113.808V8.84V6.84H112.848V8.84ZM113.808 8.84H111.808V9.8H113.808H115.808V8.84H113.808ZM113.808 9.8V11.8H114.768V9.8V7.8H113.808V9.8ZM114.768 9.8H112.768V10.76H114.768H116.768V9.8H114.768ZM114.768 10.76V12.76H115.728V10.76V8.76H114.768V10.76ZM115.728 10.76H113.728V13.64H115.728H117.728V10.76H115.728ZM115.728 13.64V11.64H112.848V13.64V15.64H115.728V13.64ZM112.848 13.64H114.848V11.72H112.848H110.848V13.64H112.848ZM112.848 11.72V9.72H111.888V11.72V13.72H112.848V11.72ZM111.888 11.72H113.888V10.76H111.888H109.888V11.72H111.888ZM111.888 10.76V8.76H107.088V10.76V12.76H111.888V10.76ZM107.088 10.76H105.088V11.72H107.088H109.088V10.76H107.088ZM107.088 11.72V9.72H106.128V11.72V13.72H107.088V11.72ZM106.128 11.72H104.128V15.56H106.128H108.128V11.72H106.128ZM106.128 15.56V17.56H107.088V15.56V13.56H106.128V15.56ZM107.088 15.56H105.088V16.52H107.088H109.088V15.56H107.088ZM107.088 16.52V18.52H112.848V16.52V14.52H107.088V16.52ZM112.848 16.52H110.848V17.48H112.848H114.848V16.52H112.848ZM112.848 17.48V19.48H113.808V17.48V15.48H112.848V17.48ZM113.808 17.48H111.808V18.44H113.808H115.808V17.48H113.808ZM113.808 18.44V20.44H114.768V18.44V16.44H113.808V18.44ZM114.768 18.44H112.768V19.4H114.768H116.768V18.44H114.768ZM114.768 19.4V21.4H115.728V19.4V17.4H114.768V19.4ZM115.728 19.4H113.728V26.12H115.728H117.728V19.4H115.728ZM131.094 10.76V12.76H133.094V10.76H131.094ZM126.294 10.76V8.76H124.294V10.76H126.294ZM126.294 29V31H128.294V29H126.294ZM123.414 29H121.414V31H123.414V29ZM123.414 10.76H125.414V8.76H123.414V10.76ZM118.614 10.76H116.614V12.76H118.614V10.76ZM118.614 7.88V5.88H116.614V7.88H118.614ZM131.094 7.88H133.094V5.88H131.094V7.88ZM131.094 10.76V8.76H126.294V10.76V12.76H131.094V10.76ZM126.294 10.76H124.294V29H126.294H128.294V10.76H126.294ZM126.294 29V27H123.414V29V31H126.294V29ZM123.414 29H125.414V10.76H123.414H121.414V29H123.414ZM123.414 10.76V8.76H118.614V10.76V12.76H123.414V10.76ZM118.614 10.76H120.614V7.88H118.614H116.614V10.76H118.614ZM118.614 7.88V9.88H131.094V7.88V5.88H118.614V7.88ZM131.094 7.88H129.094V10.76H131.094H133.094V7.88H131.094ZM146.46 29V31H148.46V29H146.46ZM143.58 29H141.58V31H143.58V29ZM143.58 25.16H145.58V23.16H143.58V25.16ZM142.62 25.16H140.62V27.16H142.62V25.16ZM142.62 23.24H144.62V21.24H142.62V23.24ZM141.66 23.24H139.66V25.24H141.66V23.24ZM141.66 21.32H143.66V19.32H141.66V21.32ZM140.7 21.32H138.7V23.32H140.7V21.32ZM140.7 19.4H142.7V17.4H140.7V19.4ZM136.86 19.4V17.4H134.86V19.4H136.86ZM136.86 29V31H138.86V29H136.86ZM133.98 29H131.98V31H133.98V29ZM133.98 7.88V5.88H131.98V7.88H133.98ZM143.58 7.88H145.58V5.88H143.58V7.88ZM143.58 8.84H141.58V10.84H143.58V8.84ZM144.54 8.84H146.54V6.84H144.54V8.84ZM144.54 9.8H142.54V11.8H144.54V9.8ZM145.5 9.8H147.5V7.8H145.5V9.8ZM145.5 10.76H143.5V12.76H145.5V10.76ZM146.46 10.76H148.46V8.76H146.46V10.76ZM146.46 16.52V18.52H148.46V16.52H146.46ZM145.5 16.52V14.52H143.5V16.52H145.5ZM145.5 17.48V19.48H147.5V17.48H145.5ZM144.54 17.48V15.48H142.54V17.48H144.54ZM144.54 18.44V20.44H146.54V18.44H144.54ZM143.58 18.44V16.44H141.58V18.44H143.58ZM143.58 20.36H141.58V22.36H143.58V20.36ZM144.54 20.36H146.54V18.36H144.54V20.36ZM144.54 22.28H142.54V24.28H144.54V22.28ZM145.5 22.28H147.5V20.28H145.5V22.28ZM145.5 24.2H143.5V26.2H145.5V24.2ZM146.46 24.2H148.46V22.2H146.46V24.2ZM143.58 15.56V17.56H145.58V15.56H143.58ZM143.58 11.72H145.58V9.72H143.58V11.72ZM142.62 11.72H140.62V13.72H142.62V11.72ZM142.62 10.76H144.62V8.76H142.62V10.76ZM136.86 10.76V8.76H134.86V10.76H136.86ZM136.86 16.52H134.86V18.52H136.86V16.52ZM142.62 16.52V18.52H144.62V16.52H142.62ZM142.62 15.56V13.56H140.62V15.56H142.62ZM146.46 29V27H143.58V29V31H146.46V29ZM143.58 29H145.58V25.16H143.58H141.58V29H143.58ZM143.58 25.16V23.16H142.62V25.16V27.16H143.58V25.16ZM142.62 25.16H144.62V23.24H142.62H140.62V25.16H142.62ZM142.62 23.24V21.24H141.66V23.24V25.24H142.62V23.24ZM141.66 23.24H143.66V21.32H141.66H139.66V23.24H141.66ZM141.66 21.32V19.32H140.7V21.32V23.32H141.66V21.32ZM140.7 21.32H142.7V19.4H140.7H138.7V21.32H140.7ZM140.7 19.4V17.4H136.86V19.4V21.4H140.7V19.4ZM136.86 19.4H134.86V29H136.86H138.86V19.4H136.86ZM136.86 29V27H133.98V29V31H136.86V29ZM133.98 29H135.98V7.88H133.98H131.98V29H133.98ZM133.98 7.88V9.88H143.58V7.88V5.88H133.98V7.88ZM143.58 7.88H141.58V8.84H143.58H145.58V7.88H143.58ZM143.58 8.84V10.84H144.54V8.84V6.84H143.58V8.84ZM144.54 8.84H142.54V9.8H144.54H146.54V8.84H144.54ZM144.54 9.8V11.8H145.5V9.8V7.8H144.54V9.8ZM145.5 9.8H143.5V10.76H145.5H147.5V9.8H145.5ZM145.5 10.76V12.76H146.46V10.76V8.76H145.5V10.76ZM146.46 10.76H144.46V16.52H146.46H148.46V10.76H146.46ZM146.46 16.52V14.52H145.5V16.52V18.52H146.46V16.52ZM145.5 16.52H143.5V17.48H145.5H147.5V16.52H145.5ZM145.5 17.48V15.48H144.54V17.48V19.48H145.5V17.48ZM144.54 17.48H142.54V18.44H144.54H146.54V17.48H144.54ZM144.54 18.44V16.44H143.58V18.44V20.44H144.54V18.44ZM143.58 18.44H141.58V20.36H143.58H145.58V18.44H143.58ZM143.58 20.36V22.36H144.54V20.36V18.36H143.58V20.36ZM144.54 20.36H142.54V22.28H144.54H146.54V20.36H144.54ZM144.54 22.28V24.28H145.5V22.28V20.28H144.54V22.28ZM145.5 22.28H143.5V24.2H145.5H147.5V22.28H145.5ZM145.5 24.2V26.2H146.46V24.2V22.2H145.5V24.2ZM146.46 24.2H144.46V29H146.46H148.46V24.2H146.46ZM143.58 15.56H145.58V11.72H143.58H141.58V15.56H143.58ZM143.58 11.72V9.72H142.62V11.72V13.72H143.58V11.72ZM142.62 11.72H144.62V10.76H142.62H140.62V11.72H142.62ZM142.62 10.76V8.76H136.86V10.76V12.76H142.62V10.76ZM136.86 10.76H134.86V16.52H136.86H138.86V10.76H136.86ZM136.86 16.52V18.52H142.62V16.52V14.52H136.86V16.52ZM142.62 16.52H144.62V15.56H142.62H140.62V16.52H142.62ZM142.62 15.56V17.56H143.58V15.56V13.56H142.62V15.56ZM161.826 29V31H163.826V29H161.826ZM158.946 29H156.946V31H158.946V29ZM158.946 24.2H160.946V22.2H158.946V24.2ZM152.226 24.2V22.2H150.226V24.2H152.226ZM152.226 29V31H154.226V29H152.226ZM149.346 29H147.346V31H149.346V29ZM149.346 18.44V16.44H147.346V18.44H149.346ZM150.306 18.44V20.44H152.306V18.44H150.306ZM150.306 16.52V14.52H148.306V16.52H150.306ZM151.266 16.52V18.52H153.266V16.52H151.266ZM151.266 14.6V12.6H149.266V14.6H151.266ZM152.226 14.6V16.6H154.226V14.6H152.226ZM152.226 12.68V10.68H150.226V12.68H152.226ZM153.186 12.68V14.68H155.186V12.68H153.186ZM153.186 10.76V8.76H151.186V10.76H153.186ZM154.146 10.76V12.76H156.146V10.76H154.146ZM154.146 8.84V6.84H152.146V8.84H154.146ZM155.106 8.84V10.84H157.106V8.84H155.106ZM155.106 7.88V5.88H153.106V7.88H155.106ZM156.066 7.88H158.066V5.88H156.066V7.88ZM156.066 8.84H154.066V10.84H156.066V8.84ZM157.026 8.84H159.026V6.84H157.026V8.84ZM157.026 10.76H155.026V12.76H157.026V10.76ZM157.986 10.76H159.986V8.76H157.986V10.76ZM157.986 12.68H155.986V14.68H157.986V12.68ZM158.946 12.68H160.946V10.68H158.946V12.68ZM158.946 14.6H156.946V16.6H158.946V14.6ZM159.906 14.6H161.906V12.6H159.906V14.6ZM159.906 16.52H157.906V18.52H159.906V16.52ZM160.866 16.52H162.866V14.52H160.866V16.52ZM160.866 18.44H158.866V20.44H160.866V18.44ZM161.826 18.44H163.826V16.44H161.826V18.44ZM158.946 21.32V23.32H160.946V21.32H158.946ZM158.946 19.4H160.946V17.4H158.946V19.4ZM157.986 19.4H155.986V21.4H157.986V19.4ZM157.986 17.48H159.986V15.48H157.986V17.48ZM157.026 17.48H155.026V19.48H157.026V17.48ZM157.026 15.56H159.026V13.56H157.026V15.56ZM156.066 15.56H154.066V17.56H156.066V15.56ZM156.066 13.64H158.066V11.64H156.066V13.64ZM155.106 13.64V11.64H153.106V13.64H155.106ZM155.106 15.56V17.56H157.106V15.56H155.106ZM154.146 15.56V13.56H152.146V15.56H154.146ZM154.146 17.48V19.48H156.146V17.48H154.146ZM153.186 17.48V15.48H151.186V17.48H153.186ZM153.186 19.4V21.4H155.186V19.4H153.186ZM152.226 19.4V17.4H150.226V19.4H152.226ZM152.226 21.32H150.226V23.32H152.226V21.32ZM161.826 29V27H158.946V29V31H161.826V29ZM158.946 29H160.946V24.2H158.946H156.946V29H158.946ZM158.946 24.2V22.2H152.226V24.2V26.2H158.946V24.2ZM152.226 24.2H150.226V29H152.226H154.226V24.2H152.226ZM152.226 29V27H149.346V29V31H152.226V29ZM149.346 29H151.346V21.32H149.346H147.346V29H149.346ZM149.346 21.32H151.346V20.36H149.346H147.346V21.32H149.346ZM149.346 20.36H151.346V18.44H149.346H147.346V20.36H149.346ZM149.346 18.44V20.44H150.306V18.44V16.44H149.346V18.44ZM150.306 18.44H152.306V16.52H150.306H148.306V18.44H150.306ZM150.306 16.52V18.52H151.266V16.52V14.52H150.306V16.52ZM151.266 16.52H153.266V14.6H151.266H149.266V16.52H151.266ZM151.266 14.6V16.6H152.226V14.6V12.6H151.266V14.6ZM152.226 14.6H154.226V12.68H152.226H150.226V14.6H152.226ZM152.226 12.68V14.68H153.186V12.68V10.68H152.226V12.68ZM153.186 12.68H155.186V10.76H153.186H151.186V12.68H153.186ZM153.186 10.76V12.76H154.146V10.76V8.76H153.186V10.76ZM154.146 10.76H156.146V8.84H154.146H152.146V10.76H154.146ZM154.146 8.84V10.84H155.106V8.84V6.84H154.146V8.84ZM155.106 8.84H157.106V7.88H155.106H153.106V8.84H155.106ZM155.106 7.88V9.88H156.066V7.88V5.88H155.106V7.88ZM156.066 7.88H154.066V8.84H156.066H158.066V7.88H156.066ZM156.066 8.84V10.84H157.026V8.84V6.84H156.066V8.84ZM157.026 8.84H155.026V10.76H157.026H159.026V8.84H157.026ZM157.026 10.76V12.76H157.986V10.76V8.76H157.026V10.76ZM157.986 10.76H155.986V12.68H157.986H159.986V10.76H157.986ZM157.986 12.68V14.68H158.946V12.68V10.68H157.986V12.68ZM158.946 12.68H156.946V14.6H158.946H160.946V12.68H158.946ZM158.946 14.6V16.6H159.906V14.6V12.6H158.946V14.6ZM159.906 14.6H157.906V16.52H159.906H161.906V14.6H159.906ZM159.906 16.52V18.52H160.866V16.52V14.52H159.906V16.52ZM160.866 16.52H158.866V18.44H160.866H162.866V16.52H160.866ZM160.866 18.44V20.44H161.826V18.44V16.44H160.866V18.44ZM161.826 18.44H159.826V20.36H161.826H163.826V18.44H161.826ZM161.826 20.36H159.826V21.32H161.826H163.826V20.36H161.826ZM161.826 21.32H159.826V29H161.826H163.826V21.32H161.826ZM158.946 21.32H160.946V20.36H158.946H156.946V21.32H158.946ZM158.946 20.36H160.946V19.4H158.946H156.946V20.36H158.946ZM158.946 19.4V17.4H157.986V19.4V21.4H158.946V19.4ZM157.986 19.4H159.986V17.48H157.986H155.986V19.4H157.986ZM157.986 17.48V15.48H157.026V17.48V19.48H157.986V17.48ZM157.026 17.48H159.026V15.56H157.026H155.026V17.48H157.026ZM157.026 15.56V13.56H156.066V15.56V17.56H157.026V15.56ZM156.066 15.56H158.066V13.64H156.066H154.066V15.56H156.066ZM156.066 13.64V11.64H155.106V13.64V15.64H156.066V13.64ZM155.106 13.64H153.106V15.56H155.106H157.106V13.64H155.106ZM155.106 15.56V13.56H154.146V15.56V17.56H155.106V15.56ZM154.146 15.56H152.146V17.48H154.146H156.146V15.56H154.146ZM154.146 17.48V15.48H153.186V17.48V19.48H154.146V17.48ZM153.186 17.48H151.186V19.4H153.186H155.186V17.48H153.186ZM153.186 19.4V17.4H152.226V19.4V21.4H153.186V19.4ZM152.226 19.4H150.226V20.36H152.226H154.226V19.4H152.226ZM152.226 20.36H150.226V21.32H152.226H154.226V20.36H152.226ZM152.226 21.32V23.32H158.946V21.32V19.32H152.226V21.32ZM177.193 10.76V12.76H179.193V10.76H177.193ZM172.393 10.76V8.76H170.393V10.76H172.393ZM172.393 29V31H174.393V29H172.393ZM169.513 29H167.513V31H169.513V29ZM169.513 10.76H171.513V8.76H169.513V10.76ZM164.713 10.76H162.713V12.76H164.713V10.76ZM164.713 7.88V5.88H162.713V7.88H164.713ZM177.193 7.88H179.193V5.88H177.193V7.88ZM177.193 10.76V8.76H172.393V10.76V12.76H177.193V10.76ZM172.393 10.76H170.393V29H172.393H174.393V10.76H172.393ZM172.393 29V27H169.513V29V31H172.393V29ZM169.513 29H171.513V10.76H169.513H167.513V29H169.513ZM169.513 10.76V8.76H164.713V10.76V12.76H169.513V10.76ZM164.713 10.76H166.713V7.88H164.713H162.713V10.76H164.713ZM164.713 7.88V9.88H177.193V7.88V5.88H164.713V7.88ZM177.193 7.88H175.193V10.76H177.193H179.193V7.88H177.193ZM192.559 29V31H194.559V29H192.559ZM180.079 29H178.079V31H180.079V29ZM180.079 26.12V24.12H178.079V26.12H180.079ZM184.879 26.12V28.12H186.879V26.12H184.879ZM184.879 10.76H186.879V8.76H184.879V10.76ZM182.959 10.76H180.959V12.76H182.959V10.76ZM182.959 7.88V5.88H180.959V7.88H182.959ZM189.679 7.88H191.679V5.88H189.679V7.88ZM189.679 10.76V12.76H191.679V10.76H189.679ZM187.759 10.76V8.76H185.759V10.76H187.759ZM187.759 26.12H185.759V28.12H187.759V26.12ZM192.559 26.12H194.559V24.12H192.559V26.12ZM192.559 29V27H180.079V29V31H192.559V29ZM180.079 29H182.079V26.12H180.079H178.079V29H180.079ZM180.079 26.12V28.12H184.879V26.12V24.12H180.079V26.12ZM184.879 26.12H186.879V10.76H184.879H182.879V26.12H184.879ZM184.879 10.76V8.76H182.959V10.76V12.76H184.879V10.76ZM182.959 10.76H184.959V7.88H182.959H180.959V10.76H182.959ZM182.959 7.88V9.88H189.679V7.88V5.88H182.959V7.88ZM189.679 7.88H187.679V10.76H189.679H191.679V7.88H189.679ZM189.679 10.76V8.76H187.759V10.76V12.76H189.679V10.76ZM187.759 10.76H185.759V26.12H187.759H189.759V10.76H187.759ZM187.759 26.12V28.12H192.559V26.12V24.12H187.759V26.12ZM192.559 26.12H190.559V29H192.559H194.559V26.12H192.559ZM207.925 25.16V27.16H209.925V25.16H207.925ZM206.965 25.16V23.16H204.965V25.16H206.965ZM206.965 26.12V28.12H208.965V26.12H206.965ZM206.005 26.12V24.12H204.005V26.12H206.005ZM206.005 27.08V29.08H208.005V27.08H206.005ZM205.045 27.08V25.08H203.045V27.08H205.045ZM205.045 28.04V30.04H207.045V28.04H205.045ZM204.085 28.04V26.04H202.085V28.04H204.085ZM204.085 29V31H206.085V29H204.085ZM199.285 29H197.285V31H199.285V29ZM199.285 28.04H201.285V26.04H199.285V28.04ZM198.325 28.04H196.325V30.04H198.325V28.04ZM198.325 27.08H200.325V25.08H198.325V27.08ZM197.365 27.08H195.365V29.08H197.365V27.08ZM197.365 26.12H199.365V24.12H197.365V26.12ZM196.405 26.12H194.405V28.12H196.405V26.12ZM196.405 25.16H198.405V23.16H196.405V25.16ZM195.445 25.16H193.445V27.16H195.445V25.16ZM195.445 11.72V9.72H193.445V11.72H195.445ZM196.405 11.72V13.72H198.405V11.72H196.405ZM196.405 10.76V8.76H194.405V10.76H196.405ZM197.365 10.76V12.76H199.365V10.76H197.365ZM197.365 9.8V7.8H195.365V9.8H197.365ZM198.325 9.8V11.8H200.325V9.8H198.325ZM198.325 8.84V6.84H196.325V8.84H198.325ZM199.285 8.84V10.84H201.285V8.84H199.285ZM199.285 7.88V5.88H197.285V7.88H199.285ZM204.085 7.88H206.085V5.88H204.085V7.88ZM204.085 8.84H202.085V10.84H204.085V8.84ZM205.045 8.84H207.045V6.84H205.045V8.84ZM205.045 9.8H203.045V11.8H205.045V9.8ZM206.005 9.8H208.005V7.8H206.005V9.8ZM206.005 10.76H204.005V12.76H206.005V10.76ZM206.965 10.76H208.965V8.76H206.965V10.76ZM206.965 11.72H204.965V13.72H206.965V11.72ZM207.925 11.72H209.925V9.72H207.925V11.72ZM205.045 24.2V26.2H207.045V24.2H205.045ZM205.045 12.68H207.045V10.68H205.045V12.68ZM204.085 12.68H202.085V14.68H204.085V12.68ZM204.085 11.72H206.085V9.72H204.085V11.72ZM203.125 11.72H201.125V13.72H203.125V11.72ZM203.125 10.76H205.125V8.76H203.125V10.76ZM200.245 10.76V8.76H198.245V10.76H200.245ZM200.245 11.72V13.72H202.245V11.72H200.245ZM199.285 11.72V9.72H197.285V11.72H199.285ZM199.285 12.68V14.68H201.285V12.68H199.285ZM198.325 12.68V10.68H196.325V12.68H198.325ZM198.325 24.2H196.325V26.2H198.325V24.2ZM199.285 24.2H201.285V22.2H199.285V24.2ZM199.285 25.16H197.285V27.16H199.285V25.16ZM200.245 25.16H202.245V23.16H200.245V25.16ZM200.245 26.12H198.245V28.12H200.245V26.12ZM203.125 26.12V28.12H205.125V26.12H203.125ZM203.125 25.16V23.16H201.125V25.16H203.125ZM204.085 25.16V27.16H206.085V25.16H204.085ZM204.085 24.2V22.2H202.085V24.2H204.085ZM207.925 25.16V23.16H206.965V25.16V27.16H207.925V25.16ZM206.965 25.16H204.965V26.12H206.965H208.965V25.16H206.965ZM206.965 26.12V24.12H206.005V26.12V28.12H206.965V26.12ZM206.005 26.12H204.005V27.08H206.005H208.005V26.12H206.005ZM206.005 27.08V25.08H205.045V27.08V29.08H206.005V27.08ZM205.045 27.08H203.045V28.04H205.045H207.045V27.08H205.045ZM205.045 28.04V26.04H204.085V28.04V30.04H205.045V28.04ZM204.085 28.04H202.085V29H204.085H206.085V28.04H204.085ZM204.085 29V27H199.285V29V31H204.085V29ZM199.285 29H201.285V28.04H199.285H197.285V29H199.285ZM199.285 28.04V26.04H198.325V28.04V30.04H199.285V28.04ZM198.325 28.04H200.325V27.08H198.325H196.325V28.04H198.325ZM198.325 27.08V25.08H197.365V27.08V29.08H198.325V27.08ZM197.365 27.08H199.365V26.12H197.365H195.365V27.08H197.365ZM197.365 26.12V24.12H196.405V26.12V28.12H197.365V26.12ZM196.405 26.12H198.405V25.16H196.405H194.405V26.12H196.405ZM196.405 25.16V23.16H195.445V25.16V27.16H196.405V25.16ZM195.445 25.16H197.445V11.72H195.445H193.445V25.16H195.445ZM195.445 11.72V13.72H196.405V11.72V9.72H195.445V11.72ZM196.405 11.72H198.405V10.76H196.405H194.405V11.72H196.405ZM196.405 10.76V12.76H197.365V10.76V8.76H196.405V10.76ZM197.365 10.76H199.365V9.8H197.365H195.365V10.76H197.365ZM197.365 9.8V11.8H198.325V9.8V7.8H197.365V9.8ZM198.325 9.8H200.325V8.84H198.325H196.325V9.8H198.325ZM198.325 8.84V10.84H199.285V8.84V6.84H198.325V8.84ZM199.285 8.84H201.285V7.88H199.285H197.285V8.84H199.285ZM199.285 7.88V9.88H204.085V7.88V5.88H199.285V7.88ZM204.085 7.88H202.085V8.84H204.085H206.085V7.88H204.085ZM204.085 8.84V10.84H205.045V8.84V6.84H204.085V8.84ZM205.045 8.84H203.045V9.8H205.045H207.045V8.84H205.045ZM205.045 9.8V11.8H206.005V9.8V7.8H205.045V9.8ZM206.005 9.8H204.005V10.76H206.005H208.005V9.8H206.005ZM206.005 10.76V12.76H206.965V10.76V8.76H206.005V10.76ZM206.965 10.76H204.965V11.72H206.965H208.965V10.76H206.965ZM206.965 11.72V13.72H207.925V11.72V9.72H206.965V11.72ZM207.925 11.72H205.925V25.16H207.925H209.925V11.72H207.925ZM205.045 24.2H207.045V12.68H205.045H203.045V24.2H205.045ZM205.045 12.68V10.68H204.085V12.68V14.68H205.045V12.68ZM204.085 12.68H206.085V11.72H204.085H202.085V12.68H204.085ZM204.085 11.72V9.72H203.125V11.72V13.72H204.085V11.72ZM203.125 11.72H205.125V10.76H203.125H201.125V11.72H203.125ZM203.125 10.76V8.76H200.245V10.76V12.76H203.125V10.76ZM200.245 10.76H198.245V11.72H200.245H202.245V10.76H200.245ZM200.245 11.72V9.72H199.285V11.72V13.72H200.245V11.72ZM199.285 11.72H197.285V12.68H199.285H201.285V11.72H199.285ZM199.285 12.68V10.68H198.325V12.68V14.68H199.285V12.68ZM198.325 12.68H196.325V24.2H198.325H200.325V12.68H198.325ZM198.325 24.2V26.2H199.285V24.2V22.2H198.325V24.2ZM199.285 24.2H197.285V25.16H199.285H201.285V24.2H199.285ZM199.285 25.16V27.16H200.245V25.16V23.16H199.285V25.16ZM200.245 25.16H198.245V26.12H200.245H202.245V25.16H200.245ZM200.245 26.12V28.12H203.125V26.12V24.12H200.245V26.12ZM203.125 26.12H205.125V25.16H203.125H201.125V26.12H203.125ZM203.125 25.16V27.16H204.085V25.16V23.16H203.125V25.16ZM204.085 25.16H206.085V24.2H204.085H202.085V25.16H204.085ZM204.085 24.2V26.2H205.045V24.2V22.2H204.085V24.2ZM223.291 29V31H225.291V29H223.291ZM220.411 29H218.411V31H220.411V29ZM220.411 28.04H222.411V26.04H220.411V28.04ZM219.451 28.04H217.451V30.04H219.451V28.04ZM219.451 26.12H221.451V24.12H219.451V26.12ZM218.491 26.12H216.491V28.12H218.491V26.12ZM218.491 24.2H220.491V22.2H218.491V24.2ZM217.531 24.2H215.531V26.2H217.531V24.2ZM217.531 22.28H219.531V20.28H217.531V22.28ZM216.571 22.28H214.571V24.28H216.571V22.28ZM216.571 20.36H218.571V18.36H216.571V20.36ZM215.611 20.36H213.611V22.36H215.611V20.36ZM215.611 18.44H217.611V16.44H215.611V18.44ZM214.651 18.44H212.651V20.44H214.651V18.44ZM214.651 16.52H216.651V14.52H214.651V16.52ZM213.691 16.52V14.52H211.691V16.52H213.691ZM213.691 29V31H215.691V29H213.691ZM210.811 29H208.811V31H210.811V29ZM210.811 7.88V5.88H208.811V7.88H210.811ZM212.731 7.88H214.731V5.88H212.731V7.88ZM212.731 9.8H210.731V11.8H212.731V9.8ZM213.691 9.8H215.691V7.8H213.691V9.8ZM213.691 11.72H211.691V13.72H213.691V11.72ZM214.651 11.72H216.651V9.72H214.651V11.72ZM214.651 13.64H212.651V15.64H214.651V13.64ZM215.611 13.64H217.611V11.64H215.611V13.64ZM215.611 15.56H213.611V17.56H215.611V15.56ZM216.571 15.56H218.571V13.56H216.571V15.56ZM216.571 17.48H214.571V19.48H216.571V17.48ZM217.531 17.48H219.531V15.48H217.531V17.48ZM217.531 19.4H215.531V21.4H217.531V19.4ZM218.491 19.4H220.491V17.4H218.491V19.4ZM218.491 21.32H216.491V23.32H218.491V21.32ZM219.451 21.32H221.451V19.32H219.451V21.32ZM219.451 23.24H217.451V25.24H219.451V23.24ZM220.411 23.24V25.24H222.411V23.24H220.411ZM220.411 7.88V5.88H218.411V7.88H220.411ZM223.291 7.88H225.291V5.88H223.291V7.88ZM223.291 29V27H220.411V29V31H223.291V29ZM220.411 29H222.411V28.04H220.411H218.411V29H220.411ZM220.411 28.04V26.04H219.451V28.04V30.04H220.411V28.04ZM219.451 28.04H221.451V26.12H219.451H217.451V28.04H219.451ZM219.451 26.12V24.12H218.491V26.12V28.12H219.451V26.12ZM218.491 26.12H220.491V24.2H218.491H216.491V26.12H218.491ZM218.491 24.2V22.2H217.531V24.2V26.2H218.491V24.2ZM217.531 24.2H219.531V22.28H217.531H215.531V24.2H217.531ZM217.531 22.28V20.28H216.571V22.28V24.28H217.531V22.28ZM216.571 22.28H218.571V20.36H216.571H214.571V22.28H216.571ZM216.571 20.36V18.36H215.611V20.36V22.36H216.571V20.36ZM215.611 20.36H217.611V18.44H215.611H213.611V20.36H215.611ZM215.611 18.44V16.44H214.651V18.44V20.44H215.611V18.44ZM214.651 18.44H216.651V16.52H214.651H212.651V18.44H214.651ZM214.651 16.52V14.52H213.691V16.52V18.52H214.651V16.52ZM213.691 16.52H211.691V29H213.691H215.691V16.52H213.691ZM213.691 29V27H210.811V29V31H213.691V29ZM210.811 29H212.811V7.88H210.811H208.811V29H210.811ZM210.811 7.88V9.88H212.731V7.88V5.88H210.811V7.88ZM212.731 7.88H210.731V9.8H212.731H214.731V7.88H212.731ZM212.731 9.8V11.8H213.691V9.8V7.8H212.731V9.8ZM213.691 9.8H211.691V11.72H213.691H215.691V9.8H213.691ZM213.691 11.72V13.72H214.651V11.72V9.72H213.691V11.72ZM214.651 11.72H212.651V13.64H214.651H216.651V11.72H214.651ZM214.651 13.64V15.64H215.611V13.64V11.64H214.651V13.64ZM215.611 13.64H213.611V15.56H215.611H217.611V13.64H215.611ZM215.611 15.56V17.56H216.571V15.56V13.56H215.611V15.56ZM216.571 15.56H214.571V17.48H216.571H218.571V15.56H216.571ZM216.571 17.48V19.48H217.531V17.48V15.48H216.571V17.48ZM217.531 17.48H215.531V19.4H217.531H219.531V17.48H217.531ZM217.531 19.4V21.4H218.491V19.4V17.4H217.531V19.4ZM218.491 19.4H216.491V21.32H218.491H220.491V19.4H218.491ZM218.491 21.32V23.32H219.451V21.32V19.32H218.491V21.32ZM219.451 21.32H217.451V23.24H219.451H221.451V21.32H219.451ZM219.451 23.24V25.24H220.411V23.24V21.24H219.451V23.24ZM220.411 23.24H222.411V7.88H220.411H218.411V23.24H220.411ZM220.411 7.88V9.88H223.291V7.88V5.88H220.411V7.88ZM223.291 7.88H221.291V29H223.291H225.291V7.88H223.291Z" fill="white" mask="url(#path-1-outside-1_2015_37715)"/>
<mask id="path-3-outside-2_2015_37715" maskUnits="userSpaceOnUse" x="109.872" y="46.5664" width="48" height="26" fill="black">
<rect fill="white" x="109.872" y="46.5664" width="48" height="26"/>
<path d="M124.981 70.5664H112.501V49.4464H124.981V52.3264H115.381V58.0864H123.061V60.9664H115.381V67.6864H124.981V70.5664ZM140.347 70.5664H137.467V69.6064H136.507V67.6864H135.547V65.7664H134.587V63.8464H133.627V61.9264H132.667V60.0064H131.707V58.0864H130.747V70.5664H127.867V49.4464H129.787V51.3664H130.747V53.2864H131.707V55.2064H132.667V57.1264H133.627V59.0464H134.587V60.9664H135.547V62.8864H136.507V64.8064H137.467V49.4464H140.347V70.5664ZM155.714 65.7664H154.754V66.7264H153.794V67.6864H152.834V68.6464H151.874V69.6064H150.882V70.5664H143.234V49.4464H150.914V50.4064H151.874V51.3664H152.834V52.3264H153.794V53.2864H154.754V54.2464H155.714V65.7664ZM152.834 64.8064V55.2064H151.874V54.2464H150.914V53.2864H149.954V52.3264H146.114V67.6864H149.954V66.7264H150.914V65.7664H151.874V64.8064H152.834Z"/>
</mask>
<path d="M124.981 70.5664V72.5664H126.981V70.5664H124.981ZM112.501 70.5664H110.501V72.5664H112.501V70.5664ZM112.501 49.4464V47.4464H110.501V49.4464H112.501ZM124.981 49.4464H126.981V47.4464H124.981V49.4464ZM124.981 52.3264V54.3264H126.981V52.3264H124.981ZM115.381 52.3264V50.3264H113.381V52.3264H115.381ZM115.381 58.0864H113.381V60.0864H115.381V58.0864ZM123.061 58.0864H125.061V56.0864H123.061V58.0864ZM123.061 60.9664V62.9664H125.061V60.9664H123.061ZM115.381 60.9664V58.9664H113.381V60.9664H115.381ZM115.381 67.6864H113.381V69.6864H115.381V67.6864ZM124.981 67.6864H126.981V65.6864H124.981V67.6864ZM124.981 70.5664V68.5664H112.501V70.5664V72.5664H124.981V70.5664ZM112.501 70.5664H114.501V49.4464H112.501H110.501V70.5664H112.501ZM112.501 49.4464V51.4464H124.981V49.4464V47.4464H112.501V49.4464ZM124.981 49.4464H122.981V52.3264H124.981H126.981V49.4464H124.981ZM124.981 52.3264V50.3264H115.381V52.3264V54.3264H124.981V52.3264ZM115.381 52.3264H113.381V58.0864H115.381H117.381V52.3264H115.381ZM115.381 58.0864V60.0864H123.061V58.0864V56.0864H115.381V58.0864ZM123.061 58.0864H121.061V60.9664H123.061H125.061V58.0864H123.061ZM123.061 60.9664V58.9664H115.381V60.9664V62.9664H123.061V60.9664ZM115.381 60.9664H113.381V67.6864H115.381H117.381V60.9664H115.381ZM115.381 67.6864V69.6864H124.981V67.6864V65.6864H115.381V67.6864ZM124.981 67.6864H122.981V70.5664H124.981H126.981V67.6864H124.981ZM140.347 70.5664V72.5664H142.347V70.5664H140.347ZM137.467 70.5664H135.467V72.5664H137.467V70.5664ZM137.467 69.6064H139.467V67.6064H137.467V69.6064ZM136.507 69.6064H134.507V71.6064H136.507V69.6064ZM136.507 67.6864H138.507V65.6864H136.507V67.6864ZM135.547 67.6864H133.547V69.6864H135.547V67.6864ZM135.547 65.7664H137.547V63.7664H135.547V65.7664ZM134.587 65.7664H132.587V67.7664H134.587V65.7664ZM134.587 63.8464H136.587V61.8464H134.587V63.8464ZM133.627 63.8464H131.627V65.8464H133.627V63.8464ZM133.627 61.9264H135.627V59.9264H133.627V61.9264ZM132.667 61.9264H130.667V63.9264H132.667V61.9264ZM132.667 60.0064H134.667V58.0064H132.667V60.0064ZM131.707 60.0064H129.707V62.0064H131.707V60.0064ZM131.707 58.0864H133.707V56.0864H131.707V58.0864ZM130.747 58.0864V56.0864H128.747V58.0864H130.747ZM130.747 70.5664V72.5664H132.747V70.5664H130.747ZM127.867 70.5664H125.867V72.5664H127.867V70.5664ZM127.867 49.4464V47.4464H125.867V49.4464H127.867ZM129.787 49.4464H131.787V47.4464H129.787V49.4464ZM129.787 51.3664H127.787V53.3664H129.787V51.3664ZM130.747 51.3664H132.747V49.3664H130.747V51.3664ZM130.747 53.2864H128.747V55.2864H130.747V53.2864ZM131.707 53.2864H133.707V51.2864H131.707V53.2864ZM131.707 55.2064H129.707V57.2064H131.707V55.2064ZM132.667 55.2064H134.667V53.2064H132.667V55.2064ZM132.667 57.1264H130.667V59.1264H132.667V57.1264ZM133.627 57.1264H135.627V55.1264H133.627V57.1264ZM133.627 59.0464H131.627V61.0464H133.627V59.0464ZM134.587 59.0464H136.587V57.0464H134.587V59.0464ZM134.587 60.9664H132.587V62.9664H134.587V60.9664ZM135.547 60.9664H137.547V58.9664H135.547V60.9664ZM135.547 62.8864H133.547V64.8864H135.547V62.8864ZM136.507 62.8864H138.507V60.8864H136.507V62.8864ZM136.507 64.8064H134.507V66.8064H136.507V64.8064ZM137.467 64.8064V66.8064H139.467V64.8064H137.467ZM137.467 49.4464V47.4464H135.467V49.4464H137.467ZM140.347 49.4464H142.347V47.4464H140.347V49.4464ZM140.347 70.5664V68.5664H137.467V70.5664V72.5664H140.347V70.5664ZM137.467 70.5664H139.467V69.6064H137.467H135.467V70.5664H137.467ZM137.467 69.6064V67.6064H136.507V69.6064V71.6064H137.467V69.6064ZM136.507 69.6064H138.507V67.6864H136.507H134.507V69.6064H136.507ZM136.507 67.6864V65.6864H135.547V67.6864V69.6864H136.507V67.6864ZM135.547 67.6864H137.547V65.7664H135.547H133.547V67.6864H135.547ZM135.547 65.7664V63.7664H134.587V65.7664V67.7664H135.547V65.7664ZM134.587 65.7664H136.587V63.8464H134.587H132.587V65.7664H134.587ZM134.587 63.8464V61.8464H133.627V63.8464V65.8464H134.587V63.8464ZM133.627 63.8464H135.627V61.9264H133.627H131.627V63.8464H133.627ZM133.627 61.9264V59.9264H132.667V61.9264V63.9264H133.627V61.9264ZM132.667 61.9264H134.667V60.0064H132.667H130.667V61.9264H132.667ZM132.667 60.0064V58.0064H131.707V60.0064V62.0064H132.667V60.0064ZM131.707 60.0064H133.707V58.0864H131.707H129.707V60.0064H131.707ZM131.707 58.0864V56.0864H130.747V58.0864V60.0864H131.707V58.0864ZM130.747 58.0864H128.747V70.5664H130.747H132.747V58.0864H130.747ZM130.747 70.5664V68.5664H127.867V70.5664V72.5664H130.747V70.5664ZM127.867 70.5664H129.867V49.4464H127.867H125.867V70.5664H127.867ZM127.867 49.4464V51.4464H129.787V49.4464V47.4464H127.867V49.4464ZM129.787 49.4464H127.787V51.3664H129.787H131.787V49.4464H129.787ZM129.787 51.3664V53.3664H130.747V51.3664V49.3664H129.787V51.3664ZM130.747 51.3664H128.747V53.2864H130.747H132.747V51.3664H130.747ZM130.747 53.2864V55.2864H131.707V53.2864V51.2864H130.747V53.2864ZM131.707 53.2864H129.707V55.2064H131.707H133.707V53.2864H131.707ZM131.707 55.2064V57.2064H132.667V55.2064V53.2064H131.707V55.2064ZM132.667 55.2064H130.667V57.1264H132.667H134.667V55.2064H132.667ZM132.667 57.1264V59.1264H133.627V57.1264V55.1264H132.667V57.1264ZM133.627 57.1264H131.627V59.0464H133.627H135.627V57.1264H133.627ZM133.627 59.0464V61.0464H134.587V59.0464V57.0464H133.627V59.0464ZM134.587 59.0464H132.587V60.9664H134.587H136.587V59.0464H134.587ZM134.587 60.9664V62.9664H135.547V60.9664V58.9664H134.587V60.9664ZM135.547 60.9664H133.547V62.8864H135.547H137.547V60.9664H135.547ZM135.547 62.8864V64.8864H136.507V62.8864V60.8864H135.547V62.8864ZM136.507 62.8864H134.507V64.8064H136.507H138.507V62.8864H136.507ZM136.507 64.8064V66.8064H137.467V64.8064V62.8064H136.507V64.8064ZM137.467 64.8064H139.467V49.4464H137.467H135.467V64.8064H137.467ZM137.467 49.4464V51.4464H140.347V49.4464V47.4464H137.467V49.4464ZM140.347 49.4464H138.347V70.5664H140.347H142.347V49.4464H140.347ZM155.714 65.7664V67.7664H157.714V65.7664H155.714ZM154.754 65.7664V63.7664H152.754V65.7664H154.754ZM154.754 66.7264V68.7264H156.754V66.7264H154.754ZM153.794 66.7264V64.7264H151.794V66.7264H153.794ZM153.794 67.6864V69.6864H155.794V67.6864H153.794ZM152.834 67.6864V65.6864H150.834V67.6864H152.834ZM152.834 68.6464V70.6464H154.834V68.6464H152.834ZM151.874 68.6464V66.6464H149.874V68.6464H151.874ZM151.874 69.6064V71.6064H153.874V69.6064H151.874ZM150.882 69.6064V67.6064H148.882V69.6064H150.882ZM150.882 70.5664V72.5664H152.882V70.5664H150.882ZM143.234 70.5664H141.234V72.5664H143.234V70.5664ZM143.234 49.4464V47.4464H141.234V49.4464H143.234ZM150.914 49.4464H152.914V47.4464H150.914V49.4464ZM150.914 50.4064H148.914V52.4064H150.914V50.4064ZM151.874 50.4064H153.874V48.4064H151.874V50.4064ZM151.874 51.3664H149.874V53.3664H151.874V51.3664ZM152.834 51.3664H154.834V49.3664H152.834V51.3664ZM152.834 52.3264H150.834V54.3264H152.834V52.3264ZM153.794 52.3264H155.794V50.3264H153.794V52.3264ZM153.794 53.2864H151.794V55.2864H153.794V53.2864ZM154.754 53.2864H156.754V51.2864H154.754V53.2864ZM154.754 54.2464H152.754V56.2464H154.754V54.2464ZM155.714 54.2464H157.714V52.2464H155.714V54.2464ZM152.834 64.8064V66.8064H154.834V64.8064H152.834ZM152.834 55.2064H154.834V53.2064H152.834V55.2064ZM151.874 55.2064H149.874V57.2064H151.874V55.2064ZM151.874 54.2464H153.874V52.2464H151.874V54.2464ZM150.914 54.2464H148.914V56.2464H150.914V54.2464ZM150.914 53.2864H152.914V51.2864H150.914V53.2864ZM149.954 53.2864H147.954V55.2864H149.954V53.2864ZM149.954 52.3264H151.954V50.3264H149.954V52.3264ZM146.114 52.3264V50.3264H144.114V52.3264H146.114ZM146.114 67.6864H144.114V69.6864H146.114V67.6864ZM149.954 67.6864V69.6864H151.954V67.6864H149.954ZM149.954 66.7264V64.7264H147.954V66.7264H149.954ZM150.914 66.7264V68.7264H152.914V66.7264H150.914ZM150.914 65.7664V63.7664H148.914V65.7664H150.914ZM151.874 65.7664V67.7664H153.874V65.7664H151.874ZM151.874 64.8064V62.8064H149.874V64.8064H151.874ZM155.714 65.7664V63.7664H154.754V65.7664V67.7664H155.714V65.7664ZM154.754 65.7664H152.754V66.7264H154.754H156.754V65.7664H154.754ZM154.754 66.7264V64.7264H153.794V66.7264V68.7264H154.754V66.7264ZM153.794 66.7264H151.794V67.6864H153.794H155.794V66.7264H153.794ZM153.794 67.6864V65.6864H152.834V67.6864V69.6864H153.794V67.6864ZM152.834 67.6864H150.834V68.6464H152.834H154.834V67.6864H152.834ZM152.834 68.6464V66.6464H151.874V68.6464V70.6464H152.834V68.6464ZM151.874 68.6464H149.874V69.6064H151.874H153.874V68.6464H151.874ZM151.874 69.6064V67.6064H150.882V69.6064V71.6064H151.874V69.6064ZM150.882 69.6064H148.882V70.5664H150.882H152.882V69.6064H150.882ZM150.882 70.5664V68.5664H143.234V70.5664V72.5664H150.882V70.5664ZM143.234 70.5664H145.234V49.4464H143.234H141.234V70.5664H143.234ZM143.234 49.4464V51.4464H150.914V49.4464V47.4464H143.234V49.4464ZM150.914 49.4464H148.914V50.4064H150.914H152.914V49.4464H150.914ZM150.914 50.4064V52.4064H151.874V50.4064V48.4064H150.914V50.4064ZM151.874 50.4064H149.874V51.3664H151.874H153.874V50.4064H151.874ZM151.874 51.3664V53.3664H152.834V51.3664V49.3664H151.874V51.3664ZM152.834 51.3664H150.834V52.3264H152.834H154.834V51.3664H152.834ZM152.834 52.3264V54.3264H153.794V52.3264V50.3264H152.834V52.3264ZM153.794 52.3264H151.794V53.2864H153.794H155.794V52.3264H153.794ZM153.794 53.2864V55.2864H154.754V53.2864V51.2864H153.794V53.2864ZM154.754 53.2864H152.754V54.2464H154.754H156.754V53.2864H154.754ZM154.754 54.2464V56.2464H155.714V54.2464V52.2464H154.754V54.2464ZM155.714 54.2464H153.714V65.7664H155.714H157.714V54.2464H155.714ZM152.834 64.8064H154.834V55.2064H152.834H150.834V64.8064H152.834ZM152.834 55.2064V53.2064H151.874V55.2064V57.2064H152.834V55.2064ZM151.874 55.2064H153.874V54.2464H151.874H149.874V55.2064H151.874ZM151.874 54.2464V52.2464H150.914V54.2464V56.2464H151.874V54.2464ZM150.914 54.2464H152.914V53.2864H150.914H148.914V54.2464H150.914ZM150.914 53.2864V51.2864H149.954V53.2864V55.2864H150.914V53.2864ZM149.954 53.2864H151.954V52.3264H149.954H147.954V53.2864H149.954ZM149.954 52.3264V50.3264H146.114V52.3264V54.3264H149.954V52.3264ZM146.114 52.3264H144.114V67.6864H146.114H148.114V52.3264H146.114ZM146.114 67.6864V69.6864H149.954V67.6864V65.6864H146.114V67.6864ZM149.954 67.6864H151.954V66.7264H149.954H147.954V67.6864H149.954ZM149.954 66.7264V68.7264H150.914V66.7264V64.7264H149.954V66.7264ZM150.914 66.7264H152.914V65.7664H150.914H148.914V66.7264H150.914ZM150.914 65.7664V67.7664H151.874V65.7664V63.7664H150.914V65.7664ZM151.874 65.7664H153.874V64.8064H151.874H149.874V65.7664H151.874ZM151.874 64.8064V66.8064H152.834V64.8064V62.8064H151.874V64.8064Z" fill="white" mask="url(#path-3-outside-2_2015_37715)"/>
</svg>
