<svg width="145" height="160" viewBox="0 0 145 160" fill="none" xmlns="http://www.w3.org/2000/svg">
<g style="mix-blend-mode:hard-light" filter="url(#filter0_d_448_21002)">
<path d="M76.2973 108.68H74.9824V109.998H76.2973V108.68Z" fill="#471E87"/>
<path d="M74.9828 108.68H73.668V109.998H74.9828V108.68Z" fill="#5932A5"/>
<path d="M73.6664 108.68H72.3516V109.998H73.6664V108.68Z" fill="#5932A5"/>
<path d="M72.352 108.68H71.0371V109.998H72.352V108.68Z" fill="#5932A5"/>
<path d="M71.0375 108.68H69.7227V109.998H71.0375V108.68Z" fill="#471E87"/>
<path d="M74.9828 107.363H73.668V108.68H74.9828V107.363Z" fill="#471E87"/>
<path d="M73.6664 107.363H72.3516V108.68H73.6664V107.363Z" fill="#471E87"/>
<path d="M72.352 107.363H71.0371V108.68H72.352V107.363Z" fill="#471E87"/>
<path d="M93.3891 106.046H92.0742V107.363H93.3891V106.046Z" fill="#471E87"/>
<path d="M92.0746 106.046H90.7598V107.363H92.0746V106.046Z" fill="#471E87"/>
<path d="M90.7602 106.046H89.4453V107.363H90.7602V106.046Z" fill="#471E87"/>
<path d="M89.4457 106.046H88.1309V107.363H89.4457V106.046Z" fill="#471E87"/>
<path d="M88.1312 106.046H86.8164V107.363H88.1312V106.046Z" fill="#471E87"/>
<path d="M86.8148 106.046H85.5V107.363H86.8148V106.046Z" fill="#766294"/>
<path d="M73.6664 106.046H72.3516V107.363H73.6664V106.046Z" fill="#471E87"/>
<path d="M60.518 106.046H59.2031V107.363H60.518V106.046Z" fill="#887AA4"/>
<path d="M59.2035 106.046H57.8887V107.363H59.2035V106.046Z" fill="#5932A5"/>
<path d="M57.8891 106.046H56.5742V107.363H57.8891V106.046Z" fill="#6C46C1"/>
<path d="M56.5746 106.046H55.2598V107.363H56.5746V106.046Z" fill="#7752D1"/>
<path d="M55.2602 106.046H53.9453V107.363H55.2602V106.046Z" fill="#7752D1"/>
<path d="M53.9437 106.046H52.6289V107.363H53.9437V106.046Z" fill="#6842BB"/>
<path d="M90.7602 104.729H89.4453V106.046H90.7602V104.729Z" fill="#644A8C"/>
<path d="M89.4457 104.729H88.1309V106.046H89.4457V104.729Z" fill="#471E87"/>
<path d="M88.1312 104.729H86.8164V106.046H88.1312V104.729Z" fill="#471E87"/>
<path d="M86.8148 104.729H85.5V106.046H86.8148V104.729Z" fill="#583988"/>
<path d="M73.6664 104.729H72.3516V106.046H73.6664V104.729Z" fill="#471E87"/>
<path d="M60.518 104.729H59.2031V106.046H60.518V104.729Z" fill="#6D52A0"/>
<path d="M59.2035 104.729H57.8887V106.046H59.2035V104.729Z" fill="#5932A5"/>
<path d="M57.8891 104.729H56.5742V106.046H57.8891V104.729Z" fill="#7752D1"/>
<path d="M56.5746 104.729H55.2598V106.046H56.5746V104.729Z" fill="#7854CF"/>
<path d="M88.1312 103.411H86.8164V104.729H88.1312V103.411Z" fill="#4C2688"/>
<path d="M73.6664 103.411H72.3516V104.729H73.6664V103.411Z" fill="#471E87"/>
<path d="M59.2035 103.411H57.8887V104.729H59.2035V103.411Z" fill="#5B36A5"/>
<path d="M86.8148 102.093H85.5V103.411H86.8148V102.093Z" fill="#471E87"/>
<path d="M73.6664 102.093H72.3516V103.411H73.6664V102.093Z" fill="#84779A"/>
<path d="M60.518 102.093H59.2031V103.411H60.518V102.093Z" fill="#5932A5"/>
<path d="M86.8148 100.777H85.5V102.094H86.8148V100.777Z" fill="#471E87"/>
<path d="M73.6664 100.777H72.3516V102.094H73.6664V100.777Z" fill="#84779A"/>
<path d="M60.518 100.777H59.2031V102.094H60.518V100.777Z" fill="#5932A5"/>
<path d="M85.5004 99.4595H84.1855V100.777H85.5004V99.4595Z" fill="#471E87"/>
<path d="M77.6117 99.4595H76.2969V100.777H77.6117V99.4595Z" fill="#471E87"/>
<path d="M76.2973 99.4595H74.9824V100.777H76.2973V99.4595Z" fill="#471E87"/>
<path d="M74.9828 99.4595H73.668V100.777H74.9828V99.4595Z" fill="#471E87"/>
<path d="M73.6664 99.4595H72.3516V100.777H73.6664V99.4595Z" fill="#471E87"/>
<path d="M72.352 99.4595H71.0371V100.777H72.352V99.4595Z" fill="#532C9C"/>
<path d="M71.0375 99.4595H69.7227V100.777H71.0375V99.4595Z" fill="#5932A5"/>
<path d="M69.723 99.4595H68.4082V100.777H69.723V99.4595Z" fill="#5932A5"/>
<path d="M68.4086 99.4595H67.0938V100.777H68.4086V99.4595Z" fill="#6342A1"/>
<path d="M61.8344 99.4595H60.5195V100.777H61.8344V99.4595Z" fill="#5A33A5"/>
<path d="M84.1859 98.1416H82.8711V99.4591H84.1859V98.1416Z" fill="#471F87"/>
<path d="M82.8715 98.1416H81.5566V99.4591H82.8715V98.1416Z" fill="#471E87"/>
<path d="M81.557 98.1416H80.2422V99.4591H81.557V98.1416Z" fill="#471E87"/>
<path d="M80.2406 98.1416H78.9258V99.4591H80.2406V98.1416Z" fill="#471E87"/>
<path d="M78.9262 98.1416H77.6113V99.4591H78.9262V98.1416Z" fill="#471E87"/>
<path d="M77.6117 98.1416H76.2969V99.4591H77.6117V98.1416Z" fill="#471E87"/>
<path d="M76.2973 98.1416H74.9824V99.4591H76.2973V98.1416Z" fill="#471E87"/>
<path d="M74.9828 98.1416H73.668V99.4591H74.9828V98.1416Z" fill="#471E87"/>
<path d="M73.6664 98.1416H72.3516V99.4591H73.6664V98.1416Z" fill="#5932A5"/>
<path d="M72.352 98.1416H71.0371V99.4591H72.352V98.1416Z" fill="#5932A5"/>
<path d="M71.0375 98.1416H69.7227V99.4591H71.0375V98.1416Z" fill="#5932A5"/>
<path d="M69.723 98.1416H68.4082V99.4591H69.723V98.1416Z" fill="#5932A5"/>
<path d="M68.4086 98.1416H67.0938V99.4591H68.4086V98.1416Z" fill="#5932A5"/>
<path d="M67.0922 98.1416H65.7773V99.4591H67.0922V98.1416Z" fill="#5932A5"/>
<path d="M65.7777 98.1416H64.4629V99.4591H65.7777V98.1416Z" fill="#5932A5"/>
<path d="M64.4633 98.1416H63.1484V99.4591H64.4633V98.1416Z" fill="#5932A5"/>
<path d="M63.1488 98.1416H61.834V99.4591H63.1488V98.1416Z" fill="#5932A5"/>
<path d="M81.557 96.8242H80.2422V98.1417H81.557V96.8242Z" fill="#471E87"/>
<path d="M80.2406 96.8242H78.9258V98.1417H80.2406V96.8242Z" fill="#471E87"/>
<path d="M78.9262 96.8242H77.6113V98.1417H78.9262V96.8242Z" fill="#471E87"/>
<path d="M77.6117 96.8242H76.2969V98.1417H77.6117V96.8242Z" fill="#471E87"/>
<path d="M76.2973 96.8242H74.9824V98.1417H76.2973V96.8242Z" fill="#471E87"/>
<path d="M74.9828 96.8242H73.668V98.1417H74.9828V96.8242Z" fill="#471E87"/>
<path d="M73.6664 96.8242H72.3516V98.1417H73.6664V96.8242Z" fill="#5932A5"/>
<path d="M72.352 96.8242H71.0371V98.1417H72.352V96.8242Z" fill="#5932A5"/>
<path d="M71.0375 96.8242H69.7227V98.1417H71.0375V96.8242Z" fill="#5932A5"/>
<path d="M69.723 96.8242H68.4082V98.1417H69.723V96.8242Z" fill="#5932A5"/>
<path d="M68.4086 96.8242H67.0938V98.1417H68.4086V96.8242Z" fill="#5932A5"/>
<path d="M67.0922 96.8242H65.7773V98.1417H67.0922V96.8242Z" fill="#5932A5"/>
<path d="M65.7777 96.8242H64.4629V98.1417H65.7777V96.8242Z" fill="#5932A5"/>
<path d="M81.557 95.5068H80.2422V96.8243H81.557V95.5068Z" fill="#471E87"/>
<path d="M80.2406 95.5068H78.9258V96.8243H80.2406V95.5068Z" fill="#471E87"/>
<path d="M78.9262 95.5068H77.6113V96.8243H78.9262V95.5068Z" fill="#471E87"/>
<path d="M77.6117 95.5068H76.2969V96.8243H77.6117V95.5068Z" fill="#4486BA"/>
<path d="M76.2973 95.5068H74.9824V96.8243H76.2973V95.5068Z" fill="#43C8DB"/>
<path d="M74.9828 95.5068H73.668V96.8243H74.9828V95.5068Z" fill="#43C8DB"/>
<path d="M73.6664 95.5068H72.3516V96.8243H73.6664V95.5068Z" fill="#43C8DB"/>
<path d="M72.352 95.5068H71.0371V96.8243H72.352V95.5068Z" fill="#43C8DB"/>
<path d="M71.0375 95.5068H69.7227V96.8243H71.0375V95.5068Z" fill="#43C8DB"/>
<path d="M69.723 95.5068H68.4082V96.8243H69.723V95.5068Z" fill="#43C8DB"/>
<path d="M68.4086 95.5068H67.0938V96.8243H68.4086V95.5068Z" fill="#43C0D8"/>
<path d="M67.0922 95.5068H65.7773V96.8243H67.0922V95.5068Z" fill="#5932A5"/>
<path d="M65.7777 95.5068H64.4629V96.8243H65.7777V95.5068Z" fill="#5932A5"/>
<path d="M81.557 94.1899H80.2422V95.5074H81.557V94.1899Z" fill="#99D3E8"/>
<path d="M80.2406 94.1899H78.9258V95.5074H80.2406V94.1899Z" fill="#95D2E7"/>
<path d="M78.9262 94.1899H77.6113V95.5074H78.9262V94.1899Z" fill="#95D2E7"/>
<path d="M77.6117 94.1899H76.2969V95.5074H77.6117V94.1899Z" fill="#95D2E7"/>
<path d="M76.2973 94.1899H74.9824V95.5074H76.2973V94.1899Z" fill="#95D2E7"/>
<path d="M74.9828 94.1899H73.668V95.5074H74.9828V94.1899Z" fill="#71CDE1"/>
<path d="M73.6664 94.1899H72.3516V95.5074H73.6664V94.1899Z" fill="#46C8DB"/>
<path d="M72.352 94.1899H71.0371V95.5074H72.352V94.1899Z" fill="#43C8DB"/>
<path d="M71.0375 94.1899H69.7227V95.5074H71.0375V94.1899Z" fill="#43C8DB"/>
<path d="M69.723 94.1899H68.4082V95.5074H69.723V94.1899Z" fill="#65CCDF"/>
<path d="M68.4086 94.1899H67.0938V95.5074H68.4086V94.1899Z" fill="#95D2E7"/>
<path d="M67.0922 94.1899H65.7773V95.5074H67.0922V94.1899Z" fill="#95D2E7"/>
<path d="M65.7777 94.1899H64.4629V95.5074H65.7777V94.1899Z" fill="#95D2E7"/>
<path d="M64.4633 94.1899H63.1484V95.5074H64.4633V94.1899Z" fill="#95D2E7"/>
<path d="M84.1859 92.8726H82.8711V94.19H84.1859V92.8726Z" fill="#BDDBEE"/>
<path d="M82.8715 92.8726H81.5566V94.19H82.8715V92.8726Z" fill="#95D2E7"/>
<path d="M81.557 92.8726H80.2422V94.19H81.557V92.8726Z" fill="#95D2E7"/>
<path d="M80.2406 92.8726H78.9258V94.19H80.2406V92.8726Z" fill="#95D2E7"/>
<path d="M78.9262 92.8726H77.6113V94.19H78.9262V92.8726Z" fill="#95D2E7"/>
<path d="M77.6117 92.8726H76.2969V94.19H77.6117V92.8726Z" fill="#95D2E7"/>
<path d="M76.2973 92.8726H74.9824V94.19H76.2973V92.8726Z" fill="#95D2E7"/>
<path d="M74.9828 92.8726H73.668V94.19H74.9828V92.8726Z" fill="#95D2E7"/>
<path d="M73.6664 92.8726H72.3516V94.19H73.6664V92.8726Z" fill="#95D2E7"/>
<path d="M72.352 92.8726H71.0371V94.19H72.352V92.8726Z" fill="#95D2E7"/>
<path d="M71.0375 92.8726H69.7227V94.19H71.0375V92.8726Z" fill="#95D2E7"/>
<path d="M69.723 92.8726H68.4082V94.19H69.723V92.8726Z" fill="#95D2E7"/>
<path d="M68.4086 92.8726H67.0938V94.19H68.4086V92.8726Z" fill="#95D2E7"/>
<path d="M67.0922 92.8726H65.7773V94.19H67.0922V92.8726Z" fill="#95D2E7"/>
<path d="M65.7777 92.8726H64.4629V94.19H65.7777V92.8726Z" fill="#95D2E7"/>
<path d="M64.4633 92.8726H63.1484V94.19H64.4633V92.8726Z" fill="#95D2E7"/>
<path d="M63.1488 92.8726H61.834V94.19H63.1488V92.8726Z" fill="#95D2E7"/>
<path d="M61.8344 92.8726H60.5195V94.19H61.8344V92.8726Z" fill="#AED6F6"/>
<path d="M85.5004 91.5552H84.1855V92.8727H85.5004V91.5552Z" fill="#95D2E7"/>
<path d="M84.1859 91.5552H82.8711V92.8727H84.1859V91.5552Z" fill="#95D2E7"/>
<path d="M82.8715 91.5552H81.5566V92.8727H82.8715V91.5552Z" fill="#95D2E7"/>
<path d="M81.557 91.5552H80.2422V92.8727H81.557V91.5552Z" fill="#95D2E7"/>
<path d="M80.2406 91.5552H78.9258V92.8727H80.2406V91.5552Z" fill="#95D2E7"/>
<path d="M78.9262 91.5552H77.6113V92.8727H78.9262V91.5552Z" fill="#95D2E7"/>
<path d="M77.6117 91.5552H76.2969V92.8727H77.6117V91.5552Z" fill="#66CCE0"/>
<path d="M76.2973 91.5552H74.9824V92.8727H76.2973V91.5552Z" fill="#43C8DB"/>
<path d="M74.9828 91.5552H73.668V92.8727H74.9828V91.5552Z" fill="#43C8DB"/>
<path d="M73.6664 91.5552H72.3516V92.8727H73.6664V91.5552Z" fill="#43C8DB"/>
<path d="M72.352 91.5552H71.0371V92.8727H72.352V91.5552Z" fill="#43C8DB"/>
<path d="M71.0375 91.5552H69.7227V92.8727H71.0375V91.5552Z" fill="#43C8DB"/>
<path d="M69.723 91.5552H68.4082V92.8727H69.723V91.5552Z" fill="#43C8DB"/>
<path d="M68.4086 91.5552H67.0938V92.8727H68.4086V91.5552Z" fill="#4AC8DC"/>
<path d="M67.0922 91.5552H65.7773V92.8727H67.0922V91.5552Z" fill="#95D2E7"/>
<path d="M65.7777 91.5552H64.4629V92.8727H65.7777V91.5552Z" fill="#A4D6E9"/>
<path d="M64.4633 91.5552H63.1484V92.8727H64.4633V91.5552Z" fill="#F5EEFA"/>
<path d="M63.1488 91.5552H61.834V92.8727H63.1488V91.5552Z" fill="#F5EEFA"/>
<path d="M61.8344 91.5552H60.5195V92.8727H61.8344V91.5552Z" fill="#95D2E7"/>
<path d="M60.518 91.5552H59.2031V92.8727H60.518V91.5552Z" fill="#AED6F6"/>
<path d="M88.1312 90.2378H86.8164V91.5553H88.1312V90.2378Z" fill="#AAD7EA"/>
<path d="M86.8148 90.2378H85.5V91.5553H86.8148V90.2378Z" fill="#95D2E7"/>
<path d="M85.5004 90.2378H84.1855V91.5553H85.5004V90.2378Z" fill="#94D1E6"/>
<path d="M84.1859 90.2378H82.8711V91.5553H84.1859V90.2378Z" fill="#43C8DB"/>
<path d="M82.8715 90.2378H81.5566V91.5553H82.8715V90.2378Z" fill="#43C8DB"/>
<path d="M81.557 90.2378H80.2422V91.5553H81.557V90.2378Z" fill="#43C8DB"/>
<path d="M80.2406 90.2378H78.9258V91.5553H80.2406V90.2378Z" fill="#43C8DB"/>
<path d="M78.9262 90.2378H77.6113V91.5553H78.9262V90.2378Z" fill="#43C8DB"/>
<path d="M77.6117 90.2378H76.2969V91.5553H77.6117V90.2378Z" fill="#43C8DB"/>
<path d="M76.2973 90.2378H74.9824V91.5553H76.2973V90.2378Z" fill="#43C8DB"/>
<path d="M74.9828 90.2378H73.668V91.5553H74.9828V90.2378Z" fill="#43C8DB"/>
<path d="M73.6664 90.2378H72.3516V91.5553H73.6664V90.2378Z" fill="#43C8DB"/>
<path d="M72.352 90.2378H71.0371V91.5553H72.352V90.2378Z" fill="#43C8DB"/>
<path d="M71.0375 90.2378H69.7227V91.5553H71.0375V90.2378Z" fill="#43C8DB"/>
<path d="M69.723 90.2378H68.4082V91.5553H69.723V90.2378Z" fill="#43C8DB"/>
<path d="M68.4086 90.2378H67.0938V91.5553H68.4086V90.2378Z" fill="#43C8DB"/>
<path d="M67.0922 90.2378H65.7773V91.5553H67.0922V90.2378Z" fill="#43C8DB"/>
<path d="M65.7777 90.2378H64.4629V91.5553H65.7777V90.2378Z" fill="#43C8DB"/>
<path d="M64.4633 90.2378H63.1484V91.5553H64.4633V90.2378Z" fill="#47C9DB"/>
<path d="M63.1488 90.2378H61.834V91.5553H63.1488V90.2378Z" fill="#F5EEFA"/>
<path d="M61.8344 90.2378H60.5195V91.5553H61.8344V90.2378Z" fill="#F5EEFA"/>
<path d="M60.518 90.2378H59.2031V91.5553H60.518V90.2378Z" fill="#AED6F6"/>
<path d="M59.2035 90.2378H57.8887V91.5553H59.2035V90.2378Z" fill="#AED6F6"/>
<path d="M57.8891 90.2378H56.5742V91.5553H57.8891V90.2378Z" fill="#AED6F6"/>
<path d="M89.4457 88.9209H88.1309V90.2384H89.4457V88.9209Z" fill="#9FD4E8"/>
<path d="M88.1312 88.9209H86.8164V90.2384H88.1312V88.9209Z" fill="#43C8DB"/>
<path d="M86.8148 88.9209H85.5V90.2384H86.8148V88.9209Z" fill="#43C8DB"/>
<path d="M85.5004 88.9209H84.1855V90.2384H85.5004V88.9209Z" fill="#43C8DB"/>
<path d="M84.1859 88.9209H82.8711V90.2384H84.1859V88.9209Z" fill="#43C8DB"/>
<path d="M82.8715 88.9209H81.5566V90.2384H82.8715V88.9209Z" fill="#43C8DB"/>
<path d="M81.557 88.9209H80.2422V90.2384H81.557V88.9209Z" fill="#43C8DB"/>
<path d="M80.2406 88.9209H78.9258V90.2384H80.2406V88.9209Z" fill="#43C8DB"/>
<path d="M78.9262 88.9209H77.6113V90.2384H78.9262V88.9209Z" fill="#43C8DB"/>
<path d="M77.6117 88.9209H76.2969V90.2384H77.6117V88.9209Z" fill="#43C8DB"/>
<path d="M76.2973 88.9209H74.9824V90.2384H76.2973V88.9209Z" fill="#43C8DB"/>
<path d="M74.9828 88.9209H73.668V90.2384H74.9828V88.9209Z" fill="#43C8DB"/>
<path d="M73.6664 88.9209H72.3516V90.2384H73.6664V88.9209Z" fill="#43C8DB"/>
<path d="M72.352 88.9209H71.0371V90.2384H72.352V88.9209Z" fill="#43C8DB"/>
<path d="M71.0375 88.9209H69.7227V90.2384H71.0375V88.9209Z" fill="#43C8DB"/>
<path d="M69.723 88.9209H68.4082V90.2384H69.723V88.9209Z" fill="#43C8DB"/>
<path d="M68.4086 88.9209H67.0938V90.2384H68.4086V88.9209Z" fill="#43C8DB"/>
<path d="M67.0922 88.9209H65.7773V90.2384H67.0922V88.9209Z" fill="#43C8DB"/>
<path d="M65.7777 88.9209H64.4629V90.2384H65.7777V88.9209Z" fill="#43C8DB"/>
<path d="M64.4633 88.9209H63.1484V90.2384H64.4633V88.9209Z" fill="#43C8DB"/>
<path d="M63.1488 88.9209H61.834V90.2384H63.1488V88.9209Z" fill="#43C8DB"/>
<path d="M61.8344 88.9209H60.5195V90.2384H61.8344V88.9209Z" fill="#55C9DD"/>
<path d="M60.518 88.9209H59.2031V90.2384H60.518V88.9209Z" fill="#F5EEFA"/>
<path d="M59.2035 88.9209H57.8887V90.2384H59.2035V88.9209Z" fill="#ABD5F6"/>
<path d="M57.8891 88.9209H56.5742V90.2384H57.8891V88.9209Z" fill="#75D0F8"/>
<path d="M56.5746 88.9209H55.2598V90.2384H56.5746V88.9209Z" fill="#75D0F8"/>
<path d="M89.4457 87.603H88.1309V88.9205H89.4457V87.603Z" fill="#43C8DB"/>
<path d="M88.1312 87.603H86.8164V88.9205H88.1312V87.603Z" fill="#43C8DB"/>
<path d="M86.8148 87.603H85.5V88.9205H86.8148V87.603Z" fill="#43C8DB"/>
<path d="M85.5004 87.603H84.1855V88.9205H85.5004V87.603Z" fill="#43C8DB"/>
<path d="M84.1859 87.603H82.8711V88.9205H84.1859V87.603Z" fill="#43C8DB"/>
<path d="M82.8715 87.603H81.5566V88.9205H82.8715V87.603Z" fill="#43C8DB"/>
<path d="M81.557 87.603H80.2422V88.9205H81.557V87.603Z" fill="#43C8DB"/>
<path d="M80.2406 87.603H78.9258V88.9205H80.2406V87.603Z" fill="#43C8DB"/>
<path d="M78.9262 87.603H77.6113V88.9205H78.9262V87.603Z" fill="#43C8DB"/>
<path d="M77.6117 87.603H76.2969V88.9205H77.6117V87.603Z" fill="#44BED7"/>
<path d="M76.2973 87.603H74.9824V88.9205H76.2973V87.603Z" fill="#6EDBE1"/>
<path d="M74.9828 87.603H73.668V88.9205H74.9828V87.603Z" fill="#6EDBE1"/>
<path d="M73.6664 87.603H72.3516V88.9205H73.6664V87.603Z" fill="#6EDBE1"/>
<path d="M72.352 87.603H71.0371V88.9205H72.352V87.603Z" fill="#6EDBE1"/>
<path d="M71.0375 87.603H69.7227V88.9205H71.0375V87.603Z" fill="#6EDBE1"/>
<path d="M69.723 87.603H68.4082V88.9205H69.723V87.603Z" fill="#6EDBE1"/>
<path d="M68.4086 87.603H67.0938V88.9205H68.4086V87.603Z" fill="#43C3D8"/>
<path d="M67.0922 87.603H65.7773V88.9205H67.0922V87.603Z" fill="#43C8DB"/>
<path d="M65.7777 87.603H64.4629V88.9205H65.7777V87.603Z" fill="#43C8DB"/>
<path d="M64.4633 87.603H63.1484V88.9205H64.4633V87.603Z" fill="#43C8DB"/>
<path d="M63.1488 87.603H61.834V88.9205H63.1488V87.603Z" fill="#43C8DB"/>
<path d="M61.8344 87.603H60.5195V88.9205H61.8344V87.603Z" fill="#43C8DB"/>
<path d="M60.518 87.603H59.2031V88.9205H60.518V87.603Z" fill="#54CAE5"/>
<path d="M59.2035 87.603H57.8887V88.9205H59.2035V87.603Z" fill="#75D0F8"/>
<path d="M57.8891 87.603H56.5742V88.9205H57.8891V87.603Z" fill="#A9E1FA"/>
<path d="M56.5746 87.603H55.2598V88.9205H56.5746V87.603Z" fill="#75D0F8"/>
<path d="M55.2602 87.603H53.9453V88.9205H55.2602V87.603Z" fill="#76CEF5"/>
<path d="M90.7602 86.2856H89.4453V87.6031H90.7602V86.2856Z" fill="#43C8DB"/>
<path d="M89.4457 86.2856H88.1309V87.6031H89.4457V86.2856Z" fill="#43C8DB"/>
<path d="M88.1312 86.2856H86.8164V87.6031H88.1312V86.2856Z" fill="#43C8DB"/>
<path d="M86.8148 86.2856H85.5V87.6031H86.8148V86.2856Z" fill="#43C8DB"/>
<path d="M85.5004 86.2856H84.1855V87.6031H85.5004V86.2856Z" fill="#43C8DB"/>
<path d="M84.1859 86.2856H82.8711V87.6031H84.1859V86.2856Z" fill="#43C8DB"/>
<path d="M82.8715 86.2856H81.5566V87.6031H82.8715V86.2856Z" fill="#43C8DB"/>
<path d="M81.557 86.2856H80.2422V87.6031H81.557V86.2856Z" fill="#6EDBE1"/>
<path d="M80.2406 86.2856H78.9258V87.6031H80.2406V86.2856Z" fill="#6EDBE1"/>
<path d="M78.9262 86.2856H77.6113V87.6031H78.9262V86.2856Z" fill="#6EDBE1"/>
<path d="M77.6117 86.2856H76.2969V87.6031H77.6117V86.2856Z" fill="#6EDBE1"/>
<path d="M76.2973 86.2856H74.9824V87.6031H76.2973V86.2856Z" fill="#6EDBE1"/>
<path d="M74.9828 86.2856H73.668V87.6031H74.9828V86.2856Z" fill="#6EDBE1"/>
<path d="M73.6664 86.2856H72.3516V87.6031H73.6664V86.2856Z" fill="#6EDBE1"/>
<path d="M72.352 86.2856H71.0371V87.6031H72.352V86.2856Z" fill="#6EDBE1"/>
<path d="M71.0375 86.2856H69.7227V87.6031H71.0375V86.2856Z" fill="#6EDBE1"/>
<path d="M69.723 86.2856H68.4082V87.6031H69.723V86.2856Z" fill="#6EDBE1"/>
<path d="M68.4086 86.2856H67.0938V87.6031H68.4086V86.2856Z" fill="#6EDBE1"/>
<path d="M67.0922 86.2856H65.7773V87.6031H67.0922V86.2856Z" fill="#6EDBE1"/>
<path d="M65.7777 86.2856H64.4629V87.6031H65.7777V86.2856Z" fill="#6EDBE1"/>
<path d="M64.4633 86.2856H63.1484V87.6031H64.4633V86.2856Z" fill="#43C8DB"/>
<path d="M63.1488 86.2856H61.834V87.6031H63.1488V86.2856Z" fill="#43C8DB"/>
<path d="M61.8344 86.2856H60.5195V87.6031H61.8344V86.2856Z" fill="#43C8DB"/>
<path d="M60.518 86.2856H59.2031V87.6031H60.518V86.2856Z" fill="#43C8DB"/>
<path d="M59.2035 86.2856H57.8887V87.6031H59.2035V86.2856Z" fill="#85D5F8"/>
<path d="M57.8891 86.2856H56.5742V87.6031H57.8891V86.2856Z" fill="white"/>
<path d="M56.5746 86.2856H55.2598V87.6031H56.5746V86.2856Z" fill="#B0E4FA"/>
<path d="M55.2602 86.2856H53.9453V87.6031H55.2602V86.2856Z" fill="#75D0F8"/>
<path d="M92.0746 84.9683H90.7598V86.2857H92.0746V84.9683Z" fill="#56C8DD"/>
<path d="M90.7602 84.9683H89.4453V86.2857H90.7602V84.9683Z" fill="#44C6DB"/>
<path d="M89.4457 84.9683H88.1309V86.2857H89.4457V84.9683Z" fill="#43C7DB"/>
<path d="M88.1312 84.9683H86.8164V86.2857H88.1312V84.9683Z" fill="#43C8DB"/>
<path d="M87 84H85V87H87V84Z" fill="#43C8DB"/>
<path d="M85.5004 84.9683H84.1855V86.2857H85.5004V84.9683Z" fill="#43C8DB"/>
<path d="M84.1859 84.9683H82.8711V86.2857H84.1859V84.9683Z" fill="#44BFD7"/>
<path d="M82.8715 84.9683H81.5566V86.2857H82.8715V84.9683Z" fill="#1AD7EA"/>
<path d="M81.557 84.9683H80.2422V86.2857H81.557V84.9683Z" fill="#6EDBE1"/>
<path d="M80.2406 84.9683H78.9258V86.2857H80.2406V84.9683Z" fill="#6EDBE1"/>
<path d="M78.9262 84.9683H77.6113V86.2857H78.9262V84.9683Z" fill="#6EDBE1"/>
<path d="M77.6117 84.9683H76.2969V86.2857H77.6117V84.9683Z" fill="#6EDBE1"/>
<path d="M76.2973 84.9683H74.9824V86.2857H76.2973V84.9683Z" fill="#6EDBE1"/>
<path d="M74.9828 84.9683H73.668V86.2857H74.9828V84.9683Z" fill="#43C7DA"/>
<path d="M73.6664 84.9683H72.3516V86.2857H73.6664V84.9683Z" fill="#43C8DB"/>
<path d="M72.352 84.9683H71.0371V86.2857H72.352V84.9683Z" fill="#43C8DB"/>
<path d="M71.0375 84.9683H69.7227V86.2857H71.0375V84.9683Z" fill="#43C8DB"/>
<path d="M69.723 84.9683H68.4082V86.2857H69.723V84.9683Z" fill="#1AD7EA"/>
<path d="M68.4086 84.9683H67.0938V86.2857H68.4086V84.9683Z" fill="#6EDBE1"/>
<path d="M67.0922 84.9683H65.7773V86.2857H67.0922V84.9683Z" fill="#6EDBE1"/>
<path d="M65.7777 84.9683H64.4629V86.2857H65.7777V84.9683Z" fill="#6EDBE1"/>
<path d="M64.4633 84.9683H63.1484V86.2857H64.4633V84.9683Z" fill="#6EDBE1"/>
<path d="M63.1488 84.9683H61.834V86.2857H63.1488V84.9683Z" fill="#43C7DA"/>
<path d="M61.8344 84.9683H60.5195V86.2857H61.8344V84.9683Z" fill="#43C8DB"/>
<path d="M60.518 84.9683H59.2031V86.2857H60.518V84.9683Z" fill="#43C8DB"/>
<path d="M59.2035 84.9683H57.8887V86.2857H59.2035V84.9683Z" fill="#75D0F8"/>
<path d="M57.8891 84.9683H56.5742V86.2857H57.8891V84.9683Z" fill="white"/>
<path d="M56.5746 84.9683H55.2598V86.2857H56.5746V84.9683Z" fill="white"/>
<path d="M55.2602 84.9683H53.9453V86.2857H55.2602V84.9683Z" fill="#86C8F9"/>
<path d="M53.9437 84.9683H52.6289V86.2857H53.9437V84.9683Z" fill="#86C8F9"/>
<path d="M92.0746 83.6509H90.7598V84.9684H92.0746V83.6509Z" fill="#97D0E7"/>
<path d="M90.7602 83.6509H89.4453V84.9684H90.7602V83.6509Z" fill="#48C4DB"/>
<path d="M89.4457 83.6509H88.1309V84.9684H89.4457V83.6509Z" fill="#48C4DB"/>
<path d="M88.1312 83.6509H86.8164V84.9684H88.1312V83.6509Z" fill="#48C4DB"/>
<path d="M86.8148 83.6509H85.5V84.9684H86.8148V83.6509Z" fill="#48C4DB"/>
<path d="M85.5004 83.6509H84.1855V84.9684H85.5004V83.6509Z" fill="#47BDD6"/>
<path d="M84.1859 83.6509H82.8711V84.9684H84.1859V83.6509Z" fill="#47BDD6"/>
<path d="M82.8715 83.6509H81.5566V84.9684H82.8715V83.6509Z" fill="#6EDBE1"/>
<path d="M81.557 83.6509H80.2422V84.9684H81.557V83.6509Z" fill="#6EDBE1"/>
<path d="M80.2406 83.6509H78.9258V84.9684H80.2406V83.6509Z" fill="#44BFD7"/>
<path d="M78.9262 83.6509H77.6113V84.9684H78.9262V83.6509Z" fill="#43C8DB"/>
<path d="M77.6117 83.6509H76.2969V84.9684H77.6117V83.6509Z" fill="#43C8DB"/>
<path d="M76.2973 83.6509H74.9824V84.9684H76.2973V83.6509Z" fill="#43C8DB"/>
<path d="M74.9828 83.6509H73.668V84.9684H74.9828V83.6509Z" fill="#43C8DB"/>
<path d="M73.6664 83.6509H72.3516V84.9684H73.6664V83.6509Z" fill="#43C8DB"/>
<path d="M72.352 83.6509H71.0371V84.9684H72.352V83.6509Z" fill="#43C8DB"/>
<path d="M71.0375 83.6509H69.7227V84.9684H71.0375V83.6509Z" fill="#43C8DB"/>
<path d="M69.723 83.6509H68.4082V84.9684H69.723V83.6509Z" fill="#43C8DB"/>
<path d="M68.4086 83.6509H67.0938V84.9684H68.4086V83.6509Z" fill="#43C8DB"/>
<path d="M67.0922 83.6509H65.7773V84.9684H67.0922V83.6509Z" fill="#6EDBE1"/>
<path d="M65.7777 83.6509H64.4629V84.9684H65.7777V83.6509Z" fill="#6EDBE1"/>
<path d="M64.4633 83.6509H63.1484V84.9684H64.4633V83.6509Z" fill="#6EDBE1"/>
<path d="M63.1488 83.6509H61.834V84.9684H63.1488V83.6509Z" fill="#6EDBE1"/>
<path d="M61.8344 83.6509H60.5195V84.9684H61.8344V83.6509Z" fill="#46C2D9"/>
<path d="M60.518 83.6509H59.2031V84.9684H60.518V83.6509Z" fill="#46C7DC"/>
<path d="M59.2035 83.6509H57.8887V84.9684H59.2035V83.6509Z" fill="#86C8F9"/>
<path d="M57.8891 83.6509H56.5742V84.9684H57.8891V83.6509Z" fill="white"/>
<path d="M56.5746 83.6509H55.2598V84.9684H56.5746V83.6509Z" fill="white"/>
<path d="M55.2602 83.6509H53.9453V84.9684H55.2602V83.6509Z" fill="white"/>
<path d="M53.9437 83.6509H52.6289V84.9684H53.9437V83.6509Z" fill="#86C8F9"/>
<path d="M93.3891 82.334H92.0742V83.6515H93.3891V82.334Z" fill="#97D0E7"/>
<path d="M92.0746 82.334H90.7598V83.6515H92.0746V82.334Z" fill="#97D0E7"/>
<path d="M90.7602 82.334H89.4453V83.6515H90.7602V82.334Z" fill="#48C4DB"/>
<path d="M89.4457 82.334H88.1309V83.6515H89.4457V82.334Z" fill="#48C4DB"/>
<path d="M88.1312 82.334H86.8164V83.6515H88.1312V82.334Z" fill="#48C4DB"/>
<path d="M86.8148 82.334H85.5V83.6515H86.8148V82.334Z" fill="#47BDD6"/>
<path d="M85.5004 82.334H84.1855V83.6515H85.5004V82.334Z" fill="#47BDD6"/>
<path d="M84.1859 82.334H82.8711V83.6515H84.1859V82.334Z" fill="#47BDD6"/>
<path d="M82.8715 82.334H81.5566V83.6515H82.8715V82.334Z" fill="#43C8DB"/>
<path d="M81.557 82.334H80.2422V83.6515H81.557V82.334Z" fill="#43C8DB"/>
<path d="M80.2406 82.334H78.9258V83.6515H80.2406V82.334Z" fill="#43C8DB"/>
<path d="M78.9262 82.334H77.6113V83.6515H78.9262V82.334Z" fill="#43C8DB"/>
<path d="M77.6117 82.334H76.2969V83.6515H77.6117V82.334Z" fill="#43C8DB"/>
<path d="M76.2973 82.334H74.9824V83.6515H76.2973V82.334Z" fill="#43C8DB"/>
<path d="M74.9828 82.334H73.668V83.6515H74.9828V82.334Z" fill="#7EE8EE"/>
<path d="M73.6664 82.334H72.3516V83.6515H73.6664V82.334Z" fill="#7EE8EE"/>
<path d="M72.352 82.334H71.0371V83.6515H72.352V82.334Z" fill="#7EE8EE"/>
<path d="M71.0375 82.334H69.7227V83.6515H71.0375V82.334Z" fill="#43C3D9"/>
<path d="M69.723 82.334H68.4082V83.6515H69.723V82.334Z" fill="#46C7DC"/>
<path d="M68.4086 82.334H67.0938V83.6515H68.4086V82.334Z" fill="#46C7DC"/>
<path d="M67.0922 82.334H65.7773V83.6515H67.0922V82.334Z" fill="#46C7DC"/>
<path d="M65.7777 82.334H64.4629V83.6515H65.7777V82.334Z" fill="#46BED7"/>
<path d="M64.4633 82.334H63.1484V83.6515H64.4633V82.334Z" fill="#46BED7"/>
<path d="M63.1488 82.334H61.834V83.6515H63.1488V82.334Z" fill="#46BED7"/>
<path d="M61.8344 82.334H60.5195V83.6515H61.8344V82.334Z" fill="#46BED7"/>
<path d="M60.518 82.334H59.2031V83.6515H60.518V82.334Z" fill="#46C7DC"/>
<path d="M59.2035 82.334H57.8887V83.6515H59.2035V82.334Z" fill="#86C8F9"/>
<path d="M57.8891 82.334H56.5742V83.6515H57.8891V82.334Z" fill="#EAF5FD"/>
<path d="M56.5746 82.334H55.2598V83.6515H56.5746V82.334Z" fill="white"/>
<path d="M55.2602 82.334H53.9453V83.6515H55.2602V82.334Z" fill="white"/>
<path d="M53.9437 82.334H52.6289V83.6515H53.9437V82.334Z" fill="#8ACAF9"/>
<path d="M52.6293 82.334H51.3145V83.6515H52.6293V82.334Z" fill="#6DC8F4"/>
<path d="M93.3891 81.0166H92.0742V82.3341H93.3891V81.0166Z" fill="#97D0E7"/>
<path d="M92.0746 81.0166H90.7598V82.3341H92.0746V81.0166Z" fill="#48C4DB"/>
<path d="M90.7602 81.0166H89.4453V82.3341H90.7602V81.0166Z" fill="#48C4DB"/>
<path d="M89.4457 81.0166H88.1309V82.3341H89.4457V81.0166Z" fill="#48C4DB"/>
<path d="M88.1312 81.0166H86.8164V82.3341H88.1312V81.0166Z" fill="#47BDD6"/>
<path d="M86.8148 81.0166H85.5V82.3341H86.8148V81.0166Z" fill="#45BAD4"/>
<path d="M85.5004 81.0166H84.1855V82.3341H85.5004V81.0166Z" fill="#47BED6"/>
<path d="M84.1859 81.0166H82.8711V82.3341H84.1859V81.0166Z" fill="#48C4DB"/>
<path d="M82.8715 81.0166H81.5566V82.3341H82.8715V81.0166Z" fill="#43C8DB"/>
<path d="M81.557 81.0166H80.2422V82.3341H81.557V81.0166Z" fill="#43C8DB"/>
<path d="M80.2406 81.0166H78.9258V82.3341H80.2406V81.0166Z" fill="#43C8DB"/>
<path d="M78.9262 81.0166H77.6113V82.3341H78.9262V81.0166Z" fill="#43C8DB"/>
<path d="M77.6117 81.0166H76.2969V82.3341H77.6117V81.0166Z" fill="#7EE8EE"/>
<path d="M76.2973 81.0166H74.9824V82.3341H76.2973V81.0166Z" fill="#7EE8EE"/>
<path d="M74.9828 81.0166H73.668V82.3341H74.9828V81.0166Z" fill="#7EE8EE"/>
<path d="M73.6664 81.0166H72.3516V82.3341H73.6664V81.0166Z" fill="#7EE8EE"/>
<path d="M72.352 81.0166H71.0371V82.3341H72.352V81.0166Z" fill="#7EE8EE"/>
<path d="M71.0375 81.0166H69.7227V82.3341H71.0375V81.0166Z" fill="#46BED7"/>
<path d="M69.723 81.0166H68.4082V82.3341H69.723V81.0166Z" fill="#46BED7"/>
<path d="M68.4086 81.0166H67.0938V82.3341H68.4086V81.0166Z" fill="#46C7DC"/>
<path d="M67.0922 81.0166H65.7773V82.3341H67.0922V81.0166Z" fill="#46C7DC"/>
<path d="M65.7777 81.0166H64.4629V82.3341H65.7777V81.0166Z" fill="#46C7DC"/>
<path d="M64.4633 81.0166H63.1484V82.3341H64.4633V81.0166Z" fill="#46BED7"/>
<path d="M63.1488 81.0166H61.834V82.3341H63.1488V81.0166Z" fill="#46BED7"/>
<path d="M61.8344 81.0166H60.5195V82.3341H61.8344V81.0166Z" fill="#46BED7"/>
<path d="M60.518 81.0166H59.2031V82.3341H60.518V81.0166Z" fill="#848CD9"/>
<path d="M59.2035 81.0166H57.8887V82.3341H59.2035V81.0166Z" fill="#86C8F9"/>
<path d="M57.8891 81.0166H56.5742V82.3341H57.8891V81.0166Z" fill="#86C8F9"/>
<path d="M56.5746 81.0166H55.2598V82.3341H56.5746V81.0166Z" fill="white"/>
<path d="M55.2602 81.0166H53.9453V82.3341H55.2602V81.0166Z" fill="white"/>
<path d="M53.9437 81.0166H52.6289V82.3341H53.9437V81.0166Z" fill="white"/>
<path d="M52.6293 81.0166H51.3145V82.3341H52.6293V81.0166Z" fill="#60C8F3"/>
<path d="M94.7055 79.6992H93.3906V81.0167H94.7055V79.6992Z" fill="#96CFE6"/>
<path d="M93.3891 79.6992H92.0742V81.0167H93.3891V79.6992Z" fill="#46C2D9"/>
<path d="M92.0746 79.6992H90.7598V81.0167H92.0746V79.6992Z" fill="#48C4DB"/>
<path d="M90.7602 79.6992H89.4453V81.0167H90.7602V79.6992Z" fill="#48C4DB"/>
<path d="M89.4457 79.6992H88.1309V81.0167H89.4457V79.6992Z" fill="#44C2D9"/>
<path d="M88.1312 79.6992H86.8164V81.0167H88.1312V79.6992Z" fill="#41B3D1"/>
<path d="M86.8148 79.6992H85.5V81.0167H86.8148V79.6992Z" fill="#47BDD6"/>
<path d="M85.5004 79.6992H84.1855V81.0167H85.5004V79.6992Z" fill="#48C4DB"/>
<path d="M84.1859 79.6992H82.8711V81.0167H84.1859V79.6992Z" fill="#46C5DB"/>
<path d="M82.8715 79.6992H81.5566V81.0167H82.8715V79.6992Z" fill="#43C8DB"/>
<path d="M81.557 79.6992H80.2422V81.0167H81.557V79.6992Z" fill="#43C8DB"/>
<path d="M80.2406 79.6992H78.9258V81.0167H80.2406V79.6992Z" fill="#44BFD7"/>
<path d="M78.9262 79.6992H77.6113V81.0167H78.9262V79.6992Z" fill="#7EE8EE"/>
<path d="M77.6117 79.6992H76.2969V81.0167H77.6117V79.6992Z" fill="#7EE8EE"/>
<path d="M76.2973 79.6992H74.9824V81.0167H76.2973V79.6992Z" fill="#7EE8EE"/>
<path d="M74.9828 79.6992H73.668V81.0167H74.9828V79.6992Z" fill="#7EE8EE"/>
<path d="M73.6664 79.6992H72.3516V81.0167H73.6664V79.6992Z" fill="#44C1D8"/>
<path d="M72.352 79.6992H71.0371V81.0167H72.352V79.6992Z" fill="#46BED7"/>
<path d="M71.0375 79.6992H69.7227V81.0167H71.0375V79.6992Z" fill="#46BED7"/>
<path d="M69.723 79.6992H68.4082V81.0167H69.723V79.6992Z" fill="#46BED7"/>
<path d="M68.4086 79.6992H67.0938V81.0167H68.4086V79.6992Z" fill="#46BED7"/>
<path d="M67.0922 79.6992H65.7773V81.0167H67.0922V79.6992Z" fill="#46C7DC"/>
<path d="M65.7777 79.6992H64.4629V81.0167H65.7777V79.6992Z" fill="#46C7DC"/>
<path d="M64.4633 79.6992H63.1484V81.0167H64.4633V79.6992Z" fill="#46C7DC"/>
<path d="M63.1488 79.6992H61.834V81.0167H63.1488V79.6992Z" fill="#46BED7"/>
<path d="M61.8344 79.6992H60.5195V81.0167H61.8344V79.6992Z" fill="#46BED7"/>
<path d="M60.518 79.6992H59.2031V81.0167H60.518V79.6992Z" fill="#858CDA"/>
<path d="M59.2035 79.6992H57.8887V81.0167H59.2035V79.6992Z" fill="#85A0E4"/>
<path d="M57.8891 79.6992H56.5742V81.0167H57.8891V79.6992Z" fill="#86C8F9"/>
<path d="M56.5746 79.6992H55.2598V81.0167H56.5746V79.6992Z" fill="white"/>
<path d="M55.2602 79.6992H53.9453V81.0167H55.2602V79.6992Z" fill="white"/>
<path d="M53.9437 79.6992H52.6289V81.0167H53.9437V79.6992Z" fill="white"/>
<path d="M52.6293 79.6992H51.3145V81.0167H52.6293V79.6992Z" fill="#60C8F3"/>
<path d="M51.3148 79.6992H50V81.0167H51.3148V79.6992Z" fill="#60C8F3"/>
<path d="M94.7055 78.3813H93.3906V79.6988H94.7055V78.3813Z" fill="#82CBE2"/>
<path d="M93.3891 78.3813H92.0742V79.6988H93.3891V78.3813Z" fill="#44C2D9"/>
<path d="M92.0746 78.3813H90.7598V79.6988H92.0746V78.3813Z" fill="#44C2D9"/>
<path d="M90.7602 78.3813H89.4453V79.6988H90.7602V78.3813Z" fill="#44C2D9"/>
<path d="M89.4457 78.3813H88.1309V79.6988H89.4457V78.3813Z" fill="#42BCD6"/>
<path d="M88.1312 78.3813H86.8164V79.6988H88.1312V78.3813Z" fill="#41B3D1"/>
<path d="M86.8148 78.3813H85.5V79.6988H86.8148V78.3813Z" fill="#47BDD6"/>
<path d="M85.5004 78.3813H84.1855V79.6988H85.5004V78.3813Z" fill="#48C4DB"/>
<path d="M84.1859 78.3813H82.8711V79.6988H84.1859V78.3813Z" fill="#44C6DB"/>
<path d="M82.8715 78.3813H81.5566V79.6988H82.8715V78.3813Z" fill="#43C8DB"/>
<path d="M81.557 78.3813H80.2422V79.6988H81.557V78.3813Z" fill="#7EE8EE"/>
<path d="M80.2406 78.3813H78.9258V79.6988H80.2406V78.3813Z" fill="#7EE8EE"/>
<path d="M78.9262 78.3813H77.6113V79.6988H78.9262V78.3813Z" fill="#7EE8EE"/>
<path d="M77.6117 78.3813H76.2969V79.6988H77.6117V78.3813Z" fill="#7EE8EE"/>
<path d="M76.2973 78.3813H74.9824V79.6988H76.2973V78.3813Z" fill="#44C1D7"/>
<path d="M74.9828 78.3813H73.668V79.6988H74.9828V78.3813Z" fill="#43C8DB"/>
<path d="M73.6664 78.3813H72.3516V79.6988H73.6664V78.3813Z" fill="#44C7DB"/>
<path d="M72.352 78.3813H71.0371V79.6988H72.352V78.3813Z" fill="#46C7DC"/>
<path d="M71.0375 78.3813H69.7227V79.6988H71.0375V78.3813Z" fill="#46BED7"/>
<path d="M69.723 78.3813H68.4082V79.6988H69.723V78.3813Z" fill="#46BED7"/>
<path d="M68.4086 78.3813H67.0938V79.6988H68.4086V78.3813Z" fill="#46BED7"/>
<path d="M67.0922 78.3813H65.7773V79.6988H67.0922V78.3813Z" fill="#46BED7"/>
<path d="M65.7777 78.3813H64.4629V79.6988H65.7777V78.3813Z" fill="#46C7DC"/>
<path d="M64.4633 78.3813H63.1484V79.6988H64.4633V78.3813Z" fill="#46C7DC"/>
<path d="M63.1488 78.3813H61.834V79.6988H63.1488V78.3813Z" fill="#46C7DC"/>
<path d="M61.8344 78.3813H60.5195V79.6988H61.8344V78.3813Z" fill="#46BED7"/>
<path d="M60.518 78.3813H59.2031V79.6988H60.518V78.3813Z" fill="#858CDA"/>
<path d="M59.2035 78.3813H57.8887V79.6988H59.2035V78.3813Z" fill="#858CDA"/>
<path d="M57.8891 78.3813H56.5742V79.6988H57.8891V78.3813Z" fill="#86C8F9"/>
<path d="M56.5746 78.3813H55.2598V79.6988H56.5746V78.3813Z" fill="white"/>
<path d="M55.2602 78.3813H53.9453V79.6988H55.2602V78.3813Z" fill="white"/>
<path d="M53.9437 78.3813H52.6289V79.6988H53.9437V78.3813Z" fill="white"/>
<path d="M52.6293 78.3813H51.3145V79.6988H52.6293V78.3813Z" fill="#63C9F3"/>
<path d="M51.3148 78.3813H50V79.6988H51.3148V78.3813Z" fill="#60C8F3"/>
<path d="M94.7055 77.0649H93.3906V78.3824H94.7055V77.0649Z" fill="#44C2D9"/>
<path d="M93.3891 77.0649H92.0742V78.3824H93.3891V77.0649Z" fill="#44C2D9"/>
<path d="M92.0746 77.0649H90.7598V78.3824H92.0746V77.0649Z" fill="#44C2D9"/>
<path d="M90.7602 77.0649H89.4453V78.3824H90.7602V77.0649Z" fill="#44C2D9"/>
<path d="M89.4457 77.0649H88.1309V78.3824H89.4457V77.0649Z" fill="#41B3D1"/>
<path d="M88.1312 77.0649H86.8164V78.3824H88.1312V77.0649Z" fill="#41B3D1"/>
<path d="M86.8148 77.0649H85.5V78.3824H86.8148V77.0649Z" fill="#48C4DB"/>
<path d="M85.5004 77.0649H84.1855V78.3824H85.5004V77.0649Z" fill="#48C4DB"/>
<path d="M84.1859 77.0649H82.8711V78.3824H84.1859V77.0649Z" fill="#43C8DB"/>
<path d="M82.8715 77.0649H81.5566V78.3824H82.8715V77.0649Z" fill="#44BED7"/>
<path d="M81.557 77.0649H80.2422V78.3824H81.557V77.0649Z" fill="#7EE8EE"/>
<path d="M80.2406 77.0649H78.9258V78.3824H80.2406V77.0649Z" fill="#7EE8EE"/>
<path d="M78.9262 77.0649H77.6113V78.3824H78.9262V77.0649Z" fill="#7EE8EE"/>
<path d="M77.6117 77.0649H76.2969V78.3824H77.6117V77.0649Z" fill="#43C5D9"/>
<path d="M76.2973 77.0649H74.9824V78.3824H76.2973V77.0649Z" fill="#43C8DB"/>
<path d="M74.9828 77.0649H73.668V78.3824H74.9828V77.0649Z" fill="#43C8DB"/>
<path d="M73.6664 77.0649H72.3516V78.3824H73.6664V77.0649Z" fill="#46C7DC"/>
<path d="M72.352 77.0649H71.0371V78.3824H72.352V77.0649Z" fill="#46C7DC"/>
<path d="M71.0375 77.0649H69.7227V78.3824H71.0375V77.0649Z" fill="#46C7DC"/>
<path d="M69.723 77.0649H68.4082V78.3824H69.723V77.0649Z" fill="#46BED7"/>
<path d="M68.4086 77.0649H67.0938V78.3824H68.4086V77.0649Z" fill="#46BED7"/>
<path d="M67.0922 77.0649H65.7773V78.3824H67.0922V77.0649Z" fill="#46BED7"/>
<path d="M65.7777 77.0649H64.4629V78.3824H65.7777V77.0649Z" fill="#45BCD6"/>
<path d="M64.4633 77.0649H63.1484V78.3824H64.4633V77.0649Z" fill="#40C7DB"/>
<path d="M63.1488 77.0649H61.834V78.3824H63.1488V77.0649Z" fill="#46C7DC"/>
<path d="M61.8344 77.0649H60.5195V78.3824H61.8344V77.0649Z" fill="#86C8F9"/>
<path d="M60.518 77.0649H59.2031V78.3824H60.518V77.0649Z" fill="#858CDA"/>
<path d="M59.2035 77.0649H57.8887V78.3824H59.2035V77.0649Z" fill="#858CDA"/>
<path d="M57.8891 77.0649H56.5742V78.3824H57.8891V77.0649Z" fill="#86C8F9"/>
<path d="M56.5746 77.0649H55.2598V78.3824H56.5746V77.0649Z" fill="#EDF7FD"/>
<path d="M55.2602 77.0649H53.9453V78.3824H55.2602V77.0649Z" fill="white"/>
<path d="M53.9437 77.0649H52.6289V78.3824H53.9437V77.0649Z" fill="white"/>
<path d="M52.6293 77.0649H51.3145V78.3824H52.6293V77.0649Z" fill="white"/>
<path d="M51.3148 77.0649H50V78.3824H51.3148V77.0649Z" fill="#60C8F3"/>
<path d="M94.7055 75.7471H93.3906V77.0646H94.7055V75.7471Z" fill="#5FB2E0"/>
<path d="M93.3891 75.7471H92.0742V77.0646H93.3891V75.7471Z" fill="#44C2D9"/>
<path d="M92.0746 75.7471H90.7598V77.0646H92.0746V75.7471Z" fill="#44C2D9"/>
<path d="M90.7602 75.7471H89.4453V77.0646H90.7602V75.7471Z" fill="#44C2D9"/>
<path d="M89.4457 75.7471H88.1309V77.0646H89.4457V75.7471Z" fill="#18B7E4"/>
<path d="M88.1312 75.7471H86.8164V77.0646H88.1312V75.7471Z" fill="#41B3D1"/>
<path d="M86.8148 75.7471H85.5V77.0646H86.8148V75.7471Z" fill="#48C4DB"/>
<path d="M85.5004 75.7471H84.1855V77.0646H85.5004V75.7471Z" fill="#48C4DB"/>
<path d="M84.1859 75.7471H82.8711V77.0646H84.1859V75.7471Z" fill="#43C8DB"/>
<path d="M82.8715 75.7471H81.5566V77.0646H82.8715V75.7471Z" fill="#1AE7F6"/>
<path d="M81.557 75.7471H80.2422V77.0646H81.557V75.7471Z" fill="#7EE8EE"/>
<path d="M80.2406 75.7471H78.9258V77.0646H80.2406V75.7471Z" fill="#7EE8EE"/>
<path d="M78.9262 75.7471H77.6113V77.0646H78.9262V75.7471Z" fill="#43C8DB"/>
<path d="M77.6117 75.7471H76.2969V77.0646H77.6117V75.7471Z" fill="#43C8DB"/>
<path d="M76.2973 75.7471H74.9824V77.0646H76.2973V75.7471Z" fill="#43C8DB"/>
<path d="M74.9828 75.7471H73.668V77.0646H74.9828V75.7471Z" fill="#46C7DC"/>
<path d="M73.6664 75.7471H72.3516V77.0646H73.6664V75.7471Z" fill="#46BED7"/>
<path d="M72.352 75.7471H71.0371V77.0646H72.352V75.7471Z" fill="#46C7DC"/>
<path d="M71.0375 75.7471H69.7227V77.0646H71.0375V75.7471Z" fill="#46C7DC"/>
<path d="M69.723 75.7471H68.4082V77.0646H69.723V75.7471Z" fill="#40C7DB"/>
<path d="M68.4086 75.7471H67.0938V77.0646H68.4086V75.7471Z" fill="#40C6DA"/>
<path d="M67.0922 75.7471H65.7773V77.0646H67.0922V75.7471Z" fill="#40B5D1"/>
<path d="M65.7777 75.7471H64.4629V77.0646H65.7777V75.7471Z" fill="#40B5D1"/>
<path d="M64.4633 75.7471H63.1484V77.0646H64.4633V75.7471Z" fill="#40B5D1"/>
<path d="M63.1488 75.7471H61.834V77.0646H63.1488V75.7471Z" fill="#5EC7F2"/>
<path d="M61.8344 75.7471H60.5195V77.0646H61.8344V75.7471Z" fill="#60C8F3"/>
<path d="M60.518 75.7471H59.2031V77.0646H60.518V75.7471Z" fill="#5E8CD3"/>
<path d="M59.2035 75.7471H57.8887V77.0646H59.2035V75.7471Z" fill="#6BB2E9"/>
<path d="M57.8891 75.7471H56.5742V77.0646H57.8891V75.7471Z" fill="#20A5F3"/>
<path d="M56.5746 75.7471H55.2598V77.0646H56.5746V75.7471Z" fill="#60C8F3"/>
<path d="M55.2602 75.7471H53.9453V77.0646H55.2602V75.7471Z" fill="white"/>
<path d="M53.9437 75.7471H52.6289V77.0646H53.9437V75.7471Z" fill="white"/>
<path d="M52.6293 75.7471H51.3145V77.0646H52.6293V75.7471Z" fill="white"/>
<path d="M51.3148 75.7471H50V77.0646H51.3148V75.7471Z" fill="#60C8F3"/>
<path d="M94.7055 74.4297H93.3906V75.7472H94.7055V74.4297Z" fill="#77A6E8"/>
<path d="M93.3891 74.4297H92.0742V75.7472H93.3891V74.4297Z" fill="#44C2D9"/>
<path d="M92.0746 74.4297H90.7598V75.7472H92.0746V74.4297Z" fill="#44C2D9"/>
<path d="M90.7602 74.4297H89.4453V75.7472H90.7602V74.4297Z" fill="#44C2D9"/>
<path d="M89.4457 74.4297H88.1309V75.7472H89.4457V74.4297Z" fill="#18B7E4"/>
<path d="M88.1312 74.4297H86.8164V75.7472H88.1312V74.4297Z" fill="#18B7E4"/>
<path d="M86.8148 74.4297H85.5V75.7472H86.8148V74.4297Z" fill="#44C2D9"/>
<path d="M85.5004 74.4297H84.1855V75.7472H85.5004V74.4297Z" fill="#48C4DB"/>
<path d="M84.1859 74.4297H82.8711V75.7472H84.1859V74.4297Z" fill="#43C8DB"/>
<path d="M82.8715 74.4297H81.5566V75.7472H82.8715V74.4297Z" fill="#7EE8EE"/>
<path d="M81.557 74.4297H80.2422V75.7472H81.557V74.4297Z" fill="#7EE8EE"/>
<path d="M80.2406 74.4297H78.9258V75.7472H80.2406V74.4297Z" fill="#44BED7"/>
<path d="M78.9262 74.4297H77.6113V75.7472H78.9262V74.4297Z" fill="#43C8DB"/>
<path d="M77.6117 74.4297H76.2969V75.7472H77.6117V74.4297Z" fill="#43C8DB"/>
<path d="M76.2973 74.4297H74.9824V75.7472H76.2973V74.4297Z" fill="#46C7DC"/>
<path d="M74.9828 74.4297H73.668V75.7472H74.9828V74.4297Z" fill="#46C0D8"/>
<path d="M73.6664 74.4297H72.3516V75.7472H73.6664V74.4297Z" fill="#46BED7"/>
<path d="M72.352 74.4297H71.0371V75.7472H72.352V74.4297Z" fill="#46C7DC"/>
<path d="M71.0375 74.4297H69.7227V75.7472H71.0375V74.4297Z" fill="#40C7DB"/>
<path d="M69.723 74.4297H68.4082V75.7472H69.723V74.4297Z" fill="#40C7DB"/>
<path d="M68.4086 74.4297H67.0938V75.7472H68.4086V74.4297Z" fill="#40C7DB"/>
<path d="M67.0922 74.4297H65.7773V75.7472H67.0922V74.4297Z" fill="#40B6D1"/>
<path d="M65.7777 74.4297H64.4629V75.7472H65.7777V74.4297Z" fill="#40B5D1"/>
<path d="M64.4633 74.4297H63.1484V75.7472H64.4633V74.4297Z" fill="#20A5F3"/>
<path d="M63.1488 74.4297H61.834V75.7472H63.1488V74.4297Z" fill="#6BB2E9"/>
<path d="M61.8344 74.4297H60.5195V75.7472H61.8344V74.4297Z" fill="#60C8F3"/>
<path d="M60.518 74.4297H59.2031V75.7472H60.518V74.4297Z" fill="#20A5F3"/>
<path d="M59.2035 74.4297H57.8887V75.7472H59.2035V74.4297Z" fill="#6BB2E9"/>
<path d="M57.8891 74.4297H56.5742V75.7472H57.8891V74.4297Z" fill="#6BB2E9"/>
<path d="M56.5746 74.4297H55.2598V75.7472H56.5746V74.4297Z" fill="#60C8F3"/>
<path d="M55.2602 74.4297H53.9453V75.7472H55.2602V74.4297Z" fill="white"/>
<path d="M53.9437 74.4297H52.6289V75.7472H53.9437V74.4297Z" fill="white"/>
<path d="M52.6293 74.4297H51.3145V75.7472H52.6293V74.4297Z" fill="white"/>
<path d="M51.3148 74.4297H50V75.7472H51.3148V74.4297Z" fill="#60C8F3"/>
<path d="M94.7055 73.1123H93.3906V74.4298H94.7055V73.1123Z" fill="#77A6E8"/>
<path d="M93.3891 73.1123H92.0742V74.4298H93.3891V73.1123Z" fill="#44C2D9"/>
<path d="M92.0746 73.1123H90.7598V74.4298H92.0746V73.1123Z" fill="#44C2D9"/>
<path d="M90.7602 73.1123H89.4453V74.4298H90.7602V73.1123Z" fill="#44C2D9"/>
<path d="M89.4457 73.1123H88.1309V74.4298H89.4457V73.1123Z" fill="#41B2D0"/>
<path d="M88.1312 73.1123H86.8164V74.4298H88.1312V73.1123Z" fill="#18B7E4"/>
<path d="M86.8148 73.1123H85.5V74.4298H86.8148V73.1123Z" fill="#77A6E8"/>
<path d="M85.5004 73.1123H84.1855V74.4298H85.5004V73.1123Z" fill="#46C3DA"/>
<path d="M84.1859 73.1123H82.8711V74.4298H84.1859V73.1123Z" fill="#48C4DB"/>
<path d="M82.8715 73.1123H81.5566V74.4298H82.8715V73.1123Z" fill="#7EE8EE"/>
<path d="M81.557 73.1123H80.2422V74.4298H81.557V73.1123Z" fill="#7EE8EE"/>
<path d="M80.2406 73.1123H78.9258V74.4298H80.2406V73.1123Z" fill="#7EE8EE"/>
<path d="M78.9262 73.1123H77.6113V74.4298H78.9262V73.1123Z" fill="#43C8DB"/>
<path d="M77.6117 73.1123H76.2969V74.4298H77.6117V73.1123Z" fill="#43C8DB"/>
<path d="M76.2973 73.1123H74.9824V74.4298H76.2973V73.1123Z" fill="#46C7DC"/>
<path d="M74.9828 73.1123H73.668V74.4298H74.9828V73.1123Z" fill="#46BED7"/>
<path d="M73.6664 73.1123H72.3516V74.4298H73.6664V73.1123Z" fill="#46BED7"/>
<path d="M72.352 73.1123H71.0371V74.4298H72.352V73.1123Z" fill="#40C7DB"/>
<path d="M71.0375 73.1123H69.7227V74.4298H71.0375V73.1123Z" fill="#40C7DB"/>
<path d="M69.723 73.1123H68.4082V74.4298H69.723V73.1123Z" fill="#40C7DB"/>
<path d="M68.4086 73.1123H67.0938V74.4298H68.4086V73.1123Z" fill="#40C7DB"/>
<path d="M67.0922 73.1123H65.7773V74.4298H67.0922V73.1123Z" fill="#40C7DB"/>
<path d="M65.7777 73.1123H64.4629V74.4298H65.7777V73.1123Z" fill="#6BB2E9"/>
<path d="M64.4633 73.1123H63.1484V74.4298H64.4633V73.1123Z" fill="#6BB2E9"/>
<path d="M63.1488 73.1123H61.834V74.4298H63.1488V73.1123Z" fill="#6BB2E9"/>
<path d="M61.8344 73.1123H60.5195V74.4298H61.8344V73.1123Z" fill="#60C8F3"/>
<path d="M60.518 73.1123H59.2031V74.4298H60.518V73.1123Z" fill="#6BB2E9"/>
<path d="M59.2035 73.1123H57.8887V74.4298H59.2035V73.1123Z" fill="#6BB2E9"/>
<path d="M57.8891 73.1123H56.5742V74.4298H57.8891V73.1123Z" fill="#6BB2E9"/>
<path d="M56.5746 73.1123H55.2598V74.4298H56.5746V73.1123Z" fill="#60C8F3"/>
<path d="M55.2602 73.1123H53.9453V74.4298H55.2602V73.1123Z" fill="white"/>
<path d="M53.9437 73.1123H52.6289V74.4298H53.9437V73.1123Z" fill="white"/>
<path d="M52.6293 73.1123H51.3145V74.4298H52.6293V73.1123Z" fill="white"/>
<path d="M51.3148 73.1123H50V74.4298H51.3148V73.1123Z" fill="#60C8F3"/>
<path d="M94.7055 71.7949H93.3906V73.1124H94.7055V71.7949Z" fill="#77A6E8"/>
<path d="M93.3891 71.7949H92.0742V73.1124H93.3891V71.7949Z" fill="#77A6E8"/>
<path d="M92.0746 71.7949H90.7598V73.1124H92.0746V71.7949Z" fill="#44C2D9"/>
<path d="M90.7602 71.7949H89.4453V73.1124H90.7602V71.7949Z" fill="#44C2D9"/>
<path d="M89.4457 71.7949H88.1309V73.1124H89.4457V71.7949Z" fill="#41B3D1"/>
<path d="M88.1312 71.7949H86.8164V73.1124H88.1312V71.7949Z" fill="#18B7E4"/>
<path d="M86.8148 71.7949H85.5V73.1124H86.8148V71.7949Z" fill="#77A6E8"/>
<path d="M85.5004 71.7949H84.1855V73.1124H85.5004V71.7949Z" fill="#77A6E8"/>
<path d="M84.1859 71.7949H82.8711V73.1124H84.1859V71.7949Z" fill="#44C2D9"/>
<path d="M82.8715 71.7949H81.5566V73.1124H82.8715V71.7949Z" fill="#43C6DA"/>
<path d="M81.557 71.7949H80.2422V73.1124H81.557V71.7949Z" fill="#7EE8EE"/>
<path d="M80.2406 71.7949H78.9258V73.1124H80.2406V71.7949Z" fill="#7EE8EE"/>
<path d="M78.9262 71.7949H77.6113V73.1124H78.9262V71.7949Z" fill="#43C1D8"/>
<path d="M77.6117 71.7949H76.2969V73.1124H77.6117V71.7949Z" fill="#43C8DB"/>
<path d="M76.2973 71.7949H74.9824V73.1124H76.2973V71.7949Z" fill="#43C8DB"/>
<path d="M74.9828 71.7949H73.668V73.1124H74.9828V71.7949Z" fill="#41B7D2"/>
<path d="M73.6664 71.7949H72.3516V73.1124H73.6664V71.7949Z" fill="#40B5D1"/>
<path d="M72.352 71.7949H71.0371V73.1124H72.352V71.7949Z" fill="#40C7DB"/>
<path d="M71.0375 71.7949H69.7227V73.1124H71.0375V71.7949Z" fill="#40C7DB"/>
<path d="M69.723 71.7949H68.4082V73.1124H69.723V71.7949Z" fill="#40C7DB"/>
<path d="M68.4086 71.7949H67.0938V73.1124H68.4086V71.7949Z" fill="#40C7DB"/>
<path d="M67.0922 71.7949H65.7773V73.1124H67.0922V71.7949Z" fill="#6BB2E9"/>
<path d="M65.7777 71.7949H64.4629V73.1124H65.7777V71.7949Z" fill="#6BB2E9"/>
<path d="M64.4633 71.7949H63.1484V73.1124H64.4633V71.7949Z" fill="#6BB2E9"/>
<path d="M63.1488 71.7949H61.834V73.1124H63.1488V71.7949Z" fill="#20A4F3"/>
<path d="M61.8344 71.7949H60.5195V73.1124H61.8344V71.7949Z" fill="#60C8F3"/>
<path d="M60.518 71.7949H59.2031V73.1124H60.518V71.7949Z" fill="#6BB2E9"/>
<path d="M59.2035 71.7949H57.8887V73.1124H59.2035V71.7949Z" fill="#6BB2E9"/>
<path d="M57.8891 71.7949H56.5742V73.1124H57.8891V71.7949Z" fill="#60C8F3"/>
<path d="M56.5746 71.7949H55.2598V73.1124H56.5746V71.7949Z" fill="#60C8F3"/>
<path d="M55.2602 71.7949H53.9453V73.1124H55.2602V71.7949Z" fill="#EBF8FD"/>
<path d="M53.9437 71.7949H52.6289V73.1124H53.9437V71.7949Z" fill="white"/>
<path d="M52.6293 71.7949H51.3145V73.1124H52.6293V71.7949Z" fill="white"/>
<path d="M51.3148 71.7949H50V73.1124H51.3148V71.7949Z" fill="#60C8F3"/>
<path d="M94.7055 70.478H93.3906V71.7955H94.7055V70.478Z" fill="#77A6E8"/>
<path d="M93.3891 70.478H92.0742V71.7955H93.3891V70.478Z" fill="#77A6E8"/>
<path d="M92.0746 70.478H90.7598V71.7955H92.0746V70.478Z" fill="#66AEE3"/>
<path d="M90.7602 70.478H89.4453V71.7955H90.7602V70.478Z" fill="#44C2D9"/>
<path d="M89.4457 70.478H88.1309V71.7955H89.4457V70.478Z" fill="#41B3D1"/>
<path d="M88.1312 70.478H86.8164V71.7955H88.1312V70.478Z" fill="#41B3D1"/>
<path d="M86.8148 70.478H85.5V71.7955H86.8148V70.478Z" fill="#77A6E8"/>
<path d="M85.5004 70.478H84.1855V71.7955H85.5004V70.478Z" fill="#77A6E8"/>
<path d="M84.1859 70.478H82.8711V71.7955H84.1859V70.478Z" fill="#77A6E8"/>
<path d="M82.8715 70.478H81.5566V71.7955H82.8715V70.478Z" fill="#2AB1EB"/>
<path d="M81.557 70.478H80.2422V71.7955H81.557V70.478Z" fill="#3EB5D1"/>
<path d="M80.2406 70.478H78.9258V71.7955H80.2406V70.478Z" fill="#3EB5D1"/>
<path d="M78.9262 70.478H77.6113V71.7955H78.9262V70.478Z" fill="#3EB5D1"/>
<path d="M77.6117 70.478H76.2969V71.7955H77.6117V70.478Z" fill="#3BCADB"/>
<path d="M76.2973 70.478H74.9824V71.7955H76.2973V70.478Z" fill="#3BCADB"/>
<path d="M74.9828 70.478H73.668V71.7955H74.9828V70.478Z" fill="#3CB9D2"/>
<path d="M73.6664 70.478H72.3516V71.7955H73.6664V70.478Z" fill="#40B5D1"/>
<path d="M72.352 70.478H71.0371V71.7955H72.352V70.478Z" fill="#40B5D1"/>
<path d="M71.0375 70.478H69.7227V71.7955H71.0375V70.478Z" fill="#40BAD3"/>
<path d="M69.723 70.478H68.4082V71.7955H69.723V70.478Z" fill="#4CC7E4"/>
<path d="M68.4086 70.478H67.0938V71.7955H68.4086V70.478Z" fill="#6BB2E9"/>
<path d="M67.0922 70.478H65.7773V71.7955H67.0922V70.478Z" fill="#6BB2E9"/>
<path d="M65.7777 70.478H64.4629V71.7955H65.7777V70.478Z" fill="#6BB2E9"/>
<path d="M64.4633 70.478H63.1484V71.7955H64.4633V70.478Z" fill="#6BB2E9"/>
<path d="M63.1488 70.478H61.834V71.7955H63.1488V70.478Z" fill="#60C8F3"/>
<path d="M61.8344 70.478H60.5195V71.7955H61.8344V70.478Z" fill="#6BB2E9"/>
<path d="M60.518 70.478H59.2031V71.7955H60.518V70.478Z" fill="#6BB2E9"/>
<path d="M59.2035 70.478H57.8887V71.7955H59.2035V70.478Z" fill="#6BB2E9"/>
<path d="M57.8891 70.478H56.5742V71.7955H57.8891V70.478Z" fill="#60C8F3"/>
<path d="M56.5746 70.478H55.2598V71.7955H56.5746V70.478Z" fill="#60C8F3"/>
<path d="M55.2602 70.478H53.9453V71.7955H55.2602V70.478Z" fill="#60C8F3"/>
<path d="M53.9437 70.478H52.6289V71.7955H53.9437V70.478Z" fill="white"/>
<path d="M52.6293 70.478H51.3145V71.7955H52.6293V70.478Z" fill="white"/>
<path d="M51.3148 70.478H50V71.7955H51.3148V70.478Z" fill="#60C8F3"/>
<path d="M94.7055 69.1606H93.3906V70.4781H94.7055V69.1606Z" fill="#77A6E8"/>
<path d="M93.3891 69.1606H92.0742V70.4781H93.3891V69.1606Z" fill="#77A6E8"/>
<path d="M92.0746 69.1606H90.7598V70.4781H92.0746V69.1606Z" fill="#77A6E8"/>
<path d="M90.7602 69.1606H89.4453V70.4781H90.7602V69.1606Z" fill="#44C1D9"/>
<path d="M89.4457 69.1606H88.1309V70.4781H89.4457V69.1606Z" fill="#43BED7"/>
<path d="M88.1312 69.1606H86.8164V70.4781H88.1312V69.1606Z" fill="#41B3D1"/>
<path d="M86.8148 69.1606H85.5V70.4781H86.8148V69.1606Z" fill="#5990CF"/>
<path d="M85.5004 69.1606H84.1855V70.4781H85.5004V69.1606Z" fill="#77A6E8"/>
<path d="M84.1859 69.1606H82.8711V70.4781H84.1859V69.1606Z" fill="#77A6E8"/>
<path d="M82.8715 69.1606H81.5566V70.4781H82.8715V69.1606Z" fill="#2AB1EB"/>
<path d="M81.557 69.1606H80.2422V70.4781H81.557V69.1606Z" fill="#8B90EE"/>
<path d="M80.2406 69.1606H78.9258V70.4781H80.2406V69.1606Z" fill="#8B90EE"/>
<path d="M78.9262 69.1606H77.6113V70.4781H78.9262V69.1606Z" fill="#3EB5D1"/>
<path d="M77.6117 69.1606H76.2969V70.4781H77.6117V69.1606Z" fill="#3EB5D1"/>
<path d="M76.2973 69.1606H74.9824V70.4781H76.2973V69.1606Z" fill="#3BCADB"/>
<path d="M74.9828 69.1606H73.668V70.4781H74.9828V69.1606Z" fill="#3BCADB"/>
<path d="M73.6664 69.1606H72.3516V70.4781H73.6664V69.1606Z" fill="#3BCADB"/>
<path d="M72.352 69.1606H71.0371V70.4781H72.352V69.1606Z" fill="#6BB2E9"/>
<path d="M71.0375 69.1606H69.7227V70.4781H71.0375V69.1606Z" fill="#6BB2E9"/>
<path d="M69.723 69.1606H68.4082V70.4781H69.723V69.1606Z" fill="#6BB2E9"/>
<path d="M68.4086 69.1606H67.0938V70.4781H68.4086V69.1606Z" fill="#6BB2E9"/>
<path d="M67.0922 69.1606H65.7773V70.4781H67.0922V69.1606Z" fill="#6BB2E9"/>
<path d="M65.7777 69.1606H64.4629V70.4781H65.7777V69.1606Z" fill="#1FBFFC"/>
<path d="M64.4633 69.1606H63.1484V70.4781H64.4633V69.1606Z" fill="#60C8F3"/>
<path d="M63.1488 69.1606H61.834V70.4781H63.1488V69.1606Z" fill="#6BB2E9"/>
<path d="M61.8344 69.1606H60.5195V70.4781H61.8344V69.1606Z" fill="#6BB2E9"/>
<path d="M60.518 69.1606H59.2031V70.4781H60.518V69.1606Z" fill="#6BB2E9"/>
<path d="M59.2035 69.1606H57.8887V70.4781H59.2035V69.1606Z" fill="#60C8F3"/>
<path d="M57.8891 69.1606H56.5742V70.4781H57.8891V69.1606Z" fill="#60C8F3"/>
<path d="M56.5746 69.1606H55.2598V70.4781H56.5746V69.1606Z" fill="#60C8F3"/>
<path d="M55.2602 69.1606H53.9453V70.4781H55.2602V69.1606Z" fill="#60C8F3"/>
<path d="M53.9437 69.1606H52.6289V70.4781H53.9437V69.1606Z" fill="white"/>
<path d="M52.6293 69.1606H51.3145V70.4781H52.6293V69.1606Z" fill="white"/>
<path d="M51.3148 69.1606H50V70.4781H51.3148V69.1606Z" fill="#60C8F3"/>
<path d="M94.7055 67.8433H93.3906V69.1607H94.7055V67.8433Z" fill="#77A6E8"/>
<path d="M93.3891 67.8433H92.0742V69.1607H93.3891V67.8433Z" fill="#77A6E8"/>
<path d="M92.0746 67.8433H90.7598V69.1607H92.0746V67.8433Z" fill="#77A6E8"/>
<path d="M90.7602 67.8433H89.4453V69.1607H90.7602V67.8433Z" fill="#77A6E8"/>
<path d="M89.4457 67.8433H88.1309V69.1607H89.4457V67.8433Z" fill="#56B7DE"/>
<path d="M88.1312 67.8433H86.8164V69.1607H88.1312V67.8433Z" fill="#41B3D1"/>
<path d="M86.8148 67.8433H85.5V69.1607H86.8148V67.8433Z" fill="#41B3D1"/>
<path d="M85.5004 67.8433H84.1855V69.1607H85.5004V67.8433Z" fill="#43BFD7"/>
<path d="M84.1859 67.8433H82.8711V69.1607H84.1859V67.8433Z" fill="#6FACE9"/>
<path d="M82.8715 67.8433H81.5566V69.1607H82.8715V67.8433Z" fill="#2AB1EB"/>
<path d="M81.557 67.8433H80.2422V69.1607H81.557V67.8433Z" fill="#2AB1EB"/>
<path d="M80.2406 67.8433H78.9258V69.1607H80.2406V67.8433Z" fill="#6BB2E9"/>
<path d="M78.9262 67.8433H77.6113V69.1607H78.9262V67.8433Z" fill="#6BB2E9"/>
<path d="M77.6117 67.8433H76.2969V69.1607H77.6117V67.8433Z" fill="#6BB2E9"/>
<path d="M76.2973 67.8433H74.9824V69.1607H76.2973V67.8433Z" fill="#6BB2E9"/>
<path d="M74.9828 67.8433H73.668V69.1607H74.9828V67.8433Z" fill="#2AB1EB"/>
<path d="M73.6664 67.8433H72.3516V69.1607H73.6664V67.8433Z" fill="#2AB1EB"/>
<path d="M72.352 67.8433H71.0371V69.1607H72.352V67.8433Z" fill="#2AB1EB"/>
<path d="M71.0375 67.8433H69.7227V69.1607H71.0375V67.8433Z" fill="#2AB1EB"/>
<path d="M69.723 67.8433H68.4082V69.1607H69.723V67.8433Z" fill="#3FCDEC"/>
<path d="M68.4086 67.8433H67.0938V69.1607H68.4086V67.8433Z" fill="#4899D4"/>
<path d="M67.0922 67.8433H65.7773V69.1607H67.0922V67.8433Z" fill="#2AB1EB"/>
<path d="M65.7777 67.8433H64.4629V69.1607H65.7777V67.8433Z" fill="#2AB1EB"/>
<path d="M64.4633 67.8433H63.1484V69.1607H64.4633V67.8433Z" fill="#6BB2E9"/>
<path d="M63.1488 67.8433H61.834V69.1607H63.1488V67.8433Z" fill="#6BB2E9"/>
<path d="M61.8344 67.8433H60.5195V69.1607H61.8344V67.8433Z" fill="#6BB2E9"/>
<path d="M60.518 67.8433H59.2031V69.1607H60.518V67.8433Z" fill="#60C8F3"/>
<path d="M59.2035 67.8433H57.8887V69.1607H59.2035V67.8433Z" fill="#60C8F3"/>
<path d="M57.8891 67.8433H56.5742V69.1607H57.8891V67.8433Z" fill="#60C8F3"/>
<path d="M56.5746 67.8433H55.2598V69.1607H56.5746V67.8433Z" fill="#60C8F3"/>
<path d="M55.2602 67.8433H53.9453V69.1607H55.2602V67.8433Z" fill="#60C8F3"/>
<path d="M53.9437 67.8433H52.6289V69.1607H53.9437V67.8433Z" fill="#DCF3FC"/>
<path d="M52.6293 67.8433H51.3145V69.1607H52.6293V67.8433Z" fill="#60C8F3"/>
<path d="M51.3148 67.8433H50V69.1607H51.3148V67.8433Z" fill="#60C8F3"/>
<path d="M94.7055 66.5254H93.3906V67.8429H94.7055V66.5254Z" fill="#77A6E8"/>
<path d="M93.3891 66.5254H92.0742V67.8429H93.3891V66.5254Z" fill="#77A6E8"/>
<path d="M92.0746 66.5254H90.7598V67.8429H92.0746V66.5254Z" fill="#77A6E8"/>
<path d="M90.7602 66.5254H89.4453V67.8429H90.7602V66.5254Z" fill="#77A6E8"/>
<path d="M89.4457 66.5254H88.1309V67.8429H89.4457V66.5254Z" fill="#77A6E8"/>
<path d="M88.1312 66.5254H86.8164V67.8429H88.1312V66.5254Z" fill="#46D0EF"/>
<path d="M86.8148 66.5254H85.5V67.8429H86.8148V66.5254Z" fill="#3EB2D0"/>
<path d="M85.5004 66.5254H84.1855V67.8429H85.5004V66.5254Z" fill="#3EB5D1"/>
<path d="M84.1859 66.5254H82.8711V67.8429H84.1859V66.5254Z" fill="#3BCADB"/>
<path d="M82.8715 66.5254H81.5566V67.8429H82.8715V66.5254Z" fill="#3BCADB"/>
<path d="M81.557 66.5254H80.2422V67.8429H81.557V66.5254Z" fill="#2AB1EB"/>
<path d="M80.2406 66.5254H78.9258V67.8429H80.2406V66.5254Z" fill="#4E78C5"/>
<path d="M78.9262 66.5254H77.6113V67.8429H78.9262V66.5254Z" fill="#6BB2E9"/>
<path d="M77.6117 66.5254H76.2969V67.8429H77.6117V66.5254Z" fill="#7C81E9"/>
<path d="M76.2973 66.5254H74.9824V67.8429H76.2973V66.5254Z" fill="#7C81E9"/>
<path d="M74.9828 66.5254H73.668V67.8429H74.9828V66.5254Z" fill="#7C81E9"/>
<path d="M73.6664 66.5254H72.3516V67.8429H73.6664V66.5254Z" fill="#7C81E9"/>
<path d="M72.352 66.5254H71.0371V67.8429H72.352V66.5254Z" fill="#7C81E9"/>
<path d="M71.0375 66.5254H69.7227V67.8429H71.0375V66.5254Z" fill="#7C81E9"/>
<path d="M69.723 66.5254H68.4082V67.8429H69.723V66.5254Z" fill="#7C81E9"/>
<path d="M68.4086 66.5254H67.0938V67.8429H68.4086V66.5254Z" fill="#7C81E9"/>
<path d="M67.0922 66.5254H65.7773V67.8429H67.0922V66.5254Z" fill="#7C81E9"/>
<path d="M65.7777 66.5254H64.4629V67.8429H65.7777V66.5254Z" fill="#7C81E9"/>
<path d="M64.4633 66.5254H63.1484V67.8429H64.4633V66.5254Z" fill="#7C81E9"/>
<path d="M63.1488 66.5254H61.834V67.8429H63.1488V66.5254Z" fill="#6BB2E9"/>
<path d="M61.8344 66.5254H60.5195V67.8429H61.8344V66.5254Z" fill="#2AB1EB"/>
<path d="M60.518 66.5254H59.2031V67.8429H60.518V66.5254Z" fill="#60C8F3"/>
<path d="M59.2035 66.5254H57.8887V67.8429H59.2035V66.5254Z" fill="#60C8F3"/>
<path d="M57.8891 66.5254H56.5742V67.8429H57.8891V66.5254Z" fill="#60C8F3"/>
<path d="M56.5746 66.5254H55.2598V67.8429H56.5746V66.5254Z" fill="#60C8F3"/>
<path d="M55.2602 66.5254H53.9453V67.8429H55.2602V66.5254Z" fill="#60C8F3"/>
<path d="M53.9437 66.5254H52.6289V67.8429H53.9437V66.5254Z" fill="#60C8F3"/>
<path d="M52.6293 66.5254H51.3145V67.8429H52.6293V66.5254Z" fill="#60C8F3"/>
<path d="M51.3148 66.5254H50V67.8429H51.3148V66.5254Z" fill="#60C8F3"/>
<path d="M93.3891 65.209H92.0742V66.5265H93.3891V65.209Z" fill="#77A6E8"/>
<path d="M92.0746 65.209H90.7598V66.5265H92.0746V65.209Z" fill="#77A6E8"/>
<path d="M90.7602 65.209H89.4453V66.5265H90.7602V65.209Z" fill="#77A6E8"/>
<path d="M89.4457 65.209H88.1309V66.5265H89.4457V65.209Z" fill="#77A6E8"/>
<path d="M88.1312 65.209H86.8164V66.5265H88.1312V65.209Z" fill="#77A6E8"/>
<path d="M86.8148 65.209H85.5V66.5265H86.8148V65.209Z" fill="#19C9F0"/>
<path d="M85.5004 65.209H84.1855V66.5265H85.5004V65.209Z" fill="#19C9F0"/>
<path d="M84.1859 65.209H82.8711V66.5265H84.1859V65.209Z" fill="#767CE1"/>
<path d="M82.8715 65.209H81.5566V66.5265H82.8715V65.209Z" fill="#2AB1EB"/>
<path d="M81.557 65.209H80.2422V66.5265H81.557V65.209Z" fill="#3CD1E7"/>
<path d="M80.2406 65.209H78.9258V66.5265H80.2406V65.209Z" fill="#3CD1E5"/>
<path d="M78.9262 65.209H77.6113V66.5265H78.9262V65.209Z" fill="#4B89CD"/>
<path d="M77.6117 65.209H76.2969V66.5265H77.6117V65.209Z" fill="#7C81E9"/>
<path d="M76.2973 65.209H74.9824V66.5265H76.2973V65.209Z" fill="#7C81E9"/>
<path d="M74.9828 65.209H73.668V66.5265H74.9828V65.209Z" fill="#7C81E9"/>
<path d="M73.6664 65.209H72.3516V66.5265H73.6664V65.209Z" fill="#7C81E9"/>
<path d="M72.352 65.209H71.0371V66.5265H72.352V65.209Z" fill="#7C81E9"/>
<path d="M71.0375 65.209H69.7227V66.5265H71.0375V65.209Z" fill="#7C81E9"/>
<path d="M69.723 65.209H68.4082V66.5265H69.723V65.209Z" fill="#7C81E9"/>
<path d="M68.4086 65.209H67.0938V66.5265H68.4086V65.209Z" fill="#7C81E9"/>
<path d="M67.0922 65.209H65.7773V66.5265H67.0922V65.209Z" fill="#7C81E9"/>
<path d="M65.7777 65.209H64.4629V66.5265H65.7777V65.209Z" fill="#7C81E9"/>
<path d="M64.4633 65.209H63.1484V66.5265H64.4633V65.209Z" fill="#7C81E9"/>
<path d="M63.1488 65.209H61.834V66.5265H63.1488V65.209Z" fill="#2AB1EB"/>
<path d="M61.8344 65.209H60.5195V66.5265H61.8344V65.209Z" fill="#2AB1EB"/>
<path d="M60.518 65.209H59.2031V66.5265H60.518V65.209Z" fill="#42D6F2"/>
<path d="M59.2035 65.209H57.8887V66.5265H59.2035V65.209Z" fill="#60C8F3"/>
<path d="M57.8891 65.209H56.5742V66.5265H57.8891V65.209Z" fill="#60C8F3"/>
<path d="M56.5746 65.209H55.2598V66.5265H56.5746V65.209Z" fill="#60C8F3"/>
<path d="M55.2602 65.209H53.9453V66.5265H55.2602V65.209Z" fill="#60C8F3"/>
<path d="M53.9437 65.209H52.6289V66.5265H53.9437V65.209Z" fill="#60C8F3"/>
<path d="M52.6293 65.209H51.3145V66.5265H52.6293V65.209Z" fill="#60C8F3"/>
<path d="M93.3891 63.8916H92.0742V65.2091H93.3891V63.8916Z" fill="#77A6E8"/>
<path d="M92.0746 63.8916H90.7598V65.2091H92.0746V63.8916Z" fill="#77A6E8"/>
<path d="M90.7602 63.8916H89.4453V65.2091H90.7602V63.8916Z" fill="#77A6E8"/>
<path d="M89.4457 63.8916H88.1309V65.2091H89.4457V63.8916Z" fill="#77A6E8"/>
<path d="M88.1312 63.8916H86.8164V65.2091H88.1312V63.8916Z" fill="#77A6E8"/>
<path d="M86.8148 63.8916H85.5V65.2091H86.8148V63.8916Z" fill="#77A6E8"/>
<path d="M85.5004 63.8916H84.1855V65.2091H85.5004V63.8916Z" fill="#767CE1"/>
<path d="M84.1859 63.8916H82.8711V65.2091H84.1859V63.8916Z" fill="#19C9F0"/>
<path d="M82.8715 63.8916H81.5566V65.2091H82.8715V63.8916Z" fill="#767CE1"/>
<path d="M81.557 63.8916H80.2422V65.2091H81.557V63.8916Z" fill="#2AB1EB"/>
<path d="M80.2406 63.8916H78.9258V65.2091H80.2406V63.8916Z" fill="#2AB1EB"/>
<path d="M78.9262 63.8916H77.6113V65.2091H78.9262V63.8916Z" fill="#2AB1EB"/>
<path d="M77.6117 63.8916H76.2969V65.2091H77.6117V63.8916Z" fill="#2AB1EB"/>
<path d="M76.2973 63.8916H74.9824V65.2091H76.2973V63.8916Z" fill="#2AB1EB"/>
<path d="M74.9828 63.8916H73.668V65.2091H74.9828V63.8916Z" fill="#2AB1EB"/>
<path d="M73.6664 63.8916H72.3516V65.2091H73.6664V63.8916Z" fill="#2AB1EB"/>
<path d="M72.352 63.8916H71.0371V65.2091H72.352V63.8916Z" fill="#2AB1EB"/>
<path d="M71.0375 63.8916H69.7227V65.2091H71.0375V63.8916Z" fill="#2AB1EB"/>
<path d="M69.723 63.8916H68.4082V65.2091H69.723V63.8916Z" fill="#2AB1EB"/>
<path d="M68.4086 63.8916H67.0938V65.2091H68.4086V63.8916Z" fill="#2AB1EB"/>
<path d="M67.0922 63.8916H65.7773V65.2091H67.0922V63.8916Z" fill="#2AB1EB"/>
<path d="M65.7777 63.8916H64.4629V65.2091H65.7777V63.8916Z" fill="#2AB1EB"/>
<path d="M64.4633 63.8916H63.1484V65.2091H64.4633V63.8916Z" fill="#2AB1EB"/>
<path d="M63.1488 63.8916H61.834V65.2091H63.1488V63.8916Z" fill="#2AB1EB"/>
<path d="M61.8344 63.8916H60.5195V65.2091H61.8344V63.8916Z" fill="#2AB1EB"/>
<path d="M60.518 63.8916H59.2031V65.2091H60.518V63.8916Z" fill="#2AB1EB"/>
<path d="M59.2035 63.8916H57.8887V65.2091H59.2035V63.8916Z" fill="#5FC8F2"/>
<path d="M57.8891 63.8916H56.5742V65.2091H57.8891V63.8916Z" fill="#60C8F3"/>
<path d="M56.5746 63.8916H55.2598V65.2091H56.5746V63.8916Z" fill="#60C8F3"/>
<path d="M55.2602 63.8916H53.9453V65.2091H55.2602V63.8916Z" fill="#60C8F3"/>
<path d="M53.9437 63.8916H52.6289V65.2091H53.9437V63.8916Z" fill="#60C8F3"/>
<path d="M52.6293 63.8916H51.3145V65.2091H52.6293V63.8916Z" fill="#60C8F3"/>
<path d="M92.0746 62.5737H90.7598V63.8912H92.0746V62.5737Z" fill="#77A6E8"/>
<path d="M90.7602 62.5737H89.4453V63.8912H90.7602V62.5737Z" fill="#77A6E8"/>
<path d="M89.4457 62.5737H88.1309V63.8912H89.4457V62.5737Z" fill="#77A6E8"/>
<path d="M88.1312 62.5737H86.8164V63.8912H88.1312V62.5737Z" fill="#77A6E8"/>
<path d="M86.8148 62.5737H85.5V63.8912H86.8148V62.5737Z" fill="#77A6E8"/>
<path d="M85.5004 62.5737H84.1855V63.8912H85.5004V62.5737Z" fill="#40D6F1"/>
<path d="M84.1859 62.5737H82.8711V63.8912H84.1859V62.5737Z" fill="#19C9F0"/>
<path d="M82.8715 62.5737H81.5566V63.8912H82.8715V62.5737Z" fill="#19C9F0"/>
<path d="M81.557 62.5737H80.2422V63.8912H81.557V62.5737Z" fill="#19C9F0"/>
<path d="M80.2406 62.5737H78.9258V63.8912H80.2406V62.5737Z" fill="#2AB1EB"/>
<path d="M78.9262 62.5737H77.6113V63.8912H78.9262V62.5737Z" fill="#2AB1EB"/>
<path d="M77.6117 62.5737H76.2969V63.8912H77.6117V62.5737Z" fill="#2AB1EB"/>
<path d="M76.2973 62.5737H74.9824V63.8912H76.2973V62.5737Z" fill="#2AB1EB"/>
<path d="M74.9828 62.5737H73.668V63.8912H74.9828V62.5737Z" fill="#2AB1EB"/>
<path d="M73.6664 62.5737H72.3516V63.8912H73.6664V62.5737Z" fill="#2AB1EB"/>
<path d="M72.352 62.5737H71.0371V63.8912H72.352V62.5737Z" fill="#2AB1EB"/>
<path d="M71.0375 62.5737H69.7227V63.8912H71.0375V62.5737Z" fill="#2AB1EB"/>
<path d="M69.723 62.5737H68.4082V63.8912H69.723V62.5737Z" fill="#2AB1EB"/>
<path d="M68.4086 62.5737H67.0938V63.8912H68.4086V62.5737Z" fill="#2AB1EB"/>
<path d="M67.0922 62.5737H65.7773V63.8912H67.0922V62.5737Z" fill="#2AB1EB"/>
<path d="M65.7777 62.5737H64.4629V63.8912H65.7777V62.5737Z" fill="#2AB1EB"/>
<path d="M64.4633 62.5737H63.1484V63.8912H64.4633V62.5737Z" fill="#2AB1EB"/>
<path d="M63.1488 62.5737H61.834V63.8912H63.1488V62.5737Z" fill="#2AB1EB"/>
<path d="M61.8344 62.5737H60.5195V63.8912H61.8344V62.5737Z" fill="#2AB1EB"/>
<path d="M60.518 62.5737H59.2031V63.8912H60.518V62.5737Z" fill="#2AB1EB"/>
<path d="M59.2035 62.5737H57.8887V63.8912H59.2035V62.5737Z" fill="#2AB1EB"/>
<path d="M57.8891 62.5737H56.5742V63.8912H57.8891V62.5737Z" fill="#45D4F2"/>
<path d="M56.5746 62.5737H55.2598V63.8912H56.5746V62.5737Z" fill="#60C8F3"/>
<path d="M55.2602 62.5737H53.9453V63.8912H55.2602V62.5737Z" fill="#60C8F3"/>
<path d="M53.9437 62.5737H52.6289V63.8912H53.9437V62.5737Z" fill="#60C8F3"/>
<path d="M52.6293 62.5737H51.3145V63.8912H52.6293V62.5737Z" fill="#68BFE2"/>
<path d="M92.0746 61.2563H90.7598V62.5738H92.0746V61.2563Z" fill="#91E0EC"/>
<path d="M90.7602 61.2563H89.4453V62.5738H90.7602V61.2563Z" fill="#77A6E8"/>
<path d="M89.4457 61.2563H88.1309V62.5738H89.4457V61.2563Z" fill="#77A6E8"/>
<path d="M88.1312 61.2563H86.8164V62.5738H88.1312V61.2563Z" fill="#77A6E8"/>
<path d="M86.8148 61.2563H85.5V62.5738H86.8148V61.2563Z" fill="#77A6E8"/>
<path d="M85.5004 61.2563H84.1855V62.5738H85.5004V61.2563Z" fill="#77A6E8"/>
<path d="M84.1859 61.2563H82.8711V62.5738H84.1859V61.2563Z" fill="#45ACDD"/>
<path d="M82.8715 61.2563H81.5566V62.5738H82.8715V61.2563Z" fill="#19C9F0"/>
<path d="M81.557 61.2563H80.2422V62.5738H81.557V61.2563Z" fill="#19C9F0"/>
<path d="M80.2406 61.2563H78.9258V62.5738H80.2406V61.2563Z" fill="#19C9F0"/>
<path d="M78.9262 61.2563H77.6113V62.5738H78.9262V61.2563Z" fill="#2AB1EB"/>
<path d="M77.6117 61.2563H76.2969V62.5738H77.6117V61.2563Z" fill="#2AB1EB"/>
<path d="M76.2973 61.2563H74.9824V62.5738H76.2973V61.2563Z" fill="#2AB1EB"/>
<path d="M74.9828 61.2563H73.668V62.5738H74.9828V61.2563Z" fill="#2AB1EB"/>
<path d="M73.6664 61.2563H72.3516V62.5738H73.6664V61.2563Z" fill="#2AB1EB"/>
<path d="M72.352 61.2563H71.0371V62.5738H72.352V61.2563Z" fill="#2AB1EB"/>
<path d="M71.0375 61.2563H69.7227V62.5738H71.0375V61.2563Z" fill="#2AB1EB"/>
<path d="M69.723 61.2563H68.4082V62.5738H69.723V61.2563Z" fill="#2AB1EB"/>
<path d="M68.4086 61.2563H67.0938V62.5738H68.4086V61.2563Z" fill="#2AB1EB"/>
<path d="M67.0922 61.2563H65.7773V62.5738H67.0922V61.2563Z" fill="#2AB1EB"/>
<path d="M65.7777 61.2563H64.4629V62.5738H65.7777V61.2563Z" fill="#2AB1EB"/>
<path d="M64.4633 61.2563H63.1484V62.5738H64.4633V61.2563Z" fill="#2AB1EB"/>
<path d="M63.1488 61.2563H61.834V62.5738H63.1488V61.2563Z" fill="#2AB1EB"/>
<path d="M61.8344 61.2563H60.5195V62.5738H61.8344V61.2563Z" fill="#2AB1EB"/>
<path d="M60.518 61.2563H59.2031V62.5738H60.518V61.2563Z" fill="#21C1FD"/>
<path d="M59.2035 61.2563H57.8887V62.5738H59.2035V61.2563Z" fill="#2AB1EB"/>
<path d="M57.8891 61.2563H56.5742V62.5738H57.8891V61.2563Z" fill="#2AB1EB"/>
<path d="M56.5746 61.2563H55.2598V62.5738H56.5746V61.2563Z" fill="#2AB1EB"/>
<path d="M55.2602 61.2563H53.9453V62.5738H55.2602V61.2563Z" fill="#2AB1EB"/>
<path d="M53.9437 61.2563H52.6289V62.5738H53.9437V61.2563Z" fill="#2AB1EB"/>
<path d="M90.7602 59.939H89.4453V61.2564H90.7602V59.939Z" fill="#92E0EC"/>
<path d="M89.4457 59.939H88.1309V61.2564H89.4457V59.939Z" fill="#77A6E8"/>
<path d="M88.1312 59.939H86.8164V61.2564H88.1312V59.939Z" fill="#77A6E8"/>
<path d="M86.8148 59.939H85.5V61.2564H86.8148V59.939Z" fill="#77A6E8"/>
<path d="M85.5004 59.939H84.1855V61.2564H85.5004V59.939Z" fill="#77A6E8"/>
<path d="M84.1859 59.939H82.8711V61.2564H84.1859V59.939Z" fill="#2AB1EB"/>
<path d="M82.8715 59.939H81.5566V61.2564H82.8715V59.939Z" fill="#45ADDD"/>
<path d="M81.557 59.939H80.2422V61.2564H81.557V59.939Z" fill="#19C9F0"/>
<path d="M80.2406 59.939H78.9258V61.2564H80.2406V59.939Z" fill="#19C9F0"/>
<path d="M78.9262 59.939H77.6113V61.2564H78.9262V59.939Z" fill="#19C9F0"/>
<path d="M77.6117 59.939H76.2969V61.2564H77.6117V59.939Z" fill="#2AB1EB"/>
<path d="M76.2973 59.939H74.9824V61.2564H76.2973V59.939Z" fill="#2AB1EB"/>
<path d="M74.9828 59.939H73.668V61.2564H74.9828V59.939Z" fill="#2AB1EB"/>
<path d="M73.6664 59.939H72.3516V61.2564H73.6664V59.939Z" fill="#2AB1EB"/>
<path d="M72.352 59.939H71.0371V61.2564H72.352V59.939Z" fill="#2AB1EB"/>
<path d="M71.0375 59.939H69.7227V61.2564H71.0375V59.939Z" fill="#2AB1EB"/>
<path d="M69.723 59.939H68.4082V61.2564H69.723V59.939Z" fill="#2AB1EB"/>
<path d="M68.4086 59.939H67.0938V61.2564H68.4086V59.939Z" fill="#2AB1EB"/>
<path d="M67.0922 59.939H65.7773V61.2564H67.0922V59.939Z" fill="#2AB1EB"/>
<path d="M65.7777 59.939H64.4629V61.2564H65.7777V59.939Z" fill="#2AB1EB"/>
<path d="M64.4633 59.939H63.1484V61.2564H64.4633V59.939Z" fill="#2AB1EB"/>
<path d="M63.1488 59.939H61.834V61.2564H63.1488V59.939Z" fill="#2AB1EB"/>
<path d="M61.8344 59.939H60.5195V61.2564H61.8344V59.939Z" fill="#21C1FD"/>
<path d="M60.518 59.939H59.2031V61.2564H60.518V59.939Z" fill="#21C1FD"/>
<path d="M59.2035 59.939H57.8887V61.2564H59.2035V59.939Z" fill="#2AB1EB"/>
<path d="M57.8891 59.939H56.5742V61.2564H57.8891V59.939Z" fill="#2AB1EB"/>
<path d="M56.5746 59.939H55.2598V61.2564H56.5746V59.939Z" fill="#2AB1EB"/>
<path d="M55.2602 59.939H53.9453V61.2564H55.2602V59.939Z" fill="#2AB1EB"/>
<path d="M89.4457 58.6221H88.1309V59.9395H89.4457V58.6221Z" fill="#79ABE8"/>
<path d="M88.1312 58.6221H86.8164V59.9395H88.1312V58.6221Z" fill="#77A6E8"/>
<path d="M86.8148 58.6221H85.5V59.9395H86.8148V58.6221Z" fill="#77A6E8"/>
<path d="M85.5004 58.6221H84.1855V59.9395H85.5004V58.6221Z" fill="#77A6E8"/>
<path d="M84.1859 58.6221H82.8711V59.9395H84.1859V58.6221Z" fill="#2AB1EB"/>
<path d="M82.8715 58.6221H81.5566V59.9395H82.8715V58.6221Z" fill="#2AB1EB"/>
<path d="M81.557 58.6221H80.2422V59.9395H81.557V58.6221Z" fill="#19C9F0"/>
<path d="M80.2406 58.6221H78.9258V59.9395H80.2406V58.6221Z" fill="#19C9F0"/>
<path d="M78.9262 58.6221H77.6113V59.9395H78.9262V58.6221Z" fill="#19C9F0"/>
<path d="M77.6117 58.6221H76.2969V59.9395H77.6117V58.6221Z" fill="#19C9F0"/>
<path d="M76.2973 58.6221H74.9824V59.9395H76.2973V58.6221Z" fill="#19C9F0"/>
<path d="M74.9828 58.6221H73.668V59.9395H74.9828V58.6221Z" fill="#2AB1EB"/>
<path d="M73.6664 58.6221H72.3516V59.9395H73.6664V58.6221Z" fill="#2AB1EB"/>
<path d="M72.352 58.6221H71.0371V59.9395H72.352V58.6221Z" fill="#2AB1EB"/>
<path d="M71.0375 58.6221H69.7227V59.9395H71.0375V58.6221Z" fill="#2AB1EB"/>
<path d="M69.723 58.6221H68.4082V59.9395H69.723V58.6221Z" fill="#2AB1EB"/>
<path d="M68.4086 58.6221H67.0938V59.9395H68.4086V58.6221Z" fill="#2AB1EB"/>
<path d="M67.0922 58.6221H65.7773V59.9395H67.0922V58.6221Z" fill="#2AB1EB"/>
<path d="M65.7777 58.6221H64.4629V59.9395H65.7777V58.6221Z" fill="#2AB1EB"/>
<path d="M64.4633 58.6221H63.1484V59.9395H64.4633V58.6221Z" fill="#21C1FD"/>
<path d="M63.1488 58.6221H61.834V59.9395H63.1488V58.6221Z" fill="#21C1FD"/>
<path d="M61.8344 58.6221H60.5195V59.9395H61.8344V58.6221Z" fill="#21C1FD"/>
<path d="M60.518 58.6221H59.2031V59.9395H60.518V58.6221Z" fill="#2AB1EB"/>
<path d="M59.2035 58.6221H57.8887V59.9395H59.2035V58.6221Z" fill="#2AB1EB"/>
<path d="M57.8891 58.6221H56.5742V59.9395H57.8891V58.6221Z" fill="#2AB1EB"/>
<path d="M56.5746 58.6221H55.2598V59.9395H56.5746V58.6221Z" fill="#2AB1EB"/>
<path d="M55.2602 58.6221H53.9453V59.9395H55.2602V58.6221Z" fill="#2AB1EB"/>
<path d="M89.4457 57.3042H88.1309V58.6217H89.4457V57.3042Z" fill="#96E9ED"/>
<path d="M88.1312 57.3042H86.8164V58.6217H88.1312V57.3042Z" fill="#88CCEA"/>
<path d="M86.8148 57.3042H85.5V58.6217H86.8148V57.3042Z" fill="#77A6E8"/>
<path d="M85.5004 57.3042H84.1855V58.6217H85.5004V57.3042Z" fill="#63B7EB"/>
<path d="M84.1859 57.3042H82.8711V58.6217H84.1859V57.3042Z" fill="#2AB1EB"/>
<path d="M82.8715 57.3042H81.5566V58.6217H82.8715V57.3042Z" fill="#2AB1EB"/>
<path d="M81.557 57.3042H80.2422V58.6217H81.557V57.3042Z" fill="#2AB1EB"/>
<path d="M80.2406 57.3042H78.9258V58.6217H80.2406V57.3042Z" fill="#19C9F0"/>
<path d="M78.9262 57.3042H77.6113V58.6217H78.9262V57.3042Z" fill="#539AF2"/>
<path d="M77.6117 57.3042H76.2969V58.6217H77.6117V57.3042Z" fill="#539AF2"/>
<path d="M76.2973 57.3042H74.9824V58.6217H76.2973V57.3042Z" fill="#539AF2"/>
<path d="M74.9828 57.3042H73.668V58.6217H74.9828V57.3042Z" fill="#539AF2"/>
<path d="M73.6664 57.3042H72.3516V58.6217H73.6664V57.3042Z" fill="#539AF2"/>
<path d="M72.352 57.3042H71.0371V58.6217H72.352V57.3042Z" fill="#539AF2"/>
<path d="M71.0375 57.3042H69.7227V58.6217H71.0375V57.3042Z" fill="#539AF2"/>
<path d="M69.723 57.3042H68.4082V58.6217H69.723V57.3042Z" fill="#539AF2"/>
<path d="M68.4086 57.3042H67.0938V58.6217H68.4086V57.3042Z" fill="#539AF2"/>
<path d="M67.0922 57.3042H65.7773V58.6217H67.0922V57.3042Z" fill="#539AF2"/>
<path d="M65.7777 57.3042H64.4629V58.6217H65.7777V57.3042Z" fill="#539AF2"/>
<path d="M64.4633 57.3042H63.1484V58.6217H64.4633V57.3042Z" fill="#539AF2"/>
<path d="M63.1488 57.3042H61.834V58.6217H63.1488V57.3042Z" fill="#539AF2"/>
<path d="M61.8344 57.3042H60.5195V58.6217H61.8344V57.3042Z" fill="#2AB1EB"/>
<path d="M60.518 57.3042H59.2031V58.6217H60.518V57.3042Z" fill="#2AB1EB"/>
<path d="M59.2035 57.3042H57.8887V58.6217H59.2035V57.3042Z" fill="#2AB1EB"/>
<path d="M57.8891 57.3042H56.5742V58.6217H57.8891V57.3042Z" fill="#2AB1EB"/>
<path d="M56.5746 57.3042H55.2598V58.6217H56.5746V57.3042Z" fill="#2AB1EB"/>
<path d="M88.1312 55.9873H86.8164V57.3048H88.1312V55.9873Z" fill="#96E8EC"/>
<path d="M86.8148 55.9873H85.5V57.3048H86.8148V55.9873Z" fill="#96E9ED"/>
<path d="M85.5004 55.9873H84.1855V57.3048H85.5004V55.9873Z" fill="#2AB1EB"/>
<path d="M84.1859 55.9873H82.8711V57.3048H84.1859V55.9873Z" fill="#2AB1EB"/>
<path d="M82.8715 55.9873H81.5566V57.3048H82.8715V55.9873Z" fill="#2AB1EB"/>
<path d="M81.557 55.9873H80.2422V57.3048H81.557V55.9873Z" fill="#2AB1EB"/>
<path d="M80.2406 55.9873H78.9258V57.3048H80.2406V55.9873Z" fill="#2AB1EB"/>
<path d="M78.9262 55.9873H77.6113V57.3048H78.9262V55.9873Z" fill="#2AB1EB"/>
<path d="M77.6117 55.9873H76.2969V57.3048H77.6117V55.9873Z" fill="#4899D4"/>
<path d="M76.2973 55.9873H74.9824V57.3048H76.2973V55.9873Z" fill="#1C84FC"/>
<path d="M74.9828 55.9873H73.668V57.3048H74.9828V55.9873Z" fill="#1C84FC"/>
<path d="M73.6664 55.9873H72.3516V57.3048H73.6664V55.9873Z" fill="#1C84FC"/>
<path d="M72.352 55.9873H71.0371V57.3048H72.352V55.9873Z" fill="#1C84FC"/>
<path d="M71.0375 55.9873H69.7227V57.3048H71.0375V55.9873Z" fill="#1C84FC"/>
<path d="M69.723 55.9873H68.4082V57.3048H69.723V55.9873Z" fill="#1C84FC"/>
<path d="M68.4086 55.9873H67.0938V57.3048H68.4086V55.9873Z" fill="#1C84FC"/>
<path d="M67.0922 55.9873H65.7773V57.3048H67.0922V55.9873Z" fill="#4995D2"/>
<path d="M65.7777 55.9873H64.4629V57.3048H65.7777V55.9873Z" fill="#2AB1EB"/>
<path d="M64.4633 55.9873H63.1484V57.3048H64.4633V55.9873Z" fill="#2AB1EB"/>
<path d="M63.1488 55.9873H61.834V57.3048H63.1488V55.9873Z" fill="#2AB1EB"/>
<path d="M61.8344 55.9873H60.5195V57.3048H61.8344V55.9873Z" fill="#2AB1EB"/>
<path d="M60.518 55.9873H59.2031V57.3048H60.518V55.9873Z" fill="#2AB1EB"/>
<path d="M59.2035 55.9873H57.8887V57.3048H59.2035V55.9873Z" fill="#2AB1EB"/>
<path d="M57.8891 55.9873H56.5742V57.3048H57.8891V55.9873Z" fill="#2AB1EB"/>
<path d="M85.5004 54.6694H84.1855V55.9869H85.5004V54.6694Z" fill="#96E9ED"/>
<path d="M84.1859 54.6694H82.8711V55.9869H84.1859V54.6694Z" fill="#6CE1EE"/>
<path d="M82.8715 54.6694H81.5566V55.9869H82.8715V54.6694Z" fill="#2AB1EB"/>
<path d="M81.557 54.6694H80.2422V55.9869H81.557V54.6694Z" fill="#2AB1EB"/>
<path d="M80.2406 54.6694H78.9258V55.9869H80.2406V54.6694Z" fill="#2AB1EB"/>
<path d="M78.9262 54.6694H77.6113V55.9869H78.9262V54.6694Z" fill="#2AB1EB"/>
<path d="M77.6117 54.6694H76.2969V55.9869H77.6117V54.6694Z" fill="#2AB1EB"/>
<path d="M76.2973 54.6694H74.9824V55.9869H76.2973V54.6694Z" fill="#2AB1EB"/>
<path d="M74.9828 54.6694H73.668V55.9869H74.9828V54.6694Z" fill="#2AB1EB"/>
<path d="M73.6664 54.6694H72.3516V55.9869H73.6664V54.6694Z" fill="#2AB1EB"/>
<path d="M72.352 54.6694H71.0371V55.9869H72.352V54.6694Z" fill="#2AB1EB"/>
<path d="M71.0375 54.6694H69.7227V55.9869H71.0375V54.6694Z" fill="#2AB1EB"/>
<path d="M69.723 54.6694H68.4082V55.9869H69.723V54.6694Z" fill="#2AB1EB"/>
<path d="M68.4086 54.6694H67.0938V55.9869H68.4086V54.6694Z" fill="#2AB1EB"/>
<path d="M67.0922 54.6694H65.7773V55.9869H67.0922V54.6694Z" fill="#2AB1EB"/>
<path d="M65.7777 54.6694H64.4629V55.9869H65.7777V54.6694Z" fill="#2AB1EB"/>
<path d="M64.4633 54.6694H63.1484V55.9869H64.4633V54.6694Z" fill="#2AB1EB"/>
<path d="M63.1488 54.6694H61.834V55.9869H63.1488V54.6694Z" fill="#2AB1EB"/>
<path d="M61.8344 54.6694H60.5195V55.9869H61.8344V54.6694Z" fill="#2AB1EB"/>
<path d="M60.518 54.6694H59.2031V55.9869H60.518V54.6694Z" fill="#2AB1EB"/>
<path d="M59.2035 54.6694H57.8887V55.9869H59.2035V54.6694Z" fill="#4CCCE0"/>
<path d="M84.1859 53.353H82.8711V54.6705H84.1859V53.353Z" fill="#96E4E8"/>
<path d="M82.8715 53.353H81.5566V54.6705H82.8715V53.353Z" fill="#96E9ED"/>
<path d="M81.557 53.353H80.2422V54.6705H81.557V53.353Z" fill="#96E9ED"/>
<path d="M80.2406 53.353H78.9258V54.6705H80.2406V53.353Z" fill="#2AB1EB"/>
<path d="M78.9262 53.353H77.6113V54.6705H78.9262V53.353Z" fill="#2AB1EB"/>
<path d="M77.6117 53.353H76.2969V54.6705H77.6117V53.353Z" fill="#2AB1EB"/>
<path d="M76.2973 53.353H74.9824V54.6705H76.2973V53.353Z" fill="#2AB1EB"/>
<path d="M74.9828 53.353H73.668V54.6705H74.9828V53.353Z" fill="#2AB1EB"/>
<path d="M73.6664 53.353H72.3516V54.6705H73.6664V53.353Z" fill="#2AB1EB"/>
<path d="M72.352 53.353H71.0371V54.6705H72.352V53.353Z" fill="#2AB1EB"/>
<path d="M71.0375 53.353H69.7227V54.6705H71.0375V53.353Z" fill="#2AB1EB"/>
<path d="M69.723 53.353H68.4082V54.6705H69.723V53.353Z" fill="#2AB1EB"/>
<path d="M68.4086 53.353H67.0938V54.6705H68.4086V53.353Z" fill="#2AB1EB"/>
<path d="M67.0922 53.353H65.7773V54.6705H67.0922V53.353Z" fill="#2AB1EB"/>
<path d="M65.7777 53.353H64.4629V54.6705H65.7777V53.353Z" fill="#2AB1EB"/>
<path d="M64.4633 53.353H63.1484V54.6705H64.4633V53.353Z" fill="#2AB1EB"/>
<path d="M63.1488 53.353H61.834V54.6705H63.1488V53.353Z" fill="#2AB1EB"/>
<path d="M61.8344 53.353H60.5195V54.6705H61.8344V53.353Z" fill="#2AB1EB"/>
<path d="M80.2406 52.0352H78.9258V53.3526H80.2406V52.0352Z" fill="#96E9ED"/>
<path d="M78.9262 52.0352H77.6113V53.3526H78.9262V52.0352Z" fill="#96E9ED"/>
<path d="M77.6117 52.0352H76.2969V53.3526H77.6117V52.0352Z" fill="#93E8ED"/>
<path d="M76.2973 52.0352H74.9824V53.3526H76.2973V52.0352Z" fill="#2AB1EB"/>
<path d="M74.9828 52.0352H73.668V53.3526H74.9828V52.0352Z" fill="#2AB1EB"/>
<path d="M73.6664 52.0352H72.3516V53.3526H73.6664V52.0352Z" fill="#2AB1EB"/>
<path d="M72.352 52.0352H71.0371V53.3526H72.352V52.0352Z" fill="#2AB1EB"/>
<path d="M71.0375 52.0352H69.7227V53.3526H71.0375V52.0352Z" fill="#2AB1EB"/>
<path d="M69.723 52.0352H68.4082V53.3526H69.723V52.0352Z" fill="#2AB1EB"/>
<path d="M68.4086 52.0352H67.0938V53.3526H68.4086V52.0352Z" fill="#2AB1EB"/>
<path d="M67.0922 52.0352H65.7773V53.3526H67.0922V52.0352Z" fill="#2AB1EB"/>
<path d="M65.7777 52.0352H64.4629V53.3526H65.7777V52.0352Z" fill="#2AB1EB"/>
<path d="M64.4633 52.0352H63.1484V53.3526H64.4633V52.0352Z" fill="#2AB1EB"/>
<path d="M77.6117 50.7178H76.2969V52.0353H77.6117V50.7178Z" fill="#96E7EB"/>
<path d="M76.2973 50.7178H74.9824V52.0353H76.2973V50.7178Z" fill="#96E9ED"/>
<path d="M74.9828 50.7178H73.668V52.0353H74.9828V50.7178Z" fill="#96E9ED"/>
<path d="M73.6664 50.7178H72.3516V52.0353H73.6664V50.7178Z" fill="#96E9ED"/>
<path d="M72.352 50.7178H71.0371V52.0353H72.352V50.7178Z" fill="#96E9ED"/>
<path d="M71.0375 50.7178H69.7227V52.0353H71.0375V50.7178Z" fill="#96E9ED"/>
<path d="M69.723 50.7178H68.4082V52.0353H69.723V50.7178Z" fill="#96E9ED"/>
<path d="M68.4086 50.7178H67.0938V52.0353H68.4086V50.7178Z" fill="#96E9ED"/>
</g>
<defs>
<filter id="filter0_d_448_21002" x="0" y="0.717773" width="144.705" height="159.28" filterUnits="userSpaceOnUse" color-interpolation-filters="sRGB">
<feFlood flood-opacity="0" result="BackgroundImageFix"/>
<feColorMatrix in="SourceAlpha" type="matrix" values="0 0 0 0 0 0 0 0 0 0 0 0 0 0 0 0 0 0 127 0" result="hardAlpha"/>
<feOffset/>
<feGaussianBlur stdDeviation="25"/>
<feComposite in2="hardAlpha" operator="out"/>
<feColorMatrix type="matrix" values="0 0 0 0 0.748654 0 0 0 0 0.958109 0 0 0 0 1 0 0 0 1 0"/>
<feBlend mode="normal" in2="BackgroundImageFix" result="effect1_dropShadow_448_21002"/>
<feBlend mode="normal" in="SourceGraphic" in2="effect1_dropShadow_448_21002" result="shape"/>
</filter>
</defs>
</svg>
