<svg width="19" height="40" viewBox="0 0 19 40" fill="none" xmlns="http://www.w3.org/2000/svg">
<g style="mix-blend-mode:color-dodge">
<path d="M9.96078 1.65967H8.30078V-0.000324845H9.96078V1.65967Z" fill="#346F74"/>
<path d="M9.96078 3.31982H8.30078V1.65982H9.96078V3.31982Z" fill="#326F78"/>
<path d="M9.96078 4.97998H8.30078V3.31998H9.96078V4.97998Z" fill="#316D73"/>
<path d="M9.96078 6.63965H8.30078V4.97965H9.96078V6.63965Z" fill="#316D73"/>
<path d="M9.96078 8.2998H8.30078V6.6398H9.96078V8.2998Z" fill="#316D74"/>
<path d="M8.30063 8.2998H6.64062V6.6398H8.30063V8.2998Z" fill="#212A2A"/>
<path d="M6.64047 8.2998H4.98047V6.6398H6.64047V8.2998Z" fill="#2B5E6C"/>
<path d="M4.98031 8.2998H3.32031V6.6398H4.98031V8.2998Z" fill="#1C3240"/>
<path d="M9.96078 9.95996H8.30078V8.29997H9.96078V9.95996Z" fill="#2D6A73"/>
<path d="M8.30063 9.95996H6.64062V8.29997H8.30063V9.95996Z" fill="#202833"/>
<path d="M6.64047 9.95996H4.98047V8.29997H6.64047V9.95996Z" fill="#226777"/>
<path d="M4.98031 9.95996H3.32031V8.29997H4.98031V9.95996Z" fill="#21283E"/>
<path d="M16.5995 11.6201H14.9395V9.96012H16.5995V11.6201Z" fill="#39797D"/>
<path d="M14.9393 11.6201H13.2793V9.96012H14.9393V11.6201Z" fill="#2A585C"/>
<path d="M9.96078 11.6201H8.30078V9.96012H9.96078V11.6201Z" fill="#2F6F7E"/>
<path d="M8.30063 11.6201H6.64062V9.96012H8.30063V11.6201Z" fill="#2A7F92"/>
<path d="M6.64047 11.6201H4.98047V9.96012H6.64047V11.6201Z" fill="#21859A"/>
<path d="M4.98031 11.6201H3.32031V9.96012H4.98031V11.6201Z" fill="#1F2B36"/>
<path d="M16.5995 13.2798H14.9395V11.6198H16.5995V13.2798Z" fill="#317D8D"/>
<path d="M14.9393 13.2798H13.2793V11.6198H14.9393V13.2798Z" fill="#2A5A65"/>
<path d="M13.2791 13.2798H11.6191V11.6198H13.2791V13.2798Z" fill="#27485A"/>
<path d="M11.619 13.2798H9.95898V11.6198H11.619V13.2798Z" fill="#2A4058"/>
<path d="M9.96078 13.2798H8.30078V11.6198H9.96078V13.2798Z" fill="#2F6A7B"/>
<path d="M8.30063 13.2798H6.64062V11.6198H8.30063V13.2798Z" fill="#349BC7"/>
<path d="M6.64047 13.2798H4.98047V11.6198H6.64047V13.2798Z" fill="#3089AE"/>
<path d="M4.98031 13.2798H3.32031V11.6198H4.98031V13.2798Z" fill="#1E2F35"/>
<path d="M16.5995 14.9399H14.9395V13.2799H16.5995V14.9399Z" fill="#347C8C"/>
<path d="M14.9393 14.9399H13.2793V13.2799H14.9393V14.9399Z" fill="#265760"/>
<path d="M13.2791 14.9399H11.6191V13.2799H13.2791V14.9399Z" fill="#3D7684"/>
<path d="M11.619 14.9399H9.95898V13.2799H11.619V14.9399Z" fill="#2D6276"/>
<path d="M9.96078 14.9399H8.30078V13.2799H9.96078V14.9399Z" fill="#2C6F7F"/>
<path d="M8.30063 14.9399H6.64062V13.2799H8.30063V14.9399Z" fill="#51C7EF"/>
<path d="M6.64047 14.9399H4.98047V13.2799H6.64047V14.9399Z" fill="#349BBB"/>
<path d="M4.98031 14.9399H3.32031V13.2799H4.98031V14.9399Z" fill="#222E37"/>
<path d="M16.5995 16.6001H14.9395V14.9401H16.5995V16.6001Z" fill="#2F7E8A"/>
<path d="M14.9393 16.6001H13.2793V14.9401H14.9393V16.6001Z" fill="#265B5F"/>
<path d="M13.2791 16.6001H11.6191V14.9401H13.2791V16.6001Z" fill="#2D7B8B"/>
<path d="M11.619 16.6001H9.95898V14.9401H11.619V16.6001Z" fill="#2788A3"/>
<path d="M9.96078 16.6001H8.30078V14.9401H9.96078V16.6001Z" fill="#2A889D"/>
<path d="M8.30063 16.6001H6.64062V14.9401H8.30063V16.6001Z" fill="#50C8F3"/>
<path d="M6.64047 16.6001H4.98047V14.9401H6.64047V16.6001Z" fill="#3797BC"/>
<path d="M4.98031 16.6001H3.32031V14.9401H4.98031V16.6001Z" fill="#152C36"/>
<path d="M3.32016 16.6001H1.66016V14.9401H3.32016V16.6001Z" fill="#215A5C"/>
<path d="M1.66 16.6001H0V14.9401H1.66V16.6001Z" fill="#282F43"/>
<path d="M16.5995 18.2598H14.9395V16.5998H16.5995V18.2598Z" fill="#2F7D8D"/>
<path d="M14.9393 18.2598H13.2793V16.5998H14.9393V18.2598Z" fill="#27595E"/>
<path d="M13.2791 18.2598H11.6191V16.5998H13.2791V18.2598Z" fill="#30778B"/>
<path d="M11.619 18.2598H9.95898V16.5998H11.619V18.2598Z" fill="#3494B7"/>
<path d="M9.96078 18.2598H8.30078V16.5998H9.96078V18.2598Z" fill="#2D94B1"/>
<path d="M8.30063 18.2598H6.64062V16.5998H8.30063V18.2598Z" fill="#53C5F6"/>
<path d="M6.64047 18.2598H4.98047V16.5998H6.64047V18.2598Z" fill="#3097BB"/>
<path d="M4.98031 18.2598H3.32031V16.5998H4.98031V18.2598Z" fill="#242B3D"/>
<path d="M3.32016 18.2598H1.66016V16.5998H3.32016V18.2598Z" fill="#255761"/>
<path d="M1.66 18.2598H0V16.5998H1.66V18.2598Z" fill="#263045"/>
<path d="M16.5995 19.9199H14.9395V18.2599H16.5995V19.9199Z" fill="#387699"/>
<path d="M14.9393 19.9199H13.2793V18.2599H14.9393V19.9199Z" fill="#2A5760"/>
<path d="M13.2791 19.9199H11.6191V18.2599H13.2791V19.9199Z" fill="#2C7A87"/>
<path d="M11.619 19.9199H9.95898V18.2599H11.619V19.9199Z" fill="#3199C1"/>
<path d="M9.96078 19.9199H8.30078V18.2599H9.96078V19.9199Z" fill="#2A9ECA"/>
<path d="M8.30063 19.9199H6.64062V18.2599H8.30063V19.9199Z" fill="#55C1F8"/>
<path d="M6.64047 19.9199H4.98047V18.2599H6.64047V19.9199Z" fill="#2E9EC1"/>
<path d="M4.98031 19.9199H3.32031V18.2599H4.98031V19.9199Z" fill="#203D4D"/>
<path d="M3.32016 19.9199H1.66016V18.2599H3.32016V19.9199Z" fill="#256070"/>
<path d="M1.66 19.9199H0V18.2599H1.66V19.9199Z" fill="#1D3247"/>
<path d="M16.5995 21.5801H14.9395V19.9201H16.5995V21.5801Z" fill="#397687"/>
<path d="M14.9393 21.5801H13.2793V19.9201H14.9393V21.5801Z" fill="#277481"/>
<path d="M13.2791 21.5801H11.6191V19.9201H13.2791V21.5801Z" fill="#2C7F8F"/>
<path d="M11.619 21.5801H9.95898V19.9201H11.619V21.5801Z" fill="#2E9CB6"/>
<path d="M9.96078 21.5801H8.30078V19.9201H9.96078V21.5801Z" fill="#55C3FF"/>
<path d="M8.30063 21.5801H6.64062V19.9201H8.30063V21.5801Z" fill="#4AC5EA"/>
<path d="M6.64047 21.5801H4.98047V19.9201H6.64047V21.5801Z" fill="#3497BC"/>
<path d="M4.98031 21.5801H3.32031V19.9201H4.98031V21.5801Z" fill="#31ADC4"/>
<path d="M3.32016 21.5801H1.66016V19.9201H3.32016V21.5801Z" fill="#3094B4"/>
<path d="M1.66 21.5801H0V19.9201H1.66V21.5801Z" fill="#222F3C"/>
<path d="M16.5995 23.2397H14.9395V21.5797H16.5995V23.2397Z" fill="#34798F"/>
<path d="M14.9393 23.2397H13.2793V21.5797H14.9393V23.2397Z" fill="#248798"/>
<path d="M13.2791 23.2397H11.6191V21.5797H13.2791V23.2397Z" fill="#29829B"/>
<path d="M11.619 23.2397H9.95898V21.5797H11.619V23.2397Z" fill="#2E9BB8"/>
<path d="M9.96078 23.2397H8.30078V21.5797H9.96078V23.2397Z" fill="#58BEF3"/>
<path d="M8.30063 23.2397H6.64062V21.5797H8.30063V23.2397Z" fill="#4DC6F3"/>
<path d="M6.64047 23.2397H4.98047V21.5797H6.64047V23.2397Z" fill="#309FC8"/>
<path d="M4.98031 23.2397H3.32031V21.5797H4.98031V23.2397Z" fill="#51C0E5"/>
<path d="M3.32016 23.2397H1.66016V21.5797H3.32016V23.2397Z" fill="#3DA5C8"/>
<path d="M1.66 23.2397H0V21.5797H1.66V23.2397Z" fill="#282F42"/>
<path d="M18.2596 24.8999H16.5996V23.2399H18.2596V24.8999Z" fill="#24424B"/>
<path d="M16.5995 24.8999H14.9395V23.2399H16.5995V24.8999Z" fill="#2E7AA3"/>
<path d="M14.9393 24.8999H13.2793V23.2399H14.9393V24.8999Z" fill="#3DA3CD"/>
<path d="M13.2791 24.8999H11.6191V23.2399H13.2791V24.8999Z" fill="#38A2C5"/>
<path d="M11.619 24.8999H9.95898V23.2399H11.619V24.8999Z" fill="#45B0D1"/>
<path d="M9.96078 24.8999H8.30078V23.2399H9.96078V24.8999Z" fill="#44C8F7"/>
<path d="M8.30063 24.8999H6.64062V23.2399H8.30063V24.8999Z" fill="#47C7F2"/>
<path d="M6.64047 24.8999H4.98047V23.2399H6.64047V24.8999Z" fill="#49CBF9"/>
<path d="M4.98031 24.8999H3.32031V23.2399H4.98031V24.8999Z" fill="#56BCF7"/>
<path d="M3.32016 24.8999H1.66016V23.2399H3.32016V24.8999Z" fill="#2FA9D3"/>
<path d="M1.66 24.8999H0V23.2399H1.66V24.8999Z" fill="#225B6A"/>
<path d="M18.2596 26.5601H16.5996V24.9001H18.2596V26.5601Z" fill="#296268"/>
<path d="M16.5995 26.5601H14.9395V24.9001H16.5995V26.5601Z" fill="#257F9D"/>
<path d="M14.9393 26.5601H13.2793V24.9001H14.9393V26.5601Z" fill="#3CA1CD"/>
<path d="M13.2791 26.5601H11.6191V24.9001H13.2791V26.5601Z" fill="#49CAEE"/>
<path d="M11.619 26.5601H9.95898V24.9001H11.619V26.5601Z" fill="#5CC3E1"/>
<path d="M9.96078 26.5601H8.30078V24.9001H9.96078V26.5601Z" fill="#65BDDE"/>
<path d="M8.30063 26.5601H6.64062V24.9001H8.30063V26.5601Z" fill="#62C5E3"/>
<path d="M6.64047 26.5601H4.98047V24.9001H6.64047V26.5601Z" fill="#50C7EA"/>
<path d="M4.98031 26.5601H3.32031V24.9001H4.98031V26.5601Z" fill="#51C4F9"/>
<path d="M3.32016 26.5601H1.66016V24.9001H3.32016V26.5601Z" fill="#33A8D2"/>
<path d="M1.66 26.5601H0V24.9001H1.66V26.5601Z" fill="#2C828E"/>
<path d="M18.2596 28.2197H16.5996V26.5597H18.2596V28.2197Z" fill="#206570"/>
<path d="M16.5995 28.2197H14.9395V26.5597H16.5995V28.2197Z" fill="#297E95"/>
<path d="M14.9393 28.2197H13.2793V26.5597H14.9393V28.2197Z" fill="#3AA6CA"/>
<path d="M13.2791 28.2197H11.6191V26.5597H13.2791V28.2197Z" fill="#81D4EC"/>
<path d="M11.619 28.2197H9.95898V26.5597H11.619V28.2197Z" fill="#B3DDDB"/>
<path d="M9.96078 28.2197H8.30078V26.5597H9.96078V28.2197Z" fill="#FBFAE3"/>
<path d="M8.30063 28.2197H6.64062V26.5597H8.30063V28.2197Z" fill="#EDFDED"/>
<path d="M6.64047 28.2197H4.98047V26.5597H6.64047V28.2197Z" fill="#B6DCDF"/>
<path d="M4.98031 28.2197H3.32031V26.5597H4.98031V28.2197Z" fill="#52C9E4"/>
<path d="M3.32016 28.2197H1.66016V26.5597H3.32016V28.2197Z" fill="#37A9C3"/>
<path d="M1.66 28.2197H0V26.5597H1.66V28.2197Z" fill="#2B8196"/>
<path d="M18.2596 29.8799H16.5996V28.2199H18.2596V29.8799Z" fill="#246372"/>
<path d="M16.5995 29.8799H14.9395V28.2199H16.5995V29.8799Z" fill="#2880A2"/>
<path d="M14.9393 29.8799H13.2793V28.2199H14.9393V29.8799Z" fill="#33A9CB"/>
<path d="M13.2791 29.8799H11.6191V28.2199H13.2791V29.8799Z" fill="#D5F1FA"/>
<path d="M11.619 29.8799H9.95898V28.2199H11.619V29.8799Z" fill="#FBFAE8"/>
<path d="M9.96078 29.8799H8.30078V28.2199H9.96078V29.8799Z" fill="#F7FBE5"/>
<path d="M8.30063 29.8799H6.64062V28.2199H8.30063V29.8799Z" fill="#F7FEDA"/>
<path d="M6.64047 29.8799H4.98047V28.2199H6.64047V29.8799Z" fill="#F9F9F5"/>
<path d="M4.98031 29.8799H3.32031V28.2199H4.98031V29.8799Z" fill="#5FC9DF"/>
<path d="M3.32016 29.8799H1.66016V28.2199H3.32016V29.8799Z" fill="#2FAEBD"/>
<path d="M1.66 29.8799H0V28.2199H1.66V29.8799Z" fill="#2B8097"/>
<path d="M18.2596 31.54H16.5996V29.88H18.2596V31.54Z" fill="#23686F"/>
<path d="M16.5995 31.54H14.9395V29.88H16.5995V31.54Z" fill="#248294"/>
<path d="M14.9393 31.54H13.2793V29.88H14.9393V31.54Z" fill="#40A3BE"/>
<path d="M13.2791 31.54H11.6191V29.88H13.2791V31.54Z" fill="#C7F6F7"/>
<path d="M11.619 31.54H9.95898V29.88H11.619V31.54Z" fill="#FBFDE9"/>
<path d="M9.96078 31.54H8.30078V29.88H9.96078V31.54Z" fill="#FAF9E7"/>
<path d="M8.30063 31.54H6.64062V29.88H8.30063V31.54Z" fill="#F6FCEA"/>
<path d="M6.64047 31.54H4.98047V29.88H6.64047V31.54Z" fill="#FFFCDE"/>
<path d="M4.98031 31.54H3.32031V29.88H4.98031V31.54Z" fill="#58CBE6"/>
<path d="M3.32016 31.54H1.66016V29.88H3.32016V31.54Z" fill="#3BA5C5"/>
<path d="M1.66 31.54H0V29.88H1.66V31.54Z" fill="#238498"/>
<path d="M18.2596 33.1997H16.5996V31.5397H18.2596V33.1997Z" fill="#2D3B4B"/>
<path d="M16.5995 33.1997H14.9395V31.5397H16.5995V33.1997Z" fill="#3179A3"/>
<path d="M14.9393 33.1997H13.2793V31.5397H14.9393V33.1997Z" fill="#2B93B8"/>
<path d="M13.2791 33.1997H11.6191V31.5397H13.2791V33.1997Z" fill="#90D1DA"/>
<path d="M11.619 33.1997H9.95898V31.5397H11.619V33.1997Z" fill="#C4E1D6"/>
<path d="M9.96078 33.1997H8.30078V31.5397H9.96078V33.1997Z" fill="#F3FCE2"/>
<path d="M8.30063 33.1997H6.64062V31.5397H8.30063V33.1997Z" fill="#FFF5E2"/>
<path d="M6.64047 33.1997H4.98047V31.5397H6.64047V33.1997Z" fill="#B8E9DC"/>
<path d="M4.98031 33.1997H3.32031V31.5397H4.98031V33.1997Z" fill="#45A2C7"/>
<path d="M3.32016 33.1997H1.66016V31.5397H3.32016V33.1997Z" fill="#2F94AB"/>
<path d="M1.66 33.1997H0V31.5397H1.66V33.1997Z" fill="#1B5567"/>
<path d="M16.5995 34.8599H14.9395V33.1999H16.5995V34.8599Z" fill="#2B7B9C"/>
<path d="M14.9393 34.8599H13.2793V33.1999H14.9393V34.8599Z" fill="#1E84A6"/>
<path d="M13.2791 34.8599H11.6191V33.1999H13.2791V34.8599Z" fill="#47B9C2"/>
<path d="M11.619 34.8599H9.95898V33.1999H11.619V34.8599Z" fill="#79D6D3"/>
<path d="M9.96078 34.8599H8.30078V33.1999H9.96078V34.8599Z" fill="#E7F5F9"/>
<path d="M8.30063 34.8599H6.64062V33.1999H8.30063V34.8599Z" fill="#DBF9F3"/>
<path d="M6.64047 34.8599H4.98047V33.1999H6.64047V34.8599Z" fill="#81DFE1"/>
<path d="M4.98031 34.8599H3.32031V33.1999H4.98031V34.8599Z" fill="#3486AF"/>
<path d="M3.32016 34.8599H1.66016V33.1999H3.32016V34.8599Z" fill="#298299"/>
<path d="M16.5995 36.52H14.9395V34.86H16.5995V36.52Z" fill="#36525A"/>
<path d="M14.9393 36.52H13.2793V34.86H14.9393V36.52Z" fill="#306D77"/>
<path d="M13.2791 36.52H11.6191V34.86H13.2791V36.52Z" fill="#2C86A1"/>
<path d="M11.619 36.52H9.95898V34.86H11.619V36.52Z" fill="#3B8DB8"/>
<path d="M9.96078 36.52H8.30078V34.86H9.96078V36.52Z" fill="#33ACCF"/>
<path d="M8.30063 36.52H6.64062V34.86H8.30063V36.52Z" fill="#3EACC2"/>
<path d="M6.64047 36.52H4.98047V34.86H6.64047V36.52Z" fill="#3A8CAC"/>
<path d="M4.98031 36.52H3.32031V34.86H4.98031V36.52Z" fill="#2F8594"/>
<path d="M3.32016 36.52H1.66016V34.86H3.32016V36.52Z" fill="#2C7284"/>
<path d="M14.9393 38.1797H13.2793V36.5197H14.9393V38.1797Z" fill="#1B5463"/>
<path d="M13.2791 38.1797H11.6191V36.5197H13.2791V38.1797Z" fill="#238498"/>
<path d="M11.619 38.1797H9.95898V36.5197H11.619V38.1797Z" fill="#277D9D"/>
<path d="M9.96078 38.1797H8.30078V36.5197H9.96078V38.1797Z" fill="#298398"/>
<path d="M8.30063 38.1797H6.64062V36.5197H8.30063V38.1797Z" fill="#2B829C"/>
<path d="M6.64047 38.1797H4.98047V36.5197H6.64047V38.1797Z" fill="#2784A1"/>
<path d="M4.98031 38.1797H3.32031V36.5197H4.98031V38.1797Z" fill="#22888D"/>
<path d="M3.32016 38.1797H1.66016V36.5197H3.32016V38.1797Z" fill="#1F5861"/>
<path d="M11.619 39.8398H9.95898V38.1798H11.619V39.8398Z" fill="#213C49"/>
<path d="M9.96078 39.8398H8.30078V38.1798H9.96078V39.8398Z" fill="#296973"/>
<path d="M8.30063 39.8398H6.64062V38.1798H8.30063V39.8398Z" fill="#2F6A69"/>
<path d="M6.64047 39.8398H4.98047V38.1798H6.64047V39.8398Z" fill="#1E4348"/>
</g>
</svg>
