<svg width="765" height="217" viewBox="0 0 765 217" fill="none" xmlns="http://www.w3.org/2000/svg">
<g style="mix-blend-mode:soft-light">
<path d="M13.4922 47.9905V53.9415H19.9503C19.9503 51.9611 19.9503 49.979 19.9503 47.9905H13.4922Z" fill="url(#paint0_linear_448_50188)"/>
<path d="M26.2555 11.3055H33.0284V20.5724H26.2661V25.3156H13.0478V30.132H26.2608V34.7722H32.9381V39.3716H39.7322V34.993H46.4414V44.2202H33.2762C33.1523 45.9282 33.0496 47.3658 32.9328 48.9807H26.4945V53.8529H19.6153V56H885.057V53.9919C887.132 53.9919 889.214 53.9919 891.718 53.9919V55.9988H898.591V53.9832H905.245V55.9988H912V53.9112H905.353C905.314 50.7768 905.275 47.6424 905.234 44.5079H898.631V39.8702H891.858V44.2686H885.084V39.8466C882.657 39.7623 880.605 39.6916 878.396 39.6147V35.0798H891.697V30.2808H885.1V25.6294C882.68 25.5376 880.623 25.4595 878.406 25.3751V20.8713H884.884V16.1443C887.307 16.0525 889.359 15.9743 891.577 15.8887V11.3849H884.99V1.77698H303.132V1.83404H39.7906V6.3366H33.1682V1.77698H26.4998V6.42343H19.6153V11.0451H13V15.7263H26.2555V11.3055ZM46.4201 53.6892H40.1252V49.2325H46.4201V53.6892ZM878.49 49.3777H884.951C884.951 50.8946 884.951 52.4054 884.951 53.9174H878.49V49.3777ZM871.725 11.4296H878.019V15.8863H871.725V11.4296ZM53.1329 6.41102V15.7101H46.7246V11.2324H39.8969C39.8969 9.45367 39.8969 7.93049 39.8969 6.41102H53.1329ZM33.1399 20.6443H46.3777V25.2585H40.0385V30.0588H26.3705V25.3888H33.1399V20.6443Z" fill="url(#paint1_linear_448_50188)"/>
<path d="M6.17505 37.1857H0V43.1058H6.17505V37.1857Z" fill="url(#paint2_linear_448_50188)"/>
<path d="M26.6211 49.8289H20.1895V55.5555H26.6211V49.8289Z" fill="url(#paint3_linear_448_50188)"/>
<path d="M19.9486 0.0405273H13.4922V5.99151H19.9503C19.9486 4.0111 19.9486 2.03069 19.9486 0.0405273Z" fill="url(#paint4_linear_448_50188)"/>
<path d="M19.9473 6.09088H20.0548V5.9917L19.9473 6.09088Z" fill="url(#paint5_linear_448_50188)"/>
<path d="M19.9473 6.09088L20.0548 5.9917H19.9473V6.09088Z" fill="url(#paint6_linear_448_50188)"/>
<path d="M13.4922 101.99V107.941H19.9503C19.9503 105.961 19.9503 103.979 19.9503 101.99H13.4922Z" fill="url(#paint7_linear_448_50188)"/>
<path d="M26.2555 65.3055H33.0284V74.5724H26.2661V79.3156H13.0478V84.132H26.2608V88.7722H32.9381V93.3716H39.7322V88.993H46.4414V98.2202H33.2762C33.1523 99.9282 33.0496 101.366 32.9328 102.981H26.4945V107.853H19.6153V110H885.057V107.992C887.132 107.992 889.214 107.992 891.718 107.992V109.999H898.591V107.983H905.245V109.999H912V107.911H905.353C905.314 104.777 905.275 101.642 905.234 98.5079H898.631V93.8702H891.858V98.2686H885.084V93.8466C882.657 93.7623 880.605 93.6916 878.396 93.6147V89.0798H891.697V84.2808H885.1V79.6294C882.68 79.5376 880.623 79.4595 878.406 79.3751V74.8713H884.884V70.1443C887.307 70.0525 889.359 69.9743 891.577 69.8887V65.3849H884.99V55.777H303.132V55.834H39.7906V60.3366H33.1682V55.777H26.4998V60.4234H19.6153V65.0451H13V69.7263H26.2555V65.3055ZM46.4201 107.689H40.1252V103.233H46.4201V107.689ZM878.49 103.378H884.951C884.951 104.895 884.951 106.405 884.951 107.917H878.49V103.378ZM871.725 65.4296H878.019V69.8863H871.725V65.4296ZM53.1329 60.411V69.7101H46.7246V65.2324H39.8969C39.8969 63.4537 39.8969 61.9305 39.8969 60.411H53.1329ZM33.1399 74.6443H46.3777V79.2585H40.0385V84.0588H26.3705V79.3888H33.1399V74.6443Z" fill="url(#paint8_linear_448_50188)"/>
<path d="M6.17505 91.1857H0V97.1058H6.17505V91.1857Z" fill="url(#paint9_linear_448_50188)"/>
<path d="M26.6211 103.829H20.1895V109.555H26.6211V103.829Z" fill="url(#paint10_linear_448_50188)"/>
<path d="M19.9486 54.0405H13.4922V59.9915H19.9503C19.9486 58.0111 19.9486 56.0307 19.9486 54.0405Z" fill="url(#paint11_linear_448_50188)"/>
<path d="M19.9473 60.0909H20.0548V59.9917L19.9473 60.0909Z" fill="url(#paint12_linear_448_50188)"/>
<path d="M19.9473 60.0909L20.0548 59.9917H19.9473V60.0909Z" fill="url(#paint13_linear_448_50188)"/>
<path d="M13.4922 154.99V160.941H19.9503C19.9503 158.961 19.9503 156.979 19.9503 154.99H13.4922Z" fill="url(#paint14_linear_448_50188)"/>
<path d="M26.2555 118.306H33.0284V127.572H26.2661V132.316H13.0478V137.132H26.2608V141.772H32.9381V146.372H39.7322V141.993H46.4414V151.22H33.2762C33.1523 152.928 33.0496 154.366 32.9328 155.981H26.4945V160.853H19.6153V163H885.057V160.992C887.132 160.992 889.214 160.992 891.718 160.992V162.999H898.591V160.983H905.245V162.999H912V160.911H905.353C905.314 157.777 905.275 154.642 905.234 151.508H898.631V146.87H891.858V151.269H885.084V146.847C882.657 146.762 880.605 146.692 878.396 146.615V142.08H891.697V137.281H885.1V132.629C882.68 132.538 880.623 132.459 878.406 132.375V127.871H884.884V123.144C887.307 123.052 889.359 122.974 891.577 122.889V118.385H884.99V108.777H303.132V108.834H39.7906V113.337H33.1682V108.777H26.4998V113.423H19.6153V118.045H13V122.726H26.2555V118.306ZM46.4201 160.689H40.1252V156.233H46.4201V160.689ZM878.49 156.378H884.951C884.951 157.895 884.951 159.405 884.951 160.917H878.49V156.378ZM871.725 118.43H878.019V122.886H871.725V118.43ZM53.1329 113.411V122.71H46.7246V118.232H39.8969C39.8969 116.454 39.8969 114.93 39.8969 113.411H53.1329ZM33.1399 127.644H46.3777V132.259H40.0385V137.059H26.3705V132.389H33.1399V127.644Z" fill="url(#paint15_linear_448_50188)"/>
<path d="M6.17505 144.186H0V150.106H6.17505V144.186Z" fill="url(#paint16_linear_448_50188)"/>
<path d="M26.6211 156.829H20.1895V162.555H26.6211V156.829Z" fill="url(#paint17_linear_448_50188)"/>
<path d="M19.9486 107.041H13.4922V112.992H19.9503C19.9486 111.011 19.9486 109.031 19.9486 107.041Z" fill="url(#paint18_linear_448_50188)"/>
<path d="M19.9473 113.091H20.0548V112.992L19.9473 113.091Z" fill="url(#paint19_linear_448_50188)"/>
<path d="M19.9473 113.091L20.0548 112.992H19.9473V113.091Z" fill="url(#paint20_linear_448_50188)"/>
<path d="M13.4922 208.99V214.941H19.9503C19.9503 212.961 19.9503 210.979 19.9503 208.99H13.4922Z" fill="url(#paint21_linear_448_50188)"/>
<path d="M26.2555 172.306H33.0284V181.572H26.2661V186.316H13.0478V191.132H26.2608V195.772H32.9381V200.372H39.7322V195.993H46.4414V205.22H33.2762C33.1523 206.928 33.0496 208.366 32.9328 209.981H26.4945V214.853H19.6153V217H885.057V214.992C887.132 214.992 889.214 214.992 891.718 214.992V216.999H898.591V214.983H905.245V216.999H912V214.911H905.353C905.314 211.777 905.275 208.642 905.234 205.508H898.631V200.87H891.858V205.269H885.084V200.847C882.657 200.762 880.605 200.692 878.396 200.615V196.08H891.697V191.281H885.1V186.629C882.68 186.538 880.623 186.459 878.406 186.375V181.871H884.884V177.144C887.307 177.052 889.359 176.974 891.577 176.889V172.385H884.99V162.777H303.132V162.834H39.7906V167.337H33.1682V162.777H26.4998V167.423H19.6153V172.045H13V176.726H26.2555V172.306ZM46.4201 214.689H40.1252V210.233H46.4201V214.689ZM878.49 210.378H884.951C884.951 211.895 884.951 213.405 884.951 214.917H878.49V210.378ZM871.725 172.43H878.019V176.886H871.725V172.43ZM53.1329 167.411V176.71H46.7246V172.232H39.8969C39.8969 170.454 39.8969 168.93 39.8969 167.411H53.1329ZM33.1399 181.644H46.3777V186.259H40.0385V191.059H26.3705V186.389H33.1399V181.644Z" fill="url(#paint22_linear_448_50188)"/>
<path d="M6.17505 198.186H0V204.106H6.17505V198.186Z" fill="url(#paint23_linear_448_50188)"/>
<path d="M26.6211 210.829H20.1895V216.555H26.6211V210.829Z" fill="url(#paint24_linear_448_50188)"/>
<path d="M19.9486 161.041H13.4922V166.992H19.9503C19.9486 165.011 19.9486 163.031 19.9486 161.041Z" fill="url(#paint25_linear_448_50188)"/>
<path d="M19.9473 167.091H20.0548V166.992L19.9473 167.091Z" fill="url(#paint26_linear_448_50188)"/>
<path d="M19.9473 167.091L20.0548 166.992H19.9473V167.091Z" fill="url(#paint27_linear_448_50188)"/>
</g>
<path d="M515.96 92.28H517.4V85.08H515.96V83.64H507.32V93.72H515.96V92.28ZM521.72 83.64V93.72H520.28V95.16H518.84V96.6H517.4V98.04H507.32V111H503V79.32H517.4V80.76H518.84V82.2H520.28V83.64H521.72ZM543.329 106.68V111H524.609V79.32H528.929V106.68H543.329ZM550.539 99.48H560.619V98.04V96.6H559.179V93.72H557.739V90.84H556.299V87.96H554.859V90.84H553.419V93.72H551.979V96.6H550.539V98.04V99.48ZM564.939 99.48V111H560.619V103.8H550.539V111H546.219V99.48V98.04V95.16H547.659V92.28H549.099V89.4H550.539V86.52H551.979V83.64H553.419V80.76H554.859V79.32H556.299V80.76H557.739V83.64H559.179V86.52H560.619V89.4H562.059V92.28H563.499V95.16H564.939V98.04V99.48ZM586.548 79.32V83.64H579.348V111H575.028V83.64H567.828V79.32H586.548ZM608.158 106.68V111H589.438V106.68H596.638V83.64H593.758V79.32H603.838V83.64H600.958V106.68H608.158ZM629.767 79.32V111H625.447V109.56H624.007V106.68H622.567V103.8H621.127V100.92H619.687V98.04H618.247V95.16H616.807V92.28H615.367V111H611.047V79.32H613.927V82.2H615.367V85.08H616.807V87.96H618.247V90.84H619.687V93.72H621.127V96.6H622.567V99.48H624.007V102.36H625.447V79.32H629.767ZM651.376 79.32V106.68H649.936V108.12H648.496V109.56H647.056V111H636.976V109.56H635.536V108.12H634.096V106.68H632.656V79.32H636.976V105.24H638.416V106.68H645.616V105.24H647.056V79.32H651.376ZM672.986 79.32V111H668.666V95.16H667.226V98.04H665.786V100.92H664.346V103.8H662.906V100.92H661.466V98.04H660.026V95.16H658.586V111H654.266V79.32H655.706V82.2H657.146V85.08H658.586V87.96H660.026V90.84H661.466V93.72H662.906V96.6H664.346V93.72H665.786V90.84H667.226V87.96H668.666V85.08H670.106V82.2H671.546V79.32H672.986Z" fill="url(#paint28_linear_448_50188)"/>
<path d="M513.36 126.8V131.84H512.64V132.56H511.92V133.28H511.2V134H506.16V133.28H505.44V132.56H504.72V131.84H504V129.68H506.16V131.12H506.88V131.84H510.48V131.12H511.2V127.52H510.48V126.8H506.16V126.08H505.44V125.36H504.72V124.64H504V120.32H504.72V119.6H505.44V118.88H506.16V118.16H511.2V118.88H511.92V119.6H512.64V120.32H513.36V122.48H511.2V121.04H510.48V120.32H506.88V121.04H506.16V123.92H506.88V124.64H511.2V125.36H511.92V126.08H512.64V126.8H513.36ZM533.285 124.64H534.005V121.04H533.285V120.32H528.965V125.36H533.285V124.64ZM536.165 120.32V125.36H535.445V126.08H534.725V126.8H534.005V127.52H528.965V134H526.805V118.16H534.005V118.88H534.725V119.6H535.445V120.32H536.165ZM556.089 130.4H556.809V121.76H556.089V121.04H555.369V120.32H553.209V121.04H552.489V121.76H551.769V130.4H552.489V131.12H553.209V131.84H555.369V131.12H556.089V130.4ZM558.969 121.04V131.12H558.249V131.84H557.529V132.56H556.809V133.28H556.089V134H552.489V133.28H551.769V132.56H551.049V131.84H550.329V131.12H549.609V121.04H550.329V120.32H551.049V119.6H551.769V118.88H552.489V118.16H556.089V118.88H556.809V119.6H557.529V120.32H558.249V121.04H558.969ZM581.774 118.16V134H579.614V133.28H578.894V131.84H578.174V130.4H577.454V128.96H576.734V127.52H576.014V126.08H575.294V124.64H574.574V134H572.414V118.16H573.854V119.6H574.574V121.04H575.294V122.48H576.014V123.92H576.734V125.36H577.454V126.8H578.174V128.24H578.894V129.68H579.614V118.16H581.774ZM604.579 126.8V131.84H603.859V132.56H603.139V133.28H602.419V134H597.379V133.28H596.659V132.56H595.939V131.84H595.219V129.68H597.379V131.12H598.099V131.84H601.699V131.12H602.419V127.52H601.699V126.8H597.379V126.08H596.659V125.36H595.939V124.64H595.219V120.32H595.939V119.6H596.659V118.88H597.379V118.16H602.419V118.88H603.139V119.6H603.859V120.32H604.579V122.48H602.419V121.04H601.699V120.32H598.099V121.04H597.379V123.92H598.099V124.64H602.419V125.36H603.139V126.08H603.859V126.8H604.579ZM624.503 130.4H625.223V121.76H624.503V121.04H623.783V120.32H621.623V121.04H620.903V121.76H620.183V130.4H620.903V131.12H621.623V131.84H623.783V131.12H624.503V130.4ZM627.383 121.04V131.12H626.663V131.84H625.943V132.56H625.223V133.28H624.503V134H620.903V133.28H620.183V132.56H619.463V131.84H618.743V131.12H618.023V121.04H618.743V120.32H619.463V119.6H620.183V118.88H620.903V118.16H624.503V118.88H625.223V119.6H625.943V120.32H626.663V121.04H627.383ZM647.308 123.92H648.028V121.04H647.308V120.32H642.988V124.64H647.308V123.92ZM650.188 130.4V134H648.028V131.12H647.308V129.68H646.588V128.24H645.868V126.8H642.988V134H640.828V118.16H648.028V118.88H648.748V119.6H649.468V120.32H650.188V124.64H649.468V125.36H648.748V126.08H648.028V127.52H648.748V128.96H649.468V130.4H650.188ZM672.993 126.8V131.84H672.273V132.56H671.553V133.28H670.833V134H665.793V133.28H665.073V132.56H664.353V131.84H663.633V129.68H665.793V131.12H666.513V131.84H670.113V131.12H670.833V127.52H670.113V126.8H665.793V126.08H665.073V125.36H664.353V124.64H663.633V120.32H664.353V119.6H665.073V118.88H665.793V118.16H670.833V118.88H671.553V119.6H672.273V120.32H672.993V122.48H670.833V121.04H670.113V120.32H666.513V121.04H665.793V123.92H666.513V124.64H670.833V125.36H671.553V126.08H672.273V126.8H672.993Z" fill="url(#paint29_linear_448_50188)"/>
<defs>
<linearGradient id="paint0_linear_448_50188" x1="13.4922" y1="50.966" x2="19.9503" y2="50.966" gradientUnits="userSpaceOnUse">
<stop/>
<stop offset="0.0001" stop-color="#020101"/>
<stop offset="0.299" stop-color="#E74C3C"/>
<stop offset="0.879"/>
</linearGradient>
<linearGradient id="paint1_linear_448_50188" x1="13" y1="28.8885" x2="912" y2="28.8885" gradientUnits="userSpaceOnUse">
<stop/>
<stop offset="0.0001" stop-color="#020101"/>
<stop offset="0.299" stop-color="#E74C3C"/>
<stop offset="0.879"/>
</linearGradient>
<linearGradient id="paint2_linear_448_50188" x1="0" y1="40.1457" x2="6.17505" y2="40.1457" gradientUnits="userSpaceOnUse">
<stop/>
<stop offset="0.0001" stop-color="#020101"/>
<stop offset="0.299" stop-color="#E74C3C"/>
<stop offset="0.879"/>
</linearGradient>
<linearGradient id="paint3_linear_448_50188" x1="20.1895" y1="52.6922" x2="26.6211" y2="52.6922" gradientUnits="userSpaceOnUse">
<stop/>
<stop offset="0.0001" stop-color="#020101"/>
<stop offset="0.299" stop-color="#E74C3C"/>
<stop offset="0.879"/>
</linearGradient>
<linearGradient id="paint4_linear_448_50188" x1="13.4922" y1="3.01602" x2="19.9503" y2="3.01602" gradientUnits="userSpaceOnUse">
<stop/>
<stop offset="0.0001" stop-color="#020101"/>
<stop offset="0.299" stop-color="#E74C3C"/>
<stop offset="0.879"/>
</linearGradient>
<linearGradient id="paint5_linear_448_50188" x1="19.9473" y1="6.04129" x2="20.0548" y2="6.04129" gradientUnits="userSpaceOnUse">
<stop/>
<stop offset="0.0001" stop-color="#020101"/>
<stop offset="0.299" stop-color="#E74C3C"/>
<stop offset="0.879"/>
</linearGradient>
<linearGradient id="paint6_linear_448_50188" x1="19.9473" y1="6.04129" x2="20.0548" y2="6.04129" gradientUnits="userSpaceOnUse">
<stop/>
<stop offset="0.0001" stop-color="#020101"/>
<stop offset="0.299" stop-color="#E74C3C"/>
<stop offset="0.879"/>
</linearGradient>
<linearGradient id="paint7_linear_448_50188" x1="13.4922" y1="104.966" x2="19.9503" y2="104.966" gradientUnits="userSpaceOnUse">
<stop/>
<stop offset="0.0001" stop-color="#020101"/>
<stop offset="0.299" stop-color="#E74C3C"/>
<stop offset="0.879"/>
</linearGradient>
<linearGradient id="paint8_linear_448_50188" x1="13" y1="82.8885" x2="912" y2="82.8885" gradientUnits="userSpaceOnUse">
<stop/>
<stop offset="0.0001" stop-color="#020101"/>
<stop offset="0.299" stop-color="#E74C3C"/>
<stop offset="0.879"/>
</linearGradient>
<linearGradient id="paint9_linear_448_50188" x1="0" y1="94.1457" x2="6.17505" y2="94.1457" gradientUnits="userSpaceOnUse">
<stop/>
<stop offset="0.0001" stop-color="#020101"/>
<stop offset="0.299" stop-color="#E74C3C"/>
<stop offset="0.879"/>
</linearGradient>
<linearGradient id="paint10_linear_448_50188" x1="20.1895" y1="106.692" x2="26.6211" y2="106.692" gradientUnits="userSpaceOnUse">
<stop/>
<stop offset="0.0001" stop-color="#020101"/>
<stop offset="0.299" stop-color="#E74C3C"/>
<stop offset="0.879"/>
</linearGradient>
<linearGradient id="paint11_linear_448_50188" x1="13.4922" y1="57.016" x2="19.9503" y2="57.016" gradientUnits="userSpaceOnUse">
<stop/>
<stop offset="0.0001" stop-color="#020101"/>
<stop offset="0.299" stop-color="#E74C3C"/>
<stop offset="0.879"/>
</linearGradient>
<linearGradient id="paint12_linear_448_50188" x1="19.9473" y1="60.0413" x2="20.0548" y2="60.0413" gradientUnits="userSpaceOnUse">
<stop/>
<stop offset="0.0001" stop-color="#020101"/>
<stop offset="0.299" stop-color="#E74C3C"/>
<stop offset="0.879"/>
</linearGradient>
<linearGradient id="paint13_linear_448_50188" x1="19.9473" y1="60.0413" x2="20.0548" y2="60.0413" gradientUnits="userSpaceOnUse">
<stop/>
<stop offset="0.0001" stop-color="#020101"/>
<stop offset="0.299" stop-color="#E74C3C"/>
<stop offset="0.879"/>
</linearGradient>
<linearGradient id="paint14_linear_448_50188" x1="13.4922" y1="157.966" x2="19.9503" y2="157.966" gradientUnits="userSpaceOnUse">
<stop/>
<stop offset="0.0001" stop-color="#020101"/>
<stop offset="0.299" stop-color="#E74C3C"/>
<stop offset="0.879"/>
</linearGradient>
<linearGradient id="paint15_linear_448_50188" x1="13" y1="135.889" x2="912" y2="135.889" gradientUnits="userSpaceOnUse">
<stop/>
<stop offset="0.0001" stop-color="#020101"/>
<stop offset="0.299" stop-color="#E74C3C"/>
<stop offset="0.879"/>
</linearGradient>
<linearGradient id="paint16_linear_448_50188" x1="0" y1="147.146" x2="6.17505" y2="147.146" gradientUnits="userSpaceOnUse">
<stop/>
<stop offset="0.0001" stop-color="#020101"/>
<stop offset="0.299" stop-color="#E74C3C"/>
<stop offset="0.879"/>
</linearGradient>
<linearGradient id="paint17_linear_448_50188" x1="20.1895" y1="159.692" x2="26.6211" y2="159.692" gradientUnits="userSpaceOnUse">
<stop/>
<stop offset="0.0001" stop-color="#020101"/>
<stop offset="0.299" stop-color="#E74C3C"/>
<stop offset="0.879"/>
</linearGradient>
<linearGradient id="paint18_linear_448_50188" x1="13.4922" y1="110.016" x2="19.9503" y2="110.016" gradientUnits="userSpaceOnUse">
<stop/>
<stop offset="0.0001" stop-color="#020101"/>
<stop offset="0.299" stop-color="#E74C3C"/>
<stop offset="0.879"/>
</linearGradient>
<linearGradient id="paint19_linear_448_50188" x1="19.9473" y1="113.041" x2="20.0548" y2="113.041" gradientUnits="userSpaceOnUse">
<stop/>
<stop offset="0.0001" stop-color="#020101"/>
<stop offset="0.299" stop-color="#E74C3C"/>
<stop offset="0.879"/>
</linearGradient>
<linearGradient id="paint20_linear_448_50188" x1="19.9473" y1="113.041" x2="20.0548" y2="113.041" gradientUnits="userSpaceOnUse">
<stop/>
<stop offset="0.0001" stop-color="#020101"/>
<stop offset="0.299" stop-color="#E74C3C"/>
<stop offset="0.879"/>
</linearGradient>
<linearGradient id="paint21_linear_448_50188" x1="13.4922" y1="211.966" x2="19.9503" y2="211.966" gradientUnits="userSpaceOnUse">
<stop/>
<stop offset="0.0001" stop-color="#020101"/>
<stop offset="0.299" stop-color="#E74C3C"/>
<stop offset="0.879"/>
</linearGradient>
<linearGradient id="paint22_linear_448_50188" x1="13" y1="189.889" x2="912" y2="189.889" gradientUnits="userSpaceOnUse">
<stop/>
<stop offset="0.0001" stop-color="#020101"/>
<stop offset="0.299" stop-color="#E74C3C"/>
<stop offset="0.879"/>
</linearGradient>
<linearGradient id="paint23_linear_448_50188" x1="0" y1="201.146" x2="6.17505" y2="201.146" gradientUnits="userSpaceOnUse">
<stop/>
<stop offset="0.0001" stop-color="#020101"/>
<stop offset="0.299" stop-color="#E74C3C"/>
<stop offset="0.879"/>
</linearGradient>
<linearGradient id="paint24_linear_448_50188" x1="20.1895" y1="213.692" x2="26.6211" y2="213.692" gradientUnits="userSpaceOnUse">
<stop/>
<stop offset="0.0001" stop-color="#020101"/>
<stop offset="0.299" stop-color="#E74C3C"/>
<stop offset="0.879"/>
</linearGradient>
<linearGradient id="paint25_linear_448_50188" x1="13.4922" y1="164.016" x2="19.9503" y2="164.016" gradientUnits="userSpaceOnUse">
<stop/>
<stop offset="0.0001" stop-color="#020101"/>
<stop offset="0.299" stop-color="#E74C3C"/>
<stop offset="0.879"/>
</linearGradient>
<linearGradient id="paint26_linear_448_50188" x1="19.9473" y1="167.041" x2="20.0548" y2="167.041" gradientUnits="userSpaceOnUse">
<stop/>
<stop offset="0.0001" stop-color="#020101"/>
<stop offset="0.299" stop-color="#E74C3C"/>
<stop offset="0.879"/>
</linearGradient>
<linearGradient id="paint27_linear_448_50188" x1="19.9473" y1="167.041" x2="20.0548" y2="167.041" gradientUnits="userSpaceOnUse">
<stop/>
<stop offset="0.0001" stop-color="#020101"/>
<stop offset="0.299" stop-color="#E74C3C"/>
<stop offset="0.879"/>
</linearGradient>
<linearGradient id="paint28_linear_448_50188" x1="677" y1="96.5" x2="503" y2="96.5" gradientUnits="userSpaceOnUse">
<stop stop-color="#6258FF"/>
<stop offset="1" stop-color="#FFA6BC"/>
</linearGradient>
<linearGradient id="paint29_linear_448_50188" x1="675" y1="127" x2="504" y2="127" gradientUnits="userSpaceOnUse">
<stop stop-color="#6258FF"/>
<stop offset="1" stop-color="#FFA6BC"/>
</linearGradient>
</defs>
</svg>
