<svg width="1102" height="1101" viewBox="0 0 1102 1101" fill="none" xmlns="http://www.w3.org/2000/svg">
<path d="M4.34326 481.047C2.56128 495.19 1.31616 509.5 0.629272 523.955C2.0061 524.017 3.07312 525.183 3.01392 526.56C2.67249 534.497 2.5 542.478 2.5 550.5C2.5 558.522 2.67249 566.503 3.01392 574.44C3.07312 575.818 2.00598 576.983 0.629272 577.045C1.31616 591.501 2.56128 605.81 4.34326 619.953C5.71008 619.777 6.96179 620.742 7.14038 622.109C9.2207 638.036 11.9856 653.748 15.4044 669.214C15.7021 670.56 14.8535 671.893 13.5085 672.193C16.6866 686.265 20.4042 700.132 24.6382 713.772C25.9534 713.36 27.3542 714.091 27.7689 715.406C32.589 730.686 38.0612 745.678 44.153 760.348C44.6816 761.621 44.0797 763.082 42.8081 763.613C48.3915 776.887 54.4806 789.897 61.0515 802.617C62.2745 801.982 63.7815 802.456 64.4199 803.678C71.8219 817.849 79.826 831.656 88.3983 845.066C89.1409 846.228 88.8027 847.771 87.6432 848.516C95.4404 860.592 103.698 872.344 112.39 883.747C113.484 882.909 115.051 883.114 115.892 884.207C125.626 896.857 135.901 909.071 146.682 920.814C147.614 921.829 147.548 923.408 146.535 924.342C156.292 934.874 166.456 945.024 177.002 954.767C177.934 953.753 179.513 953.685 180.53 954.616C192.286 965.38 204.514 975.638 217.178 985.357C218.272 986.196 218.479 987.762 217.642 988.857C229.056 997.534 240.818 1005.78 252.905 1013.56C253.648 1012.4 255.191 1012.06 256.354 1012.8C269.773 1021.36 283.59 1029.34 297.77 1036.73C298.993 1037.37 299.469 1038.87 298.835 1040.1C311.562 1046.65 324.578 1052.73 337.858 1058.3C338.388 1057.03 339.848 1056.42 341.122 1056.95C355.797 1063.03 370.794 1068.49 386.079 1073.3C387.395 1073.71 388.126 1075.11 387.716 1076.43C401.359 1080.65 415.228 1084.36 429.302 1087.53C429.601 1086.18 430.933 1085.33 432.28 1085.63C447.748 1089.04 463.461 1091.8 479.389 1093.87C480.757 1094.05 481.721 1095.3 481.546 1096.67C495.689 1098.45 509.999 1099.69 524.455 1100.37C524.517 1099 525.682 1097.93 527.06 1097.99C534.997 1098.33 542.978 1098.5 551 1098.5C559.022 1098.5 567.003 1098.33 574.94 1097.99C576.318 1097.93 577.483 1099 577.545 1100.37C592.001 1099.69 606.311 1098.45 620.454 1096.67C620.279 1095.3 621.244 1094.05 622.611 1093.87C638.539 1091.8 654.252 1089.04 669.72 1085.63C671.067 1085.33 672.399 1086.18 672.699 1087.53C686.772 1084.36 700.642 1080.65 714.284 1076.43C713.874 1075.11 714.605 1073.71 715.921 1073.3C731.206 1068.49 746.203 1063.03 760.878 1056.95C762.152 1056.42 763.612 1057.03 764.142 1058.3C777.422 1052.73 790.438 1046.65 803.165 1040.1C802.531 1038.87 803.007 1037.37 804.23 1036.73C818.41 1029.34 832.227 1021.36 845.646 1012.8C846.809 1012.06 848.352 1012.4 849.095 1013.56C861.182 1005.78 872.944 997.534 884.358 988.857C883.521 987.762 883.729 986.196 884.822 985.357C897.486 975.638 909.714 965.38 921.47 954.616C922.487 953.685 924.066 953.753 924.999 954.767C935.544 945.024 945.708 934.874 955.465 924.342C954.452 923.408 954.386 921.829 955.318 920.813C966.099 909.071 976.374 896.857 986.108 884.207C986.949 883.114 988.516 882.909 989.61 883.747C998.302 872.344 1006.56 860.592 1014.36 848.516C1013.2 847.771 1012.86 846.228 1013.6 845.066C1022.17 831.656 1030.18 817.849 1037.58 803.678C1038.22 802.456 1039.73 801.982 1040.95 802.617C1047.52 789.896 1053.61 776.887 1059.19 763.613C1057.92 763.082 1057.32 761.621 1057.85 760.348C1063.94 745.678 1069.41 730.686 1074.23 715.406C1074.65 714.091 1076.05 713.36 1077.36 713.772C1081.6 700.132 1085.31 686.264 1088.49 672.193C1087.15 671.893 1086.3 670.56 1086.6 669.214C1090.01 653.748 1092.78 638.036 1094.86 622.109C1095.04 620.741 1096.29 619.777 1097.66 619.953C1099.44 605.81 1100.68 591.5 1101.37 577.045C1099.99 576.983 1098.93 575.817 1098.99 574.44C1099.33 566.503 1099.5 558.522 1099.5 550.5C1099.5 542.478 1099.33 534.497 1098.99 526.56C1098.93 525.182 1099.99 524.017 1101.37 523.955C1100.68 509.499 1099.44 495.19 1097.66 481.047C1096.29 481.223 1095.04 480.258 1094.86 478.891C1092.78 462.964 1090.01 447.252 1086.6 431.786C1086.3 430.44 1087.15 429.107 1088.49 428.807C1085.31 414.735 1081.6 400.868 1077.36 387.228C1076.05 387.64 1074.65 386.909 1074.23 385.594C1069.41 370.314 1063.94 355.322 1057.85 340.652C1057.32 339.379 1057.92 337.918 1059.19 337.387C1053.61 324.113 1047.52 311.103 1040.95 298.383C1039.73 299.018 1038.22 298.544 1037.58 297.322C1030.18 283.151 1022.17 269.344 1013.6 255.934C1012.86 254.772 1013.2 253.229 1014.36 252.484C1006.56 240.408 998.302 228.656 989.61 217.253C988.516 218.091 986.949 217.886 986.108 216.793C976.374 204.143 966.099 191.929 955.318 180.186C954.386 179.171 954.452 177.592 955.465 176.658C945.708 166.126 935.544 155.976 924.998 146.233C924.066 147.247 922.487 147.315 921.47 146.384C909.714 135.62 897.486 125.362 884.822 115.643C883.728 114.804 883.521 113.238 884.358 112.143C872.944 103.466 861.182 95.2233 849.095 87.4405C848.352 88.6009 846.809 88.941 845.646 88.1998C832.227 79.6447 818.41 71.6568 804.23 64.2701C803.007 63.6331 802.531 62.1266 803.165 60.9029C790.438 54.3465 777.422 48.271 764.142 42.7002C763.612 43.9723 762.152 44.5758 760.878 44.0482C746.203 37.9709 731.206 32.5117 715.921 27.7033C714.605 27.2895 713.874 25.8893 714.284 24.5738C700.642 20.3505 686.772 16.6425 672.698 13.4726C672.399 14.8177 671.067 15.667 669.72 15.3702C654.252 11.9603 638.539 9.20273 622.611 7.12786C621.243 6.94976 620.279 5.69845 620.454 4.33149C606.311 2.55429 592.001 1.31267 577.545 0.627616C577.483 2.00436 576.318 3.07167 574.94 3.01257C567.003 2.67202 559.022 2.5 551 2.5C542.978 2.5 534.997 2.67203 527.06 3.01257C525.682 3.07168 524.517 2.00437 524.455 0.627622C509.999 1.31268 495.689 2.55431 481.546 4.33152C481.721 5.69847 480.756 6.94978 479.389 7.12789C463.461 9.20276 447.748 11.9603 432.28 15.3702C430.933 15.6671 429.601 14.8177 429.301 13.4726C415.228 16.6425 401.358 20.3505 387.716 24.5738C388.126 25.8893 387.395 27.2896 386.079 27.7033C370.794 32.5118 355.797 37.9709 341.122 44.0483C339.848 44.5758 338.388 43.9723 337.858 42.7003C324.578 48.271 311.562 54.3466 298.835 60.903C299.469 62.1266 298.993 63.6332 297.77 64.2702C283.59 71.6569 269.773 79.6448 256.354 88.1999C255.191 88.9411 253.648 88.601 252.905 87.4406C240.818 95.2233 229.056 103.466 217.642 112.143C218.479 113.238 218.271 114.804 217.178 115.643C204.514 125.362 192.286 135.62 180.53 146.384C179.513 147.315 177.934 147.247 177.001 146.233C166.456 155.976 156.292 166.126 146.535 176.658C147.548 177.592 147.614 179.171 146.682 180.187C135.901 191.929 125.626 204.143 115.892 216.793C115.051 217.886 113.484 218.091 112.39 217.253C103.698 228.656 95.4404 240.408 87.6432 252.484C88.8027 253.229 89.1409 254.772 88.3983 255.934C79.826 269.344 71.8219 283.151 64.4198 297.322C63.7815 298.544 62.2744 299.018 61.0515 298.383C54.4806 311.104 48.3915 324.113 42.8081 337.387C44.0796 337.918 44.6816 339.379 44.1528 340.652C38.0612 355.322 32.589 370.314 27.7689 385.594C27.3542 386.909 25.9534 387.64 24.6382 387.228C20.4042 400.868 16.6866 414.736 13.5085 428.807C14.8535 429.107 15.7021 430.44 15.4044 431.786C11.9856 447.252 9.2207 462.964 7.14038 478.891C6.96179 480.259 5.71008 481.223 4.34326 481.047Z" stroke="#40A8DB" stroke-width="5" stroke-linecap="round" stroke-dasharray="50 50"/>
</svg>
