<svg width="763" height="217" viewBox="0 0 763 217" fill="none" xmlns="http://www.w3.org/2000/svg">
<g style="mix-blend-mode:soft-light">
<path d="M13.4922 47.9905V53.9415H19.9503C19.9503 51.9611 19.9503 49.979 19.9503 47.9905H13.4922Z" fill="url(#paint0_linear_448_50241)"/>
<path d="M26.2555 11.3055H33.0284V20.5724H26.2661V25.3156H13.0478V30.132H26.2608V34.7722H32.9381V39.3716H39.7322V34.993H46.4414V44.2202H33.2762C33.1523 45.9282 33.0496 47.3658 32.9328 48.9807H26.4945V53.8529H19.6153V56H885.057V53.9919C887.132 53.9919 889.214 53.9919 891.718 53.9919V55.9988H898.591V53.9832H905.245V55.9988H912V53.9112H905.353C905.314 50.7768 905.275 47.6424 905.234 44.5079H898.631V39.8702H891.858V44.2686H885.084V39.8466C882.657 39.7623 880.605 39.6916 878.396 39.6147V35.0798H891.697V30.2808H885.1V25.6294C882.68 25.5376 880.623 25.4595 878.406 25.3751V20.8713H884.884V16.1443C887.307 16.0525 889.359 15.9743 891.577 15.8887V11.3849H884.99V1.77698H303.132V1.83404H39.7906V6.3366H33.1682V1.77698H26.4998V6.42343H19.6153V11.0451H13V15.7263H26.2555V11.3055ZM46.4201 53.6892H40.1252V49.2325H46.4201V53.6892ZM878.49 49.3777H884.951C884.951 50.8946 884.951 52.4054 884.951 53.9174H878.49V49.3777ZM871.725 11.4296H878.019V15.8863H871.725V11.4296ZM53.1329 6.41102V15.7101H46.7246V11.2324H39.8969C39.8969 9.45367 39.8969 7.93049 39.8969 6.41102H53.1329ZM33.1399 20.6443H46.3777V25.2585H40.0385V30.0588H26.3705V25.3888H33.1399V20.6443Z" fill="url(#paint1_linear_448_50241)"/>
<path d="M6.17505 37.1857H0V43.1058H6.17505V37.1857Z" fill="url(#paint2_linear_448_50241)"/>
<path d="M26.6211 49.8289H20.1895V55.5555H26.6211V49.8289Z" fill="url(#paint3_linear_448_50241)"/>
<path d="M19.9486 0.0405273H13.4922V5.99151H19.9503C19.9486 4.0111 19.9486 2.03069 19.9486 0.0405273Z" fill="url(#paint4_linear_448_50241)"/>
<path d="M19.9473 6.09088H20.0548V5.9917L19.9473 6.09088Z" fill="url(#paint5_linear_448_50241)"/>
<path d="M19.9473 6.09088L20.0548 5.9917H19.9473V6.09088Z" fill="url(#paint6_linear_448_50241)"/>
<path d="M13.4922 101.99V107.941H19.9503C19.9503 105.961 19.9503 103.979 19.9503 101.99H13.4922Z" fill="url(#paint7_linear_448_50241)"/>
<path d="M26.2555 65.3055H33.0284V74.5724H26.2661V79.3156H13.0478V84.132H26.2608V88.7722H32.9381V93.3716H39.7322V88.993H46.4414V98.2202H33.2762C33.1523 99.9282 33.0496 101.366 32.9328 102.981H26.4945V107.853H19.6153V110H885.057V107.992C887.132 107.992 889.214 107.992 891.718 107.992V109.999H898.591V107.983H905.245V109.999H912V107.911H905.353C905.314 104.777 905.275 101.642 905.234 98.5079H898.631V93.8702H891.858V98.2686H885.084V93.8466C882.657 93.7623 880.605 93.6916 878.396 93.6147V89.0798H891.697V84.2808H885.1V79.6294C882.68 79.5376 880.623 79.4595 878.406 79.3751V74.8713H884.884V70.1443C887.307 70.0525 889.359 69.9743 891.577 69.8887V65.3849H884.99V55.777H303.132V55.834H39.7906V60.3366H33.1682V55.777H26.4998V60.4234H19.6153V65.0451H13V69.7263H26.2555V65.3055ZM46.4201 107.689H40.1252V103.233H46.4201V107.689ZM878.49 103.378H884.951C884.951 104.895 884.951 106.405 884.951 107.917H878.49V103.378ZM871.725 65.4296H878.019V69.8863H871.725V65.4296ZM53.1329 60.411V69.7101H46.7246V65.2324H39.8969C39.8969 63.4537 39.8969 61.9305 39.8969 60.411H53.1329ZM33.1399 74.6443H46.3777V79.2585H40.0385V84.0588H26.3705V79.3888H33.1399V74.6443Z" fill="url(#paint8_linear_448_50241)"/>
<path d="M6.17505 91.1857H0V97.1058H6.17505V91.1857Z" fill="url(#paint9_linear_448_50241)"/>
<path d="M26.6211 103.829H20.1895V109.555H26.6211V103.829Z" fill="url(#paint10_linear_448_50241)"/>
<path d="M19.9486 54.0405H13.4922V59.9915H19.9503C19.9486 58.0111 19.9486 56.0307 19.9486 54.0405Z" fill="url(#paint11_linear_448_50241)"/>
<path d="M19.9473 60.0909H20.0548V59.9917L19.9473 60.0909Z" fill="url(#paint12_linear_448_50241)"/>
<path d="M19.9473 60.0909L20.0548 59.9917H19.9473V60.0909Z" fill="url(#paint13_linear_448_50241)"/>
<path d="M13.4922 154.99V160.941H19.9503C19.9503 158.961 19.9503 156.979 19.9503 154.99H13.4922Z" fill="url(#paint14_linear_448_50241)"/>
<path d="M26.2555 118.306H33.0284V127.572H26.2661V132.316H13.0478V137.132H26.2608V141.772H32.9381V146.372H39.7322V141.993H46.4414V151.22H33.2762C33.1523 152.928 33.0496 154.366 32.9328 155.981H26.4945V160.853H19.6153V163H885.057V160.992C887.132 160.992 889.214 160.992 891.718 160.992V162.999H898.591V160.983H905.245V162.999H912V160.911H905.353C905.314 157.777 905.275 154.642 905.234 151.508H898.631V146.87H891.858V151.269H885.084V146.847C882.657 146.762 880.605 146.692 878.396 146.615V142.08H891.697V137.281H885.1V132.629C882.68 132.538 880.623 132.459 878.406 132.375V127.871H884.884V123.144C887.307 123.052 889.359 122.974 891.577 122.889V118.385H884.99V108.777H303.132V108.834H39.7906V113.337H33.1682V108.777H26.4998V113.423H19.6153V118.045H13V122.726H26.2555V118.306ZM46.4201 160.689H40.1252V156.233H46.4201V160.689ZM878.49 156.378H884.951C884.951 157.895 884.951 159.405 884.951 160.917H878.49V156.378ZM871.725 118.43H878.019V122.886H871.725V118.43ZM53.1329 113.411V122.71H46.7246V118.232H39.8969C39.8969 116.454 39.8969 114.93 39.8969 113.411H53.1329ZM33.1399 127.644H46.3777V132.259H40.0385V137.059H26.3705V132.389H33.1399V127.644Z" fill="url(#paint15_linear_448_50241)"/>
<path d="M6.17505 144.186H0V150.106H6.17505V144.186Z" fill="url(#paint16_linear_448_50241)"/>
<path d="M26.6211 156.829H20.1895V162.555H26.6211V156.829Z" fill="url(#paint17_linear_448_50241)"/>
<path d="M19.9486 107.04H13.4922V112.991H19.9503C19.9486 111.011 19.9486 109.031 19.9486 107.04Z" fill="url(#paint18_linear_448_50241)"/>
<path d="M19.9473 113.091H20.0548V112.992L19.9473 113.091Z" fill="url(#paint19_linear_448_50241)"/>
<path d="M19.9473 113.091L20.0548 112.992H19.9473V113.091Z" fill="url(#paint20_linear_448_50241)"/>
<path d="M13.4922 208.99V214.941H19.9503C19.9503 212.961 19.9503 210.979 19.9503 208.99H13.4922Z" fill="url(#paint21_linear_448_50241)"/>
<path d="M26.2555 172.306H33.0284V181.572H26.2661V186.316H13.0478V191.132H26.2608V195.772H32.9381V200.372H39.7322V195.993H46.4414V205.22H33.2762C33.1523 206.928 33.0496 208.366 32.9328 209.981H26.4945V214.853H19.6153V217H885.057V214.992C887.132 214.992 889.214 214.992 891.718 214.992V216.999H898.591V214.983H905.245V216.999H912V214.911H905.353C905.314 211.777 905.275 208.642 905.234 205.508H898.631V200.87H891.858V205.269H885.084V200.847C882.657 200.762 880.605 200.692 878.396 200.615V196.08H891.697V191.281H885.1V186.629C882.68 186.538 880.623 186.459 878.406 186.375V181.871H884.884V177.144C887.307 177.052 889.359 176.974 891.577 176.889V172.385H884.99V162.777H303.132V162.834H39.7906V167.337H33.1682V162.777H26.4998V167.423H19.6153V172.045H13V176.726H26.2555V172.306ZM46.4201 214.689H40.1252V210.233H46.4201V214.689ZM878.49 210.378H884.951C884.951 211.895 884.951 213.405 884.951 214.917H878.49V210.378ZM871.725 172.43H878.019V176.886H871.725V172.43ZM53.1329 167.411V176.71H46.7246V172.232H39.8969C39.8969 170.454 39.8969 168.93 39.8969 167.411H53.1329ZM33.1399 181.644H46.3777V186.259H40.0385V191.059H26.3705V186.389H33.1399V181.644Z" fill="url(#paint22_linear_448_50241)"/>
<path d="M6.17505 198.186H0V204.106H6.17505V198.186Z" fill="url(#paint23_linear_448_50241)"/>
<path d="M26.6211 210.829H20.1895V216.555H26.6211V210.829Z" fill="url(#paint24_linear_448_50241)"/>
<path d="M19.9486 161.04H13.4922V166.991H19.9503C19.9486 165.011 19.9486 163.031 19.9486 161.04Z" fill="url(#paint25_linear_448_50241)"/>
<path d="M19.9473 167.091H20.0548V166.992L19.9473 167.091Z" fill="url(#paint26_linear_448_50241)"/>
<path d="M19.9473 167.091L20.0548 166.992H19.9473V167.091Z" fill="url(#paint27_linear_448_50241)"/>
</g>
<path d="M558.72 96.6V106.68H557.28V108.12H555.84V109.56H554.4V111H544.32V109.56H542.88V108.12H541.44V106.68H540V102.36H544.32V105.24H545.76V106.68H552.96V105.24H554.4V98.04H552.96V96.6H544.32V95.16H542.88V93.72H541.44V92.28H540V83.64H541.44V82.2H542.88V80.76H544.32V79.32H554.4V80.76H555.84V82.2H557.28V83.64H558.72V87.96H554.4V85.08H552.96V83.64H545.76V85.08H544.32V90.84H545.76V92.28H554.4V93.72H555.84V95.16H557.28V96.6H558.72ZM580.329 106.68V111H561.609V106.68H568.809V83.64H565.929V79.32H576.009V83.64H573.129V106.68H580.329ZM601.939 106.68V111H583.219V79.32H587.539V106.68H601.939ZM623.548 79.32V93.72H622.108V96.6H620.668V99.48H619.228V102.36H617.788V105.24H616.348V108.12H614.908V111H613.468V108.12H612.028V105.24H610.588V102.36H609.148V99.48H607.708V96.6H606.268V93.72H604.828V79.32H609.148V92.28H610.588V95.16H612.028V98.04H613.468V100.92H614.908V98.04H616.348V95.16H617.788V92.28H619.228V79.32H623.548ZM645.158 106.68V111H626.438V79.32H645.158V83.64H630.758V92.28H642.278V96.6H630.758V106.68H645.158ZM661.007 90.84H662.447V85.08H661.007V83.64H652.367V92.28H661.007V90.84ZM666.767 103.8V111H662.447V105.24H661.007V102.36H659.567V99.48H658.127V96.6H652.367V111H648.047V79.32H662.447V80.76H663.887V82.2H665.327V83.64H666.767V92.28H665.327V93.72H663.887V95.16H662.447V98.04H663.887V100.92H665.327V103.8H666.767Z" fill="url(#paint28_linear_448_50241)"/>
<path d="M549.36 125.8V130.84H548.64V131.56H547.92V132.28H547.2V133H542.16V132.28H541.44V131.56H540.72V130.84H540V128.68H542.16V130.12H542.88V130.84H546.48V130.12H547.2V126.52H546.48V125.8H542.16V125.08H541.44V124.36H540.72V123.64H540V119.32H540.72V118.6H541.44V117.88H542.16V117.16H547.2V117.88H547.92V118.6H548.64V119.32H549.36V121.48H547.2V120.04H546.48V119.32H542.88V120.04H542.16V122.92H542.88V123.64H547.2V124.36H547.92V125.08H548.64V125.8H549.36ZM563.285 123.64H564.005V120.04H563.285V119.32H558.965V124.36H563.285V123.64ZM566.165 119.32V124.36H565.445V125.08H564.725V125.8H564.005V126.52H558.965V133H556.805V117.16H564.005V117.88H564.725V118.6H565.445V119.32H566.165ZM580.089 129.4H580.809V120.76H580.089V120.04H579.369V119.32H577.209V120.04H576.489V120.76H575.769V129.4H576.489V130.12H577.209V130.84H579.369V130.12H580.089V129.4ZM582.969 120.04V130.12H582.249V130.84H581.529V131.56H580.809V132.28H580.089V133H576.489V132.28H575.769V131.56H575.049V130.84H574.329V130.12H573.609V120.04H574.329V119.32H575.049V118.6H575.769V117.88H576.489V117.16H580.089V117.88H580.809V118.6H581.529V119.32H582.249V120.04H582.969ZM599.774 117.16V133H597.614V132.28H596.894V130.84H596.174V129.4H595.454V127.96H594.734V126.52H594.014V125.08H593.294V123.64H592.574V133H590.414V117.16H591.854V118.6H592.574V120.04H593.294V121.48H594.014V122.92H594.734V124.36H595.454V125.8H596.174V127.24H596.894V128.68H597.614V117.16H599.774ZM616.579 125.8V130.84H615.859V131.56H615.139V132.28H614.419V133H609.379V132.28H608.659V131.56H607.939V130.84H607.219V128.68H609.379V130.12H610.099V130.84H613.699V130.12H614.419V126.52H613.699V125.8H609.379V125.08H608.659V124.36H607.939V123.64H607.219V119.32H607.939V118.6H608.659V117.88H609.379V117.16H614.419V117.88H615.139V118.6H615.859V119.32H616.579V121.48H614.419V120.04H613.699V119.32H610.099V120.04H609.379V122.92H610.099V123.64H614.419V124.36H615.139V125.08H615.859V125.8H616.579ZM630.503 129.4H631.223V120.76H630.503V120.04H629.783V119.32H627.623V120.04H626.903V120.76H626.183V129.4H626.903V130.12H627.623V130.84H629.783V130.12H630.503V129.4ZM633.383 120.04V130.12H632.663V130.84H631.943V131.56H631.223V132.28H630.503V133H626.903V132.28H626.183V131.56H625.463V130.84H624.743V130.12H624.023V120.04H624.743V119.32H625.463V118.6H626.183V117.88H626.903V117.16H630.503V117.88H631.223V118.6H631.943V119.32H632.663V120.04H633.383ZM647.308 122.92H648.028V120.04H647.308V119.32H642.988V123.64H647.308V122.92ZM650.188 129.4V133H648.028V130.12H647.308V128.68H646.588V127.24H645.868V125.8H642.988V133H640.828V117.16H648.028V117.88H648.748V118.6H649.468V119.32H650.188V123.64H649.468V124.36H648.748V125.08H648.028V126.52H648.748V127.96H649.468V129.4H650.188ZM666.993 125.8V130.84H666.273V131.56H665.553V132.28H664.833V133H659.793V132.28H659.073V131.56H658.353V130.84H657.633V128.68H659.793V130.12H660.513V130.84H664.113V130.12H664.833V126.52H664.113V125.8H659.793V125.08H659.073V124.36H658.353V123.64H657.633V119.32H658.353V118.6H659.073V117.88H659.793V117.16H664.833V117.88H665.553V118.6H666.273V119.32H666.993V121.48H664.833V120.04H664.113V119.32H660.513V120.04H659.793V122.92H660.513V123.64H664.833V124.36H665.553V125.08H666.273V125.8H666.993Z" fill="url(#paint29_linear_448_50241)"/>
<defs>
<linearGradient id="paint0_linear_448_50241" x1="13.4922" y1="50.966" x2="19.9503" y2="50.966" gradientUnits="userSpaceOnUse">
<stop/>
<stop offset="0.0001" stop-color="#020101"/>
<stop offset="0.299" stop-color="#E74C3C"/>
<stop offset="0.879"/>
</linearGradient>
<linearGradient id="paint1_linear_448_50241" x1="13" y1="28.8885" x2="912" y2="28.8885" gradientUnits="userSpaceOnUse">
<stop/>
<stop offset="0.0001" stop-color="#020101"/>
<stop offset="0.299" stop-color="#E74C3C"/>
<stop offset="0.879"/>
</linearGradient>
<linearGradient id="paint2_linear_448_50241" x1="0" y1="40.1457" x2="6.17505" y2="40.1457" gradientUnits="userSpaceOnUse">
<stop/>
<stop offset="0.0001" stop-color="#020101"/>
<stop offset="0.299" stop-color="#E74C3C"/>
<stop offset="0.879"/>
</linearGradient>
<linearGradient id="paint3_linear_448_50241" x1="20.1895" y1="52.6922" x2="26.6211" y2="52.6922" gradientUnits="userSpaceOnUse">
<stop/>
<stop offset="0.0001" stop-color="#020101"/>
<stop offset="0.299" stop-color="#E74C3C"/>
<stop offset="0.879"/>
</linearGradient>
<linearGradient id="paint4_linear_448_50241" x1="13.4922" y1="3.01602" x2="19.9503" y2="3.01602" gradientUnits="userSpaceOnUse">
<stop/>
<stop offset="0.0001" stop-color="#020101"/>
<stop offset="0.299" stop-color="#E74C3C"/>
<stop offset="0.879"/>
</linearGradient>
<linearGradient id="paint5_linear_448_50241" x1="19.9473" y1="6.04129" x2="20.0548" y2="6.04129" gradientUnits="userSpaceOnUse">
<stop/>
<stop offset="0.0001" stop-color="#020101"/>
<stop offset="0.299" stop-color="#E74C3C"/>
<stop offset="0.879"/>
</linearGradient>
<linearGradient id="paint6_linear_448_50241" x1="19.9473" y1="6.04129" x2="20.0548" y2="6.04129" gradientUnits="userSpaceOnUse">
<stop/>
<stop offset="0.0001" stop-color="#020101"/>
<stop offset="0.299" stop-color="#E74C3C"/>
<stop offset="0.879"/>
</linearGradient>
<linearGradient id="paint7_linear_448_50241" x1="13.4922" y1="104.966" x2="19.9503" y2="104.966" gradientUnits="userSpaceOnUse">
<stop/>
<stop offset="0.0001" stop-color="#020101"/>
<stop offset="0.299" stop-color="#E74C3C"/>
<stop offset="0.879"/>
</linearGradient>
<linearGradient id="paint8_linear_448_50241" x1="13" y1="82.8885" x2="912" y2="82.8885" gradientUnits="userSpaceOnUse">
<stop/>
<stop offset="0.0001" stop-color="#020101"/>
<stop offset="0.299" stop-color="#E74C3C"/>
<stop offset="0.879"/>
</linearGradient>
<linearGradient id="paint9_linear_448_50241" x1="0" y1="94.1458" x2="6.17505" y2="94.1458" gradientUnits="userSpaceOnUse">
<stop/>
<stop offset="0.0001" stop-color="#020101"/>
<stop offset="0.299" stop-color="#E74C3C"/>
<stop offset="0.879"/>
</linearGradient>
<linearGradient id="paint10_linear_448_50241" x1="20.1895" y1="106.692" x2="26.6211" y2="106.692" gradientUnits="userSpaceOnUse">
<stop/>
<stop offset="0.0001" stop-color="#020101"/>
<stop offset="0.299" stop-color="#E74C3C"/>
<stop offset="0.879"/>
</linearGradient>
<linearGradient id="paint11_linear_448_50241" x1="13.4922" y1="57.016" x2="19.9503" y2="57.016" gradientUnits="userSpaceOnUse">
<stop/>
<stop offset="0.0001" stop-color="#020101"/>
<stop offset="0.299" stop-color="#E74C3C"/>
<stop offset="0.879"/>
</linearGradient>
<linearGradient id="paint12_linear_448_50241" x1="19.9473" y1="60.0413" x2="20.0548" y2="60.0413" gradientUnits="userSpaceOnUse">
<stop/>
<stop offset="0.0001" stop-color="#020101"/>
<stop offset="0.299" stop-color="#E74C3C"/>
<stop offset="0.879"/>
</linearGradient>
<linearGradient id="paint13_linear_448_50241" x1="19.9473" y1="60.0413" x2="20.0548" y2="60.0413" gradientUnits="userSpaceOnUse">
<stop/>
<stop offset="0.0001" stop-color="#020101"/>
<stop offset="0.299" stop-color="#E74C3C"/>
<stop offset="0.879"/>
</linearGradient>
<linearGradient id="paint14_linear_448_50241" x1="13.4922" y1="157.966" x2="19.9503" y2="157.966" gradientUnits="userSpaceOnUse">
<stop/>
<stop offset="0.0001" stop-color="#020101"/>
<stop offset="0.299" stop-color="#E74C3C"/>
<stop offset="0.879"/>
</linearGradient>
<linearGradient id="paint15_linear_448_50241" x1="13" y1="135.889" x2="912" y2="135.889" gradientUnits="userSpaceOnUse">
<stop/>
<stop offset="0.0001" stop-color="#020101"/>
<stop offset="0.299" stop-color="#E74C3C"/>
<stop offset="0.879"/>
</linearGradient>
<linearGradient id="paint16_linear_448_50241" x1="0" y1="147.146" x2="6.17505" y2="147.146" gradientUnits="userSpaceOnUse">
<stop/>
<stop offset="0.0001" stop-color="#020101"/>
<stop offset="0.299" stop-color="#E74C3C"/>
<stop offset="0.879"/>
</linearGradient>
<linearGradient id="paint17_linear_448_50241" x1="20.1895" y1="159.692" x2="26.6211" y2="159.692" gradientUnits="userSpaceOnUse">
<stop/>
<stop offset="0.0001" stop-color="#020101"/>
<stop offset="0.299" stop-color="#E74C3C"/>
<stop offset="0.879"/>
</linearGradient>
<linearGradient id="paint18_linear_448_50241" x1="13.4922" y1="110.016" x2="19.9503" y2="110.016" gradientUnits="userSpaceOnUse">
<stop/>
<stop offset="0.0001" stop-color="#020101"/>
<stop offset="0.299" stop-color="#E74C3C"/>
<stop offset="0.879"/>
</linearGradient>
<linearGradient id="paint19_linear_448_50241" x1="19.9473" y1="113.041" x2="20.0548" y2="113.041" gradientUnits="userSpaceOnUse">
<stop/>
<stop offset="0.0001" stop-color="#020101"/>
<stop offset="0.299" stop-color="#E74C3C"/>
<stop offset="0.879"/>
</linearGradient>
<linearGradient id="paint20_linear_448_50241" x1="19.9473" y1="113.041" x2="20.0548" y2="113.041" gradientUnits="userSpaceOnUse">
<stop/>
<stop offset="0.0001" stop-color="#020101"/>
<stop offset="0.299" stop-color="#E74C3C"/>
<stop offset="0.879"/>
</linearGradient>
<linearGradient id="paint21_linear_448_50241" x1="13.4922" y1="211.966" x2="19.9503" y2="211.966" gradientUnits="userSpaceOnUse">
<stop/>
<stop offset="0.0001" stop-color="#020101"/>
<stop offset="0.299" stop-color="#E74C3C"/>
<stop offset="0.879"/>
</linearGradient>
<linearGradient id="paint22_linear_448_50241" x1="13" y1="189.889" x2="912" y2="189.889" gradientUnits="userSpaceOnUse">
<stop/>
<stop offset="0.0001" stop-color="#020101"/>
<stop offset="0.299" stop-color="#E74C3C"/>
<stop offset="0.879"/>
</linearGradient>
<linearGradient id="paint23_linear_448_50241" x1="0" y1="201.146" x2="6.17505" y2="201.146" gradientUnits="userSpaceOnUse">
<stop/>
<stop offset="0.0001" stop-color="#020101"/>
<stop offset="0.299" stop-color="#E74C3C"/>
<stop offset="0.879"/>
</linearGradient>
<linearGradient id="paint24_linear_448_50241" x1="20.1895" y1="213.692" x2="26.6211" y2="213.692" gradientUnits="userSpaceOnUse">
<stop/>
<stop offset="0.0001" stop-color="#020101"/>
<stop offset="0.299" stop-color="#E74C3C"/>
<stop offset="0.879"/>
</linearGradient>
<linearGradient id="paint25_linear_448_50241" x1="13.4922" y1="164.016" x2="19.9503" y2="164.016" gradientUnits="userSpaceOnUse">
<stop/>
<stop offset="0.0001" stop-color="#020101"/>
<stop offset="0.299" stop-color="#E74C3C"/>
<stop offset="0.879"/>
</linearGradient>
<linearGradient id="paint26_linear_448_50241" x1="19.9473" y1="167.041" x2="20.0548" y2="167.041" gradientUnits="userSpaceOnUse">
<stop/>
<stop offset="0.0001" stop-color="#020101"/>
<stop offset="0.299" stop-color="#E74C3C"/>
<stop offset="0.879"/>
</linearGradient>
<linearGradient id="paint27_linear_448_50241" x1="19.9473" y1="167.041" x2="20.0548" y2="167.041" gradientUnits="userSpaceOnUse">
<stop/>
<stop offset="0.0001" stop-color="#020101"/>
<stop offset="0.299" stop-color="#E74C3C"/>
<stop offset="0.879"/>
</linearGradient>
<linearGradient id="paint28_linear_448_50241" x1="674" y1="96.5" x2="540" y2="96.5" gradientUnits="userSpaceOnUse">
<stop stop-color="#979797"/>
<stop offset="1" stop-color="white"/>
</linearGradient>
<linearGradient id="paint29_linear_448_50241" x1="670" y1="126" x2="540" y2="126" gradientUnits="userSpaceOnUse">
<stop stop-color="#979797"/>
<stop offset="1" stop-color="white"/>
</linearGradient>
</defs>
</svg>
