<svg width="673" height="368" viewBox="0 0 673 368" fill="none" xmlns="http://www.w3.org/2000/svg">
<path d="M106.026 263.29V287.145H98.0741V295.097H90.1221V303.048H82.1701V311H34.4584V303.048H26.5065V295.097H18.5545V287.145H10.6026V279.193H2.65065V167.869H10.6026V159.918H18.5545V151.966H26.5065V144.014H34.4584V136.062H82.1701V144.014H90.1221V151.966H98.0741V159.918H106.026V183.773H82.1701V167.869H74.2182V159.918H42.4104V167.869H34.4584V175.821H26.5065V271.241H34.4584V279.193H42.4104V287.145H74.2182V279.193H82.1701V263.29H106.026Z" fill="white"/>
<path d="M193.549 271.241H201.501V175.821H193.549V167.869H185.597V159.918H161.741V167.869H153.789V175.821H145.838V271.241H153.789V279.193H161.741V287.145H185.597V279.193H193.549V271.241ZM225.357 167.869V279.193H217.405V287.145H209.453V295.097H201.501V303.048H193.549V311H153.789V303.048H145.838V295.097H137.886V287.145H129.934V279.193H121.982V167.869H129.934V159.918H137.886V151.966H145.838V144.014H153.789V136.062H193.549V144.014H201.501V151.966H209.453V159.918H217.405V167.869H225.357Z" fill="white"/>
<path d="M312.88 263.29H320.832V183.773H312.88V175.821H304.928V167.869H296.976V159.918H265.169V287.145H296.976V279.193H304.928V271.241H312.88V263.29ZM344.688 175.821V271.241H336.736V279.193H328.784V287.145H320.832V295.097H312.88V303.048H304.663V311H241.313V136.062H304.928V144.014H312.88V151.966H320.832V159.918H328.784V167.869H336.736V175.821H344.688Z" fill="white"/>
<path d="M464.019 287.145V311H360.644V136.062H464.019V159.918H384.5V207.628H448.115V231.483H384.5V287.145H464.019Z" fill="white"/>
<path d="M673 268.856V311H490.37V198.616H504.419V184.568H518.467V170.52H532.516V156.472H546.564V142.424H602.758V128.376H616.806V114.328H630.855V58.1358H616.806V44.0878H546.564V58.1358H532.516V86.2318H490.37V44.0878H504.419V30.0398H518.467V15.9917H532.516V1.94374H630.855V15.9917H644.903V30.0398H658.952V44.0878H673V128.376H658.952V142.424H644.903V156.472H630.855V170.52H616.806V184.568H560.612V198.616H546.564V212.664H532.516V268.856H673Z" fill="url(#paint0_linear_448_64882)"/>
<path d="M68.9169 63.6136V100.722H63.6156V106.023H58.3143V111.324H53.013V116.625H15.9039V111.324H10.6026V106.023H5.3013V100.722H0V84.8182H15.9039V95.4205H21.2052V100.722H47.7117V95.4205H53.013V68.9148H47.7117V63.6136H15.9039V58.3125H10.6026V53.0114H5.3013V47.7102H0V15.9034H5.3013V10.6023H10.6026V5.30113H15.9039V0H53.013V5.30113H58.3143V10.6023H63.6156V15.9034H68.9169V31.8068H53.013V21.2045H47.7117V15.9034H21.2052V21.2045H15.9039V42.4091H21.2052V47.7102H53.013V53.0114H58.3143V58.3125H63.6156V63.6136H68.9169Z" fill="white"/>
<path d="M148.471 0V15.9034H121.964V116.625H106.061V15.9034H79.554V0H148.471Z" fill="white"/>
<path d="M175.012 74.2159H212.121V63.6136H206.82V53.0114H201.518V42.4091H196.217V31.8068H190.916V42.4091H185.615V53.0114H180.313V63.6136H175.012V74.2159ZM228.025 116.625H212.121V90.1193H175.012V116.625H159.108V58.3125H164.409V47.7102H169.711V37.108H175.012V26.5057H180.313V15.9034H185.615V5.30113H190.916V0H196.217V5.30113H201.518V15.9034H206.82V26.5057H212.121V37.108H217.422V47.7102H222.724V58.3125H228.025V116.625Z" fill="white"/>
<path d="M307.579 0V15.9034H281.072V116.625H265.169V15.9034H238.662V0H307.579Z" fill="white"/>
<path d="M387.133 0V100.722H381.832V106.023H376.53V111.324H371.229V116.625H334.12V111.324H328.819V106.023H323.517V100.722H318.216V0H334.12V95.4205H339.421V100.722H365.928V95.4205H371.229V0H387.133Z" fill="white"/>
<path d="M466.687 63.6136V100.722H461.386V106.023H456.084V111.324H450.783V116.625H413.674V111.324H408.373V106.023H403.071V100.722H397.77V84.8182H413.674V95.4205H418.975V100.722H445.482V95.4205H450.783V68.9148H445.482V63.6136H413.674V58.3125H408.373V53.0114H403.071V47.7102H397.77V15.9034H403.071V10.6023H408.373V5.30113H413.674V0H450.783V5.30113H456.084V10.6023H461.386V15.9034H466.687V31.8068H450.783V21.2045H445.482V15.9034H418.975V21.2045H413.674V42.4091H418.975V47.7102H450.783V53.0114H456.084V58.3125H461.386V63.6136H466.687Z" fill="white"/>
<path d="M36.6 341.6V368H35.4V365.6H34.2V363.2H33V360.8H31.8V358.4H30.6V356H29.4V353.6H28.2V356H27V358.4H25.8V360.8H24.6V363.2H23.4V365.6H22.2V368H21V341.6H24.6V354.8H25.8V352.4H27V350H28.2V347.6H29.4V350H30.6V352.4H31.8V354.8H33V341.6H36.6ZM49.8078 362H51.0078V354.8H49.8078V353.6H48.6078V352.4H43.8078V353.6H42.6078V363.2H43.8078V364.4H48.6078V363.2H49.8078V362ZM54.6078 348.8V368H51.0078V365.6H49.8078V366.8H48.6078V368H42.6078V366.8H41.4078V365.6H40.2078V364.4H39.0078V352.4H40.2078V351.2H41.4078V350H42.6078V348.8H48.6078V350H49.8078V351.2H51.0078V348.8H54.6078ZM72.6156 352.4V368H69.0156V353.6H67.8156V352.4H63.0156V353.6H61.8156V354.8H60.6156V368H57.0156V348.8H60.6156V351.2H61.8156V350H63.0156V348.8H69.0156V350H70.2156V351.2H71.4156V352.4H72.6156ZM90.6234 362V364.4H89.4234V365.6H88.2234V366.8H87.0234V368H79.8234V366.8H78.6234V365.6H77.4234V364.4H76.2234V363.2H75.0234V346.4H78.6234V351.2H89.4234V354.8H78.6234V362H79.8234V363.2H81.0234V364.4H85.8234V363.2H87.0234V362H90.6234ZM126.639 362V364.4H125.439V365.6H124.239V366.8H123.039V368H115.839V366.8H114.639V365.6H113.439V364.4H112.239V363.2H111.039V346.4H114.639V351.2H125.439V354.8H114.639V362H115.839V363.2H117.039V364.4H121.839V363.2H123.039V362H126.639ZM139.847 362H141.047V354.8H139.847V353.6H138.647V352.4H135.047V353.6H133.847V354.8H132.647V362H133.847V363.2H135.047V364.4H138.647V363.2H139.847V362ZM144.647 353.6V363.2H143.447V364.4H142.247V365.6H141.047V366.8H139.847V368H133.847V366.8H132.647V365.6H131.447V364.4H130.247V363.2H129.047V353.6H130.247V352.4H131.447V351.2H132.647V350H133.847V348.8H139.847V350H141.047V351.2H142.247V352.4H143.447V353.6H144.647ZM180.663 348.8V364.4H179.463V365.6H178.263V366.8H177.063V368H168.663V366.8H167.463V365.6H166.263V364.4H165.062V362H168.663V363.2H169.863V364.4H175.863V363.2H177.063V352.4H172.263V348.8H180.663ZM180.663 341.6V345.2H177.063V341.6H180.663ZM193.87 362H195.07V354.8H193.87V353.6H192.67V352.4H189.07V353.6H187.87V354.8H186.67V362H187.87V363.2H189.07V364.4H192.67V363.2H193.87V362ZM198.67 353.6V363.2H197.47V364.4H196.27V365.6H195.07V366.8H193.87V368H187.87V366.8H186.67V365.6H185.47V364.4H184.27V363.2H183.07V353.6H184.27V352.4H185.47V351.2H186.67V350H187.87V348.8H193.87V350H195.07V351.2H196.27V352.4H197.47V353.6H198.67ZM216.678 364.4V368H201.078V364.4H207.078V352.4H204.678V348.8H210.678V364.4H216.678ZM210.678 341.6V345.2H207.078V341.6H210.678ZM234.686 352.4V368H231.086V353.6H229.886V352.4H225.086V353.6H223.886V354.8H222.686V368H219.086V348.8H222.686V351.2H223.886V350H225.086V348.8H231.086V350H232.286V351.2H233.486V352.4H234.686ZM270.702 348.8V368H267.102V365.6H265.902V366.8H264.702V368H258.702V366.8H257.502V365.6H256.302V364.4H255.102V348.8H258.702V363.2H259.902V364.4H264.702V363.2H265.902V362H267.102V348.8H270.702ZM288.709 359.6V364.4H287.509V365.6H286.309V366.8H285.109V368H276.709V366.8H275.509V365.6H274.309V364.4H273.109V362H276.709V363.2H277.909V364.4H283.909V363.2H285.109V360.8H283.909V359.6H276.709V358.4H275.509V357.2H274.309V356H273.109V352.4H274.309V351.2H275.509V350H276.709V348.8H286.309V350H287.509V351.2H288.709V353.6H285.109V352.4H277.909V353.6H276.709V354.8H277.909V356H285.109V357.2H286.309V358.4H287.509V359.6H288.709ZM298.317 364.4V368H294.717V364.4H298.317ZM306.717 345.2V351.2H305.517V352.4H304.317V353.6H303.117V354.8H301.917V356H300.717V357.2H299.517V358.4H298.317V360.8H294.717V357.2H295.917V356H297.117V354.8H298.317V353.6H299.517V352.4H300.717V351.2H301.917V350H303.117V346.4H301.917V345.2H295.917V346.4H294.717V348.8H291.117V345.2H292.317V344H293.517V342.8H294.717V341.6H303.117V342.8H304.317V344H305.517V345.2H306.717ZM342.733 353.6V365.6H341.533V366.8H340.333V368H331.933V366.8H330.733V365.6H329.533V364.4H328.333V363.2H327.133V346.4H328.333V345.2H329.533V344H330.733V342.8H331.933V341.6H340.333V342.8H341.533V344H342.733V346.4H339.133V345.2H333.133V346.4H331.933V347.6H330.733V362H331.933V363.2H333.133V364.4H339.133V357.2H337.933V358.4H334.333V353.6H342.733ZM348.741 357.2H357.141V353.6H355.941V352.4H349.941V353.6H348.741V357.2ZM360.741 352.4V358.4H359.541V359.6H358.341V360.8H348.741V363.2H349.941V364.4H359.541V368H348.741V366.8H347.541V365.6H346.341V364.4H345.141V352.4H346.341V351.2H347.541V350H348.741V348.8H357.141V350H358.341V351.2H359.541V352.4H360.741ZM378.748 362V364.4H377.548V365.6H376.348V366.8H375.148V368H367.948V366.8H366.748V365.6H365.548V364.4H364.348V363.2H363.148V346.4H366.748V351.2H377.548V354.8H366.748V362H367.948V363.2H369.148V364.4H373.948V363.2H375.148V362H378.748ZM414.764 348.8V368H411.164V365.6H409.964V366.8H408.764V368H402.764V366.8H401.564V365.6H400.364V364.4H399.164V348.8H402.764V363.2H403.964V364.4H408.764V363.2H409.964V362H411.164V348.8H414.764ZM432.772 359.6V364.4H431.572V365.6H430.372V366.8H429.172V368H420.772V366.8H419.572V365.6H418.372V364.4H417.172V362H420.772V363.2H421.972V364.4H427.972V363.2H429.172V360.8H427.972V359.6H420.772V358.4H419.572V357.2H418.372V356H417.172V352.4H418.372V351.2H419.572V350H420.772V348.8H430.372V350H431.572V351.2H432.772V353.6H429.172V352.4H421.972V353.6H420.772V354.8H421.972V356H429.172V357.2H430.372V358.4H431.572V359.6H432.772ZM463.988 362H465.188V354.8H463.988V353.6H462.788V352.4H459.188V353.6H457.988V354.8H456.788V362H457.988V363.2H459.188V364.4H462.788V363.2H463.988V362ZM468.788 353.6V363.2H467.588V364.4H466.388V365.6H465.188V366.8H463.988V368H457.988V366.8H456.788V365.6H455.588V364.4H454.388V363.2H453.188V353.6H454.388V352.4H455.588V351.2H456.788V350H457.988V348.8H463.988V350H465.188V351.2H466.388V352.4H467.588V353.6H468.788ZM486.795 352.4V368H483.195V353.6H481.995V352.4H477.195V353.6H475.995V354.8H474.795V368H471.195V348.8H474.795V351.2H475.995V350H477.195V348.8H483.195V350H484.395V351.2H485.595V352.4H486.795ZM518.011 360.8H519.211V348.8H518.011V347.6H516.811V346.4H515.611V345.2H510.811V364.4H515.611V363.2H516.811V362H518.011V360.8ZM522.811 347.6V362H521.611V363.2H520.411V364.4H519.211V365.6H518.011V366.8H516.771V368H507.211V341.6H516.811V342.8H518.011V344H519.211V345.2H520.411V346.4H521.611V347.6H522.811ZM540.819 364.4V368H525.219V364.4H531.219V352.4H528.819V348.8H534.819V364.4H540.819ZM534.819 341.6V345.2H531.219V341.6H534.819ZM558.827 359.6V364.4H557.627V365.6H556.427V366.8H555.227V368H546.827V366.8H545.627V365.6H544.427V364.4H543.227V362H546.827V363.2H548.027V364.4H554.027V363.2H555.227V360.8H554.027V359.6H546.827V358.4H545.627V357.2H544.427V356H543.227V352.4H544.427V351.2H545.627V350H546.827V348.8H556.427V350H557.627V351.2H558.827V353.6H555.227V352.4H548.027V353.6H546.827V354.8H548.027V356H555.227V357.2H556.427V358.4H557.627V359.6H558.827ZM576.834 362V364.4H575.634V365.6H574.434V366.8H573.234V368H566.034V366.8H564.834V365.6H563.634V364.4H562.434V363.2H561.234V353.6H562.434V352.4H563.634V351.2H564.834V350H566.034V348.8H573.234V350H574.434V351.2H575.634V352.4H576.834V354.8H573.234V353.6H572.034V352.4H567.234V353.6H566.034V354.8H564.834V362H566.034V363.2H567.234V364.4H572.034V363.2H573.234V362H576.834ZM590.042 362H591.242V354.8H590.042V353.6H588.842V352.4H585.242V353.6H584.042V354.8H582.842V362H584.042V363.2H585.242V364.4H588.842V363.2H590.042V362ZM594.842 353.6V363.2H593.642V364.4H592.442V365.6H591.242V366.8H590.042V368H584.042V366.8H582.842V365.6H581.642V364.4H580.442V363.2H579.242V353.6H580.442V352.4H581.642V351.2H582.842V350H584.042V348.8H590.042V350H591.242V351.2H592.442V352.4H593.642V353.6H594.842ZM612.85 350V353.6H610.45V352.4H602.05V353.6H600.85V368H597.25V352.4H598.45V351.2H599.65V350H600.85V348.8H611.65V350H612.85ZM626.058 362H627.258V354.8H626.058V353.6H624.858V352.4H620.058V353.6H618.858V363.2H620.058V364.4H624.858V363.2H626.058V362ZM630.858 341.6V368H627.258V365.6H626.058V366.8H624.858V368H618.858V366.8H617.658V365.6H616.458V364.4H615.258V352.4H616.458V351.2H617.658V350H618.858V348.8H624.858V350H626.058V351.2H627.258V341.6H630.858ZM642.866 364.4V368H639.266V364.4H642.866ZM644.066 341.6V345.2H642.866V360.8H639.266V345.2H638.066V341.6H644.066Z" fill="url(#paint1_linear_448_64882)"/>
<defs>
<linearGradient id="paint0_linear_448_64882" x1="673" y1="155.5" x2="0" y2="155.5" gradientUnits="userSpaceOnUse">
<stop stop-color="#FE2E41"/>
<stop offset="1" stop-color="#FC6955"/>
</linearGradient>
<linearGradient id="paint1_linear_448_64882" x1="652" y1="356" x2="21" y2="356" gradientUnits="userSpaceOnUse">
<stop stop-color="#FF4866"/>
<stop offset="1" stop-color="#FF8D7C"/>
</linearGradient>
</defs>
</svg>
