<svg width="138" height="100" viewBox="0 0 138 100" fill="none" xmlns="http://www.w3.org/2000/svg">
<path d="M131.727 43.75V25H125.455V12.5H119.182V6.25H106.636V0H87.8182V6.25H50.1818V0H31.3636V6.25H18.8182V12.5H12.5455V25H6.27273V43.75H0V87.5H12.5455V93.75H25.0909V100H37.6364V87.5H31.3636V81.25H43.9091V87.5H50.1818V93.75H87.8182V87.5H94.0909V81.25H106.636V87.5H100.364V100H112.909V93.75H125.455V87.5H138V43.75H131.727ZM50.1818 68.75H37.6364V62.5H31.3636V50H37.6364V43.75H50.1818V50H56.4545V62.5H50.1818V68.75ZM106.636 62.5H100.364V68.75H87.8182V62.5H81.5455V50H87.8182V43.75H100.364V50H106.636V62.5Z" fill="#E16AFF" style="mix-blend-mode:color-dodge"/>
</svg>
