<svg width="689" height="76" viewBox="0 0 689 76" fill="none" xmlns="http://www.w3.org/2000/svg">
<path d="M9.86427 76V66.1299H39.4747V76H9.86427ZM-0.00585938 66.1299V56.2597H9.86427V66.1299H-0.00585938ZM39.4747 66.1299V46.3896H49.3448V66.1299H39.4747ZM9.86427 46.3896V36.5195H39.4747V46.3896H9.86427ZM-0.00585938 36.5195V16.7792H9.86427V36.5195H-0.00585938ZM39.4747 26.6494V16.7792H49.3448V26.6494H39.4747ZM9.86427 16.7792V6.90909H39.4747V16.7792H9.86427Z" fill="url(#paint0_linear_448_40239)" style="mix-blend-mode:hard-light"/>
<path d="M78.9552 76V16.7792H59.2149V6.90909H108.566V16.7792H88.8253V76H78.9552Z" fill="url(#paint1_linear_448_40239)" style="mix-blend-mode:hard-light"/>
<path d="M118.436 76V26.6494H128.306V36.5195H157.916V26.6494H167.786V76H157.916V46.3896H128.306V76H118.436ZM128.306 26.6494V16.7792H138.176V26.6494H128.306ZM148.046 26.6494V16.7792H157.916V26.6494H148.046ZM138.176 16.7792V6.90909H148.046V16.7792H138.176Z" fill="url(#paint2_linear_448_40239)" style="mix-blend-mode:hard-light"/>
<path d="M197.397 76V16.7792H177.656V6.90909H227.007V16.7792H207.267V76H197.397Z" fill="url(#paint3_linear_448_40239)" style="mix-blend-mode:hard-light"/>
<path d="M246.747 76V66.1299H276.358V76H246.747ZM236.877 66.1299V6.90909H246.747V66.1299H236.877ZM276.358 66.1299V6.90909H286.228V66.1299H276.358Z" fill="url(#paint4_linear_448_40239)" style="mix-blend-mode:hard-light"/>
<path d="M305.968 76V66.1299H335.579V76H305.968ZM296.098 66.1299V56.2597H305.968V66.1299H296.098ZM335.579 66.1299V46.3896H345.449V66.1299H335.579ZM305.968 46.3896V36.5195H335.579V46.3896H305.968ZM296.098 36.5195V16.7792H305.968V36.5195H296.098ZM335.579 26.6494V16.7792H345.449V26.6494H335.579ZM305.968 16.7792V6.90909H335.579V16.7792H305.968Z" fill="url(#paint5_linear_448_40239)" style="mix-blend-mode:hard-light"/>
<path d="M384.929 76V66.1299H414.54V76H384.929ZM414.54 66.1299V56.2597H424.41V66.1299H414.54ZM375.059 66.1299V16.7792H384.929V66.1299H375.059ZM414.54 26.6494V16.7792H424.41V26.6494H414.54ZM384.929 16.7792V6.90909H414.54V16.7792H384.929Z" fill="url(#paint6_linear_448_40239)" style="mix-blend-mode:hard-light"/>
<path d="M444.15 76V66.1299H473.76V76H444.15ZM434.28 66.1299V16.7792H444.15V66.1299H434.28ZM473.76 66.1299V16.7792H483.63V66.1299H473.76ZM444.15 16.7792V6.90909H473.76V16.7792H444.15Z" fill="url(#paint7_linear_448_40239)" style="mix-blend-mode:hard-light"/>
<path d="M532.981 66.1299V16.7792H542.851V66.1299H532.981ZM493.501 76V6.90909H532.981V16.7792H503.371V66.1299H532.981V76H493.501Z" fill="url(#paint8_linear_448_40239)" style="mix-blend-mode:hard-light"/>
<path d="M552.721 76V6.90909H602.072V16.7792H562.592V36.5195H592.202V46.3896H562.592V66.1299H602.072V76H552.721Z" fill="url(#paint9_linear_448_40239)" style="mix-blend-mode:hard-light"/>
<path d="M634.72 76V65.1429H645.577V54.2857H656.435V65.1429H689.006V76H634.72ZM656.435 54.2857V43.4286H667.292V54.2857H656.435ZM667.292 43.4286V32.5714H678.149V43.4286H667.292ZM634.72 21.7143V10.8571H645.577V21.7143H634.72ZM678.149 32.5714V10.8571H689.006V32.5714H678.149ZM645.577 10.8571V0H678.149V10.8571H645.577Z" fill="url(#paint10_linear_448_40239)"/>
<defs>
<linearGradient id="paint0_linear_448_40239" x1="-0.00585938" y1="38" x2="689.006" y2="38" gradientUnits="userSpaceOnUse">
<stop stop-color="#78FFFF"/>
<stop offset="1" stop-color="#88D9FF"/>
</linearGradient>
<linearGradient id="paint1_linear_448_40239" x1="-0.00585938" y1="38" x2="689.006" y2="38" gradientUnits="userSpaceOnUse">
<stop stop-color="#78FFFF"/>
<stop offset="1" stop-color="#88D9FF"/>
</linearGradient>
<linearGradient id="paint2_linear_448_40239" x1="-0.00585938" y1="38" x2="689.006" y2="38" gradientUnits="userSpaceOnUse">
<stop stop-color="#78FFFF"/>
<stop offset="1" stop-color="#88D9FF"/>
</linearGradient>
<linearGradient id="paint3_linear_448_40239" x1="-0.00585938" y1="38" x2="689.006" y2="38" gradientUnits="userSpaceOnUse">
<stop stop-color="#78FFFF"/>
<stop offset="1" stop-color="#88D9FF"/>
</linearGradient>
<linearGradient id="paint4_linear_448_40239" x1="-0.00585938" y1="38" x2="689.006" y2="38" gradientUnits="userSpaceOnUse">
<stop stop-color="#78FFFF"/>
<stop offset="1" stop-color="#88D9FF"/>
</linearGradient>
<linearGradient id="paint5_linear_448_40239" x1="-0.00585938" y1="38" x2="689.006" y2="38" gradientUnits="userSpaceOnUse">
<stop stop-color="#78FFFF"/>
<stop offset="1" stop-color="#88D9FF"/>
</linearGradient>
<linearGradient id="paint6_linear_448_40239" x1="-0.00585938" y1="38" x2="689.006" y2="38" gradientUnits="userSpaceOnUse">
<stop stop-color="#78FFFF"/>
<stop offset="1" stop-color="#88D9FF"/>
</linearGradient>
<linearGradient id="paint7_linear_448_40239" x1="-0.00585938" y1="38" x2="689.006" y2="38" gradientUnits="userSpaceOnUse">
<stop stop-color="#78FFFF"/>
<stop offset="1" stop-color="#88D9FF"/>
</linearGradient>
<linearGradient id="paint8_linear_448_40239" x1="-0.00585938" y1="38" x2="689.006" y2="38" gradientUnits="userSpaceOnUse">
<stop stop-color="#78FFFF"/>
<stop offset="1" stop-color="#88D9FF"/>
</linearGradient>
<linearGradient id="paint9_linear_448_40239" x1="-0.00585938" y1="38" x2="689.006" y2="38" gradientUnits="userSpaceOnUse">
<stop stop-color="#78FFFF"/>
<stop offset="1" stop-color="#88D9FF"/>
</linearGradient>
<linearGradient id="paint10_linear_448_40239" x1="649.039" y1="3.64885" x2="702.422" y2="59.9456" gradientUnits="userSpaceOnUse">
<stop stop-color="#FF2E41"/>
<stop offset="1" stop-color="#FC6955"/>
</linearGradient>
</defs>
</svg>
